G04 #@! TF.GenerationSoftware,KiCad,Pcbnew,6.0.0-rc1-unknown-46fddab~66~ubuntu16.04.1*
G04 #@! TF.CreationDate,2018-09-28T18:46:45+01:00*
G04 #@! TF.ProjectId,test,746573742E6B696361645F7063620000,rev?*
G04 #@! TF.SameCoordinates,Original*
G04 #@! TF.FileFunction,Copper,L1,Top,Signal*
G04 #@! TF.FilePolarity,Positive*
%FSLAX46Y46*%
G04 Gerber Fmt 4.6, Leading zero omitted, Abs format (unit mm)*
G04 Created by KiCad (PCBNEW 6.0.0-rc1-unknown-46fddab~66~ubuntu16.04.1) date Fri Sep 28 18:46:45 2018*
%MOMM*%
%LPD*%
G01*
G04 APERTURE LIST*
G04 #@! TA.AperFunction,SMDPad,CuDef*
%ADD10R,2.500000X2.500000*%
G04 #@! TD*
G04 #@! TA.AperFunction,ComponentPad*
%ADD11C,6.000000*%
G04 #@! TD*
G04 #@! TA.AperFunction,Conductor*
%ADD12C,0.100000*%
G04 #@! TD*
G04 #@! TA.AperFunction,SMDPad,CuDef*
%ADD13C,0.875000*%
G04 #@! TD*
G04 #@! TA.AperFunction,ComponentPad*
%ADD14R,2.600000X2.000000*%
G04 #@! TD*
G04 #@! TA.AperFunction,ComponentPad*
%ADD15O,2.600000X2.000000*%
G04 #@! TD*
G04 #@! TA.AperFunction,ComponentPad*
%ADD16R,1.700000X1.700000*%
G04 #@! TD*
G04 #@! TA.AperFunction,ComponentPad*
%ADD17O,1.700000X1.700000*%
G04 #@! TD*
G04 #@! TA.AperFunction,SMDPad,CuDef*
%ADD18R,1.390000X0.580000*%
G04 #@! TD*
G04 #@! TA.AperFunction,SMDPad,CuDef*
%ADD19C,1.150000*%
G04 #@! TD*
G04 #@! TA.AperFunction,SMDPad,CuDef*
%ADD20C,0.975000*%
G04 #@! TD*
G04 #@! TA.AperFunction,ViaPad*
%ADD21C,0.800000*%
G04 #@! TD*
G04 #@! TA.AperFunction,Conductor*
%ADD22C,0.250000*%
G04 #@! TD*
G04 #@! TA.AperFunction,Conductor*
%ADD23C,0.254000*%
G04 #@! TD*
G04 APERTURE END LIST*
D10*
G04 #@! TO.P,K,1*
G04 #@! TO.N,4V096*
X177750000Y-105750000D03*
G04 #@! TD*
G04 #@! TO.P,5V,1*
G04 #@! TO.N,5V*
X173250000Y-105750000D03*
G04 #@! TD*
D11*
G04 #@! TO.P,REF\002A\002A,1*
G04 #@! TO.N,N/C*
X141000000Y-49250000D03*
G04 #@! TD*
G04 #@! TO.P,REF\002A\002A,1*
G04 #@! TO.N,N/C*
X190000000Y-49250000D03*
G04 #@! TD*
G04 #@! TO.P,REF\002A\002A,1*
G04 #@! TO.N,N/C*
X190000000Y-107250000D03*
G04 #@! TD*
G04 #@! TO.P,REF\002A\002A,1*
G04 #@! TO.N,N/C*
X141000000Y-107250000D03*
G04 #@! TD*
D12*
G04 #@! TO.N,GND*
G04 #@! TO.C,C4*
G36*
X176277691Y-75026053D02*
X176298926Y-75029203D01*
X176319750Y-75034419D01*
X176339962Y-75041651D01*
X176359368Y-75050830D01*
X176377781Y-75061866D01*
X176395024Y-75074654D01*
X176410930Y-75089070D01*
X176425346Y-75104976D01*
X176438134Y-75122219D01*
X176449170Y-75140632D01*
X176458349Y-75160038D01*
X176465581Y-75180250D01*
X176470797Y-75201074D01*
X176473947Y-75222309D01*
X176475000Y-75243750D01*
X176475000Y-75681250D01*
X176473947Y-75702691D01*
X176470797Y-75723926D01*
X176465581Y-75744750D01*
X176458349Y-75764962D01*
X176449170Y-75784368D01*
X176438134Y-75802781D01*
X176425346Y-75820024D01*
X176410930Y-75835930D01*
X176395024Y-75850346D01*
X176377781Y-75863134D01*
X176359368Y-75874170D01*
X176339962Y-75883349D01*
X176319750Y-75890581D01*
X176298926Y-75895797D01*
X176277691Y-75898947D01*
X176256250Y-75900000D01*
X175743750Y-75900000D01*
X175722309Y-75898947D01*
X175701074Y-75895797D01*
X175680250Y-75890581D01*
X175660038Y-75883349D01*
X175640632Y-75874170D01*
X175622219Y-75863134D01*
X175604976Y-75850346D01*
X175589070Y-75835930D01*
X175574654Y-75820024D01*
X175561866Y-75802781D01*
X175550830Y-75784368D01*
X175541651Y-75764962D01*
X175534419Y-75744750D01*
X175529203Y-75723926D01*
X175526053Y-75702691D01*
X175525000Y-75681250D01*
X175525000Y-75243750D01*
X175526053Y-75222309D01*
X175529203Y-75201074D01*
X175534419Y-75180250D01*
X175541651Y-75160038D01*
X175550830Y-75140632D01*
X175561866Y-75122219D01*
X175574654Y-75104976D01*
X175589070Y-75089070D01*
X175604976Y-75074654D01*
X175622219Y-75061866D01*
X175640632Y-75050830D01*
X175660038Y-75041651D01*
X175680250Y-75034419D01*
X175701074Y-75029203D01*
X175722309Y-75026053D01*
X175743750Y-75025000D01*
X176256250Y-75025000D01*
X176277691Y-75026053D01*
X176277691Y-75026053D01*
G37*
D13*
G04 #@! TD*
G04 #@! TO.P,C4,2*
G04 #@! TO.N,GND*
X176000000Y-75462500D03*
D12*
G04 #@! TO.N,5V*
G04 #@! TO.C,C4*
G36*
X176277691Y-76601053D02*
X176298926Y-76604203D01*
X176319750Y-76609419D01*
X176339962Y-76616651D01*
X176359368Y-76625830D01*
X176377781Y-76636866D01*
X176395024Y-76649654D01*
X176410930Y-76664070D01*
X176425346Y-76679976D01*
X176438134Y-76697219D01*
X176449170Y-76715632D01*
X176458349Y-76735038D01*
X176465581Y-76755250D01*
X176470797Y-76776074D01*
X176473947Y-76797309D01*
X176475000Y-76818750D01*
X176475000Y-77256250D01*
X176473947Y-77277691D01*
X176470797Y-77298926D01*
X176465581Y-77319750D01*
X176458349Y-77339962D01*
X176449170Y-77359368D01*
X176438134Y-77377781D01*
X176425346Y-77395024D01*
X176410930Y-77410930D01*
X176395024Y-77425346D01*
X176377781Y-77438134D01*
X176359368Y-77449170D01*
X176339962Y-77458349D01*
X176319750Y-77465581D01*
X176298926Y-77470797D01*
X176277691Y-77473947D01*
X176256250Y-77475000D01*
X175743750Y-77475000D01*
X175722309Y-77473947D01*
X175701074Y-77470797D01*
X175680250Y-77465581D01*
X175660038Y-77458349D01*
X175640632Y-77449170D01*
X175622219Y-77438134D01*
X175604976Y-77425346D01*
X175589070Y-77410930D01*
X175574654Y-77395024D01*
X175561866Y-77377781D01*
X175550830Y-77359368D01*
X175541651Y-77339962D01*
X175534419Y-77319750D01*
X175529203Y-77298926D01*
X175526053Y-77277691D01*
X175525000Y-77256250D01*
X175525000Y-76818750D01*
X175526053Y-76797309D01*
X175529203Y-76776074D01*
X175534419Y-76755250D01*
X175541651Y-76735038D01*
X175550830Y-76715632D01*
X175561866Y-76697219D01*
X175574654Y-76679976D01*
X175589070Y-76664070D01*
X175604976Y-76649654D01*
X175622219Y-76636866D01*
X175640632Y-76625830D01*
X175660038Y-76616651D01*
X175680250Y-76609419D01*
X175701074Y-76604203D01*
X175722309Y-76601053D01*
X175743750Y-76600000D01*
X176256250Y-76600000D01*
X176277691Y-76601053D01*
X176277691Y-76601053D01*
G37*
D13*
G04 #@! TD*
G04 #@! TO.P,C4,1*
G04 #@! TO.N,5V*
X176000000Y-77037500D03*
D14*
G04 #@! TO.P,J1,1*
G04 #@! TO.N,4V096*
X188000000Y-101000000D03*
D15*
G04 #@! TO.P,J1,2*
G04 #@! TO.N,Net-(J1-Pad2)*
X188000000Y-97500000D03*
G04 #@! TO.P,J1,3*
G04 #@! TO.N,4V096*
X188000000Y-94000000D03*
G04 #@! TO.P,J1,4*
G04 #@! TO.N,Net-(J1-Pad4)*
X188000000Y-90500000D03*
G04 #@! TO.P,J1,5*
G04 #@! TO.N,4V096*
X188000000Y-87000000D03*
G04 #@! TO.P,J1,6*
G04 #@! TO.N,Net-(J1-Pad6)*
X188000000Y-83500000D03*
G04 #@! TO.P,J1,7*
G04 #@! TO.N,4V096*
X188000000Y-80000000D03*
G04 #@! TO.P,J1,8*
G04 #@! TO.N,Net-(J1-Pad8)*
X188000000Y-76500000D03*
G04 #@! TO.P,J1,9*
G04 #@! TO.N,4V096*
X188000000Y-73000000D03*
G04 #@! TO.P,J1,10*
G04 #@! TO.N,Net-(J1-Pad10)*
X188000000Y-69500000D03*
G04 #@! TO.P,J1,11*
G04 #@! TO.N,4V096*
X188000000Y-66000000D03*
G04 #@! TO.P,J1,12*
G04 #@! TO.N,Net-(J1-Pad12)*
X188000000Y-62500000D03*
G04 #@! TO.P,J1,13*
G04 #@! TO.N,4V096*
X188000000Y-59000000D03*
G04 #@! TO.P,J1,14*
G04 #@! TO.N,Net-(J1-Pad14)*
X188000000Y-55500000D03*
G04 #@! TD*
D16*
G04 #@! TO.P,RASPI_2_3_HEADER1,1*
G04 #@! TO.N,Net-(RASPI_2_3_HEADER1-Pad1)*
X142500000Y-102500000D03*
D17*
G04 #@! TO.P,RASPI_2_3_HEADER1,2*
G04 #@! TO.N,5V*
X139960000Y-102500000D03*
G04 #@! TO.P,RASPI_2_3_HEADER1,3*
G04 #@! TO.N,Net-(RASPI_2_3_HEADER1-Pad3)*
X142500000Y-99960000D03*
G04 #@! TO.P,RASPI_2_3_HEADER1,4*
G04 #@! TO.N,5V*
X139960000Y-99960000D03*
G04 #@! TO.P,RASPI_2_3_HEADER1,5*
G04 #@! TO.N,Net-(RASPI_2_3_HEADER1-Pad5)*
X142500000Y-97420000D03*
G04 #@! TO.P,RASPI_2_3_HEADER1,6*
G04 #@! TO.N,GND*
X139960000Y-97420000D03*
G04 #@! TO.P,RASPI_2_3_HEADER1,7*
G04 #@! TO.N,Net-(RASPI_2_3_HEADER1-Pad7)*
X142500000Y-94880000D03*
G04 #@! TO.P,RASPI_2_3_HEADER1,8*
G04 #@! TO.N,Net-(RASPI_2_3_HEADER1-Pad8)*
X139960000Y-94880000D03*
G04 #@! TO.P,RASPI_2_3_HEADER1,9*
G04 #@! TO.N,Net-(RASPI_2_3_HEADER1-Pad9)*
X142500000Y-92340000D03*
G04 #@! TO.P,RASPI_2_3_HEADER1,10*
G04 #@! TO.N,Net-(RASPI_2_3_HEADER1-Pad10)*
X139960000Y-92340000D03*
G04 #@! TO.P,RASPI_2_3_HEADER1,11*
G04 #@! TO.N,Net-(D3-Pad1)*
X142500000Y-89800000D03*
G04 #@! TO.P,RASPI_2_3_HEADER1,12*
G04 #@! TO.N,Net-(RASPI_2_3_HEADER1-Pad12)*
X139960000Y-89800000D03*
G04 #@! TO.P,RASPI_2_3_HEADER1,13*
G04 #@! TO.N,Net-(RASPI_2_3_HEADER1-Pad13)*
X142500000Y-87260000D03*
G04 #@! TO.P,RASPI_2_3_HEADER1,14*
G04 #@! TO.N,Net-(RASPI_2_3_HEADER1-Pad14)*
X139960000Y-87260000D03*
G04 #@! TO.P,RASPI_2_3_HEADER1,15*
G04 #@! TO.N,Net-(D2-Pad1)*
X142500000Y-84720000D03*
G04 #@! TO.P,RASPI_2_3_HEADER1,16*
G04 #@! TO.N,Net-(RASPI_2_3_HEADER1-Pad16)*
X139960000Y-84720000D03*
G04 #@! TO.P,RASPI_2_3_HEADER1,17*
G04 #@! TO.N,Net-(RASPI_2_3_HEADER1-Pad17)*
X142500000Y-82180000D03*
G04 #@! TO.P,RASPI_2_3_HEADER1,18*
G04 #@! TO.N,Net-(RASPI_2_3_HEADER1-Pad18)*
X139960000Y-82180000D03*
G04 #@! TO.P,RASPI_2_3_HEADER1,19*
G04 #@! TO.N,MOSI_0*
X142500000Y-79640000D03*
G04 #@! TO.P,RASPI_2_3_HEADER1,20*
G04 #@! TO.N,GND*
X139960000Y-79640000D03*
G04 #@! TO.P,RASPI_2_3_HEADER1,21*
G04 #@! TO.N,MISO_0*
X142500000Y-77100000D03*
G04 #@! TO.P,RASPI_2_3_HEADER1,22*
G04 #@! TO.N,Net-(RASPI_2_3_HEADER1-Pad22)*
X139960000Y-77100000D03*
G04 #@! TO.P,RASPI_2_3_HEADER1,23*
G04 #@! TO.N,SCLK0*
X142500000Y-74560000D03*
G04 #@! TO.P,RASPI_2_3_HEADER1,24*
G04 #@! TO.N,CE0*
X139960000Y-74560000D03*
G04 #@! TO.P,RASPI_2_3_HEADER1,25*
G04 #@! TO.N,GND*
X142500000Y-72020000D03*
G04 #@! TO.P,RASPI_2_3_HEADER1,26*
G04 #@! TO.N,CE1*
X139960000Y-72020000D03*
G04 #@! TO.P,RASPI_2_3_HEADER1,27*
G04 #@! TO.N,Net-(RASPI_2_3_HEADER1-Pad27)*
X142500000Y-69480000D03*
G04 #@! TO.P,RASPI_2_3_HEADER1,28*
G04 #@! TO.N,Net-(RASPI_2_3_HEADER1-Pad28)*
X139960000Y-69480000D03*
G04 #@! TO.P,RASPI_2_3_HEADER1,29*
G04 #@! TO.N,Net-(RASPI_2_3_HEADER1-Pad29)*
X142500000Y-66940000D03*
G04 #@! TO.P,RASPI_2_3_HEADER1,30*
G04 #@! TO.N,GND*
X139960000Y-66940000D03*
G04 #@! TO.P,RASPI_2_3_HEADER1,31*
G04 #@! TO.N,Net-(RASPI_2_3_HEADER1-Pad31)*
X142500000Y-64400000D03*
G04 #@! TO.P,RASPI_2_3_HEADER1,32*
G04 #@! TO.N,Net-(RASPI_2_3_HEADER1-Pad32)*
X139960000Y-64400000D03*
G04 #@! TO.P,RASPI_2_3_HEADER1,33*
G04 #@! TO.N,Net-(RASPI_2_3_HEADER1-Pad33)*
X142500000Y-61860000D03*
G04 #@! TO.P,RASPI_2_3_HEADER1,34*
G04 #@! TO.N,GND*
X139960000Y-61860000D03*
G04 #@! TO.P,RASPI_2_3_HEADER1,35*
G04 #@! TO.N,Net-(RASPI_2_3_HEADER1-Pad35)*
X142500000Y-59320000D03*
G04 #@! TO.P,RASPI_2_3_HEADER1,36*
G04 #@! TO.N,Net-(RASPI_2_3_HEADER1-Pad36)*
X139960000Y-59320000D03*
G04 #@! TO.P,RASPI_2_3_HEADER1,37*
G04 #@! TO.N,Net-(RASPI_2_3_HEADER1-Pad37)*
X142500000Y-56780000D03*
G04 #@! TO.P,RASPI_2_3_HEADER1,38*
G04 #@! TO.N,Net-(RASPI_2_3_HEADER1-Pad38)*
X139960000Y-56780000D03*
G04 #@! TO.P,RASPI_2_3_HEADER1,39*
G04 #@! TO.N,GND*
X142500000Y-54240000D03*
G04 #@! TO.P,RASPI_2_3_HEADER1,40*
G04 #@! TO.N,Net-(RASPI_2_3_HEADER1-Pad40)*
X139960000Y-54240000D03*
G04 #@! TD*
D18*
G04 #@! TO.P,U4,1*
G04 #@! TO.N,CE1*
X178835000Y-75300000D03*
G04 #@! TO.P,U4,2*
G04 #@! TO.N,GND*
X178835000Y-76250000D03*
G04 #@! TO.P,U4,3*
G04 #@! TO.N,SCLK0*
X178835000Y-77200000D03*
G04 #@! TO.P,U4,4*
G04 #@! TO.N,MISO_0*
X181165000Y-77200000D03*
G04 #@! TO.P,U4,5*
G04 #@! TO.N,5V*
X181165000Y-75300000D03*
G04 #@! TD*
D10*
G04 #@! TO.P,GND,1*
G04 #@! TO.N,GND*
X168750000Y-105750000D03*
G04 #@! TD*
D12*
G04 #@! TO.N,Net-(D2-Pad1)*
G04 #@! TO.C,D2*
G36*
X149074505Y-83801204D02*
X149098773Y-83804804D01*
X149122572Y-83810765D01*
X149145671Y-83819030D01*
X149167850Y-83829520D01*
X149188893Y-83842132D01*
X149208599Y-83856747D01*
X149226777Y-83873223D01*
X149243253Y-83891401D01*
X149257868Y-83911107D01*
X149270480Y-83932150D01*
X149280970Y-83954329D01*
X149289235Y-83977428D01*
X149295196Y-84001227D01*
X149298796Y-84025495D01*
X149300000Y-84049999D01*
X149300000Y-84950001D01*
X149298796Y-84974505D01*
X149295196Y-84998773D01*
X149289235Y-85022572D01*
X149280970Y-85045671D01*
X149270480Y-85067850D01*
X149257868Y-85088893D01*
X149243253Y-85108599D01*
X149226777Y-85126777D01*
X149208599Y-85143253D01*
X149188893Y-85157868D01*
X149167850Y-85170480D01*
X149145671Y-85180970D01*
X149122572Y-85189235D01*
X149098773Y-85195196D01*
X149074505Y-85198796D01*
X149050001Y-85200000D01*
X148399999Y-85200000D01*
X148375495Y-85198796D01*
X148351227Y-85195196D01*
X148327428Y-85189235D01*
X148304329Y-85180970D01*
X148282150Y-85170480D01*
X148261107Y-85157868D01*
X148241401Y-85143253D01*
X148223223Y-85126777D01*
X148206747Y-85108599D01*
X148192132Y-85088893D01*
X148179520Y-85067850D01*
X148169030Y-85045671D01*
X148160765Y-85022572D01*
X148154804Y-84998773D01*
X148151204Y-84974505D01*
X148150000Y-84950001D01*
X148150000Y-84049999D01*
X148151204Y-84025495D01*
X148154804Y-84001227D01*
X148160765Y-83977428D01*
X148169030Y-83954329D01*
X148179520Y-83932150D01*
X148192132Y-83911107D01*
X148206747Y-83891401D01*
X148223223Y-83873223D01*
X148241401Y-83856747D01*
X148261107Y-83842132D01*
X148282150Y-83829520D01*
X148304329Y-83819030D01*
X148327428Y-83810765D01*
X148351227Y-83804804D01*
X148375495Y-83801204D01*
X148399999Y-83800000D01*
X149050001Y-83800000D01*
X149074505Y-83801204D01*
X149074505Y-83801204D01*
G37*
D19*
G04 #@! TD*
G04 #@! TO.P,D2,1*
G04 #@! TO.N,Net-(D2-Pad1)*
X148725000Y-84500000D03*
D12*
G04 #@! TO.N,Net-(D2-Pad2)*
G04 #@! TO.C,D2*
G36*
X151124505Y-83801204D02*
X151148773Y-83804804D01*
X151172572Y-83810765D01*
X151195671Y-83819030D01*
X151217850Y-83829520D01*
X151238893Y-83842132D01*
X151258599Y-83856747D01*
X151276777Y-83873223D01*
X151293253Y-83891401D01*
X151307868Y-83911107D01*
X151320480Y-83932150D01*
X151330970Y-83954329D01*
X151339235Y-83977428D01*
X151345196Y-84001227D01*
X151348796Y-84025495D01*
X151350000Y-84049999D01*
X151350000Y-84950001D01*
X151348796Y-84974505D01*
X151345196Y-84998773D01*
X151339235Y-85022572D01*
X151330970Y-85045671D01*
X151320480Y-85067850D01*
X151307868Y-85088893D01*
X151293253Y-85108599D01*
X151276777Y-85126777D01*
X151258599Y-85143253D01*
X151238893Y-85157868D01*
X151217850Y-85170480D01*
X151195671Y-85180970D01*
X151172572Y-85189235D01*
X151148773Y-85195196D01*
X151124505Y-85198796D01*
X151100001Y-85200000D01*
X150449999Y-85200000D01*
X150425495Y-85198796D01*
X150401227Y-85195196D01*
X150377428Y-85189235D01*
X150354329Y-85180970D01*
X150332150Y-85170480D01*
X150311107Y-85157868D01*
X150291401Y-85143253D01*
X150273223Y-85126777D01*
X150256747Y-85108599D01*
X150242132Y-85088893D01*
X150229520Y-85067850D01*
X150219030Y-85045671D01*
X150210765Y-85022572D01*
X150204804Y-84998773D01*
X150201204Y-84974505D01*
X150200000Y-84950001D01*
X150200000Y-84049999D01*
X150201204Y-84025495D01*
X150204804Y-84001227D01*
X150210765Y-83977428D01*
X150219030Y-83954329D01*
X150229520Y-83932150D01*
X150242132Y-83911107D01*
X150256747Y-83891401D01*
X150273223Y-83873223D01*
X150291401Y-83856747D01*
X150311107Y-83842132D01*
X150332150Y-83829520D01*
X150354329Y-83819030D01*
X150377428Y-83810765D01*
X150401227Y-83804804D01*
X150425495Y-83801204D01*
X150449999Y-83800000D01*
X151100001Y-83800000D01*
X151124505Y-83801204D01*
X151124505Y-83801204D01*
G37*
D19*
G04 #@! TD*
G04 #@! TO.P,D2,2*
G04 #@! TO.N,Net-(D2-Pad2)*
X150775000Y-84500000D03*
D12*
G04 #@! TO.N,Net-(D3-Pad2)*
G04 #@! TO.C,D3*
G36*
X151124505Y-89051204D02*
X151148773Y-89054804D01*
X151172572Y-89060765D01*
X151195671Y-89069030D01*
X151217850Y-89079520D01*
X151238893Y-89092132D01*
X151258599Y-89106747D01*
X151276777Y-89123223D01*
X151293253Y-89141401D01*
X151307868Y-89161107D01*
X151320480Y-89182150D01*
X151330970Y-89204329D01*
X151339235Y-89227428D01*
X151345196Y-89251227D01*
X151348796Y-89275495D01*
X151350000Y-89299999D01*
X151350000Y-90200001D01*
X151348796Y-90224505D01*
X151345196Y-90248773D01*
X151339235Y-90272572D01*
X151330970Y-90295671D01*
X151320480Y-90317850D01*
X151307868Y-90338893D01*
X151293253Y-90358599D01*
X151276777Y-90376777D01*
X151258599Y-90393253D01*
X151238893Y-90407868D01*
X151217850Y-90420480D01*
X151195671Y-90430970D01*
X151172572Y-90439235D01*
X151148773Y-90445196D01*
X151124505Y-90448796D01*
X151100001Y-90450000D01*
X150449999Y-90450000D01*
X150425495Y-90448796D01*
X150401227Y-90445196D01*
X150377428Y-90439235D01*
X150354329Y-90430970D01*
X150332150Y-90420480D01*
X150311107Y-90407868D01*
X150291401Y-90393253D01*
X150273223Y-90376777D01*
X150256747Y-90358599D01*
X150242132Y-90338893D01*
X150229520Y-90317850D01*
X150219030Y-90295671D01*
X150210765Y-90272572D01*
X150204804Y-90248773D01*
X150201204Y-90224505D01*
X150200000Y-90200001D01*
X150200000Y-89299999D01*
X150201204Y-89275495D01*
X150204804Y-89251227D01*
X150210765Y-89227428D01*
X150219030Y-89204329D01*
X150229520Y-89182150D01*
X150242132Y-89161107D01*
X150256747Y-89141401D01*
X150273223Y-89123223D01*
X150291401Y-89106747D01*
X150311107Y-89092132D01*
X150332150Y-89079520D01*
X150354329Y-89069030D01*
X150377428Y-89060765D01*
X150401227Y-89054804D01*
X150425495Y-89051204D01*
X150449999Y-89050000D01*
X151100001Y-89050000D01*
X151124505Y-89051204D01*
X151124505Y-89051204D01*
G37*
D19*
G04 #@! TD*
G04 #@! TO.P,D3,2*
G04 #@! TO.N,Net-(D3-Pad2)*
X150775000Y-89750000D03*
D12*
G04 #@! TO.N,Net-(D3-Pad1)*
G04 #@! TO.C,D3*
G36*
X149074505Y-89051204D02*
X149098773Y-89054804D01*
X149122572Y-89060765D01*
X149145671Y-89069030D01*
X149167850Y-89079520D01*
X149188893Y-89092132D01*
X149208599Y-89106747D01*
X149226777Y-89123223D01*
X149243253Y-89141401D01*
X149257868Y-89161107D01*
X149270480Y-89182150D01*
X149280970Y-89204329D01*
X149289235Y-89227428D01*
X149295196Y-89251227D01*
X149298796Y-89275495D01*
X149300000Y-89299999D01*
X149300000Y-90200001D01*
X149298796Y-90224505D01*
X149295196Y-90248773D01*
X149289235Y-90272572D01*
X149280970Y-90295671D01*
X149270480Y-90317850D01*
X149257868Y-90338893D01*
X149243253Y-90358599D01*
X149226777Y-90376777D01*
X149208599Y-90393253D01*
X149188893Y-90407868D01*
X149167850Y-90420480D01*
X149145671Y-90430970D01*
X149122572Y-90439235D01*
X149098773Y-90445196D01*
X149074505Y-90448796D01*
X149050001Y-90450000D01*
X148399999Y-90450000D01*
X148375495Y-90448796D01*
X148351227Y-90445196D01*
X148327428Y-90439235D01*
X148304329Y-90430970D01*
X148282150Y-90420480D01*
X148261107Y-90407868D01*
X148241401Y-90393253D01*
X148223223Y-90376777D01*
X148206747Y-90358599D01*
X148192132Y-90338893D01*
X148179520Y-90317850D01*
X148169030Y-90295671D01*
X148160765Y-90272572D01*
X148154804Y-90248773D01*
X148151204Y-90224505D01*
X148150000Y-90200001D01*
X148150000Y-89299999D01*
X148151204Y-89275495D01*
X148154804Y-89251227D01*
X148160765Y-89227428D01*
X148169030Y-89204329D01*
X148179520Y-89182150D01*
X148192132Y-89161107D01*
X148206747Y-89141401D01*
X148223223Y-89123223D01*
X148241401Y-89106747D01*
X148261107Y-89092132D01*
X148282150Y-89079520D01*
X148304329Y-89069030D01*
X148327428Y-89060765D01*
X148351227Y-89054804D01*
X148375495Y-89051204D01*
X148399999Y-89050000D01*
X149050001Y-89050000D01*
X149074505Y-89051204D01*
X149074505Y-89051204D01*
G37*
D19*
G04 #@! TD*
G04 #@! TO.P,D3,1*
G04 #@! TO.N,Net-(D3-Pad1)*
X148725000Y-89750000D03*
D12*
G04 #@! TO.N,Net-(D2-Pad2)*
G04 #@! TO.C,R18*
G36*
X149455142Y-78551174D02*
X149478803Y-78554684D01*
X149502007Y-78560496D01*
X149524529Y-78568554D01*
X149546153Y-78578782D01*
X149566670Y-78591079D01*
X149585883Y-78605329D01*
X149603607Y-78621393D01*
X149619671Y-78639117D01*
X149633921Y-78658330D01*
X149646218Y-78678847D01*
X149656446Y-78700471D01*
X149664504Y-78722993D01*
X149670316Y-78746197D01*
X149673826Y-78769858D01*
X149675000Y-78793750D01*
X149675000Y-79706250D01*
X149673826Y-79730142D01*
X149670316Y-79753803D01*
X149664504Y-79777007D01*
X149656446Y-79799529D01*
X149646218Y-79821153D01*
X149633921Y-79841670D01*
X149619671Y-79860883D01*
X149603607Y-79878607D01*
X149585883Y-79894671D01*
X149566670Y-79908921D01*
X149546153Y-79921218D01*
X149524529Y-79931446D01*
X149502007Y-79939504D01*
X149478803Y-79945316D01*
X149455142Y-79948826D01*
X149431250Y-79950000D01*
X148943750Y-79950000D01*
X148919858Y-79948826D01*
X148896197Y-79945316D01*
X148872993Y-79939504D01*
X148850471Y-79931446D01*
X148828847Y-79921218D01*
X148808330Y-79908921D01*
X148789117Y-79894671D01*
X148771393Y-79878607D01*
X148755329Y-79860883D01*
X148741079Y-79841670D01*
X148728782Y-79821153D01*
X148718554Y-79799529D01*
X148710496Y-79777007D01*
X148704684Y-79753803D01*
X148701174Y-79730142D01*
X148700000Y-79706250D01*
X148700000Y-78793750D01*
X148701174Y-78769858D01*
X148704684Y-78746197D01*
X148710496Y-78722993D01*
X148718554Y-78700471D01*
X148728782Y-78678847D01*
X148741079Y-78658330D01*
X148755329Y-78639117D01*
X148771393Y-78621393D01*
X148789117Y-78605329D01*
X148808330Y-78591079D01*
X148828847Y-78578782D01*
X148850471Y-78568554D01*
X148872993Y-78560496D01*
X148896197Y-78554684D01*
X148919858Y-78551174D01*
X148943750Y-78550000D01*
X149431250Y-78550000D01*
X149455142Y-78551174D01*
X149455142Y-78551174D01*
G37*
D20*
G04 #@! TD*
G04 #@! TO.P,R18,2*
G04 #@! TO.N,Net-(D2-Pad2)*
X149187500Y-79250000D03*
D12*
G04 #@! TO.N,5V*
G04 #@! TO.C,R18*
G36*
X147580142Y-78551174D02*
X147603803Y-78554684D01*
X147627007Y-78560496D01*
X147649529Y-78568554D01*
X147671153Y-78578782D01*
X147691670Y-78591079D01*
X147710883Y-78605329D01*
X147728607Y-78621393D01*
X147744671Y-78639117D01*
X147758921Y-78658330D01*
X147771218Y-78678847D01*
X147781446Y-78700471D01*
X147789504Y-78722993D01*
X147795316Y-78746197D01*
X147798826Y-78769858D01*
X147800000Y-78793750D01*
X147800000Y-79706250D01*
X147798826Y-79730142D01*
X147795316Y-79753803D01*
X147789504Y-79777007D01*
X147781446Y-79799529D01*
X147771218Y-79821153D01*
X147758921Y-79841670D01*
X147744671Y-79860883D01*
X147728607Y-79878607D01*
X147710883Y-79894671D01*
X147691670Y-79908921D01*
X147671153Y-79921218D01*
X147649529Y-79931446D01*
X147627007Y-79939504D01*
X147603803Y-79945316D01*
X147580142Y-79948826D01*
X147556250Y-79950000D01*
X147068750Y-79950000D01*
X147044858Y-79948826D01*
X147021197Y-79945316D01*
X146997993Y-79939504D01*
X146975471Y-79931446D01*
X146953847Y-79921218D01*
X146933330Y-79908921D01*
X146914117Y-79894671D01*
X146896393Y-79878607D01*
X146880329Y-79860883D01*
X146866079Y-79841670D01*
X146853782Y-79821153D01*
X146843554Y-79799529D01*
X146835496Y-79777007D01*
X146829684Y-79753803D01*
X146826174Y-79730142D01*
X146825000Y-79706250D01*
X146825000Y-78793750D01*
X146826174Y-78769858D01*
X146829684Y-78746197D01*
X146835496Y-78722993D01*
X146843554Y-78700471D01*
X146853782Y-78678847D01*
X146866079Y-78658330D01*
X146880329Y-78639117D01*
X146896393Y-78621393D01*
X146914117Y-78605329D01*
X146933330Y-78591079D01*
X146953847Y-78578782D01*
X146975471Y-78568554D01*
X146997993Y-78560496D01*
X147021197Y-78554684D01*
X147044858Y-78551174D01*
X147068750Y-78550000D01*
X147556250Y-78550000D01*
X147580142Y-78551174D01*
X147580142Y-78551174D01*
G37*
D20*
G04 #@! TD*
G04 #@! TO.P,R18,1*
G04 #@! TO.N,5V*
X147312500Y-79250000D03*
D12*
G04 #@! TO.N,5V*
G04 #@! TO.C,R19*
G36*
X149330142Y-92801174D02*
X149353803Y-92804684D01*
X149377007Y-92810496D01*
X149399529Y-92818554D01*
X149421153Y-92828782D01*
X149441670Y-92841079D01*
X149460883Y-92855329D01*
X149478607Y-92871393D01*
X149494671Y-92889117D01*
X149508921Y-92908330D01*
X149521218Y-92928847D01*
X149531446Y-92950471D01*
X149539504Y-92972993D01*
X149545316Y-92996197D01*
X149548826Y-93019858D01*
X149550000Y-93043750D01*
X149550000Y-93956250D01*
X149548826Y-93980142D01*
X149545316Y-94003803D01*
X149539504Y-94027007D01*
X149531446Y-94049529D01*
X149521218Y-94071153D01*
X149508921Y-94091670D01*
X149494671Y-94110883D01*
X149478607Y-94128607D01*
X149460883Y-94144671D01*
X149441670Y-94158921D01*
X149421153Y-94171218D01*
X149399529Y-94181446D01*
X149377007Y-94189504D01*
X149353803Y-94195316D01*
X149330142Y-94198826D01*
X149306250Y-94200000D01*
X148818750Y-94200000D01*
X148794858Y-94198826D01*
X148771197Y-94195316D01*
X148747993Y-94189504D01*
X148725471Y-94181446D01*
X148703847Y-94171218D01*
X148683330Y-94158921D01*
X148664117Y-94144671D01*
X148646393Y-94128607D01*
X148630329Y-94110883D01*
X148616079Y-94091670D01*
X148603782Y-94071153D01*
X148593554Y-94049529D01*
X148585496Y-94027007D01*
X148579684Y-94003803D01*
X148576174Y-93980142D01*
X148575000Y-93956250D01*
X148575000Y-93043750D01*
X148576174Y-93019858D01*
X148579684Y-92996197D01*
X148585496Y-92972993D01*
X148593554Y-92950471D01*
X148603782Y-92928847D01*
X148616079Y-92908330D01*
X148630329Y-92889117D01*
X148646393Y-92871393D01*
X148664117Y-92855329D01*
X148683330Y-92841079D01*
X148703847Y-92828782D01*
X148725471Y-92818554D01*
X148747993Y-92810496D01*
X148771197Y-92804684D01*
X148794858Y-92801174D01*
X148818750Y-92800000D01*
X149306250Y-92800000D01*
X149330142Y-92801174D01*
X149330142Y-92801174D01*
G37*
D20*
G04 #@! TD*
G04 #@! TO.P,R19,1*
G04 #@! TO.N,5V*
X149062500Y-93500000D03*
D12*
G04 #@! TO.N,Net-(D3-Pad2)*
G04 #@! TO.C,R19*
G36*
X151205142Y-92801174D02*
X151228803Y-92804684D01*
X151252007Y-92810496D01*
X151274529Y-92818554D01*
X151296153Y-92828782D01*
X151316670Y-92841079D01*
X151335883Y-92855329D01*
X151353607Y-92871393D01*
X151369671Y-92889117D01*
X151383921Y-92908330D01*
X151396218Y-92928847D01*
X151406446Y-92950471D01*
X151414504Y-92972993D01*
X151420316Y-92996197D01*
X151423826Y-93019858D01*
X151425000Y-93043750D01*
X151425000Y-93956250D01*
X151423826Y-93980142D01*
X151420316Y-94003803D01*
X151414504Y-94027007D01*
X151406446Y-94049529D01*
X151396218Y-94071153D01*
X151383921Y-94091670D01*
X151369671Y-94110883D01*
X151353607Y-94128607D01*
X151335883Y-94144671D01*
X151316670Y-94158921D01*
X151296153Y-94171218D01*
X151274529Y-94181446D01*
X151252007Y-94189504D01*
X151228803Y-94195316D01*
X151205142Y-94198826D01*
X151181250Y-94200000D01*
X150693750Y-94200000D01*
X150669858Y-94198826D01*
X150646197Y-94195316D01*
X150622993Y-94189504D01*
X150600471Y-94181446D01*
X150578847Y-94171218D01*
X150558330Y-94158921D01*
X150539117Y-94144671D01*
X150521393Y-94128607D01*
X150505329Y-94110883D01*
X150491079Y-94091670D01*
X150478782Y-94071153D01*
X150468554Y-94049529D01*
X150460496Y-94027007D01*
X150454684Y-94003803D01*
X150451174Y-93980142D01*
X150450000Y-93956250D01*
X150450000Y-93043750D01*
X150451174Y-93019858D01*
X150454684Y-92996197D01*
X150460496Y-92972993D01*
X150468554Y-92950471D01*
X150478782Y-92928847D01*
X150491079Y-92908330D01*
X150505329Y-92889117D01*
X150521393Y-92871393D01*
X150539117Y-92855329D01*
X150558330Y-92841079D01*
X150578847Y-92828782D01*
X150600471Y-92818554D01*
X150622993Y-92810496D01*
X150646197Y-92804684D01*
X150669858Y-92801174D01*
X150693750Y-92800000D01*
X151181250Y-92800000D01*
X151205142Y-92801174D01*
X151205142Y-92801174D01*
G37*
D20*
G04 #@! TD*
G04 #@! TO.P,R19,2*
G04 #@! TO.N,Net-(D3-Pad2)*
X150937500Y-93500000D03*
D12*
G04 #@! TO.N,Net-(R31-Pad1)*
G04 #@! TO.C,R31*
G36*
X179670142Y-99631174D02*
X179693803Y-99634684D01*
X179717007Y-99640496D01*
X179739529Y-99648554D01*
X179761153Y-99658782D01*
X179781670Y-99671079D01*
X179800883Y-99685329D01*
X179818607Y-99701393D01*
X179834671Y-99719117D01*
X179848921Y-99738330D01*
X179861218Y-99758847D01*
X179871446Y-99780471D01*
X179879504Y-99802993D01*
X179885316Y-99826197D01*
X179888826Y-99849858D01*
X179890000Y-99873750D01*
X179890000Y-100786250D01*
X179888826Y-100810142D01*
X179885316Y-100833803D01*
X179879504Y-100857007D01*
X179871446Y-100879529D01*
X179861218Y-100901153D01*
X179848921Y-100921670D01*
X179834671Y-100940883D01*
X179818607Y-100958607D01*
X179800883Y-100974671D01*
X179781670Y-100988921D01*
X179761153Y-101001218D01*
X179739529Y-101011446D01*
X179717007Y-101019504D01*
X179693803Y-101025316D01*
X179670142Y-101028826D01*
X179646250Y-101030000D01*
X179158750Y-101030000D01*
X179134858Y-101028826D01*
X179111197Y-101025316D01*
X179087993Y-101019504D01*
X179065471Y-101011446D01*
X179043847Y-101001218D01*
X179023330Y-100988921D01*
X179004117Y-100974671D01*
X178986393Y-100958607D01*
X178970329Y-100940883D01*
X178956079Y-100921670D01*
X178943782Y-100901153D01*
X178933554Y-100879529D01*
X178925496Y-100857007D01*
X178919684Y-100833803D01*
X178916174Y-100810142D01*
X178915000Y-100786250D01*
X178915000Y-99873750D01*
X178916174Y-99849858D01*
X178919684Y-99826197D01*
X178925496Y-99802993D01*
X178933554Y-99780471D01*
X178943782Y-99758847D01*
X178956079Y-99738330D01*
X178970329Y-99719117D01*
X178986393Y-99701393D01*
X179004117Y-99685329D01*
X179023330Y-99671079D01*
X179043847Y-99658782D01*
X179065471Y-99648554D01*
X179087993Y-99640496D01*
X179111197Y-99634684D01*
X179134858Y-99631174D01*
X179158750Y-99630000D01*
X179646250Y-99630000D01*
X179670142Y-99631174D01*
X179670142Y-99631174D01*
G37*
D20*
G04 #@! TD*
G04 #@! TO.P,R31,1*
G04 #@! TO.N,Net-(R31-Pad1)*
X179402500Y-100330000D03*
D12*
G04 #@! TO.N,Net-(J1-Pad2)*
G04 #@! TO.C,R31*
G36*
X181545142Y-99631174D02*
X181568803Y-99634684D01*
X181592007Y-99640496D01*
X181614529Y-99648554D01*
X181636153Y-99658782D01*
X181656670Y-99671079D01*
X181675883Y-99685329D01*
X181693607Y-99701393D01*
X181709671Y-99719117D01*
X181723921Y-99738330D01*
X181736218Y-99758847D01*
X181746446Y-99780471D01*
X181754504Y-99802993D01*
X181760316Y-99826197D01*
X181763826Y-99849858D01*
X181765000Y-99873750D01*
X181765000Y-100786250D01*
X181763826Y-100810142D01*
X181760316Y-100833803D01*
X181754504Y-100857007D01*
X181746446Y-100879529D01*
X181736218Y-100901153D01*
X181723921Y-100921670D01*
X181709671Y-100940883D01*
X181693607Y-100958607D01*
X181675883Y-100974671D01*
X181656670Y-100988921D01*
X181636153Y-101001218D01*
X181614529Y-101011446D01*
X181592007Y-101019504D01*
X181568803Y-101025316D01*
X181545142Y-101028826D01*
X181521250Y-101030000D01*
X181033750Y-101030000D01*
X181009858Y-101028826D01*
X180986197Y-101025316D01*
X180962993Y-101019504D01*
X180940471Y-101011446D01*
X180918847Y-101001218D01*
X180898330Y-100988921D01*
X180879117Y-100974671D01*
X180861393Y-100958607D01*
X180845329Y-100940883D01*
X180831079Y-100921670D01*
X180818782Y-100901153D01*
X180808554Y-100879529D01*
X180800496Y-100857007D01*
X180794684Y-100833803D01*
X180791174Y-100810142D01*
X180790000Y-100786250D01*
X180790000Y-99873750D01*
X180791174Y-99849858D01*
X180794684Y-99826197D01*
X180800496Y-99802993D01*
X180808554Y-99780471D01*
X180818782Y-99758847D01*
X180831079Y-99738330D01*
X180845329Y-99719117D01*
X180861393Y-99701393D01*
X180879117Y-99685329D01*
X180898330Y-99671079D01*
X180918847Y-99658782D01*
X180940471Y-99648554D01*
X180962993Y-99640496D01*
X180986197Y-99634684D01*
X181009858Y-99631174D01*
X181033750Y-99630000D01*
X181521250Y-99630000D01*
X181545142Y-99631174D01*
X181545142Y-99631174D01*
G37*
D20*
G04 #@! TD*
G04 #@! TO.P,R31,2*
G04 #@! TO.N,Net-(J1-Pad2)*
X181277500Y-100330000D03*
D12*
G04 #@! TO.N,Net-(J1-Pad4)*
G04 #@! TO.C,R32*
G36*
X215502642Y-104711174D02*
X215526303Y-104714684D01*
X215549507Y-104720496D01*
X215572029Y-104728554D01*
X215593653Y-104738782D01*
X215614170Y-104751079D01*
X215633383Y-104765329D01*
X215651107Y-104781393D01*
X215667171Y-104799117D01*
X215681421Y-104818330D01*
X215693718Y-104838847D01*
X215703946Y-104860471D01*
X215712004Y-104882993D01*
X215717816Y-104906197D01*
X215721326Y-104929858D01*
X215722500Y-104953750D01*
X215722500Y-105866250D01*
X215721326Y-105890142D01*
X215717816Y-105913803D01*
X215712004Y-105937007D01*
X215703946Y-105959529D01*
X215693718Y-105981153D01*
X215681421Y-106001670D01*
X215667171Y-106020883D01*
X215651107Y-106038607D01*
X215633383Y-106054671D01*
X215614170Y-106068921D01*
X215593653Y-106081218D01*
X215572029Y-106091446D01*
X215549507Y-106099504D01*
X215526303Y-106105316D01*
X215502642Y-106108826D01*
X215478750Y-106110000D01*
X214991250Y-106110000D01*
X214967358Y-106108826D01*
X214943697Y-106105316D01*
X214920493Y-106099504D01*
X214897971Y-106091446D01*
X214876347Y-106081218D01*
X214855830Y-106068921D01*
X214836617Y-106054671D01*
X214818893Y-106038607D01*
X214802829Y-106020883D01*
X214788579Y-106001670D01*
X214776282Y-105981153D01*
X214766054Y-105959529D01*
X214757996Y-105937007D01*
X214752184Y-105913803D01*
X214748674Y-105890142D01*
X214747500Y-105866250D01*
X214747500Y-104953750D01*
X214748674Y-104929858D01*
X214752184Y-104906197D01*
X214757996Y-104882993D01*
X214766054Y-104860471D01*
X214776282Y-104838847D01*
X214788579Y-104818330D01*
X214802829Y-104799117D01*
X214818893Y-104781393D01*
X214836617Y-104765329D01*
X214855830Y-104751079D01*
X214876347Y-104738782D01*
X214897971Y-104728554D01*
X214920493Y-104720496D01*
X214943697Y-104714684D01*
X214967358Y-104711174D01*
X214991250Y-104710000D01*
X215478750Y-104710000D01*
X215502642Y-104711174D01*
X215502642Y-104711174D01*
G37*
D20*
G04 #@! TD*
G04 #@! TO.P,R32,2*
G04 #@! TO.N,Net-(J1-Pad4)*
X215235000Y-105410000D03*
D12*
G04 #@! TO.N,Net-(R32-Pad1)*
G04 #@! TO.C,R32*
G36*
X213627642Y-104711174D02*
X213651303Y-104714684D01*
X213674507Y-104720496D01*
X213697029Y-104728554D01*
X213718653Y-104738782D01*
X213739170Y-104751079D01*
X213758383Y-104765329D01*
X213776107Y-104781393D01*
X213792171Y-104799117D01*
X213806421Y-104818330D01*
X213818718Y-104838847D01*
X213828946Y-104860471D01*
X213837004Y-104882993D01*
X213842816Y-104906197D01*
X213846326Y-104929858D01*
X213847500Y-104953750D01*
X213847500Y-105866250D01*
X213846326Y-105890142D01*
X213842816Y-105913803D01*
X213837004Y-105937007D01*
X213828946Y-105959529D01*
X213818718Y-105981153D01*
X213806421Y-106001670D01*
X213792171Y-106020883D01*
X213776107Y-106038607D01*
X213758383Y-106054671D01*
X213739170Y-106068921D01*
X213718653Y-106081218D01*
X213697029Y-106091446D01*
X213674507Y-106099504D01*
X213651303Y-106105316D01*
X213627642Y-106108826D01*
X213603750Y-106110000D01*
X213116250Y-106110000D01*
X213092358Y-106108826D01*
X213068697Y-106105316D01*
X213045493Y-106099504D01*
X213022971Y-106091446D01*
X213001347Y-106081218D01*
X212980830Y-106068921D01*
X212961617Y-106054671D01*
X212943893Y-106038607D01*
X212927829Y-106020883D01*
X212913579Y-106001670D01*
X212901282Y-105981153D01*
X212891054Y-105959529D01*
X212882996Y-105937007D01*
X212877184Y-105913803D01*
X212873674Y-105890142D01*
X212872500Y-105866250D01*
X212872500Y-104953750D01*
X212873674Y-104929858D01*
X212877184Y-104906197D01*
X212882996Y-104882993D01*
X212891054Y-104860471D01*
X212901282Y-104838847D01*
X212913579Y-104818330D01*
X212927829Y-104799117D01*
X212943893Y-104781393D01*
X212961617Y-104765329D01*
X212980830Y-104751079D01*
X213001347Y-104738782D01*
X213022971Y-104728554D01*
X213045493Y-104720496D01*
X213068697Y-104714684D01*
X213092358Y-104711174D01*
X213116250Y-104710000D01*
X213603750Y-104710000D01*
X213627642Y-104711174D01*
X213627642Y-104711174D01*
G37*
D20*
G04 #@! TD*
G04 #@! TO.P,R32,1*
G04 #@! TO.N,Net-(R32-Pad1)*
X213360000Y-105410000D03*
D12*
G04 #@! TO.N,Net-(R33-Pad1)*
G04 #@! TO.C,R33*
G36*
X217770142Y-74231174D02*
X217793803Y-74234684D01*
X217817007Y-74240496D01*
X217839529Y-74248554D01*
X217861153Y-74258782D01*
X217881670Y-74271079D01*
X217900883Y-74285329D01*
X217918607Y-74301393D01*
X217934671Y-74319117D01*
X217948921Y-74338330D01*
X217961218Y-74358847D01*
X217971446Y-74380471D01*
X217979504Y-74402993D01*
X217985316Y-74426197D01*
X217988826Y-74449858D01*
X217990000Y-74473750D01*
X217990000Y-75386250D01*
X217988826Y-75410142D01*
X217985316Y-75433803D01*
X217979504Y-75457007D01*
X217971446Y-75479529D01*
X217961218Y-75501153D01*
X217948921Y-75521670D01*
X217934671Y-75540883D01*
X217918607Y-75558607D01*
X217900883Y-75574671D01*
X217881670Y-75588921D01*
X217861153Y-75601218D01*
X217839529Y-75611446D01*
X217817007Y-75619504D01*
X217793803Y-75625316D01*
X217770142Y-75628826D01*
X217746250Y-75630000D01*
X217258750Y-75630000D01*
X217234858Y-75628826D01*
X217211197Y-75625316D01*
X217187993Y-75619504D01*
X217165471Y-75611446D01*
X217143847Y-75601218D01*
X217123330Y-75588921D01*
X217104117Y-75574671D01*
X217086393Y-75558607D01*
X217070329Y-75540883D01*
X217056079Y-75521670D01*
X217043782Y-75501153D01*
X217033554Y-75479529D01*
X217025496Y-75457007D01*
X217019684Y-75433803D01*
X217016174Y-75410142D01*
X217015000Y-75386250D01*
X217015000Y-74473750D01*
X217016174Y-74449858D01*
X217019684Y-74426197D01*
X217025496Y-74402993D01*
X217033554Y-74380471D01*
X217043782Y-74358847D01*
X217056079Y-74338330D01*
X217070329Y-74319117D01*
X217086393Y-74301393D01*
X217104117Y-74285329D01*
X217123330Y-74271079D01*
X217143847Y-74258782D01*
X217165471Y-74248554D01*
X217187993Y-74240496D01*
X217211197Y-74234684D01*
X217234858Y-74231174D01*
X217258750Y-74230000D01*
X217746250Y-74230000D01*
X217770142Y-74231174D01*
X217770142Y-74231174D01*
G37*
D20*
G04 #@! TD*
G04 #@! TO.P,R33,1*
G04 #@! TO.N,Net-(R33-Pad1)*
X217502500Y-74930000D03*
D12*
G04 #@! TO.N,Net-(J1-Pad6)*
G04 #@! TO.C,R33*
G36*
X219645142Y-74231174D02*
X219668803Y-74234684D01*
X219692007Y-74240496D01*
X219714529Y-74248554D01*
X219736153Y-74258782D01*
X219756670Y-74271079D01*
X219775883Y-74285329D01*
X219793607Y-74301393D01*
X219809671Y-74319117D01*
X219823921Y-74338330D01*
X219836218Y-74358847D01*
X219846446Y-74380471D01*
X219854504Y-74402993D01*
X219860316Y-74426197D01*
X219863826Y-74449858D01*
X219865000Y-74473750D01*
X219865000Y-75386250D01*
X219863826Y-75410142D01*
X219860316Y-75433803D01*
X219854504Y-75457007D01*
X219846446Y-75479529D01*
X219836218Y-75501153D01*
X219823921Y-75521670D01*
X219809671Y-75540883D01*
X219793607Y-75558607D01*
X219775883Y-75574671D01*
X219756670Y-75588921D01*
X219736153Y-75601218D01*
X219714529Y-75611446D01*
X219692007Y-75619504D01*
X219668803Y-75625316D01*
X219645142Y-75628826D01*
X219621250Y-75630000D01*
X219133750Y-75630000D01*
X219109858Y-75628826D01*
X219086197Y-75625316D01*
X219062993Y-75619504D01*
X219040471Y-75611446D01*
X219018847Y-75601218D01*
X218998330Y-75588921D01*
X218979117Y-75574671D01*
X218961393Y-75558607D01*
X218945329Y-75540883D01*
X218931079Y-75521670D01*
X218918782Y-75501153D01*
X218908554Y-75479529D01*
X218900496Y-75457007D01*
X218894684Y-75433803D01*
X218891174Y-75410142D01*
X218890000Y-75386250D01*
X218890000Y-74473750D01*
X218891174Y-74449858D01*
X218894684Y-74426197D01*
X218900496Y-74402993D01*
X218908554Y-74380471D01*
X218918782Y-74358847D01*
X218931079Y-74338330D01*
X218945329Y-74319117D01*
X218961393Y-74301393D01*
X218979117Y-74285329D01*
X218998330Y-74271079D01*
X219018847Y-74258782D01*
X219040471Y-74248554D01*
X219062993Y-74240496D01*
X219086197Y-74234684D01*
X219109858Y-74231174D01*
X219133750Y-74230000D01*
X219621250Y-74230000D01*
X219645142Y-74231174D01*
X219645142Y-74231174D01*
G37*
D20*
G04 #@! TD*
G04 #@! TO.P,R33,2*
G04 #@! TO.N,Net-(J1-Pad6)*
X219377500Y-74930000D03*
D12*
G04 #@! TO.N,Net-(J1-Pad8)*
G04 #@! TO.C,R34*
G36*
X199325142Y-76771174D02*
X199348803Y-76774684D01*
X199372007Y-76780496D01*
X199394529Y-76788554D01*
X199416153Y-76798782D01*
X199436670Y-76811079D01*
X199455883Y-76825329D01*
X199473607Y-76841393D01*
X199489671Y-76859117D01*
X199503921Y-76878330D01*
X199516218Y-76898847D01*
X199526446Y-76920471D01*
X199534504Y-76942993D01*
X199540316Y-76966197D01*
X199543826Y-76989858D01*
X199545000Y-77013750D01*
X199545000Y-77926250D01*
X199543826Y-77950142D01*
X199540316Y-77973803D01*
X199534504Y-77997007D01*
X199526446Y-78019529D01*
X199516218Y-78041153D01*
X199503921Y-78061670D01*
X199489671Y-78080883D01*
X199473607Y-78098607D01*
X199455883Y-78114671D01*
X199436670Y-78128921D01*
X199416153Y-78141218D01*
X199394529Y-78151446D01*
X199372007Y-78159504D01*
X199348803Y-78165316D01*
X199325142Y-78168826D01*
X199301250Y-78170000D01*
X198813750Y-78170000D01*
X198789858Y-78168826D01*
X198766197Y-78165316D01*
X198742993Y-78159504D01*
X198720471Y-78151446D01*
X198698847Y-78141218D01*
X198678330Y-78128921D01*
X198659117Y-78114671D01*
X198641393Y-78098607D01*
X198625329Y-78080883D01*
X198611079Y-78061670D01*
X198598782Y-78041153D01*
X198588554Y-78019529D01*
X198580496Y-77997007D01*
X198574684Y-77973803D01*
X198571174Y-77950142D01*
X198570000Y-77926250D01*
X198570000Y-77013750D01*
X198571174Y-76989858D01*
X198574684Y-76966197D01*
X198580496Y-76942993D01*
X198588554Y-76920471D01*
X198598782Y-76898847D01*
X198611079Y-76878330D01*
X198625329Y-76859117D01*
X198641393Y-76841393D01*
X198659117Y-76825329D01*
X198678330Y-76811079D01*
X198698847Y-76798782D01*
X198720471Y-76788554D01*
X198742993Y-76780496D01*
X198766197Y-76774684D01*
X198789858Y-76771174D01*
X198813750Y-76770000D01*
X199301250Y-76770000D01*
X199325142Y-76771174D01*
X199325142Y-76771174D01*
G37*
D20*
G04 #@! TD*
G04 #@! TO.P,R34,2*
G04 #@! TO.N,Net-(J1-Pad8)*
X199057500Y-77470000D03*
D12*
G04 #@! TO.N,Net-(R34-Pad1)*
G04 #@! TO.C,R34*
G36*
X197450142Y-76771174D02*
X197473803Y-76774684D01*
X197497007Y-76780496D01*
X197519529Y-76788554D01*
X197541153Y-76798782D01*
X197561670Y-76811079D01*
X197580883Y-76825329D01*
X197598607Y-76841393D01*
X197614671Y-76859117D01*
X197628921Y-76878330D01*
X197641218Y-76898847D01*
X197651446Y-76920471D01*
X197659504Y-76942993D01*
X197665316Y-76966197D01*
X197668826Y-76989858D01*
X197670000Y-77013750D01*
X197670000Y-77926250D01*
X197668826Y-77950142D01*
X197665316Y-77973803D01*
X197659504Y-77997007D01*
X197651446Y-78019529D01*
X197641218Y-78041153D01*
X197628921Y-78061670D01*
X197614671Y-78080883D01*
X197598607Y-78098607D01*
X197580883Y-78114671D01*
X197561670Y-78128921D01*
X197541153Y-78141218D01*
X197519529Y-78151446D01*
X197497007Y-78159504D01*
X197473803Y-78165316D01*
X197450142Y-78168826D01*
X197426250Y-78170000D01*
X196938750Y-78170000D01*
X196914858Y-78168826D01*
X196891197Y-78165316D01*
X196867993Y-78159504D01*
X196845471Y-78151446D01*
X196823847Y-78141218D01*
X196803330Y-78128921D01*
X196784117Y-78114671D01*
X196766393Y-78098607D01*
X196750329Y-78080883D01*
X196736079Y-78061670D01*
X196723782Y-78041153D01*
X196713554Y-78019529D01*
X196705496Y-77997007D01*
X196699684Y-77973803D01*
X196696174Y-77950142D01*
X196695000Y-77926250D01*
X196695000Y-77013750D01*
X196696174Y-76989858D01*
X196699684Y-76966197D01*
X196705496Y-76942993D01*
X196713554Y-76920471D01*
X196723782Y-76898847D01*
X196736079Y-76878330D01*
X196750329Y-76859117D01*
X196766393Y-76841393D01*
X196784117Y-76825329D01*
X196803330Y-76811079D01*
X196823847Y-76798782D01*
X196845471Y-76788554D01*
X196867993Y-76780496D01*
X196891197Y-76774684D01*
X196914858Y-76771174D01*
X196938750Y-76770000D01*
X197426250Y-76770000D01*
X197450142Y-76771174D01*
X197450142Y-76771174D01*
G37*
D20*
G04 #@! TD*
G04 #@! TO.P,R34,1*
G04 #@! TO.N,Net-(R34-Pad1)*
X197182500Y-77470000D03*
D12*
G04 #@! TO.N,Net-(R35-Pad1)*
G04 #@! TO.C,R35*
G36*
X197450142Y-70421174D02*
X197473803Y-70424684D01*
X197497007Y-70430496D01*
X197519529Y-70438554D01*
X197541153Y-70448782D01*
X197561670Y-70461079D01*
X197580883Y-70475329D01*
X197598607Y-70491393D01*
X197614671Y-70509117D01*
X197628921Y-70528330D01*
X197641218Y-70548847D01*
X197651446Y-70570471D01*
X197659504Y-70592993D01*
X197665316Y-70616197D01*
X197668826Y-70639858D01*
X197670000Y-70663750D01*
X197670000Y-71576250D01*
X197668826Y-71600142D01*
X197665316Y-71623803D01*
X197659504Y-71647007D01*
X197651446Y-71669529D01*
X197641218Y-71691153D01*
X197628921Y-71711670D01*
X197614671Y-71730883D01*
X197598607Y-71748607D01*
X197580883Y-71764671D01*
X197561670Y-71778921D01*
X197541153Y-71791218D01*
X197519529Y-71801446D01*
X197497007Y-71809504D01*
X197473803Y-71815316D01*
X197450142Y-71818826D01*
X197426250Y-71820000D01*
X196938750Y-71820000D01*
X196914858Y-71818826D01*
X196891197Y-71815316D01*
X196867993Y-71809504D01*
X196845471Y-71801446D01*
X196823847Y-71791218D01*
X196803330Y-71778921D01*
X196784117Y-71764671D01*
X196766393Y-71748607D01*
X196750329Y-71730883D01*
X196736079Y-71711670D01*
X196723782Y-71691153D01*
X196713554Y-71669529D01*
X196705496Y-71647007D01*
X196699684Y-71623803D01*
X196696174Y-71600142D01*
X196695000Y-71576250D01*
X196695000Y-70663750D01*
X196696174Y-70639858D01*
X196699684Y-70616197D01*
X196705496Y-70592993D01*
X196713554Y-70570471D01*
X196723782Y-70548847D01*
X196736079Y-70528330D01*
X196750329Y-70509117D01*
X196766393Y-70491393D01*
X196784117Y-70475329D01*
X196803330Y-70461079D01*
X196823847Y-70448782D01*
X196845471Y-70438554D01*
X196867993Y-70430496D01*
X196891197Y-70424684D01*
X196914858Y-70421174D01*
X196938750Y-70420000D01*
X197426250Y-70420000D01*
X197450142Y-70421174D01*
X197450142Y-70421174D01*
G37*
D20*
G04 #@! TD*
G04 #@! TO.P,R35,1*
G04 #@! TO.N,Net-(R35-Pad1)*
X197182500Y-71120000D03*
D12*
G04 #@! TO.N,Net-(J1-Pad10)*
G04 #@! TO.C,R35*
G36*
X199325142Y-70421174D02*
X199348803Y-70424684D01*
X199372007Y-70430496D01*
X199394529Y-70438554D01*
X199416153Y-70448782D01*
X199436670Y-70461079D01*
X199455883Y-70475329D01*
X199473607Y-70491393D01*
X199489671Y-70509117D01*
X199503921Y-70528330D01*
X199516218Y-70548847D01*
X199526446Y-70570471D01*
X199534504Y-70592993D01*
X199540316Y-70616197D01*
X199543826Y-70639858D01*
X199545000Y-70663750D01*
X199545000Y-71576250D01*
X199543826Y-71600142D01*
X199540316Y-71623803D01*
X199534504Y-71647007D01*
X199526446Y-71669529D01*
X199516218Y-71691153D01*
X199503921Y-71711670D01*
X199489671Y-71730883D01*
X199473607Y-71748607D01*
X199455883Y-71764671D01*
X199436670Y-71778921D01*
X199416153Y-71791218D01*
X199394529Y-71801446D01*
X199372007Y-71809504D01*
X199348803Y-71815316D01*
X199325142Y-71818826D01*
X199301250Y-71820000D01*
X198813750Y-71820000D01*
X198789858Y-71818826D01*
X198766197Y-71815316D01*
X198742993Y-71809504D01*
X198720471Y-71801446D01*
X198698847Y-71791218D01*
X198678330Y-71778921D01*
X198659117Y-71764671D01*
X198641393Y-71748607D01*
X198625329Y-71730883D01*
X198611079Y-71711670D01*
X198598782Y-71691153D01*
X198588554Y-71669529D01*
X198580496Y-71647007D01*
X198574684Y-71623803D01*
X198571174Y-71600142D01*
X198570000Y-71576250D01*
X198570000Y-70663750D01*
X198571174Y-70639858D01*
X198574684Y-70616197D01*
X198580496Y-70592993D01*
X198588554Y-70570471D01*
X198598782Y-70548847D01*
X198611079Y-70528330D01*
X198625329Y-70509117D01*
X198641393Y-70491393D01*
X198659117Y-70475329D01*
X198678330Y-70461079D01*
X198698847Y-70448782D01*
X198720471Y-70438554D01*
X198742993Y-70430496D01*
X198766197Y-70424684D01*
X198789858Y-70421174D01*
X198813750Y-70420000D01*
X199301250Y-70420000D01*
X199325142Y-70421174D01*
X199325142Y-70421174D01*
G37*
D20*
G04 #@! TD*
G04 #@! TO.P,R35,2*
G04 #@! TO.N,Net-(J1-Pad10)*
X199057500Y-71120000D03*
D12*
G04 #@! TO.N,Net-(R36-Pad1)*
G04 #@! TO.C,R36*
G36*
X219040142Y-60261174D02*
X219063803Y-60264684D01*
X219087007Y-60270496D01*
X219109529Y-60278554D01*
X219131153Y-60288782D01*
X219151670Y-60301079D01*
X219170883Y-60315329D01*
X219188607Y-60331393D01*
X219204671Y-60349117D01*
X219218921Y-60368330D01*
X219231218Y-60388847D01*
X219241446Y-60410471D01*
X219249504Y-60432993D01*
X219255316Y-60456197D01*
X219258826Y-60479858D01*
X219260000Y-60503750D01*
X219260000Y-61416250D01*
X219258826Y-61440142D01*
X219255316Y-61463803D01*
X219249504Y-61487007D01*
X219241446Y-61509529D01*
X219231218Y-61531153D01*
X219218921Y-61551670D01*
X219204671Y-61570883D01*
X219188607Y-61588607D01*
X219170883Y-61604671D01*
X219151670Y-61618921D01*
X219131153Y-61631218D01*
X219109529Y-61641446D01*
X219087007Y-61649504D01*
X219063803Y-61655316D01*
X219040142Y-61658826D01*
X219016250Y-61660000D01*
X218528750Y-61660000D01*
X218504858Y-61658826D01*
X218481197Y-61655316D01*
X218457993Y-61649504D01*
X218435471Y-61641446D01*
X218413847Y-61631218D01*
X218393330Y-61618921D01*
X218374117Y-61604671D01*
X218356393Y-61588607D01*
X218340329Y-61570883D01*
X218326079Y-61551670D01*
X218313782Y-61531153D01*
X218303554Y-61509529D01*
X218295496Y-61487007D01*
X218289684Y-61463803D01*
X218286174Y-61440142D01*
X218285000Y-61416250D01*
X218285000Y-60503750D01*
X218286174Y-60479858D01*
X218289684Y-60456197D01*
X218295496Y-60432993D01*
X218303554Y-60410471D01*
X218313782Y-60388847D01*
X218326079Y-60368330D01*
X218340329Y-60349117D01*
X218356393Y-60331393D01*
X218374117Y-60315329D01*
X218393330Y-60301079D01*
X218413847Y-60288782D01*
X218435471Y-60278554D01*
X218457993Y-60270496D01*
X218481197Y-60264684D01*
X218504858Y-60261174D01*
X218528750Y-60260000D01*
X219016250Y-60260000D01*
X219040142Y-60261174D01*
X219040142Y-60261174D01*
G37*
D20*
G04 #@! TD*
G04 #@! TO.P,R36,1*
G04 #@! TO.N,Net-(R36-Pad1)*
X218772500Y-60960000D03*
D12*
G04 #@! TO.N,Net-(J1-Pad12)*
G04 #@! TO.C,R36*
G36*
X220915142Y-60261174D02*
X220938803Y-60264684D01*
X220962007Y-60270496D01*
X220984529Y-60278554D01*
X221006153Y-60288782D01*
X221026670Y-60301079D01*
X221045883Y-60315329D01*
X221063607Y-60331393D01*
X221079671Y-60349117D01*
X221093921Y-60368330D01*
X221106218Y-60388847D01*
X221116446Y-60410471D01*
X221124504Y-60432993D01*
X221130316Y-60456197D01*
X221133826Y-60479858D01*
X221135000Y-60503750D01*
X221135000Y-61416250D01*
X221133826Y-61440142D01*
X221130316Y-61463803D01*
X221124504Y-61487007D01*
X221116446Y-61509529D01*
X221106218Y-61531153D01*
X221093921Y-61551670D01*
X221079671Y-61570883D01*
X221063607Y-61588607D01*
X221045883Y-61604671D01*
X221026670Y-61618921D01*
X221006153Y-61631218D01*
X220984529Y-61641446D01*
X220962007Y-61649504D01*
X220938803Y-61655316D01*
X220915142Y-61658826D01*
X220891250Y-61660000D01*
X220403750Y-61660000D01*
X220379858Y-61658826D01*
X220356197Y-61655316D01*
X220332993Y-61649504D01*
X220310471Y-61641446D01*
X220288847Y-61631218D01*
X220268330Y-61618921D01*
X220249117Y-61604671D01*
X220231393Y-61588607D01*
X220215329Y-61570883D01*
X220201079Y-61551670D01*
X220188782Y-61531153D01*
X220178554Y-61509529D01*
X220170496Y-61487007D01*
X220164684Y-61463803D01*
X220161174Y-61440142D01*
X220160000Y-61416250D01*
X220160000Y-60503750D01*
X220161174Y-60479858D01*
X220164684Y-60456197D01*
X220170496Y-60432993D01*
X220178554Y-60410471D01*
X220188782Y-60388847D01*
X220201079Y-60368330D01*
X220215329Y-60349117D01*
X220231393Y-60331393D01*
X220249117Y-60315329D01*
X220268330Y-60301079D01*
X220288847Y-60288782D01*
X220310471Y-60278554D01*
X220332993Y-60270496D01*
X220356197Y-60264684D01*
X220379858Y-60261174D01*
X220403750Y-60260000D01*
X220891250Y-60260000D01*
X220915142Y-60261174D01*
X220915142Y-60261174D01*
G37*
D20*
G04 #@! TD*
G04 #@! TO.P,R36,2*
G04 #@! TO.N,Net-(J1-Pad12)*
X220647500Y-60960000D03*
D12*
G04 #@! TO.N,Net-(J1-Pad14)*
G04 #@! TO.C,R37*
G36*
X184630142Y-59203674D02*
X184653803Y-59207184D01*
X184677007Y-59212996D01*
X184699529Y-59221054D01*
X184721153Y-59231282D01*
X184741670Y-59243579D01*
X184760883Y-59257829D01*
X184778607Y-59273893D01*
X184794671Y-59291617D01*
X184808921Y-59310830D01*
X184821218Y-59331347D01*
X184831446Y-59352971D01*
X184839504Y-59375493D01*
X184845316Y-59398697D01*
X184848826Y-59422358D01*
X184850000Y-59446250D01*
X184850000Y-59933750D01*
X184848826Y-59957642D01*
X184845316Y-59981303D01*
X184839504Y-60004507D01*
X184831446Y-60027029D01*
X184821218Y-60048653D01*
X184808921Y-60069170D01*
X184794671Y-60088383D01*
X184778607Y-60106107D01*
X184760883Y-60122171D01*
X184741670Y-60136421D01*
X184721153Y-60148718D01*
X184699529Y-60158946D01*
X184677007Y-60167004D01*
X184653803Y-60172816D01*
X184630142Y-60176326D01*
X184606250Y-60177500D01*
X183693750Y-60177500D01*
X183669858Y-60176326D01*
X183646197Y-60172816D01*
X183622993Y-60167004D01*
X183600471Y-60158946D01*
X183578847Y-60148718D01*
X183558330Y-60136421D01*
X183539117Y-60122171D01*
X183521393Y-60106107D01*
X183505329Y-60088383D01*
X183491079Y-60069170D01*
X183478782Y-60048653D01*
X183468554Y-60027029D01*
X183460496Y-60004507D01*
X183454684Y-59981303D01*
X183451174Y-59957642D01*
X183450000Y-59933750D01*
X183450000Y-59446250D01*
X183451174Y-59422358D01*
X183454684Y-59398697D01*
X183460496Y-59375493D01*
X183468554Y-59352971D01*
X183478782Y-59331347D01*
X183491079Y-59310830D01*
X183505329Y-59291617D01*
X183521393Y-59273893D01*
X183539117Y-59257829D01*
X183558330Y-59243579D01*
X183578847Y-59231282D01*
X183600471Y-59221054D01*
X183622993Y-59212996D01*
X183646197Y-59207184D01*
X183669858Y-59203674D01*
X183693750Y-59202500D01*
X184606250Y-59202500D01*
X184630142Y-59203674D01*
X184630142Y-59203674D01*
G37*
D20*
G04 #@! TD*
G04 #@! TO.P,R37,2*
G04 #@! TO.N,Net-(J1-Pad14)*
X184150000Y-59690000D03*
D12*
G04 #@! TO.N,Net-(R37-Pad1)*
G04 #@! TO.C,R37*
G36*
X184630142Y-61078674D02*
X184653803Y-61082184D01*
X184677007Y-61087996D01*
X184699529Y-61096054D01*
X184721153Y-61106282D01*
X184741670Y-61118579D01*
X184760883Y-61132829D01*
X184778607Y-61148893D01*
X184794671Y-61166617D01*
X184808921Y-61185830D01*
X184821218Y-61206347D01*
X184831446Y-61227971D01*
X184839504Y-61250493D01*
X184845316Y-61273697D01*
X184848826Y-61297358D01*
X184850000Y-61321250D01*
X184850000Y-61808750D01*
X184848826Y-61832642D01*
X184845316Y-61856303D01*
X184839504Y-61879507D01*
X184831446Y-61902029D01*
X184821218Y-61923653D01*
X184808921Y-61944170D01*
X184794671Y-61963383D01*
X184778607Y-61981107D01*
X184760883Y-61997171D01*
X184741670Y-62011421D01*
X184721153Y-62023718D01*
X184699529Y-62033946D01*
X184677007Y-62042004D01*
X184653803Y-62047816D01*
X184630142Y-62051326D01*
X184606250Y-62052500D01*
X183693750Y-62052500D01*
X183669858Y-62051326D01*
X183646197Y-62047816D01*
X183622993Y-62042004D01*
X183600471Y-62033946D01*
X183578847Y-62023718D01*
X183558330Y-62011421D01*
X183539117Y-61997171D01*
X183521393Y-61981107D01*
X183505329Y-61963383D01*
X183491079Y-61944170D01*
X183478782Y-61923653D01*
X183468554Y-61902029D01*
X183460496Y-61879507D01*
X183454684Y-61856303D01*
X183451174Y-61832642D01*
X183450000Y-61808750D01*
X183450000Y-61321250D01*
X183451174Y-61297358D01*
X183454684Y-61273697D01*
X183460496Y-61250493D01*
X183468554Y-61227971D01*
X183478782Y-61206347D01*
X183491079Y-61185830D01*
X183505329Y-61166617D01*
X183521393Y-61148893D01*
X183539117Y-61132829D01*
X183558330Y-61118579D01*
X183578847Y-61106282D01*
X183600471Y-61096054D01*
X183622993Y-61087996D01*
X183646197Y-61082184D01*
X183669858Y-61078674D01*
X183693750Y-61077500D01*
X184606250Y-61077500D01*
X184630142Y-61078674D01*
X184630142Y-61078674D01*
G37*
D20*
G04 #@! TD*
G04 #@! TO.P,R37,1*
G04 #@! TO.N,Net-(R37-Pad1)*
X184150000Y-61565000D03*
D21*
G04 #@! TO.N,4V096*
X156000000Y-92000000D03*
X175250000Y-54500000D03*
X159750000Y-98750000D03*
X177750000Y-109250000D03*
X185250000Y-101000000D03*
G04 #@! TO.N,Net-(R5-Pad2)*
X165250000Y-82750000D03*
X167500000Y-81500000D03*
G04 #@! TO.N,Net-(R12-Pad2)*
X167500000Y-84000000D03*
X164000000Y-84000000D03*
G04 #@! TO.N,Net-(R13-Pad2)*
X163250000Y-92750000D03*
X170000000Y-92750000D03*
G04 #@! TO.N,Net-(R14-Pad2)*
X159750000Y-92368672D03*
X172250000Y-90000000D03*
G04 #@! TO.N,Net-(R7-Pad2)*
X154500000Y-95750000D03*
X154500000Y-83500000D03*
G04 #@! TO.N,Net-(R16-Pad2)*
X164750000Y-57500000D03*
X164750000Y-51750000D03*
G04 #@! TO.N,Net-(R8-Pad2)*
X151250000Y-71750000D03*
X151250000Y-80000000D03*
G04 #@! TO.N,Net-(R9-Pad1)*
X171750000Y-72500000D03*
X171750000Y-69000000D03*
X171750000Y-63000000D03*
G04 #@! TO.N,Net-(R10-Pad1)*
X171500000Y-53500000D03*
X176750000Y-58750000D03*
G04 #@! TO.N,Net-(R10-Pad2)*
X177000000Y-53025000D03*
X174000000Y-69000000D03*
X174000000Y-61500000D03*
X183250000Y-59000000D03*
X183250000Y-54750000D03*
G04 #@! TO.N,5V*
X181750000Y-73750000D03*
X168750000Y-68750000D03*
X167750000Y-65000000D03*
X182250000Y-66000000D03*
X169250000Y-81500000D03*
X168000000Y-76250000D03*
X167500000Y-73500000D03*
X159000000Y-54250000D03*
X159000000Y-59750000D03*
X173250000Y-109250000D03*
X174000000Y-76750000D03*
X148000000Y-95500000D03*
X147250000Y-81500000D03*
G04 #@! TO.N,GND*
X185250000Y-54500000D03*
X159750000Y-97250000D03*
X152250000Y-95000000D03*
X169500000Y-54250000D03*
X162750000Y-62000000D03*
X156250000Y-66500000D03*
X159805000Y-68805000D03*
X166155000Y-68845000D03*
X148500000Y-73750000D03*
X185250000Y-49250000D03*
X138750000Y-52750000D03*
X143750000Y-52750000D03*
X157250000Y-101750000D03*
G04 #@! TO.N,MISO_0*
X155200010Y-74549990D03*
X163500000Y-66750000D03*
X155250000Y-72000000D03*
X158250000Y-66750000D03*
X182250000Y-79000000D03*
X168750000Y-67250000D03*
X172750000Y-79000000D03*
X172750000Y-71500000D03*
G04 #@! TO.N,SCLK0*
X157750000Y-72750000D03*
X164250000Y-72750000D03*
G04 #@! TO.N,CE0*
X149000000Y-64750000D03*
X159750000Y-64750000D03*
G04 #@! TO.N,Net-(R4-Pad2)*
X153250000Y-82250000D03*
X153250000Y-71750000D03*
G04 #@! TD*
D22*
G04 #@! TO.N,GND*
X172720000Y-101600000D02*
X170180000Y-101600000D01*
G04 #@! TO.N,Net-(J1-Pad14)*
X188000000Y-55840000D02*
X188000000Y-55500000D01*
X184150000Y-59690000D02*
X188000000Y-55840000D01*
G04 #@! TO.N,4V096*
X188000000Y-87000000D02*
X186450000Y-87000000D01*
X156000000Y-92000000D02*
X158000000Y-94000000D01*
X189550000Y-87000000D02*
X188000000Y-87000000D01*
X188000000Y-94000000D02*
X189550000Y-94000000D01*
X189550000Y-94000000D02*
X190250000Y-93300000D01*
X190250000Y-87700000D02*
X189550000Y-87000000D01*
X191000000Y-81000000D02*
X190000000Y-80000000D01*
X191000000Y-85550000D02*
X191000000Y-81000000D01*
X190000000Y-80000000D02*
X188000000Y-80000000D01*
X189550000Y-87000000D02*
X191000000Y-85550000D01*
X188000000Y-80000000D02*
X188300000Y-80000000D01*
X188300000Y-80000000D02*
X190750000Y-77550000D01*
X190750000Y-77550000D02*
X190750000Y-77000000D01*
X188300000Y-73000000D02*
X188000000Y-73000000D01*
X190750000Y-74750000D02*
X190050000Y-74750000D01*
X190050000Y-74750000D02*
X188300000Y-73000000D01*
X190750000Y-77000000D02*
X190750000Y-74750000D01*
X188000000Y-67250000D02*
X188000000Y-66000000D01*
X190750000Y-70000000D02*
X188000000Y-67250000D01*
X190750000Y-74750000D02*
X190750000Y-70000000D01*
X189550000Y-66000000D02*
X190500000Y-65050000D01*
X188000000Y-66000000D02*
X189550000Y-66000000D01*
X190500000Y-62750000D02*
X188000000Y-60250000D01*
X188000000Y-60250000D02*
X188000000Y-59000000D01*
X190500000Y-65050000D02*
X190500000Y-62750000D01*
X190250000Y-100300000D02*
X190250000Y-93250000D01*
X189550000Y-101000000D02*
X190250000Y-100300000D01*
X188000000Y-101000000D02*
X189550000Y-101000000D01*
X190250000Y-93300000D02*
X190250000Y-93250000D01*
X190250000Y-93250000D02*
X190250000Y-87700000D01*
X159750000Y-98750000D02*
X164500000Y-94000000D01*
X164500000Y-94000000D02*
X188000000Y-94000000D01*
X158000000Y-94000000D02*
X164500000Y-94000000D01*
X176000000Y-53750000D02*
X175250000Y-54500000D01*
X188000000Y-59000000D02*
X188000000Y-57750000D01*
X188000000Y-57750000D02*
X190250000Y-55500000D01*
X189250000Y-53750000D02*
X176000000Y-53750000D01*
X190250000Y-54750000D02*
X189250000Y-53750000D01*
X190250000Y-55500000D02*
X190250000Y-54750000D01*
X177750000Y-109250000D02*
X177750000Y-105750000D01*
X185250000Y-101000000D02*
X188000000Y-101000000D01*
G04 #@! TO.N,Net-(R5-Pad2)*
X165250000Y-82750000D02*
X166250000Y-82750000D01*
X166250000Y-82750000D02*
X167500000Y-81500000D01*
G04 #@! TO.N,Net-(R12-Pad2)*
X164000000Y-84000000D02*
X167500000Y-84000000D01*
G04 #@! TO.N,Net-(R13-Pad2)*
X163250000Y-92750000D02*
X170000000Y-92750000D01*
G04 #@! TO.N,Net-(R14-Pad2)*
X162118672Y-90000000D02*
X172250000Y-90000000D01*
X159750000Y-92368672D02*
X162118672Y-90000000D01*
G04 #@! TO.N,Net-(R7-Pad2)*
X154500000Y-85250000D02*
X154500000Y-95750000D01*
X154500000Y-83500000D02*
X154500000Y-85250000D01*
G04 #@! TO.N,Net-(R16-Pad2)*
X164750000Y-57500000D02*
X164750000Y-51750000D01*
G04 #@! TO.N,Net-(R8-Pad2)*
X151250000Y-71750000D02*
X151250000Y-80000000D01*
G04 #@! TO.N,Net-(R9-Pad1)*
X171750000Y-69000000D02*
X171750000Y-63000000D01*
G04 #@! TO.N,Net-(R10-Pad1)*
X171500000Y-53500000D02*
X176750000Y-58750000D01*
G04 #@! TO.N,Net-(R10-Pad2)*
X179000000Y-59000000D02*
X183250000Y-59000000D01*
X176500000Y-61500000D02*
X179000000Y-59000000D01*
X183250000Y-58434315D02*
X183250000Y-54750000D01*
X183250000Y-59000000D02*
X183250000Y-58434315D01*
X174000000Y-69000000D02*
X174000000Y-61500000D01*
X174000000Y-61500000D02*
X176500000Y-61500000D01*
G04 #@! TO.N,5V*
X181165000Y-74760000D02*
X181750000Y-74175000D01*
X181165000Y-75300000D02*
X181165000Y-74760000D01*
X181750000Y-74175000D02*
X181750000Y-73750000D01*
X168750000Y-68750000D02*
X167750000Y-68750000D01*
X167750000Y-68750000D02*
X167000000Y-68000000D01*
X167000000Y-65750000D02*
X167750000Y-65000000D01*
X167000000Y-68000000D02*
X167000000Y-65750000D01*
X182250000Y-73250000D02*
X181750000Y-73750000D01*
X182250000Y-66000000D02*
X182250000Y-73250000D01*
X169250000Y-81500000D02*
X169250000Y-80500000D01*
X168000000Y-79250000D02*
X168000000Y-76250000D01*
X169250000Y-80500000D02*
X168000000Y-79250000D01*
X167500000Y-75750000D02*
X168000000Y-76250000D01*
X167500000Y-73500000D02*
X167500000Y-75750000D01*
X159000000Y-54250000D02*
X159000000Y-59750000D01*
X173250000Y-109250000D02*
X173250000Y-105750000D01*
X174287500Y-77037500D02*
X174000000Y-76750000D01*
X176000000Y-77037500D02*
X174287500Y-77037500D01*
X149062500Y-94437500D02*
X148000000Y-95500000D01*
X149062500Y-93500000D02*
X149062500Y-94437500D01*
X147312500Y-81437500D02*
X147250000Y-81500000D01*
X147312500Y-79250000D02*
X147312500Y-81437500D01*
G04 #@! TO.N,GND*
X138750000Y-52750000D02*
X143750000Y-52750000D01*
X168750000Y-109250000D02*
X168750000Y-105750000D01*
X168910000Y-105590000D02*
X168750000Y-105750000D01*
X168910000Y-99997500D02*
X168910000Y-105590000D01*
G04 #@! TO.N,MISO_0*
X155200010Y-72049990D02*
X155250000Y-72000000D01*
X155200010Y-74549990D02*
X155200010Y-72049990D01*
X158250000Y-66750000D02*
X163500000Y-66750000D01*
X181250000Y-77285000D02*
X181165000Y-77200000D01*
X172750000Y-71500000D02*
X172750000Y-79000000D01*
X182250000Y-78285000D02*
X181165000Y-77200000D01*
X182250000Y-79000000D02*
X182250000Y-78285000D01*
G04 #@! TO.N,SCLK0*
X157750000Y-72750000D02*
X164250000Y-72750000D01*
X164250000Y-72750000D02*
X168500000Y-72750000D01*
X168500000Y-72750000D02*
X170750000Y-75000000D01*
X170750000Y-75000000D02*
X170750000Y-79250000D01*
X170750000Y-79250000D02*
X172500000Y-81000000D01*
X172500000Y-81000000D02*
X177500000Y-81000000D01*
X178835000Y-79665000D02*
X178835000Y-77200000D01*
X177500000Y-81000000D02*
X178835000Y-79665000D01*
G04 #@! TO.N,CE0*
X149000000Y-64750000D02*
X159750000Y-64750000D01*
G04 #@! TO.N,CE1*
X141324999Y-70655001D02*
X175155001Y-70655001D01*
X139960000Y-72020000D02*
X141324999Y-70655001D01*
X178835000Y-74335000D02*
X178835000Y-75300000D01*
X175155001Y-70655001D02*
X178835000Y-74335000D01*
G04 #@! TO.N,Net-(R4-Pad2)*
X153250000Y-82250000D02*
X153250000Y-71750000D01*
G04 #@! TO.N,Net-(D2-Pad1)*
X142720000Y-84500000D02*
X142500000Y-84720000D01*
X148725000Y-84500000D02*
X142720000Y-84500000D01*
G04 #@! TO.N,Net-(D2-Pad2)*
X149187500Y-81437500D02*
X149187500Y-79250000D01*
X150775000Y-83025000D02*
X149187500Y-81437500D01*
X150775000Y-84500000D02*
X150775000Y-83025000D01*
G04 #@! TO.N,Net-(D3-Pad2)*
X150775000Y-93337500D02*
X150937500Y-93500000D01*
X150775000Y-89750000D02*
X150775000Y-93337500D01*
G04 #@! TO.N,Net-(D3-Pad1)*
X142550000Y-89750000D02*
X142500000Y-89800000D01*
X148725000Y-89750000D02*
X142550000Y-89750000D01*
G04 #@! TD*
D23*
G04 #@! TO.N,GND*
G36*
X186918396Y-47190938D02*
X186365000Y-48526954D01*
X186365000Y-49973046D01*
X186918396Y-51309062D01*
X187940938Y-52331604D01*
X189276954Y-52885000D01*
X190723046Y-52885000D01*
X192059062Y-52331604D01*
X192790000Y-51600666D01*
X192790001Y-104899335D01*
X192059062Y-104168396D01*
X190723046Y-103615000D01*
X189276954Y-103615000D01*
X187940938Y-104168396D01*
X186918396Y-105190938D01*
X186365000Y-106526954D01*
X186365000Y-107973046D01*
X186918396Y-109309062D01*
X187649334Y-110040000D01*
X178423711Y-110040000D01*
X178627431Y-109836280D01*
X178785000Y-109455874D01*
X178785000Y-109044126D01*
X178627431Y-108663720D01*
X178510000Y-108546289D01*
X178510000Y-107647440D01*
X179000000Y-107647440D01*
X179247765Y-107598157D01*
X179457809Y-107457809D01*
X179598157Y-107247765D01*
X179647440Y-107000000D01*
X179647440Y-104500000D01*
X179598157Y-104252235D01*
X179457809Y-104042191D01*
X179247765Y-103901843D01*
X179000000Y-103852560D01*
X176500000Y-103852560D01*
X176252235Y-103901843D01*
X176042191Y-104042191D01*
X175901843Y-104252235D01*
X175852560Y-104500000D01*
X175852560Y-107000000D01*
X175901843Y-107247765D01*
X176042191Y-107457809D01*
X176252235Y-107598157D01*
X176500000Y-107647440D01*
X176990000Y-107647440D01*
X176990000Y-108546289D01*
X176872569Y-108663720D01*
X176715000Y-109044126D01*
X176715000Y-109455874D01*
X176872569Y-109836280D01*
X177076289Y-110040000D01*
X173923711Y-110040000D01*
X174127431Y-109836280D01*
X174285000Y-109455874D01*
X174285000Y-109044126D01*
X174127431Y-108663720D01*
X174010000Y-108546289D01*
X174010000Y-107647440D01*
X174500000Y-107647440D01*
X174747765Y-107598157D01*
X174957809Y-107457809D01*
X175098157Y-107247765D01*
X175147440Y-107000000D01*
X175147440Y-104500000D01*
X175098157Y-104252235D01*
X174957809Y-104042191D01*
X174747765Y-103901843D01*
X174500000Y-103852560D01*
X172000000Y-103852560D01*
X171752235Y-103901843D01*
X171542191Y-104042191D01*
X171401843Y-104252235D01*
X171352560Y-104500000D01*
X171352560Y-107000000D01*
X171401843Y-107247765D01*
X171542191Y-107457809D01*
X171752235Y-107598157D01*
X172000000Y-107647440D01*
X172490000Y-107647440D01*
X172490000Y-108546289D01*
X172372569Y-108663720D01*
X172215000Y-109044126D01*
X172215000Y-109455874D01*
X172372569Y-109836280D01*
X172576289Y-110040000D01*
X143350666Y-110040000D01*
X144081604Y-109309062D01*
X144635000Y-107973046D01*
X144635000Y-106526954D01*
X144431537Y-106035750D01*
X166865000Y-106035750D01*
X166865000Y-107126310D01*
X166961673Y-107359699D01*
X167140302Y-107538327D01*
X167373691Y-107635000D01*
X168464250Y-107635000D01*
X168623000Y-107476250D01*
X168623000Y-105877000D01*
X168877000Y-105877000D01*
X168877000Y-107476250D01*
X169035750Y-107635000D01*
X170126309Y-107635000D01*
X170359698Y-107538327D01*
X170538327Y-107359699D01*
X170635000Y-107126310D01*
X170635000Y-106035750D01*
X170476250Y-105877000D01*
X168877000Y-105877000D01*
X168623000Y-105877000D01*
X167023750Y-105877000D01*
X166865000Y-106035750D01*
X144431537Y-106035750D01*
X144081604Y-105190938D01*
X143264356Y-104373690D01*
X166865000Y-104373690D01*
X166865000Y-105464250D01*
X167023750Y-105623000D01*
X168623000Y-105623000D01*
X168623000Y-104023750D01*
X168877000Y-104023750D01*
X168877000Y-105623000D01*
X170476250Y-105623000D01*
X170635000Y-105464250D01*
X170635000Y-104373690D01*
X170538327Y-104140301D01*
X170359698Y-103961673D01*
X170126309Y-103865000D01*
X169035750Y-103865000D01*
X168877000Y-104023750D01*
X168623000Y-104023750D01*
X168464250Y-103865000D01*
X167373691Y-103865000D01*
X167140302Y-103961673D01*
X166961673Y-104140301D01*
X166865000Y-104373690D01*
X143264356Y-104373690D01*
X143059062Y-104168396D01*
X142646338Y-103997440D01*
X143350000Y-103997440D01*
X143597765Y-103948157D01*
X143807809Y-103807809D01*
X143948157Y-103597765D01*
X143997440Y-103350000D01*
X143997440Y-101650000D01*
X143948157Y-101402235D01*
X143807809Y-101192191D01*
X143597765Y-101051843D01*
X143552381Y-101042816D01*
X143570625Y-101030625D01*
X143898839Y-100539418D01*
X144014092Y-99960000D01*
X143996936Y-99873750D01*
X178267560Y-99873750D01*
X178267560Y-100786250D01*
X178335398Y-101127294D01*
X178528584Y-101416416D01*
X178817706Y-101609602D01*
X179158750Y-101677440D01*
X179646250Y-101677440D01*
X179987294Y-101609602D01*
X180276416Y-101416416D01*
X180340000Y-101321256D01*
X180403584Y-101416416D01*
X180692706Y-101609602D01*
X181033750Y-101677440D01*
X181521250Y-101677440D01*
X181862294Y-101609602D01*
X182151416Y-101416416D01*
X182344602Y-101127294D01*
X182412440Y-100786250D01*
X182412440Y-99873750D01*
X182344602Y-99532706D01*
X182151416Y-99243584D01*
X181862294Y-99050398D01*
X181521250Y-98982560D01*
X181033750Y-98982560D01*
X180692706Y-99050398D01*
X180403584Y-99243584D01*
X180340000Y-99338744D01*
X180276416Y-99243584D01*
X179987294Y-99050398D01*
X179646250Y-98982560D01*
X179158750Y-98982560D01*
X178817706Y-99050398D01*
X178528584Y-99243584D01*
X178335398Y-99532706D01*
X178267560Y-99873750D01*
X143996936Y-99873750D01*
X143898839Y-99380582D01*
X143570625Y-98889375D01*
X143272239Y-98690000D01*
X143570625Y-98490625D01*
X143898839Y-97999418D01*
X144014092Y-97420000D01*
X143898839Y-96840582D01*
X143570625Y-96349375D01*
X143272239Y-96150000D01*
X143570625Y-95950625D01*
X143898839Y-95459418D01*
X144014092Y-94880000D01*
X143898839Y-94300582D01*
X143570625Y-93809375D01*
X143272239Y-93610000D01*
X143570625Y-93410625D01*
X143898839Y-92919418D01*
X144014092Y-92340000D01*
X143898839Y-91760582D01*
X143570625Y-91269375D01*
X143272239Y-91070000D01*
X143570625Y-90870625D01*
X143811587Y-90510000D01*
X147564222Y-90510000D01*
X147570873Y-90543436D01*
X147765414Y-90834586D01*
X148056564Y-91029127D01*
X148399999Y-91097440D01*
X149050001Y-91097440D01*
X149393436Y-91029127D01*
X149684586Y-90834586D01*
X149750000Y-90736687D01*
X149815414Y-90834586D01*
X150015000Y-90967946D01*
X150015001Y-92486294D01*
X150000000Y-92508744D01*
X149936416Y-92413584D01*
X149647294Y-92220398D01*
X149306250Y-92152560D01*
X148818750Y-92152560D01*
X148477706Y-92220398D01*
X148188584Y-92413584D01*
X147995398Y-92702706D01*
X147927560Y-93043750D01*
X147927560Y-93956250D01*
X147995398Y-94297294D01*
X148048473Y-94376726D01*
X147960199Y-94465000D01*
X147794126Y-94465000D01*
X147413720Y-94622569D01*
X147122569Y-94913720D01*
X146965000Y-95294126D01*
X146965000Y-95705874D01*
X147122569Y-96086280D01*
X147413720Y-96377431D01*
X147794126Y-96535000D01*
X148205874Y-96535000D01*
X148586280Y-96377431D01*
X148877431Y-96086280D01*
X149035000Y-95705874D01*
X149035000Y-95539801D01*
X149546973Y-95027829D01*
X149610429Y-94985429D01*
X149778404Y-94734037D01*
X149788048Y-94685553D01*
X149936416Y-94586416D01*
X150000000Y-94491256D01*
X150063584Y-94586416D01*
X150352706Y-94779602D01*
X150693750Y-94847440D01*
X151181250Y-94847440D01*
X151522294Y-94779602D01*
X151811416Y-94586416D01*
X152004602Y-94297294D01*
X152072440Y-93956250D01*
X152072440Y-93043750D01*
X152004602Y-92702706D01*
X151811416Y-92413584D01*
X151535000Y-92228888D01*
X151535000Y-90967946D01*
X151734586Y-90834586D01*
X151929127Y-90543436D01*
X151997440Y-90200001D01*
X151997440Y-89299999D01*
X151929127Y-88956564D01*
X151734586Y-88665414D01*
X151443436Y-88470873D01*
X151100001Y-88402560D01*
X150449999Y-88402560D01*
X150106564Y-88470873D01*
X149815414Y-88665414D01*
X149750000Y-88763313D01*
X149684586Y-88665414D01*
X149393436Y-88470873D01*
X149050001Y-88402560D01*
X148399999Y-88402560D01*
X148056564Y-88470873D01*
X147765414Y-88665414D01*
X147570873Y-88956564D01*
X147564222Y-88990000D01*
X143744769Y-88990000D01*
X143570625Y-88729375D01*
X143272239Y-88530000D01*
X143570625Y-88330625D01*
X143898839Y-87839418D01*
X144014092Y-87260000D01*
X143898839Y-86680582D01*
X143570625Y-86189375D01*
X143272239Y-85990000D01*
X143570625Y-85790625D01*
X143898839Y-85299418D01*
X143906680Y-85260000D01*
X147564222Y-85260000D01*
X147570873Y-85293436D01*
X147765414Y-85584586D01*
X148056564Y-85779127D01*
X148399999Y-85847440D01*
X149050001Y-85847440D01*
X149393436Y-85779127D01*
X149684586Y-85584586D01*
X149750000Y-85486687D01*
X149815414Y-85584586D01*
X150106564Y-85779127D01*
X150449999Y-85847440D01*
X151100001Y-85847440D01*
X151443436Y-85779127D01*
X151734586Y-85584586D01*
X151929127Y-85293436D01*
X151997440Y-84950001D01*
X151997440Y-84049999D01*
X151929127Y-83706564D01*
X151734586Y-83415414D01*
X151535000Y-83282054D01*
X151535000Y-83099846D01*
X151549888Y-83024999D01*
X151535000Y-82950152D01*
X151535000Y-82950148D01*
X151490904Y-82728463D01*
X151322929Y-82477071D01*
X151259473Y-82434671D01*
X149947500Y-81122699D01*
X149947500Y-80412533D01*
X150061416Y-80336416D01*
X150215000Y-80106562D01*
X150215000Y-80205874D01*
X150372569Y-80586280D01*
X150663720Y-80877431D01*
X151044126Y-81035000D01*
X151455874Y-81035000D01*
X151836280Y-80877431D01*
X152127431Y-80586280D01*
X152285000Y-80205874D01*
X152285000Y-79794126D01*
X152127431Y-79413720D01*
X152010000Y-79296289D01*
X152010000Y-72453711D01*
X152127431Y-72336280D01*
X152250000Y-72040372D01*
X152372569Y-72336280D01*
X152490001Y-72453712D01*
X152490000Y-81546289D01*
X152372569Y-81663720D01*
X152215000Y-82044126D01*
X152215000Y-82455874D01*
X152372569Y-82836280D01*
X152663720Y-83127431D01*
X153044126Y-83285000D01*
X153455874Y-83285000D01*
X153471453Y-83278547D01*
X153465000Y-83294126D01*
X153465000Y-83705874D01*
X153622569Y-84086280D01*
X153740000Y-84203711D01*
X153740001Y-85175144D01*
X153740000Y-85175149D01*
X153740001Y-95046288D01*
X153622569Y-95163720D01*
X153465000Y-95544126D01*
X153465000Y-95955874D01*
X153622569Y-96336280D01*
X153913720Y-96627431D01*
X154294126Y-96785000D01*
X154705874Y-96785000D01*
X155086280Y-96627431D01*
X155377431Y-96336280D01*
X155535000Y-95955874D01*
X155535000Y-95544126D01*
X155377431Y-95163720D01*
X155260000Y-95046289D01*
X155260000Y-92723711D01*
X155413720Y-92877431D01*
X155794126Y-93035000D01*
X155960199Y-93035000D01*
X157409671Y-94484473D01*
X157452071Y-94547929D01*
X157703463Y-94715904D01*
X157925148Y-94760000D01*
X157925152Y-94760000D01*
X157999999Y-94774888D01*
X158074846Y-94760000D01*
X162665198Y-94760000D01*
X159710199Y-97715000D01*
X159544126Y-97715000D01*
X159163720Y-97872569D01*
X158872569Y-98163720D01*
X158715000Y-98544126D01*
X158715000Y-98955874D01*
X158872569Y-99336280D01*
X159163720Y-99627431D01*
X159544126Y-99785000D01*
X159955874Y-99785000D01*
X160336280Y-99627431D01*
X160627431Y-99336280D01*
X160785000Y-98955874D01*
X160785000Y-98789801D01*
X164814803Y-94760000D01*
X186241419Y-94760000D01*
X186521231Y-95178769D01*
X187062055Y-95540136D01*
X187538969Y-95635000D01*
X188461031Y-95635000D01*
X188937945Y-95540136D01*
X189478769Y-95178769D01*
X189490001Y-95161960D01*
X189490001Y-96338040D01*
X189478769Y-96321231D01*
X188937945Y-95959864D01*
X188461031Y-95865000D01*
X187538969Y-95865000D01*
X187062055Y-95959864D01*
X186521231Y-96321231D01*
X186159864Y-96862055D01*
X186032969Y-97500000D01*
X186159864Y-98137945D01*
X186521231Y-98678769D01*
X187062055Y-99040136D01*
X187538969Y-99135000D01*
X188461031Y-99135000D01*
X188937945Y-99040136D01*
X189478769Y-98678769D01*
X189490000Y-98661960D01*
X189490000Y-99390353D01*
X189300000Y-99352560D01*
X186700000Y-99352560D01*
X186452235Y-99401843D01*
X186242191Y-99542191D01*
X186101843Y-99752235D01*
X186052560Y-100000000D01*
X186052560Y-100240000D01*
X185953711Y-100240000D01*
X185836280Y-100122569D01*
X185455874Y-99965000D01*
X185044126Y-99965000D01*
X184663720Y-100122569D01*
X184372569Y-100413720D01*
X184215000Y-100794126D01*
X184215000Y-101205874D01*
X184372569Y-101586280D01*
X184663720Y-101877431D01*
X185044126Y-102035000D01*
X185455874Y-102035000D01*
X185836280Y-101877431D01*
X185953711Y-101760000D01*
X186052560Y-101760000D01*
X186052560Y-102000000D01*
X186101843Y-102247765D01*
X186242191Y-102457809D01*
X186452235Y-102598157D01*
X186700000Y-102647440D01*
X189300000Y-102647440D01*
X189547765Y-102598157D01*
X189757809Y-102457809D01*
X189898157Y-102247765D01*
X189947440Y-102000000D01*
X189947440Y-101648483D01*
X190097929Y-101547929D01*
X190140330Y-101484471D01*
X190734476Y-100890327D01*
X190797929Y-100847929D01*
X190840327Y-100784476D01*
X190840329Y-100784474D01*
X190965903Y-100596538D01*
X190965904Y-100596537D01*
X191010000Y-100374852D01*
X191010000Y-100374848D01*
X191024888Y-100300001D01*
X191010000Y-100225154D01*
X191010000Y-93374848D01*
X191024888Y-93300001D01*
X191010000Y-93225154D01*
X191010000Y-87774846D01*
X191024888Y-87699999D01*
X191010000Y-87625152D01*
X191010000Y-87625148D01*
X190965904Y-87403463D01*
X190870045Y-87260000D01*
X190840329Y-87215526D01*
X190840327Y-87215524D01*
X190797929Y-87152071D01*
X190734475Y-87109672D01*
X190624802Y-86999999D01*
X191484473Y-86140329D01*
X191547929Y-86097929D01*
X191596733Y-86024889D01*
X191715904Y-85846538D01*
X191730134Y-85775000D01*
X191760000Y-85624852D01*
X191760000Y-85624848D01*
X191774888Y-85550000D01*
X191760000Y-85475152D01*
X191760000Y-81074848D01*
X191774888Y-81000000D01*
X191760000Y-80925152D01*
X191760000Y-80925148D01*
X191715904Y-80703463D01*
X191547929Y-80452071D01*
X191484473Y-80409671D01*
X190590331Y-79515530D01*
X190547929Y-79452071D01*
X190296537Y-79284096D01*
X190124855Y-79249946D01*
X191234473Y-78140329D01*
X191297929Y-78097929D01*
X191465904Y-77846537D01*
X191510000Y-77624852D01*
X191510000Y-77624848D01*
X191524888Y-77550001D01*
X191510000Y-77475154D01*
X191510000Y-74824851D01*
X191524889Y-74750000D01*
X191510000Y-74675148D01*
X191510000Y-70074846D01*
X191524888Y-69999999D01*
X191510000Y-69925152D01*
X191510000Y-69925148D01*
X191465904Y-69703463D01*
X191387605Y-69586280D01*
X191340329Y-69515526D01*
X191340327Y-69515524D01*
X191297929Y-69452071D01*
X191234476Y-69409673D01*
X189193908Y-67369107D01*
X189478769Y-67178769D01*
X189779080Y-66729322D01*
X189846537Y-66715904D01*
X190097929Y-66547929D01*
X190140331Y-66484470D01*
X190984473Y-65640329D01*
X191047929Y-65597929D01*
X191215904Y-65346537D01*
X191260000Y-65124852D01*
X191260000Y-65124847D01*
X191274888Y-65050000D01*
X191260000Y-64975153D01*
X191260000Y-62824847D01*
X191274888Y-62750000D01*
X191260000Y-62675153D01*
X191260000Y-62675148D01*
X191215904Y-62453463D01*
X191047929Y-62202071D01*
X190984473Y-62159671D01*
X189193908Y-60369107D01*
X189478769Y-60178769D01*
X189840136Y-59637945D01*
X189967031Y-59000000D01*
X189840136Y-58362055D01*
X189478769Y-57821231D01*
X189193908Y-57630893D01*
X190734473Y-56090329D01*
X190797929Y-56047929D01*
X190965904Y-55796537D01*
X191010000Y-55574852D01*
X191010000Y-55574848D01*
X191024888Y-55500000D01*
X191010000Y-55425152D01*
X191010000Y-54824848D01*
X191024888Y-54750000D01*
X191010000Y-54675152D01*
X191010000Y-54675148D01*
X190965904Y-54453463D01*
X190797929Y-54202071D01*
X190734473Y-54159671D01*
X189840331Y-53265530D01*
X189797929Y-53202071D01*
X189546537Y-53034096D01*
X189324852Y-52990000D01*
X189324847Y-52990000D01*
X189250000Y-52975112D01*
X189175153Y-52990000D01*
X178035000Y-52990000D01*
X178035000Y-52819126D01*
X177877431Y-52438720D01*
X177586280Y-52147569D01*
X177205874Y-51990000D01*
X176794126Y-51990000D01*
X176413720Y-52147569D01*
X176122569Y-52438720D01*
X175965000Y-52819126D01*
X175965000Y-52982074D01*
X175925152Y-52990000D01*
X175925148Y-52990000D01*
X175703463Y-53034096D01*
X175452071Y-53202071D01*
X175409671Y-53265527D01*
X175210198Y-53465000D01*
X175044126Y-53465000D01*
X174663720Y-53622569D01*
X174372569Y-53913720D01*
X174215000Y-54294126D01*
X174215000Y-54705874D01*
X174372569Y-55086280D01*
X174663720Y-55377431D01*
X175044126Y-55535000D01*
X175455874Y-55535000D01*
X175836280Y-55377431D01*
X176127431Y-55086280D01*
X176285000Y-54705874D01*
X176285000Y-54539802D01*
X176314802Y-54510000D01*
X182229135Y-54510000D01*
X182215000Y-54544126D01*
X182215000Y-54955874D01*
X182372569Y-55336280D01*
X182490001Y-55453712D01*
X182490000Y-58240000D01*
X179074847Y-58240000D01*
X179000000Y-58225112D01*
X178925153Y-58240000D01*
X178925148Y-58240000D01*
X178703463Y-58284096D01*
X178452071Y-58452071D01*
X178409671Y-58515527D01*
X177654663Y-59270535D01*
X177785000Y-58955874D01*
X177785000Y-58544126D01*
X177627431Y-58163720D01*
X177336280Y-57872569D01*
X176955874Y-57715000D01*
X176789802Y-57715000D01*
X172535000Y-53460199D01*
X172535000Y-53294126D01*
X172377431Y-52913720D01*
X172086280Y-52622569D01*
X171705874Y-52465000D01*
X171294126Y-52465000D01*
X170913720Y-52622569D01*
X170622569Y-52913720D01*
X170465000Y-53294126D01*
X170465000Y-53705874D01*
X170622569Y-54086280D01*
X170913720Y-54377431D01*
X171294126Y-54535000D01*
X171460199Y-54535000D01*
X175715000Y-58789802D01*
X175715000Y-58955874D01*
X175872569Y-59336280D01*
X176163720Y-59627431D01*
X176544126Y-59785000D01*
X176955874Y-59785000D01*
X177270535Y-59654663D01*
X176185199Y-60740000D01*
X174703711Y-60740000D01*
X174586280Y-60622569D01*
X174205874Y-60465000D01*
X173794126Y-60465000D01*
X173413720Y-60622569D01*
X173122569Y-60913720D01*
X172965000Y-61294126D01*
X172965000Y-61705874D01*
X173122569Y-62086280D01*
X173240001Y-62203712D01*
X173240000Y-68296289D01*
X173122569Y-68413720D01*
X172965000Y-68794126D01*
X172965000Y-69205874D01*
X173122569Y-69586280D01*
X173413720Y-69877431D01*
X173456138Y-69895001D01*
X172293862Y-69895001D01*
X172336280Y-69877431D01*
X172627431Y-69586280D01*
X172785000Y-69205874D01*
X172785000Y-68794126D01*
X172627431Y-68413720D01*
X172510000Y-68296289D01*
X172510000Y-63703711D01*
X172627431Y-63586280D01*
X172785000Y-63205874D01*
X172785000Y-62794126D01*
X172627431Y-62413720D01*
X172336280Y-62122569D01*
X171955874Y-61965000D01*
X171544126Y-61965000D01*
X171163720Y-62122569D01*
X170872569Y-62413720D01*
X170715000Y-62794126D01*
X170715000Y-63205874D01*
X170872569Y-63586280D01*
X170990001Y-63703712D01*
X170990000Y-68296289D01*
X170872569Y-68413720D01*
X170715000Y-68794126D01*
X170715000Y-69205874D01*
X170872569Y-69586280D01*
X171163720Y-69877431D01*
X171206138Y-69895001D01*
X143931543Y-69895001D01*
X144014092Y-69480000D01*
X143898839Y-68900582D01*
X143570625Y-68409375D01*
X143272239Y-68210000D01*
X143570625Y-68010625D01*
X143898839Y-67519418D01*
X144014092Y-66940000D01*
X143935349Y-66544126D01*
X157215000Y-66544126D01*
X157215000Y-66955874D01*
X157372569Y-67336280D01*
X157663720Y-67627431D01*
X158044126Y-67785000D01*
X158455874Y-67785000D01*
X158836280Y-67627431D01*
X158953711Y-67510000D01*
X162796289Y-67510000D01*
X162913720Y-67627431D01*
X163294126Y-67785000D01*
X163705874Y-67785000D01*
X164086280Y-67627431D01*
X164377431Y-67336280D01*
X164535000Y-66955874D01*
X164535000Y-66544126D01*
X164377431Y-66163720D01*
X164086280Y-65872569D01*
X163790372Y-65750000D01*
X166225112Y-65750000D01*
X166240001Y-65824852D01*
X166240000Y-67925153D01*
X166225112Y-68000000D01*
X166240000Y-68074847D01*
X166240000Y-68074851D01*
X166284096Y-68296536D01*
X166452071Y-68547929D01*
X166515530Y-68590331D01*
X167159671Y-69234473D01*
X167202071Y-69297929D01*
X167453463Y-69465904D01*
X167675148Y-69510000D01*
X167675152Y-69510000D01*
X167749999Y-69524888D01*
X167824846Y-69510000D01*
X168046289Y-69510000D01*
X168163720Y-69627431D01*
X168544126Y-69785000D01*
X168955874Y-69785000D01*
X169336280Y-69627431D01*
X169627431Y-69336280D01*
X169785000Y-68955874D01*
X169785000Y-68544126D01*
X169627431Y-68163720D01*
X169463711Y-68000000D01*
X169627431Y-67836280D01*
X169785000Y-67455874D01*
X169785000Y-67044126D01*
X169627431Y-66663720D01*
X169336280Y-66372569D01*
X168955874Y-66215000D01*
X168544126Y-66215000D01*
X168163720Y-66372569D01*
X167872569Y-66663720D01*
X167760000Y-66935486D01*
X167760000Y-66064801D01*
X167789801Y-66035000D01*
X167955874Y-66035000D01*
X168336280Y-65877431D01*
X168627431Y-65586280D01*
X168785000Y-65205874D01*
X168785000Y-64794126D01*
X168627431Y-64413720D01*
X168336280Y-64122569D01*
X167955874Y-63965000D01*
X167544126Y-63965000D01*
X167163720Y-64122569D01*
X166872569Y-64413720D01*
X166715000Y-64794126D01*
X166715000Y-64960199D01*
X166515528Y-65159671D01*
X166452072Y-65202071D01*
X166409672Y-65265527D01*
X166409671Y-65265528D01*
X166284097Y-65453463D01*
X166225112Y-65750000D01*
X163790372Y-65750000D01*
X163705874Y-65715000D01*
X163294126Y-65715000D01*
X162913720Y-65872569D01*
X162796289Y-65990000D01*
X158953711Y-65990000D01*
X158836280Y-65872569D01*
X158455874Y-65715000D01*
X158044126Y-65715000D01*
X157663720Y-65872569D01*
X157372569Y-66163720D01*
X157215000Y-66544126D01*
X143935349Y-66544126D01*
X143898839Y-66360582D01*
X143570625Y-65869375D01*
X143272239Y-65670000D01*
X143570625Y-65470625D01*
X143898839Y-64979418D01*
X143985423Y-64544126D01*
X147965000Y-64544126D01*
X147965000Y-64955874D01*
X148122569Y-65336280D01*
X148413720Y-65627431D01*
X148794126Y-65785000D01*
X149205874Y-65785000D01*
X149586280Y-65627431D01*
X149703711Y-65510000D01*
X159046289Y-65510000D01*
X159163720Y-65627431D01*
X159544126Y-65785000D01*
X159955874Y-65785000D01*
X160336280Y-65627431D01*
X160627431Y-65336280D01*
X160785000Y-64955874D01*
X160785000Y-64544126D01*
X160627431Y-64163720D01*
X160336280Y-63872569D01*
X159955874Y-63715000D01*
X159544126Y-63715000D01*
X159163720Y-63872569D01*
X159046289Y-63990000D01*
X149703711Y-63990000D01*
X149586280Y-63872569D01*
X149205874Y-63715000D01*
X148794126Y-63715000D01*
X148413720Y-63872569D01*
X148122569Y-64163720D01*
X147965000Y-64544126D01*
X143985423Y-64544126D01*
X144014092Y-64400000D01*
X143898839Y-63820582D01*
X143570625Y-63329375D01*
X143272239Y-63130000D01*
X143570625Y-62930625D01*
X143898839Y-62439418D01*
X144014092Y-61860000D01*
X143898839Y-61280582D01*
X143570625Y-60789375D01*
X143272239Y-60590000D01*
X143570625Y-60390625D01*
X143898839Y-59899418D01*
X144014092Y-59320000D01*
X143898839Y-58740582D01*
X143570625Y-58249375D01*
X143272239Y-58050000D01*
X143570625Y-57850625D01*
X143898839Y-57359418D01*
X144014092Y-56780000D01*
X143898839Y-56200582D01*
X143570625Y-55709375D01*
X143251522Y-55496157D01*
X143381358Y-55435183D01*
X143771645Y-55006924D01*
X143941476Y-54596890D01*
X143820155Y-54367000D01*
X142627000Y-54367000D01*
X142627000Y-54387000D01*
X142373000Y-54387000D01*
X142373000Y-54367000D01*
X142353000Y-54367000D01*
X142353000Y-54113000D01*
X142373000Y-54113000D01*
X142373000Y-52919181D01*
X142627000Y-52919181D01*
X142627000Y-54113000D01*
X143820155Y-54113000D01*
X143856502Y-54044126D01*
X157965000Y-54044126D01*
X157965000Y-54455874D01*
X158122569Y-54836280D01*
X158240000Y-54953711D01*
X158240001Y-59046288D01*
X158122569Y-59163720D01*
X157965000Y-59544126D01*
X157965000Y-59955874D01*
X158122569Y-60336280D01*
X158413720Y-60627431D01*
X158794126Y-60785000D01*
X159205874Y-60785000D01*
X159586280Y-60627431D01*
X159877431Y-60336280D01*
X160035000Y-59955874D01*
X160035000Y-59544126D01*
X159877431Y-59163720D01*
X159760000Y-59046289D01*
X159760000Y-54953711D01*
X159877431Y-54836280D01*
X160035000Y-54455874D01*
X160035000Y-54044126D01*
X159877431Y-53663720D01*
X159586280Y-53372569D01*
X159205874Y-53215000D01*
X158794126Y-53215000D01*
X158413720Y-53372569D01*
X158122569Y-53663720D01*
X157965000Y-54044126D01*
X143856502Y-54044126D01*
X143941476Y-53883110D01*
X143771645Y-53473076D01*
X143381358Y-53044817D01*
X142856892Y-52798514D01*
X142627000Y-52919181D01*
X142373000Y-52919181D01*
X142143108Y-52798514D01*
X141618642Y-53044817D01*
X141231353Y-53469786D01*
X141030625Y-53169375D01*
X140605028Y-52885000D01*
X141723046Y-52885000D01*
X143059062Y-52331604D01*
X143846540Y-51544126D01*
X163715000Y-51544126D01*
X163715000Y-51955874D01*
X163872569Y-52336280D01*
X163990001Y-52453712D01*
X163990000Y-56796289D01*
X163872569Y-56913720D01*
X163715000Y-57294126D01*
X163715000Y-57705874D01*
X163872569Y-58086280D01*
X164163720Y-58377431D01*
X164544126Y-58535000D01*
X164955874Y-58535000D01*
X165336280Y-58377431D01*
X165627431Y-58086280D01*
X165785000Y-57705874D01*
X165785000Y-57294126D01*
X165627431Y-56913720D01*
X165510000Y-56796289D01*
X165510000Y-52453711D01*
X165627431Y-52336280D01*
X165785000Y-51955874D01*
X165785000Y-51544126D01*
X165627431Y-51163720D01*
X165336280Y-50872569D01*
X164955874Y-50715000D01*
X164544126Y-50715000D01*
X164163720Y-50872569D01*
X163872569Y-51163720D01*
X163715000Y-51544126D01*
X143846540Y-51544126D01*
X144081604Y-51309062D01*
X144635000Y-49973046D01*
X144635000Y-48526954D01*
X144081604Y-47190938D01*
X143350666Y-46460000D01*
X187649334Y-46460000D01*
X186918396Y-47190938D01*
X186918396Y-47190938D01*
G37*
X186918396Y-47190938D02*
X186365000Y-48526954D01*
X186365000Y-49973046D01*
X186918396Y-51309062D01*
X187940938Y-52331604D01*
X189276954Y-52885000D01*
X190723046Y-52885000D01*
X192059062Y-52331604D01*
X192790000Y-51600666D01*
X192790001Y-104899335D01*
X192059062Y-104168396D01*
X190723046Y-103615000D01*
X189276954Y-103615000D01*
X187940938Y-104168396D01*
X186918396Y-105190938D01*
X186365000Y-106526954D01*
X186365000Y-107973046D01*
X186918396Y-109309062D01*
X187649334Y-110040000D01*
X178423711Y-110040000D01*
X178627431Y-109836280D01*
X178785000Y-109455874D01*
X178785000Y-109044126D01*
X178627431Y-108663720D01*
X178510000Y-108546289D01*
X178510000Y-107647440D01*
X179000000Y-107647440D01*
X179247765Y-107598157D01*
X179457809Y-107457809D01*
X179598157Y-107247765D01*
X179647440Y-107000000D01*
X179647440Y-104500000D01*
X179598157Y-104252235D01*
X179457809Y-104042191D01*
X179247765Y-103901843D01*
X179000000Y-103852560D01*
X176500000Y-103852560D01*
X176252235Y-103901843D01*
X176042191Y-104042191D01*
X175901843Y-104252235D01*
X175852560Y-104500000D01*
X175852560Y-107000000D01*
X175901843Y-107247765D01*
X176042191Y-107457809D01*
X176252235Y-107598157D01*
X176500000Y-107647440D01*
X176990000Y-107647440D01*
X176990000Y-108546289D01*
X176872569Y-108663720D01*
X176715000Y-109044126D01*
X176715000Y-109455874D01*
X176872569Y-109836280D01*
X177076289Y-110040000D01*
X173923711Y-110040000D01*
X174127431Y-109836280D01*
X174285000Y-109455874D01*
X174285000Y-109044126D01*
X174127431Y-108663720D01*
X174010000Y-108546289D01*
X174010000Y-107647440D01*
X174500000Y-107647440D01*
X174747765Y-107598157D01*
X174957809Y-107457809D01*
X175098157Y-107247765D01*
X175147440Y-107000000D01*
X175147440Y-104500000D01*
X175098157Y-104252235D01*
X174957809Y-104042191D01*
X174747765Y-103901843D01*
X174500000Y-103852560D01*
X172000000Y-103852560D01*
X171752235Y-103901843D01*
X171542191Y-104042191D01*
X171401843Y-104252235D01*
X171352560Y-104500000D01*
X171352560Y-107000000D01*
X171401843Y-107247765D01*
X171542191Y-107457809D01*
X171752235Y-107598157D01*
X172000000Y-107647440D01*
X172490000Y-107647440D01*
X172490000Y-108546289D01*
X172372569Y-108663720D01*
X172215000Y-109044126D01*
X172215000Y-109455874D01*
X172372569Y-109836280D01*
X172576289Y-110040000D01*
X143350666Y-110040000D01*
X144081604Y-109309062D01*
X144635000Y-107973046D01*
X144635000Y-106526954D01*
X144431537Y-106035750D01*
X166865000Y-106035750D01*
X166865000Y-107126310D01*
X166961673Y-107359699D01*
X167140302Y-107538327D01*
X167373691Y-107635000D01*
X168464250Y-107635000D01*
X168623000Y-107476250D01*
X168623000Y-105877000D01*
X168877000Y-105877000D01*
X168877000Y-107476250D01*
X169035750Y-107635000D01*
X170126309Y-107635000D01*
X170359698Y-107538327D01*
X170538327Y-107359699D01*
X170635000Y-107126310D01*
X170635000Y-106035750D01*
X170476250Y-105877000D01*
X168877000Y-105877000D01*
X168623000Y-105877000D01*
X167023750Y-105877000D01*
X166865000Y-106035750D01*
X144431537Y-106035750D01*
X144081604Y-105190938D01*
X143264356Y-104373690D01*
X166865000Y-104373690D01*
X166865000Y-105464250D01*
X167023750Y-105623000D01*
X168623000Y-105623000D01*
X168623000Y-104023750D01*
X168877000Y-104023750D01*
X168877000Y-105623000D01*
X170476250Y-105623000D01*
X170635000Y-105464250D01*
X170635000Y-104373690D01*
X170538327Y-104140301D01*
X170359698Y-103961673D01*
X170126309Y-103865000D01*
X169035750Y-103865000D01*
X168877000Y-104023750D01*
X168623000Y-104023750D01*
X168464250Y-103865000D01*
X167373691Y-103865000D01*
X167140302Y-103961673D01*
X166961673Y-104140301D01*
X166865000Y-104373690D01*
X143264356Y-104373690D01*
X143059062Y-104168396D01*
X142646338Y-103997440D01*
X143350000Y-103997440D01*
X143597765Y-103948157D01*
X143807809Y-103807809D01*
X143948157Y-103597765D01*
X143997440Y-103350000D01*
X143997440Y-101650000D01*
X143948157Y-101402235D01*
X143807809Y-101192191D01*
X143597765Y-101051843D01*
X143552381Y-101042816D01*
X143570625Y-101030625D01*
X143898839Y-100539418D01*
X144014092Y-99960000D01*
X143996936Y-99873750D01*
X178267560Y-99873750D01*
X178267560Y-100786250D01*
X178335398Y-101127294D01*
X178528584Y-101416416D01*
X178817706Y-101609602D01*
X179158750Y-101677440D01*
X179646250Y-101677440D01*
X179987294Y-101609602D01*
X180276416Y-101416416D01*
X180340000Y-101321256D01*
X180403584Y-101416416D01*
X180692706Y-101609602D01*
X181033750Y-101677440D01*
X181521250Y-101677440D01*
X181862294Y-101609602D01*
X182151416Y-101416416D01*
X182344602Y-101127294D01*
X182412440Y-100786250D01*
X182412440Y-99873750D01*
X182344602Y-99532706D01*
X182151416Y-99243584D01*
X181862294Y-99050398D01*
X181521250Y-98982560D01*
X181033750Y-98982560D01*
X180692706Y-99050398D01*
X180403584Y-99243584D01*
X180340000Y-99338744D01*
X180276416Y-99243584D01*
X179987294Y-99050398D01*
X179646250Y-98982560D01*
X179158750Y-98982560D01*
X178817706Y-99050398D01*
X178528584Y-99243584D01*
X178335398Y-99532706D01*
X178267560Y-99873750D01*
X143996936Y-99873750D01*
X143898839Y-99380582D01*
X143570625Y-98889375D01*
X143272239Y-98690000D01*
X143570625Y-98490625D01*
X143898839Y-97999418D01*
X144014092Y-97420000D01*
X143898839Y-96840582D01*
X143570625Y-96349375D01*
X143272239Y-96150000D01*
X143570625Y-95950625D01*
X143898839Y-95459418D01*
X144014092Y-94880000D01*
X143898839Y-94300582D01*
X143570625Y-93809375D01*
X143272239Y-93610000D01*
X143570625Y-93410625D01*
X143898839Y-92919418D01*
X144014092Y-92340000D01*
X143898839Y-91760582D01*
X143570625Y-91269375D01*
X143272239Y-91070000D01*
X143570625Y-90870625D01*
X143811587Y-90510000D01*
X147564222Y-90510000D01*
X147570873Y-90543436D01*
X147765414Y-90834586D01*
X148056564Y-91029127D01*
X148399999Y-91097440D01*
X149050001Y-91097440D01*
X149393436Y-91029127D01*
X149684586Y-90834586D01*
X149750000Y-90736687D01*
X149815414Y-90834586D01*
X150015000Y-90967946D01*
X150015001Y-92486294D01*
X150000000Y-92508744D01*
X149936416Y-92413584D01*
X149647294Y-92220398D01*
X149306250Y-92152560D01*
X148818750Y-92152560D01*
X148477706Y-92220398D01*
X148188584Y-92413584D01*
X147995398Y-92702706D01*
X147927560Y-93043750D01*
X147927560Y-93956250D01*
X147995398Y-94297294D01*
X148048473Y-94376726D01*
X147960199Y-94465000D01*
X147794126Y-94465000D01*
X147413720Y-94622569D01*
X147122569Y-94913720D01*
X146965000Y-95294126D01*
X146965000Y-95705874D01*
X147122569Y-96086280D01*
X147413720Y-96377431D01*
X147794126Y-96535000D01*
X148205874Y-96535000D01*
X148586280Y-96377431D01*
X148877431Y-96086280D01*
X149035000Y-95705874D01*
X149035000Y-95539801D01*
X149546973Y-95027829D01*
X149610429Y-94985429D01*
X149778404Y-94734037D01*
X149788048Y-94685553D01*
X149936416Y-94586416D01*
X150000000Y-94491256D01*
X150063584Y-94586416D01*
X150352706Y-94779602D01*
X150693750Y-94847440D01*
X151181250Y-94847440D01*
X151522294Y-94779602D01*
X151811416Y-94586416D01*
X152004602Y-94297294D01*
X152072440Y-93956250D01*
X152072440Y-93043750D01*
X152004602Y-92702706D01*
X151811416Y-92413584D01*
X151535000Y-92228888D01*
X151535000Y-90967946D01*
X151734586Y-90834586D01*
X151929127Y-90543436D01*
X151997440Y-90200001D01*
X151997440Y-89299999D01*
X151929127Y-88956564D01*
X151734586Y-88665414D01*
X151443436Y-88470873D01*
X151100001Y-88402560D01*
X150449999Y-88402560D01*
X150106564Y-88470873D01*
X149815414Y-88665414D01*
X149750000Y-88763313D01*
X149684586Y-88665414D01*
X149393436Y-88470873D01*
X149050001Y-88402560D01*
X148399999Y-88402560D01*
X148056564Y-88470873D01*
X147765414Y-88665414D01*
X147570873Y-88956564D01*
X147564222Y-88990000D01*
X143744769Y-88990000D01*
X143570625Y-88729375D01*
X143272239Y-88530000D01*
X143570625Y-88330625D01*
X143898839Y-87839418D01*
X144014092Y-87260000D01*
X143898839Y-86680582D01*
X143570625Y-86189375D01*
X143272239Y-85990000D01*
X143570625Y-85790625D01*
X143898839Y-85299418D01*
X143906680Y-85260000D01*
X147564222Y-85260000D01*
X147570873Y-85293436D01*
X147765414Y-85584586D01*
X148056564Y-85779127D01*
X148399999Y-85847440D01*
X149050001Y-85847440D01*
X149393436Y-85779127D01*
X149684586Y-85584586D01*
X149750000Y-85486687D01*
X149815414Y-85584586D01*
X150106564Y-85779127D01*
X150449999Y-85847440D01*
X151100001Y-85847440D01*
X151443436Y-85779127D01*
X151734586Y-85584586D01*
X151929127Y-85293436D01*
X151997440Y-84950001D01*
X151997440Y-84049999D01*
X151929127Y-83706564D01*
X151734586Y-83415414D01*
X151535000Y-83282054D01*
X151535000Y-83099846D01*
X151549888Y-83024999D01*
X151535000Y-82950152D01*
X151535000Y-82950148D01*
X151490904Y-82728463D01*
X151322929Y-82477071D01*
X151259473Y-82434671D01*
X149947500Y-81122699D01*
X149947500Y-80412533D01*
X150061416Y-80336416D01*
X150215000Y-80106562D01*
X150215000Y-80205874D01*
X150372569Y-80586280D01*
X150663720Y-80877431D01*
X151044126Y-81035000D01*
X151455874Y-81035000D01*
X151836280Y-80877431D01*
X152127431Y-80586280D01*
X152285000Y-80205874D01*
X152285000Y-79794126D01*
X152127431Y-79413720D01*
X152010000Y-79296289D01*
X152010000Y-72453711D01*
X152127431Y-72336280D01*
X152250000Y-72040372D01*
X152372569Y-72336280D01*
X152490001Y-72453712D01*
X152490000Y-81546289D01*
X152372569Y-81663720D01*
X152215000Y-82044126D01*
X152215000Y-82455874D01*
X152372569Y-82836280D01*
X152663720Y-83127431D01*
X153044126Y-83285000D01*
X153455874Y-83285000D01*
X153471453Y-83278547D01*
X153465000Y-83294126D01*
X153465000Y-83705874D01*
X153622569Y-84086280D01*
X153740000Y-84203711D01*
X153740001Y-85175144D01*
X153740000Y-85175149D01*
X153740001Y-95046288D01*
X153622569Y-95163720D01*
X153465000Y-95544126D01*
X153465000Y-95955874D01*
X153622569Y-96336280D01*
X153913720Y-96627431D01*
X154294126Y-96785000D01*
X154705874Y-96785000D01*
X155086280Y-96627431D01*
X155377431Y-96336280D01*
X155535000Y-95955874D01*
X155535000Y-95544126D01*
X155377431Y-95163720D01*
X155260000Y-95046289D01*
X155260000Y-92723711D01*
X155413720Y-92877431D01*
X155794126Y-93035000D01*
X155960199Y-93035000D01*
X157409671Y-94484473D01*
X157452071Y-94547929D01*
X157703463Y-94715904D01*
X157925148Y-94760000D01*
X157925152Y-94760000D01*
X157999999Y-94774888D01*
X158074846Y-94760000D01*
X162665198Y-94760000D01*
X159710199Y-97715000D01*
X159544126Y-97715000D01*
X159163720Y-97872569D01*
X158872569Y-98163720D01*
X158715000Y-98544126D01*
X158715000Y-98955874D01*
X158872569Y-99336280D01*
X159163720Y-99627431D01*
X159544126Y-99785000D01*
X159955874Y-99785000D01*
X160336280Y-99627431D01*
X160627431Y-99336280D01*
X160785000Y-98955874D01*
X160785000Y-98789801D01*
X164814803Y-94760000D01*
X186241419Y-94760000D01*
X186521231Y-95178769D01*
X187062055Y-95540136D01*
X187538969Y-95635000D01*
X188461031Y-95635000D01*
X188937945Y-95540136D01*
X189478769Y-95178769D01*
X189490001Y-95161960D01*
X189490001Y-96338040D01*
X189478769Y-96321231D01*
X188937945Y-95959864D01*
X188461031Y-95865000D01*
X187538969Y-95865000D01*
X187062055Y-95959864D01*
X186521231Y-96321231D01*
X186159864Y-96862055D01*
X186032969Y-97500000D01*
X186159864Y-98137945D01*
X186521231Y-98678769D01*
X187062055Y-99040136D01*
X187538969Y-99135000D01*
X188461031Y-99135000D01*
X188937945Y-99040136D01*
X189478769Y-98678769D01*
X189490000Y-98661960D01*
X189490000Y-99390353D01*
X189300000Y-99352560D01*
X186700000Y-99352560D01*
X186452235Y-99401843D01*
X186242191Y-99542191D01*
X186101843Y-99752235D01*
X186052560Y-100000000D01*
X186052560Y-100240000D01*
X185953711Y-100240000D01*
X185836280Y-100122569D01*
X185455874Y-99965000D01*
X185044126Y-99965000D01*
X184663720Y-100122569D01*
X184372569Y-100413720D01*
X184215000Y-100794126D01*
X184215000Y-101205874D01*
X184372569Y-101586280D01*
X184663720Y-101877431D01*
X185044126Y-102035000D01*
X185455874Y-102035000D01*
X185836280Y-101877431D01*
X185953711Y-101760000D01*
X186052560Y-101760000D01*
X186052560Y-102000000D01*
X186101843Y-102247765D01*
X186242191Y-102457809D01*
X186452235Y-102598157D01*
X186700000Y-102647440D01*
X189300000Y-102647440D01*
X189547765Y-102598157D01*
X189757809Y-102457809D01*
X189898157Y-102247765D01*
X189947440Y-102000000D01*
X189947440Y-101648483D01*
X190097929Y-101547929D01*
X190140330Y-101484471D01*
X190734476Y-100890327D01*
X190797929Y-100847929D01*
X190840327Y-100784476D01*
X190840329Y-100784474D01*
X190965903Y-100596538D01*
X190965904Y-100596537D01*
X191010000Y-100374852D01*
X191010000Y-100374848D01*
X191024888Y-100300001D01*
X191010000Y-100225154D01*
X191010000Y-93374848D01*
X191024888Y-93300001D01*
X191010000Y-93225154D01*
X191010000Y-87774846D01*
X191024888Y-87699999D01*
X191010000Y-87625152D01*
X191010000Y-87625148D01*
X190965904Y-87403463D01*
X190870045Y-87260000D01*
X190840329Y-87215526D01*
X190840327Y-87215524D01*
X190797929Y-87152071D01*
X190734475Y-87109672D01*
X190624802Y-86999999D01*
X191484473Y-86140329D01*
X191547929Y-86097929D01*
X191596733Y-86024889D01*
X191715904Y-85846538D01*
X191730134Y-85775000D01*
X191760000Y-85624852D01*
X191760000Y-85624848D01*
X191774888Y-85550000D01*
X191760000Y-85475152D01*
X191760000Y-81074848D01*
X191774888Y-81000000D01*
X191760000Y-80925152D01*
X191760000Y-80925148D01*
X191715904Y-80703463D01*
X191547929Y-80452071D01*
X191484473Y-80409671D01*
X190590331Y-79515530D01*
X190547929Y-79452071D01*
X190296537Y-79284096D01*
X190124855Y-79249946D01*
X191234473Y-78140329D01*
X191297929Y-78097929D01*
X191465904Y-77846537D01*
X191510000Y-77624852D01*
X191510000Y-77624848D01*
X191524888Y-77550001D01*
X191510000Y-77475154D01*
X191510000Y-74824851D01*
X191524889Y-74750000D01*
X191510000Y-74675148D01*
X191510000Y-70074846D01*
X191524888Y-69999999D01*
X191510000Y-69925152D01*
X191510000Y-69925148D01*
X191465904Y-69703463D01*
X191387605Y-69586280D01*
X191340329Y-69515526D01*
X191340327Y-69515524D01*
X191297929Y-69452071D01*
X191234476Y-69409673D01*
X189193908Y-67369107D01*
X189478769Y-67178769D01*
X189779080Y-66729322D01*
X189846537Y-66715904D01*
X190097929Y-66547929D01*
X190140331Y-66484470D01*
X190984473Y-65640329D01*
X191047929Y-65597929D01*
X191215904Y-65346537D01*
X191260000Y-65124852D01*
X191260000Y-65124847D01*
X191274888Y-65050000D01*
X191260000Y-64975153D01*
X191260000Y-62824847D01*
X191274888Y-62750000D01*
X191260000Y-62675153D01*
X191260000Y-62675148D01*
X191215904Y-62453463D01*
X191047929Y-62202071D01*
X190984473Y-62159671D01*
X189193908Y-60369107D01*
X189478769Y-60178769D01*
X189840136Y-59637945D01*
X189967031Y-59000000D01*
X189840136Y-58362055D01*
X189478769Y-57821231D01*
X189193908Y-57630893D01*
X190734473Y-56090329D01*
X190797929Y-56047929D01*
X190965904Y-55796537D01*
X191010000Y-55574852D01*
X191010000Y-55574848D01*
X191024888Y-55500000D01*
X191010000Y-55425152D01*
X191010000Y-54824848D01*
X191024888Y-54750000D01*
X191010000Y-54675152D01*
X191010000Y-54675148D01*
X190965904Y-54453463D01*
X190797929Y-54202071D01*
X190734473Y-54159671D01*
X189840331Y-53265530D01*
X189797929Y-53202071D01*
X189546537Y-53034096D01*
X189324852Y-52990000D01*
X189324847Y-52990000D01*
X189250000Y-52975112D01*
X189175153Y-52990000D01*
X178035000Y-52990000D01*
X178035000Y-52819126D01*
X177877431Y-52438720D01*
X177586280Y-52147569D01*
X177205874Y-51990000D01*
X176794126Y-51990000D01*
X176413720Y-52147569D01*
X176122569Y-52438720D01*
X175965000Y-52819126D01*
X175965000Y-52982074D01*
X175925152Y-52990000D01*
X175925148Y-52990000D01*
X175703463Y-53034096D01*
X175452071Y-53202071D01*
X175409671Y-53265527D01*
X175210198Y-53465000D01*
X175044126Y-53465000D01*
X174663720Y-53622569D01*
X174372569Y-53913720D01*
X174215000Y-54294126D01*
X174215000Y-54705874D01*
X174372569Y-55086280D01*
X174663720Y-55377431D01*
X175044126Y-55535000D01*
X175455874Y-55535000D01*
X175836280Y-55377431D01*
X176127431Y-55086280D01*
X176285000Y-54705874D01*
X176285000Y-54539802D01*
X176314802Y-54510000D01*
X182229135Y-54510000D01*
X182215000Y-54544126D01*
X182215000Y-54955874D01*
X182372569Y-55336280D01*
X182490001Y-55453712D01*
X182490000Y-58240000D01*
X179074847Y-58240000D01*
X179000000Y-58225112D01*
X178925153Y-58240000D01*
X178925148Y-58240000D01*
X178703463Y-58284096D01*
X178452071Y-58452071D01*
X178409671Y-58515527D01*
X177654663Y-59270535D01*
X177785000Y-58955874D01*
X177785000Y-58544126D01*
X177627431Y-58163720D01*
X177336280Y-57872569D01*
X176955874Y-57715000D01*
X176789802Y-57715000D01*
X172535000Y-53460199D01*
X172535000Y-53294126D01*
X172377431Y-52913720D01*
X172086280Y-52622569D01*
X171705874Y-52465000D01*
X171294126Y-52465000D01*
X170913720Y-52622569D01*
X170622569Y-52913720D01*
X170465000Y-53294126D01*
X170465000Y-53705874D01*
X170622569Y-54086280D01*
X170913720Y-54377431D01*
X171294126Y-54535000D01*
X171460199Y-54535000D01*
X175715000Y-58789802D01*
X175715000Y-58955874D01*
X175872569Y-59336280D01*
X176163720Y-59627431D01*
X176544126Y-59785000D01*
X176955874Y-59785000D01*
X177270535Y-59654663D01*
X176185199Y-60740000D01*
X174703711Y-60740000D01*
X174586280Y-60622569D01*
X174205874Y-60465000D01*
X173794126Y-60465000D01*
X173413720Y-60622569D01*
X173122569Y-60913720D01*
X172965000Y-61294126D01*
X172965000Y-61705874D01*
X173122569Y-62086280D01*
X173240001Y-62203712D01*
X173240000Y-68296289D01*
X173122569Y-68413720D01*
X172965000Y-68794126D01*
X172965000Y-69205874D01*
X173122569Y-69586280D01*
X173413720Y-69877431D01*
X173456138Y-69895001D01*
X172293862Y-69895001D01*
X172336280Y-69877431D01*
X172627431Y-69586280D01*
X172785000Y-69205874D01*
X172785000Y-68794126D01*
X172627431Y-68413720D01*
X172510000Y-68296289D01*
X172510000Y-63703711D01*
X172627431Y-63586280D01*
X172785000Y-63205874D01*
X172785000Y-62794126D01*
X172627431Y-62413720D01*
X172336280Y-62122569D01*
X171955874Y-61965000D01*
X171544126Y-61965000D01*
X171163720Y-62122569D01*
X170872569Y-62413720D01*
X170715000Y-62794126D01*
X170715000Y-63205874D01*
X170872569Y-63586280D01*
X170990001Y-63703712D01*
X170990000Y-68296289D01*
X170872569Y-68413720D01*
X170715000Y-68794126D01*
X170715000Y-69205874D01*
X170872569Y-69586280D01*
X171163720Y-69877431D01*
X171206138Y-69895001D01*
X143931543Y-69895001D01*
X144014092Y-69480000D01*
X143898839Y-68900582D01*
X143570625Y-68409375D01*
X143272239Y-68210000D01*
X143570625Y-68010625D01*
X143898839Y-67519418D01*
X144014092Y-66940000D01*
X143935349Y-66544126D01*
X157215000Y-66544126D01*
X157215000Y-66955874D01*
X157372569Y-67336280D01*
X157663720Y-67627431D01*
X158044126Y-67785000D01*
X158455874Y-67785000D01*
X158836280Y-67627431D01*
X158953711Y-67510000D01*
X162796289Y-67510000D01*
X162913720Y-67627431D01*
X163294126Y-67785000D01*
X163705874Y-67785000D01*
X164086280Y-67627431D01*
X164377431Y-67336280D01*
X164535000Y-66955874D01*
X164535000Y-66544126D01*
X164377431Y-66163720D01*
X164086280Y-65872569D01*
X163790372Y-65750000D01*
X166225112Y-65750000D01*
X166240001Y-65824852D01*
X166240000Y-67925153D01*
X166225112Y-68000000D01*
X166240000Y-68074847D01*
X166240000Y-68074851D01*
X166284096Y-68296536D01*
X166452071Y-68547929D01*
X166515530Y-68590331D01*
X167159671Y-69234473D01*
X167202071Y-69297929D01*
X167453463Y-69465904D01*
X167675148Y-69510000D01*
X167675152Y-69510000D01*
X167749999Y-69524888D01*
X167824846Y-69510000D01*
X168046289Y-69510000D01*
X168163720Y-69627431D01*
X168544126Y-69785000D01*
X168955874Y-69785000D01*
X169336280Y-69627431D01*
X169627431Y-69336280D01*
X169785000Y-68955874D01*
X169785000Y-68544126D01*
X169627431Y-68163720D01*
X169463711Y-68000000D01*
X169627431Y-67836280D01*
X169785000Y-67455874D01*
X169785000Y-67044126D01*
X169627431Y-66663720D01*
X169336280Y-66372569D01*
X168955874Y-66215000D01*
X168544126Y-66215000D01*
X168163720Y-66372569D01*
X167872569Y-66663720D01*
X167760000Y-66935486D01*
X167760000Y-66064801D01*
X167789801Y-66035000D01*
X167955874Y-66035000D01*
X168336280Y-65877431D01*
X168627431Y-65586280D01*
X168785000Y-65205874D01*
X168785000Y-64794126D01*
X168627431Y-64413720D01*
X168336280Y-64122569D01*
X167955874Y-63965000D01*
X167544126Y-63965000D01*
X167163720Y-64122569D01*
X166872569Y-64413720D01*
X166715000Y-64794126D01*
X166715000Y-64960199D01*
X166515528Y-65159671D01*
X166452072Y-65202071D01*
X166409672Y-65265527D01*
X166409671Y-65265528D01*
X166284097Y-65453463D01*
X166225112Y-65750000D01*
X163790372Y-65750000D01*
X163705874Y-65715000D01*
X163294126Y-65715000D01*
X162913720Y-65872569D01*
X162796289Y-65990000D01*
X158953711Y-65990000D01*
X158836280Y-65872569D01*
X158455874Y-65715000D01*
X158044126Y-65715000D01*
X157663720Y-65872569D01*
X157372569Y-66163720D01*
X157215000Y-66544126D01*
X143935349Y-66544126D01*
X143898839Y-66360582D01*
X143570625Y-65869375D01*
X143272239Y-65670000D01*
X143570625Y-65470625D01*
X143898839Y-64979418D01*
X143985423Y-64544126D01*
X147965000Y-64544126D01*
X147965000Y-64955874D01*
X148122569Y-65336280D01*
X148413720Y-65627431D01*
X148794126Y-65785000D01*
X149205874Y-65785000D01*
X149586280Y-65627431D01*
X149703711Y-65510000D01*
X159046289Y-65510000D01*
X159163720Y-65627431D01*
X159544126Y-65785000D01*
X159955874Y-65785000D01*
X160336280Y-65627431D01*
X160627431Y-65336280D01*
X160785000Y-64955874D01*
X160785000Y-64544126D01*
X160627431Y-64163720D01*
X160336280Y-63872569D01*
X159955874Y-63715000D01*
X159544126Y-63715000D01*
X159163720Y-63872569D01*
X159046289Y-63990000D01*
X149703711Y-63990000D01*
X149586280Y-63872569D01*
X149205874Y-63715000D01*
X148794126Y-63715000D01*
X148413720Y-63872569D01*
X148122569Y-64163720D01*
X147965000Y-64544126D01*
X143985423Y-64544126D01*
X144014092Y-64400000D01*
X143898839Y-63820582D01*
X143570625Y-63329375D01*
X143272239Y-63130000D01*
X143570625Y-62930625D01*
X143898839Y-62439418D01*
X144014092Y-61860000D01*
X143898839Y-61280582D01*
X143570625Y-60789375D01*
X143272239Y-60590000D01*
X143570625Y-60390625D01*
X143898839Y-59899418D01*
X144014092Y-59320000D01*
X143898839Y-58740582D01*
X143570625Y-58249375D01*
X143272239Y-58050000D01*
X143570625Y-57850625D01*
X143898839Y-57359418D01*
X144014092Y-56780000D01*
X143898839Y-56200582D01*
X143570625Y-55709375D01*
X143251522Y-55496157D01*
X143381358Y-55435183D01*
X143771645Y-55006924D01*
X143941476Y-54596890D01*
X143820155Y-54367000D01*
X142627000Y-54367000D01*
X142627000Y-54387000D01*
X142373000Y-54387000D01*
X142373000Y-54367000D01*
X142353000Y-54367000D01*
X142353000Y-54113000D01*
X142373000Y-54113000D01*
X142373000Y-52919181D01*
X142627000Y-52919181D01*
X142627000Y-54113000D01*
X143820155Y-54113000D01*
X143856502Y-54044126D01*
X157965000Y-54044126D01*
X157965000Y-54455874D01*
X158122569Y-54836280D01*
X158240000Y-54953711D01*
X158240001Y-59046288D01*
X158122569Y-59163720D01*
X157965000Y-59544126D01*
X157965000Y-59955874D01*
X158122569Y-60336280D01*
X158413720Y-60627431D01*
X158794126Y-60785000D01*
X159205874Y-60785000D01*
X159586280Y-60627431D01*
X159877431Y-60336280D01*
X160035000Y-59955874D01*
X160035000Y-59544126D01*
X159877431Y-59163720D01*
X159760000Y-59046289D01*
X159760000Y-54953711D01*
X159877431Y-54836280D01*
X160035000Y-54455874D01*
X160035000Y-54044126D01*
X159877431Y-53663720D01*
X159586280Y-53372569D01*
X159205874Y-53215000D01*
X158794126Y-53215000D01*
X158413720Y-53372569D01*
X158122569Y-53663720D01*
X157965000Y-54044126D01*
X143856502Y-54044126D01*
X143941476Y-53883110D01*
X143771645Y-53473076D01*
X143381358Y-53044817D01*
X142856892Y-52798514D01*
X142627000Y-52919181D01*
X142373000Y-52919181D01*
X142143108Y-52798514D01*
X141618642Y-53044817D01*
X141231353Y-53469786D01*
X141030625Y-53169375D01*
X140605028Y-52885000D01*
X141723046Y-52885000D01*
X143059062Y-52331604D01*
X143846540Y-51544126D01*
X163715000Y-51544126D01*
X163715000Y-51955874D01*
X163872569Y-52336280D01*
X163990001Y-52453712D01*
X163990000Y-56796289D01*
X163872569Y-56913720D01*
X163715000Y-57294126D01*
X163715000Y-57705874D01*
X163872569Y-58086280D01*
X164163720Y-58377431D01*
X164544126Y-58535000D01*
X164955874Y-58535000D01*
X165336280Y-58377431D01*
X165627431Y-58086280D01*
X165785000Y-57705874D01*
X165785000Y-57294126D01*
X165627431Y-56913720D01*
X165510000Y-56796289D01*
X165510000Y-52453711D01*
X165627431Y-52336280D01*
X165785000Y-51955874D01*
X165785000Y-51544126D01*
X165627431Y-51163720D01*
X165336280Y-50872569D01*
X164955874Y-50715000D01*
X164544126Y-50715000D01*
X164163720Y-50872569D01*
X163872569Y-51163720D01*
X163715000Y-51544126D01*
X143846540Y-51544126D01*
X144081604Y-51309062D01*
X144635000Y-49973046D01*
X144635000Y-48526954D01*
X144081604Y-47190938D01*
X143350666Y-46460000D01*
X187649334Y-46460000D01*
X186918396Y-47190938D01*
G36*
X138940938Y-52331604D02*
X139963106Y-52755000D01*
X139813744Y-52755000D01*
X139380582Y-52841161D01*
X138889375Y-53169375D01*
X138561161Y-53660582D01*
X138445908Y-54240000D01*
X138561161Y-54819418D01*
X138889375Y-55310625D01*
X139187761Y-55510000D01*
X138889375Y-55709375D01*
X138561161Y-56200582D01*
X138445908Y-56780000D01*
X138561161Y-57359418D01*
X138889375Y-57850625D01*
X139187761Y-58050000D01*
X138889375Y-58249375D01*
X138561161Y-58740582D01*
X138445908Y-59320000D01*
X138561161Y-59899418D01*
X138889375Y-60390625D01*
X139208478Y-60603843D01*
X139078642Y-60664817D01*
X138688355Y-61093076D01*
X138518524Y-61503110D01*
X138639845Y-61733000D01*
X139833000Y-61733000D01*
X139833000Y-61713000D01*
X140087000Y-61713000D01*
X140087000Y-61733000D01*
X140107000Y-61733000D01*
X140107000Y-61987000D01*
X140087000Y-61987000D01*
X140087000Y-62007000D01*
X139833000Y-62007000D01*
X139833000Y-61987000D01*
X138639845Y-61987000D01*
X138518524Y-62216890D01*
X138688355Y-62626924D01*
X139078642Y-63055183D01*
X139208478Y-63116157D01*
X138889375Y-63329375D01*
X138561161Y-63820582D01*
X138445908Y-64400000D01*
X138561161Y-64979418D01*
X138889375Y-65470625D01*
X139208478Y-65683843D01*
X139078642Y-65744817D01*
X138688355Y-66173076D01*
X138518524Y-66583110D01*
X138639845Y-66813000D01*
X139833000Y-66813000D01*
X139833000Y-66793000D01*
X140087000Y-66793000D01*
X140087000Y-66813000D01*
X140107000Y-66813000D01*
X140107000Y-67067000D01*
X140087000Y-67067000D01*
X140087000Y-67087000D01*
X139833000Y-67087000D01*
X139833000Y-67067000D01*
X138639845Y-67067000D01*
X138518524Y-67296890D01*
X138688355Y-67706924D01*
X139078642Y-68135183D01*
X139208478Y-68196157D01*
X138889375Y-68409375D01*
X138561161Y-68900582D01*
X138445908Y-69480000D01*
X138561161Y-70059418D01*
X138889375Y-70550625D01*
X139187761Y-70750000D01*
X138889375Y-70949375D01*
X138561161Y-71440582D01*
X138445908Y-72020000D01*
X138561161Y-72599418D01*
X138889375Y-73090625D01*
X139187761Y-73290000D01*
X138889375Y-73489375D01*
X138561161Y-73980582D01*
X138445908Y-74560000D01*
X138561161Y-75139418D01*
X138889375Y-75630625D01*
X139187761Y-75830000D01*
X138889375Y-76029375D01*
X138561161Y-76520582D01*
X138445908Y-77100000D01*
X138561161Y-77679418D01*
X138889375Y-78170625D01*
X139208478Y-78383843D01*
X139078642Y-78444817D01*
X138688355Y-78873076D01*
X138518524Y-79283110D01*
X138639845Y-79513000D01*
X139833000Y-79513000D01*
X139833000Y-79493000D01*
X140087000Y-79493000D01*
X140087000Y-79513000D01*
X140107000Y-79513000D01*
X140107000Y-79767000D01*
X140087000Y-79767000D01*
X140087000Y-79787000D01*
X139833000Y-79787000D01*
X139833000Y-79767000D01*
X138639845Y-79767000D01*
X138518524Y-79996890D01*
X138688355Y-80406924D01*
X139078642Y-80835183D01*
X139208478Y-80896157D01*
X138889375Y-81109375D01*
X138561161Y-81600582D01*
X138445908Y-82180000D01*
X138561161Y-82759418D01*
X138889375Y-83250625D01*
X139187761Y-83450000D01*
X138889375Y-83649375D01*
X138561161Y-84140582D01*
X138445908Y-84720000D01*
X138561161Y-85299418D01*
X138889375Y-85790625D01*
X139187761Y-85990000D01*
X138889375Y-86189375D01*
X138561161Y-86680582D01*
X138445908Y-87260000D01*
X138561161Y-87839418D01*
X138889375Y-88330625D01*
X139187761Y-88530000D01*
X138889375Y-88729375D01*
X138561161Y-89220582D01*
X138445908Y-89800000D01*
X138561161Y-90379418D01*
X138889375Y-90870625D01*
X139187761Y-91070000D01*
X138889375Y-91269375D01*
X138561161Y-91760582D01*
X138445908Y-92340000D01*
X138561161Y-92919418D01*
X138889375Y-93410625D01*
X139187761Y-93610000D01*
X138889375Y-93809375D01*
X138561161Y-94300582D01*
X138445908Y-94880000D01*
X138561161Y-95459418D01*
X138889375Y-95950625D01*
X139208478Y-96163843D01*
X139078642Y-96224817D01*
X138688355Y-96653076D01*
X138518524Y-97063110D01*
X138639845Y-97293000D01*
X139833000Y-97293000D01*
X139833000Y-97273000D01*
X140087000Y-97273000D01*
X140087000Y-97293000D01*
X140107000Y-97293000D01*
X140107000Y-97547000D01*
X140087000Y-97547000D01*
X140087000Y-97567000D01*
X139833000Y-97567000D01*
X139833000Y-97547000D01*
X138639845Y-97547000D01*
X138518524Y-97776890D01*
X138688355Y-98186924D01*
X139078642Y-98615183D01*
X139208478Y-98676157D01*
X138889375Y-98889375D01*
X138561161Y-99380582D01*
X138445908Y-99960000D01*
X138561161Y-100539418D01*
X138889375Y-101030625D01*
X139187761Y-101230000D01*
X138889375Y-101429375D01*
X138561161Y-101920582D01*
X138445908Y-102500000D01*
X138561161Y-103079418D01*
X138889375Y-103570625D01*
X139380582Y-103898839D01*
X139523213Y-103927210D01*
X138940938Y-104168396D01*
X138210000Y-104899334D01*
X138210000Y-51600666D01*
X138940938Y-52331604D01*
X138940938Y-52331604D01*
G37*
X138940938Y-52331604D02*
X139963106Y-52755000D01*
X139813744Y-52755000D01*
X139380582Y-52841161D01*
X138889375Y-53169375D01*
X138561161Y-53660582D01*
X138445908Y-54240000D01*
X138561161Y-54819418D01*
X138889375Y-55310625D01*
X139187761Y-55510000D01*
X138889375Y-55709375D01*
X138561161Y-56200582D01*
X138445908Y-56780000D01*
X138561161Y-57359418D01*
X138889375Y-57850625D01*
X139187761Y-58050000D01*
X138889375Y-58249375D01*
X138561161Y-58740582D01*
X138445908Y-59320000D01*
X138561161Y-59899418D01*
X138889375Y-60390625D01*
X139208478Y-60603843D01*
X139078642Y-60664817D01*
X138688355Y-61093076D01*
X138518524Y-61503110D01*
X138639845Y-61733000D01*
X139833000Y-61733000D01*
X139833000Y-61713000D01*
X140087000Y-61713000D01*
X140087000Y-61733000D01*
X140107000Y-61733000D01*
X140107000Y-61987000D01*
X140087000Y-61987000D01*
X140087000Y-62007000D01*
X139833000Y-62007000D01*
X139833000Y-61987000D01*
X138639845Y-61987000D01*
X138518524Y-62216890D01*
X138688355Y-62626924D01*
X139078642Y-63055183D01*
X139208478Y-63116157D01*
X138889375Y-63329375D01*
X138561161Y-63820582D01*
X138445908Y-64400000D01*
X138561161Y-64979418D01*
X138889375Y-65470625D01*
X139208478Y-65683843D01*
X139078642Y-65744817D01*
X138688355Y-66173076D01*
X138518524Y-66583110D01*
X138639845Y-66813000D01*
X139833000Y-66813000D01*
X139833000Y-66793000D01*
X140087000Y-66793000D01*
X140087000Y-66813000D01*
X140107000Y-66813000D01*
X140107000Y-67067000D01*
X140087000Y-67067000D01*
X140087000Y-67087000D01*
X139833000Y-67087000D01*
X139833000Y-67067000D01*
X138639845Y-67067000D01*
X138518524Y-67296890D01*
X138688355Y-67706924D01*
X139078642Y-68135183D01*
X139208478Y-68196157D01*
X138889375Y-68409375D01*
X138561161Y-68900582D01*
X138445908Y-69480000D01*
X138561161Y-70059418D01*
X138889375Y-70550625D01*
X139187761Y-70750000D01*
X138889375Y-70949375D01*
X138561161Y-71440582D01*
X138445908Y-72020000D01*
X138561161Y-72599418D01*
X138889375Y-73090625D01*
X139187761Y-73290000D01*
X138889375Y-73489375D01*
X138561161Y-73980582D01*
X138445908Y-74560000D01*
X138561161Y-75139418D01*
X138889375Y-75630625D01*
X139187761Y-75830000D01*
X138889375Y-76029375D01*
X138561161Y-76520582D01*
X138445908Y-77100000D01*
X138561161Y-77679418D01*
X138889375Y-78170625D01*
X139208478Y-78383843D01*
X139078642Y-78444817D01*
X138688355Y-78873076D01*
X138518524Y-79283110D01*
X138639845Y-79513000D01*
X139833000Y-79513000D01*
X139833000Y-79493000D01*
X140087000Y-79493000D01*
X140087000Y-79513000D01*
X140107000Y-79513000D01*
X140107000Y-79767000D01*
X140087000Y-79767000D01*
X140087000Y-79787000D01*
X139833000Y-79787000D01*
X139833000Y-79767000D01*
X138639845Y-79767000D01*
X138518524Y-79996890D01*
X138688355Y-80406924D01*
X139078642Y-80835183D01*
X139208478Y-80896157D01*
X138889375Y-81109375D01*
X138561161Y-81600582D01*
X138445908Y-82180000D01*
X138561161Y-82759418D01*
X138889375Y-83250625D01*
X139187761Y-83450000D01*
X138889375Y-83649375D01*
X138561161Y-84140582D01*
X138445908Y-84720000D01*
X138561161Y-85299418D01*
X138889375Y-85790625D01*
X139187761Y-85990000D01*
X138889375Y-86189375D01*
X138561161Y-86680582D01*
X138445908Y-87260000D01*
X138561161Y-87839418D01*
X138889375Y-88330625D01*
X139187761Y-88530000D01*
X138889375Y-88729375D01*
X138561161Y-89220582D01*
X138445908Y-89800000D01*
X138561161Y-90379418D01*
X138889375Y-90870625D01*
X139187761Y-91070000D01*
X138889375Y-91269375D01*
X138561161Y-91760582D01*
X138445908Y-92340000D01*
X138561161Y-92919418D01*
X138889375Y-93410625D01*
X139187761Y-93610000D01*
X138889375Y-93809375D01*
X138561161Y-94300582D01*
X138445908Y-94880000D01*
X138561161Y-95459418D01*
X138889375Y-95950625D01*
X139208478Y-96163843D01*
X139078642Y-96224817D01*
X138688355Y-96653076D01*
X138518524Y-97063110D01*
X138639845Y-97293000D01*
X139833000Y-97293000D01*
X139833000Y-97273000D01*
X140087000Y-97273000D01*
X140087000Y-97293000D01*
X140107000Y-97293000D01*
X140107000Y-97547000D01*
X140087000Y-97547000D01*
X140087000Y-97567000D01*
X139833000Y-97567000D01*
X139833000Y-97547000D01*
X138639845Y-97547000D01*
X138518524Y-97776890D01*
X138688355Y-98186924D01*
X139078642Y-98615183D01*
X139208478Y-98676157D01*
X138889375Y-98889375D01*
X138561161Y-99380582D01*
X138445908Y-99960000D01*
X138561161Y-100539418D01*
X138889375Y-101030625D01*
X139187761Y-101230000D01*
X138889375Y-101429375D01*
X138561161Y-101920582D01*
X138445908Y-102500000D01*
X138561161Y-103079418D01*
X138889375Y-103570625D01*
X139380582Y-103898839D01*
X139523213Y-103927210D01*
X138940938Y-104168396D01*
X138210000Y-104899334D01*
X138210000Y-51600666D01*
X138940938Y-52331604D01*
G36*
X186032969Y-59000000D02*
X186159864Y-59637945D01*
X186521231Y-60178769D01*
X187062055Y-60540136D01*
X187313199Y-60590092D01*
X187452071Y-60797929D01*
X187515530Y-60840331D01*
X187540199Y-60865000D01*
X187538969Y-60865000D01*
X187062055Y-60959864D01*
X186521231Y-61321231D01*
X186159864Y-61862055D01*
X186032969Y-62500000D01*
X186159864Y-63137945D01*
X186521231Y-63678769D01*
X187062055Y-64040136D01*
X187538969Y-64135000D01*
X188461031Y-64135000D01*
X188937945Y-64040136D01*
X189478769Y-63678769D01*
X189740001Y-63287808D01*
X189740000Y-64735198D01*
X189548944Y-64926255D01*
X189478769Y-64821231D01*
X188937945Y-64459864D01*
X188461031Y-64365000D01*
X187538969Y-64365000D01*
X187062055Y-64459864D01*
X186521231Y-64821231D01*
X186159864Y-65362055D01*
X186032969Y-66000000D01*
X186159864Y-66637945D01*
X186521231Y-67178769D01*
X187062055Y-67540136D01*
X187313199Y-67590092D01*
X187452071Y-67797929D01*
X187515530Y-67840331D01*
X187540199Y-67865000D01*
X187538969Y-67865000D01*
X187062055Y-67959864D01*
X186521231Y-68321231D01*
X186159864Y-68862055D01*
X186032969Y-69500000D01*
X186159864Y-70137945D01*
X186521231Y-70678769D01*
X187062055Y-71040136D01*
X187538969Y-71135000D01*
X188461031Y-71135000D01*
X188937945Y-71040136D01*
X189478769Y-70678769D01*
X189829324Y-70154127D01*
X189990001Y-70314804D01*
X189990000Y-73615199D01*
X189868774Y-73493972D01*
X189967031Y-73000000D01*
X189840136Y-72362055D01*
X189478769Y-71821231D01*
X188937945Y-71459864D01*
X188461031Y-71365000D01*
X187538969Y-71365000D01*
X187062055Y-71459864D01*
X186521231Y-71821231D01*
X186159864Y-72362055D01*
X186032969Y-73000000D01*
X186159864Y-73637945D01*
X186521231Y-74178769D01*
X187062055Y-74540136D01*
X187538969Y-74635000D01*
X188461031Y-74635000D01*
X188793972Y-74568774D01*
X189459671Y-75234473D01*
X189502071Y-75297929D01*
X189565527Y-75340329D01*
X189753462Y-75465904D01*
X189799750Y-75475111D01*
X189975148Y-75510000D01*
X189975152Y-75510000D01*
X189990001Y-75512954D01*
X189990000Y-76925148D01*
X189990000Y-77235198D01*
X188793972Y-78431226D01*
X188461031Y-78365000D01*
X187538969Y-78365000D01*
X187062055Y-78459864D01*
X186521231Y-78821231D01*
X186159864Y-79362055D01*
X186032969Y-80000000D01*
X186159864Y-80637945D01*
X186521231Y-81178769D01*
X187062055Y-81540136D01*
X187538969Y-81635000D01*
X188461031Y-81635000D01*
X188937945Y-81540136D01*
X189478769Y-81178769D01*
X189729188Y-80803990D01*
X190240001Y-81314803D01*
X190240000Y-85235198D01*
X189548944Y-85926255D01*
X189478769Y-85821231D01*
X188937945Y-85459864D01*
X188461031Y-85365000D01*
X187538969Y-85365000D01*
X187062055Y-85459864D01*
X186521231Y-85821231D01*
X186220920Y-86270678D01*
X186153463Y-86284096D01*
X185902071Y-86452071D01*
X185734096Y-86703463D01*
X185675111Y-87000000D01*
X185734096Y-87296537D01*
X185902071Y-87547929D01*
X186153463Y-87715904D01*
X186220920Y-87729322D01*
X186521231Y-88178769D01*
X187062055Y-88540136D01*
X187538969Y-88635000D01*
X188461031Y-88635000D01*
X188937945Y-88540136D01*
X189478769Y-88178769D01*
X189490001Y-88161959D01*
X189490001Y-89338040D01*
X189478769Y-89321231D01*
X188937945Y-88959864D01*
X188461031Y-88865000D01*
X187538969Y-88865000D01*
X187062055Y-88959864D01*
X186521231Y-89321231D01*
X186159864Y-89862055D01*
X186032969Y-90500000D01*
X186159864Y-91137945D01*
X186521231Y-91678769D01*
X187062055Y-92040136D01*
X187538969Y-92135000D01*
X188461031Y-92135000D01*
X188937945Y-92040136D01*
X189478769Y-91678769D01*
X189490000Y-91661960D01*
X189490000Y-92838040D01*
X189478769Y-92821231D01*
X188937945Y-92459864D01*
X188461031Y-92365000D01*
X187538969Y-92365000D01*
X187062055Y-92459864D01*
X186521231Y-92821231D01*
X186241419Y-93240000D01*
X170917311Y-93240000D01*
X171035000Y-92955874D01*
X171035000Y-92544126D01*
X170877431Y-92163720D01*
X170586280Y-91872569D01*
X170205874Y-91715000D01*
X169794126Y-91715000D01*
X169413720Y-91872569D01*
X169296289Y-91990000D01*
X163953711Y-91990000D01*
X163836280Y-91872569D01*
X163455874Y-91715000D01*
X163044126Y-91715000D01*
X162663720Y-91872569D01*
X162372569Y-92163720D01*
X162215000Y-92544126D01*
X162215000Y-92955874D01*
X162332689Y-93240000D01*
X160342383Y-93240000D01*
X160627431Y-92954952D01*
X160785000Y-92574546D01*
X160785000Y-92408473D01*
X162433474Y-90760000D01*
X171546289Y-90760000D01*
X171663720Y-90877431D01*
X172044126Y-91035000D01*
X172455874Y-91035000D01*
X172836280Y-90877431D01*
X173127431Y-90586280D01*
X173285000Y-90205874D01*
X173285000Y-89794126D01*
X173127431Y-89413720D01*
X172836280Y-89122569D01*
X172455874Y-88965000D01*
X172044126Y-88965000D01*
X171663720Y-89122569D01*
X171546289Y-89240000D01*
X162193518Y-89240000D01*
X162118671Y-89225112D01*
X162043824Y-89240000D01*
X162043820Y-89240000D01*
X161822135Y-89284096D01*
X161570743Y-89452071D01*
X161528343Y-89515527D01*
X159710199Y-91333672D01*
X159544126Y-91333672D01*
X159163720Y-91491241D01*
X158872569Y-91782392D01*
X158715000Y-92162798D01*
X158715000Y-92574546D01*
X158872569Y-92954952D01*
X159157617Y-93240000D01*
X158314802Y-93240000D01*
X157035000Y-91960199D01*
X157035000Y-91794126D01*
X156877431Y-91413720D01*
X156586280Y-91122569D01*
X156205874Y-90965000D01*
X155794126Y-90965000D01*
X155413720Y-91122569D01*
X155260000Y-91276289D01*
X155260000Y-84203711D01*
X155377431Y-84086280D01*
X155535000Y-83705874D01*
X155535000Y-83294126D01*
X155377431Y-82913720D01*
X155086280Y-82622569D01*
X154705874Y-82465000D01*
X154294126Y-82465000D01*
X154278547Y-82471453D01*
X154285000Y-82455874D01*
X154285000Y-82044126D01*
X154127431Y-81663720D01*
X154010000Y-81546289D01*
X154010000Y-72453711D01*
X154127431Y-72336280D01*
X154215000Y-72124869D01*
X154215000Y-72205874D01*
X154372569Y-72586280D01*
X154440011Y-72653722D01*
X154440010Y-73846279D01*
X154322579Y-73963710D01*
X154165010Y-74344116D01*
X154165010Y-74755864D01*
X154322579Y-75136270D01*
X154613730Y-75427421D01*
X154994136Y-75584990D01*
X155405884Y-75584990D01*
X155786290Y-75427421D01*
X156077441Y-75136270D01*
X156235010Y-74755864D01*
X156235010Y-74344116D01*
X156077441Y-73963710D01*
X155960010Y-73846279D01*
X155960010Y-72753701D01*
X156127431Y-72586280D01*
X156285000Y-72205874D01*
X156285000Y-71794126D01*
X156127962Y-71415001D01*
X171715000Y-71415001D01*
X171715000Y-71465000D01*
X171544126Y-71465000D01*
X171163720Y-71622569D01*
X170872569Y-71913720D01*
X170715000Y-72294126D01*
X170715000Y-72705874D01*
X170872569Y-73086280D01*
X171163720Y-73377431D01*
X171544126Y-73535000D01*
X171955874Y-73535000D01*
X171990000Y-73520864D01*
X171990001Y-78296288D01*
X171872569Y-78413720D01*
X171715000Y-78794126D01*
X171715000Y-79140199D01*
X171510000Y-78935199D01*
X171510000Y-75074848D01*
X171524888Y-75000000D01*
X171510000Y-74925152D01*
X171510000Y-74925148D01*
X171465904Y-74703463D01*
X171297929Y-74452071D01*
X171234473Y-74409671D01*
X169090331Y-72265530D01*
X169047929Y-72202071D01*
X168796537Y-72034096D01*
X168574852Y-71990000D01*
X168574847Y-71990000D01*
X168500000Y-71975112D01*
X168425153Y-71990000D01*
X164953711Y-71990000D01*
X164836280Y-71872569D01*
X164455874Y-71715000D01*
X164044126Y-71715000D01*
X163663720Y-71872569D01*
X163546289Y-71990000D01*
X158453711Y-71990000D01*
X158336280Y-71872569D01*
X157955874Y-71715000D01*
X157544126Y-71715000D01*
X157163720Y-71872569D01*
X156872569Y-72163720D01*
X156715000Y-72544126D01*
X156715000Y-72955874D01*
X156872569Y-73336280D01*
X157163720Y-73627431D01*
X157544126Y-73785000D01*
X157955874Y-73785000D01*
X158336280Y-73627431D01*
X158453711Y-73510000D01*
X163546289Y-73510000D01*
X163663720Y-73627431D01*
X164044126Y-73785000D01*
X164455874Y-73785000D01*
X164836280Y-73627431D01*
X164953711Y-73510000D01*
X166465000Y-73510000D01*
X166465000Y-73705874D01*
X166622569Y-74086280D01*
X166740000Y-74203711D01*
X166740001Y-75675148D01*
X166725112Y-75750000D01*
X166784097Y-76046537D01*
X166888022Y-76202071D01*
X166952072Y-76297929D01*
X166965000Y-76306567D01*
X166965000Y-76455874D01*
X167122569Y-76836280D01*
X167240001Y-76953712D01*
X167240000Y-79175153D01*
X167225112Y-79250000D01*
X167240000Y-79324847D01*
X167240000Y-79324851D01*
X167284096Y-79546536D01*
X167452071Y-79797929D01*
X167515530Y-79840331D01*
X168480744Y-80805545D01*
X168375000Y-80911289D01*
X168086280Y-80622569D01*
X167705874Y-80465000D01*
X167294126Y-80465000D01*
X166913720Y-80622569D01*
X166622569Y-80913720D01*
X166465000Y-81294126D01*
X166465000Y-81460198D01*
X165944455Y-81980744D01*
X165836280Y-81872569D01*
X165455874Y-81715000D01*
X165044126Y-81715000D01*
X164663720Y-81872569D01*
X164372569Y-82163720D01*
X164215000Y-82544126D01*
X164215000Y-82955874D01*
X164221453Y-82971453D01*
X164205874Y-82965000D01*
X163794126Y-82965000D01*
X163413720Y-83122569D01*
X163122569Y-83413720D01*
X162965000Y-83794126D01*
X162965000Y-84205874D01*
X163122569Y-84586280D01*
X163413720Y-84877431D01*
X163794126Y-85035000D01*
X164205874Y-85035000D01*
X164586280Y-84877431D01*
X164703711Y-84760000D01*
X166796289Y-84760000D01*
X166913720Y-84877431D01*
X167294126Y-85035000D01*
X167705874Y-85035000D01*
X168086280Y-84877431D01*
X168377431Y-84586280D01*
X168535000Y-84205874D01*
X168535000Y-83794126D01*
X168413170Y-83500000D01*
X186032969Y-83500000D01*
X186159864Y-84137945D01*
X186521231Y-84678769D01*
X187062055Y-85040136D01*
X187538969Y-85135000D01*
X188461031Y-85135000D01*
X188937945Y-85040136D01*
X189478769Y-84678769D01*
X189840136Y-84137945D01*
X189967031Y-83500000D01*
X189840136Y-82862055D01*
X189478769Y-82321231D01*
X188937945Y-81959864D01*
X188461031Y-81865000D01*
X187538969Y-81865000D01*
X187062055Y-81959864D01*
X186521231Y-82321231D01*
X186159864Y-82862055D01*
X186032969Y-83500000D01*
X168413170Y-83500000D01*
X168377431Y-83413720D01*
X168086280Y-83122569D01*
X167705874Y-82965000D01*
X167294126Y-82965000D01*
X166979464Y-83095337D01*
X167539802Y-82535000D01*
X167705874Y-82535000D01*
X168086280Y-82377431D01*
X168375000Y-82088711D01*
X168663720Y-82377431D01*
X169044126Y-82535000D01*
X169455874Y-82535000D01*
X169836280Y-82377431D01*
X170127431Y-82086280D01*
X170285000Y-81705874D01*
X170285000Y-81294126D01*
X170127431Y-80913720D01*
X170010000Y-80796289D01*
X170010000Y-80574847D01*
X170024888Y-80500000D01*
X170010000Y-80425153D01*
X170010000Y-80425148D01*
X169965904Y-80203463D01*
X169797929Y-79952071D01*
X169734473Y-79909671D01*
X168760000Y-78935199D01*
X168760000Y-76953711D01*
X168877431Y-76836280D01*
X169035000Y-76455874D01*
X169035000Y-76044126D01*
X168877431Y-75663720D01*
X168586280Y-75372569D01*
X168260000Y-75237420D01*
X168260000Y-74203711D01*
X168377431Y-74086280D01*
X168489916Y-73814717D01*
X169990000Y-75314802D01*
X169990001Y-79175148D01*
X169975112Y-79250000D01*
X169990001Y-79324851D01*
X169990001Y-79324852D01*
X170027426Y-79513000D01*
X170034097Y-79546537D01*
X170147265Y-79715904D01*
X170202072Y-79797929D01*
X170265528Y-79840329D01*
X171909671Y-81484473D01*
X171952071Y-81547929D01*
X172015527Y-81590329D01*
X172203462Y-81715904D01*
X172251605Y-81725480D01*
X172425148Y-81760000D01*
X172425152Y-81760000D01*
X172500000Y-81774888D01*
X172574848Y-81760000D01*
X177425153Y-81760000D01*
X177500000Y-81774888D01*
X177574847Y-81760000D01*
X177574852Y-81760000D01*
X177796537Y-81715904D01*
X178047929Y-81547929D01*
X178090331Y-81484470D01*
X179319473Y-80255329D01*
X179382929Y-80212929D01*
X179550904Y-79961537D01*
X179595000Y-79739852D01*
X179595000Y-79739848D01*
X179609888Y-79665001D01*
X179595000Y-79590154D01*
X179595000Y-78124511D01*
X179777765Y-78088157D01*
X179987809Y-77947809D01*
X180000000Y-77929564D01*
X180012191Y-77947809D01*
X180222235Y-78088157D01*
X180470000Y-78137440D01*
X181027639Y-78137440D01*
X181352462Y-78462263D01*
X181215000Y-78794126D01*
X181215000Y-79205874D01*
X181372569Y-79586280D01*
X181663720Y-79877431D01*
X182044126Y-80035000D01*
X182455874Y-80035000D01*
X182836280Y-79877431D01*
X183127431Y-79586280D01*
X183285000Y-79205874D01*
X183285000Y-78794126D01*
X183127431Y-78413720D01*
X183020545Y-78306834D01*
X183024888Y-78285000D01*
X183010000Y-78210152D01*
X183010000Y-78210148D01*
X182975056Y-78034473D01*
X182965904Y-77988462D01*
X182840329Y-77800527D01*
X182797929Y-77737071D01*
X182734473Y-77694671D01*
X182507440Y-77467638D01*
X182507440Y-76910000D01*
X182458157Y-76662235D01*
X182349755Y-76500000D01*
X186032969Y-76500000D01*
X186159864Y-77137945D01*
X186521231Y-77678769D01*
X187062055Y-78040136D01*
X187538969Y-78135000D01*
X188461031Y-78135000D01*
X188937945Y-78040136D01*
X189478769Y-77678769D01*
X189840136Y-77137945D01*
X189967031Y-76500000D01*
X189840136Y-75862055D01*
X189478769Y-75321231D01*
X188937945Y-74959864D01*
X188461031Y-74865000D01*
X187538969Y-74865000D01*
X187062055Y-74959864D01*
X186521231Y-75321231D01*
X186159864Y-75862055D01*
X186032969Y-76500000D01*
X182349755Y-76500000D01*
X182317809Y-76452191D01*
X182107765Y-76311843D01*
X181860000Y-76262560D01*
X180470000Y-76262560D01*
X180222235Y-76311843D01*
X180053703Y-76424453D01*
X180006250Y-76377000D01*
X179875279Y-76377000D01*
X179777765Y-76311843D01*
X179530000Y-76262560D01*
X178140000Y-76262560D01*
X177892235Y-76311843D01*
X177794721Y-76377000D01*
X177663750Y-76377000D01*
X177505000Y-76535750D01*
X177505000Y-76666309D01*
X177529343Y-76725078D01*
X177492560Y-76910000D01*
X177492560Y-77490000D01*
X177541843Y-77737765D01*
X177682191Y-77947809D01*
X177892235Y-78088157D01*
X178075001Y-78124511D01*
X178075000Y-79350198D01*
X177185199Y-80240000D01*
X172814802Y-80240000D01*
X172609802Y-80035000D01*
X172955874Y-80035000D01*
X173336280Y-79877431D01*
X173627431Y-79586280D01*
X173785000Y-79205874D01*
X173785000Y-78794126D01*
X173627431Y-78413720D01*
X173510000Y-78296289D01*
X173510000Y-77667311D01*
X173794126Y-77785000D01*
X174149806Y-77785000D01*
X174212648Y-77797500D01*
X174212652Y-77797500D01*
X174287499Y-77812388D01*
X174362346Y-77797500D01*
X175083661Y-77797500D01*
X175131261Y-77868739D01*
X175412273Y-78056505D01*
X175743750Y-78122440D01*
X176256250Y-78122440D01*
X176587727Y-78056505D01*
X176868739Y-77868739D01*
X177056505Y-77587727D01*
X177122440Y-77256250D01*
X177122440Y-76818750D01*
X177056505Y-76487273D01*
X176948057Y-76324969D01*
X177013327Y-76259698D01*
X177110000Y-76026309D01*
X177110000Y-75748250D01*
X176951250Y-75589500D01*
X176127000Y-75589500D01*
X176127000Y-75609500D01*
X175873000Y-75609500D01*
X175873000Y-75589500D01*
X175048750Y-75589500D01*
X174890000Y-75748250D01*
X174890000Y-76026309D01*
X174986673Y-76259698D01*
X175004475Y-76277500D01*
X174924560Y-76277500D01*
X174877431Y-76163720D01*
X174586280Y-75872569D01*
X174205874Y-75715000D01*
X173794126Y-75715000D01*
X173510000Y-75832689D01*
X173510000Y-74898691D01*
X174890000Y-74898691D01*
X174890000Y-75176750D01*
X175048750Y-75335500D01*
X175873000Y-75335500D01*
X175873000Y-74548750D01*
X176127000Y-74548750D01*
X176127000Y-75335500D01*
X176951250Y-75335500D01*
X177110000Y-75176750D01*
X177110000Y-74898691D01*
X177013327Y-74665302D01*
X176834699Y-74486673D01*
X176601310Y-74390000D01*
X176285750Y-74390000D01*
X176127000Y-74548750D01*
X175873000Y-74548750D01*
X175714250Y-74390000D01*
X175398690Y-74390000D01*
X175165301Y-74486673D01*
X174986673Y-74665302D01*
X174890000Y-74898691D01*
X173510000Y-74898691D01*
X173510000Y-72203711D01*
X173627431Y-72086280D01*
X173785000Y-71705874D01*
X173785000Y-71415001D01*
X174840200Y-71415001D01*
X177859148Y-74433951D01*
X177682191Y-74552191D01*
X177541843Y-74762235D01*
X177492560Y-75010000D01*
X177492560Y-75590000D01*
X177529343Y-75774922D01*
X177505000Y-75833691D01*
X177505000Y-75964250D01*
X177663750Y-76123000D01*
X177794721Y-76123000D01*
X177892235Y-76188157D01*
X178140000Y-76237440D01*
X179530000Y-76237440D01*
X179777765Y-76188157D01*
X179875279Y-76123000D01*
X180006250Y-76123000D01*
X180053703Y-76075547D01*
X180222235Y-76188157D01*
X180470000Y-76237440D01*
X181860000Y-76237440D01*
X182107765Y-76188157D01*
X182317809Y-76047809D01*
X182458157Y-75837765D01*
X182507440Y-75590000D01*
X182507440Y-75010000D01*
X182458157Y-74762235D01*
X182364911Y-74622684D01*
X182413005Y-74550706D01*
X182627431Y-74336280D01*
X182785000Y-73955874D01*
X182785000Y-73806568D01*
X182797929Y-73797929D01*
X182904827Y-73637945D01*
X182965904Y-73546538D01*
X182977274Y-73489375D01*
X183010000Y-73324852D01*
X183010000Y-73324848D01*
X183024888Y-73250000D01*
X183010000Y-73175152D01*
X183010000Y-66703711D01*
X183127431Y-66586280D01*
X183285000Y-66205874D01*
X183285000Y-65794126D01*
X183127431Y-65413720D01*
X182836280Y-65122569D01*
X182455874Y-64965000D01*
X182044126Y-64965000D01*
X181663720Y-65122569D01*
X181372569Y-65413720D01*
X181215000Y-65794126D01*
X181215000Y-66205874D01*
X181372569Y-66586280D01*
X181490000Y-66703711D01*
X181490001Y-72737419D01*
X181163720Y-72872569D01*
X180872569Y-73163720D01*
X180715000Y-73544126D01*
X180715000Y-73955874D01*
X180767523Y-74082676D01*
X180680528Y-74169671D01*
X180617072Y-74212071D01*
X180516518Y-74362560D01*
X180470000Y-74362560D01*
X180222235Y-74411843D01*
X180012191Y-74552191D01*
X180000000Y-74570436D01*
X179987809Y-74552191D01*
X179777765Y-74411843D01*
X179601574Y-74376797D01*
X179609888Y-74334999D01*
X179595000Y-74260152D01*
X179595000Y-74260148D01*
X179550904Y-74038463D01*
X179495720Y-73955874D01*
X179425329Y-73850526D01*
X179425327Y-73850524D01*
X179382929Y-73787071D01*
X179319476Y-73744673D01*
X175745332Y-70170531D01*
X175702930Y-70107072D01*
X175451538Y-69939097D01*
X175229853Y-69895001D01*
X175229848Y-69895001D01*
X175155001Y-69880113D01*
X175080154Y-69895001D01*
X174543862Y-69895001D01*
X174586280Y-69877431D01*
X174877431Y-69586280D01*
X175035000Y-69205874D01*
X175035000Y-68794126D01*
X174877431Y-68413720D01*
X174760000Y-68296289D01*
X174760000Y-62260000D01*
X176425153Y-62260000D01*
X176500000Y-62274888D01*
X176574847Y-62260000D01*
X176574852Y-62260000D01*
X176796537Y-62215904D01*
X177047929Y-62047929D01*
X177090331Y-61984470D01*
X179314802Y-59760000D01*
X182546289Y-59760000D01*
X182663720Y-59877431D01*
X182802818Y-59935047D01*
X182870398Y-60274794D01*
X183063584Y-60563916D01*
X183158744Y-60627500D01*
X183063584Y-60691084D01*
X182870398Y-60980206D01*
X182802560Y-61321250D01*
X182802560Y-61808750D01*
X182870398Y-62149794D01*
X183063584Y-62438916D01*
X183352706Y-62632102D01*
X183693750Y-62699940D01*
X184606250Y-62699940D01*
X184947294Y-62632102D01*
X185236416Y-62438916D01*
X185429602Y-62149794D01*
X185497440Y-61808750D01*
X185497440Y-61321250D01*
X185429602Y-60980206D01*
X185236416Y-60691084D01*
X185141256Y-60627500D01*
X185236416Y-60563916D01*
X185429602Y-60274794D01*
X185497440Y-59933750D01*
X185497440Y-59446250D01*
X185492647Y-59422154D01*
X186062310Y-58852491D01*
X186032969Y-59000000D01*
X186032969Y-59000000D01*
G37*
X186032969Y-59000000D02*
X186159864Y-59637945D01*
X186521231Y-60178769D01*
X187062055Y-60540136D01*
X187313199Y-60590092D01*
X187452071Y-60797929D01*
X187515530Y-60840331D01*
X187540199Y-60865000D01*
X187538969Y-60865000D01*
X187062055Y-60959864D01*
X186521231Y-61321231D01*
X186159864Y-61862055D01*
X186032969Y-62500000D01*
X186159864Y-63137945D01*
X186521231Y-63678769D01*
X187062055Y-64040136D01*
X187538969Y-64135000D01*
X188461031Y-64135000D01*
X188937945Y-64040136D01*
X189478769Y-63678769D01*
X189740001Y-63287808D01*
X189740000Y-64735198D01*
X189548944Y-64926255D01*
X189478769Y-64821231D01*
X188937945Y-64459864D01*
X188461031Y-64365000D01*
X187538969Y-64365000D01*
X187062055Y-64459864D01*
X186521231Y-64821231D01*
X186159864Y-65362055D01*
X186032969Y-66000000D01*
X186159864Y-66637945D01*
X186521231Y-67178769D01*
X187062055Y-67540136D01*
X187313199Y-67590092D01*
X187452071Y-67797929D01*
X187515530Y-67840331D01*
X187540199Y-67865000D01*
X187538969Y-67865000D01*
X187062055Y-67959864D01*
X186521231Y-68321231D01*
X186159864Y-68862055D01*
X186032969Y-69500000D01*
X186159864Y-70137945D01*
X186521231Y-70678769D01*
X187062055Y-71040136D01*
X187538969Y-71135000D01*
X188461031Y-71135000D01*
X188937945Y-71040136D01*
X189478769Y-70678769D01*
X189829324Y-70154127D01*
X189990001Y-70314804D01*
X189990000Y-73615199D01*
X189868774Y-73493972D01*
X189967031Y-73000000D01*
X189840136Y-72362055D01*
X189478769Y-71821231D01*
X188937945Y-71459864D01*
X188461031Y-71365000D01*
X187538969Y-71365000D01*
X187062055Y-71459864D01*
X186521231Y-71821231D01*
X186159864Y-72362055D01*
X186032969Y-73000000D01*
X186159864Y-73637945D01*
X186521231Y-74178769D01*
X187062055Y-74540136D01*
X187538969Y-74635000D01*
X188461031Y-74635000D01*
X188793972Y-74568774D01*
X189459671Y-75234473D01*
X189502071Y-75297929D01*
X189565527Y-75340329D01*
X189753462Y-75465904D01*
X189799750Y-75475111D01*
X189975148Y-75510000D01*
X189975152Y-75510000D01*
X189990001Y-75512954D01*
X189990000Y-76925148D01*
X189990000Y-77235198D01*
X188793972Y-78431226D01*
X188461031Y-78365000D01*
X187538969Y-78365000D01*
X187062055Y-78459864D01*
X186521231Y-78821231D01*
X186159864Y-79362055D01*
X186032969Y-80000000D01*
X186159864Y-80637945D01*
X186521231Y-81178769D01*
X187062055Y-81540136D01*
X187538969Y-81635000D01*
X188461031Y-81635000D01*
X188937945Y-81540136D01*
X189478769Y-81178769D01*
X189729188Y-80803990D01*
X190240001Y-81314803D01*
X190240000Y-85235198D01*
X189548944Y-85926255D01*
X189478769Y-85821231D01*
X188937945Y-85459864D01*
X188461031Y-85365000D01*
X187538969Y-85365000D01*
X187062055Y-85459864D01*
X186521231Y-85821231D01*
X186220920Y-86270678D01*
X186153463Y-86284096D01*
X185902071Y-86452071D01*
X185734096Y-86703463D01*
X185675111Y-87000000D01*
X185734096Y-87296537D01*
X185902071Y-87547929D01*
X186153463Y-87715904D01*
X186220920Y-87729322D01*
X186521231Y-88178769D01*
X187062055Y-88540136D01*
X187538969Y-88635000D01*
X188461031Y-88635000D01*
X188937945Y-88540136D01*
X189478769Y-88178769D01*
X189490001Y-88161959D01*
X189490001Y-89338040D01*
X189478769Y-89321231D01*
X188937945Y-88959864D01*
X188461031Y-88865000D01*
X187538969Y-88865000D01*
X187062055Y-88959864D01*
X186521231Y-89321231D01*
X186159864Y-89862055D01*
X186032969Y-90500000D01*
X186159864Y-91137945D01*
X186521231Y-91678769D01*
X187062055Y-92040136D01*
X187538969Y-92135000D01*
X188461031Y-92135000D01*
X188937945Y-92040136D01*
X189478769Y-91678769D01*
X189490000Y-91661960D01*
X189490000Y-92838040D01*
X189478769Y-92821231D01*
X188937945Y-92459864D01*
X188461031Y-92365000D01*
X187538969Y-92365000D01*
X187062055Y-92459864D01*
X186521231Y-92821231D01*
X186241419Y-93240000D01*
X170917311Y-93240000D01*
X171035000Y-92955874D01*
X171035000Y-92544126D01*
X170877431Y-92163720D01*
X170586280Y-91872569D01*
X170205874Y-91715000D01*
X169794126Y-91715000D01*
X169413720Y-91872569D01*
X169296289Y-91990000D01*
X163953711Y-91990000D01*
X163836280Y-91872569D01*
X163455874Y-91715000D01*
X163044126Y-91715000D01*
X162663720Y-91872569D01*
X162372569Y-92163720D01*
X162215000Y-92544126D01*
X162215000Y-92955874D01*
X162332689Y-93240000D01*
X160342383Y-93240000D01*
X160627431Y-92954952D01*
X160785000Y-92574546D01*
X160785000Y-92408473D01*
X162433474Y-90760000D01*
X171546289Y-90760000D01*
X171663720Y-90877431D01*
X172044126Y-91035000D01*
X172455874Y-91035000D01*
X172836280Y-90877431D01*
X173127431Y-90586280D01*
X173285000Y-90205874D01*
X173285000Y-89794126D01*
X173127431Y-89413720D01*
X172836280Y-89122569D01*
X172455874Y-88965000D01*
X172044126Y-88965000D01*
X171663720Y-89122569D01*
X171546289Y-89240000D01*
X162193518Y-89240000D01*
X162118671Y-89225112D01*
X162043824Y-89240000D01*
X162043820Y-89240000D01*
X161822135Y-89284096D01*
X161570743Y-89452071D01*
X161528343Y-89515527D01*
X159710199Y-91333672D01*
X159544126Y-91333672D01*
X159163720Y-91491241D01*
X158872569Y-91782392D01*
X158715000Y-92162798D01*
X158715000Y-92574546D01*
X158872569Y-92954952D01*
X159157617Y-93240000D01*
X158314802Y-93240000D01*
X157035000Y-91960199D01*
X157035000Y-91794126D01*
X156877431Y-91413720D01*
X156586280Y-91122569D01*
X156205874Y-90965000D01*
X155794126Y-90965000D01*
X155413720Y-91122569D01*
X155260000Y-91276289D01*
X155260000Y-84203711D01*
X155377431Y-84086280D01*
X155535000Y-83705874D01*
X155535000Y-83294126D01*
X155377431Y-82913720D01*
X155086280Y-82622569D01*
X154705874Y-82465000D01*
X154294126Y-82465000D01*
X154278547Y-82471453D01*
X154285000Y-82455874D01*
X154285000Y-82044126D01*
X154127431Y-81663720D01*
X154010000Y-81546289D01*
X154010000Y-72453711D01*
X154127431Y-72336280D01*
X154215000Y-72124869D01*
X154215000Y-72205874D01*
X154372569Y-72586280D01*
X154440011Y-72653722D01*
X154440010Y-73846279D01*
X154322579Y-73963710D01*
X154165010Y-74344116D01*
X154165010Y-74755864D01*
X154322579Y-75136270D01*
X154613730Y-75427421D01*
X154994136Y-75584990D01*
X155405884Y-75584990D01*
X155786290Y-75427421D01*
X156077441Y-75136270D01*
X156235010Y-74755864D01*
X156235010Y-74344116D01*
X156077441Y-73963710D01*
X155960010Y-73846279D01*
X155960010Y-72753701D01*
X156127431Y-72586280D01*
X156285000Y-72205874D01*
X156285000Y-71794126D01*
X156127962Y-71415001D01*
X171715000Y-71415001D01*
X171715000Y-71465000D01*
X171544126Y-71465000D01*
X171163720Y-71622569D01*
X170872569Y-71913720D01*
X170715000Y-72294126D01*
X170715000Y-72705874D01*
X170872569Y-73086280D01*
X171163720Y-73377431D01*
X171544126Y-73535000D01*
X171955874Y-73535000D01*
X171990000Y-73520864D01*
X171990001Y-78296288D01*
X171872569Y-78413720D01*
X171715000Y-78794126D01*
X171715000Y-79140199D01*
X171510000Y-78935199D01*
X171510000Y-75074848D01*
X171524888Y-75000000D01*
X171510000Y-74925152D01*
X171510000Y-74925148D01*
X171465904Y-74703463D01*
X171297929Y-74452071D01*
X171234473Y-74409671D01*
X169090331Y-72265530D01*
X169047929Y-72202071D01*
X168796537Y-72034096D01*
X168574852Y-71990000D01*
X168574847Y-71990000D01*
X168500000Y-71975112D01*
X168425153Y-71990000D01*
X164953711Y-71990000D01*
X164836280Y-71872569D01*
X164455874Y-71715000D01*
X164044126Y-71715000D01*
X163663720Y-71872569D01*
X163546289Y-71990000D01*
X158453711Y-71990000D01*
X158336280Y-71872569D01*
X157955874Y-71715000D01*
X157544126Y-71715000D01*
X157163720Y-71872569D01*
X156872569Y-72163720D01*
X156715000Y-72544126D01*
X156715000Y-72955874D01*
X156872569Y-73336280D01*
X157163720Y-73627431D01*
X157544126Y-73785000D01*
X157955874Y-73785000D01*
X158336280Y-73627431D01*
X158453711Y-73510000D01*
X163546289Y-73510000D01*
X163663720Y-73627431D01*
X164044126Y-73785000D01*
X164455874Y-73785000D01*
X164836280Y-73627431D01*
X164953711Y-73510000D01*
X166465000Y-73510000D01*
X166465000Y-73705874D01*
X166622569Y-74086280D01*
X166740000Y-74203711D01*
X166740001Y-75675148D01*
X166725112Y-75750000D01*
X166784097Y-76046537D01*
X166888022Y-76202071D01*
X166952072Y-76297929D01*
X166965000Y-76306567D01*
X166965000Y-76455874D01*
X167122569Y-76836280D01*
X167240001Y-76953712D01*
X167240000Y-79175153D01*
X167225112Y-79250000D01*
X167240000Y-79324847D01*
X167240000Y-79324851D01*
X167284096Y-79546536D01*
X167452071Y-79797929D01*
X167515530Y-79840331D01*
X168480744Y-80805545D01*
X168375000Y-80911289D01*
X168086280Y-80622569D01*
X167705874Y-80465000D01*
X167294126Y-80465000D01*
X166913720Y-80622569D01*
X166622569Y-80913720D01*
X166465000Y-81294126D01*
X166465000Y-81460198D01*
X165944455Y-81980744D01*
X165836280Y-81872569D01*
X165455874Y-81715000D01*
X165044126Y-81715000D01*
X164663720Y-81872569D01*
X164372569Y-82163720D01*
X164215000Y-82544126D01*
X164215000Y-82955874D01*
X164221453Y-82971453D01*
X164205874Y-82965000D01*
X163794126Y-82965000D01*
X163413720Y-83122569D01*
X163122569Y-83413720D01*
X162965000Y-83794126D01*
X162965000Y-84205874D01*
X163122569Y-84586280D01*
X163413720Y-84877431D01*
X163794126Y-85035000D01*
X164205874Y-85035000D01*
X164586280Y-84877431D01*
X164703711Y-84760000D01*
X166796289Y-84760000D01*
X166913720Y-84877431D01*
X167294126Y-85035000D01*
X167705874Y-85035000D01*
X168086280Y-84877431D01*
X168377431Y-84586280D01*
X168535000Y-84205874D01*
X168535000Y-83794126D01*
X168413170Y-83500000D01*
X186032969Y-83500000D01*
X186159864Y-84137945D01*
X186521231Y-84678769D01*
X187062055Y-85040136D01*
X187538969Y-85135000D01*
X188461031Y-85135000D01*
X188937945Y-85040136D01*
X189478769Y-84678769D01*
X189840136Y-84137945D01*
X189967031Y-83500000D01*
X189840136Y-82862055D01*
X189478769Y-82321231D01*
X188937945Y-81959864D01*
X188461031Y-81865000D01*
X187538969Y-81865000D01*
X187062055Y-81959864D01*
X186521231Y-82321231D01*
X186159864Y-82862055D01*
X186032969Y-83500000D01*
X168413170Y-83500000D01*
X168377431Y-83413720D01*
X168086280Y-83122569D01*
X167705874Y-82965000D01*
X167294126Y-82965000D01*
X166979464Y-83095337D01*
X167539802Y-82535000D01*
X167705874Y-82535000D01*
X168086280Y-82377431D01*
X168375000Y-82088711D01*
X168663720Y-82377431D01*
X169044126Y-82535000D01*
X169455874Y-82535000D01*
X169836280Y-82377431D01*
X170127431Y-82086280D01*
X170285000Y-81705874D01*
X170285000Y-81294126D01*
X170127431Y-80913720D01*
X170010000Y-80796289D01*
X170010000Y-80574847D01*
X170024888Y-80500000D01*
X170010000Y-80425153D01*
X170010000Y-80425148D01*
X169965904Y-80203463D01*
X169797929Y-79952071D01*
X169734473Y-79909671D01*
X168760000Y-78935199D01*
X168760000Y-76953711D01*
X168877431Y-76836280D01*
X169035000Y-76455874D01*
X169035000Y-76044126D01*
X168877431Y-75663720D01*
X168586280Y-75372569D01*
X168260000Y-75237420D01*
X168260000Y-74203711D01*
X168377431Y-74086280D01*
X168489916Y-73814717D01*
X169990000Y-75314802D01*
X169990001Y-79175148D01*
X169975112Y-79250000D01*
X169990001Y-79324851D01*
X169990001Y-79324852D01*
X170027426Y-79513000D01*
X170034097Y-79546537D01*
X170147265Y-79715904D01*
X170202072Y-79797929D01*
X170265528Y-79840329D01*
X171909671Y-81484473D01*
X171952071Y-81547929D01*
X172015527Y-81590329D01*
X172203462Y-81715904D01*
X172251605Y-81725480D01*
X172425148Y-81760000D01*
X172425152Y-81760000D01*
X172500000Y-81774888D01*
X172574848Y-81760000D01*
X177425153Y-81760000D01*
X177500000Y-81774888D01*
X177574847Y-81760000D01*
X177574852Y-81760000D01*
X177796537Y-81715904D01*
X178047929Y-81547929D01*
X178090331Y-81484470D01*
X179319473Y-80255329D01*
X179382929Y-80212929D01*
X179550904Y-79961537D01*
X179595000Y-79739852D01*
X179595000Y-79739848D01*
X179609888Y-79665001D01*
X179595000Y-79590154D01*
X179595000Y-78124511D01*
X179777765Y-78088157D01*
X179987809Y-77947809D01*
X180000000Y-77929564D01*
X180012191Y-77947809D01*
X180222235Y-78088157D01*
X180470000Y-78137440D01*
X181027639Y-78137440D01*
X181352462Y-78462263D01*
X181215000Y-78794126D01*
X181215000Y-79205874D01*
X181372569Y-79586280D01*
X181663720Y-79877431D01*
X182044126Y-80035000D01*
X182455874Y-80035000D01*
X182836280Y-79877431D01*
X183127431Y-79586280D01*
X183285000Y-79205874D01*
X183285000Y-78794126D01*
X183127431Y-78413720D01*
X183020545Y-78306834D01*
X183024888Y-78285000D01*
X183010000Y-78210152D01*
X183010000Y-78210148D01*
X182975056Y-78034473D01*
X182965904Y-77988462D01*
X182840329Y-77800527D01*
X182797929Y-77737071D01*
X182734473Y-77694671D01*
X182507440Y-77467638D01*
X182507440Y-76910000D01*
X182458157Y-76662235D01*
X182349755Y-76500000D01*
X186032969Y-76500000D01*
X186159864Y-77137945D01*
X186521231Y-77678769D01*
X187062055Y-78040136D01*
X187538969Y-78135000D01*
X188461031Y-78135000D01*
X188937945Y-78040136D01*
X189478769Y-77678769D01*
X189840136Y-77137945D01*
X189967031Y-76500000D01*
X189840136Y-75862055D01*
X189478769Y-75321231D01*
X188937945Y-74959864D01*
X188461031Y-74865000D01*
X187538969Y-74865000D01*
X187062055Y-74959864D01*
X186521231Y-75321231D01*
X186159864Y-75862055D01*
X186032969Y-76500000D01*
X182349755Y-76500000D01*
X182317809Y-76452191D01*
X182107765Y-76311843D01*
X181860000Y-76262560D01*
X180470000Y-76262560D01*
X180222235Y-76311843D01*
X180053703Y-76424453D01*
X180006250Y-76377000D01*
X179875279Y-76377000D01*
X179777765Y-76311843D01*
X179530000Y-76262560D01*
X178140000Y-76262560D01*
X177892235Y-76311843D01*
X177794721Y-76377000D01*
X177663750Y-76377000D01*
X177505000Y-76535750D01*
X177505000Y-76666309D01*
X177529343Y-76725078D01*
X177492560Y-76910000D01*
X177492560Y-77490000D01*
X177541843Y-77737765D01*
X177682191Y-77947809D01*
X177892235Y-78088157D01*
X178075001Y-78124511D01*
X178075000Y-79350198D01*
X177185199Y-80240000D01*
X172814802Y-80240000D01*
X172609802Y-80035000D01*
X172955874Y-80035000D01*
X173336280Y-79877431D01*
X173627431Y-79586280D01*
X173785000Y-79205874D01*
X173785000Y-78794126D01*
X173627431Y-78413720D01*
X173510000Y-78296289D01*
X173510000Y-77667311D01*
X173794126Y-77785000D01*
X174149806Y-77785000D01*
X174212648Y-77797500D01*
X174212652Y-77797500D01*
X174287499Y-77812388D01*
X174362346Y-77797500D01*
X175083661Y-77797500D01*
X175131261Y-77868739D01*
X175412273Y-78056505D01*
X175743750Y-78122440D01*
X176256250Y-78122440D01*
X176587727Y-78056505D01*
X176868739Y-77868739D01*
X177056505Y-77587727D01*
X177122440Y-77256250D01*
X177122440Y-76818750D01*
X177056505Y-76487273D01*
X176948057Y-76324969D01*
X177013327Y-76259698D01*
X177110000Y-76026309D01*
X177110000Y-75748250D01*
X176951250Y-75589500D01*
X176127000Y-75589500D01*
X176127000Y-75609500D01*
X175873000Y-75609500D01*
X175873000Y-75589500D01*
X175048750Y-75589500D01*
X174890000Y-75748250D01*
X174890000Y-76026309D01*
X174986673Y-76259698D01*
X175004475Y-76277500D01*
X174924560Y-76277500D01*
X174877431Y-76163720D01*
X174586280Y-75872569D01*
X174205874Y-75715000D01*
X173794126Y-75715000D01*
X173510000Y-75832689D01*
X173510000Y-74898691D01*
X174890000Y-74898691D01*
X174890000Y-75176750D01*
X175048750Y-75335500D01*
X175873000Y-75335500D01*
X175873000Y-74548750D01*
X176127000Y-74548750D01*
X176127000Y-75335500D01*
X176951250Y-75335500D01*
X177110000Y-75176750D01*
X177110000Y-74898691D01*
X177013327Y-74665302D01*
X176834699Y-74486673D01*
X176601310Y-74390000D01*
X176285750Y-74390000D01*
X176127000Y-74548750D01*
X175873000Y-74548750D01*
X175714250Y-74390000D01*
X175398690Y-74390000D01*
X175165301Y-74486673D01*
X174986673Y-74665302D01*
X174890000Y-74898691D01*
X173510000Y-74898691D01*
X173510000Y-72203711D01*
X173627431Y-72086280D01*
X173785000Y-71705874D01*
X173785000Y-71415001D01*
X174840200Y-71415001D01*
X177859148Y-74433951D01*
X177682191Y-74552191D01*
X177541843Y-74762235D01*
X177492560Y-75010000D01*
X177492560Y-75590000D01*
X177529343Y-75774922D01*
X177505000Y-75833691D01*
X177505000Y-75964250D01*
X177663750Y-76123000D01*
X177794721Y-76123000D01*
X177892235Y-76188157D01*
X178140000Y-76237440D01*
X179530000Y-76237440D01*
X179777765Y-76188157D01*
X179875279Y-76123000D01*
X180006250Y-76123000D01*
X180053703Y-76075547D01*
X180222235Y-76188157D01*
X180470000Y-76237440D01*
X181860000Y-76237440D01*
X182107765Y-76188157D01*
X182317809Y-76047809D01*
X182458157Y-75837765D01*
X182507440Y-75590000D01*
X182507440Y-75010000D01*
X182458157Y-74762235D01*
X182364911Y-74622684D01*
X182413005Y-74550706D01*
X182627431Y-74336280D01*
X182785000Y-73955874D01*
X182785000Y-73806568D01*
X182797929Y-73797929D01*
X182904827Y-73637945D01*
X182965904Y-73546538D01*
X182977274Y-73489375D01*
X183010000Y-73324852D01*
X183010000Y-73324848D01*
X183024888Y-73250000D01*
X183010000Y-73175152D01*
X183010000Y-66703711D01*
X183127431Y-66586280D01*
X183285000Y-66205874D01*
X183285000Y-65794126D01*
X183127431Y-65413720D01*
X182836280Y-65122569D01*
X182455874Y-64965000D01*
X182044126Y-64965000D01*
X181663720Y-65122569D01*
X181372569Y-65413720D01*
X181215000Y-65794126D01*
X181215000Y-66205874D01*
X181372569Y-66586280D01*
X181490000Y-66703711D01*
X181490001Y-72737419D01*
X181163720Y-72872569D01*
X180872569Y-73163720D01*
X180715000Y-73544126D01*
X180715000Y-73955874D01*
X180767523Y-74082676D01*
X180680528Y-74169671D01*
X180617072Y-74212071D01*
X180516518Y-74362560D01*
X180470000Y-74362560D01*
X180222235Y-74411843D01*
X180012191Y-74552191D01*
X180000000Y-74570436D01*
X179987809Y-74552191D01*
X179777765Y-74411843D01*
X179601574Y-74376797D01*
X179609888Y-74334999D01*
X179595000Y-74260152D01*
X179595000Y-74260148D01*
X179550904Y-74038463D01*
X179495720Y-73955874D01*
X179425329Y-73850526D01*
X179425327Y-73850524D01*
X179382929Y-73787071D01*
X179319476Y-73744673D01*
X175745332Y-70170531D01*
X175702930Y-70107072D01*
X175451538Y-69939097D01*
X175229853Y-69895001D01*
X175229848Y-69895001D01*
X175155001Y-69880113D01*
X175080154Y-69895001D01*
X174543862Y-69895001D01*
X174586280Y-69877431D01*
X174877431Y-69586280D01*
X175035000Y-69205874D01*
X175035000Y-68794126D01*
X174877431Y-68413720D01*
X174760000Y-68296289D01*
X174760000Y-62260000D01*
X176425153Y-62260000D01*
X176500000Y-62274888D01*
X176574847Y-62260000D01*
X176574852Y-62260000D01*
X176796537Y-62215904D01*
X177047929Y-62047929D01*
X177090331Y-61984470D01*
X179314802Y-59760000D01*
X182546289Y-59760000D01*
X182663720Y-59877431D01*
X182802818Y-59935047D01*
X182870398Y-60274794D01*
X183063584Y-60563916D01*
X183158744Y-60627500D01*
X183063584Y-60691084D01*
X182870398Y-60980206D01*
X182802560Y-61321250D01*
X182802560Y-61808750D01*
X182870398Y-62149794D01*
X183063584Y-62438916D01*
X183352706Y-62632102D01*
X183693750Y-62699940D01*
X184606250Y-62699940D01*
X184947294Y-62632102D01*
X185236416Y-62438916D01*
X185429602Y-62149794D01*
X185497440Y-61808750D01*
X185497440Y-61321250D01*
X185429602Y-60980206D01*
X185236416Y-60691084D01*
X185141256Y-60627500D01*
X185236416Y-60563916D01*
X185429602Y-60274794D01*
X185497440Y-59933750D01*
X185497440Y-59446250D01*
X185492647Y-59422154D01*
X186062310Y-58852491D01*
X186032969Y-59000000D01*
G36*
X150215000Y-71544126D02*
X150215000Y-71955874D01*
X150372569Y-72336280D01*
X150490000Y-72453711D01*
X150490001Y-79296288D01*
X150372569Y-79413720D01*
X150322440Y-79534742D01*
X150322440Y-78793750D01*
X150254602Y-78452706D01*
X150061416Y-78163584D01*
X149772294Y-77970398D01*
X149431250Y-77902560D01*
X148943750Y-77902560D01*
X148602706Y-77970398D01*
X148313584Y-78163584D01*
X148250000Y-78258744D01*
X148186416Y-78163584D01*
X147897294Y-77970398D01*
X147556250Y-77902560D01*
X147068750Y-77902560D01*
X146727706Y-77970398D01*
X146438584Y-78163584D01*
X146245398Y-78452706D01*
X146177560Y-78793750D01*
X146177560Y-79706250D01*
X146245398Y-80047294D01*
X146438584Y-80336416D01*
X146552501Y-80412533D01*
X146552501Y-80733788D01*
X146372569Y-80913720D01*
X146215000Y-81294126D01*
X146215000Y-81705874D01*
X146372569Y-82086280D01*
X146663720Y-82377431D01*
X147044126Y-82535000D01*
X147455874Y-82535000D01*
X147836280Y-82377431D01*
X148127431Y-82086280D01*
X148285000Y-81705874D01*
X148285000Y-81294126D01*
X148127431Y-80913720D01*
X148072500Y-80858789D01*
X148072500Y-80412533D01*
X148186416Y-80336416D01*
X148250000Y-80241256D01*
X148313584Y-80336416D01*
X148427500Y-80412533D01*
X148427500Y-81362653D01*
X148412612Y-81437500D01*
X148427500Y-81512347D01*
X148427500Y-81512351D01*
X148471596Y-81734036D01*
X148639571Y-81985429D01*
X148703030Y-82027831D01*
X149980383Y-83305185D01*
X149815414Y-83415414D01*
X149750000Y-83513313D01*
X149684586Y-83415414D01*
X149393436Y-83220873D01*
X149050001Y-83152560D01*
X148399999Y-83152560D01*
X148056564Y-83220873D01*
X147765414Y-83415414D01*
X147570873Y-83706564D01*
X147564222Y-83740000D01*
X143631179Y-83740000D01*
X143570625Y-83649375D01*
X143272239Y-83450000D01*
X143570625Y-83250625D01*
X143898839Y-82759418D01*
X144014092Y-82180000D01*
X143898839Y-81600582D01*
X143570625Y-81109375D01*
X143272239Y-80910000D01*
X143570625Y-80710625D01*
X143898839Y-80219418D01*
X144014092Y-79640000D01*
X143898839Y-79060582D01*
X143570625Y-78569375D01*
X143272239Y-78370000D01*
X143570625Y-78170625D01*
X143898839Y-77679418D01*
X144014092Y-77100000D01*
X143898839Y-76520582D01*
X143570625Y-76029375D01*
X143272239Y-75830000D01*
X143570625Y-75630625D01*
X143898839Y-75139418D01*
X144014092Y-74560000D01*
X143898839Y-73980582D01*
X143570625Y-73489375D01*
X143251522Y-73276157D01*
X143381358Y-73215183D01*
X143771645Y-72786924D01*
X143941476Y-72376890D01*
X143820155Y-72147000D01*
X142627000Y-72147000D01*
X142627000Y-72167000D01*
X142373000Y-72167000D01*
X142373000Y-72147000D01*
X142353000Y-72147000D01*
X142353000Y-71893000D01*
X142373000Y-71893000D01*
X142373000Y-71873000D01*
X142627000Y-71873000D01*
X142627000Y-71893000D01*
X143820155Y-71893000D01*
X143941476Y-71663110D01*
X143838712Y-71415001D01*
X150268485Y-71415001D01*
X150215000Y-71544126D01*
X150215000Y-71544126D01*
G37*
X150215000Y-71544126D02*
X150215000Y-71955874D01*
X150372569Y-72336280D01*
X150490000Y-72453711D01*
X150490001Y-79296288D01*
X150372569Y-79413720D01*
X150322440Y-79534742D01*
X150322440Y-78793750D01*
X150254602Y-78452706D01*
X150061416Y-78163584D01*
X149772294Y-77970398D01*
X149431250Y-77902560D01*
X148943750Y-77902560D01*
X148602706Y-77970398D01*
X148313584Y-78163584D01*
X148250000Y-78258744D01*
X148186416Y-78163584D01*
X147897294Y-77970398D01*
X147556250Y-77902560D01*
X147068750Y-77902560D01*
X146727706Y-77970398D01*
X146438584Y-78163584D01*
X146245398Y-78452706D01*
X146177560Y-78793750D01*
X146177560Y-79706250D01*
X146245398Y-80047294D01*
X146438584Y-80336416D01*
X146552501Y-80412533D01*
X146552501Y-80733788D01*
X146372569Y-80913720D01*
X146215000Y-81294126D01*
X146215000Y-81705874D01*
X146372569Y-82086280D01*
X146663720Y-82377431D01*
X147044126Y-82535000D01*
X147455874Y-82535000D01*
X147836280Y-82377431D01*
X148127431Y-82086280D01*
X148285000Y-81705874D01*
X148285000Y-81294126D01*
X148127431Y-80913720D01*
X148072500Y-80858789D01*
X148072500Y-80412533D01*
X148186416Y-80336416D01*
X148250000Y-80241256D01*
X148313584Y-80336416D01*
X148427500Y-80412533D01*
X148427500Y-81362653D01*
X148412612Y-81437500D01*
X148427500Y-81512347D01*
X148427500Y-81512351D01*
X148471596Y-81734036D01*
X148639571Y-81985429D01*
X148703030Y-82027831D01*
X149980383Y-83305185D01*
X149815414Y-83415414D01*
X149750000Y-83513313D01*
X149684586Y-83415414D01*
X149393436Y-83220873D01*
X149050001Y-83152560D01*
X148399999Y-83152560D01*
X148056564Y-83220873D01*
X147765414Y-83415414D01*
X147570873Y-83706564D01*
X147564222Y-83740000D01*
X143631179Y-83740000D01*
X143570625Y-83649375D01*
X143272239Y-83450000D01*
X143570625Y-83250625D01*
X143898839Y-82759418D01*
X144014092Y-82180000D01*
X143898839Y-81600582D01*
X143570625Y-81109375D01*
X143272239Y-80910000D01*
X143570625Y-80710625D01*
X143898839Y-80219418D01*
X144014092Y-79640000D01*
X143898839Y-79060582D01*
X143570625Y-78569375D01*
X143272239Y-78370000D01*
X143570625Y-78170625D01*
X143898839Y-77679418D01*
X144014092Y-77100000D01*
X143898839Y-76520582D01*
X143570625Y-76029375D01*
X143272239Y-75830000D01*
X143570625Y-75630625D01*
X143898839Y-75139418D01*
X144014092Y-74560000D01*
X143898839Y-73980582D01*
X143570625Y-73489375D01*
X143251522Y-73276157D01*
X143381358Y-73215183D01*
X143771645Y-72786924D01*
X143941476Y-72376890D01*
X143820155Y-72147000D01*
X142627000Y-72147000D01*
X142627000Y-72167000D01*
X142373000Y-72167000D01*
X142373000Y-72147000D01*
X142353000Y-72147000D01*
X142353000Y-71893000D01*
X142373000Y-71893000D01*
X142373000Y-71873000D01*
X142627000Y-71873000D01*
X142627000Y-71893000D01*
X143820155Y-71893000D01*
X143941476Y-71663110D01*
X143838712Y-71415001D01*
X150268485Y-71415001D01*
X150215000Y-71544126D01*
G36*
X186159864Y-54862055D02*
X186032969Y-55500000D01*
X186159864Y-56137945D01*
X186347074Y-56418124D01*
X184210139Y-58555060D01*
X184185976Y-58555060D01*
X184127431Y-58413720D01*
X184010000Y-58296289D01*
X184010000Y-55453711D01*
X184127431Y-55336280D01*
X184285000Y-54955874D01*
X184285000Y-54544126D01*
X184270865Y-54510000D01*
X186395100Y-54510000D01*
X186159864Y-54862055D01*
X186159864Y-54862055D01*
G37*
X186159864Y-54862055D02*
X186032969Y-55500000D01*
X186159864Y-56137945D01*
X186347074Y-56418124D01*
X184210139Y-58555060D01*
X184185976Y-58555060D01*
X184127431Y-58413720D01*
X184010000Y-58296289D01*
X184010000Y-55453711D01*
X184127431Y-55336280D01*
X184285000Y-54955874D01*
X184285000Y-54544126D01*
X184270865Y-54510000D01*
X186395100Y-54510000D01*
X186159864Y-54862055D01*
G04 #@! TD*
M02*
