G04 #@! TF.GenerationSoftware,KiCad,Pcbnew,6.0.0-rc1-unknown-46fddab~66~ubuntu16.04.1*
G04 #@! TF.CreationDate,2018-09-28T18:46:46+01:00*
G04 #@! TF.ProjectId,test,746573742E6B696361645F7063620000,rev?*
G04 #@! TF.SameCoordinates,Original*
G04 #@! TF.FileFunction,Soldermask,Top*
G04 #@! TF.FilePolarity,Negative*
%FSLAX46Y46*%
G04 Gerber Fmt 4.6, Leading zero omitted, Abs format (unit mm)*
G04 Created by KiCad (PCBNEW 6.0.0-rc1-unknown-46fddab~66~ubuntu16.04.1) date Fri Sep 28 18:46:46 2018*
%MOMM*%
%LPD*%
G01*
G04 APERTURE LIST*
%ADD10R,2.900000X2.900000*%
%ADD11C,6.400000*%
%ADD12C,0.100000*%
%ADD13C,1.275000*%
%ADD14R,3.000000X2.400000*%
%ADD15O,3.000000X2.400000*%
%ADD16R,2.100000X2.100000*%
%ADD17O,2.100000X2.100000*%
%ADD18R,1.790000X0.980000*%
%ADD19C,1.550000*%
%ADD20C,1.375000*%
G04 APERTURE END LIST*
D10*
G04 #@! TO.C,K*
X177750000Y-105750000D03*
G04 #@! TD*
G04 #@! TO.C,5V*
X173250000Y-105750000D03*
G04 #@! TD*
D11*
G04 #@! TO.C,REF\002A\002A*
X141000000Y-49250000D03*
G04 #@! TD*
G04 #@! TO.C,REF\002A\002A*
X190000000Y-49250000D03*
G04 #@! TD*
G04 #@! TO.C,REF\002A\002A*
X190000000Y-107250000D03*
G04 #@! TD*
G04 #@! TO.C,REF\002A\002A*
X141000000Y-107250000D03*
G04 #@! TD*
D12*
G04 #@! TO.C,C4*
G36*
X176387493Y-74826535D02*
X176418435Y-74831125D01*
X176448778Y-74838725D01*
X176478230Y-74849263D01*
X176506508Y-74862638D01*
X176533338Y-74878719D01*
X176558463Y-74897353D01*
X176581640Y-74918360D01*
X176602647Y-74941537D01*
X176621281Y-74966662D01*
X176637362Y-74993492D01*
X176650737Y-75021770D01*
X176661275Y-75051222D01*
X176668875Y-75081565D01*
X176673465Y-75112507D01*
X176675000Y-75143750D01*
X176675000Y-75781250D01*
X176673465Y-75812493D01*
X176668875Y-75843435D01*
X176661275Y-75873778D01*
X176650737Y-75903230D01*
X176637362Y-75931508D01*
X176621281Y-75958338D01*
X176602647Y-75983463D01*
X176581640Y-76006640D01*
X176558463Y-76027647D01*
X176533338Y-76046281D01*
X176506508Y-76062362D01*
X176478230Y-76075737D01*
X176448778Y-76086275D01*
X176418435Y-76093875D01*
X176387493Y-76098465D01*
X176356250Y-76100000D01*
X175643750Y-76100000D01*
X175612507Y-76098465D01*
X175581565Y-76093875D01*
X175551222Y-76086275D01*
X175521770Y-76075737D01*
X175493492Y-76062362D01*
X175466662Y-76046281D01*
X175441537Y-76027647D01*
X175418360Y-76006640D01*
X175397353Y-75983463D01*
X175378719Y-75958338D01*
X175362638Y-75931508D01*
X175349263Y-75903230D01*
X175338725Y-75873778D01*
X175331125Y-75843435D01*
X175326535Y-75812493D01*
X175325000Y-75781250D01*
X175325000Y-75143750D01*
X175326535Y-75112507D01*
X175331125Y-75081565D01*
X175338725Y-75051222D01*
X175349263Y-75021770D01*
X175362638Y-74993492D01*
X175378719Y-74966662D01*
X175397353Y-74941537D01*
X175418360Y-74918360D01*
X175441537Y-74897353D01*
X175466662Y-74878719D01*
X175493492Y-74862638D01*
X175521770Y-74849263D01*
X175551222Y-74838725D01*
X175581565Y-74831125D01*
X175612507Y-74826535D01*
X175643750Y-74825000D01*
X176356250Y-74825000D01*
X176387493Y-74826535D01*
X176387493Y-74826535D01*
G37*
D13*
X176000000Y-75462500D03*
D12*
G36*
X176387493Y-76401535D02*
X176418435Y-76406125D01*
X176448778Y-76413725D01*
X176478230Y-76424263D01*
X176506508Y-76437638D01*
X176533338Y-76453719D01*
X176558463Y-76472353D01*
X176581640Y-76493360D01*
X176602647Y-76516537D01*
X176621281Y-76541662D01*
X176637362Y-76568492D01*
X176650737Y-76596770D01*
X176661275Y-76626222D01*
X176668875Y-76656565D01*
X176673465Y-76687507D01*
X176675000Y-76718750D01*
X176675000Y-77356250D01*
X176673465Y-77387493D01*
X176668875Y-77418435D01*
X176661275Y-77448778D01*
X176650737Y-77478230D01*
X176637362Y-77506508D01*
X176621281Y-77533338D01*
X176602647Y-77558463D01*
X176581640Y-77581640D01*
X176558463Y-77602647D01*
X176533338Y-77621281D01*
X176506508Y-77637362D01*
X176478230Y-77650737D01*
X176448778Y-77661275D01*
X176418435Y-77668875D01*
X176387493Y-77673465D01*
X176356250Y-77675000D01*
X175643750Y-77675000D01*
X175612507Y-77673465D01*
X175581565Y-77668875D01*
X175551222Y-77661275D01*
X175521770Y-77650737D01*
X175493492Y-77637362D01*
X175466662Y-77621281D01*
X175441537Y-77602647D01*
X175418360Y-77581640D01*
X175397353Y-77558463D01*
X175378719Y-77533338D01*
X175362638Y-77506508D01*
X175349263Y-77478230D01*
X175338725Y-77448778D01*
X175331125Y-77418435D01*
X175326535Y-77387493D01*
X175325000Y-77356250D01*
X175325000Y-76718750D01*
X175326535Y-76687507D01*
X175331125Y-76656565D01*
X175338725Y-76626222D01*
X175349263Y-76596770D01*
X175362638Y-76568492D01*
X175378719Y-76541662D01*
X175397353Y-76516537D01*
X175418360Y-76493360D01*
X175441537Y-76472353D01*
X175466662Y-76453719D01*
X175493492Y-76437638D01*
X175521770Y-76424263D01*
X175551222Y-76413725D01*
X175581565Y-76406125D01*
X175612507Y-76401535D01*
X175643750Y-76400000D01*
X176356250Y-76400000D01*
X176387493Y-76401535D01*
X176387493Y-76401535D01*
G37*
D13*
X176000000Y-77037500D03*
G04 #@! TD*
D14*
G04 #@! TO.C,J1*
X188000000Y-101000000D03*
D15*
X188000000Y-97500000D03*
X188000000Y-94000000D03*
X188000000Y-90500000D03*
X188000000Y-87000000D03*
X188000000Y-83500000D03*
X188000000Y-80000000D03*
X188000000Y-76500000D03*
X188000000Y-73000000D03*
X188000000Y-69500000D03*
X188000000Y-66000000D03*
X188000000Y-62500000D03*
X188000000Y-59000000D03*
X188000000Y-55500000D03*
G04 #@! TD*
D16*
G04 #@! TO.C,RASPI_2_3_HEADER1*
X142500000Y-102500000D03*
D17*
X139960000Y-102500000D03*
X142500000Y-99960000D03*
X139960000Y-99960000D03*
X142500000Y-97420000D03*
X139960000Y-97420000D03*
X142500000Y-94880000D03*
X139960000Y-94880000D03*
X142500000Y-92340000D03*
X139960000Y-92340000D03*
X142500000Y-89800000D03*
X139960000Y-89800000D03*
X142500000Y-87260000D03*
X139960000Y-87260000D03*
X142500000Y-84720000D03*
X139960000Y-84720000D03*
X142500000Y-82180000D03*
X139960000Y-82180000D03*
X142500000Y-79640000D03*
X139960000Y-79640000D03*
X142500000Y-77100000D03*
X139960000Y-77100000D03*
X142500000Y-74560000D03*
X139960000Y-74560000D03*
X142500000Y-72020000D03*
X139960000Y-72020000D03*
X142500000Y-69480000D03*
X139960000Y-69480000D03*
X142500000Y-66940000D03*
X139960000Y-66940000D03*
X142500000Y-64400000D03*
X139960000Y-64400000D03*
X142500000Y-61860000D03*
X139960000Y-61860000D03*
X142500000Y-59320000D03*
X139960000Y-59320000D03*
X142500000Y-56780000D03*
X139960000Y-56780000D03*
X142500000Y-54240000D03*
X139960000Y-54240000D03*
G04 #@! TD*
D18*
G04 #@! TO.C,U4*
X178835000Y-75300000D03*
X178835000Y-76250000D03*
X178835000Y-77200000D03*
X181165000Y-77200000D03*
X181165000Y-75300000D03*
G04 #@! TD*
D10*
G04 #@! TO.C,GND*
X168750000Y-105750000D03*
G04 #@! TD*
D12*
G04 #@! TO.C,D2*
G36*
X149196071Y-83601623D02*
X149228781Y-83606475D01*
X149260857Y-83614509D01*
X149291991Y-83625649D01*
X149321884Y-83639787D01*
X149350247Y-83656787D01*
X149376807Y-83676485D01*
X149401308Y-83698692D01*
X149423515Y-83723193D01*
X149443213Y-83749753D01*
X149460213Y-83778116D01*
X149474351Y-83808009D01*
X149485491Y-83839143D01*
X149493525Y-83871219D01*
X149498377Y-83903929D01*
X149500000Y-83936956D01*
X149500000Y-85063044D01*
X149498377Y-85096071D01*
X149493525Y-85128781D01*
X149485491Y-85160857D01*
X149474351Y-85191991D01*
X149460213Y-85221884D01*
X149443213Y-85250247D01*
X149423515Y-85276807D01*
X149401308Y-85301308D01*
X149376807Y-85323515D01*
X149350247Y-85343213D01*
X149321884Y-85360213D01*
X149291991Y-85374351D01*
X149260857Y-85385491D01*
X149228781Y-85393525D01*
X149196071Y-85398377D01*
X149163044Y-85400000D01*
X148286956Y-85400000D01*
X148253929Y-85398377D01*
X148221219Y-85393525D01*
X148189143Y-85385491D01*
X148158009Y-85374351D01*
X148128116Y-85360213D01*
X148099753Y-85343213D01*
X148073193Y-85323515D01*
X148048692Y-85301308D01*
X148026485Y-85276807D01*
X148006787Y-85250247D01*
X147989787Y-85221884D01*
X147975649Y-85191991D01*
X147964509Y-85160857D01*
X147956475Y-85128781D01*
X147951623Y-85096071D01*
X147950000Y-85063044D01*
X147950000Y-83936956D01*
X147951623Y-83903929D01*
X147956475Y-83871219D01*
X147964509Y-83839143D01*
X147975649Y-83808009D01*
X147989787Y-83778116D01*
X148006787Y-83749753D01*
X148026485Y-83723193D01*
X148048692Y-83698692D01*
X148073193Y-83676485D01*
X148099753Y-83656787D01*
X148128116Y-83639787D01*
X148158009Y-83625649D01*
X148189143Y-83614509D01*
X148221219Y-83606475D01*
X148253929Y-83601623D01*
X148286956Y-83600000D01*
X149163044Y-83600000D01*
X149196071Y-83601623D01*
X149196071Y-83601623D01*
G37*
D19*
X148725000Y-84500000D03*
D12*
G36*
X151246071Y-83601623D02*
X151278781Y-83606475D01*
X151310857Y-83614509D01*
X151341991Y-83625649D01*
X151371884Y-83639787D01*
X151400247Y-83656787D01*
X151426807Y-83676485D01*
X151451308Y-83698692D01*
X151473515Y-83723193D01*
X151493213Y-83749753D01*
X151510213Y-83778116D01*
X151524351Y-83808009D01*
X151535491Y-83839143D01*
X151543525Y-83871219D01*
X151548377Y-83903929D01*
X151550000Y-83936956D01*
X151550000Y-85063044D01*
X151548377Y-85096071D01*
X151543525Y-85128781D01*
X151535491Y-85160857D01*
X151524351Y-85191991D01*
X151510213Y-85221884D01*
X151493213Y-85250247D01*
X151473515Y-85276807D01*
X151451308Y-85301308D01*
X151426807Y-85323515D01*
X151400247Y-85343213D01*
X151371884Y-85360213D01*
X151341991Y-85374351D01*
X151310857Y-85385491D01*
X151278781Y-85393525D01*
X151246071Y-85398377D01*
X151213044Y-85400000D01*
X150336956Y-85400000D01*
X150303929Y-85398377D01*
X150271219Y-85393525D01*
X150239143Y-85385491D01*
X150208009Y-85374351D01*
X150178116Y-85360213D01*
X150149753Y-85343213D01*
X150123193Y-85323515D01*
X150098692Y-85301308D01*
X150076485Y-85276807D01*
X150056787Y-85250247D01*
X150039787Y-85221884D01*
X150025649Y-85191991D01*
X150014509Y-85160857D01*
X150006475Y-85128781D01*
X150001623Y-85096071D01*
X150000000Y-85063044D01*
X150000000Y-83936956D01*
X150001623Y-83903929D01*
X150006475Y-83871219D01*
X150014509Y-83839143D01*
X150025649Y-83808009D01*
X150039787Y-83778116D01*
X150056787Y-83749753D01*
X150076485Y-83723193D01*
X150098692Y-83698692D01*
X150123193Y-83676485D01*
X150149753Y-83656787D01*
X150178116Y-83639787D01*
X150208009Y-83625649D01*
X150239143Y-83614509D01*
X150271219Y-83606475D01*
X150303929Y-83601623D01*
X150336956Y-83600000D01*
X151213044Y-83600000D01*
X151246071Y-83601623D01*
X151246071Y-83601623D01*
G37*
D19*
X150775000Y-84500000D03*
G04 #@! TD*
D12*
G04 #@! TO.C,D3*
G36*
X151246071Y-88851623D02*
X151278781Y-88856475D01*
X151310857Y-88864509D01*
X151341991Y-88875649D01*
X151371884Y-88889787D01*
X151400247Y-88906787D01*
X151426807Y-88926485D01*
X151451308Y-88948692D01*
X151473515Y-88973193D01*
X151493213Y-88999753D01*
X151510213Y-89028116D01*
X151524351Y-89058009D01*
X151535491Y-89089143D01*
X151543525Y-89121219D01*
X151548377Y-89153929D01*
X151550000Y-89186956D01*
X151550000Y-90313044D01*
X151548377Y-90346071D01*
X151543525Y-90378781D01*
X151535491Y-90410857D01*
X151524351Y-90441991D01*
X151510213Y-90471884D01*
X151493213Y-90500247D01*
X151473515Y-90526807D01*
X151451308Y-90551308D01*
X151426807Y-90573515D01*
X151400247Y-90593213D01*
X151371884Y-90610213D01*
X151341991Y-90624351D01*
X151310857Y-90635491D01*
X151278781Y-90643525D01*
X151246071Y-90648377D01*
X151213044Y-90650000D01*
X150336956Y-90650000D01*
X150303929Y-90648377D01*
X150271219Y-90643525D01*
X150239143Y-90635491D01*
X150208009Y-90624351D01*
X150178116Y-90610213D01*
X150149753Y-90593213D01*
X150123193Y-90573515D01*
X150098692Y-90551308D01*
X150076485Y-90526807D01*
X150056787Y-90500247D01*
X150039787Y-90471884D01*
X150025649Y-90441991D01*
X150014509Y-90410857D01*
X150006475Y-90378781D01*
X150001623Y-90346071D01*
X150000000Y-90313044D01*
X150000000Y-89186956D01*
X150001623Y-89153929D01*
X150006475Y-89121219D01*
X150014509Y-89089143D01*
X150025649Y-89058009D01*
X150039787Y-89028116D01*
X150056787Y-88999753D01*
X150076485Y-88973193D01*
X150098692Y-88948692D01*
X150123193Y-88926485D01*
X150149753Y-88906787D01*
X150178116Y-88889787D01*
X150208009Y-88875649D01*
X150239143Y-88864509D01*
X150271219Y-88856475D01*
X150303929Y-88851623D01*
X150336956Y-88850000D01*
X151213044Y-88850000D01*
X151246071Y-88851623D01*
X151246071Y-88851623D01*
G37*
D19*
X150775000Y-89750000D03*
D12*
G36*
X149196071Y-88851623D02*
X149228781Y-88856475D01*
X149260857Y-88864509D01*
X149291991Y-88875649D01*
X149321884Y-88889787D01*
X149350247Y-88906787D01*
X149376807Y-88926485D01*
X149401308Y-88948692D01*
X149423515Y-88973193D01*
X149443213Y-88999753D01*
X149460213Y-89028116D01*
X149474351Y-89058009D01*
X149485491Y-89089143D01*
X149493525Y-89121219D01*
X149498377Y-89153929D01*
X149500000Y-89186956D01*
X149500000Y-90313044D01*
X149498377Y-90346071D01*
X149493525Y-90378781D01*
X149485491Y-90410857D01*
X149474351Y-90441991D01*
X149460213Y-90471884D01*
X149443213Y-90500247D01*
X149423515Y-90526807D01*
X149401308Y-90551308D01*
X149376807Y-90573515D01*
X149350247Y-90593213D01*
X149321884Y-90610213D01*
X149291991Y-90624351D01*
X149260857Y-90635491D01*
X149228781Y-90643525D01*
X149196071Y-90648377D01*
X149163044Y-90650000D01*
X148286956Y-90650000D01*
X148253929Y-90648377D01*
X148221219Y-90643525D01*
X148189143Y-90635491D01*
X148158009Y-90624351D01*
X148128116Y-90610213D01*
X148099753Y-90593213D01*
X148073193Y-90573515D01*
X148048692Y-90551308D01*
X148026485Y-90526807D01*
X148006787Y-90500247D01*
X147989787Y-90471884D01*
X147975649Y-90441991D01*
X147964509Y-90410857D01*
X147956475Y-90378781D01*
X147951623Y-90346071D01*
X147950000Y-90313044D01*
X147950000Y-89186956D01*
X147951623Y-89153929D01*
X147956475Y-89121219D01*
X147964509Y-89089143D01*
X147975649Y-89058009D01*
X147989787Y-89028116D01*
X148006787Y-88999753D01*
X148026485Y-88973193D01*
X148048692Y-88948692D01*
X148073193Y-88926485D01*
X148099753Y-88906787D01*
X148128116Y-88889787D01*
X148158009Y-88875649D01*
X148189143Y-88864509D01*
X148221219Y-88856475D01*
X148253929Y-88851623D01*
X148286956Y-88850000D01*
X149163044Y-88850000D01*
X149196071Y-88851623D01*
X149196071Y-88851623D01*
G37*
D19*
X148725000Y-89750000D03*
G04 #@! TD*
D12*
G04 #@! TO.C,R18*
G36*
X149564943Y-78351655D02*
X149598312Y-78356605D01*
X149631035Y-78364802D01*
X149662797Y-78376166D01*
X149693293Y-78390590D01*
X149722227Y-78407932D01*
X149749323Y-78428028D01*
X149774318Y-78450682D01*
X149796972Y-78475677D01*
X149817068Y-78502773D01*
X149834410Y-78531707D01*
X149848834Y-78562203D01*
X149860198Y-78593965D01*
X149868395Y-78626688D01*
X149873345Y-78660057D01*
X149875000Y-78693750D01*
X149875000Y-79806250D01*
X149873345Y-79839943D01*
X149868395Y-79873312D01*
X149860198Y-79906035D01*
X149848834Y-79937797D01*
X149834410Y-79968293D01*
X149817068Y-79997227D01*
X149796972Y-80024323D01*
X149774318Y-80049318D01*
X149749323Y-80071972D01*
X149722227Y-80092068D01*
X149693293Y-80109410D01*
X149662797Y-80123834D01*
X149631035Y-80135198D01*
X149598312Y-80143395D01*
X149564943Y-80148345D01*
X149531250Y-80150000D01*
X148843750Y-80150000D01*
X148810057Y-80148345D01*
X148776688Y-80143395D01*
X148743965Y-80135198D01*
X148712203Y-80123834D01*
X148681707Y-80109410D01*
X148652773Y-80092068D01*
X148625677Y-80071972D01*
X148600682Y-80049318D01*
X148578028Y-80024323D01*
X148557932Y-79997227D01*
X148540590Y-79968293D01*
X148526166Y-79937797D01*
X148514802Y-79906035D01*
X148506605Y-79873312D01*
X148501655Y-79839943D01*
X148500000Y-79806250D01*
X148500000Y-78693750D01*
X148501655Y-78660057D01*
X148506605Y-78626688D01*
X148514802Y-78593965D01*
X148526166Y-78562203D01*
X148540590Y-78531707D01*
X148557932Y-78502773D01*
X148578028Y-78475677D01*
X148600682Y-78450682D01*
X148625677Y-78428028D01*
X148652773Y-78407932D01*
X148681707Y-78390590D01*
X148712203Y-78376166D01*
X148743965Y-78364802D01*
X148776688Y-78356605D01*
X148810057Y-78351655D01*
X148843750Y-78350000D01*
X149531250Y-78350000D01*
X149564943Y-78351655D01*
X149564943Y-78351655D01*
G37*
D20*
X149187500Y-79250000D03*
D12*
G36*
X147689943Y-78351655D02*
X147723312Y-78356605D01*
X147756035Y-78364802D01*
X147787797Y-78376166D01*
X147818293Y-78390590D01*
X147847227Y-78407932D01*
X147874323Y-78428028D01*
X147899318Y-78450682D01*
X147921972Y-78475677D01*
X147942068Y-78502773D01*
X147959410Y-78531707D01*
X147973834Y-78562203D01*
X147985198Y-78593965D01*
X147993395Y-78626688D01*
X147998345Y-78660057D01*
X148000000Y-78693750D01*
X148000000Y-79806250D01*
X147998345Y-79839943D01*
X147993395Y-79873312D01*
X147985198Y-79906035D01*
X147973834Y-79937797D01*
X147959410Y-79968293D01*
X147942068Y-79997227D01*
X147921972Y-80024323D01*
X147899318Y-80049318D01*
X147874323Y-80071972D01*
X147847227Y-80092068D01*
X147818293Y-80109410D01*
X147787797Y-80123834D01*
X147756035Y-80135198D01*
X147723312Y-80143395D01*
X147689943Y-80148345D01*
X147656250Y-80150000D01*
X146968750Y-80150000D01*
X146935057Y-80148345D01*
X146901688Y-80143395D01*
X146868965Y-80135198D01*
X146837203Y-80123834D01*
X146806707Y-80109410D01*
X146777773Y-80092068D01*
X146750677Y-80071972D01*
X146725682Y-80049318D01*
X146703028Y-80024323D01*
X146682932Y-79997227D01*
X146665590Y-79968293D01*
X146651166Y-79937797D01*
X146639802Y-79906035D01*
X146631605Y-79873312D01*
X146626655Y-79839943D01*
X146625000Y-79806250D01*
X146625000Y-78693750D01*
X146626655Y-78660057D01*
X146631605Y-78626688D01*
X146639802Y-78593965D01*
X146651166Y-78562203D01*
X146665590Y-78531707D01*
X146682932Y-78502773D01*
X146703028Y-78475677D01*
X146725682Y-78450682D01*
X146750677Y-78428028D01*
X146777773Y-78407932D01*
X146806707Y-78390590D01*
X146837203Y-78376166D01*
X146868965Y-78364802D01*
X146901688Y-78356605D01*
X146935057Y-78351655D01*
X146968750Y-78350000D01*
X147656250Y-78350000D01*
X147689943Y-78351655D01*
X147689943Y-78351655D01*
G37*
D20*
X147312500Y-79250000D03*
G04 #@! TD*
D12*
G04 #@! TO.C,R19*
G36*
X149439943Y-92601655D02*
X149473312Y-92606605D01*
X149506035Y-92614802D01*
X149537797Y-92626166D01*
X149568293Y-92640590D01*
X149597227Y-92657932D01*
X149624323Y-92678028D01*
X149649318Y-92700682D01*
X149671972Y-92725677D01*
X149692068Y-92752773D01*
X149709410Y-92781707D01*
X149723834Y-92812203D01*
X149735198Y-92843965D01*
X149743395Y-92876688D01*
X149748345Y-92910057D01*
X149750000Y-92943750D01*
X149750000Y-94056250D01*
X149748345Y-94089943D01*
X149743395Y-94123312D01*
X149735198Y-94156035D01*
X149723834Y-94187797D01*
X149709410Y-94218293D01*
X149692068Y-94247227D01*
X149671972Y-94274323D01*
X149649318Y-94299318D01*
X149624323Y-94321972D01*
X149597227Y-94342068D01*
X149568293Y-94359410D01*
X149537797Y-94373834D01*
X149506035Y-94385198D01*
X149473312Y-94393395D01*
X149439943Y-94398345D01*
X149406250Y-94400000D01*
X148718750Y-94400000D01*
X148685057Y-94398345D01*
X148651688Y-94393395D01*
X148618965Y-94385198D01*
X148587203Y-94373834D01*
X148556707Y-94359410D01*
X148527773Y-94342068D01*
X148500677Y-94321972D01*
X148475682Y-94299318D01*
X148453028Y-94274323D01*
X148432932Y-94247227D01*
X148415590Y-94218293D01*
X148401166Y-94187797D01*
X148389802Y-94156035D01*
X148381605Y-94123312D01*
X148376655Y-94089943D01*
X148375000Y-94056250D01*
X148375000Y-92943750D01*
X148376655Y-92910057D01*
X148381605Y-92876688D01*
X148389802Y-92843965D01*
X148401166Y-92812203D01*
X148415590Y-92781707D01*
X148432932Y-92752773D01*
X148453028Y-92725677D01*
X148475682Y-92700682D01*
X148500677Y-92678028D01*
X148527773Y-92657932D01*
X148556707Y-92640590D01*
X148587203Y-92626166D01*
X148618965Y-92614802D01*
X148651688Y-92606605D01*
X148685057Y-92601655D01*
X148718750Y-92600000D01*
X149406250Y-92600000D01*
X149439943Y-92601655D01*
X149439943Y-92601655D01*
G37*
D20*
X149062500Y-93500000D03*
D12*
G36*
X151314943Y-92601655D02*
X151348312Y-92606605D01*
X151381035Y-92614802D01*
X151412797Y-92626166D01*
X151443293Y-92640590D01*
X151472227Y-92657932D01*
X151499323Y-92678028D01*
X151524318Y-92700682D01*
X151546972Y-92725677D01*
X151567068Y-92752773D01*
X151584410Y-92781707D01*
X151598834Y-92812203D01*
X151610198Y-92843965D01*
X151618395Y-92876688D01*
X151623345Y-92910057D01*
X151625000Y-92943750D01*
X151625000Y-94056250D01*
X151623345Y-94089943D01*
X151618395Y-94123312D01*
X151610198Y-94156035D01*
X151598834Y-94187797D01*
X151584410Y-94218293D01*
X151567068Y-94247227D01*
X151546972Y-94274323D01*
X151524318Y-94299318D01*
X151499323Y-94321972D01*
X151472227Y-94342068D01*
X151443293Y-94359410D01*
X151412797Y-94373834D01*
X151381035Y-94385198D01*
X151348312Y-94393395D01*
X151314943Y-94398345D01*
X151281250Y-94400000D01*
X150593750Y-94400000D01*
X150560057Y-94398345D01*
X150526688Y-94393395D01*
X150493965Y-94385198D01*
X150462203Y-94373834D01*
X150431707Y-94359410D01*
X150402773Y-94342068D01*
X150375677Y-94321972D01*
X150350682Y-94299318D01*
X150328028Y-94274323D01*
X150307932Y-94247227D01*
X150290590Y-94218293D01*
X150276166Y-94187797D01*
X150264802Y-94156035D01*
X150256605Y-94123312D01*
X150251655Y-94089943D01*
X150250000Y-94056250D01*
X150250000Y-92943750D01*
X150251655Y-92910057D01*
X150256605Y-92876688D01*
X150264802Y-92843965D01*
X150276166Y-92812203D01*
X150290590Y-92781707D01*
X150307932Y-92752773D01*
X150328028Y-92725677D01*
X150350682Y-92700682D01*
X150375677Y-92678028D01*
X150402773Y-92657932D01*
X150431707Y-92640590D01*
X150462203Y-92626166D01*
X150493965Y-92614802D01*
X150526688Y-92606605D01*
X150560057Y-92601655D01*
X150593750Y-92600000D01*
X151281250Y-92600000D01*
X151314943Y-92601655D01*
X151314943Y-92601655D01*
G37*
D20*
X150937500Y-93500000D03*
G04 #@! TD*
D12*
G04 #@! TO.C,R31*
G36*
X179779943Y-99431655D02*
X179813312Y-99436605D01*
X179846035Y-99444802D01*
X179877797Y-99456166D01*
X179908293Y-99470590D01*
X179937227Y-99487932D01*
X179964323Y-99508028D01*
X179989318Y-99530682D01*
X180011972Y-99555677D01*
X180032068Y-99582773D01*
X180049410Y-99611707D01*
X180063834Y-99642203D01*
X180075198Y-99673965D01*
X180083395Y-99706688D01*
X180088345Y-99740057D01*
X180090000Y-99773750D01*
X180090000Y-100886250D01*
X180088345Y-100919943D01*
X180083395Y-100953312D01*
X180075198Y-100986035D01*
X180063834Y-101017797D01*
X180049410Y-101048293D01*
X180032068Y-101077227D01*
X180011972Y-101104323D01*
X179989318Y-101129318D01*
X179964323Y-101151972D01*
X179937227Y-101172068D01*
X179908293Y-101189410D01*
X179877797Y-101203834D01*
X179846035Y-101215198D01*
X179813312Y-101223395D01*
X179779943Y-101228345D01*
X179746250Y-101230000D01*
X179058750Y-101230000D01*
X179025057Y-101228345D01*
X178991688Y-101223395D01*
X178958965Y-101215198D01*
X178927203Y-101203834D01*
X178896707Y-101189410D01*
X178867773Y-101172068D01*
X178840677Y-101151972D01*
X178815682Y-101129318D01*
X178793028Y-101104323D01*
X178772932Y-101077227D01*
X178755590Y-101048293D01*
X178741166Y-101017797D01*
X178729802Y-100986035D01*
X178721605Y-100953312D01*
X178716655Y-100919943D01*
X178715000Y-100886250D01*
X178715000Y-99773750D01*
X178716655Y-99740057D01*
X178721605Y-99706688D01*
X178729802Y-99673965D01*
X178741166Y-99642203D01*
X178755590Y-99611707D01*
X178772932Y-99582773D01*
X178793028Y-99555677D01*
X178815682Y-99530682D01*
X178840677Y-99508028D01*
X178867773Y-99487932D01*
X178896707Y-99470590D01*
X178927203Y-99456166D01*
X178958965Y-99444802D01*
X178991688Y-99436605D01*
X179025057Y-99431655D01*
X179058750Y-99430000D01*
X179746250Y-99430000D01*
X179779943Y-99431655D01*
X179779943Y-99431655D01*
G37*
D20*
X179402500Y-100330000D03*
D12*
G36*
X181654943Y-99431655D02*
X181688312Y-99436605D01*
X181721035Y-99444802D01*
X181752797Y-99456166D01*
X181783293Y-99470590D01*
X181812227Y-99487932D01*
X181839323Y-99508028D01*
X181864318Y-99530682D01*
X181886972Y-99555677D01*
X181907068Y-99582773D01*
X181924410Y-99611707D01*
X181938834Y-99642203D01*
X181950198Y-99673965D01*
X181958395Y-99706688D01*
X181963345Y-99740057D01*
X181965000Y-99773750D01*
X181965000Y-100886250D01*
X181963345Y-100919943D01*
X181958395Y-100953312D01*
X181950198Y-100986035D01*
X181938834Y-101017797D01*
X181924410Y-101048293D01*
X181907068Y-101077227D01*
X181886972Y-101104323D01*
X181864318Y-101129318D01*
X181839323Y-101151972D01*
X181812227Y-101172068D01*
X181783293Y-101189410D01*
X181752797Y-101203834D01*
X181721035Y-101215198D01*
X181688312Y-101223395D01*
X181654943Y-101228345D01*
X181621250Y-101230000D01*
X180933750Y-101230000D01*
X180900057Y-101228345D01*
X180866688Y-101223395D01*
X180833965Y-101215198D01*
X180802203Y-101203834D01*
X180771707Y-101189410D01*
X180742773Y-101172068D01*
X180715677Y-101151972D01*
X180690682Y-101129318D01*
X180668028Y-101104323D01*
X180647932Y-101077227D01*
X180630590Y-101048293D01*
X180616166Y-101017797D01*
X180604802Y-100986035D01*
X180596605Y-100953312D01*
X180591655Y-100919943D01*
X180590000Y-100886250D01*
X180590000Y-99773750D01*
X180591655Y-99740057D01*
X180596605Y-99706688D01*
X180604802Y-99673965D01*
X180616166Y-99642203D01*
X180630590Y-99611707D01*
X180647932Y-99582773D01*
X180668028Y-99555677D01*
X180690682Y-99530682D01*
X180715677Y-99508028D01*
X180742773Y-99487932D01*
X180771707Y-99470590D01*
X180802203Y-99456166D01*
X180833965Y-99444802D01*
X180866688Y-99436605D01*
X180900057Y-99431655D01*
X180933750Y-99430000D01*
X181621250Y-99430000D01*
X181654943Y-99431655D01*
X181654943Y-99431655D01*
G37*
D20*
X181277500Y-100330000D03*
G04 #@! TD*
D12*
G04 #@! TO.C,R32*
G36*
X215612443Y-104511655D02*
X215645812Y-104516605D01*
X215678535Y-104524802D01*
X215710297Y-104536166D01*
X215740793Y-104550590D01*
X215769727Y-104567932D01*
X215796823Y-104588028D01*
X215821818Y-104610682D01*
X215844472Y-104635677D01*
X215864568Y-104662773D01*
X215881910Y-104691707D01*
X215896334Y-104722203D01*
X215907698Y-104753965D01*
X215915895Y-104786688D01*
X215920845Y-104820057D01*
X215922500Y-104853750D01*
X215922500Y-105966250D01*
X215920845Y-105999943D01*
X215915895Y-106033312D01*
X215907698Y-106066035D01*
X215896334Y-106097797D01*
X215881910Y-106128293D01*
X215864568Y-106157227D01*
X215844472Y-106184323D01*
X215821818Y-106209318D01*
X215796823Y-106231972D01*
X215769727Y-106252068D01*
X215740793Y-106269410D01*
X215710297Y-106283834D01*
X215678535Y-106295198D01*
X215645812Y-106303395D01*
X215612443Y-106308345D01*
X215578750Y-106310000D01*
X214891250Y-106310000D01*
X214857557Y-106308345D01*
X214824188Y-106303395D01*
X214791465Y-106295198D01*
X214759703Y-106283834D01*
X214729207Y-106269410D01*
X214700273Y-106252068D01*
X214673177Y-106231972D01*
X214648182Y-106209318D01*
X214625528Y-106184323D01*
X214605432Y-106157227D01*
X214588090Y-106128293D01*
X214573666Y-106097797D01*
X214562302Y-106066035D01*
X214554105Y-106033312D01*
X214549155Y-105999943D01*
X214547500Y-105966250D01*
X214547500Y-104853750D01*
X214549155Y-104820057D01*
X214554105Y-104786688D01*
X214562302Y-104753965D01*
X214573666Y-104722203D01*
X214588090Y-104691707D01*
X214605432Y-104662773D01*
X214625528Y-104635677D01*
X214648182Y-104610682D01*
X214673177Y-104588028D01*
X214700273Y-104567932D01*
X214729207Y-104550590D01*
X214759703Y-104536166D01*
X214791465Y-104524802D01*
X214824188Y-104516605D01*
X214857557Y-104511655D01*
X214891250Y-104510000D01*
X215578750Y-104510000D01*
X215612443Y-104511655D01*
X215612443Y-104511655D01*
G37*
D20*
X215235000Y-105410000D03*
D12*
G36*
X213737443Y-104511655D02*
X213770812Y-104516605D01*
X213803535Y-104524802D01*
X213835297Y-104536166D01*
X213865793Y-104550590D01*
X213894727Y-104567932D01*
X213921823Y-104588028D01*
X213946818Y-104610682D01*
X213969472Y-104635677D01*
X213989568Y-104662773D01*
X214006910Y-104691707D01*
X214021334Y-104722203D01*
X214032698Y-104753965D01*
X214040895Y-104786688D01*
X214045845Y-104820057D01*
X214047500Y-104853750D01*
X214047500Y-105966250D01*
X214045845Y-105999943D01*
X214040895Y-106033312D01*
X214032698Y-106066035D01*
X214021334Y-106097797D01*
X214006910Y-106128293D01*
X213989568Y-106157227D01*
X213969472Y-106184323D01*
X213946818Y-106209318D01*
X213921823Y-106231972D01*
X213894727Y-106252068D01*
X213865793Y-106269410D01*
X213835297Y-106283834D01*
X213803535Y-106295198D01*
X213770812Y-106303395D01*
X213737443Y-106308345D01*
X213703750Y-106310000D01*
X213016250Y-106310000D01*
X212982557Y-106308345D01*
X212949188Y-106303395D01*
X212916465Y-106295198D01*
X212884703Y-106283834D01*
X212854207Y-106269410D01*
X212825273Y-106252068D01*
X212798177Y-106231972D01*
X212773182Y-106209318D01*
X212750528Y-106184323D01*
X212730432Y-106157227D01*
X212713090Y-106128293D01*
X212698666Y-106097797D01*
X212687302Y-106066035D01*
X212679105Y-106033312D01*
X212674155Y-105999943D01*
X212672500Y-105966250D01*
X212672500Y-104853750D01*
X212674155Y-104820057D01*
X212679105Y-104786688D01*
X212687302Y-104753965D01*
X212698666Y-104722203D01*
X212713090Y-104691707D01*
X212730432Y-104662773D01*
X212750528Y-104635677D01*
X212773182Y-104610682D01*
X212798177Y-104588028D01*
X212825273Y-104567932D01*
X212854207Y-104550590D01*
X212884703Y-104536166D01*
X212916465Y-104524802D01*
X212949188Y-104516605D01*
X212982557Y-104511655D01*
X213016250Y-104510000D01*
X213703750Y-104510000D01*
X213737443Y-104511655D01*
X213737443Y-104511655D01*
G37*
D20*
X213360000Y-105410000D03*
G04 #@! TD*
D12*
G04 #@! TO.C,R33*
G36*
X217879943Y-74031655D02*
X217913312Y-74036605D01*
X217946035Y-74044802D01*
X217977797Y-74056166D01*
X218008293Y-74070590D01*
X218037227Y-74087932D01*
X218064323Y-74108028D01*
X218089318Y-74130682D01*
X218111972Y-74155677D01*
X218132068Y-74182773D01*
X218149410Y-74211707D01*
X218163834Y-74242203D01*
X218175198Y-74273965D01*
X218183395Y-74306688D01*
X218188345Y-74340057D01*
X218190000Y-74373750D01*
X218190000Y-75486250D01*
X218188345Y-75519943D01*
X218183395Y-75553312D01*
X218175198Y-75586035D01*
X218163834Y-75617797D01*
X218149410Y-75648293D01*
X218132068Y-75677227D01*
X218111972Y-75704323D01*
X218089318Y-75729318D01*
X218064323Y-75751972D01*
X218037227Y-75772068D01*
X218008293Y-75789410D01*
X217977797Y-75803834D01*
X217946035Y-75815198D01*
X217913312Y-75823395D01*
X217879943Y-75828345D01*
X217846250Y-75830000D01*
X217158750Y-75830000D01*
X217125057Y-75828345D01*
X217091688Y-75823395D01*
X217058965Y-75815198D01*
X217027203Y-75803834D01*
X216996707Y-75789410D01*
X216967773Y-75772068D01*
X216940677Y-75751972D01*
X216915682Y-75729318D01*
X216893028Y-75704323D01*
X216872932Y-75677227D01*
X216855590Y-75648293D01*
X216841166Y-75617797D01*
X216829802Y-75586035D01*
X216821605Y-75553312D01*
X216816655Y-75519943D01*
X216815000Y-75486250D01*
X216815000Y-74373750D01*
X216816655Y-74340057D01*
X216821605Y-74306688D01*
X216829802Y-74273965D01*
X216841166Y-74242203D01*
X216855590Y-74211707D01*
X216872932Y-74182773D01*
X216893028Y-74155677D01*
X216915682Y-74130682D01*
X216940677Y-74108028D01*
X216967773Y-74087932D01*
X216996707Y-74070590D01*
X217027203Y-74056166D01*
X217058965Y-74044802D01*
X217091688Y-74036605D01*
X217125057Y-74031655D01*
X217158750Y-74030000D01*
X217846250Y-74030000D01*
X217879943Y-74031655D01*
X217879943Y-74031655D01*
G37*
D20*
X217502500Y-74930000D03*
D12*
G36*
X219754943Y-74031655D02*
X219788312Y-74036605D01*
X219821035Y-74044802D01*
X219852797Y-74056166D01*
X219883293Y-74070590D01*
X219912227Y-74087932D01*
X219939323Y-74108028D01*
X219964318Y-74130682D01*
X219986972Y-74155677D01*
X220007068Y-74182773D01*
X220024410Y-74211707D01*
X220038834Y-74242203D01*
X220050198Y-74273965D01*
X220058395Y-74306688D01*
X220063345Y-74340057D01*
X220065000Y-74373750D01*
X220065000Y-75486250D01*
X220063345Y-75519943D01*
X220058395Y-75553312D01*
X220050198Y-75586035D01*
X220038834Y-75617797D01*
X220024410Y-75648293D01*
X220007068Y-75677227D01*
X219986972Y-75704323D01*
X219964318Y-75729318D01*
X219939323Y-75751972D01*
X219912227Y-75772068D01*
X219883293Y-75789410D01*
X219852797Y-75803834D01*
X219821035Y-75815198D01*
X219788312Y-75823395D01*
X219754943Y-75828345D01*
X219721250Y-75830000D01*
X219033750Y-75830000D01*
X219000057Y-75828345D01*
X218966688Y-75823395D01*
X218933965Y-75815198D01*
X218902203Y-75803834D01*
X218871707Y-75789410D01*
X218842773Y-75772068D01*
X218815677Y-75751972D01*
X218790682Y-75729318D01*
X218768028Y-75704323D01*
X218747932Y-75677227D01*
X218730590Y-75648293D01*
X218716166Y-75617797D01*
X218704802Y-75586035D01*
X218696605Y-75553312D01*
X218691655Y-75519943D01*
X218690000Y-75486250D01*
X218690000Y-74373750D01*
X218691655Y-74340057D01*
X218696605Y-74306688D01*
X218704802Y-74273965D01*
X218716166Y-74242203D01*
X218730590Y-74211707D01*
X218747932Y-74182773D01*
X218768028Y-74155677D01*
X218790682Y-74130682D01*
X218815677Y-74108028D01*
X218842773Y-74087932D01*
X218871707Y-74070590D01*
X218902203Y-74056166D01*
X218933965Y-74044802D01*
X218966688Y-74036605D01*
X219000057Y-74031655D01*
X219033750Y-74030000D01*
X219721250Y-74030000D01*
X219754943Y-74031655D01*
X219754943Y-74031655D01*
G37*
D20*
X219377500Y-74930000D03*
G04 #@! TD*
D12*
G04 #@! TO.C,R34*
G36*
X199434943Y-76571655D02*
X199468312Y-76576605D01*
X199501035Y-76584802D01*
X199532797Y-76596166D01*
X199563293Y-76610590D01*
X199592227Y-76627932D01*
X199619323Y-76648028D01*
X199644318Y-76670682D01*
X199666972Y-76695677D01*
X199687068Y-76722773D01*
X199704410Y-76751707D01*
X199718834Y-76782203D01*
X199730198Y-76813965D01*
X199738395Y-76846688D01*
X199743345Y-76880057D01*
X199745000Y-76913750D01*
X199745000Y-78026250D01*
X199743345Y-78059943D01*
X199738395Y-78093312D01*
X199730198Y-78126035D01*
X199718834Y-78157797D01*
X199704410Y-78188293D01*
X199687068Y-78217227D01*
X199666972Y-78244323D01*
X199644318Y-78269318D01*
X199619323Y-78291972D01*
X199592227Y-78312068D01*
X199563293Y-78329410D01*
X199532797Y-78343834D01*
X199501035Y-78355198D01*
X199468312Y-78363395D01*
X199434943Y-78368345D01*
X199401250Y-78370000D01*
X198713750Y-78370000D01*
X198680057Y-78368345D01*
X198646688Y-78363395D01*
X198613965Y-78355198D01*
X198582203Y-78343834D01*
X198551707Y-78329410D01*
X198522773Y-78312068D01*
X198495677Y-78291972D01*
X198470682Y-78269318D01*
X198448028Y-78244323D01*
X198427932Y-78217227D01*
X198410590Y-78188293D01*
X198396166Y-78157797D01*
X198384802Y-78126035D01*
X198376605Y-78093312D01*
X198371655Y-78059943D01*
X198370000Y-78026250D01*
X198370000Y-76913750D01*
X198371655Y-76880057D01*
X198376605Y-76846688D01*
X198384802Y-76813965D01*
X198396166Y-76782203D01*
X198410590Y-76751707D01*
X198427932Y-76722773D01*
X198448028Y-76695677D01*
X198470682Y-76670682D01*
X198495677Y-76648028D01*
X198522773Y-76627932D01*
X198551707Y-76610590D01*
X198582203Y-76596166D01*
X198613965Y-76584802D01*
X198646688Y-76576605D01*
X198680057Y-76571655D01*
X198713750Y-76570000D01*
X199401250Y-76570000D01*
X199434943Y-76571655D01*
X199434943Y-76571655D01*
G37*
D20*
X199057500Y-77470000D03*
D12*
G36*
X197559943Y-76571655D02*
X197593312Y-76576605D01*
X197626035Y-76584802D01*
X197657797Y-76596166D01*
X197688293Y-76610590D01*
X197717227Y-76627932D01*
X197744323Y-76648028D01*
X197769318Y-76670682D01*
X197791972Y-76695677D01*
X197812068Y-76722773D01*
X197829410Y-76751707D01*
X197843834Y-76782203D01*
X197855198Y-76813965D01*
X197863395Y-76846688D01*
X197868345Y-76880057D01*
X197870000Y-76913750D01*
X197870000Y-78026250D01*
X197868345Y-78059943D01*
X197863395Y-78093312D01*
X197855198Y-78126035D01*
X197843834Y-78157797D01*
X197829410Y-78188293D01*
X197812068Y-78217227D01*
X197791972Y-78244323D01*
X197769318Y-78269318D01*
X197744323Y-78291972D01*
X197717227Y-78312068D01*
X197688293Y-78329410D01*
X197657797Y-78343834D01*
X197626035Y-78355198D01*
X197593312Y-78363395D01*
X197559943Y-78368345D01*
X197526250Y-78370000D01*
X196838750Y-78370000D01*
X196805057Y-78368345D01*
X196771688Y-78363395D01*
X196738965Y-78355198D01*
X196707203Y-78343834D01*
X196676707Y-78329410D01*
X196647773Y-78312068D01*
X196620677Y-78291972D01*
X196595682Y-78269318D01*
X196573028Y-78244323D01*
X196552932Y-78217227D01*
X196535590Y-78188293D01*
X196521166Y-78157797D01*
X196509802Y-78126035D01*
X196501605Y-78093312D01*
X196496655Y-78059943D01*
X196495000Y-78026250D01*
X196495000Y-76913750D01*
X196496655Y-76880057D01*
X196501605Y-76846688D01*
X196509802Y-76813965D01*
X196521166Y-76782203D01*
X196535590Y-76751707D01*
X196552932Y-76722773D01*
X196573028Y-76695677D01*
X196595682Y-76670682D01*
X196620677Y-76648028D01*
X196647773Y-76627932D01*
X196676707Y-76610590D01*
X196707203Y-76596166D01*
X196738965Y-76584802D01*
X196771688Y-76576605D01*
X196805057Y-76571655D01*
X196838750Y-76570000D01*
X197526250Y-76570000D01*
X197559943Y-76571655D01*
X197559943Y-76571655D01*
G37*
D20*
X197182500Y-77470000D03*
G04 #@! TD*
D12*
G04 #@! TO.C,R35*
G36*
X197559943Y-70221655D02*
X197593312Y-70226605D01*
X197626035Y-70234802D01*
X197657797Y-70246166D01*
X197688293Y-70260590D01*
X197717227Y-70277932D01*
X197744323Y-70298028D01*
X197769318Y-70320682D01*
X197791972Y-70345677D01*
X197812068Y-70372773D01*
X197829410Y-70401707D01*
X197843834Y-70432203D01*
X197855198Y-70463965D01*
X197863395Y-70496688D01*
X197868345Y-70530057D01*
X197870000Y-70563750D01*
X197870000Y-71676250D01*
X197868345Y-71709943D01*
X197863395Y-71743312D01*
X197855198Y-71776035D01*
X197843834Y-71807797D01*
X197829410Y-71838293D01*
X197812068Y-71867227D01*
X197791972Y-71894323D01*
X197769318Y-71919318D01*
X197744323Y-71941972D01*
X197717227Y-71962068D01*
X197688293Y-71979410D01*
X197657797Y-71993834D01*
X197626035Y-72005198D01*
X197593312Y-72013395D01*
X197559943Y-72018345D01*
X197526250Y-72020000D01*
X196838750Y-72020000D01*
X196805057Y-72018345D01*
X196771688Y-72013395D01*
X196738965Y-72005198D01*
X196707203Y-71993834D01*
X196676707Y-71979410D01*
X196647773Y-71962068D01*
X196620677Y-71941972D01*
X196595682Y-71919318D01*
X196573028Y-71894323D01*
X196552932Y-71867227D01*
X196535590Y-71838293D01*
X196521166Y-71807797D01*
X196509802Y-71776035D01*
X196501605Y-71743312D01*
X196496655Y-71709943D01*
X196495000Y-71676250D01*
X196495000Y-70563750D01*
X196496655Y-70530057D01*
X196501605Y-70496688D01*
X196509802Y-70463965D01*
X196521166Y-70432203D01*
X196535590Y-70401707D01*
X196552932Y-70372773D01*
X196573028Y-70345677D01*
X196595682Y-70320682D01*
X196620677Y-70298028D01*
X196647773Y-70277932D01*
X196676707Y-70260590D01*
X196707203Y-70246166D01*
X196738965Y-70234802D01*
X196771688Y-70226605D01*
X196805057Y-70221655D01*
X196838750Y-70220000D01*
X197526250Y-70220000D01*
X197559943Y-70221655D01*
X197559943Y-70221655D01*
G37*
D20*
X197182500Y-71120000D03*
D12*
G36*
X199434943Y-70221655D02*
X199468312Y-70226605D01*
X199501035Y-70234802D01*
X199532797Y-70246166D01*
X199563293Y-70260590D01*
X199592227Y-70277932D01*
X199619323Y-70298028D01*
X199644318Y-70320682D01*
X199666972Y-70345677D01*
X199687068Y-70372773D01*
X199704410Y-70401707D01*
X199718834Y-70432203D01*
X199730198Y-70463965D01*
X199738395Y-70496688D01*
X199743345Y-70530057D01*
X199745000Y-70563750D01*
X199745000Y-71676250D01*
X199743345Y-71709943D01*
X199738395Y-71743312D01*
X199730198Y-71776035D01*
X199718834Y-71807797D01*
X199704410Y-71838293D01*
X199687068Y-71867227D01*
X199666972Y-71894323D01*
X199644318Y-71919318D01*
X199619323Y-71941972D01*
X199592227Y-71962068D01*
X199563293Y-71979410D01*
X199532797Y-71993834D01*
X199501035Y-72005198D01*
X199468312Y-72013395D01*
X199434943Y-72018345D01*
X199401250Y-72020000D01*
X198713750Y-72020000D01*
X198680057Y-72018345D01*
X198646688Y-72013395D01*
X198613965Y-72005198D01*
X198582203Y-71993834D01*
X198551707Y-71979410D01*
X198522773Y-71962068D01*
X198495677Y-71941972D01*
X198470682Y-71919318D01*
X198448028Y-71894323D01*
X198427932Y-71867227D01*
X198410590Y-71838293D01*
X198396166Y-71807797D01*
X198384802Y-71776035D01*
X198376605Y-71743312D01*
X198371655Y-71709943D01*
X198370000Y-71676250D01*
X198370000Y-70563750D01*
X198371655Y-70530057D01*
X198376605Y-70496688D01*
X198384802Y-70463965D01*
X198396166Y-70432203D01*
X198410590Y-70401707D01*
X198427932Y-70372773D01*
X198448028Y-70345677D01*
X198470682Y-70320682D01*
X198495677Y-70298028D01*
X198522773Y-70277932D01*
X198551707Y-70260590D01*
X198582203Y-70246166D01*
X198613965Y-70234802D01*
X198646688Y-70226605D01*
X198680057Y-70221655D01*
X198713750Y-70220000D01*
X199401250Y-70220000D01*
X199434943Y-70221655D01*
X199434943Y-70221655D01*
G37*
D20*
X199057500Y-71120000D03*
G04 #@! TD*
D12*
G04 #@! TO.C,R36*
G36*
X219149943Y-60061655D02*
X219183312Y-60066605D01*
X219216035Y-60074802D01*
X219247797Y-60086166D01*
X219278293Y-60100590D01*
X219307227Y-60117932D01*
X219334323Y-60138028D01*
X219359318Y-60160682D01*
X219381972Y-60185677D01*
X219402068Y-60212773D01*
X219419410Y-60241707D01*
X219433834Y-60272203D01*
X219445198Y-60303965D01*
X219453395Y-60336688D01*
X219458345Y-60370057D01*
X219460000Y-60403750D01*
X219460000Y-61516250D01*
X219458345Y-61549943D01*
X219453395Y-61583312D01*
X219445198Y-61616035D01*
X219433834Y-61647797D01*
X219419410Y-61678293D01*
X219402068Y-61707227D01*
X219381972Y-61734323D01*
X219359318Y-61759318D01*
X219334323Y-61781972D01*
X219307227Y-61802068D01*
X219278293Y-61819410D01*
X219247797Y-61833834D01*
X219216035Y-61845198D01*
X219183312Y-61853395D01*
X219149943Y-61858345D01*
X219116250Y-61860000D01*
X218428750Y-61860000D01*
X218395057Y-61858345D01*
X218361688Y-61853395D01*
X218328965Y-61845198D01*
X218297203Y-61833834D01*
X218266707Y-61819410D01*
X218237773Y-61802068D01*
X218210677Y-61781972D01*
X218185682Y-61759318D01*
X218163028Y-61734323D01*
X218142932Y-61707227D01*
X218125590Y-61678293D01*
X218111166Y-61647797D01*
X218099802Y-61616035D01*
X218091605Y-61583312D01*
X218086655Y-61549943D01*
X218085000Y-61516250D01*
X218085000Y-60403750D01*
X218086655Y-60370057D01*
X218091605Y-60336688D01*
X218099802Y-60303965D01*
X218111166Y-60272203D01*
X218125590Y-60241707D01*
X218142932Y-60212773D01*
X218163028Y-60185677D01*
X218185682Y-60160682D01*
X218210677Y-60138028D01*
X218237773Y-60117932D01*
X218266707Y-60100590D01*
X218297203Y-60086166D01*
X218328965Y-60074802D01*
X218361688Y-60066605D01*
X218395057Y-60061655D01*
X218428750Y-60060000D01*
X219116250Y-60060000D01*
X219149943Y-60061655D01*
X219149943Y-60061655D01*
G37*
D20*
X218772500Y-60960000D03*
D12*
G36*
X221024943Y-60061655D02*
X221058312Y-60066605D01*
X221091035Y-60074802D01*
X221122797Y-60086166D01*
X221153293Y-60100590D01*
X221182227Y-60117932D01*
X221209323Y-60138028D01*
X221234318Y-60160682D01*
X221256972Y-60185677D01*
X221277068Y-60212773D01*
X221294410Y-60241707D01*
X221308834Y-60272203D01*
X221320198Y-60303965D01*
X221328395Y-60336688D01*
X221333345Y-60370057D01*
X221335000Y-60403750D01*
X221335000Y-61516250D01*
X221333345Y-61549943D01*
X221328395Y-61583312D01*
X221320198Y-61616035D01*
X221308834Y-61647797D01*
X221294410Y-61678293D01*
X221277068Y-61707227D01*
X221256972Y-61734323D01*
X221234318Y-61759318D01*
X221209323Y-61781972D01*
X221182227Y-61802068D01*
X221153293Y-61819410D01*
X221122797Y-61833834D01*
X221091035Y-61845198D01*
X221058312Y-61853395D01*
X221024943Y-61858345D01*
X220991250Y-61860000D01*
X220303750Y-61860000D01*
X220270057Y-61858345D01*
X220236688Y-61853395D01*
X220203965Y-61845198D01*
X220172203Y-61833834D01*
X220141707Y-61819410D01*
X220112773Y-61802068D01*
X220085677Y-61781972D01*
X220060682Y-61759318D01*
X220038028Y-61734323D01*
X220017932Y-61707227D01*
X220000590Y-61678293D01*
X219986166Y-61647797D01*
X219974802Y-61616035D01*
X219966605Y-61583312D01*
X219961655Y-61549943D01*
X219960000Y-61516250D01*
X219960000Y-60403750D01*
X219961655Y-60370057D01*
X219966605Y-60336688D01*
X219974802Y-60303965D01*
X219986166Y-60272203D01*
X220000590Y-60241707D01*
X220017932Y-60212773D01*
X220038028Y-60185677D01*
X220060682Y-60160682D01*
X220085677Y-60138028D01*
X220112773Y-60117932D01*
X220141707Y-60100590D01*
X220172203Y-60086166D01*
X220203965Y-60074802D01*
X220236688Y-60066605D01*
X220270057Y-60061655D01*
X220303750Y-60060000D01*
X220991250Y-60060000D01*
X221024943Y-60061655D01*
X221024943Y-60061655D01*
G37*
D20*
X220647500Y-60960000D03*
G04 #@! TD*
D12*
G04 #@! TO.C,R37*
G36*
X184739943Y-59004155D02*
X184773312Y-59009105D01*
X184806035Y-59017302D01*
X184837797Y-59028666D01*
X184868293Y-59043090D01*
X184897227Y-59060432D01*
X184924323Y-59080528D01*
X184949318Y-59103182D01*
X184971972Y-59128177D01*
X184992068Y-59155273D01*
X185009410Y-59184207D01*
X185023834Y-59214703D01*
X185035198Y-59246465D01*
X185043395Y-59279188D01*
X185048345Y-59312557D01*
X185050000Y-59346250D01*
X185050000Y-60033750D01*
X185048345Y-60067443D01*
X185043395Y-60100812D01*
X185035198Y-60133535D01*
X185023834Y-60165297D01*
X185009410Y-60195793D01*
X184992068Y-60224727D01*
X184971972Y-60251823D01*
X184949318Y-60276818D01*
X184924323Y-60299472D01*
X184897227Y-60319568D01*
X184868293Y-60336910D01*
X184837797Y-60351334D01*
X184806035Y-60362698D01*
X184773312Y-60370895D01*
X184739943Y-60375845D01*
X184706250Y-60377500D01*
X183593750Y-60377500D01*
X183560057Y-60375845D01*
X183526688Y-60370895D01*
X183493965Y-60362698D01*
X183462203Y-60351334D01*
X183431707Y-60336910D01*
X183402773Y-60319568D01*
X183375677Y-60299472D01*
X183350682Y-60276818D01*
X183328028Y-60251823D01*
X183307932Y-60224727D01*
X183290590Y-60195793D01*
X183276166Y-60165297D01*
X183264802Y-60133535D01*
X183256605Y-60100812D01*
X183251655Y-60067443D01*
X183250000Y-60033750D01*
X183250000Y-59346250D01*
X183251655Y-59312557D01*
X183256605Y-59279188D01*
X183264802Y-59246465D01*
X183276166Y-59214703D01*
X183290590Y-59184207D01*
X183307932Y-59155273D01*
X183328028Y-59128177D01*
X183350682Y-59103182D01*
X183375677Y-59080528D01*
X183402773Y-59060432D01*
X183431707Y-59043090D01*
X183462203Y-59028666D01*
X183493965Y-59017302D01*
X183526688Y-59009105D01*
X183560057Y-59004155D01*
X183593750Y-59002500D01*
X184706250Y-59002500D01*
X184739943Y-59004155D01*
X184739943Y-59004155D01*
G37*
D20*
X184150000Y-59690000D03*
D12*
G36*
X184739943Y-60879155D02*
X184773312Y-60884105D01*
X184806035Y-60892302D01*
X184837797Y-60903666D01*
X184868293Y-60918090D01*
X184897227Y-60935432D01*
X184924323Y-60955528D01*
X184949318Y-60978182D01*
X184971972Y-61003177D01*
X184992068Y-61030273D01*
X185009410Y-61059207D01*
X185023834Y-61089703D01*
X185035198Y-61121465D01*
X185043395Y-61154188D01*
X185048345Y-61187557D01*
X185050000Y-61221250D01*
X185050000Y-61908750D01*
X185048345Y-61942443D01*
X185043395Y-61975812D01*
X185035198Y-62008535D01*
X185023834Y-62040297D01*
X185009410Y-62070793D01*
X184992068Y-62099727D01*
X184971972Y-62126823D01*
X184949318Y-62151818D01*
X184924323Y-62174472D01*
X184897227Y-62194568D01*
X184868293Y-62211910D01*
X184837797Y-62226334D01*
X184806035Y-62237698D01*
X184773312Y-62245895D01*
X184739943Y-62250845D01*
X184706250Y-62252500D01*
X183593750Y-62252500D01*
X183560057Y-62250845D01*
X183526688Y-62245895D01*
X183493965Y-62237698D01*
X183462203Y-62226334D01*
X183431707Y-62211910D01*
X183402773Y-62194568D01*
X183375677Y-62174472D01*
X183350682Y-62151818D01*
X183328028Y-62126823D01*
X183307932Y-62099727D01*
X183290590Y-62070793D01*
X183276166Y-62040297D01*
X183264802Y-62008535D01*
X183256605Y-61975812D01*
X183251655Y-61942443D01*
X183250000Y-61908750D01*
X183250000Y-61221250D01*
X183251655Y-61187557D01*
X183256605Y-61154188D01*
X183264802Y-61121465D01*
X183276166Y-61089703D01*
X183290590Y-61059207D01*
X183307932Y-61030273D01*
X183328028Y-61003177D01*
X183350682Y-60978182D01*
X183375677Y-60955528D01*
X183402773Y-60935432D01*
X183431707Y-60918090D01*
X183462203Y-60903666D01*
X183493965Y-60892302D01*
X183526688Y-60884105D01*
X183560057Y-60879155D01*
X183593750Y-60877500D01*
X184706250Y-60877500D01*
X184739943Y-60879155D01*
X184739943Y-60879155D01*
G37*
D20*
X184150000Y-61565000D03*
G04 #@! TD*
M02*
