G04 #@! TF.GenerationSoftware,KiCad,Pcbnew,6.0.0-rc1-unknown-46fddab~66~ubuntu16.04.1*
G04 #@! TF.CreationDate,2018-09-28T18:46:46+01:00*
G04 #@! TF.ProjectId,test,746573742E6B696361645F7063620000,rev?*
G04 #@! TF.SameCoordinates,Original*
G04 #@! TF.FileFunction,Paste,Bot*
G04 #@! TF.FilePolarity,Positive*
%FSLAX46Y46*%
G04 Gerber Fmt 4.6, Leading zero omitted, Abs format (unit mm)*
G04 Created by KiCad (PCBNEW 6.0.0-rc1-unknown-46fddab~66~ubuntu16.04.1) date Fri Sep 28 18:46:46 2018*
%MOMM*%
%LPD*%
G01*
G04 APERTURE LIST*
%ADD10C,0.100000*%
%ADD11C,0.875000*%
%ADD12R,0.900000X0.800000*%
%ADD13C,0.975000*%
%ADD14C,0.950000*%
%ADD15R,0.600000X1.500000*%
%ADD16R,1.500000X0.600000*%
G04 APERTURE END LIST*
D10*
G04 #@! TO.C,C1*
G36*
X152777691Y-91276053D02*
X152798926Y-91279203D01*
X152819750Y-91284419D01*
X152839962Y-91291651D01*
X152859368Y-91300830D01*
X152877781Y-91311866D01*
X152895024Y-91324654D01*
X152910930Y-91339070D01*
X152925346Y-91354976D01*
X152938134Y-91372219D01*
X152949170Y-91390632D01*
X152958349Y-91410038D01*
X152965581Y-91430250D01*
X152970797Y-91451074D01*
X152973947Y-91472309D01*
X152975000Y-91493750D01*
X152975000Y-91931250D01*
X152973947Y-91952691D01*
X152970797Y-91973926D01*
X152965581Y-91994750D01*
X152958349Y-92014962D01*
X152949170Y-92034368D01*
X152938134Y-92052781D01*
X152925346Y-92070024D01*
X152910930Y-92085930D01*
X152895024Y-92100346D01*
X152877781Y-92113134D01*
X152859368Y-92124170D01*
X152839962Y-92133349D01*
X152819750Y-92140581D01*
X152798926Y-92145797D01*
X152777691Y-92148947D01*
X152756250Y-92150000D01*
X152243750Y-92150000D01*
X152222309Y-92148947D01*
X152201074Y-92145797D01*
X152180250Y-92140581D01*
X152160038Y-92133349D01*
X152140632Y-92124170D01*
X152122219Y-92113134D01*
X152104976Y-92100346D01*
X152089070Y-92085930D01*
X152074654Y-92070024D01*
X152061866Y-92052781D01*
X152050830Y-92034368D01*
X152041651Y-92014962D01*
X152034419Y-91994750D01*
X152029203Y-91973926D01*
X152026053Y-91952691D01*
X152025000Y-91931250D01*
X152025000Y-91493750D01*
X152026053Y-91472309D01*
X152029203Y-91451074D01*
X152034419Y-91430250D01*
X152041651Y-91410038D01*
X152050830Y-91390632D01*
X152061866Y-91372219D01*
X152074654Y-91354976D01*
X152089070Y-91339070D01*
X152104976Y-91324654D01*
X152122219Y-91311866D01*
X152140632Y-91300830D01*
X152160038Y-91291651D01*
X152180250Y-91284419D01*
X152201074Y-91279203D01*
X152222309Y-91276053D01*
X152243750Y-91275000D01*
X152756250Y-91275000D01*
X152777691Y-91276053D01*
X152777691Y-91276053D01*
G37*
D11*
X152500000Y-91712500D03*
D10*
G36*
X152777691Y-92851053D02*
X152798926Y-92854203D01*
X152819750Y-92859419D01*
X152839962Y-92866651D01*
X152859368Y-92875830D01*
X152877781Y-92886866D01*
X152895024Y-92899654D01*
X152910930Y-92914070D01*
X152925346Y-92929976D01*
X152938134Y-92947219D01*
X152949170Y-92965632D01*
X152958349Y-92985038D01*
X152965581Y-93005250D01*
X152970797Y-93026074D01*
X152973947Y-93047309D01*
X152975000Y-93068750D01*
X152975000Y-93506250D01*
X152973947Y-93527691D01*
X152970797Y-93548926D01*
X152965581Y-93569750D01*
X152958349Y-93589962D01*
X152949170Y-93609368D01*
X152938134Y-93627781D01*
X152925346Y-93645024D01*
X152910930Y-93660930D01*
X152895024Y-93675346D01*
X152877781Y-93688134D01*
X152859368Y-93699170D01*
X152839962Y-93708349D01*
X152819750Y-93715581D01*
X152798926Y-93720797D01*
X152777691Y-93723947D01*
X152756250Y-93725000D01*
X152243750Y-93725000D01*
X152222309Y-93723947D01*
X152201074Y-93720797D01*
X152180250Y-93715581D01*
X152160038Y-93708349D01*
X152140632Y-93699170D01*
X152122219Y-93688134D01*
X152104976Y-93675346D01*
X152089070Y-93660930D01*
X152074654Y-93645024D01*
X152061866Y-93627781D01*
X152050830Y-93609368D01*
X152041651Y-93589962D01*
X152034419Y-93569750D01*
X152029203Y-93548926D01*
X152026053Y-93527691D01*
X152025000Y-93506250D01*
X152025000Y-93068750D01*
X152026053Y-93047309D01*
X152029203Y-93026074D01*
X152034419Y-93005250D01*
X152041651Y-92985038D01*
X152050830Y-92965632D01*
X152061866Y-92947219D01*
X152074654Y-92929976D01*
X152089070Y-92914070D01*
X152104976Y-92899654D01*
X152122219Y-92886866D01*
X152140632Y-92875830D01*
X152160038Y-92866651D01*
X152180250Y-92859419D01*
X152201074Y-92854203D01*
X152222309Y-92851053D01*
X152243750Y-92850000D01*
X152756250Y-92850000D01*
X152777691Y-92851053D01*
X152777691Y-92851053D01*
G37*
D11*
X152500000Y-93287500D03*
G04 #@! TD*
D10*
G04 #@! TO.C,C2*
G36*
X160815191Y-61526053D02*
X160836426Y-61529203D01*
X160857250Y-61534419D01*
X160877462Y-61541651D01*
X160896868Y-61550830D01*
X160915281Y-61561866D01*
X160932524Y-61574654D01*
X160948430Y-61589070D01*
X160962846Y-61604976D01*
X160975634Y-61622219D01*
X160986670Y-61640632D01*
X160995849Y-61660038D01*
X161003081Y-61680250D01*
X161008297Y-61701074D01*
X161011447Y-61722309D01*
X161012500Y-61743750D01*
X161012500Y-62256250D01*
X161011447Y-62277691D01*
X161008297Y-62298926D01*
X161003081Y-62319750D01*
X160995849Y-62339962D01*
X160986670Y-62359368D01*
X160975634Y-62377781D01*
X160962846Y-62395024D01*
X160948430Y-62410930D01*
X160932524Y-62425346D01*
X160915281Y-62438134D01*
X160896868Y-62449170D01*
X160877462Y-62458349D01*
X160857250Y-62465581D01*
X160836426Y-62470797D01*
X160815191Y-62473947D01*
X160793750Y-62475000D01*
X160356250Y-62475000D01*
X160334809Y-62473947D01*
X160313574Y-62470797D01*
X160292750Y-62465581D01*
X160272538Y-62458349D01*
X160253132Y-62449170D01*
X160234719Y-62438134D01*
X160217476Y-62425346D01*
X160201570Y-62410930D01*
X160187154Y-62395024D01*
X160174366Y-62377781D01*
X160163330Y-62359368D01*
X160154151Y-62339962D01*
X160146919Y-62319750D01*
X160141703Y-62298926D01*
X160138553Y-62277691D01*
X160137500Y-62256250D01*
X160137500Y-61743750D01*
X160138553Y-61722309D01*
X160141703Y-61701074D01*
X160146919Y-61680250D01*
X160154151Y-61660038D01*
X160163330Y-61640632D01*
X160174366Y-61622219D01*
X160187154Y-61604976D01*
X160201570Y-61589070D01*
X160217476Y-61574654D01*
X160234719Y-61561866D01*
X160253132Y-61550830D01*
X160272538Y-61541651D01*
X160292750Y-61534419D01*
X160313574Y-61529203D01*
X160334809Y-61526053D01*
X160356250Y-61525000D01*
X160793750Y-61525000D01*
X160815191Y-61526053D01*
X160815191Y-61526053D01*
G37*
D11*
X160575000Y-62000000D03*
D10*
G36*
X159240191Y-61526053D02*
X159261426Y-61529203D01*
X159282250Y-61534419D01*
X159302462Y-61541651D01*
X159321868Y-61550830D01*
X159340281Y-61561866D01*
X159357524Y-61574654D01*
X159373430Y-61589070D01*
X159387846Y-61604976D01*
X159400634Y-61622219D01*
X159411670Y-61640632D01*
X159420849Y-61660038D01*
X159428081Y-61680250D01*
X159433297Y-61701074D01*
X159436447Y-61722309D01*
X159437500Y-61743750D01*
X159437500Y-62256250D01*
X159436447Y-62277691D01*
X159433297Y-62298926D01*
X159428081Y-62319750D01*
X159420849Y-62339962D01*
X159411670Y-62359368D01*
X159400634Y-62377781D01*
X159387846Y-62395024D01*
X159373430Y-62410930D01*
X159357524Y-62425346D01*
X159340281Y-62438134D01*
X159321868Y-62449170D01*
X159302462Y-62458349D01*
X159282250Y-62465581D01*
X159261426Y-62470797D01*
X159240191Y-62473947D01*
X159218750Y-62475000D01*
X158781250Y-62475000D01*
X158759809Y-62473947D01*
X158738574Y-62470797D01*
X158717750Y-62465581D01*
X158697538Y-62458349D01*
X158678132Y-62449170D01*
X158659719Y-62438134D01*
X158642476Y-62425346D01*
X158626570Y-62410930D01*
X158612154Y-62395024D01*
X158599366Y-62377781D01*
X158588330Y-62359368D01*
X158579151Y-62339962D01*
X158571919Y-62319750D01*
X158566703Y-62298926D01*
X158563553Y-62277691D01*
X158562500Y-62256250D01*
X158562500Y-61743750D01*
X158563553Y-61722309D01*
X158566703Y-61701074D01*
X158571919Y-61680250D01*
X158579151Y-61660038D01*
X158588330Y-61640632D01*
X158599366Y-61622219D01*
X158612154Y-61604976D01*
X158626570Y-61589070D01*
X158642476Y-61574654D01*
X158659719Y-61561866D01*
X158678132Y-61550830D01*
X158697538Y-61541651D01*
X158717750Y-61534419D01*
X158738574Y-61529203D01*
X158759809Y-61526053D01*
X158781250Y-61525000D01*
X159218750Y-61525000D01*
X159240191Y-61526053D01*
X159240191Y-61526053D01*
G37*
D11*
X159000000Y-62000000D03*
G04 #@! TD*
D10*
G04 #@! TO.C,C3*
G36*
X156527691Y-69601053D02*
X156548926Y-69604203D01*
X156569750Y-69609419D01*
X156589962Y-69616651D01*
X156609368Y-69625830D01*
X156627781Y-69636866D01*
X156645024Y-69649654D01*
X156660930Y-69664070D01*
X156675346Y-69679976D01*
X156688134Y-69697219D01*
X156699170Y-69715632D01*
X156708349Y-69735038D01*
X156715581Y-69755250D01*
X156720797Y-69776074D01*
X156723947Y-69797309D01*
X156725000Y-69818750D01*
X156725000Y-70256250D01*
X156723947Y-70277691D01*
X156720797Y-70298926D01*
X156715581Y-70319750D01*
X156708349Y-70339962D01*
X156699170Y-70359368D01*
X156688134Y-70377781D01*
X156675346Y-70395024D01*
X156660930Y-70410930D01*
X156645024Y-70425346D01*
X156627781Y-70438134D01*
X156609368Y-70449170D01*
X156589962Y-70458349D01*
X156569750Y-70465581D01*
X156548926Y-70470797D01*
X156527691Y-70473947D01*
X156506250Y-70475000D01*
X155993750Y-70475000D01*
X155972309Y-70473947D01*
X155951074Y-70470797D01*
X155930250Y-70465581D01*
X155910038Y-70458349D01*
X155890632Y-70449170D01*
X155872219Y-70438134D01*
X155854976Y-70425346D01*
X155839070Y-70410930D01*
X155824654Y-70395024D01*
X155811866Y-70377781D01*
X155800830Y-70359368D01*
X155791651Y-70339962D01*
X155784419Y-70319750D01*
X155779203Y-70298926D01*
X155776053Y-70277691D01*
X155775000Y-70256250D01*
X155775000Y-69818750D01*
X155776053Y-69797309D01*
X155779203Y-69776074D01*
X155784419Y-69755250D01*
X155791651Y-69735038D01*
X155800830Y-69715632D01*
X155811866Y-69697219D01*
X155824654Y-69679976D01*
X155839070Y-69664070D01*
X155854976Y-69649654D01*
X155872219Y-69636866D01*
X155890632Y-69625830D01*
X155910038Y-69616651D01*
X155930250Y-69609419D01*
X155951074Y-69604203D01*
X155972309Y-69601053D01*
X155993750Y-69600000D01*
X156506250Y-69600000D01*
X156527691Y-69601053D01*
X156527691Y-69601053D01*
G37*
D11*
X156250000Y-70037500D03*
D10*
G36*
X156527691Y-68026053D02*
X156548926Y-68029203D01*
X156569750Y-68034419D01*
X156589962Y-68041651D01*
X156609368Y-68050830D01*
X156627781Y-68061866D01*
X156645024Y-68074654D01*
X156660930Y-68089070D01*
X156675346Y-68104976D01*
X156688134Y-68122219D01*
X156699170Y-68140632D01*
X156708349Y-68160038D01*
X156715581Y-68180250D01*
X156720797Y-68201074D01*
X156723947Y-68222309D01*
X156725000Y-68243750D01*
X156725000Y-68681250D01*
X156723947Y-68702691D01*
X156720797Y-68723926D01*
X156715581Y-68744750D01*
X156708349Y-68764962D01*
X156699170Y-68784368D01*
X156688134Y-68802781D01*
X156675346Y-68820024D01*
X156660930Y-68835930D01*
X156645024Y-68850346D01*
X156627781Y-68863134D01*
X156609368Y-68874170D01*
X156589962Y-68883349D01*
X156569750Y-68890581D01*
X156548926Y-68895797D01*
X156527691Y-68898947D01*
X156506250Y-68900000D01*
X155993750Y-68900000D01*
X155972309Y-68898947D01*
X155951074Y-68895797D01*
X155930250Y-68890581D01*
X155910038Y-68883349D01*
X155890632Y-68874170D01*
X155872219Y-68863134D01*
X155854976Y-68850346D01*
X155839070Y-68835930D01*
X155824654Y-68820024D01*
X155811866Y-68802781D01*
X155800830Y-68784368D01*
X155791651Y-68764962D01*
X155784419Y-68744750D01*
X155779203Y-68723926D01*
X155776053Y-68702691D01*
X155775000Y-68681250D01*
X155775000Y-68243750D01*
X155776053Y-68222309D01*
X155779203Y-68201074D01*
X155784419Y-68180250D01*
X155791651Y-68160038D01*
X155800830Y-68140632D01*
X155811866Y-68122219D01*
X155824654Y-68104976D01*
X155839070Y-68089070D01*
X155854976Y-68074654D01*
X155872219Y-68061866D01*
X155890632Y-68050830D01*
X155910038Y-68041651D01*
X155930250Y-68034419D01*
X155951074Y-68029203D01*
X155972309Y-68026053D01*
X155993750Y-68025000D01*
X156506250Y-68025000D01*
X156527691Y-68026053D01*
X156527691Y-68026053D01*
G37*
D11*
X156250000Y-68462500D03*
G04 #@! TD*
D12*
G04 #@! TO.C,D1*
X157250000Y-105450000D03*
X157250000Y-103550000D03*
X159250000Y-104500000D03*
G04 #@! TD*
D10*
G04 #@! TO.C,R1*
G36*
X163480142Y-105201174D02*
X163503803Y-105204684D01*
X163527007Y-105210496D01*
X163549529Y-105218554D01*
X163571153Y-105228782D01*
X163591670Y-105241079D01*
X163610883Y-105255329D01*
X163628607Y-105271393D01*
X163644671Y-105289117D01*
X163658921Y-105308330D01*
X163671218Y-105328847D01*
X163681446Y-105350471D01*
X163689504Y-105372993D01*
X163695316Y-105396197D01*
X163698826Y-105419858D01*
X163700000Y-105443750D01*
X163700000Y-105931250D01*
X163698826Y-105955142D01*
X163695316Y-105978803D01*
X163689504Y-106002007D01*
X163681446Y-106024529D01*
X163671218Y-106046153D01*
X163658921Y-106066670D01*
X163644671Y-106085883D01*
X163628607Y-106103607D01*
X163610883Y-106119671D01*
X163591670Y-106133921D01*
X163571153Y-106146218D01*
X163549529Y-106156446D01*
X163527007Y-106164504D01*
X163503803Y-106170316D01*
X163480142Y-106173826D01*
X163456250Y-106175000D01*
X162543750Y-106175000D01*
X162519858Y-106173826D01*
X162496197Y-106170316D01*
X162472993Y-106164504D01*
X162450471Y-106156446D01*
X162428847Y-106146218D01*
X162408330Y-106133921D01*
X162389117Y-106119671D01*
X162371393Y-106103607D01*
X162355329Y-106085883D01*
X162341079Y-106066670D01*
X162328782Y-106046153D01*
X162318554Y-106024529D01*
X162310496Y-106002007D01*
X162304684Y-105978803D01*
X162301174Y-105955142D01*
X162300000Y-105931250D01*
X162300000Y-105443750D01*
X162301174Y-105419858D01*
X162304684Y-105396197D01*
X162310496Y-105372993D01*
X162318554Y-105350471D01*
X162328782Y-105328847D01*
X162341079Y-105308330D01*
X162355329Y-105289117D01*
X162371393Y-105271393D01*
X162389117Y-105255329D01*
X162408330Y-105241079D01*
X162428847Y-105228782D01*
X162450471Y-105218554D01*
X162472993Y-105210496D01*
X162496197Y-105204684D01*
X162519858Y-105201174D01*
X162543750Y-105200000D01*
X163456250Y-105200000D01*
X163480142Y-105201174D01*
X163480142Y-105201174D01*
G37*
D13*
X163000000Y-105687500D03*
D10*
G36*
X163480142Y-103326174D02*
X163503803Y-103329684D01*
X163527007Y-103335496D01*
X163549529Y-103343554D01*
X163571153Y-103353782D01*
X163591670Y-103366079D01*
X163610883Y-103380329D01*
X163628607Y-103396393D01*
X163644671Y-103414117D01*
X163658921Y-103433330D01*
X163671218Y-103453847D01*
X163681446Y-103475471D01*
X163689504Y-103497993D01*
X163695316Y-103521197D01*
X163698826Y-103544858D01*
X163700000Y-103568750D01*
X163700000Y-104056250D01*
X163698826Y-104080142D01*
X163695316Y-104103803D01*
X163689504Y-104127007D01*
X163681446Y-104149529D01*
X163671218Y-104171153D01*
X163658921Y-104191670D01*
X163644671Y-104210883D01*
X163628607Y-104228607D01*
X163610883Y-104244671D01*
X163591670Y-104258921D01*
X163571153Y-104271218D01*
X163549529Y-104281446D01*
X163527007Y-104289504D01*
X163503803Y-104295316D01*
X163480142Y-104298826D01*
X163456250Y-104300000D01*
X162543750Y-104300000D01*
X162519858Y-104298826D01*
X162496197Y-104295316D01*
X162472993Y-104289504D01*
X162450471Y-104281446D01*
X162428847Y-104271218D01*
X162408330Y-104258921D01*
X162389117Y-104244671D01*
X162371393Y-104228607D01*
X162355329Y-104210883D01*
X162341079Y-104191670D01*
X162328782Y-104171153D01*
X162318554Y-104149529D01*
X162310496Y-104127007D01*
X162304684Y-104103803D01*
X162301174Y-104080142D01*
X162300000Y-104056250D01*
X162300000Y-103568750D01*
X162301174Y-103544858D01*
X162304684Y-103521197D01*
X162310496Y-103497993D01*
X162318554Y-103475471D01*
X162328782Y-103453847D01*
X162341079Y-103433330D01*
X162355329Y-103414117D01*
X162371393Y-103396393D01*
X162389117Y-103380329D01*
X162408330Y-103366079D01*
X162428847Y-103353782D01*
X162450471Y-103343554D01*
X162472993Y-103335496D01*
X162496197Y-103329684D01*
X162519858Y-103326174D01*
X162543750Y-103325000D01*
X163456250Y-103325000D01*
X163480142Y-103326174D01*
X163480142Y-103326174D01*
G37*
D13*
X163000000Y-103812500D03*
G04 #@! TD*
D10*
G04 #@! TO.C,R2*
G36*
X151980142Y-98451174D02*
X152003803Y-98454684D01*
X152027007Y-98460496D01*
X152049529Y-98468554D01*
X152071153Y-98478782D01*
X152091670Y-98491079D01*
X152110883Y-98505329D01*
X152128607Y-98521393D01*
X152144671Y-98539117D01*
X152158921Y-98558330D01*
X152171218Y-98578847D01*
X152181446Y-98600471D01*
X152189504Y-98622993D01*
X152195316Y-98646197D01*
X152198826Y-98669858D01*
X152200000Y-98693750D01*
X152200000Y-99181250D01*
X152198826Y-99205142D01*
X152195316Y-99228803D01*
X152189504Y-99252007D01*
X152181446Y-99274529D01*
X152171218Y-99296153D01*
X152158921Y-99316670D01*
X152144671Y-99335883D01*
X152128607Y-99353607D01*
X152110883Y-99369671D01*
X152091670Y-99383921D01*
X152071153Y-99396218D01*
X152049529Y-99406446D01*
X152027007Y-99414504D01*
X152003803Y-99420316D01*
X151980142Y-99423826D01*
X151956250Y-99425000D01*
X151043750Y-99425000D01*
X151019858Y-99423826D01*
X150996197Y-99420316D01*
X150972993Y-99414504D01*
X150950471Y-99406446D01*
X150928847Y-99396218D01*
X150908330Y-99383921D01*
X150889117Y-99369671D01*
X150871393Y-99353607D01*
X150855329Y-99335883D01*
X150841079Y-99316670D01*
X150828782Y-99296153D01*
X150818554Y-99274529D01*
X150810496Y-99252007D01*
X150804684Y-99228803D01*
X150801174Y-99205142D01*
X150800000Y-99181250D01*
X150800000Y-98693750D01*
X150801174Y-98669858D01*
X150804684Y-98646197D01*
X150810496Y-98622993D01*
X150818554Y-98600471D01*
X150828782Y-98578847D01*
X150841079Y-98558330D01*
X150855329Y-98539117D01*
X150871393Y-98521393D01*
X150889117Y-98505329D01*
X150908330Y-98491079D01*
X150928847Y-98478782D01*
X150950471Y-98468554D01*
X150972993Y-98460496D01*
X150996197Y-98454684D01*
X151019858Y-98451174D01*
X151043750Y-98450000D01*
X151956250Y-98450000D01*
X151980142Y-98451174D01*
X151980142Y-98451174D01*
G37*
D13*
X151500000Y-98937500D03*
D10*
G36*
X151980142Y-96576174D02*
X152003803Y-96579684D01*
X152027007Y-96585496D01*
X152049529Y-96593554D01*
X152071153Y-96603782D01*
X152091670Y-96616079D01*
X152110883Y-96630329D01*
X152128607Y-96646393D01*
X152144671Y-96664117D01*
X152158921Y-96683330D01*
X152171218Y-96703847D01*
X152181446Y-96725471D01*
X152189504Y-96747993D01*
X152195316Y-96771197D01*
X152198826Y-96794858D01*
X152200000Y-96818750D01*
X152200000Y-97306250D01*
X152198826Y-97330142D01*
X152195316Y-97353803D01*
X152189504Y-97377007D01*
X152181446Y-97399529D01*
X152171218Y-97421153D01*
X152158921Y-97441670D01*
X152144671Y-97460883D01*
X152128607Y-97478607D01*
X152110883Y-97494671D01*
X152091670Y-97508921D01*
X152071153Y-97521218D01*
X152049529Y-97531446D01*
X152027007Y-97539504D01*
X152003803Y-97545316D01*
X151980142Y-97548826D01*
X151956250Y-97550000D01*
X151043750Y-97550000D01*
X151019858Y-97548826D01*
X150996197Y-97545316D01*
X150972993Y-97539504D01*
X150950471Y-97531446D01*
X150928847Y-97521218D01*
X150908330Y-97508921D01*
X150889117Y-97494671D01*
X150871393Y-97478607D01*
X150855329Y-97460883D01*
X150841079Y-97441670D01*
X150828782Y-97421153D01*
X150818554Y-97399529D01*
X150810496Y-97377007D01*
X150804684Y-97353803D01*
X150801174Y-97330142D01*
X150800000Y-97306250D01*
X150800000Y-96818750D01*
X150801174Y-96794858D01*
X150804684Y-96771197D01*
X150810496Y-96747993D01*
X150818554Y-96725471D01*
X150828782Y-96703847D01*
X150841079Y-96683330D01*
X150855329Y-96664117D01*
X150871393Y-96646393D01*
X150889117Y-96630329D01*
X150908330Y-96616079D01*
X150928847Y-96603782D01*
X150950471Y-96593554D01*
X150972993Y-96585496D01*
X150996197Y-96579684D01*
X151019858Y-96576174D01*
X151043750Y-96575000D01*
X151956250Y-96575000D01*
X151980142Y-96576174D01*
X151980142Y-96576174D01*
G37*
D13*
X151500000Y-97062500D03*
G04 #@! TD*
D10*
G04 #@! TO.C,R3*
G36*
X157705142Y-85801174D02*
X157728803Y-85804684D01*
X157752007Y-85810496D01*
X157774529Y-85818554D01*
X157796153Y-85828782D01*
X157816670Y-85841079D01*
X157835883Y-85855329D01*
X157853607Y-85871393D01*
X157869671Y-85889117D01*
X157883921Y-85908330D01*
X157896218Y-85928847D01*
X157906446Y-85950471D01*
X157914504Y-85972993D01*
X157920316Y-85996197D01*
X157923826Y-86019858D01*
X157925000Y-86043750D01*
X157925000Y-86956250D01*
X157923826Y-86980142D01*
X157920316Y-87003803D01*
X157914504Y-87027007D01*
X157906446Y-87049529D01*
X157896218Y-87071153D01*
X157883921Y-87091670D01*
X157869671Y-87110883D01*
X157853607Y-87128607D01*
X157835883Y-87144671D01*
X157816670Y-87158921D01*
X157796153Y-87171218D01*
X157774529Y-87181446D01*
X157752007Y-87189504D01*
X157728803Y-87195316D01*
X157705142Y-87198826D01*
X157681250Y-87200000D01*
X157193750Y-87200000D01*
X157169858Y-87198826D01*
X157146197Y-87195316D01*
X157122993Y-87189504D01*
X157100471Y-87181446D01*
X157078847Y-87171218D01*
X157058330Y-87158921D01*
X157039117Y-87144671D01*
X157021393Y-87128607D01*
X157005329Y-87110883D01*
X156991079Y-87091670D01*
X156978782Y-87071153D01*
X156968554Y-87049529D01*
X156960496Y-87027007D01*
X156954684Y-87003803D01*
X156951174Y-86980142D01*
X156950000Y-86956250D01*
X156950000Y-86043750D01*
X156951174Y-86019858D01*
X156954684Y-85996197D01*
X156960496Y-85972993D01*
X156968554Y-85950471D01*
X156978782Y-85928847D01*
X156991079Y-85908330D01*
X157005329Y-85889117D01*
X157021393Y-85871393D01*
X157039117Y-85855329D01*
X157058330Y-85841079D01*
X157078847Y-85828782D01*
X157100471Y-85818554D01*
X157122993Y-85810496D01*
X157146197Y-85804684D01*
X157169858Y-85801174D01*
X157193750Y-85800000D01*
X157681250Y-85800000D01*
X157705142Y-85801174D01*
X157705142Y-85801174D01*
G37*
D13*
X157437500Y-86500000D03*
D10*
G36*
X155830142Y-85801174D02*
X155853803Y-85804684D01*
X155877007Y-85810496D01*
X155899529Y-85818554D01*
X155921153Y-85828782D01*
X155941670Y-85841079D01*
X155960883Y-85855329D01*
X155978607Y-85871393D01*
X155994671Y-85889117D01*
X156008921Y-85908330D01*
X156021218Y-85928847D01*
X156031446Y-85950471D01*
X156039504Y-85972993D01*
X156045316Y-85996197D01*
X156048826Y-86019858D01*
X156050000Y-86043750D01*
X156050000Y-86956250D01*
X156048826Y-86980142D01*
X156045316Y-87003803D01*
X156039504Y-87027007D01*
X156031446Y-87049529D01*
X156021218Y-87071153D01*
X156008921Y-87091670D01*
X155994671Y-87110883D01*
X155978607Y-87128607D01*
X155960883Y-87144671D01*
X155941670Y-87158921D01*
X155921153Y-87171218D01*
X155899529Y-87181446D01*
X155877007Y-87189504D01*
X155853803Y-87195316D01*
X155830142Y-87198826D01*
X155806250Y-87200000D01*
X155318750Y-87200000D01*
X155294858Y-87198826D01*
X155271197Y-87195316D01*
X155247993Y-87189504D01*
X155225471Y-87181446D01*
X155203847Y-87171218D01*
X155183330Y-87158921D01*
X155164117Y-87144671D01*
X155146393Y-87128607D01*
X155130329Y-87110883D01*
X155116079Y-87091670D01*
X155103782Y-87071153D01*
X155093554Y-87049529D01*
X155085496Y-87027007D01*
X155079684Y-87003803D01*
X155076174Y-86980142D01*
X155075000Y-86956250D01*
X155075000Y-86043750D01*
X155076174Y-86019858D01*
X155079684Y-85996197D01*
X155085496Y-85972993D01*
X155093554Y-85950471D01*
X155103782Y-85928847D01*
X155116079Y-85908330D01*
X155130329Y-85889117D01*
X155146393Y-85871393D01*
X155164117Y-85855329D01*
X155183330Y-85841079D01*
X155203847Y-85828782D01*
X155225471Y-85818554D01*
X155247993Y-85810496D01*
X155271197Y-85804684D01*
X155294858Y-85801174D01*
X155318750Y-85800000D01*
X155806250Y-85800000D01*
X155830142Y-85801174D01*
X155830142Y-85801174D01*
G37*
D13*
X155562500Y-86500000D03*
G04 #@! TD*
D10*
G04 #@! TO.C,R4*
G36*
X157480142Y-55826174D02*
X157503803Y-55829684D01*
X157527007Y-55835496D01*
X157549529Y-55843554D01*
X157571153Y-55853782D01*
X157591670Y-55866079D01*
X157610883Y-55880329D01*
X157628607Y-55896393D01*
X157644671Y-55914117D01*
X157658921Y-55933330D01*
X157671218Y-55953847D01*
X157681446Y-55975471D01*
X157689504Y-55997993D01*
X157695316Y-56021197D01*
X157698826Y-56044858D01*
X157700000Y-56068750D01*
X157700000Y-56556250D01*
X157698826Y-56580142D01*
X157695316Y-56603803D01*
X157689504Y-56627007D01*
X157681446Y-56649529D01*
X157671218Y-56671153D01*
X157658921Y-56691670D01*
X157644671Y-56710883D01*
X157628607Y-56728607D01*
X157610883Y-56744671D01*
X157591670Y-56758921D01*
X157571153Y-56771218D01*
X157549529Y-56781446D01*
X157527007Y-56789504D01*
X157503803Y-56795316D01*
X157480142Y-56798826D01*
X157456250Y-56800000D01*
X156543750Y-56800000D01*
X156519858Y-56798826D01*
X156496197Y-56795316D01*
X156472993Y-56789504D01*
X156450471Y-56781446D01*
X156428847Y-56771218D01*
X156408330Y-56758921D01*
X156389117Y-56744671D01*
X156371393Y-56728607D01*
X156355329Y-56710883D01*
X156341079Y-56691670D01*
X156328782Y-56671153D01*
X156318554Y-56649529D01*
X156310496Y-56627007D01*
X156304684Y-56603803D01*
X156301174Y-56580142D01*
X156300000Y-56556250D01*
X156300000Y-56068750D01*
X156301174Y-56044858D01*
X156304684Y-56021197D01*
X156310496Y-55997993D01*
X156318554Y-55975471D01*
X156328782Y-55953847D01*
X156341079Y-55933330D01*
X156355329Y-55914117D01*
X156371393Y-55896393D01*
X156389117Y-55880329D01*
X156408330Y-55866079D01*
X156428847Y-55853782D01*
X156450471Y-55843554D01*
X156472993Y-55835496D01*
X156496197Y-55829684D01*
X156519858Y-55826174D01*
X156543750Y-55825000D01*
X157456250Y-55825000D01*
X157480142Y-55826174D01*
X157480142Y-55826174D01*
G37*
D13*
X157000000Y-56312500D03*
D10*
G36*
X157480142Y-57701174D02*
X157503803Y-57704684D01*
X157527007Y-57710496D01*
X157549529Y-57718554D01*
X157571153Y-57728782D01*
X157591670Y-57741079D01*
X157610883Y-57755329D01*
X157628607Y-57771393D01*
X157644671Y-57789117D01*
X157658921Y-57808330D01*
X157671218Y-57828847D01*
X157681446Y-57850471D01*
X157689504Y-57872993D01*
X157695316Y-57896197D01*
X157698826Y-57919858D01*
X157700000Y-57943750D01*
X157700000Y-58431250D01*
X157698826Y-58455142D01*
X157695316Y-58478803D01*
X157689504Y-58502007D01*
X157681446Y-58524529D01*
X157671218Y-58546153D01*
X157658921Y-58566670D01*
X157644671Y-58585883D01*
X157628607Y-58603607D01*
X157610883Y-58619671D01*
X157591670Y-58633921D01*
X157571153Y-58646218D01*
X157549529Y-58656446D01*
X157527007Y-58664504D01*
X157503803Y-58670316D01*
X157480142Y-58673826D01*
X157456250Y-58675000D01*
X156543750Y-58675000D01*
X156519858Y-58673826D01*
X156496197Y-58670316D01*
X156472993Y-58664504D01*
X156450471Y-58656446D01*
X156428847Y-58646218D01*
X156408330Y-58633921D01*
X156389117Y-58619671D01*
X156371393Y-58603607D01*
X156355329Y-58585883D01*
X156341079Y-58566670D01*
X156328782Y-58546153D01*
X156318554Y-58524529D01*
X156310496Y-58502007D01*
X156304684Y-58478803D01*
X156301174Y-58455142D01*
X156300000Y-58431250D01*
X156300000Y-57943750D01*
X156301174Y-57919858D01*
X156304684Y-57896197D01*
X156310496Y-57872993D01*
X156318554Y-57850471D01*
X156328782Y-57828847D01*
X156341079Y-57808330D01*
X156355329Y-57789117D01*
X156371393Y-57771393D01*
X156389117Y-57755329D01*
X156408330Y-57741079D01*
X156428847Y-57728782D01*
X156450471Y-57718554D01*
X156472993Y-57710496D01*
X156496197Y-57704684D01*
X156519858Y-57701174D01*
X156543750Y-57700000D01*
X157456250Y-57700000D01*
X157480142Y-57701174D01*
X157480142Y-57701174D01*
G37*
D13*
X157000000Y-58187500D03*
G04 #@! TD*
D10*
G04 #@! TO.C,R5*
G36*
X162580142Y-85551174D02*
X162603803Y-85554684D01*
X162627007Y-85560496D01*
X162649529Y-85568554D01*
X162671153Y-85578782D01*
X162691670Y-85591079D01*
X162710883Y-85605329D01*
X162728607Y-85621393D01*
X162744671Y-85639117D01*
X162758921Y-85658330D01*
X162771218Y-85678847D01*
X162781446Y-85700471D01*
X162789504Y-85722993D01*
X162795316Y-85746197D01*
X162798826Y-85769858D01*
X162800000Y-85793750D01*
X162800000Y-86706250D01*
X162798826Y-86730142D01*
X162795316Y-86753803D01*
X162789504Y-86777007D01*
X162781446Y-86799529D01*
X162771218Y-86821153D01*
X162758921Y-86841670D01*
X162744671Y-86860883D01*
X162728607Y-86878607D01*
X162710883Y-86894671D01*
X162691670Y-86908921D01*
X162671153Y-86921218D01*
X162649529Y-86931446D01*
X162627007Y-86939504D01*
X162603803Y-86945316D01*
X162580142Y-86948826D01*
X162556250Y-86950000D01*
X162068750Y-86950000D01*
X162044858Y-86948826D01*
X162021197Y-86945316D01*
X161997993Y-86939504D01*
X161975471Y-86931446D01*
X161953847Y-86921218D01*
X161933330Y-86908921D01*
X161914117Y-86894671D01*
X161896393Y-86878607D01*
X161880329Y-86860883D01*
X161866079Y-86841670D01*
X161853782Y-86821153D01*
X161843554Y-86799529D01*
X161835496Y-86777007D01*
X161829684Y-86753803D01*
X161826174Y-86730142D01*
X161825000Y-86706250D01*
X161825000Y-85793750D01*
X161826174Y-85769858D01*
X161829684Y-85746197D01*
X161835496Y-85722993D01*
X161843554Y-85700471D01*
X161853782Y-85678847D01*
X161866079Y-85658330D01*
X161880329Y-85639117D01*
X161896393Y-85621393D01*
X161914117Y-85605329D01*
X161933330Y-85591079D01*
X161953847Y-85578782D01*
X161975471Y-85568554D01*
X161997993Y-85560496D01*
X162021197Y-85554684D01*
X162044858Y-85551174D01*
X162068750Y-85550000D01*
X162556250Y-85550000D01*
X162580142Y-85551174D01*
X162580142Y-85551174D01*
G37*
D13*
X162312500Y-86250000D03*
D10*
G36*
X164455142Y-85551174D02*
X164478803Y-85554684D01*
X164502007Y-85560496D01*
X164524529Y-85568554D01*
X164546153Y-85578782D01*
X164566670Y-85591079D01*
X164585883Y-85605329D01*
X164603607Y-85621393D01*
X164619671Y-85639117D01*
X164633921Y-85658330D01*
X164646218Y-85678847D01*
X164656446Y-85700471D01*
X164664504Y-85722993D01*
X164670316Y-85746197D01*
X164673826Y-85769858D01*
X164675000Y-85793750D01*
X164675000Y-86706250D01*
X164673826Y-86730142D01*
X164670316Y-86753803D01*
X164664504Y-86777007D01*
X164656446Y-86799529D01*
X164646218Y-86821153D01*
X164633921Y-86841670D01*
X164619671Y-86860883D01*
X164603607Y-86878607D01*
X164585883Y-86894671D01*
X164566670Y-86908921D01*
X164546153Y-86921218D01*
X164524529Y-86931446D01*
X164502007Y-86939504D01*
X164478803Y-86945316D01*
X164455142Y-86948826D01*
X164431250Y-86950000D01*
X163943750Y-86950000D01*
X163919858Y-86948826D01*
X163896197Y-86945316D01*
X163872993Y-86939504D01*
X163850471Y-86931446D01*
X163828847Y-86921218D01*
X163808330Y-86908921D01*
X163789117Y-86894671D01*
X163771393Y-86878607D01*
X163755329Y-86860883D01*
X163741079Y-86841670D01*
X163728782Y-86821153D01*
X163718554Y-86799529D01*
X163710496Y-86777007D01*
X163704684Y-86753803D01*
X163701174Y-86730142D01*
X163700000Y-86706250D01*
X163700000Y-85793750D01*
X163701174Y-85769858D01*
X163704684Y-85746197D01*
X163710496Y-85722993D01*
X163718554Y-85700471D01*
X163728782Y-85678847D01*
X163741079Y-85658330D01*
X163755329Y-85639117D01*
X163771393Y-85621393D01*
X163789117Y-85605329D01*
X163808330Y-85591079D01*
X163828847Y-85578782D01*
X163850471Y-85568554D01*
X163872993Y-85560496D01*
X163896197Y-85554684D01*
X163919858Y-85551174D01*
X163943750Y-85550000D01*
X164431250Y-85550000D01*
X164455142Y-85551174D01*
X164455142Y-85551174D01*
G37*
D13*
X164187500Y-86250000D03*
G04 #@! TD*
D10*
G04 #@! TO.C,R6*
G36*
X164455142Y-98551174D02*
X164478803Y-98554684D01*
X164502007Y-98560496D01*
X164524529Y-98568554D01*
X164546153Y-98578782D01*
X164566670Y-98591079D01*
X164585883Y-98605329D01*
X164603607Y-98621393D01*
X164619671Y-98639117D01*
X164633921Y-98658330D01*
X164646218Y-98678847D01*
X164656446Y-98700471D01*
X164664504Y-98722993D01*
X164670316Y-98746197D01*
X164673826Y-98769858D01*
X164675000Y-98793750D01*
X164675000Y-99706250D01*
X164673826Y-99730142D01*
X164670316Y-99753803D01*
X164664504Y-99777007D01*
X164656446Y-99799529D01*
X164646218Y-99821153D01*
X164633921Y-99841670D01*
X164619671Y-99860883D01*
X164603607Y-99878607D01*
X164585883Y-99894671D01*
X164566670Y-99908921D01*
X164546153Y-99921218D01*
X164524529Y-99931446D01*
X164502007Y-99939504D01*
X164478803Y-99945316D01*
X164455142Y-99948826D01*
X164431250Y-99950000D01*
X163943750Y-99950000D01*
X163919858Y-99948826D01*
X163896197Y-99945316D01*
X163872993Y-99939504D01*
X163850471Y-99931446D01*
X163828847Y-99921218D01*
X163808330Y-99908921D01*
X163789117Y-99894671D01*
X163771393Y-99878607D01*
X163755329Y-99860883D01*
X163741079Y-99841670D01*
X163728782Y-99821153D01*
X163718554Y-99799529D01*
X163710496Y-99777007D01*
X163704684Y-99753803D01*
X163701174Y-99730142D01*
X163700000Y-99706250D01*
X163700000Y-98793750D01*
X163701174Y-98769858D01*
X163704684Y-98746197D01*
X163710496Y-98722993D01*
X163718554Y-98700471D01*
X163728782Y-98678847D01*
X163741079Y-98658330D01*
X163755329Y-98639117D01*
X163771393Y-98621393D01*
X163789117Y-98605329D01*
X163808330Y-98591079D01*
X163828847Y-98578782D01*
X163850471Y-98568554D01*
X163872993Y-98560496D01*
X163896197Y-98554684D01*
X163919858Y-98551174D01*
X163943750Y-98550000D01*
X164431250Y-98550000D01*
X164455142Y-98551174D01*
X164455142Y-98551174D01*
G37*
D13*
X164187500Y-99250000D03*
D10*
G36*
X162580142Y-98551174D02*
X162603803Y-98554684D01*
X162627007Y-98560496D01*
X162649529Y-98568554D01*
X162671153Y-98578782D01*
X162691670Y-98591079D01*
X162710883Y-98605329D01*
X162728607Y-98621393D01*
X162744671Y-98639117D01*
X162758921Y-98658330D01*
X162771218Y-98678847D01*
X162781446Y-98700471D01*
X162789504Y-98722993D01*
X162795316Y-98746197D01*
X162798826Y-98769858D01*
X162800000Y-98793750D01*
X162800000Y-99706250D01*
X162798826Y-99730142D01*
X162795316Y-99753803D01*
X162789504Y-99777007D01*
X162781446Y-99799529D01*
X162771218Y-99821153D01*
X162758921Y-99841670D01*
X162744671Y-99860883D01*
X162728607Y-99878607D01*
X162710883Y-99894671D01*
X162691670Y-99908921D01*
X162671153Y-99921218D01*
X162649529Y-99931446D01*
X162627007Y-99939504D01*
X162603803Y-99945316D01*
X162580142Y-99948826D01*
X162556250Y-99950000D01*
X162068750Y-99950000D01*
X162044858Y-99948826D01*
X162021197Y-99945316D01*
X161997993Y-99939504D01*
X161975471Y-99931446D01*
X161953847Y-99921218D01*
X161933330Y-99908921D01*
X161914117Y-99894671D01*
X161896393Y-99878607D01*
X161880329Y-99860883D01*
X161866079Y-99841670D01*
X161853782Y-99821153D01*
X161843554Y-99799529D01*
X161835496Y-99777007D01*
X161829684Y-99753803D01*
X161826174Y-99730142D01*
X161825000Y-99706250D01*
X161825000Y-98793750D01*
X161826174Y-98769858D01*
X161829684Y-98746197D01*
X161835496Y-98722993D01*
X161843554Y-98700471D01*
X161853782Y-98678847D01*
X161866079Y-98658330D01*
X161880329Y-98639117D01*
X161896393Y-98621393D01*
X161914117Y-98605329D01*
X161933330Y-98591079D01*
X161953847Y-98578782D01*
X161975471Y-98568554D01*
X161997993Y-98560496D01*
X162021197Y-98554684D01*
X162044858Y-98551174D01*
X162068750Y-98550000D01*
X162556250Y-98550000D01*
X162580142Y-98551174D01*
X162580142Y-98551174D01*
G37*
D13*
X162312500Y-99250000D03*
G04 #@! TD*
D10*
G04 #@! TO.C,R7*
G36*
X158205142Y-98301174D02*
X158228803Y-98304684D01*
X158252007Y-98310496D01*
X158274529Y-98318554D01*
X158296153Y-98328782D01*
X158316670Y-98341079D01*
X158335883Y-98355329D01*
X158353607Y-98371393D01*
X158369671Y-98389117D01*
X158383921Y-98408330D01*
X158396218Y-98428847D01*
X158406446Y-98450471D01*
X158414504Y-98472993D01*
X158420316Y-98496197D01*
X158423826Y-98519858D01*
X158425000Y-98543750D01*
X158425000Y-99456250D01*
X158423826Y-99480142D01*
X158420316Y-99503803D01*
X158414504Y-99527007D01*
X158406446Y-99549529D01*
X158396218Y-99571153D01*
X158383921Y-99591670D01*
X158369671Y-99610883D01*
X158353607Y-99628607D01*
X158335883Y-99644671D01*
X158316670Y-99658921D01*
X158296153Y-99671218D01*
X158274529Y-99681446D01*
X158252007Y-99689504D01*
X158228803Y-99695316D01*
X158205142Y-99698826D01*
X158181250Y-99700000D01*
X157693750Y-99700000D01*
X157669858Y-99698826D01*
X157646197Y-99695316D01*
X157622993Y-99689504D01*
X157600471Y-99681446D01*
X157578847Y-99671218D01*
X157558330Y-99658921D01*
X157539117Y-99644671D01*
X157521393Y-99628607D01*
X157505329Y-99610883D01*
X157491079Y-99591670D01*
X157478782Y-99571153D01*
X157468554Y-99549529D01*
X157460496Y-99527007D01*
X157454684Y-99503803D01*
X157451174Y-99480142D01*
X157450000Y-99456250D01*
X157450000Y-98543750D01*
X157451174Y-98519858D01*
X157454684Y-98496197D01*
X157460496Y-98472993D01*
X157468554Y-98450471D01*
X157478782Y-98428847D01*
X157491079Y-98408330D01*
X157505329Y-98389117D01*
X157521393Y-98371393D01*
X157539117Y-98355329D01*
X157558330Y-98341079D01*
X157578847Y-98328782D01*
X157600471Y-98318554D01*
X157622993Y-98310496D01*
X157646197Y-98304684D01*
X157669858Y-98301174D01*
X157693750Y-98300000D01*
X158181250Y-98300000D01*
X158205142Y-98301174D01*
X158205142Y-98301174D01*
G37*
D13*
X157937500Y-99000000D03*
D10*
G36*
X156330142Y-98301174D02*
X156353803Y-98304684D01*
X156377007Y-98310496D01*
X156399529Y-98318554D01*
X156421153Y-98328782D01*
X156441670Y-98341079D01*
X156460883Y-98355329D01*
X156478607Y-98371393D01*
X156494671Y-98389117D01*
X156508921Y-98408330D01*
X156521218Y-98428847D01*
X156531446Y-98450471D01*
X156539504Y-98472993D01*
X156545316Y-98496197D01*
X156548826Y-98519858D01*
X156550000Y-98543750D01*
X156550000Y-99456250D01*
X156548826Y-99480142D01*
X156545316Y-99503803D01*
X156539504Y-99527007D01*
X156531446Y-99549529D01*
X156521218Y-99571153D01*
X156508921Y-99591670D01*
X156494671Y-99610883D01*
X156478607Y-99628607D01*
X156460883Y-99644671D01*
X156441670Y-99658921D01*
X156421153Y-99671218D01*
X156399529Y-99681446D01*
X156377007Y-99689504D01*
X156353803Y-99695316D01*
X156330142Y-99698826D01*
X156306250Y-99700000D01*
X155818750Y-99700000D01*
X155794858Y-99698826D01*
X155771197Y-99695316D01*
X155747993Y-99689504D01*
X155725471Y-99681446D01*
X155703847Y-99671218D01*
X155683330Y-99658921D01*
X155664117Y-99644671D01*
X155646393Y-99628607D01*
X155630329Y-99610883D01*
X155616079Y-99591670D01*
X155603782Y-99571153D01*
X155593554Y-99549529D01*
X155585496Y-99527007D01*
X155579684Y-99503803D01*
X155576174Y-99480142D01*
X155575000Y-99456250D01*
X155575000Y-98543750D01*
X155576174Y-98519858D01*
X155579684Y-98496197D01*
X155585496Y-98472993D01*
X155593554Y-98450471D01*
X155603782Y-98428847D01*
X155616079Y-98408330D01*
X155630329Y-98389117D01*
X155646393Y-98371393D01*
X155664117Y-98355329D01*
X155683330Y-98341079D01*
X155703847Y-98328782D01*
X155725471Y-98318554D01*
X155747993Y-98310496D01*
X155771197Y-98304684D01*
X155794858Y-98301174D01*
X155818750Y-98300000D01*
X156306250Y-98300000D01*
X156330142Y-98301174D01*
X156330142Y-98301174D01*
G37*
D13*
X156062500Y-99000000D03*
G04 #@! TD*
D10*
G04 #@! TO.C,R8*
G36*
X158230142Y-49326174D02*
X158253803Y-49329684D01*
X158277007Y-49335496D01*
X158299529Y-49343554D01*
X158321153Y-49353782D01*
X158341670Y-49366079D01*
X158360883Y-49380329D01*
X158378607Y-49396393D01*
X158394671Y-49414117D01*
X158408921Y-49433330D01*
X158421218Y-49453847D01*
X158431446Y-49475471D01*
X158439504Y-49497993D01*
X158445316Y-49521197D01*
X158448826Y-49544858D01*
X158450000Y-49568750D01*
X158450000Y-50056250D01*
X158448826Y-50080142D01*
X158445316Y-50103803D01*
X158439504Y-50127007D01*
X158431446Y-50149529D01*
X158421218Y-50171153D01*
X158408921Y-50191670D01*
X158394671Y-50210883D01*
X158378607Y-50228607D01*
X158360883Y-50244671D01*
X158341670Y-50258921D01*
X158321153Y-50271218D01*
X158299529Y-50281446D01*
X158277007Y-50289504D01*
X158253803Y-50295316D01*
X158230142Y-50298826D01*
X158206250Y-50300000D01*
X157293750Y-50300000D01*
X157269858Y-50298826D01*
X157246197Y-50295316D01*
X157222993Y-50289504D01*
X157200471Y-50281446D01*
X157178847Y-50271218D01*
X157158330Y-50258921D01*
X157139117Y-50244671D01*
X157121393Y-50228607D01*
X157105329Y-50210883D01*
X157091079Y-50191670D01*
X157078782Y-50171153D01*
X157068554Y-50149529D01*
X157060496Y-50127007D01*
X157054684Y-50103803D01*
X157051174Y-50080142D01*
X157050000Y-50056250D01*
X157050000Y-49568750D01*
X157051174Y-49544858D01*
X157054684Y-49521197D01*
X157060496Y-49497993D01*
X157068554Y-49475471D01*
X157078782Y-49453847D01*
X157091079Y-49433330D01*
X157105329Y-49414117D01*
X157121393Y-49396393D01*
X157139117Y-49380329D01*
X157158330Y-49366079D01*
X157178847Y-49353782D01*
X157200471Y-49343554D01*
X157222993Y-49335496D01*
X157246197Y-49329684D01*
X157269858Y-49326174D01*
X157293750Y-49325000D01*
X158206250Y-49325000D01*
X158230142Y-49326174D01*
X158230142Y-49326174D01*
G37*
D13*
X157750000Y-49812500D03*
D10*
G36*
X158230142Y-51201174D02*
X158253803Y-51204684D01*
X158277007Y-51210496D01*
X158299529Y-51218554D01*
X158321153Y-51228782D01*
X158341670Y-51241079D01*
X158360883Y-51255329D01*
X158378607Y-51271393D01*
X158394671Y-51289117D01*
X158408921Y-51308330D01*
X158421218Y-51328847D01*
X158431446Y-51350471D01*
X158439504Y-51372993D01*
X158445316Y-51396197D01*
X158448826Y-51419858D01*
X158450000Y-51443750D01*
X158450000Y-51931250D01*
X158448826Y-51955142D01*
X158445316Y-51978803D01*
X158439504Y-52002007D01*
X158431446Y-52024529D01*
X158421218Y-52046153D01*
X158408921Y-52066670D01*
X158394671Y-52085883D01*
X158378607Y-52103607D01*
X158360883Y-52119671D01*
X158341670Y-52133921D01*
X158321153Y-52146218D01*
X158299529Y-52156446D01*
X158277007Y-52164504D01*
X158253803Y-52170316D01*
X158230142Y-52173826D01*
X158206250Y-52175000D01*
X157293750Y-52175000D01*
X157269858Y-52173826D01*
X157246197Y-52170316D01*
X157222993Y-52164504D01*
X157200471Y-52156446D01*
X157178847Y-52146218D01*
X157158330Y-52133921D01*
X157139117Y-52119671D01*
X157121393Y-52103607D01*
X157105329Y-52085883D01*
X157091079Y-52066670D01*
X157078782Y-52046153D01*
X157068554Y-52024529D01*
X157060496Y-52002007D01*
X157054684Y-51978803D01*
X157051174Y-51955142D01*
X157050000Y-51931250D01*
X157050000Y-51443750D01*
X157051174Y-51419858D01*
X157054684Y-51396197D01*
X157060496Y-51372993D01*
X157068554Y-51350471D01*
X157078782Y-51328847D01*
X157091079Y-51308330D01*
X157105329Y-51289117D01*
X157121393Y-51271393D01*
X157139117Y-51255329D01*
X157158330Y-51241079D01*
X157178847Y-51228782D01*
X157200471Y-51218554D01*
X157222993Y-51210496D01*
X157246197Y-51204684D01*
X157269858Y-51201174D01*
X157293750Y-51200000D01*
X158206250Y-51200000D01*
X158230142Y-51201174D01*
X158230142Y-51201174D01*
G37*
D13*
X157750000Y-51687500D03*
G04 #@! TD*
D10*
G04 #@! TO.C,R9*
G36*
X172230142Y-55826174D02*
X172253803Y-55829684D01*
X172277007Y-55835496D01*
X172299529Y-55843554D01*
X172321153Y-55853782D01*
X172341670Y-55866079D01*
X172360883Y-55880329D01*
X172378607Y-55896393D01*
X172394671Y-55914117D01*
X172408921Y-55933330D01*
X172421218Y-55953847D01*
X172431446Y-55975471D01*
X172439504Y-55997993D01*
X172445316Y-56021197D01*
X172448826Y-56044858D01*
X172450000Y-56068750D01*
X172450000Y-56556250D01*
X172448826Y-56580142D01*
X172445316Y-56603803D01*
X172439504Y-56627007D01*
X172431446Y-56649529D01*
X172421218Y-56671153D01*
X172408921Y-56691670D01*
X172394671Y-56710883D01*
X172378607Y-56728607D01*
X172360883Y-56744671D01*
X172341670Y-56758921D01*
X172321153Y-56771218D01*
X172299529Y-56781446D01*
X172277007Y-56789504D01*
X172253803Y-56795316D01*
X172230142Y-56798826D01*
X172206250Y-56800000D01*
X171293750Y-56800000D01*
X171269858Y-56798826D01*
X171246197Y-56795316D01*
X171222993Y-56789504D01*
X171200471Y-56781446D01*
X171178847Y-56771218D01*
X171158330Y-56758921D01*
X171139117Y-56744671D01*
X171121393Y-56728607D01*
X171105329Y-56710883D01*
X171091079Y-56691670D01*
X171078782Y-56671153D01*
X171068554Y-56649529D01*
X171060496Y-56627007D01*
X171054684Y-56603803D01*
X171051174Y-56580142D01*
X171050000Y-56556250D01*
X171050000Y-56068750D01*
X171051174Y-56044858D01*
X171054684Y-56021197D01*
X171060496Y-55997993D01*
X171068554Y-55975471D01*
X171078782Y-55953847D01*
X171091079Y-55933330D01*
X171105329Y-55914117D01*
X171121393Y-55896393D01*
X171139117Y-55880329D01*
X171158330Y-55866079D01*
X171178847Y-55853782D01*
X171200471Y-55843554D01*
X171222993Y-55835496D01*
X171246197Y-55829684D01*
X171269858Y-55826174D01*
X171293750Y-55825000D01*
X172206250Y-55825000D01*
X172230142Y-55826174D01*
X172230142Y-55826174D01*
G37*
D13*
X171750000Y-56312500D03*
D10*
G36*
X172230142Y-57701174D02*
X172253803Y-57704684D01*
X172277007Y-57710496D01*
X172299529Y-57718554D01*
X172321153Y-57728782D01*
X172341670Y-57741079D01*
X172360883Y-57755329D01*
X172378607Y-57771393D01*
X172394671Y-57789117D01*
X172408921Y-57808330D01*
X172421218Y-57828847D01*
X172431446Y-57850471D01*
X172439504Y-57872993D01*
X172445316Y-57896197D01*
X172448826Y-57919858D01*
X172450000Y-57943750D01*
X172450000Y-58431250D01*
X172448826Y-58455142D01*
X172445316Y-58478803D01*
X172439504Y-58502007D01*
X172431446Y-58524529D01*
X172421218Y-58546153D01*
X172408921Y-58566670D01*
X172394671Y-58585883D01*
X172378607Y-58603607D01*
X172360883Y-58619671D01*
X172341670Y-58633921D01*
X172321153Y-58646218D01*
X172299529Y-58656446D01*
X172277007Y-58664504D01*
X172253803Y-58670316D01*
X172230142Y-58673826D01*
X172206250Y-58675000D01*
X171293750Y-58675000D01*
X171269858Y-58673826D01*
X171246197Y-58670316D01*
X171222993Y-58664504D01*
X171200471Y-58656446D01*
X171178847Y-58646218D01*
X171158330Y-58633921D01*
X171139117Y-58619671D01*
X171121393Y-58603607D01*
X171105329Y-58585883D01*
X171091079Y-58566670D01*
X171078782Y-58546153D01*
X171068554Y-58524529D01*
X171060496Y-58502007D01*
X171054684Y-58478803D01*
X171051174Y-58455142D01*
X171050000Y-58431250D01*
X171050000Y-57943750D01*
X171051174Y-57919858D01*
X171054684Y-57896197D01*
X171060496Y-57872993D01*
X171068554Y-57850471D01*
X171078782Y-57828847D01*
X171091079Y-57808330D01*
X171105329Y-57789117D01*
X171121393Y-57771393D01*
X171139117Y-57755329D01*
X171158330Y-57741079D01*
X171178847Y-57728782D01*
X171200471Y-57718554D01*
X171222993Y-57710496D01*
X171246197Y-57704684D01*
X171269858Y-57701174D01*
X171293750Y-57700000D01*
X172206250Y-57700000D01*
X172230142Y-57701174D01*
X172230142Y-57701174D01*
G37*
D13*
X171750000Y-58187500D03*
G04 #@! TD*
D10*
G04 #@! TO.C,R10*
G36*
X171980142Y-51451174D02*
X172003803Y-51454684D01*
X172027007Y-51460496D01*
X172049529Y-51468554D01*
X172071153Y-51478782D01*
X172091670Y-51491079D01*
X172110883Y-51505329D01*
X172128607Y-51521393D01*
X172144671Y-51539117D01*
X172158921Y-51558330D01*
X172171218Y-51578847D01*
X172181446Y-51600471D01*
X172189504Y-51622993D01*
X172195316Y-51646197D01*
X172198826Y-51669858D01*
X172200000Y-51693750D01*
X172200000Y-52181250D01*
X172198826Y-52205142D01*
X172195316Y-52228803D01*
X172189504Y-52252007D01*
X172181446Y-52274529D01*
X172171218Y-52296153D01*
X172158921Y-52316670D01*
X172144671Y-52335883D01*
X172128607Y-52353607D01*
X172110883Y-52369671D01*
X172091670Y-52383921D01*
X172071153Y-52396218D01*
X172049529Y-52406446D01*
X172027007Y-52414504D01*
X172003803Y-52420316D01*
X171980142Y-52423826D01*
X171956250Y-52425000D01*
X171043750Y-52425000D01*
X171019858Y-52423826D01*
X170996197Y-52420316D01*
X170972993Y-52414504D01*
X170950471Y-52406446D01*
X170928847Y-52396218D01*
X170908330Y-52383921D01*
X170889117Y-52369671D01*
X170871393Y-52353607D01*
X170855329Y-52335883D01*
X170841079Y-52316670D01*
X170828782Y-52296153D01*
X170818554Y-52274529D01*
X170810496Y-52252007D01*
X170804684Y-52228803D01*
X170801174Y-52205142D01*
X170800000Y-52181250D01*
X170800000Y-51693750D01*
X170801174Y-51669858D01*
X170804684Y-51646197D01*
X170810496Y-51622993D01*
X170818554Y-51600471D01*
X170828782Y-51578847D01*
X170841079Y-51558330D01*
X170855329Y-51539117D01*
X170871393Y-51521393D01*
X170889117Y-51505329D01*
X170908330Y-51491079D01*
X170928847Y-51478782D01*
X170950471Y-51468554D01*
X170972993Y-51460496D01*
X170996197Y-51454684D01*
X171019858Y-51451174D01*
X171043750Y-51450000D01*
X171956250Y-51450000D01*
X171980142Y-51451174D01*
X171980142Y-51451174D01*
G37*
D13*
X171500000Y-51937500D03*
D10*
G36*
X171980142Y-49576174D02*
X172003803Y-49579684D01*
X172027007Y-49585496D01*
X172049529Y-49593554D01*
X172071153Y-49603782D01*
X172091670Y-49616079D01*
X172110883Y-49630329D01*
X172128607Y-49646393D01*
X172144671Y-49664117D01*
X172158921Y-49683330D01*
X172171218Y-49703847D01*
X172181446Y-49725471D01*
X172189504Y-49747993D01*
X172195316Y-49771197D01*
X172198826Y-49794858D01*
X172200000Y-49818750D01*
X172200000Y-50306250D01*
X172198826Y-50330142D01*
X172195316Y-50353803D01*
X172189504Y-50377007D01*
X172181446Y-50399529D01*
X172171218Y-50421153D01*
X172158921Y-50441670D01*
X172144671Y-50460883D01*
X172128607Y-50478607D01*
X172110883Y-50494671D01*
X172091670Y-50508921D01*
X172071153Y-50521218D01*
X172049529Y-50531446D01*
X172027007Y-50539504D01*
X172003803Y-50545316D01*
X171980142Y-50548826D01*
X171956250Y-50550000D01*
X171043750Y-50550000D01*
X171019858Y-50548826D01*
X170996197Y-50545316D01*
X170972993Y-50539504D01*
X170950471Y-50531446D01*
X170928847Y-50521218D01*
X170908330Y-50508921D01*
X170889117Y-50494671D01*
X170871393Y-50478607D01*
X170855329Y-50460883D01*
X170841079Y-50441670D01*
X170828782Y-50421153D01*
X170818554Y-50399529D01*
X170810496Y-50377007D01*
X170804684Y-50353803D01*
X170801174Y-50330142D01*
X170800000Y-50306250D01*
X170800000Y-49818750D01*
X170801174Y-49794858D01*
X170804684Y-49771197D01*
X170810496Y-49747993D01*
X170818554Y-49725471D01*
X170828782Y-49703847D01*
X170841079Y-49683330D01*
X170855329Y-49664117D01*
X170871393Y-49646393D01*
X170889117Y-49630329D01*
X170908330Y-49616079D01*
X170928847Y-49603782D01*
X170950471Y-49593554D01*
X170972993Y-49585496D01*
X170996197Y-49579684D01*
X171019858Y-49576174D01*
X171043750Y-49575000D01*
X171956250Y-49575000D01*
X171980142Y-49576174D01*
X171980142Y-49576174D01*
G37*
D13*
X171500000Y-50062500D03*
G04 #@! TD*
D10*
G04 #@! TO.C,R11*
G36*
X179580142Y-56301174D02*
X179603803Y-56304684D01*
X179627007Y-56310496D01*
X179649529Y-56318554D01*
X179671153Y-56328782D01*
X179691670Y-56341079D01*
X179710883Y-56355329D01*
X179728607Y-56371393D01*
X179744671Y-56389117D01*
X179758921Y-56408330D01*
X179771218Y-56428847D01*
X179781446Y-56450471D01*
X179789504Y-56472993D01*
X179795316Y-56496197D01*
X179798826Y-56519858D01*
X179800000Y-56543750D01*
X179800000Y-57456250D01*
X179798826Y-57480142D01*
X179795316Y-57503803D01*
X179789504Y-57527007D01*
X179781446Y-57549529D01*
X179771218Y-57571153D01*
X179758921Y-57591670D01*
X179744671Y-57610883D01*
X179728607Y-57628607D01*
X179710883Y-57644671D01*
X179691670Y-57658921D01*
X179671153Y-57671218D01*
X179649529Y-57681446D01*
X179627007Y-57689504D01*
X179603803Y-57695316D01*
X179580142Y-57698826D01*
X179556250Y-57700000D01*
X179068750Y-57700000D01*
X179044858Y-57698826D01*
X179021197Y-57695316D01*
X178997993Y-57689504D01*
X178975471Y-57681446D01*
X178953847Y-57671218D01*
X178933330Y-57658921D01*
X178914117Y-57644671D01*
X178896393Y-57628607D01*
X178880329Y-57610883D01*
X178866079Y-57591670D01*
X178853782Y-57571153D01*
X178843554Y-57549529D01*
X178835496Y-57527007D01*
X178829684Y-57503803D01*
X178826174Y-57480142D01*
X178825000Y-57456250D01*
X178825000Y-56543750D01*
X178826174Y-56519858D01*
X178829684Y-56496197D01*
X178835496Y-56472993D01*
X178843554Y-56450471D01*
X178853782Y-56428847D01*
X178866079Y-56408330D01*
X178880329Y-56389117D01*
X178896393Y-56371393D01*
X178914117Y-56355329D01*
X178933330Y-56341079D01*
X178953847Y-56328782D01*
X178975471Y-56318554D01*
X178997993Y-56310496D01*
X179021197Y-56304684D01*
X179044858Y-56301174D01*
X179068750Y-56300000D01*
X179556250Y-56300000D01*
X179580142Y-56301174D01*
X179580142Y-56301174D01*
G37*
D13*
X179312500Y-57000000D03*
D10*
G36*
X181455142Y-56301174D02*
X181478803Y-56304684D01*
X181502007Y-56310496D01*
X181524529Y-56318554D01*
X181546153Y-56328782D01*
X181566670Y-56341079D01*
X181585883Y-56355329D01*
X181603607Y-56371393D01*
X181619671Y-56389117D01*
X181633921Y-56408330D01*
X181646218Y-56428847D01*
X181656446Y-56450471D01*
X181664504Y-56472993D01*
X181670316Y-56496197D01*
X181673826Y-56519858D01*
X181675000Y-56543750D01*
X181675000Y-57456250D01*
X181673826Y-57480142D01*
X181670316Y-57503803D01*
X181664504Y-57527007D01*
X181656446Y-57549529D01*
X181646218Y-57571153D01*
X181633921Y-57591670D01*
X181619671Y-57610883D01*
X181603607Y-57628607D01*
X181585883Y-57644671D01*
X181566670Y-57658921D01*
X181546153Y-57671218D01*
X181524529Y-57681446D01*
X181502007Y-57689504D01*
X181478803Y-57695316D01*
X181455142Y-57698826D01*
X181431250Y-57700000D01*
X180943750Y-57700000D01*
X180919858Y-57698826D01*
X180896197Y-57695316D01*
X180872993Y-57689504D01*
X180850471Y-57681446D01*
X180828847Y-57671218D01*
X180808330Y-57658921D01*
X180789117Y-57644671D01*
X180771393Y-57628607D01*
X180755329Y-57610883D01*
X180741079Y-57591670D01*
X180728782Y-57571153D01*
X180718554Y-57549529D01*
X180710496Y-57527007D01*
X180704684Y-57503803D01*
X180701174Y-57480142D01*
X180700000Y-57456250D01*
X180700000Y-56543750D01*
X180701174Y-56519858D01*
X180704684Y-56496197D01*
X180710496Y-56472993D01*
X180718554Y-56450471D01*
X180728782Y-56428847D01*
X180741079Y-56408330D01*
X180755329Y-56389117D01*
X180771393Y-56371393D01*
X180789117Y-56355329D01*
X180808330Y-56341079D01*
X180828847Y-56328782D01*
X180850471Y-56318554D01*
X180872993Y-56310496D01*
X180896197Y-56304684D01*
X180919858Y-56301174D01*
X180943750Y-56300000D01*
X181431250Y-56300000D01*
X181455142Y-56301174D01*
X181455142Y-56301174D01*
G37*
D13*
X181187500Y-57000000D03*
G04 #@! TD*
D10*
G04 #@! TO.C,R12*
G36*
X174705142Y-96051174D02*
X174728803Y-96054684D01*
X174752007Y-96060496D01*
X174774529Y-96068554D01*
X174796153Y-96078782D01*
X174816670Y-96091079D01*
X174835883Y-96105329D01*
X174853607Y-96121393D01*
X174869671Y-96139117D01*
X174883921Y-96158330D01*
X174896218Y-96178847D01*
X174906446Y-96200471D01*
X174914504Y-96222993D01*
X174920316Y-96246197D01*
X174923826Y-96269858D01*
X174925000Y-96293750D01*
X174925000Y-97206250D01*
X174923826Y-97230142D01*
X174920316Y-97253803D01*
X174914504Y-97277007D01*
X174906446Y-97299529D01*
X174896218Y-97321153D01*
X174883921Y-97341670D01*
X174869671Y-97360883D01*
X174853607Y-97378607D01*
X174835883Y-97394671D01*
X174816670Y-97408921D01*
X174796153Y-97421218D01*
X174774529Y-97431446D01*
X174752007Y-97439504D01*
X174728803Y-97445316D01*
X174705142Y-97448826D01*
X174681250Y-97450000D01*
X174193750Y-97450000D01*
X174169858Y-97448826D01*
X174146197Y-97445316D01*
X174122993Y-97439504D01*
X174100471Y-97431446D01*
X174078847Y-97421218D01*
X174058330Y-97408921D01*
X174039117Y-97394671D01*
X174021393Y-97378607D01*
X174005329Y-97360883D01*
X173991079Y-97341670D01*
X173978782Y-97321153D01*
X173968554Y-97299529D01*
X173960496Y-97277007D01*
X173954684Y-97253803D01*
X173951174Y-97230142D01*
X173950000Y-97206250D01*
X173950000Y-96293750D01*
X173951174Y-96269858D01*
X173954684Y-96246197D01*
X173960496Y-96222993D01*
X173968554Y-96200471D01*
X173978782Y-96178847D01*
X173991079Y-96158330D01*
X174005329Y-96139117D01*
X174021393Y-96121393D01*
X174039117Y-96105329D01*
X174058330Y-96091079D01*
X174078847Y-96078782D01*
X174100471Y-96068554D01*
X174122993Y-96060496D01*
X174146197Y-96054684D01*
X174169858Y-96051174D01*
X174193750Y-96050000D01*
X174681250Y-96050000D01*
X174705142Y-96051174D01*
X174705142Y-96051174D01*
G37*
D13*
X174437500Y-96750000D03*
D10*
G36*
X172830142Y-96051174D02*
X172853803Y-96054684D01*
X172877007Y-96060496D01*
X172899529Y-96068554D01*
X172921153Y-96078782D01*
X172941670Y-96091079D01*
X172960883Y-96105329D01*
X172978607Y-96121393D01*
X172994671Y-96139117D01*
X173008921Y-96158330D01*
X173021218Y-96178847D01*
X173031446Y-96200471D01*
X173039504Y-96222993D01*
X173045316Y-96246197D01*
X173048826Y-96269858D01*
X173050000Y-96293750D01*
X173050000Y-97206250D01*
X173048826Y-97230142D01*
X173045316Y-97253803D01*
X173039504Y-97277007D01*
X173031446Y-97299529D01*
X173021218Y-97321153D01*
X173008921Y-97341670D01*
X172994671Y-97360883D01*
X172978607Y-97378607D01*
X172960883Y-97394671D01*
X172941670Y-97408921D01*
X172921153Y-97421218D01*
X172899529Y-97431446D01*
X172877007Y-97439504D01*
X172853803Y-97445316D01*
X172830142Y-97448826D01*
X172806250Y-97450000D01*
X172318750Y-97450000D01*
X172294858Y-97448826D01*
X172271197Y-97445316D01*
X172247993Y-97439504D01*
X172225471Y-97431446D01*
X172203847Y-97421218D01*
X172183330Y-97408921D01*
X172164117Y-97394671D01*
X172146393Y-97378607D01*
X172130329Y-97360883D01*
X172116079Y-97341670D01*
X172103782Y-97321153D01*
X172093554Y-97299529D01*
X172085496Y-97277007D01*
X172079684Y-97253803D01*
X172076174Y-97230142D01*
X172075000Y-97206250D01*
X172075000Y-96293750D01*
X172076174Y-96269858D01*
X172079684Y-96246197D01*
X172085496Y-96222993D01*
X172093554Y-96200471D01*
X172103782Y-96178847D01*
X172116079Y-96158330D01*
X172130329Y-96139117D01*
X172146393Y-96121393D01*
X172164117Y-96105329D01*
X172183330Y-96091079D01*
X172203847Y-96078782D01*
X172225471Y-96068554D01*
X172247993Y-96060496D01*
X172271197Y-96054684D01*
X172294858Y-96051174D01*
X172318750Y-96050000D01*
X172806250Y-96050000D01*
X172830142Y-96051174D01*
X172830142Y-96051174D01*
G37*
D13*
X172562500Y-96750000D03*
G04 #@! TD*
D10*
G04 #@! TO.C,R13*
G36*
X173330142Y-92051174D02*
X173353803Y-92054684D01*
X173377007Y-92060496D01*
X173399529Y-92068554D01*
X173421153Y-92078782D01*
X173441670Y-92091079D01*
X173460883Y-92105329D01*
X173478607Y-92121393D01*
X173494671Y-92139117D01*
X173508921Y-92158330D01*
X173521218Y-92178847D01*
X173531446Y-92200471D01*
X173539504Y-92222993D01*
X173545316Y-92246197D01*
X173548826Y-92269858D01*
X173550000Y-92293750D01*
X173550000Y-93206250D01*
X173548826Y-93230142D01*
X173545316Y-93253803D01*
X173539504Y-93277007D01*
X173531446Y-93299529D01*
X173521218Y-93321153D01*
X173508921Y-93341670D01*
X173494671Y-93360883D01*
X173478607Y-93378607D01*
X173460883Y-93394671D01*
X173441670Y-93408921D01*
X173421153Y-93421218D01*
X173399529Y-93431446D01*
X173377007Y-93439504D01*
X173353803Y-93445316D01*
X173330142Y-93448826D01*
X173306250Y-93450000D01*
X172818750Y-93450000D01*
X172794858Y-93448826D01*
X172771197Y-93445316D01*
X172747993Y-93439504D01*
X172725471Y-93431446D01*
X172703847Y-93421218D01*
X172683330Y-93408921D01*
X172664117Y-93394671D01*
X172646393Y-93378607D01*
X172630329Y-93360883D01*
X172616079Y-93341670D01*
X172603782Y-93321153D01*
X172593554Y-93299529D01*
X172585496Y-93277007D01*
X172579684Y-93253803D01*
X172576174Y-93230142D01*
X172575000Y-93206250D01*
X172575000Y-92293750D01*
X172576174Y-92269858D01*
X172579684Y-92246197D01*
X172585496Y-92222993D01*
X172593554Y-92200471D01*
X172603782Y-92178847D01*
X172616079Y-92158330D01*
X172630329Y-92139117D01*
X172646393Y-92121393D01*
X172664117Y-92105329D01*
X172683330Y-92091079D01*
X172703847Y-92078782D01*
X172725471Y-92068554D01*
X172747993Y-92060496D01*
X172771197Y-92054684D01*
X172794858Y-92051174D01*
X172818750Y-92050000D01*
X173306250Y-92050000D01*
X173330142Y-92051174D01*
X173330142Y-92051174D01*
G37*
D13*
X173062500Y-92750000D03*
D10*
G36*
X175205142Y-92051174D02*
X175228803Y-92054684D01*
X175252007Y-92060496D01*
X175274529Y-92068554D01*
X175296153Y-92078782D01*
X175316670Y-92091079D01*
X175335883Y-92105329D01*
X175353607Y-92121393D01*
X175369671Y-92139117D01*
X175383921Y-92158330D01*
X175396218Y-92178847D01*
X175406446Y-92200471D01*
X175414504Y-92222993D01*
X175420316Y-92246197D01*
X175423826Y-92269858D01*
X175425000Y-92293750D01*
X175425000Y-93206250D01*
X175423826Y-93230142D01*
X175420316Y-93253803D01*
X175414504Y-93277007D01*
X175406446Y-93299529D01*
X175396218Y-93321153D01*
X175383921Y-93341670D01*
X175369671Y-93360883D01*
X175353607Y-93378607D01*
X175335883Y-93394671D01*
X175316670Y-93408921D01*
X175296153Y-93421218D01*
X175274529Y-93431446D01*
X175252007Y-93439504D01*
X175228803Y-93445316D01*
X175205142Y-93448826D01*
X175181250Y-93450000D01*
X174693750Y-93450000D01*
X174669858Y-93448826D01*
X174646197Y-93445316D01*
X174622993Y-93439504D01*
X174600471Y-93431446D01*
X174578847Y-93421218D01*
X174558330Y-93408921D01*
X174539117Y-93394671D01*
X174521393Y-93378607D01*
X174505329Y-93360883D01*
X174491079Y-93341670D01*
X174478782Y-93321153D01*
X174468554Y-93299529D01*
X174460496Y-93277007D01*
X174454684Y-93253803D01*
X174451174Y-93230142D01*
X174450000Y-93206250D01*
X174450000Y-92293750D01*
X174451174Y-92269858D01*
X174454684Y-92246197D01*
X174460496Y-92222993D01*
X174468554Y-92200471D01*
X174478782Y-92178847D01*
X174491079Y-92158330D01*
X174505329Y-92139117D01*
X174521393Y-92121393D01*
X174539117Y-92105329D01*
X174558330Y-92091079D01*
X174578847Y-92078782D01*
X174600471Y-92068554D01*
X174622993Y-92060496D01*
X174646197Y-92054684D01*
X174669858Y-92051174D01*
X174693750Y-92050000D01*
X175181250Y-92050000D01*
X175205142Y-92051174D01*
X175205142Y-92051174D01*
G37*
D13*
X174937500Y-92750000D03*
G04 #@! TD*
D10*
G04 #@! TO.C,R14*
G36*
X173230142Y-81576174D02*
X173253803Y-81579684D01*
X173277007Y-81585496D01*
X173299529Y-81593554D01*
X173321153Y-81603782D01*
X173341670Y-81616079D01*
X173360883Y-81630329D01*
X173378607Y-81646393D01*
X173394671Y-81664117D01*
X173408921Y-81683330D01*
X173421218Y-81703847D01*
X173431446Y-81725471D01*
X173439504Y-81747993D01*
X173445316Y-81771197D01*
X173448826Y-81794858D01*
X173450000Y-81818750D01*
X173450000Y-82306250D01*
X173448826Y-82330142D01*
X173445316Y-82353803D01*
X173439504Y-82377007D01*
X173431446Y-82399529D01*
X173421218Y-82421153D01*
X173408921Y-82441670D01*
X173394671Y-82460883D01*
X173378607Y-82478607D01*
X173360883Y-82494671D01*
X173341670Y-82508921D01*
X173321153Y-82521218D01*
X173299529Y-82531446D01*
X173277007Y-82539504D01*
X173253803Y-82545316D01*
X173230142Y-82548826D01*
X173206250Y-82550000D01*
X172293750Y-82550000D01*
X172269858Y-82548826D01*
X172246197Y-82545316D01*
X172222993Y-82539504D01*
X172200471Y-82531446D01*
X172178847Y-82521218D01*
X172158330Y-82508921D01*
X172139117Y-82494671D01*
X172121393Y-82478607D01*
X172105329Y-82460883D01*
X172091079Y-82441670D01*
X172078782Y-82421153D01*
X172068554Y-82399529D01*
X172060496Y-82377007D01*
X172054684Y-82353803D01*
X172051174Y-82330142D01*
X172050000Y-82306250D01*
X172050000Y-81818750D01*
X172051174Y-81794858D01*
X172054684Y-81771197D01*
X172060496Y-81747993D01*
X172068554Y-81725471D01*
X172078782Y-81703847D01*
X172091079Y-81683330D01*
X172105329Y-81664117D01*
X172121393Y-81646393D01*
X172139117Y-81630329D01*
X172158330Y-81616079D01*
X172178847Y-81603782D01*
X172200471Y-81593554D01*
X172222993Y-81585496D01*
X172246197Y-81579684D01*
X172269858Y-81576174D01*
X172293750Y-81575000D01*
X173206250Y-81575000D01*
X173230142Y-81576174D01*
X173230142Y-81576174D01*
G37*
D13*
X172750000Y-82062500D03*
D10*
G36*
X173230142Y-83451174D02*
X173253803Y-83454684D01*
X173277007Y-83460496D01*
X173299529Y-83468554D01*
X173321153Y-83478782D01*
X173341670Y-83491079D01*
X173360883Y-83505329D01*
X173378607Y-83521393D01*
X173394671Y-83539117D01*
X173408921Y-83558330D01*
X173421218Y-83578847D01*
X173431446Y-83600471D01*
X173439504Y-83622993D01*
X173445316Y-83646197D01*
X173448826Y-83669858D01*
X173450000Y-83693750D01*
X173450000Y-84181250D01*
X173448826Y-84205142D01*
X173445316Y-84228803D01*
X173439504Y-84252007D01*
X173431446Y-84274529D01*
X173421218Y-84296153D01*
X173408921Y-84316670D01*
X173394671Y-84335883D01*
X173378607Y-84353607D01*
X173360883Y-84369671D01*
X173341670Y-84383921D01*
X173321153Y-84396218D01*
X173299529Y-84406446D01*
X173277007Y-84414504D01*
X173253803Y-84420316D01*
X173230142Y-84423826D01*
X173206250Y-84425000D01*
X172293750Y-84425000D01*
X172269858Y-84423826D01*
X172246197Y-84420316D01*
X172222993Y-84414504D01*
X172200471Y-84406446D01*
X172178847Y-84396218D01*
X172158330Y-84383921D01*
X172139117Y-84369671D01*
X172121393Y-84353607D01*
X172105329Y-84335883D01*
X172091079Y-84316670D01*
X172078782Y-84296153D01*
X172068554Y-84274529D01*
X172060496Y-84252007D01*
X172054684Y-84228803D01*
X172051174Y-84205142D01*
X172050000Y-84181250D01*
X172050000Y-83693750D01*
X172051174Y-83669858D01*
X172054684Y-83646197D01*
X172060496Y-83622993D01*
X172068554Y-83600471D01*
X172078782Y-83578847D01*
X172091079Y-83558330D01*
X172105329Y-83539117D01*
X172121393Y-83521393D01*
X172139117Y-83505329D01*
X172158330Y-83491079D01*
X172178847Y-83478782D01*
X172200471Y-83468554D01*
X172222993Y-83460496D01*
X172246197Y-83454684D01*
X172269858Y-83451174D01*
X172293750Y-83450000D01*
X173206250Y-83450000D01*
X173230142Y-83451174D01*
X173230142Y-83451174D01*
G37*
D13*
X172750000Y-83937500D03*
G04 #@! TD*
D10*
G04 #@! TO.C,R15*
G36*
X179230142Y-72451174D02*
X179253803Y-72454684D01*
X179277007Y-72460496D01*
X179299529Y-72468554D01*
X179321153Y-72478782D01*
X179341670Y-72491079D01*
X179360883Y-72505329D01*
X179378607Y-72521393D01*
X179394671Y-72539117D01*
X179408921Y-72558330D01*
X179421218Y-72578847D01*
X179431446Y-72600471D01*
X179439504Y-72622993D01*
X179445316Y-72646197D01*
X179448826Y-72669858D01*
X179450000Y-72693750D01*
X179450000Y-73181250D01*
X179448826Y-73205142D01*
X179445316Y-73228803D01*
X179439504Y-73252007D01*
X179431446Y-73274529D01*
X179421218Y-73296153D01*
X179408921Y-73316670D01*
X179394671Y-73335883D01*
X179378607Y-73353607D01*
X179360883Y-73369671D01*
X179341670Y-73383921D01*
X179321153Y-73396218D01*
X179299529Y-73406446D01*
X179277007Y-73414504D01*
X179253803Y-73420316D01*
X179230142Y-73423826D01*
X179206250Y-73425000D01*
X178293750Y-73425000D01*
X178269858Y-73423826D01*
X178246197Y-73420316D01*
X178222993Y-73414504D01*
X178200471Y-73406446D01*
X178178847Y-73396218D01*
X178158330Y-73383921D01*
X178139117Y-73369671D01*
X178121393Y-73353607D01*
X178105329Y-73335883D01*
X178091079Y-73316670D01*
X178078782Y-73296153D01*
X178068554Y-73274529D01*
X178060496Y-73252007D01*
X178054684Y-73228803D01*
X178051174Y-73205142D01*
X178050000Y-73181250D01*
X178050000Y-72693750D01*
X178051174Y-72669858D01*
X178054684Y-72646197D01*
X178060496Y-72622993D01*
X178068554Y-72600471D01*
X178078782Y-72578847D01*
X178091079Y-72558330D01*
X178105329Y-72539117D01*
X178121393Y-72521393D01*
X178139117Y-72505329D01*
X178158330Y-72491079D01*
X178178847Y-72478782D01*
X178200471Y-72468554D01*
X178222993Y-72460496D01*
X178246197Y-72454684D01*
X178269858Y-72451174D01*
X178293750Y-72450000D01*
X179206250Y-72450000D01*
X179230142Y-72451174D01*
X179230142Y-72451174D01*
G37*
D13*
X178750000Y-72937500D03*
D10*
G36*
X179230142Y-70576174D02*
X179253803Y-70579684D01*
X179277007Y-70585496D01*
X179299529Y-70593554D01*
X179321153Y-70603782D01*
X179341670Y-70616079D01*
X179360883Y-70630329D01*
X179378607Y-70646393D01*
X179394671Y-70664117D01*
X179408921Y-70683330D01*
X179421218Y-70703847D01*
X179431446Y-70725471D01*
X179439504Y-70747993D01*
X179445316Y-70771197D01*
X179448826Y-70794858D01*
X179450000Y-70818750D01*
X179450000Y-71306250D01*
X179448826Y-71330142D01*
X179445316Y-71353803D01*
X179439504Y-71377007D01*
X179431446Y-71399529D01*
X179421218Y-71421153D01*
X179408921Y-71441670D01*
X179394671Y-71460883D01*
X179378607Y-71478607D01*
X179360883Y-71494671D01*
X179341670Y-71508921D01*
X179321153Y-71521218D01*
X179299529Y-71531446D01*
X179277007Y-71539504D01*
X179253803Y-71545316D01*
X179230142Y-71548826D01*
X179206250Y-71550000D01*
X178293750Y-71550000D01*
X178269858Y-71548826D01*
X178246197Y-71545316D01*
X178222993Y-71539504D01*
X178200471Y-71531446D01*
X178178847Y-71521218D01*
X178158330Y-71508921D01*
X178139117Y-71494671D01*
X178121393Y-71478607D01*
X178105329Y-71460883D01*
X178091079Y-71441670D01*
X178078782Y-71421153D01*
X178068554Y-71399529D01*
X178060496Y-71377007D01*
X178054684Y-71353803D01*
X178051174Y-71330142D01*
X178050000Y-71306250D01*
X178050000Y-70818750D01*
X178051174Y-70794858D01*
X178054684Y-70771197D01*
X178060496Y-70747993D01*
X178068554Y-70725471D01*
X178078782Y-70703847D01*
X178091079Y-70683330D01*
X178105329Y-70664117D01*
X178121393Y-70646393D01*
X178139117Y-70630329D01*
X178158330Y-70616079D01*
X178178847Y-70603782D01*
X178200471Y-70593554D01*
X178222993Y-70585496D01*
X178246197Y-70579684D01*
X178269858Y-70576174D01*
X178293750Y-70575000D01*
X179206250Y-70575000D01*
X179230142Y-70576174D01*
X179230142Y-70576174D01*
G37*
D13*
X178750000Y-71062500D03*
G04 #@! TD*
D10*
G04 #@! TO.C,R16*
G36*
X177230142Y-64826174D02*
X177253803Y-64829684D01*
X177277007Y-64835496D01*
X177299529Y-64843554D01*
X177321153Y-64853782D01*
X177341670Y-64866079D01*
X177360883Y-64880329D01*
X177378607Y-64896393D01*
X177394671Y-64914117D01*
X177408921Y-64933330D01*
X177421218Y-64953847D01*
X177431446Y-64975471D01*
X177439504Y-64997993D01*
X177445316Y-65021197D01*
X177448826Y-65044858D01*
X177450000Y-65068750D01*
X177450000Y-65556250D01*
X177448826Y-65580142D01*
X177445316Y-65603803D01*
X177439504Y-65627007D01*
X177431446Y-65649529D01*
X177421218Y-65671153D01*
X177408921Y-65691670D01*
X177394671Y-65710883D01*
X177378607Y-65728607D01*
X177360883Y-65744671D01*
X177341670Y-65758921D01*
X177321153Y-65771218D01*
X177299529Y-65781446D01*
X177277007Y-65789504D01*
X177253803Y-65795316D01*
X177230142Y-65798826D01*
X177206250Y-65800000D01*
X176293750Y-65800000D01*
X176269858Y-65798826D01*
X176246197Y-65795316D01*
X176222993Y-65789504D01*
X176200471Y-65781446D01*
X176178847Y-65771218D01*
X176158330Y-65758921D01*
X176139117Y-65744671D01*
X176121393Y-65728607D01*
X176105329Y-65710883D01*
X176091079Y-65691670D01*
X176078782Y-65671153D01*
X176068554Y-65649529D01*
X176060496Y-65627007D01*
X176054684Y-65603803D01*
X176051174Y-65580142D01*
X176050000Y-65556250D01*
X176050000Y-65068750D01*
X176051174Y-65044858D01*
X176054684Y-65021197D01*
X176060496Y-64997993D01*
X176068554Y-64975471D01*
X176078782Y-64953847D01*
X176091079Y-64933330D01*
X176105329Y-64914117D01*
X176121393Y-64896393D01*
X176139117Y-64880329D01*
X176158330Y-64866079D01*
X176178847Y-64853782D01*
X176200471Y-64843554D01*
X176222993Y-64835496D01*
X176246197Y-64829684D01*
X176269858Y-64826174D01*
X176293750Y-64825000D01*
X177206250Y-64825000D01*
X177230142Y-64826174D01*
X177230142Y-64826174D01*
G37*
D13*
X176750000Y-65312500D03*
D10*
G36*
X177230142Y-66701174D02*
X177253803Y-66704684D01*
X177277007Y-66710496D01*
X177299529Y-66718554D01*
X177321153Y-66728782D01*
X177341670Y-66741079D01*
X177360883Y-66755329D01*
X177378607Y-66771393D01*
X177394671Y-66789117D01*
X177408921Y-66808330D01*
X177421218Y-66828847D01*
X177431446Y-66850471D01*
X177439504Y-66872993D01*
X177445316Y-66896197D01*
X177448826Y-66919858D01*
X177450000Y-66943750D01*
X177450000Y-67431250D01*
X177448826Y-67455142D01*
X177445316Y-67478803D01*
X177439504Y-67502007D01*
X177431446Y-67524529D01*
X177421218Y-67546153D01*
X177408921Y-67566670D01*
X177394671Y-67585883D01*
X177378607Y-67603607D01*
X177360883Y-67619671D01*
X177341670Y-67633921D01*
X177321153Y-67646218D01*
X177299529Y-67656446D01*
X177277007Y-67664504D01*
X177253803Y-67670316D01*
X177230142Y-67673826D01*
X177206250Y-67675000D01*
X176293750Y-67675000D01*
X176269858Y-67673826D01*
X176246197Y-67670316D01*
X176222993Y-67664504D01*
X176200471Y-67656446D01*
X176178847Y-67646218D01*
X176158330Y-67633921D01*
X176139117Y-67619671D01*
X176121393Y-67603607D01*
X176105329Y-67585883D01*
X176091079Y-67566670D01*
X176078782Y-67546153D01*
X176068554Y-67524529D01*
X176060496Y-67502007D01*
X176054684Y-67478803D01*
X176051174Y-67455142D01*
X176050000Y-67431250D01*
X176050000Y-66943750D01*
X176051174Y-66919858D01*
X176054684Y-66896197D01*
X176060496Y-66872993D01*
X176068554Y-66850471D01*
X176078782Y-66828847D01*
X176091079Y-66808330D01*
X176105329Y-66789117D01*
X176121393Y-66771393D01*
X176139117Y-66755329D01*
X176158330Y-66741079D01*
X176178847Y-66728782D01*
X176200471Y-66718554D01*
X176222993Y-66710496D01*
X176246197Y-66704684D01*
X176269858Y-66701174D01*
X176293750Y-66700000D01*
X177206250Y-66700000D01*
X177230142Y-66701174D01*
X177230142Y-66701174D01*
G37*
D13*
X176750000Y-67187500D03*
G04 #@! TD*
D10*
G04 #@! TO.C,R17*
G36*
X180730142Y-61951174D02*
X180753803Y-61954684D01*
X180777007Y-61960496D01*
X180799529Y-61968554D01*
X180821153Y-61978782D01*
X180841670Y-61991079D01*
X180860883Y-62005329D01*
X180878607Y-62021393D01*
X180894671Y-62039117D01*
X180908921Y-62058330D01*
X180921218Y-62078847D01*
X180931446Y-62100471D01*
X180939504Y-62122993D01*
X180945316Y-62146197D01*
X180948826Y-62169858D01*
X180950000Y-62193750D01*
X180950000Y-62681250D01*
X180948826Y-62705142D01*
X180945316Y-62728803D01*
X180939504Y-62752007D01*
X180931446Y-62774529D01*
X180921218Y-62796153D01*
X180908921Y-62816670D01*
X180894671Y-62835883D01*
X180878607Y-62853607D01*
X180860883Y-62869671D01*
X180841670Y-62883921D01*
X180821153Y-62896218D01*
X180799529Y-62906446D01*
X180777007Y-62914504D01*
X180753803Y-62920316D01*
X180730142Y-62923826D01*
X180706250Y-62925000D01*
X179793750Y-62925000D01*
X179769858Y-62923826D01*
X179746197Y-62920316D01*
X179722993Y-62914504D01*
X179700471Y-62906446D01*
X179678847Y-62896218D01*
X179658330Y-62883921D01*
X179639117Y-62869671D01*
X179621393Y-62853607D01*
X179605329Y-62835883D01*
X179591079Y-62816670D01*
X179578782Y-62796153D01*
X179568554Y-62774529D01*
X179560496Y-62752007D01*
X179554684Y-62728803D01*
X179551174Y-62705142D01*
X179550000Y-62681250D01*
X179550000Y-62193750D01*
X179551174Y-62169858D01*
X179554684Y-62146197D01*
X179560496Y-62122993D01*
X179568554Y-62100471D01*
X179578782Y-62078847D01*
X179591079Y-62058330D01*
X179605329Y-62039117D01*
X179621393Y-62021393D01*
X179639117Y-62005329D01*
X179658330Y-61991079D01*
X179678847Y-61978782D01*
X179700471Y-61968554D01*
X179722993Y-61960496D01*
X179746197Y-61954684D01*
X179769858Y-61951174D01*
X179793750Y-61950000D01*
X180706250Y-61950000D01*
X180730142Y-61951174D01*
X180730142Y-61951174D01*
G37*
D13*
X180250000Y-62437500D03*
D10*
G36*
X180730142Y-60076174D02*
X180753803Y-60079684D01*
X180777007Y-60085496D01*
X180799529Y-60093554D01*
X180821153Y-60103782D01*
X180841670Y-60116079D01*
X180860883Y-60130329D01*
X180878607Y-60146393D01*
X180894671Y-60164117D01*
X180908921Y-60183330D01*
X180921218Y-60203847D01*
X180931446Y-60225471D01*
X180939504Y-60247993D01*
X180945316Y-60271197D01*
X180948826Y-60294858D01*
X180950000Y-60318750D01*
X180950000Y-60806250D01*
X180948826Y-60830142D01*
X180945316Y-60853803D01*
X180939504Y-60877007D01*
X180931446Y-60899529D01*
X180921218Y-60921153D01*
X180908921Y-60941670D01*
X180894671Y-60960883D01*
X180878607Y-60978607D01*
X180860883Y-60994671D01*
X180841670Y-61008921D01*
X180821153Y-61021218D01*
X180799529Y-61031446D01*
X180777007Y-61039504D01*
X180753803Y-61045316D01*
X180730142Y-61048826D01*
X180706250Y-61050000D01*
X179793750Y-61050000D01*
X179769858Y-61048826D01*
X179746197Y-61045316D01*
X179722993Y-61039504D01*
X179700471Y-61031446D01*
X179678847Y-61021218D01*
X179658330Y-61008921D01*
X179639117Y-60994671D01*
X179621393Y-60978607D01*
X179605329Y-60960883D01*
X179591079Y-60941670D01*
X179578782Y-60921153D01*
X179568554Y-60899529D01*
X179560496Y-60877007D01*
X179554684Y-60853803D01*
X179551174Y-60830142D01*
X179550000Y-60806250D01*
X179550000Y-60318750D01*
X179551174Y-60294858D01*
X179554684Y-60271197D01*
X179560496Y-60247993D01*
X179568554Y-60225471D01*
X179578782Y-60203847D01*
X179591079Y-60183330D01*
X179605329Y-60164117D01*
X179621393Y-60146393D01*
X179639117Y-60130329D01*
X179658330Y-60116079D01*
X179678847Y-60103782D01*
X179700471Y-60093554D01*
X179722993Y-60085496D01*
X179746197Y-60079684D01*
X179769858Y-60076174D01*
X179793750Y-60075000D01*
X180706250Y-60075000D01*
X180730142Y-60076174D01*
X180730142Y-60076174D01*
G37*
D13*
X180250000Y-60562500D03*
G04 #@! TD*
D10*
G04 #@! TO.C,R25*
G36*
X148760779Y-76601144D02*
X148783834Y-76604563D01*
X148806443Y-76610227D01*
X148828387Y-76618079D01*
X148849457Y-76628044D01*
X148869448Y-76640026D01*
X148888168Y-76653910D01*
X148905438Y-76669562D01*
X148921090Y-76686832D01*
X148934974Y-76705552D01*
X148946956Y-76725543D01*
X148956921Y-76746613D01*
X148964773Y-76768557D01*
X148970437Y-76791166D01*
X148973856Y-76814221D01*
X148975000Y-76837500D01*
X148975000Y-77412500D01*
X148973856Y-77435779D01*
X148970437Y-77458834D01*
X148964773Y-77481443D01*
X148956921Y-77503387D01*
X148946956Y-77524457D01*
X148934974Y-77544448D01*
X148921090Y-77563168D01*
X148905438Y-77580438D01*
X148888168Y-77596090D01*
X148869448Y-77609974D01*
X148849457Y-77621956D01*
X148828387Y-77631921D01*
X148806443Y-77639773D01*
X148783834Y-77645437D01*
X148760779Y-77648856D01*
X148737500Y-77650000D01*
X148262500Y-77650000D01*
X148239221Y-77648856D01*
X148216166Y-77645437D01*
X148193557Y-77639773D01*
X148171613Y-77631921D01*
X148150543Y-77621956D01*
X148130552Y-77609974D01*
X148111832Y-77596090D01*
X148094562Y-77580438D01*
X148078910Y-77563168D01*
X148065026Y-77544448D01*
X148053044Y-77524457D01*
X148043079Y-77503387D01*
X148035227Y-77481443D01*
X148029563Y-77458834D01*
X148026144Y-77435779D01*
X148025000Y-77412500D01*
X148025000Y-76837500D01*
X148026144Y-76814221D01*
X148029563Y-76791166D01*
X148035227Y-76768557D01*
X148043079Y-76746613D01*
X148053044Y-76725543D01*
X148065026Y-76705552D01*
X148078910Y-76686832D01*
X148094562Y-76669562D01*
X148111832Y-76653910D01*
X148130552Y-76640026D01*
X148150543Y-76628044D01*
X148171613Y-76618079D01*
X148193557Y-76610227D01*
X148216166Y-76604563D01*
X148239221Y-76601144D01*
X148262500Y-76600000D01*
X148737500Y-76600000D01*
X148760779Y-76601144D01*
X148760779Y-76601144D01*
G37*
D14*
X148500000Y-77125000D03*
D10*
G36*
X148760779Y-74851144D02*
X148783834Y-74854563D01*
X148806443Y-74860227D01*
X148828387Y-74868079D01*
X148849457Y-74878044D01*
X148869448Y-74890026D01*
X148888168Y-74903910D01*
X148905438Y-74919562D01*
X148921090Y-74936832D01*
X148934974Y-74955552D01*
X148946956Y-74975543D01*
X148956921Y-74996613D01*
X148964773Y-75018557D01*
X148970437Y-75041166D01*
X148973856Y-75064221D01*
X148975000Y-75087500D01*
X148975000Y-75662500D01*
X148973856Y-75685779D01*
X148970437Y-75708834D01*
X148964773Y-75731443D01*
X148956921Y-75753387D01*
X148946956Y-75774457D01*
X148934974Y-75794448D01*
X148921090Y-75813168D01*
X148905438Y-75830438D01*
X148888168Y-75846090D01*
X148869448Y-75859974D01*
X148849457Y-75871956D01*
X148828387Y-75881921D01*
X148806443Y-75889773D01*
X148783834Y-75895437D01*
X148760779Y-75898856D01*
X148737500Y-75900000D01*
X148262500Y-75900000D01*
X148239221Y-75898856D01*
X148216166Y-75895437D01*
X148193557Y-75889773D01*
X148171613Y-75881921D01*
X148150543Y-75871956D01*
X148130552Y-75859974D01*
X148111832Y-75846090D01*
X148094562Y-75830438D01*
X148078910Y-75813168D01*
X148065026Y-75794448D01*
X148053044Y-75774457D01*
X148043079Y-75753387D01*
X148035227Y-75731443D01*
X148029563Y-75708834D01*
X148026144Y-75685779D01*
X148025000Y-75662500D01*
X148025000Y-75087500D01*
X148026144Y-75064221D01*
X148029563Y-75041166D01*
X148035227Y-75018557D01*
X148043079Y-74996613D01*
X148053044Y-74975543D01*
X148065026Y-74955552D01*
X148078910Y-74936832D01*
X148094562Y-74919562D01*
X148111832Y-74903910D01*
X148130552Y-74890026D01*
X148150543Y-74878044D01*
X148171613Y-74868079D01*
X148193557Y-74860227D01*
X148216166Y-74854563D01*
X148239221Y-74851144D01*
X148262500Y-74850000D01*
X148737500Y-74850000D01*
X148760779Y-74851144D01*
X148760779Y-74851144D01*
G37*
D14*
X148500000Y-75375000D03*
G04 #@! TD*
D15*
G04 #@! TO.C,U1*
X156051755Y-89846917D03*
X157321755Y-89846917D03*
X158591755Y-89846917D03*
X159861755Y-89846917D03*
X161131755Y-89846917D03*
X162401755Y-89846917D03*
X163671755Y-89846917D03*
X163671755Y-95246917D03*
X162401755Y-95246917D03*
X161131755Y-95246917D03*
X159861755Y-95246917D03*
X158591755Y-95246917D03*
X157321755Y-95246917D03*
X156051755Y-95246917D03*
G04 #@! TD*
D16*
G04 #@! TO.C,U2*
X167450000Y-58060000D03*
X167450000Y-56790000D03*
X167450000Y-55520000D03*
X167450000Y-54250000D03*
X167450000Y-52980000D03*
X167450000Y-51710000D03*
X167450000Y-50440000D03*
X162050000Y-50440000D03*
X162050000Y-51710000D03*
X162050000Y-52980000D03*
X162050000Y-54250000D03*
X162050000Y-55520000D03*
X162050000Y-56790000D03*
X162050000Y-58060000D03*
G04 #@! TD*
D15*
G04 #@! TO.C,U3*
X168695000Y-78050000D03*
X167425000Y-78050000D03*
X166155000Y-78050000D03*
X164885000Y-78050000D03*
X163615000Y-78050000D03*
X162345000Y-78050000D03*
X161075000Y-78050000D03*
X159805000Y-78050000D03*
X159805000Y-70950000D03*
X161075000Y-70950000D03*
X162345000Y-70950000D03*
X163615000Y-70950000D03*
X164885000Y-70950000D03*
X166155000Y-70950000D03*
X167425000Y-70950000D03*
X168695000Y-70950000D03*
G04 #@! TD*
M02*
