M48
;DRILL file {KiCad 6.0.0-rc1-unknown-46fddab~66~ubuntu16.04.1} date Sat Sep 29 20:34:21 2018
;FORMAT={-:-/ absolute / inch / decimal}
FMAT,2
INCH,TZ
T1C0.0157
T2C0.0394
T3C0.0630
T4C0.1063
%
G90
G05
M72
T1
X5.71Y-2.83
X5.8Y-4.08
X5.82Y-2.71
X5.82Y-2.86
X5.82Y-3.2
X5.83Y-3.48
X5.8463Y-3.3563
X5.94Y-2.78
X5.97Y-3.1354
X6.05Y-2.65
X6.07Y-2.46
X6.07Y-4.0139
X6.12Y-2.49
X6.14Y-2.61
X6.14Y-2.97
X6.15Y-2.53
X6.18Y-1.96
X6.18Y-2.19
X6.27Y-2.44
X6.27Y-3.02
X6.28Y-2.78
X6.32Y-2.78
X6.32Y-3.02
X6.33Y-3.38
X6.36Y-2.12
X6.3654Y-2.86
X6.37Y-3.1
X6.38Y-2.05
X6.3998Y-3.2202
X6.41Y-3.94
X6.42Y-3.59
X6.425Y-3.14
X6.43Y-3.81
X6.48Y-3.18
X6.49Y-2.52
X6.51Y-1.9
X6.53Y-3.18
X6.555Y-2.185
X6.56Y-2.85
X6.57Y-2.78
X6.58Y-3.02
X6.59Y-3.18
X6.5991Y-3.6909
X6.6377Y-2.42
X6.65Y-4.27
X6.66Y-2.97
X6.66Y-3.06
X6.69Y-2.91
X6.72Y-1.95
X6.72Y-2.74
X6.73Y-2.97
X6.75Y-2.09
X6.75Y-2.39
X6.77Y-2.77
X6.8Y-3.51
X6.8Y-3.73
X6.81Y-3.9
X6.87Y-1.9
X6.89Y-2.91
X6.94Y-2.32
X7.4777Y-2.9823
X7.48Y-2.16
X7.48Y-2.43
X7.48Y-2.71
X7.48Y-3.26
X7.48Y-3.53
X7.48Y-3.81
T2
X5.5102Y-2.1354
X5.5102Y-2.2354
X5.5102Y-2.3354
X5.5102Y-2.4354
X5.5102Y-2.5354
X5.5102Y-2.6354
X5.5102Y-2.7354
X5.5102Y-2.8354
X5.5102Y-2.9354
X5.5102Y-3.0354
X5.5102Y-3.1354
X5.5102Y-3.2354
X5.5102Y-3.3354
X5.5102Y-3.4354
X5.5102Y-3.5354
X5.5102Y-3.6354
X5.5102Y-3.7354
X5.5102Y-3.8354
X5.5102Y-3.9354
X5.5102Y-4.0354
X5.6102Y-2.1354
X5.6102Y-2.2354
X5.6102Y-2.3354
X5.6102Y-2.4354
X5.6102Y-2.5354
X5.6102Y-2.6354
X5.6102Y-2.7354
X5.6102Y-2.8354
X5.6102Y-2.9354
X5.6102Y-3.0354
X5.6102Y-3.1354
X5.6102Y-3.2354
X5.6102Y-3.3354
X5.6102Y-3.4354
X5.6102Y-3.5354
X5.6102Y-3.6354
X5.6102Y-3.7354
X5.6102Y-3.8354
X5.6102Y-3.9354
X5.6102Y-4.0354
T3
X7.15Y-2.1587
X7.15Y-2.2965
X7.15Y-2.4343
X7.15Y-2.572
X7.15Y-2.7098
X7.15Y-2.8476
X7.15Y-2.9854
X7.15Y-3.1232
X7.15Y-3.261
X7.15Y-3.3988
X7.15Y-3.5366
X7.15Y-3.6744
X7.15Y-3.8122
X7.15Y-3.95
T4
X7.4803Y-1.939
X5.5512Y-4.2224
X7.4803Y-4.2224
X5.5512Y-1.939
T0
M30
