G04 #@! TF.GenerationSoftware,KiCad,Pcbnew,6.0.0-rc1-unknown-46fddab~66~ubuntu16.04.1*
G04 #@! TF.CreationDate,2018-09-29T20:34:26+01:00*
G04 #@! TF.ProjectId,test,746573742E6B696361645F7063620000,rev?*
G04 #@! TF.SameCoordinates,Original*
G04 #@! TF.FileFunction,Paste,Bot*
G04 #@! TF.FilePolarity,Positive*
%FSLAX46Y46*%
G04 Gerber Fmt 4.6, Leading zero omitted, Abs format (unit mm)*
G04 Created by KiCad (PCBNEW 6.0.0-rc1-unknown-46fddab~66~ubuntu16.04.1) date Sat Sep 29 20:34:26 2018*
%MOMM*%
%LPD*%
G01*
G04 APERTURE LIST*
%ADD10C,0.100000*%
%ADD11C,0.975000*%
%ADD12C,0.875000*%
%ADD13R,0.900000X0.800000*%
%ADD14C,0.950000*%
%ADD15R,1.500000X0.600000*%
%ADD16R,0.600000X1.500000*%
G04 APERTURE END LIST*
D10*
G04 #@! TO.C,R37*
G36*
X185830142Y-54051174D02*
X185853803Y-54054684D01*
X185877007Y-54060496D01*
X185899529Y-54068554D01*
X185921153Y-54078782D01*
X185941670Y-54091079D01*
X185960883Y-54105329D01*
X185978607Y-54121393D01*
X185994671Y-54139117D01*
X186008921Y-54158330D01*
X186021218Y-54178847D01*
X186031446Y-54200471D01*
X186039504Y-54222993D01*
X186045316Y-54246197D01*
X186048826Y-54269858D01*
X186050000Y-54293750D01*
X186050000Y-55206250D01*
X186048826Y-55230142D01*
X186045316Y-55253803D01*
X186039504Y-55277007D01*
X186031446Y-55299529D01*
X186021218Y-55321153D01*
X186008921Y-55341670D01*
X185994671Y-55360883D01*
X185978607Y-55378607D01*
X185960883Y-55394671D01*
X185941670Y-55408921D01*
X185921153Y-55421218D01*
X185899529Y-55431446D01*
X185877007Y-55439504D01*
X185853803Y-55445316D01*
X185830142Y-55448826D01*
X185806250Y-55450000D01*
X185318750Y-55450000D01*
X185294858Y-55448826D01*
X185271197Y-55445316D01*
X185247993Y-55439504D01*
X185225471Y-55431446D01*
X185203847Y-55421218D01*
X185183330Y-55408921D01*
X185164117Y-55394671D01*
X185146393Y-55378607D01*
X185130329Y-55360883D01*
X185116079Y-55341670D01*
X185103782Y-55321153D01*
X185093554Y-55299529D01*
X185085496Y-55277007D01*
X185079684Y-55253803D01*
X185076174Y-55230142D01*
X185075000Y-55206250D01*
X185075000Y-54293750D01*
X185076174Y-54269858D01*
X185079684Y-54246197D01*
X185085496Y-54222993D01*
X185093554Y-54200471D01*
X185103782Y-54178847D01*
X185116079Y-54158330D01*
X185130329Y-54139117D01*
X185146393Y-54121393D01*
X185164117Y-54105329D01*
X185183330Y-54091079D01*
X185203847Y-54078782D01*
X185225471Y-54068554D01*
X185247993Y-54060496D01*
X185271197Y-54054684D01*
X185294858Y-54051174D01*
X185318750Y-54050000D01*
X185806250Y-54050000D01*
X185830142Y-54051174D01*
X185830142Y-54051174D01*
G37*
D11*
X185562500Y-54750000D03*
D10*
G36*
X187705142Y-54051174D02*
X187728803Y-54054684D01*
X187752007Y-54060496D01*
X187774529Y-54068554D01*
X187796153Y-54078782D01*
X187816670Y-54091079D01*
X187835883Y-54105329D01*
X187853607Y-54121393D01*
X187869671Y-54139117D01*
X187883921Y-54158330D01*
X187896218Y-54178847D01*
X187906446Y-54200471D01*
X187914504Y-54222993D01*
X187920316Y-54246197D01*
X187923826Y-54269858D01*
X187925000Y-54293750D01*
X187925000Y-55206250D01*
X187923826Y-55230142D01*
X187920316Y-55253803D01*
X187914504Y-55277007D01*
X187906446Y-55299529D01*
X187896218Y-55321153D01*
X187883921Y-55341670D01*
X187869671Y-55360883D01*
X187853607Y-55378607D01*
X187835883Y-55394671D01*
X187816670Y-55408921D01*
X187796153Y-55421218D01*
X187774529Y-55431446D01*
X187752007Y-55439504D01*
X187728803Y-55445316D01*
X187705142Y-55448826D01*
X187681250Y-55450000D01*
X187193750Y-55450000D01*
X187169858Y-55448826D01*
X187146197Y-55445316D01*
X187122993Y-55439504D01*
X187100471Y-55431446D01*
X187078847Y-55421218D01*
X187058330Y-55408921D01*
X187039117Y-55394671D01*
X187021393Y-55378607D01*
X187005329Y-55360883D01*
X186991079Y-55341670D01*
X186978782Y-55321153D01*
X186968554Y-55299529D01*
X186960496Y-55277007D01*
X186954684Y-55253803D01*
X186951174Y-55230142D01*
X186950000Y-55206250D01*
X186950000Y-54293750D01*
X186951174Y-54269858D01*
X186954684Y-54246197D01*
X186960496Y-54222993D01*
X186968554Y-54200471D01*
X186978782Y-54178847D01*
X186991079Y-54158330D01*
X187005329Y-54139117D01*
X187021393Y-54121393D01*
X187039117Y-54105329D01*
X187058330Y-54091079D01*
X187078847Y-54078782D01*
X187100471Y-54068554D01*
X187122993Y-54060496D01*
X187146197Y-54054684D01*
X187169858Y-54051174D01*
X187193750Y-54050000D01*
X187681250Y-54050000D01*
X187705142Y-54051174D01*
X187705142Y-54051174D01*
G37*
D11*
X187437500Y-54750000D03*
G04 #@! TD*
D10*
G04 #@! TO.C,C1*
G36*
X164349691Y-85378053D02*
X164370926Y-85381203D01*
X164391750Y-85386419D01*
X164411962Y-85393651D01*
X164431368Y-85402830D01*
X164449781Y-85413866D01*
X164467024Y-85426654D01*
X164482930Y-85441070D01*
X164497346Y-85456976D01*
X164510134Y-85474219D01*
X164521170Y-85492632D01*
X164530349Y-85512038D01*
X164537581Y-85532250D01*
X164542797Y-85553074D01*
X164545947Y-85574309D01*
X164547000Y-85595750D01*
X164547000Y-86108250D01*
X164545947Y-86129691D01*
X164542797Y-86150926D01*
X164537581Y-86171750D01*
X164530349Y-86191962D01*
X164521170Y-86211368D01*
X164510134Y-86229781D01*
X164497346Y-86247024D01*
X164482930Y-86262930D01*
X164467024Y-86277346D01*
X164449781Y-86290134D01*
X164431368Y-86301170D01*
X164411962Y-86310349D01*
X164391750Y-86317581D01*
X164370926Y-86322797D01*
X164349691Y-86325947D01*
X164328250Y-86327000D01*
X163890750Y-86327000D01*
X163869309Y-86325947D01*
X163848074Y-86322797D01*
X163827250Y-86317581D01*
X163807038Y-86310349D01*
X163787632Y-86301170D01*
X163769219Y-86290134D01*
X163751976Y-86277346D01*
X163736070Y-86262930D01*
X163721654Y-86247024D01*
X163708866Y-86229781D01*
X163697830Y-86211368D01*
X163688651Y-86191962D01*
X163681419Y-86171750D01*
X163676203Y-86150926D01*
X163673053Y-86129691D01*
X163672000Y-86108250D01*
X163672000Y-85595750D01*
X163673053Y-85574309D01*
X163676203Y-85553074D01*
X163681419Y-85532250D01*
X163688651Y-85512038D01*
X163697830Y-85492632D01*
X163708866Y-85474219D01*
X163721654Y-85456976D01*
X163736070Y-85441070D01*
X163751976Y-85426654D01*
X163769219Y-85413866D01*
X163787632Y-85402830D01*
X163807038Y-85393651D01*
X163827250Y-85386419D01*
X163848074Y-85381203D01*
X163869309Y-85378053D01*
X163890750Y-85377000D01*
X164328250Y-85377000D01*
X164349691Y-85378053D01*
X164349691Y-85378053D01*
G37*
D12*
X164109500Y-85852000D03*
D10*
G36*
X162774691Y-85378053D02*
X162795926Y-85381203D01*
X162816750Y-85386419D01*
X162836962Y-85393651D01*
X162856368Y-85402830D01*
X162874781Y-85413866D01*
X162892024Y-85426654D01*
X162907930Y-85441070D01*
X162922346Y-85456976D01*
X162935134Y-85474219D01*
X162946170Y-85492632D01*
X162955349Y-85512038D01*
X162962581Y-85532250D01*
X162967797Y-85553074D01*
X162970947Y-85574309D01*
X162972000Y-85595750D01*
X162972000Y-86108250D01*
X162970947Y-86129691D01*
X162967797Y-86150926D01*
X162962581Y-86171750D01*
X162955349Y-86191962D01*
X162946170Y-86211368D01*
X162935134Y-86229781D01*
X162922346Y-86247024D01*
X162907930Y-86262930D01*
X162892024Y-86277346D01*
X162874781Y-86290134D01*
X162856368Y-86301170D01*
X162836962Y-86310349D01*
X162816750Y-86317581D01*
X162795926Y-86322797D01*
X162774691Y-86325947D01*
X162753250Y-86327000D01*
X162315750Y-86327000D01*
X162294309Y-86325947D01*
X162273074Y-86322797D01*
X162252250Y-86317581D01*
X162232038Y-86310349D01*
X162212632Y-86301170D01*
X162194219Y-86290134D01*
X162176976Y-86277346D01*
X162161070Y-86262930D01*
X162146654Y-86247024D01*
X162133866Y-86229781D01*
X162122830Y-86211368D01*
X162113651Y-86191962D01*
X162106419Y-86171750D01*
X162101203Y-86150926D01*
X162098053Y-86129691D01*
X162097000Y-86108250D01*
X162097000Y-85595750D01*
X162098053Y-85574309D01*
X162101203Y-85553074D01*
X162106419Y-85532250D01*
X162113651Y-85512038D01*
X162122830Y-85492632D01*
X162133866Y-85474219D01*
X162146654Y-85456976D01*
X162161070Y-85441070D01*
X162176976Y-85426654D01*
X162194219Y-85413866D01*
X162212632Y-85402830D01*
X162232038Y-85393651D01*
X162252250Y-85386419D01*
X162273074Y-85381203D01*
X162294309Y-85378053D01*
X162315750Y-85377000D01*
X162753250Y-85377000D01*
X162774691Y-85378053D01*
X162774691Y-85378053D01*
G37*
D12*
X162534500Y-85852000D03*
G04 #@! TD*
D10*
G04 #@! TO.C,C2*
G36*
X153947691Y-70201053D02*
X153968926Y-70204203D01*
X153989750Y-70209419D01*
X154009962Y-70216651D01*
X154029368Y-70225830D01*
X154047781Y-70236866D01*
X154065024Y-70249654D01*
X154080930Y-70264070D01*
X154095346Y-70279976D01*
X154108134Y-70297219D01*
X154119170Y-70315632D01*
X154128349Y-70335038D01*
X154135581Y-70355250D01*
X154140797Y-70376074D01*
X154143947Y-70397309D01*
X154145000Y-70418750D01*
X154145000Y-70856250D01*
X154143947Y-70877691D01*
X154140797Y-70898926D01*
X154135581Y-70919750D01*
X154128349Y-70939962D01*
X154119170Y-70959368D01*
X154108134Y-70977781D01*
X154095346Y-70995024D01*
X154080930Y-71010930D01*
X154065024Y-71025346D01*
X154047781Y-71038134D01*
X154029368Y-71049170D01*
X154009962Y-71058349D01*
X153989750Y-71065581D01*
X153968926Y-71070797D01*
X153947691Y-71073947D01*
X153926250Y-71075000D01*
X153413750Y-71075000D01*
X153392309Y-71073947D01*
X153371074Y-71070797D01*
X153350250Y-71065581D01*
X153330038Y-71058349D01*
X153310632Y-71049170D01*
X153292219Y-71038134D01*
X153274976Y-71025346D01*
X153259070Y-71010930D01*
X153244654Y-70995024D01*
X153231866Y-70977781D01*
X153220830Y-70959368D01*
X153211651Y-70939962D01*
X153204419Y-70919750D01*
X153199203Y-70898926D01*
X153196053Y-70877691D01*
X153195000Y-70856250D01*
X153195000Y-70418750D01*
X153196053Y-70397309D01*
X153199203Y-70376074D01*
X153204419Y-70355250D01*
X153211651Y-70335038D01*
X153220830Y-70315632D01*
X153231866Y-70297219D01*
X153244654Y-70279976D01*
X153259070Y-70264070D01*
X153274976Y-70249654D01*
X153292219Y-70236866D01*
X153310632Y-70225830D01*
X153330038Y-70216651D01*
X153350250Y-70209419D01*
X153371074Y-70204203D01*
X153392309Y-70201053D01*
X153413750Y-70200000D01*
X153926250Y-70200000D01*
X153947691Y-70201053D01*
X153947691Y-70201053D01*
G37*
D12*
X153670000Y-70637500D03*
D10*
G36*
X153947691Y-68626053D02*
X153968926Y-68629203D01*
X153989750Y-68634419D01*
X154009962Y-68641651D01*
X154029368Y-68650830D01*
X154047781Y-68661866D01*
X154065024Y-68674654D01*
X154080930Y-68689070D01*
X154095346Y-68704976D01*
X154108134Y-68722219D01*
X154119170Y-68740632D01*
X154128349Y-68760038D01*
X154135581Y-68780250D01*
X154140797Y-68801074D01*
X154143947Y-68822309D01*
X154145000Y-68843750D01*
X154145000Y-69281250D01*
X154143947Y-69302691D01*
X154140797Y-69323926D01*
X154135581Y-69344750D01*
X154128349Y-69364962D01*
X154119170Y-69384368D01*
X154108134Y-69402781D01*
X154095346Y-69420024D01*
X154080930Y-69435930D01*
X154065024Y-69450346D01*
X154047781Y-69463134D01*
X154029368Y-69474170D01*
X154009962Y-69483349D01*
X153989750Y-69490581D01*
X153968926Y-69495797D01*
X153947691Y-69498947D01*
X153926250Y-69500000D01*
X153413750Y-69500000D01*
X153392309Y-69498947D01*
X153371074Y-69495797D01*
X153350250Y-69490581D01*
X153330038Y-69483349D01*
X153310632Y-69474170D01*
X153292219Y-69463134D01*
X153274976Y-69450346D01*
X153259070Y-69435930D01*
X153244654Y-69420024D01*
X153231866Y-69402781D01*
X153220830Y-69384368D01*
X153211651Y-69364962D01*
X153204419Y-69344750D01*
X153199203Y-69323926D01*
X153196053Y-69302691D01*
X153195000Y-69281250D01*
X153195000Y-68843750D01*
X153196053Y-68822309D01*
X153199203Y-68801074D01*
X153204419Y-68780250D01*
X153211651Y-68760038D01*
X153220830Y-68740632D01*
X153231866Y-68722219D01*
X153244654Y-68704976D01*
X153259070Y-68689070D01*
X153274976Y-68674654D01*
X153292219Y-68661866D01*
X153310632Y-68650830D01*
X153330038Y-68641651D01*
X153350250Y-68634419D01*
X153371074Y-68629203D01*
X153392309Y-68626053D01*
X153413750Y-68625000D01*
X153926250Y-68625000D01*
X153947691Y-68626053D01*
X153947691Y-68626053D01*
G37*
D12*
X153670000Y-69062500D03*
G04 #@! TD*
D10*
G04 #@! TO.C,C3*
G36*
X161504691Y-62264053D02*
X161525926Y-62267203D01*
X161546750Y-62272419D01*
X161566962Y-62279651D01*
X161586368Y-62288830D01*
X161604781Y-62299866D01*
X161622024Y-62312654D01*
X161637930Y-62327070D01*
X161652346Y-62342976D01*
X161665134Y-62360219D01*
X161676170Y-62378632D01*
X161685349Y-62398038D01*
X161692581Y-62418250D01*
X161697797Y-62439074D01*
X161700947Y-62460309D01*
X161702000Y-62481750D01*
X161702000Y-62994250D01*
X161700947Y-63015691D01*
X161697797Y-63036926D01*
X161692581Y-63057750D01*
X161685349Y-63077962D01*
X161676170Y-63097368D01*
X161665134Y-63115781D01*
X161652346Y-63133024D01*
X161637930Y-63148930D01*
X161622024Y-63163346D01*
X161604781Y-63176134D01*
X161586368Y-63187170D01*
X161566962Y-63196349D01*
X161546750Y-63203581D01*
X161525926Y-63208797D01*
X161504691Y-63211947D01*
X161483250Y-63213000D01*
X161045750Y-63213000D01*
X161024309Y-63211947D01*
X161003074Y-63208797D01*
X160982250Y-63203581D01*
X160962038Y-63196349D01*
X160942632Y-63187170D01*
X160924219Y-63176134D01*
X160906976Y-63163346D01*
X160891070Y-63148930D01*
X160876654Y-63133024D01*
X160863866Y-63115781D01*
X160852830Y-63097368D01*
X160843651Y-63077962D01*
X160836419Y-63057750D01*
X160831203Y-63036926D01*
X160828053Y-63015691D01*
X160827000Y-62994250D01*
X160827000Y-62481750D01*
X160828053Y-62460309D01*
X160831203Y-62439074D01*
X160836419Y-62418250D01*
X160843651Y-62398038D01*
X160852830Y-62378632D01*
X160863866Y-62360219D01*
X160876654Y-62342976D01*
X160891070Y-62327070D01*
X160906976Y-62312654D01*
X160924219Y-62299866D01*
X160942632Y-62288830D01*
X160962038Y-62279651D01*
X160982250Y-62272419D01*
X161003074Y-62267203D01*
X161024309Y-62264053D01*
X161045750Y-62263000D01*
X161483250Y-62263000D01*
X161504691Y-62264053D01*
X161504691Y-62264053D01*
G37*
D12*
X161264500Y-62738000D03*
D10*
G36*
X163079691Y-62264053D02*
X163100926Y-62267203D01*
X163121750Y-62272419D01*
X163141962Y-62279651D01*
X163161368Y-62288830D01*
X163179781Y-62299866D01*
X163197024Y-62312654D01*
X163212930Y-62327070D01*
X163227346Y-62342976D01*
X163240134Y-62360219D01*
X163251170Y-62378632D01*
X163260349Y-62398038D01*
X163267581Y-62418250D01*
X163272797Y-62439074D01*
X163275947Y-62460309D01*
X163277000Y-62481750D01*
X163277000Y-62994250D01*
X163275947Y-63015691D01*
X163272797Y-63036926D01*
X163267581Y-63057750D01*
X163260349Y-63077962D01*
X163251170Y-63097368D01*
X163240134Y-63115781D01*
X163227346Y-63133024D01*
X163212930Y-63148930D01*
X163197024Y-63163346D01*
X163179781Y-63176134D01*
X163161368Y-63187170D01*
X163141962Y-63196349D01*
X163121750Y-63203581D01*
X163100926Y-63208797D01*
X163079691Y-63211947D01*
X163058250Y-63213000D01*
X162620750Y-63213000D01*
X162599309Y-63211947D01*
X162578074Y-63208797D01*
X162557250Y-63203581D01*
X162537038Y-63196349D01*
X162517632Y-63187170D01*
X162499219Y-63176134D01*
X162481976Y-63163346D01*
X162466070Y-63148930D01*
X162451654Y-63133024D01*
X162438866Y-63115781D01*
X162427830Y-63097368D01*
X162418651Y-63077962D01*
X162411419Y-63057750D01*
X162406203Y-63036926D01*
X162403053Y-63015691D01*
X162402000Y-62994250D01*
X162402000Y-62481750D01*
X162403053Y-62460309D01*
X162406203Y-62439074D01*
X162411419Y-62418250D01*
X162418651Y-62398038D01*
X162427830Y-62378632D01*
X162438866Y-62360219D01*
X162451654Y-62342976D01*
X162466070Y-62327070D01*
X162481976Y-62312654D01*
X162499219Y-62299866D01*
X162517632Y-62288830D01*
X162537038Y-62279651D01*
X162557250Y-62272419D01*
X162578074Y-62267203D01*
X162599309Y-62264053D01*
X162620750Y-62263000D01*
X163058250Y-62263000D01*
X163079691Y-62264053D01*
X163079691Y-62264053D01*
G37*
D12*
X162839500Y-62738000D03*
G04 #@! TD*
D13*
G04 #@! TO.C,D1*
X156226000Y-105852000D03*
X156226000Y-103952000D03*
X158226000Y-104902000D03*
G04 #@! TD*
D10*
G04 #@! TO.C,R1*
G36*
X151573142Y-102933174D02*
X151596803Y-102936684D01*
X151620007Y-102942496D01*
X151642529Y-102950554D01*
X151664153Y-102960782D01*
X151684670Y-102973079D01*
X151703883Y-102987329D01*
X151721607Y-103003393D01*
X151737671Y-103021117D01*
X151751921Y-103040330D01*
X151764218Y-103060847D01*
X151774446Y-103082471D01*
X151782504Y-103104993D01*
X151788316Y-103128197D01*
X151791826Y-103151858D01*
X151793000Y-103175750D01*
X151793000Y-104088250D01*
X151791826Y-104112142D01*
X151788316Y-104135803D01*
X151782504Y-104159007D01*
X151774446Y-104181529D01*
X151764218Y-104203153D01*
X151751921Y-104223670D01*
X151737671Y-104242883D01*
X151721607Y-104260607D01*
X151703883Y-104276671D01*
X151684670Y-104290921D01*
X151664153Y-104303218D01*
X151642529Y-104313446D01*
X151620007Y-104321504D01*
X151596803Y-104327316D01*
X151573142Y-104330826D01*
X151549250Y-104332000D01*
X151061750Y-104332000D01*
X151037858Y-104330826D01*
X151014197Y-104327316D01*
X150990993Y-104321504D01*
X150968471Y-104313446D01*
X150946847Y-104303218D01*
X150926330Y-104290921D01*
X150907117Y-104276671D01*
X150889393Y-104260607D01*
X150873329Y-104242883D01*
X150859079Y-104223670D01*
X150846782Y-104203153D01*
X150836554Y-104181529D01*
X150828496Y-104159007D01*
X150822684Y-104135803D01*
X150819174Y-104112142D01*
X150818000Y-104088250D01*
X150818000Y-103175750D01*
X150819174Y-103151858D01*
X150822684Y-103128197D01*
X150828496Y-103104993D01*
X150836554Y-103082471D01*
X150846782Y-103060847D01*
X150859079Y-103040330D01*
X150873329Y-103021117D01*
X150889393Y-103003393D01*
X150907117Y-102987329D01*
X150926330Y-102973079D01*
X150946847Y-102960782D01*
X150968471Y-102950554D01*
X150990993Y-102942496D01*
X151014197Y-102936684D01*
X151037858Y-102933174D01*
X151061750Y-102932000D01*
X151549250Y-102932000D01*
X151573142Y-102933174D01*
X151573142Y-102933174D01*
G37*
D11*
X151305500Y-103632000D03*
D10*
G36*
X149698142Y-102933174D02*
X149721803Y-102936684D01*
X149745007Y-102942496D01*
X149767529Y-102950554D01*
X149789153Y-102960782D01*
X149809670Y-102973079D01*
X149828883Y-102987329D01*
X149846607Y-103003393D01*
X149862671Y-103021117D01*
X149876921Y-103040330D01*
X149889218Y-103060847D01*
X149899446Y-103082471D01*
X149907504Y-103104993D01*
X149913316Y-103128197D01*
X149916826Y-103151858D01*
X149918000Y-103175750D01*
X149918000Y-104088250D01*
X149916826Y-104112142D01*
X149913316Y-104135803D01*
X149907504Y-104159007D01*
X149899446Y-104181529D01*
X149889218Y-104203153D01*
X149876921Y-104223670D01*
X149862671Y-104242883D01*
X149846607Y-104260607D01*
X149828883Y-104276671D01*
X149809670Y-104290921D01*
X149789153Y-104303218D01*
X149767529Y-104313446D01*
X149745007Y-104321504D01*
X149721803Y-104327316D01*
X149698142Y-104330826D01*
X149674250Y-104332000D01*
X149186750Y-104332000D01*
X149162858Y-104330826D01*
X149139197Y-104327316D01*
X149115993Y-104321504D01*
X149093471Y-104313446D01*
X149071847Y-104303218D01*
X149051330Y-104290921D01*
X149032117Y-104276671D01*
X149014393Y-104260607D01*
X148998329Y-104242883D01*
X148984079Y-104223670D01*
X148971782Y-104203153D01*
X148961554Y-104181529D01*
X148953496Y-104159007D01*
X148947684Y-104135803D01*
X148944174Y-104112142D01*
X148943000Y-104088250D01*
X148943000Y-103175750D01*
X148944174Y-103151858D01*
X148947684Y-103128197D01*
X148953496Y-103104993D01*
X148961554Y-103082471D01*
X148971782Y-103060847D01*
X148984079Y-103040330D01*
X148998329Y-103021117D01*
X149014393Y-103003393D01*
X149032117Y-102987329D01*
X149051330Y-102973079D01*
X149071847Y-102960782D01*
X149093471Y-102950554D01*
X149115993Y-102942496D01*
X149139197Y-102936684D01*
X149162858Y-102933174D01*
X149186750Y-102932000D01*
X149674250Y-102932000D01*
X149698142Y-102933174D01*
X149698142Y-102933174D01*
G37*
D11*
X149430500Y-103632000D03*
G04 #@! TD*
D10*
G04 #@! TO.C,R2*
G36*
X151980142Y-98451174D02*
X152003803Y-98454684D01*
X152027007Y-98460496D01*
X152049529Y-98468554D01*
X152071153Y-98478782D01*
X152091670Y-98491079D01*
X152110883Y-98505329D01*
X152128607Y-98521393D01*
X152144671Y-98539117D01*
X152158921Y-98558330D01*
X152171218Y-98578847D01*
X152181446Y-98600471D01*
X152189504Y-98622993D01*
X152195316Y-98646197D01*
X152198826Y-98669858D01*
X152200000Y-98693750D01*
X152200000Y-99181250D01*
X152198826Y-99205142D01*
X152195316Y-99228803D01*
X152189504Y-99252007D01*
X152181446Y-99274529D01*
X152171218Y-99296153D01*
X152158921Y-99316670D01*
X152144671Y-99335883D01*
X152128607Y-99353607D01*
X152110883Y-99369671D01*
X152091670Y-99383921D01*
X152071153Y-99396218D01*
X152049529Y-99406446D01*
X152027007Y-99414504D01*
X152003803Y-99420316D01*
X151980142Y-99423826D01*
X151956250Y-99425000D01*
X151043750Y-99425000D01*
X151019858Y-99423826D01*
X150996197Y-99420316D01*
X150972993Y-99414504D01*
X150950471Y-99406446D01*
X150928847Y-99396218D01*
X150908330Y-99383921D01*
X150889117Y-99369671D01*
X150871393Y-99353607D01*
X150855329Y-99335883D01*
X150841079Y-99316670D01*
X150828782Y-99296153D01*
X150818554Y-99274529D01*
X150810496Y-99252007D01*
X150804684Y-99228803D01*
X150801174Y-99205142D01*
X150800000Y-99181250D01*
X150800000Y-98693750D01*
X150801174Y-98669858D01*
X150804684Y-98646197D01*
X150810496Y-98622993D01*
X150818554Y-98600471D01*
X150828782Y-98578847D01*
X150841079Y-98558330D01*
X150855329Y-98539117D01*
X150871393Y-98521393D01*
X150889117Y-98505329D01*
X150908330Y-98491079D01*
X150928847Y-98478782D01*
X150950471Y-98468554D01*
X150972993Y-98460496D01*
X150996197Y-98454684D01*
X151019858Y-98451174D01*
X151043750Y-98450000D01*
X151956250Y-98450000D01*
X151980142Y-98451174D01*
X151980142Y-98451174D01*
G37*
D11*
X151500000Y-98937500D03*
D10*
G36*
X151980142Y-96576174D02*
X152003803Y-96579684D01*
X152027007Y-96585496D01*
X152049529Y-96593554D01*
X152071153Y-96603782D01*
X152091670Y-96616079D01*
X152110883Y-96630329D01*
X152128607Y-96646393D01*
X152144671Y-96664117D01*
X152158921Y-96683330D01*
X152171218Y-96703847D01*
X152181446Y-96725471D01*
X152189504Y-96747993D01*
X152195316Y-96771197D01*
X152198826Y-96794858D01*
X152200000Y-96818750D01*
X152200000Y-97306250D01*
X152198826Y-97330142D01*
X152195316Y-97353803D01*
X152189504Y-97377007D01*
X152181446Y-97399529D01*
X152171218Y-97421153D01*
X152158921Y-97441670D01*
X152144671Y-97460883D01*
X152128607Y-97478607D01*
X152110883Y-97494671D01*
X152091670Y-97508921D01*
X152071153Y-97521218D01*
X152049529Y-97531446D01*
X152027007Y-97539504D01*
X152003803Y-97545316D01*
X151980142Y-97548826D01*
X151956250Y-97550000D01*
X151043750Y-97550000D01*
X151019858Y-97548826D01*
X150996197Y-97545316D01*
X150972993Y-97539504D01*
X150950471Y-97531446D01*
X150928847Y-97521218D01*
X150908330Y-97508921D01*
X150889117Y-97494671D01*
X150871393Y-97478607D01*
X150855329Y-97460883D01*
X150841079Y-97441670D01*
X150828782Y-97421153D01*
X150818554Y-97399529D01*
X150810496Y-97377007D01*
X150804684Y-97353803D01*
X150801174Y-97330142D01*
X150800000Y-97306250D01*
X150800000Y-96818750D01*
X150801174Y-96794858D01*
X150804684Y-96771197D01*
X150810496Y-96747993D01*
X150818554Y-96725471D01*
X150828782Y-96703847D01*
X150841079Y-96683330D01*
X150855329Y-96664117D01*
X150871393Y-96646393D01*
X150889117Y-96630329D01*
X150908330Y-96616079D01*
X150928847Y-96603782D01*
X150950471Y-96593554D01*
X150972993Y-96585496D01*
X150996197Y-96579684D01*
X151019858Y-96576174D01*
X151043750Y-96575000D01*
X151956250Y-96575000D01*
X151980142Y-96576174D01*
X151980142Y-96576174D01*
G37*
D11*
X151500000Y-97062500D03*
G04 #@! TD*
D10*
G04 #@! TO.C,R3*
G36*
X156690142Y-96620174D02*
X156713803Y-96623684D01*
X156737007Y-96629496D01*
X156759529Y-96637554D01*
X156781153Y-96647782D01*
X156801670Y-96660079D01*
X156820883Y-96674329D01*
X156838607Y-96690393D01*
X156854671Y-96708117D01*
X156868921Y-96727330D01*
X156881218Y-96747847D01*
X156891446Y-96769471D01*
X156899504Y-96791993D01*
X156905316Y-96815197D01*
X156908826Y-96838858D01*
X156910000Y-96862750D01*
X156910000Y-97350250D01*
X156908826Y-97374142D01*
X156905316Y-97397803D01*
X156899504Y-97421007D01*
X156891446Y-97443529D01*
X156881218Y-97465153D01*
X156868921Y-97485670D01*
X156854671Y-97504883D01*
X156838607Y-97522607D01*
X156820883Y-97538671D01*
X156801670Y-97552921D01*
X156781153Y-97565218D01*
X156759529Y-97575446D01*
X156737007Y-97583504D01*
X156713803Y-97589316D01*
X156690142Y-97592826D01*
X156666250Y-97594000D01*
X155753750Y-97594000D01*
X155729858Y-97592826D01*
X155706197Y-97589316D01*
X155682993Y-97583504D01*
X155660471Y-97575446D01*
X155638847Y-97565218D01*
X155618330Y-97552921D01*
X155599117Y-97538671D01*
X155581393Y-97522607D01*
X155565329Y-97504883D01*
X155551079Y-97485670D01*
X155538782Y-97465153D01*
X155528554Y-97443529D01*
X155520496Y-97421007D01*
X155514684Y-97397803D01*
X155511174Y-97374142D01*
X155510000Y-97350250D01*
X155510000Y-96862750D01*
X155511174Y-96838858D01*
X155514684Y-96815197D01*
X155520496Y-96791993D01*
X155528554Y-96769471D01*
X155538782Y-96747847D01*
X155551079Y-96727330D01*
X155565329Y-96708117D01*
X155581393Y-96690393D01*
X155599117Y-96674329D01*
X155618330Y-96660079D01*
X155638847Y-96647782D01*
X155660471Y-96637554D01*
X155682993Y-96629496D01*
X155706197Y-96623684D01*
X155729858Y-96620174D01*
X155753750Y-96619000D01*
X156666250Y-96619000D01*
X156690142Y-96620174D01*
X156690142Y-96620174D01*
G37*
D11*
X156210000Y-97106500D03*
D10*
G36*
X156690142Y-98495174D02*
X156713803Y-98498684D01*
X156737007Y-98504496D01*
X156759529Y-98512554D01*
X156781153Y-98522782D01*
X156801670Y-98535079D01*
X156820883Y-98549329D01*
X156838607Y-98565393D01*
X156854671Y-98583117D01*
X156868921Y-98602330D01*
X156881218Y-98622847D01*
X156891446Y-98644471D01*
X156899504Y-98666993D01*
X156905316Y-98690197D01*
X156908826Y-98713858D01*
X156910000Y-98737750D01*
X156910000Y-99225250D01*
X156908826Y-99249142D01*
X156905316Y-99272803D01*
X156899504Y-99296007D01*
X156891446Y-99318529D01*
X156881218Y-99340153D01*
X156868921Y-99360670D01*
X156854671Y-99379883D01*
X156838607Y-99397607D01*
X156820883Y-99413671D01*
X156801670Y-99427921D01*
X156781153Y-99440218D01*
X156759529Y-99450446D01*
X156737007Y-99458504D01*
X156713803Y-99464316D01*
X156690142Y-99467826D01*
X156666250Y-99469000D01*
X155753750Y-99469000D01*
X155729858Y-99467826D01*
X155706197Y-99464316D01*
X155682993Y-99458504D01*
X155660471Y-99450446D01*
X155638847Y-99440218D01*
X155618330Y-99427921D01*
X155599117Y-99413671D01*
X155581393Y-99397607D01*
X155565329Y-99379883D01*
X155551079Y-99360670D01*
X155538782Y-99340153D01*
X155528554Y-99318529D01*
X155520496Y-99296007D01*
X155514684Y-99272803D01*
X155511174Y-99249142D01*
X155510000Y-99225250D01*
X155510000Y-98737750D01*
X155511174Y-98713858D01*
X155514684Y-98690197D01*
X155520496Y-98666993D01*
X155528554Y-98644471D01*
X155538782Y-98622847D01*
X155551079Y-98602330D01*
X155565329Y-98583117D01*
X155581393Y-98565393D01*
X155599117Y-98549329D01*
X155618330Y-98535079D01*
X155638847Y-98522782D01*
X155660471Y-98512554D01*
X155682993Y-98504496D01*
X155706197Y-98498684D01*
X155729858Y-98495174D01*
X155753750Y-98494000D01*
X156666250Y-98494000D01*
X156690142Y-98495174D01*
X156690142Y-98495174D01*
G37*
D11*
X156210000Y-98981500D03*
G04 #@! TD*
D10*
G04 #@! TO.C,R4*
G36*
X154730142Y-57076174D02*
X154753803Y-57079684D01*
X154777007Y-57085496D01*
X154799529Y-57093554D01*
X154821153Y-57103782D01*
X154841670Y-57116079D01*
X154860883Y-57130329D01*
X154878607Y-57146393D01*
X154894671Y-57164117D01*
X154908921Y-57183330D01*
X154921218Y-57203847D01*
X154931446Y-57225471D01*
X154939504Y-57247993D01*
X154945316Y-57271197D01*
X154948826Y-57294858D01*
X154950000Y-57318750D01*
X154950000Y-57806250D01*
X154948826Y-57830142D01*
X154945316Y-57853803D01*
X154939504Y-57877007D01*
X154931446Y-57899529D01*
X154921218Y-57921153D01*
X154908921Y-57941670D01*
X154894671Y-57960883D01*
X154878607Y-57978607D01*
X154860883Y-57994671D01*
X154841670Y-58008921D01*
X154821153Y-58021218D01*
X154799529Y-58031446D01*
X154777007Y-58039504D01*
X154753803Y-58045316D01*
X154730142Y-58048826D01*
X154706250Y-58050000D01*
X153793750Y-58050000D01*
X153769858Y-58048826D01*
X153746197Y-58045316D01*
X153722993Y-58039504D01*
X153700471Y-58031446D01*
X153678847Y-58021218D01*
X153658330Y-58008921D01*
X153639117Y-57994671D01*
X153621393Y-57978607D01*
X153605329Y-57960883D01*
X153591079Y-57941670D01*
X153578782Y-57921153D01*
X153568554Y-57899529D01*
X153560496Y-57877007D01*
X153554684Y-57853803D01*
X153551174Y-57830142D01*
X153550000Y-57806250D01*
X153550000Y-57318750D01*
X153551174Y-57294858D01*
X153554684Y-57271197D01*
X153560496Y-57247993D01*
X153568554Y-57225471D01*
X153578782Y-57203847D01*
X153591079Y-57183330D01*
X153605329Y-57164117D01*
X153621393Y-57146393D01*
X153639117Y-57130329D01*
X153658330Y-57116079D01*
X153678847Y-57103782D01*
X153700471Y-57093554D01*
X153722993Y-57085496D01*
X153746197Y-57079684D01*
X153769858Y-57076174D01*
X153793750Y-57075000D01*
X154706250Y-57075000D01*
X154730142Y-57076174D01*
X154730142Y-57076174D01*
G37*
D11*
X154250000Y-57562500D03*
D10*
G36*
X154730142Y-58951174D02*
X154753803Y-58954684D01*
X154777007Y-58960496D01*
X154799529Y-58968554D01*
X154821153Y-58978782D01*
X154841670Y-58991079D01*
X154860883Y-59005329D01*
X154878607Y-59021393D01*
X154894671Y-59039117D01*
X154908921Y-59058330D01*
X154921218Y-59078847D01*
X154931446Y-59100471D01*
X154939504Y-59122993D01*
X154945316Y-59146197D01*
X154948826Y-59169858D01*
X154950000Y-59193750D01*
X154950000Y-59681250D01*
X154948826Y-59705142D01*
X154945316Y-59728803D01*
X154939504Y-59752007D01*
X154931446Y-59774529D01*
X154921218Y-59796153D01*
X154908921Y-59816670D01*
X154894671Y-59835883D01*
X154878607Y-59853607D01*
X154860883Y-59869671D01*
X154841670Y-59883921D01*
X154821153Y-59896218D01*
X154799529Y-59906446D01*
X154777007Y-59914504D01*
X154753803Y-59920316D01*
X154730142Y-59923826D01*
X154706250Y-59925000D01*
X153793750Y-59925000D01*
X153769858Y-59923826D01*
X153746197Y-59920316D01*
X153722993Y-59914504D01*
X153700471Y-59906446D01*
X153678847Y-59896218D01*
X153658330Y-59883921D01*
X153639117Y-59869671D01*
X153621393Y-59853607D01*
X153605329Y-59835883D01*
X153591079Y-59816670D01*
X153578782Y-59796153D01*
X153568554Y-59774529D01*
X153560496Y-59752007D01*
X153554684Y-59728803D01*
X153551174Y-59705142D01*
X153550000Y-59681250D01*
X153550000Y-59193750D01*
X153551174Y-59169858D01*
X153554684Y-59146197D01*
X153560496Y-59122993D01*
X153568554Y-59100471D01*
X153578782Y-59078847D01*
X153591079Y-59058330D01*
X153605329Y-59039117D01*
X153621393Y-59021393D01*
X153639117Y-59005329D01*
X153658330Y-58991079D01*
X153678847Y-58978782D01*
X153700471Y-58968554D01*
X153722993Y-58960496D01*
X153746197Y-58954684D01*
X153769858Y-58951174D01*
X153793750Y-58950000D01*
X154706250Y-58950000D01*
X154730142Y-58951174D01*
X154730142Y-58951174D01*
G37*
D11*
X154250000Y-59437500D03*
G04 #@! TD*
D10*
G04 #@! TO.C,R5*
G36*
X156690142Y-90699674D02*
X156713803Y-90703184D01*
X156737007Y-90708996D01*
X156759529Y-90717054D01*
X156781153Y-90727282D01*
X156801670Y-90739579D01*
X156820883Y-90753829D01*
X156838607Y-90769893D01*
X156854671Y-90787617D01*
X156868921Y-90806830D01*
X156881218Y-90827347D01*
X156891446Y-90848971D01*
X156899504Y-90871493D01*
X156905316Y-90894697D01*
X156908826Y-90918358D01*
X156910000Y-90942250D01*
X156910000Y-91429750D01*
X156908826Y-91453642D01*
X156905316Y-91477303D01*
X156899504Y-91500507D01*
X156891446Y-91523029D01*
X156881218Y-91544653D01*
X156868921Y-91565170D01*
X156854671Y-91584383D01*
X156838607Y-91602107D01*
X156820883Y-91618171D01*
X156801670Y-91632421D01*
X156781153Y-91644718D01*
X156759529Y-91654946D01*
X156737007Y-91663004D01*
X156713803Y-91668816D01*
X156690142Y-91672326D01*
X156666250Y-91673500D01*
X155753750Y-91673500D01*
X155729858Y-91672326D01*
X155706197Y-91668816D01*
X155682993Y-91663004D01*
X155660471Y-91654946D01*
X155638847Y-91644718D01*
X155618330Y-91632421D01*
X155599117Y-91618171D01*
X155581393Y-91602107D01*
X155565329Y-91584383D01*
X155551079Y-91565170D01*
X155538782Y-91544653D01*
X155528554Y-91523029D01*
X155520496Y-91500507D01*
X155514684Y-91477303D01*
X155511174Y-91453642D01*
X155510000Y-91429750D01*
X155510000Y-90942250D01*
X155511174Y-90918358D01*
X155514684Y-90894697D01*
X155520496Y-90871493D01*
X155528554Y-90848971D01*
X155538782Y-90827347D01*
X155551079Y-90806830D01*
X155565329Y-90787617D01*
X155581393Y-90769893D01*
X155599117Y-90753829D01*
X155618330Y-90739579D01*
X155638847Y-90727282D01*
X155660471Y-90717054D01*
X155682993Y-90708996D01*
X155706197Y-90703184D01*
X155729858Y-90699674D01*
X155753750Y-90698500D01*
X156666250Y-90698500D01*
X156690142Y-90699674D01*
X156690142Y-90699674D01*
G37*
D11*
X156210000Y-91186000D03*
D10*
G36*
X156690142Y-88824674D02*
X156713803Y-88828184D01*
X156737007Y-88833996D01*
X156759529Y-88842054D01*
X156781153Y-88852282D01*
X156801670Y-88864579D01*
X156820883Y-88878829D01*
X156838607Y-88894893D01*
X156854671Y-88912617D01*
X156868921Y-88931830D01*
X156881218Y-88952347D01*
X156891446Y-88973971D01*
X156899504Y-88996493D01*
X156905316Y-89019697D01*
X156908826Y-89043358D01*
X156910000Y-89067250D01*
X156910000Y-89554750D01*
X156908826Y-89578642D01*
X156905316Y-89602303D01*
X156899504Y-89625507D01*
X156891446Y-89648029D01*
X156881218Y-89669653D01*
X156868921Y-89690170D01*
X156854671Y-89709383D01*
X156838607Y-89727107D01*
X156820883Y-89743171D01*
X156801670Y-89757421D01*
X156781153Y-89769718D01*
X156759529Y-89779946D01*
X156737007Y-89788004D01*
X156713803Y-89793816D01*
X156690142Y-89797326D01*
X156666250Y-89798500D01*
X155753750Y-89798500D01*
X155729858Y-89797326D01*
X155706197Y-89793816D01*
X155682993Y-89788004D01*
X155660471Y-89779946D01*
X155638847Y-89769718D01*
X155618330Y-89757421D01*
X155599117Y-89743171D01*
X155581393Y-89727107D01*
X155565329Y-89709383D01*
X155551079Y-89690170D01*
X155538782Y-89669653D01*
X155528554Y-89648029D01*
X155520496Y-89625507D01*
X155514684Y-89602303D01*
X155511174Y-89578642D01*
X155510000Y-89554750D01*
X155510000Y-89067250D01*
X155511174Y-89043358D01*
X155514684Y-89019697D01*
X155520496Y-88996493D01*
X155528554Y-88973971D01*
X155538782Y-88952347D01*
X155551079Y-88931830D01*
X155565329Y-88912617D01*
X155581393Y-88894893D01*
X155599117Y-88878829D01*
X155618330Y-88864579D01*
X155638847Y-88852282D01*
X155660471Y-88842054D01*
X155682993Y-88833996D01*
X155706197Y-88828184D01*
X155729858Y-88824674D01*
X155753750Y-88823500D01*
X156666250Y-88823500D01*
X156690142Y-88824674D01*
X156690142Y-88824674D01*
G37*
D11*
X156210000Y-89311000D03*
G04 #@! TD*
D10*
G04 #@! TO.C,R6*
G36*
X170660142Y-89254174D02*
X170683803Y-89257684D01*
X170707007Y-89263496D01*
X170729529Y-89271554D01*
X170751153Y-89281782D01*
X170771670Y-89294079D01*
X170790883Y-89308329D01*
X170808607Y-89324393D01*
X170824671Y-89342117D01*
X170838921Y-89361330D01*
X170851218Y-89381847D01*
X170861446Y-89403471D01*
X170869504Y-89425993D01*
X170875316Y-89449197D01*
X170878826Y-89472858D01*
X170880000Y-89496750D01*
X170880000Y-89984250D01*
X170878826Y-90008142D01*
X170875316Y-90031803D01*
X170869504Y-90055007D01*
X170861446Y-90077529D01*
X170851218Y-90099153D01*
X170838921Y-90119670D01*
X170824671Y-90138883D01*
X170808607Y-90156607D01*
X170790883Y-90172671D01*
X170771670Y-90186921D01*
X170751153Y-90199218D01*
X170729529Y-90209446D01*
X170707007Y-90217504D01*
X170683803Y-90223316D01*
X170660142Y-90226826D01*
X170636250Y-90228000D01*
X169723750Y-90228000D01*
X169699858Y-90226826D01*
X169676197Y-90223316D01*
X169652993Y-90217504D01*
X169630471Y-90209446D01*
X169608847Y-90199218D01*
X169588330Y-90186921D01*
X169569117Y-90172671D01*
X169551393Y-90156607D01*
X169535329Y-90138883D01*
X169521079Y-90119670D01*
X169508782Y-90099153D01*
X169498554Y-90077529D01*
X169490496Y-90055007D01*
X169484684Y-90031803D01*
X169481174Y-90008142D01*
X169480000Y-89984250D01*
X169480000Y-89496750D01*
X169481174Y-89472858D01*
X169484684Y-89449197D01*
X169490496Y-89425993D01*
X169498554Y-89403471D01*
X169508782Y-89381847D01*
X169521079Y-89361330D01*
X169535329Y-89342117D01*
X169551393Y-89324393D01*
X169569117Y-89308329D01*
X169588330Y-89294079D01*
X169608847Y-89281782D01*
X169630471Y-89271554D01*
X169652993Y-89263496D01*
X169676197Y-89257684D01*
X169699858Y-89254174D01*
X169723750Y-89253000D01*
X170636250Y-89253000D01*
X170660142Y-89254174D01*
X170660142Y-89254174D01*
G37*
D11*
X170180000Y-89740500D03*
D10*
G36*
X170660142Y-91129174D02*
X170683803Y-91132684D01*
X170707007Y-91138496D01*
X170729529Y-91146554D01*
X170751153Y-91156782D01*
X170771670Y-91169079D01*
X170790883Y-91183329D01*
X170808607Y-91199393D01*
X170824671Y-91217117D01*
X170838921Y-91236330D01*
X170851218Y-91256847D01*
X170861446Y-91278471D01*
X170869504Y-91300993D01*
X170875316Y-91324197D01*
X170878826Y-91347858D01*
X170880000Y-91371750D01*
X170880000Y-91859250D01*
X170878826Y-91883142D01*
X170875316Y-91906803D01*
X170869504Y-91930007D01*
X170861446Y-91952529D01*
X170851218Y-91974153D01*
X170838921Y-91994670D01*
X170824671Y-92013883D01*
X170808607Y-92031607D01*
X170790883Y-92047671D01*
X170771670Y-92061921D01*
X170751153Y-92074218D01*
X170729529Y-92084446D01*
X170707007Y-92092504D01*
X170683803Y-92098316D01*
X170660142Y-92101826D01*
X170636250Y-92103000D01*
X169723750Y-92103000D01*
X169699858Y-92101826D01*
X169676197Y-92098316D01*
X169652993Y-92092504D01*
X169630471Y-92084446D01*
X169608847Y-92074218D01*
X169588330Y-92061921D01*
X169569117Y-92047671D01*
X169551393Y-92031607D01*
X169535329Y-92013883D01*
X169521079Y-91994670D01*
X169508782Y-91974153D01*
X169498554Y-91952529D01*
X169490496Y-91930007D01*
X169484684Y-91906803D01*
X169481174Y-91883142D01*
X169480000Y-91859250D01*
X169480000Y-91371750D01*
X169481174Y-91347858D01*
X169484684Y-91324197D01*
X169490496Y-91300993D01*
X169498554Y-91278471D01*
X169508782Y-91256847D01*
X169521079Y-91236330D01*
X169535329Y-91217117D01*
X169551393Y-91199393D01*
X169569117Y-91183329D01*
X169588330Y-91169079D01*
X169608847Y-91156782D01*
X169630471Y-91146554D01*
X169652993Y-91138496D01*
X169676197Y-91132684D01*
X169699858Y-91129174D01*
X169723750Y-91128000D01*
X170636250Y-91128000D01*
X170660142Y-91129174D01*
X170660142Y-91129174D01*
G37*
D11*
X170180000Y-91615500D03*
G04 #@! TD*
D10*
G04 #@! TO.C,R7*
G36*
X170914142Y-95271674D02*
X170937803Y-95275184D01*
X170961007Y-95280996D01*
X170983529Y-95289054D01*
X171005153Y-95299282D01*
X171025670Y-95311579D01*
X171044883Y-95325829D01*
X171062607Y-95341893D01*
X171078671Y-95359617D01*
X171092921Y-95378830D01*
X171105218Y-95399347D01*
X171115446Y-95420971D01*
X171123504Y-95443493D01*
X171129316Y-95466697D01*
X171132826Y-95490358D01*
X171134000Y-95514250D01*
X171134000Y-96001750D01*
X171132826Y-96025642D01*
X171129316Y-96049303D01*
X171123504Y-96072507D01*
X171115446Y-96095029D01*
X171105218Y-96116653D01*
X171092921Y-96137170D01*
X171078671Y-96156383D01*
X171062607Y-96174107D01*
X171044883Y-96190171D01*
X171025670Y-96204421D01*
X171005153Y-96216718D01*
X170983529Y-96226946D01*
X170961007Y-96235004D01*
X170937803Y-96240816D01*
X170914142Y-96244326D01*
X170890250Y-96245500D01*
X169977750Y-96245500D01*
X169953858Y-96244326D01*
X169930197Y-96240816D01*
X169906993Y-96235004D01*
X169884471Y-96226946D01*
X169862847Y-96216718D01*
X169842330Y-96204421D01*
X169823117Y-96190171D01*
X169805393Y-96174107D01*
X169789329Y-96156383D01*
X169775079Y-96137170D01*
X169762782Y-96116653D01*
X169752554Y-96095029D01*
X169744496Y-96072507D01*
X169738684Y-96049303D01*
X169735174Y-96025642D01*
X169734000Y-96001750D01*
X169734000Y-95514250D01*
X169735174Y-95490358D01*
X169738684Y-95466697D01*
X169744496Y-95443493D01*
X169752554Y-95420971D01*
X169762782Y-95399347D01*
X169775079Y-95378830D01*
X169789329Y-95359617D01*
X169805393Y-95341893D01*
X169823117Y-95325829D01*
X169842330Y-95311579D01*
X169862847Y-95299282D01*
X169884471Y-95289054D01*
X169906993Y-95280996D01*
X169930197Y-95275184D01*
X169953858Y-95271674D01*
X169977750Y-95270500D01*
X170890250Y-95270500D01*
X170914142Y-95271674D01*
X170914142Y-95271674D01*
G37*
D11*
X170434000Y-95758000D03*
D10*
G36*
X170914142Y-97146674D02*
X170937803Y-97150184D01*
X170961007Y-97155996D01*
X170983529Y-97164054D01*
X171005153Y-97174282D01*
X171025670Y-97186579D01*
X171044883Y-97200829D01*
X171062607Y-97216893D01*
X171078671Y-97234617D01*
X171092921Y-97253830D01*
X171105218Y-97274347D01*
X171115446Y-97295971D01*
X171123504Y-97318493D01*
X171129316Y-97341697D01*
X171132826Y-97365358D01*
X171134000Y-97389250D01*
X171134000Y-97876750D01*
X171132826Y-97900642D01*
X171129316Y-97924303D01*
X171123504Y-97947507D01*
X171115446Y-97970029D01*
X171105218Y-97991653D01*
X171092921Y-98012170D01*
X171078671Y-98031383D01*
X171062607Y-98049107D01*
X171044883Y-98065171D01*
X171025670Y-98079421D01*
X171005153Y-98091718D01*
X170983529Y-98101946D01*
X170961007Y-98110004D01*
X170937803Y-98115816D01*
X170914142Y-98119326D01*
X170890250Y-98120500D01*
X169977750Y-98120500D01*
X169953858Y-98119326D01*
X169930197Y-98115816D01*
X169906993Y-98110004D01*
X169884471Y-98101946D01*
X169862847Y-98091718D01*
X169842330Y-98079421D01*
X169823117Y-98065171D01*
X169805393Y-98049107D01*
X169789329Y-98031383D01*
X169775079Y-98012170D01*
X169762782Y-97991653D01*
X169752554Y-97970029D01*
X169744496Y-97947507D01*
X169738684Y-97924303D01*
X169735174Y-97900642D01*
X169734000Y-97876750D01*
X169734000Y-97389250D01*
X169735174Y-97365358D01*
X169738684Y-97341697D01*
X169744496Y-97318493D01*
X169752554Y-97295971D01*
X169762782Y-97274347D01*
X169775079Y-97253830D01*
X169789329Y-97234617D01*
X169805393Y-97216893D01*
X169823117Y-97200829D01*
X169842330Y-97186579D01*
X169862847Y-97174282D01*
X169884471Y-97164054D01*
X169906993Y-97155996D01*
X169930197Y-97150184D01*
X169953858Y-97146674D01*
X169977750Y-97145500D01*
X170890250Y-97145500D01*
X170914142Y-97146674D01*
X170914142Y-97146674D01*
G37*
D11*
X170434000Y-97633000D03*
G04 #@! TD*
D10*
G04 #@! TO.C,R8*
G36*
X154658142Y-51154174D02*
X154681803Y-51157684D01*
X154705007Y-51163496D01*
X154727529Y-51171554D01*
X154749153Y-51181782D01*
X154769670Y-51194079D01*
X154788883Y-51208329D01*
X154806607Y-51224393D01*
X154822671Y-51242117D01*
X154836921Y-51261330D01*
X154849218Y-51281847D01*
X154859446Y-51303471D01*
X154867504Y-51325993D01*
X154873316Y-51349197D01*
X154876826Y-51372858D01*
X154878000Y-51396750D01*
X154878000Y-51884250D01*
X154876826Y-51908142D01*
X154873316Y-51931803D01*
X154867504Y-51955007D01*
X154859446Y-51977529D01*
X154849218Y-51999153D01*
X154836921Y-52019670D01*
X154822671Y-52038883D01*
X154806607Y-52056607D01*
X154788883Y-52072671D01*
X154769670Y-52086921D01*
X154749153Y-52099218D01*
X154727529Y-52109446D01*
X154705007Y-52117504D01*
X154681803Y-52123316D01*
X154658142Y-52126826D01*
X154634250Y-52128000D01*
X153721750Y-52128000D01*
X153697858Y-52126826D01*
X153674197Y-52123316D01*
X153650993Y-52117504D01*
X153628471Y-52109446D01*
X153606847Y-52099218D01*
X153586330Y-52086921D01*
X153567117Y-52072671D01*
X153549393Y-52056607D01*
X153533329Y-52038883D01*
X153519079Y-52019670D01*
X153506782Y-51999153D01*
X153496554Y-51977529D01*
X153488496Y-51955007D01*
X153482684Y-51931803D01*
X153479174Y-51908142D01*
X153478000Y-51884250D01*
X153478000Y-51396750D01*
X153479174Y-51372858D01*
X153482684Y-51349197D01*
X153488496Y-51325993D01*
X153496554Y-51303471D01*
X153506782Y-51281847D01*
X153519079Y-51261330D01*
X153533329Y-51242117D01*
X153549393Y-51224393D01*
X153567117Y-51208329D01*
X153586330Y-51194079D01*
X153606847Y-51181782D01*
X153628471Y-51171554D01*
X153650993Y-51163496D01*
X153674197Y-51157684D01*
X153697858Y-51154174D01*
X153721750Y-51153000D01*
X154634250Y-51153000D01*
X154658142Y-51154174D01*
X154658142Y-51154174D01*
G37*
D11*
X154178000Y-51640500D03*
D10*
G36*
X154658142Y-53029174D02*
X154681803Y-53032684D01*
X154705007Y-53038496D01*
X154727529Y-53046554D01*
X154749153Y-53056782D01*
X154769670Y-53069079D01*
X154788883Y-53083329D01*
X154806607Y-53099393D01*
X154822671Y-53117117D01*
X154836921Y-53136330D01*
X154849218Y-53156847D01*
X154859446Y-53178471D01*
X154867504Y-53200993D01*
X154873316Y-53224197D01*
X154876826Y-53247858D01*
X154878000Y-53271750D01*
X154878000Y-53759250D01*
X154876826Y-53783142D01*
X154873316Y-53806803D01*
X154867504Y-53830007D01*
X154859446Y-53852529D01*
X154849218Y-53874153D01*
X154836921Y-53894670D01*
X154822671Y-53913883D01*
X154806607Y-53931607D01*
X154788883Y-53947671D01*
X154769670Y-53961921D01*
X154749153Y-53974218D01*
X154727529Y-53984446D01*
X154705007Y-53992504D01*
X154681803Y-53998316D01*
X154658142Y-54001826D01*
X154634250Y-54003000D01*
X153721750Y-54003000D01*
X153697858Y-54001826D01*
X153674197Y-53998316D01*
X153650993Y-53992504D01*
X153628471Y-53984446D01*
X153606847Y-53974218D01*
X153586330Y-53961921D01*
X153567117Y-53947671D01*
X153549393Y-53931607D01*
X153533329Y-53913883D01*
X153519079Y-53894670D01*
X153506782Y-53874153D01*
X153496554Y-53852529D01*
X153488496Y-53830007D01*
X153482684Y-53806803D01*
X153479174Y-53783142D01*
X153478000Y-53759250D01*
X153478000Y-53271750D01*
X153479174Y-53247858D01*
X153482684Y-53224197D01*
X153488496Y-53200993D01*
X153496554Y-53178471D01*
X153506782Y-53156847D01*
X153519079Y-53136330D01*
X153533329Y-53117117D01*
X153549393Y-53099393D01*
X153567117Y-53083329D01*
X153586330Y-53069079D01*
X153606847Y-53056782D01*
X153628471Y-53046554D01*
X153650993Y-53038496D01*
X153674197Y-53032684D01*
X153697858Y-53029174D01*
X153721750Y-53028000D01*
X154634250Y-53028000D01*
X154658142Y-53029174D01*
X154658142Y-53029174D01*
G37*
D11*
X154178000Y-53515500D03*
G04 #@! TD*
D10*
G04 #@! TO.C,R9*
G36*
X169480142Y-57076174D02*
X169503803Y-57079684D01*
X169527007Y-57085496D01*
X169549529Y-57093554D01*
X169571153Y-57103782D01*
X169591670Y-57116079D01*
X169610883Y-57130329D01*
X169628607Y-57146393D01*
X169644671Y-57164117D01*
X169658921Y-57183330D01*
X169671218Y-57203847D01*
X169681446Y-57225471D01*
X169689504Y-57247993D01*
X169695316Y-57271197D01*
X169698826Y-57294858D01*
X169700000Y-57318750D01*
X169700000Y-57806250D01*
X169698826Y-57830142D01*
X169695316Y-57853803D01*
X169689504Y-57877007D01*
X169681446Y-57899529D01*
X169671218Y-57921153D01*
X169658921Y-57941670D01*
X169644671Y-57960883D01*
X169628607Y-57978607D01*
X169610883Y-57994671D01*
X169591670Y-58008921D01*
X169571153Y-58021218D01*
X169549529Y-58031446D01*
X169527007Y-58039504D01*
X169503803Y-58045316D01*
X169480142Y-58048826D01*
X169456250Y-58050000D01*
X168543750Y-58050000D01*
X168519858Y-58048826D01*
X168496197Y-58045316D01*
X168472993Y-58039504D01*
X168450471Y-58031446D01*
X168428847Y-58021218D01*
X168408330Y-58008921D01*
X168389117Y-57994671D01*
X168371393Y-57978607D01*
X168355329Y-57960883D01*
X168341079Y-57941670D01*
X168328782Y-57921153D01*
X168318554Y-57899529D01*
X168310496Y-57877007D01*
X168304684Y-57853803D01*
X168301174Y-57830142D01*
X168300000Y-57806250D01*
X168300000Y-57318750D01*
X168301174Y-57294858D01*
X168304684Y-57271197D01*
X168310496Y-57247993D01*
X168318554Y-57225471D01*
X168328782Y-57203847D01*
X168341079Y-57183330D01*
X168355329Y-57164117D01*
X168371393Y-57146393D01*
X168389117Y-57130329D01*
X168408330Y-57116079D01*
X168428847Y-57103782D01*
X168450471Y-57093554D01*
X168472993Y-57085496D01*
X168496197Y-57079684D01*
X168519858Y-57076174D01*
X168543750Y-57075000D01*
X169456250Y-57075000D01*
X169480142Y-57076174D01*
X169480142Y-57076174D01*
G37*
D11*
X169000000Y-57562500D03*
D10*
G36*
X169480142Y-58951174D02*
X169503803Y-58954684D01*
X169527007Y-58960496D01*
X169549529Y-58968554D01*
X169571153Y-58978782D01*
X169591670Y-58991079D01*
X169610883Y-59005329D01*
X169628607Y-59021393D01*
X169644671Y-59039117D01*
X169658921Y-59058330D01*
X169671218Y-59078847D01*
X169681446Y-59100471D01*
X169689504Y-59122993D01*
X169695316Y-59146197D01*
X169698826Y-59169858D01*
X169700000Y-59193750D01*
X169700000Y-59681250D01*
X169698826Y-59705142D01*
X169695316Y-59728803D01*
X169689504Y-59752007D01*
X169681446Y-59774529D01*
X169671218Y-59796153D01*
X169658921Y-59816670D01*
X169644671Y-59835883D01*
X169628607Y-59853607D01*
X169610883Y-59869671D01*
X169591670Y-59883921D01*
X169571153Y-59896218D01*
X169549529Y-59906446D01*
X169527007Y-59914504D01*
X169503803Y-59920316D01*
X169480142Y-59923826D01*
X169456250Y-59925000D01*
X168543750Y-59925000D01*
X168519858Y-59923826D01*
X168496197Y-59920316D01*
X168472993Y-59914504D01*
X168450471Y-59906446D01*
X168428847Y-59896218D01*
X168408330Y-59883921D01*
X168389117Y-59869671D01*
X168371393Y-59853607D01*
X168355329Y-59835883D01*
X168341079Y-59816670D01*
X168328782Y-59796153D01*
X168318554Y-59774529D01*
X168310496Y-59752007D01*
X168304684Y-59728803D01*
X168301174Y-59705142D01*
X168300000Y-59681250D01*
X168300000Y-59193750D01*
X168301174Y-59169858D01*
X168304684Y-59146197D01*
X168310496Y-59122993D01*
X168318554Y-59100471D01*
X168328782Y-59078847D01*
X168341079Y-59058330D01*
X168355329Y-59039117D01*
X168371393Y-59021393D01*
X168389117Y-59005329D01*
X168408330Y-58991079D01*
X168428847Y-58978782D01*
X168450471Y-58968554D01*
X168472993Y-58960496D01*
X168496197Y-58954684D01*
X168519858Y-58951174D01*
X168543750Y-58950000D01*
X169456250Y-58950000D01*
X169480142Y-58951174D01*
X169480142Y-58951174D01*
G37*
D11*
X169000000Y-59437500D03*
G04 #@! TD*
D10*
G04 #@! TO.C,R10*
G36*
X169644142Y-52701174D02*
X169667803Y-52704684D01*
X169691007Y-52710496D01*
X169713529Y-52718554D01*
X169735153Y-52728782D01*
X169755670Y-52741079D01*
X169774883Y-52755329D01*
X169792607Y-52771393D01*
X169808671Y-52789117D01*
X169822921Y-52808330D01*
X169835218Y-52828847D01*
X169845446Y-52850471D01*
X169853504Y-52872993D01*
X169859316Y-52896197D01*
X169862826Y-52919858D01*
X169864000Y-52943750D01*
X169864000Y-53431250D01*
X169862826Y-53455142D01*
X169859316Y-53478803D01*
X169853504Y-53502007D01*
X169845446Y-53524529D01*
X169835218Y-53546153D01*
X169822921Y-53566670D01*
X169808671Y-53585883D01*
X169792607Y-53603607D01*
X169774883Y-53619671D01*
X169755670Y-53633921D01*
X169735153Y-53646218D01*
X169713529Y-53656446D01*
X169691007Y-53664504D01*
X169667803Y-53670316D01*
X169644142Y-53673826D01*
X169620250Y-53675000D01*
X168707750Y-53675000D01*
X168683858Y-53673826D01*
X168660197Y-53670316D01*
X168636993Y-53664504D01*
X168614471Y-53656446D01*
X168592847Y-53646218D01*
X168572330Y-53633921D01*
X168553117Y-53619671D01*
X168535393Y-53603607D01*
X168519329Y-53585883D01*
X168505079Y-53566670D01*
X168492782Y-53546153D01*
X168482554Y-53524529D01*
X168474496Y-53502007D01*
X168468684Y-53478803D01*
X168465174Y-53455142D01*
X168464000Y-53431250D01*
X168464000Y-52943750D01*
X168465174Y-52919858D01*
X168468684Y-52896197D01*
X168474496Y-52872993D01*
X168482554Y-52850471D01*
X168492782Y-52828847D01*
X168505079Y-52808330D01*
X168519329Y-52789117D01*
X168535393Y-52771393D01*
X168553117Y-52755329D01*
X168572330Y-52741079D01*
X168592847Y-52728782D01*
X168614471Y-52718554D01*
X168636993Y-52710496D01*
X168660197Y-52704684D01*
X168683858Y-52701174D01*
X168707750Y-52700000D01*
X169620250Y-52700000D01*
X169644142Y-52701174D01*
X169644142Y-52701174D01*
G37*
D11*
X169164000Y-53187500D03*
D10*
G36*
X169644142Y-50826174D02*
X169667803Y-50829684D01*
X169691007Y-50835496D01*
X169713529Y-50843554D01*
X169735153Y-50853782D01*
X169755670Y-50866079D01*
X169774883Y-50880329D01*
X169792607Y-50896393D01*
X169808671Y-50914117D01*
X169822921Y-50933330D01*
X169835218Y-50953847D01*
X169845446Y-50975471D01*
X169853504Y-50997993D01*
X169859316Y-51021197D01*
X169862826Y-51044858D01*
X169864000Y-51068750D01*
X169864000Y-51556250D01*
X169862826Y-51580142D01*
X169859316Y-51603803D01*
X169853504Y-51627007D01*
X169845446Y-51649529D01*
X169835218Y-51671153D01*
X169822921Y-51691670D01*
X169808671Y-51710883D01*
X169792607Y-51728607D01*
X169774883Y-51744671D01*
X169755670Y-51758921D01*
X169735153Y-51771218D01*
X169713529Y-51781446D01*
X169691007Y-51789504D01*
X169667803Y-51795316D01*
X169644142Y-51798826D01*
X169620250Y-51800000D01*
X168707750Y-51800000D01*
X168683858Y-51798826D01*
X168660197Y-51795316D01*
X168636993Y-51789504D01*
X168614471Y-51781446D01*
X168592847Y-51771218D01*
X168572330Y-51758921D01*
X168553117Y-51744671D01*
X168535393Y-51728607D01*
X168519329Y-51710883D01*
X168505079Y-51691670D01*
X168492782Y-51671153D01*
X168482554Y-51649529D01*
X168474496Y-51627007D01*
X168468684Y-51603803D01*
X168465174Y-51580142D01*
X168464000Y-51556250D01*
X168464000Y-51068750D01*
X168465174Y-51044858D01*
X168468684Y-51021197D01*
X168474496Y-50997993D01*
X168482554Y-50975471D01*
X168492782Y-50953847D01*
X168505079Y-50933330D01*
X168519329Y-50914117D01*
X168535393Y-50896393D01*
X168553117Y-50880329D01*
X168572330Y-50866079D01*
X168592847Y-50853782D01*
X168614471Y-50843554D01*
X168636993Y-50835496D01*
X168660197Y-50829684D01*
X168683858Y-50826174D01*
X168707750Y-50825000D01*
X169620250Y-50825000D01*
X169644142Y-50826174D01*
X169644142Y-50826174D01*
G37*
D11*
X169164000Y-51312500D03*
G04 #@! TD*
D10*
G04 #@! TO.C,R11*
G36*
X173830142Y-54551174D02*
X173853803Y-54554684D01*
X173877007Y-54560496D01*
X173899529Y-54568554D01*
X173921153Y-54578782D01*
X173941670Y-54591079D01*
X173960883Y-54605329D01*
X173978607Y-54621393D01*
X173994671Y-54639117D01*
X174008921Y-54658330D01*
X174021218Y-54678847D01*
X174031446Y-54700471D01*
X174039504Y-54722993D01*
X174045316Y-54746197D01*
X174048826Y-54769858D01*
X174050000Y-54793750D01*
X174050000Y-55706250D01*
X174048826Y-55730142D01*
X174045316Y-55753803D01*
X174039504Y-55777007D01*
X174031446Y-55799529D01*
X174021218Y-55821153D01*
X174008921Y-55841670D01*
X173994671Y-55860883D01*
X173978607Y-55878607D01*
X173960883Y-55894671D01*
X173941670Y-55908921D01*
X173921153Y-55921218D01*
X173899529Y-55931446D01*
X173877007Y-55939504D01*
X173853803Y-55945316D01*
X173830142Y-55948826D01*
X173806250Y-55950000D01*
X173318750Y-55950000D01*
X173294858Y-55948826D01*
X173271197Y-55945316D01*
X173247993Y-55939504D01*
X173225471Y-55931446D01*
X173203847Y-55921218D01*
X173183330Y-55908921D01*
X173164117Y-55894671D01*
X173146393Y-55878607D01*
X173130329Y-55860883D01*
X173116079Y-55841670D01*
X173103782Y-55821153D01*
X173093554Y-55799529D01*
X173085496Y-55777007D01*
X173079684Y-55753803D01*
X173076174Y-55730142D01*
X173075000Y-55706250D01*
X173075000Y-54793750D01*
X173076174Y-54769858D01*
X173079684Y-54746197D01*
X173085496Y-54722993D01*
X173093554Y-54700471D01*
X173103782Y-54678847D01*
X173116079Y-54658330D01*
X173130329Y-54639117D01*
X173146393Y-54621393D01*
X173164117Y-54605329D01*
X173183330Y-54591079D01*
X173203847Y-54578782D01*
X173225471Y-54568554D01*
X173247993Y-54560496D01*
X173271197Y-54554684D01*
X173294858Y-54551174D01*
X173318750Y-54550000D01*
X173806250Y-54550000D01*
X173830142Y-54551174D01*
X173830142Y-54551174D01*
G37*
D11*
X173562500Y-55250000D03*
D10*
G36*
X175705142Y-54551174D02*
X175728803Y-54554684D01*
X175752007Y-54560496D01*
X175774529Y-54568554D01*
X175796153Y-54578782D01*
X175816670Y-54591079D01*
X175835883Y-54605329D01*
X175853607Y-54621393D01*
X175869671Y-54639117D01*
X175883921Y-54658330D01*
X175896218Y-54678847D01*
X175906446Y-54700471D01*
X175914504Y-54722993D01*
X175920316Y-54746197D01*
X175923826Y-54769858D01*
X175925000Y-54793750D01*
X175925000Y-55706250D01*
X175923826Y-55730142D01*
X175920316Y-55753803D01*
X175914504Y-55777007D01*
X175906446Y-55799529D01*
X175896218Y-55821153D01*
X175883921Y-55841670D01*
X175869671Y-55860883D01*
X175853607Y-55878607D01*
X175835883Y-55894671D01*
X175816670Y-55908921D01*
X175796153Y-55921218D01*
X175774529Y-55931446D01*
X175752007Y-55939504D01*
X175728803Y-55945316D01*
X175705142Y-55948826D01*
X175681250Y-55950000D01*
X175193750Y-55950000D01*
X175169858Y-55948826D01*
X175146197Y-55945316D01*
X175122993Y-55939504D01*
X175100471Y-55931446D01*
X175078847Y-55921218D01*
X175058330Y-55908921D01*
X175039117Y-55894671D01*
X175021393Y-55878607D01*
X175005329Y-55860883D01*
X174991079Y-55841670D01*
X174978782Y-55821153D01*
X174968554Y-55799529D01*
X174960496Y-55777007D01*
X174954684Y-55753803D01*
X174951174Y-55730142D01*
X174950000Y-55706250D01*
X174950000Y-54793750D01*
X174951174Y-54769858D01*
X174954684Y-54746197D01*
X174960496Y-54722993D01*
X174968554Y-54700471D01*
X174978782Y-54678847D01*
X174991079Y-54658330D01*
X175005329Y-54639117D01*
X175021393Y-54621393D01*
X175039117Y-54605329D01*
X175058330Y-54591079D01*
X175078847Y-54578782D01*
X175100471Y-54568554D01*
X175122993Y-54560496D01*
X175146197Y-54554684D01*
X175169858Y-54551174D01*
X175193750Y-54550000D01*
X175681250Y-54550000D01*
X175705142Y-54551174D01*
X175705142Y-54551174D01*
G37*
D11*
X175437500Y-55250000D03*
G04 #@! TD*
D10*
G04 #@! TO.C,R12*
G36*
X177481142Y-97853174D02*
X177504803Y-97856684D01*
X177528007Y-97862496D01*
X177550529Y-97870554D01*
X177572153Y-97880782D01*
X177592670Y-97893079D01*
X177611883Y-97907329D01*
X177629607Y-97923393D01*
X177645671Y-97941117D01*
X177659921Y-97960330D01*
X177672218Y-97980847D01*
X177682446Y-98002471D01*
X177690504Y-98024993D01*
X177696316Y-98048197D01*
X177699826Y-98071858D01*
X177701000Y-98095750D01*
X177701000Y-99008250D01*
X177699826Y-99032142D01*
X177696316Y-99055803D01*
X177690504Y-99079007D01*
X177682446Y-99101529D01*
X177672218Y-99123153D01*
X177659921Y-99143670D01*
X177645671Y-99162883D01*
X177629607Y-99180607D01*
X177611883Y-99196671D01*
X177592670Y-99210921D01*
X177572153Y-99223218D01*
X177550529Y-99233446D01*
X177528007Y-99241504D01*
X177504803Y-99247316D01*
X177481142Y-99250826D01*
X177457250Y-99252000D01*
X176969750Y-99252000D01*
X176945858Y-99250826D01*
X176922197Y-99247316D01*
X176898993Y-99241504D01*
X176876471Y-99233446D01*
X176854847Y-99223218D01*
X176834330Y-99210921D01*
X176815117Y-99196671D01*
X176797393Y-99180607D01*
X176781329Y-99162883D01*
X176767079Y-99143670D01*
X176754782Y-99123153D01*
X176744554Y-99101529D01*
X176736496Y-99079007D01*
X176730684Y-99055803D01*
X176727174Y-99032142D01*
X176726000Y-99008250D01*
X176726000Y-98095750D01*
X176727174Y-98071858D01*
X176730684Y-98048197D01*
X176736496Y-98024993D01*
X176744554Y-98002471D01*
X176754782Y-97980847D01*
X176767079Y-97960330D01*
X176781329Y-97941117D01*
X176797393Y-97923393D01*
X176815117Y-97907329D01*
X176834330Y-97893079D01*
X176854847Y-97880782D01*
X176876471Y-97870554D01*
X176898993Y-97862496D01*
X176922197Y-97856684D01*
X176945858Y-97853174D01*
X176969750Y-97852000D01*
X177457250Y-97852000D01*
X177481142Y-97853174D01*
X177481142Y-97853174D01*
G37*
D11*
X177213500Y-98552000D03*
D10*
G36*
X175606142Y-97853174D02*
X175629803Y-97856684D01*
X175653007Y-97862496D01*
X175675529Y-97870554D01*
X175697153Y-97880782D01*
X175717670Y-97893079D01*
X175736883Y-97907329D01*
X175754607Y-97923393D01*
X175770671Y-97941117D01*
X175784921Y-97960330D01*
X175797218Y-97980847D01*
X175807446Y-98002471D01*
X175815504Y-98024993D01*
X175821316Y-98048197D01*
X175824826Y-98071858D01*
X175826000Y-98095750D01*
X175826000Y-99008250D01*
X175824826Y-99032142D01*
X175821316Y-99055803D01*
X175815504Y-99079007D01*
X175807446Y-99101529D01*
X175797218Y-99123153D01*
X175784921Y-99143670D01*
X175770671Y-99162883D01*
X175754607Y-99180607D01*
X175736883Y-99196671D01*
X175717670Y-99210921D01*
X175697153Y-99223218D01*
X175675529Y-99233446D01*
X175653007Y-99241504D01*
X175629803Y-99247316D01*
X175606142Y-99250826D01*
X175582250Y-99252000D01*
X175094750Y-99252000D01*
X175070858Y-99250826D01*
X175047197Y-99247316D01*
X175023993Y-99241504D01*
X175001471Y-99233446D01*
X174979847Y-99223218D01*
X174959330Y-99210921D01*
X174940117Y-99196671D01*
X174922393Y-99180607D01*
X174906329Y-99162883D01*
X174892079Y-99143670D01*
X174879782Y-99123153D01*
X174869554Y-99101529D01*
X174861496Y-99079007D01*
X174855684Y-99055803D01*
X174852174Y-99032142D01*
X174851000Y-99008250D01*
X174851000Y-98095750D01*
X174852174Y-98071858D01*
X174855684Y-98048197D01*
X174861496Y-98024993D01*
X174869554Y-98002471D01*
X174879782Y-97980847D01*
X174892079Y-97960330D01*
X174906329Y-97941117D01*
X174922393Y-97923393D01*
X174940117Y-97907329D01*
X174959330Y-97893079D01*
X174979847Y-97880782D01*
X175001471Y-97870554D01*
X175023993Y-97862496D01*
X175047197Y-97856684D01*
X175070858Y-97853174D01*
X175094750Y-97852000D01*
X175582250Y-97852000D01*
X175606142Y-97853174D01*
X175606142Y-97853174D01*
G37*
D11*
X175338500Y-98552000D03*
G04 #@! TD*
D10*
G04 #@! TO.C,R13*
G36*
X176114142Y-91503174D02*
X176137803Y-91506684D01*
X176161007Y-91512496D01*
X176183529Y-91520554D01*
X176205153Y-91530782D01*
X176225670Y-91543079D01*
X176244883Y-91557329D01*
X176262607Y-91573393D01*
X176278671Y-91591117D01*
X176292921Y-91610330D01*
X176305218Y-91630847D01*
X176315446Y-91652471D01*
X176323504Y-91674993D01*
X176329316Y-91698197D01*
X176332826Y-91721858D01*
X176334000Y-91745750D01*
X176334000Y-92658250D01*
X176332826Y-92682142D01*
X176329316Y-92705803D01*
X176323504Y-92729007D01*
X176315446Y-92751529D01*
X176305218Y-92773153D01*
X176292921Y-92793670D01*
X176278671Y-92812883D01*
X176262607Y-92830607D01*
X176244883Y-92846671D01*
X176225670Y-92860921D01*
X176205153Y-92873218D01*
X176183529Y-92883446D01*
X176161007Y-92891504D01*
X176137803Y-92897316D01*
X176114142Y-92900826D01*
X176090250Y-92902000D01*
X175602750Y-92902000D01*
X175578858Y-92900826D01*
X175555197Y-92897316D01*
X175531993Y-92891504D01*
X175509471Y-92883446D01*
X175487847Y-92873218D01*
X175467330Y-92860921D01*
X175448117Y-92846671D01*
X175430393Y-92830607D01*
X175414329Y-92812883D01*
X175400079Y-92793670D01*
X175387782Y-92773153D01*
X175377554Y-92751529D01*
X175369496Y-92729007D01*
X175363684Y-92705803D01*
X175360174Y-92682142D01*
X175359000Y-92658250D01*
X175359000Y-91745750D01*
X175360174Y-91721858D01*
X175363684Y-91698197D01*
X175369496Y-91674993D01*
X175377554Y-91652471D01*
X175387782Y-91630847D01*
X175400079Y-91610330D01*
X175414329Y-91591117D01*
X175430393Y-91573393D01*
X175448117Y-91557329D01*
X175467330Y-91543079D01*
X175487847Y-91530782D01*
X175509471Y-91520554D01*
X175531993Y-91512496D01*
X175555197Y-91506684D01*
X175578858Y-91503174D01*
X175602750Y-91502000D01*
X176090250Y-91502000D01*
X176114142Y-91503174D01*
X176114142Y-91503174D01*
G37*
D11*
X175846500Y-92202000D03*
D10*
G36*
X177989142Y-91503174D02*
X178012803Y-91506684D01*
X178036007Y-91512496D01*
X178058529Y-91520554D01*
X178080153Y-91530782D01*
X178100670Y-91543079D01*
X178119883Y-91557329D01*
X178137607Y-91573393D01*
X178153671Y-91591117D01*
X178167921Y-91610330D01*
X178180218Y-91630847D01*
X178190446Y-91652471D01*
X178198504Y-91674993D01*
X178204316Y-91698197D01*
X178207826Y-91721858D01*
X178209000Y-91745750D01*
X178209000Y-92658250D01*
X178207826Y-92682142D01*
X178204316Y-92705803D01*
X178198504Y-92729007D01*
X178190446Y-92751529D01*
X178180218Y-92773153D01*
X178167921Y-92793670D01*
X178153671Y-92812883D01*
X178137607Y-92830607D01*
X178119883Y-92846671D01*
X178100670Y-92860921D01*
X178080153Y-92873218D01*
X178058529Y-92883446D01*
X178036007Y-92891504D01*
X178012803Y-92897316D01*
X177989142Y-92900826D01*
X177965250Y-92902000D01*
X177477750Y-92902000D01*
X177453858Y-92900826D01*
X177430197Y-92897316D01*
X177406993Y-92891504D01*
X177384471Y-92883446D01*
X177362847Y-92873218D01*
X177342330Y-92860921D01*
X177323117Y-92846671D01*
X177305393Y-92830607D01*
X177289329Y-92812883D01*
X177275079Y-92793670D01*
X177262782Y-92773153D01*
X177252554Y-92751529D01*
X177244496Y-92729007D01*
X177238684Y-92705803D01*
X177235174Y-92682142D01*
X177234000Y-92658250D01*
X177234000Y-91745750D01*
X177235174Y-91721858D01*
X177238684Y-91698197D01*
X177244496Y-91674993D01*
X177252554Y-91652471D01*
X177262782Y-91630847D01*
X177275079Y-91610330D01*
X177289329Y-91591117D01*
X177305393Y-91573393D01*
X177323117Y-91557329D01*
X177342330Y-91543079D01*
X177362847Y-91530782D01*
X177384471Y-91520554D01*
X177406993Y-91512496D01*
X177430197Y-91506684D01*
X177453858Y-91503174D01*
X177477750Y-91502000D01*
X177965250Y-91502000D01*
X177989142Y-91503174D01*
X177989142Y-91503174D01*
G37*
D11*
X177721500Y-92202000D03*
G04 #@! TD*
D10*
G04 #@! TO.C,R14*
G36*
X175606142Y-87185174D02*
X175629803Y-87188684D01*
X175653007Y-87194496D01*
X175675529Y-87202554D01*
X175697153Y-87212782D01*
X175717670Y-87225079D01*
X175736883Y-87239329D01*
X175754607Y-87255393D01*
X175770671Y-87273117D01*
X175784921Y-87292330D01*
X175797218Y-87312847D01*
X175807446Y-87334471D01*
X175815504Y-87356993D01*
X175821316Y-87380197D01*
X175824826Y-87403858D01*
X175826000Y-87427750D01*
X175826000Y-88340250D01*
X175824826Y-88364142D01*
X175821316Y-88387803D01*
X175815504Y-88411007D01*
X175807446Y-88433529D01*
X175797218Y-88455153D01*
X175784921Y-88475670D01*
X175770671Y-88494883D01*
X175754607Y-88512607D01*
X175736883Y-88528671D01*
X175717670Y-88542921D01*
X175697153Y-88555218D01*
X175675529Y-88565446D01*
X175653007Y-88573504D01*
X175629803Y-88579316D01*
X175606142Y-88582826D01*
X175582250Y-88584000D01*
X175094750Y-88584000D01*
X175070858Y-88582826D01*
X175047197Y-88579316D01*
X175023993Y-88573504D01*
X175001471Y-88565446D01*
X174979847Y-88555218D01*
X174959330Y-88542921D01*
X174940117Y-88528671D01*
X174922393Y-88512607D01*
X174906329Y-88494883D01*
X174892079Y-88475670D01*
X174879782Y-88455153D01*
X174869554Y-88433529D01*
X174861496Y-88411007D01*
X174855684Y-88387803D01*
X174852174Y-88364142D01*
X174851000Y-88340250D01*
X174851000Y-87427750D01*
X174852174Y-87403858D01*
X174855684Y-87380197D01*
X174861496Y-87356993D01*
X174869554Y-87334471D01*
X174879782Y-87312847D01*
X174892079Y-87292330D01*
X174906329Y-87273117D01*
X174922393Y-87255393D01*
X174940117Y-87239329D01*
X174959330Y-87225079D01*
X174979847Y-87212782D01*
X175001471Y-87202554D01*
X175023993Y-87194496D01*
X175047197Y-87188684D01*
X175070858Y-87185174D01*
X175094750Y-87184000D01*
X175582250Y-87184000D01*
X175606142Y-87185174D01*
X175606142Y-87185174D01*
G37*
D11*
X175338500Y-87884000D03*
D10*
G36*
X177481142Y-87185174D02*
X177504803Y-87188684D01*
X177528007Y-87194496D01*
X177550529Y-87202554D01*
X177572153Y-87212782D01*
X177592670Y-87225079D01*
X177611883Y-87239329D01*
X177629607Y-87255393D01*
X177645671Y-87273117D01*
X177659921Y-87292330D01*
X177672218Y-87312847D01*
X177682446Y-87334471D01*
X177690504Y-87356993D01*
X177696316Y-87380197D01*
X177699826Y-87403858D01*
X177701000Y-87427750D01*
X177701000Y-88340250D01*
X177699826Y-88364142D01*
X177696316Y-88387803D01*
X177690504Y-88411007D01*
X177682446Y-88433529D01*
X177672218Y-88455153D01*
X177659921Y-88475670D01*
X177645671Y-88494883D01*
X177629607Y-88512607D01*
X177611883Y-88528671D01*
X177592670Y-88542921D01*
X177572153Y-88555218D01*
X177550529Y-88565446D01*
X177528007Y-88573504D01*
X177504803Y-88579316D01*
X177481142Y-88582826D01*
X177457250Y-88584000D01*
X176969750Y-88584000D01*
X176945858Y-88582826D01*
X176922197Y-88579316D01*
X176898993Y-88573504D01*
X176876471Y-88565446D01*
X176854847Y-88555218D01*
X176834330Y-88542921D01*
X176815117Y-88528671D01*
X176797393Y-88512607D01*
X176781329Y-88494883D01*
X176767079Y-88475670D01*
X176754782Y-88455153D01*
X176744554Y-88433529D01*
X176736496Y-88411007D01*
X176730684Y-88387803D01*
X176727174Y-88364142D01*
X176726000Y-88340250D01*
X176726000Y-87427750D01*
X176727174Y-87403858D01*
X176730684Y-87380197D01*
X176736496Y-87356993D01*
X176744554Y-87334471D01*
X176754782Y-87312847D01*
X176767079Y-87292330D01*
X176781329Y-87273117D01*
X176797393Y-87255393D01*
X176815117Y-87239329D01*
X176834330Y-87225079D01*
X176854847Y-87212782D01*
X176876471Y-87202554D01*
X176898993Y-87194496D01*
X176922197Y-87188684D01*
X176945858Y-87185174D01*
X176969750Y-87184000D01*
X177457250Y-87184000D01*
X177481142Y-87185174D01*
X177481142Y-87185174D01*
G37*
D11*
X177213500Y-87884000D03*
G04 #@! TD*
D10*
G04 #@! TO.C,R15*
G36*
X169230142Y-64701174D02*
X169253803Y-64704684D01*
X169277007Y-64710496D01*
X169299529Y-64718554D01*
X169321153Y-64728782D01*
X169341670Y-64741079D01*
X169360883Y-64755329D01*
X169378607Y-64771393D01*
X169394671Y-64789117D01*
X169408921Y-64808330D01*
X169421218Y-64828847D01*
X169431446Y-64850471D01*
X169439504Y-64872993D01*
X169445316Y-64896197D01*
X169448826Y-64919858D01*
X169450000Y-64943750D01*
X169450000Y-65431250D01*
X169448826Y-65455142D01*
X169445316Y-65478803D01*
X169439504Y-65502007D01*
X169431446Y-65524529D01*
X169421218Y-65546153D01*
X169408921Y-65566670D01*
X169394671Y-65585883D01*
X169378607Y-65603607D01*
X169360883Y-65619671D01*
X169341670Y-65633921D01*
X169321153Y-65646218D01*
X169299529Y-65656446D01*
X169277007Y-65664504D01*
X169253803Y-65670316D01*
X169230142Y-65673826D01*
X169206250Y-65675000D01*
X168293750Y-65675000D01*
X168269858Y-65673826D01*
X168246197Y-65670316D01*
X168222993Y-65664504D01*
X168200471Y-65656446D01*
X168178847Y-65646218D01*
X168158330Y-65633921D01*
X168139117Y-65619671D01*
X168121393Y-65603607D01*
X168105329Y-65585883D01*
X168091079Y-65566670D01*
X168078782Y-65546153D01*
X168068554Y-65524529D01*
X168060496Y-65502007D01*
X168054684Y-65478803D01*
X168051174Y-65455142D01*
X168050000Y-65431250D01*
X168050000Y-64943750D01*
X168051174Y-64919858D01*
X168054684Y-64896197D01*
X168060496Y-64872993D01*
X168068554Y-64850471D01*
X168078782Y-64828847D01*
X168091079Y-64808330D01*
X168105329Y-64789117D01*
X168121393Y-64771393D01*
X168139117Y-64755329D01*
X168158330Y-64741079D01*
X168178847Y-64728782D01*
X168200471Y-64718554D01*
X168222993Y-64710496D01*
X168246197Y-64704684D01*
X168269858Y-64701174D01*
X168293750Y-64700000D01*
X169206250Y-64700000D01*
X169230142Y-64701174D01*
X169230142Y-64701174D01*
G37*
D11*
X168750000Y-65187500D03*
D10*
G36*
X169230142Y-62826174D02*
X169253803Y-62829684D01*
X169277007Y-62835496D01*
X169299529Y-62843554D01*
X169321153Y-62853782D01*
X169341670Y-62866079D01*
X169360883Y-62880329D01*
X169378607Y-62896393D01*
X169394671Y-62914117D01*
X169408921Y-62933330D01*
X169421218Y-62953847D01*
X169431446Y-62975471D01*
X169439504Y-62997993D01*
X169445316Y-63021197D01*
X169448826Y-63044858D01*
X169450000Y-63068750D01*
X169450000Y-63556250D01*
X169448826Y-63580142D01*
X169445316Y-63603803D01*
X169439504Y-63627007D01*
X169431446Y-63649529D01*
X169421218Y-63671153D01*
X169408921Y-63691670D01*
X169394671Y-63710883D01*
X169378607Y-63728607D01*
X169360883Y-63744671D01*
X169341670Y-63758921D01*
X169321153Y-63771218D01*
X169299529Y-63781446D01*
X169277007Y-63789504D01*
X169253803Y-63795316D01*
X169230142Y-63798826D01*
X169206250Y-63800000D01*
X168293750Y-63800000D01*
X168269858Y-63798826D01*
X168246197Y-63795316D01*
X168222993Y-63789504D01*
X168200471Y-63781446D01*
X168178847Y-63771218D01*
X168158330Y-63758921D01*
X168139117Y-63744671D01*
X168121393Y-63728607D01*
X168105329Y-63710883D01*
X168091079Y-63691670D01*
X168078782Y-63671153D01*
X168068554Y-63649529D01*
X168060496Y-63627007D01*
X168054684Y-63603803D01*
X168051174Y-63580142D01*
X168050000Y-63556250D01*
X168050000Y-63068750D01*
X168051174Y-63044858D01*
X168054684Y-63021197D01*
X168060496Y-62997993D01*
X168068554Y-62975471D01*
X168078782Y-62953847D01*
X168091079Y-62933330D01*
X168105329Y-62914117D01*
X168121393Y-62896393D01*
X168139117Y-62880329D01*
X168158330Y-62866079D01*
X168178847Y-62853782D01*
X168200471Y-62843554D01*
X168222993Y-62835496D01*
X168246197Y-62829684D01*
X168269858Y-62826174D01*
X168293750Y-62825000D01*
X169206250Y-62825000D01*
X169230142Y-62826174D01*
X169230142Y-62826174D01*
G37*
D11*
X168750000Y-63312500D03*
G04 #@! TD*
D10*
G04 #@! TO.C,R16*
G36*
X174230142Y-63826174D02*
X174253803Y-63829684D01*
X174277007Y-63835496D01*
X174299529Y-63843554D01*
X174321153Y-63853782D01*
X174341670Y-63866079D01*
X174360883Y-63880329D01*
X174378607Y-63896393D01*
X174394671Y-63914117D01*
X174408921Y-63933330D01*
X174421218Y-63953847D01*
X174431446Y-63975471D01*
X174439504Y-63997993D01*
X174445316Y-64021197D01*
X174448826Y-64044858D01*
X174450000Y-64068750D01*
X174450000Y-64556250D01*
X174448826Y-64580142D01*
X174445316Y-64603803D01*
X174439504Y-64627007D01*
X174431446Y-64649529D01*
X174421218Y-64671153D01*
X174408921Y-64691670D01*
X174394671Y-64710883D01*
X174378607Y-64728607D01*
X174360883Y-64744671D01*
X174341670Y-64758921D01*
X174321153Y-64771218D01*
X174299529Y-64781446D01*
X174277007Y-64789504D01*
X174253803Y-64795316D01*
X174230142Y-64798826D01*
X174206250Y-64800000D01*
X173293750Y-64800000D01*
X173269858Y-64798826D01*
X173246197Y-64795316D01*
X173222993Y-64789504D01*
X173200471Y-64781446D01*
X173178847Y-64771218D01*
X173158330Y-64758921D01*
X173139117Y-64744671D01*
X173121393Y-64728607D01*
X173105329Y-64710883D01*
X173091079Y-64691670D01*
X173078782Y-64671153D01*
X173068554Y-64649529D01*
X173060496Y-64627007D01*
X173054684Y-64603803D01*
X173051174Y-64580142D01*
X173050000Y-64556250D01*
X173050000Y-64068750D01*
X173051174Y-64044858D01*
X173054684Y-64021197D01*
X173060496Y-63997993D01*
X173068554Y-63975471D01*
X173078782Y-63953847D01*
X173091079Y-63933330D01*
X173105329Y-63914117D01*
X173121393Y-63896393D01*
X173139117Y-63880329D01*
X173158330Y-63866079D01*
X173178847Y-63853782D01*
X173200471Y-63843554D01*
X173222993Y-63835496D01*
X173246197Y-63829684D01*
X173269858Y-63826174D01*
X173293750Y-63825000D01*
X174206250Y-63825000D01*
X174230142Y-63826174D01*
X174230142Y-63826174D01*
G37*
D11*
X173750000Y-64312500D03*
D10*
G36*
X174230142Y-65701174D02*
X174253803Y-65704684D01*
X174277007Y-65710496D01*
X174299529Y-65718554D01*
X174321153Y-65728782D01*
X174341670Y-65741079D01*
X174360883Y-65755329D01*
X174378607Y-65771393D01*
X174394671Y-65789117D01*
X174408921Y-65808330D01*
X174421218Y-65828847D01*
X174431446Y-65850471D01*
X174439504Y-65872993D01*
X174445316Y-65896197D01*
X174448826Y-65919858D01*
X174450000Y-65943750D01*
X174450000Y-66431250D01*
X174448826Y-66455142D01*
X174445316Y-66478803D01*
X174439504Y-66502007D01*
X174431446Y-66524529D01*
X174421218Y-66546153D01*
X174408921Y-66566670D01*
X174394671Y-66585883D01*
X174378607Y-66603607D01*
X174360883Y-66619671D01*
X174341670Y-66633921D01*
X174321153Y-66646218D01*
X174299529Y-66656446D01*
X174277007Y-66664504D01*
X174253803Y-66670316D01*
X174230142Y-66673826D01*
X174206250Y-66675000D01*
X173293750Y-66675000D01*
X173269858Y-66673826D01*
X173246197Y-66670316D01*
X173222993Y-66664504D01*
X173200471Y-66656446D01*
X173178847Y-66646218D01*
X173158330Y-66633921D01*
X173139117Y-66619671D01*
X173121393Y-66603607D01*
X173105329Y-66585883D01*
X173091079Y-66566670D01*
X173078782Y-66546153D01*
X173068554Y-66524529D01*
X173060496Y-66502007D01*
X173054684Y-66478803D01*
X173051174Y-66455142D01*
X173050000Y-66431250D01*
X173050000Y-65943750D01*
X173051174Y-65919858D01*
X173054684Y-65896197D01*
X173060496Y-65872993D01*
X173068554Y-65850471D01*
X173078782Y-65828847D01*
X173091079Y-65808330D01*
X173105329Y-65789117D01*
X173121393Y-65771393D01*
X173139117Y-65755329D01*
X173158330Y-65741079D01*
X173178847Y-65728782D01*
X173200471Y-65718554D01*
X173222993Y-65710496D01*
X173246197Y-65704684D01*
X173269858Y-65701174D01*
X173293750Y-65700000D01*
X174206250Y-65700000D01*
X174230142Y-65701174D01*
X174230142Y-65701174D01*
G37*
D11*
X173750000Y-66187500D03*
G04 #@! TD*
D10*
G04 #@! TO.C,R17*
G36*
X174730142Y-60903174D02*
X174753803Y-60906684D01*
X174777007Y-60912496D01*
X174799529Y-60920554D01*
X174821153Y-60930782D01*
X174841670Y-60943079D01*
X174860883Y-60957329D01*
X174878607Y-60973393D01*
X174894671Y-60991117D01*
X174908921Y-61010330D01*
X174921218Y-61030847D01*
X174931446Y-61052471D01*
X174939504Y-61074993D01*
X174945316Y-61098197D01*
X174948826Y-61121858D01*
X174950000Y-61145750D01*
X174950000Y-61633250D01*
X174948826Y-61657142D01*
X174945316Y-61680803D01*
X174939504Y-61704007D01*
X174931446Y-61726529D01*
X174921218Y-61748153D01*
X174908921Y-61768670D01*
X174894671Y-61787883D01*
X174878607Y-61805607D01*
X174860883Y-61821671D01*
X174841670Y-61835921D01*
X174821153Y-61848218D01*
X174799529Y-61858446D01*
X174777007Y-61866504D01*
X174753803Y-61872316D01*
X174730142Y-61875826D01*
X174706250Y-61877000D01*
X173793750Y-61877000D01*
X173769858Y-61875826D01*
X173746197Y-61872316D01*
X173722993Y-61866504D01*
X173700471Y-61858446D01*
X173678847Y-61848218D01*
X173658330Y-61835921D01*
X173639117Y-61821671D01*
X173621393Y-61805607D01*
X173605329Y-61787883D01*
X173591079Y-61768670D01*
X173578782Y-61748153D01*
X173568554Y-61726529D01*
X173560496Y-61704007D01*
X173554684Y-61680803D01*
X173551174Y-61657142D01*
X173550000Y-61633250D01*
X173550000Y-61145750D01*
X173551174Y-61121858D01*
X173554684Y-61098197D01*
X173560496Y-61074993D01*
X173568554Y-61052471D01*
X173578782Y-61030847D01*
X173591079Y-61010330D01*
X173605329Y-60991117D01*
X173621393Y-60973393D01*
X173639117Y-60957329D01*
X173658330Y-60943079D01*
X173678847Y-60930782D01*
X173700471Y-60920554D01*
X173722993Y-60912496D01*
X173746197Y-60906684D01*
X173769858Y-60903174D01*
X173793750Y-60902000D01*
X174706250Y-60902000D01*
X174730142Y-60903174D01*
X174730142Y-60903174D01*
G37*
D11*
X174250000Y-61389500D03*
D10*
G36*
X174730142Y-59028174D02*
X174753803Y-59031684D01*
X174777007Y-59037496D01*
X174799529Y-59045554D01*
X174821153Y-59055782D01*
X174841670Y-59068079D01*
X174860883Y-59082329D01*
X174878607Y-59098393D01*
X174894671Y-59116117D01*
X174908921Y-59135330D01*
X174921218Y-59155847D01*
X174931446Y-59177471D01*
X174939504Y-59199993D01*
X174945316Y-59223197D01*
X174948826Y-59246858D01*
X174950000Y-59270750D01*
X174950000Y-59758250D01*
X174948826Y-59782142D01*
X174945316Y-59805803D01*
X174939504Y-59829007D01*
X174931446Y-59851529D01*
X174921218Y-59873153D01*
X174908921Y-59893670D01*
X174894671Y-59912883D01*
X174878607Y-59930607D01*
X174860883Y-59946671D01*
X174841670Y-59960921D01*
X174821153Y-59973218D01*
X174799529Y-59983446D01*
X174777007Y-59991504D01*
X174753803Y-59997316D01*
X174730142Y-60000826D01*
X174706250Y-60002000D01*
X173793750Y-60002000D01*
X173769858Y-60000826D01*
X173746197Y-59997316D01*
X173722993Y-59991504D01*
X173700471Y-59983446D01*
X173678847Y-59973218D01*
X173658330Y-59960921D01*
X173639117Y-59946671D01*
X173621393Y-59930607D01*
X173605329Y-59912883D01*
X173591079Y-59893670D01*
X173578782Y-59873153D01*
X173568554Y-59851529D01*
X173560496Y-59829007D01*
X173554684Y-59805803D01*
X173551174Y-59782142D01*
X173550000Y-59758250D01*
X173550000Y-59270750D01*
X173551174Y-59246858D01*
X173554684Y-59223197D01*
X173560496Y-59199993D01*
X173568554Y-59177471D01*
X173578782Y-59155847D01*
X173591079Y-59135330D01*
X173605329Y-59116117D01*
X173621393Y-59098393D01*
X173639117Y-59082329D01*
X173658330Y-59068079D01*
X173678847Y-59055782D01*
X173700471Y-59045554D01*
X173722993Y-59037496D01*
X173746197Y-59031684D01*
X173769858Y-59028174D01*
X173793750Y-59027000D01*
X174706250Y-59027000D01*
X174730142Y-59028174D01*
X174730142Y-59028174D01*
G37*
D11*
X174250000Y-59514500D03*
G04 #@! TD*
D10*
G04 #@! TO.C,R25*
G36*
X148760779Y-76601144D02*
X148783834Y-76604563D01*
X148806443Y-76610227D01*
X148828387Y-76618079D01*
X148849457Y-76628044D01*
X148869448Y-76640026D01*
X148888168Y-76653910D01*
X148905438Y-76669562D01*
X148921090Y-76686832D01*
X148934974Y-76705552D01*
X148946956Y-76725543D01*
X148956921Y-76746613D01*
X148964773Y-76768557D01*
X148970437Y-76791166D01*
X148973856Y-76814221D01*
X148975000Y-76837500D01*
X148975000Y-77412500D01*
X148973856Y-77435779D01*
X148970437Y-77458834D01*
X148964773Y-77481443D01*
X148956921Y-77503387D01*
X148946956Y-77524457D01*
X148934974Y-77544448D01*
X148921090Y-77563168D01*
X148905438Y-77580438D01*
X148888168Y-77596090D01*
X148869448Y-77609974D01*
X148849457Y-77621956D01*
X148828387Y-77631921D01*
X148806443Y-77639773D01*
X148783834Y-77645437D01*
X148760779Y-77648856D01*
X148737500Y-77650000D01*
X148262500Y-77650000D01*
X148239221Y-77648856D01*
X148216166Y-77645437D01*
X148193557Y-77639773D01*
X148171613Y-77631921D01*
X148150543Y-77621956D01*
X148130552Y-77609974D01*
X148111832Y-77596090D01*
X148094562Y-77580438D01*
X148078910Y-77563168D01*
X148065026Y-77544448D01*
X148053044Y-77524457D01*
X148043079Y-77503387D01*
X148035227Y-77481443D01*
X148029563Y-77458834D01*
X148026144Y-77435779D01*
X148025000Y-77412500D01*
X148025000Y-76837500D01*
X148026144Y-76814221D01*
X148029563Y-76791166D01*
X148035227Y-76768557D01*
X148043079Y-76746613D01*
X148053044Y-76725543D01*
X148065026Y-76705552D01*
X148078910Y-76686832D01*
X148094562Y-76669562D01*
X148111832Y-76653910D01*
X148130552Y-76640026D01*
X148150543Y-76628044D01*
X148171613Y-76618079D01*
X148193557Y-76610227D01*
X148216166Y-76604563D01*
X148239221Y-76601144D01*
X148262500Y-76600000D01*
X148737500Y-76600000D01*
X148760779Y-76601144D01*
X148760779Y-76601144D01*
G37*
D14*
X148500000Y-77125000D03*
D10*
G36*
X148760779Y-74851144D02*
X148783834Y-74854563D01*
X148806443Y-74860227D01*
X148828387Y-74868079D01*
X148849457Y-74878044D01*
X148869448Y-74890026D01*
X148888168Y-74903910D01*
X148905438Y-74919562D01*
X148921090Y-74936832D01*
X148934974Y-74955552D01*
X148946956Y-74975543D01*
X148956921Y-74996613D01*
X148964773Y-75018557D01*
X148970437Y-75041166D01*
X148973856Y-75064221D01*
X148975000Y-75087500D01*
X148975000Y-75662500D01*
X148973856Y-75685779D01*
X148970437Y-75708834D01*
X148964773Y-75731443D01*
X148956921Y-75753387D01*
X148946956Y-75774457D01*
X148934974Y-75794448D01*
X148921090Y-75813168D01*
X148905438Y-75830438D01*
X148888168Y-75846090D01*
X148869448Y-75859974D01*
X148849457Y-75871956D01*
X148828387Y-75881921D01*
X148806443Y-75889773D01*
X148783834Y-75895437D01*
X148760779Y-75898856D01*
X148737500Y-75900000D01*
X148262500Y-75900000D01*
X148239221Y-75898856D01*
X148216166Y-75895437D01*
X148193557Y-75889773D01*
X148171613Y-75881921D01*
X148150543Y-75871956D01*
X148130552Y-75859974D01*
X148111832Y-75846090D01*
X148094562Y-75830438D01*
X148078910Y-75813168D01*
X148065026Y-75794448D01*
X148053044Y-75774457D01*
X148043079Y-75753387D01*
X148035227Y-75731443D01*
X148029563Y-75708834D01*
X148026144Y-75685779D01*
X148025000Y-75662500D01*
X148025000Y-75087500D01*
X148026144Y-75064221D01*
X148029563Y-75041166D01*
X148035227Y-75018557D01*
X148043079Y-74996613D01*
X148053044Y-74975543D01*
X148065026Y-74955552D01*
X148078910Y-74936832D01*
X148094562Y-74919562D01*
X148111832Y-74903910D01*
X148130552Y-74890026D01*
X148150543Y-74878044D01*
X148171613Y-74868079D01*
X148193557Y-74860227D01*
X148216166Y-74854563D01*
X148239221Y-74851144D01*
X148262500Y-74850000D01*
X148737500Y-74850000D01*
X148760779Y-74851144D01*
X148760779Y-74851144D01*
G37*
D14*
X148500000Y-75375000D03*
G04 #@! TD*
D15*
G04 #@! TO.C,U1*
X160276000Y-97560000D03*
X160276000Y-96290000D03*
X160276000Y-95020000D03*
X160276000Y-93750000D03*
X160276000Y-92480000D03*
X160276000Y-91210000D03*
X160276000Y-89940000D03*
X165676000Y-89940000D03*
X165676000Y-91210000D03*
X165676000Y-92480000D03*
X165676000Y-93750000D03*
X165676000Y-95020000D03*
X165676000Y-96290000D03*
X165676000Y-97560000D03*
G04 #@! TD*
G04 #@! TO.C,U2*
X164700000Y-59310000D03*
X164700000Y-58040000D03*
X164700000Y-56770000D03*
X164700000Y-55500000D03*
X164700000Y-54230000D03*
X164700000Y-52960000D03*
X164700000Y-51690000D03*
X159300000Y-51690000D03*
X159300000Y-52960000D03*
X159300000Y-54230000D03*
X159300000Y-55500000D03*
X159300000Y-56770000D03*
X159300000Y-58040000D03*
X159300000Y-59310000D03*
G04 #@! TD*
D16*
G04 #@! TO.C,U3*
X158115000Y-67570000D03*
X159385000Y-67570000D03*
X160655000Y-67570000D03*
X161925000Y-67570000D03*
X163195000Y-67570000D03*
X164465000Y-67570000D03*
X165735000Y-67570000D03*
X167005000Y-67570000D03*
X167005000Y-74670000D03*
X165735000Y-74670000D03*
X164465000Y-74670000D03*
X163195000Y-74670000D03*
X161925000Y-74670000D03*
X160655000Y-74670000D03*
X159385000Y-74670000D03*
X158115000Y-74670000D03*
G04 #@! TD*
D10*
G04 #@! TO.C,R31*
G36*
X187705142Y-96051174D02*
X187728803Y-96054684D01*
X187752007Y-96060496D01*
X187774529Y-96068554D01*
X187796153Y-96078782D01*
X187816670Y-96091079D01*
X187835883Y-96105329D01*
X187853607Y-96121393D01*
X187869671Y-96139117D01*
X187883921Y-96158330D01*
X187896218Y-96178847D01*
X187906446Y-96200471D01*
X187914504Y-96222993D01*
X187920316Y-96246197D01*
X187923826Y-96269858D01*
X187925000Y-96293750D01*
X187925000Y-97206250D01*
X187923826Y-97230142D01*
X187920316Y-97253803D01*
X187914504Y-97277007D01*
X187906446Y-97299529D01*
X187896218Y-97321153D01*
X187883921Y-97341670D01*
X187869671Y-97360883D01*
X187853607Y-97378607D01*
X187835883Y-97394671D01*
X187816670Y-97408921D01*
X187796153Y-97421218D01*
X187774529Y-97431446D01*
X187752007Y-97439504D01*
X187728803Y-97445316D01*
X187705142Y-97448826D01*
X187681250Y-97450000D01*
X187193750Y-97450000D01*
X187169858Y-97448826D01*
X187146197Y-97445316D01*
X187122993Y-97439504D01*
X187100471Y-97431446D01*
X187078847Y-97421218D01*
X187058330Y-97408921D01*
X187039117Y-97394671D01*
X187021393Y-97378607D01*
X187005329Y-97360883D01*
X186991079Y-97341670D01*
X186978782Y-97321153D01*
X186968554Y-97299529D01*
X186960496Y-97277007D01*
X186954684Y-97253803D01*
X186951174Y-97230142D01*
X186950000Y-97206250D01*
X186950000Y-96293750D01*
X186951174Y-96269858D01*
X186954684Y-96246197D01*
X186960496Y-96222993D01*
X186968554Y-96200471D01*
X186978782Y-96178847D01*
X186991079Y-96158330D01*
X187005329Y-96139117D01*
X187021393Y-96121393D01*
X187039117Y-96105329D01*
X187058330Y-96091079D01*
X187078847Y-96078782D01*
X187100471Y-96068554D01*
X187122993Y-96060496D01*
X187146197Y-96054684D01*
X187169858Y-96051174D01*
X187193750Y-96050000D01*
X187681250Y-96050000D01*
X187705142Y-96051174D01*
X187705142Y-96051174D01*
G37*
D11*
X187437500Y-96750000D03*
D10*
G36*
X185830142Y-96051174D02*
X185853803Y-96054684D01*
X185877007Y-96060496D01*
X185899529Y-96068554D01*
X185921153Y-96078782D01*
X185941670Y-96091079D01*
X185960883Y-96105329D01*
X185978607Y-96121393D01*
X185994671Y-96139117D01*
X186008921Y-96158330D01*
X186021218Y-96178847D01*
X186031446Y-96200471D01*
X186039504Y-96222993D01*
X186045316Y-96246197D01*
X186048826Y-96269858D01*
X186050000Y-96293750D01*
X186050000Y-97206250D01*
X186048826Y-97230142D01*
X186045316Y-97253803D01*
X186039504Y-97277007D01*
X186031446Y-97299529D01*
X186021218Y-97321153D01*
X186008921Y-97341670D01*
X185994671Y-97360883D01*
X185978607Y-97378607D01*
X185960883Y-97394671D01*
X185941670Y-97408921D01*
X185921153Y-97421218D01*
X185899529Y-97431446D01*
X185877007Y-97439504D01*
X185853803Y-97445316D01*
X185830142Y-97448826D01*
X185806250Y-97450000D01*
X185318750Y-97450000D01*
X185294858Y-97448826D01*
X185271197Y-97445316D01*
X185247993Y-97439504D01*
X185225471Y-97431446D01*
X185203847Y-97421218D01*
X185183330Y-97408921D01*
X185164117Y-97394671D01*
X185146393Y-97378607D01*
X185130329Y-97360883D01*
X185116079Y-97341670D01*
X185103782Y-97321153D01*
X185093554Y-97299529D01*
X185085496Y-97277007D01*
X185079684Y-97253803D01*
X185076174Y-97230142D01*
X185075000Y-97206250D01*
X185075000Y-96293750D01*
X185076174Y-96269858D01*
X185079684Y-96246197D01*
X185085496Y-96222993D01*
X185093554Y-96200471D01*
X185103782Y-96178847D01*
X185116079Y-96158330D01*
X185130329Y-96139117D01*
X185146393Y-96121393D01*
X185164117Y-96105329D01*
X185183330Y-96091079D01*
X185203847Y-96078782D01*
X185225471Y-96068554D01*
X185247993Y-96060496D01*
X185271197Y-96054684D01*
X185294858Y-96051174D01*
X185318750Y-96050000D01*
X185806250Y-96050000D01*
X185830142Y-96051174D01*
X185830142Y-96051174D01*
G37*
D11*
X185562500Y-96750000D03*
G04 #@! TD*
D10*
G04 #@! TO.C,R32*
G36*
X185830142Y-89051174D02*
X185853803Y-89054684D01*
X185877007Y-89060496D01*
X185899529Y-89068554D01*
X185921153Y-89078782D01*
X185941670Y-89091079D01*
X185960883Y-89105329D01*
X185978607Y-89121393D01*
X185994671Y-89139117D01*
X186008921Y-89158330D01*
X186021218Y-89178847D01*
X186031446Y-89200471D01*
X186039504Y-89222993D01*
X186045316Y-89246197D01*
X186048826Y-89269858D01*
X186050000Y-89293750D01*
X186050000Y-90206250D01*
X186048826Y-90230142D01*
X186045316Y-90253803D01*
X186039504Y-90277007D01*
X186031446Y-90299529D01*
X186021218Y-90321153D01*
X186008921Y-90341670D01*
X185994671Y-90360883D01*
X185978607Y-90378607D01*
X185960883Y-90394671D01*
X185941670Y-90408921D01*
X185921153Y-90421218D01*
X185899529Y-90431446D01*
X185877007Y-90439504D01*
X185853803Y-90445316D01*
X185830142Y-90448826D01*
X185806250Y-90450000D01*
X185318750Y-90450000D01*
X185294858Y-90448826D01*
X185271197Y-90445316D01*
X185247993Y-90439504D01*
X185225471Y-90431446D01*
X185203847Y-90421218D01*
X185183330Y-90408921D01*
X185164117Y-90394671D01*
X185146393Y-90378607D01*
X185130329Y-90360883D01*
X185116079Y-90341670D01*
X185103782Y-90321153D01*
X185093554Y-90299529D01*
X185085496Y-90277007D01*
X185079684Y-90253803D01*
X185076174Y-90230142D01*
X185075000Y-90206250D01*
X185075000Y-89293750D01*
X185076174Y-89269858D01*
X185079684Y-89246197D01*
X185085496Y-89222993D01*
X185093554Y-89200471D01*
X185103782Y-89178847D01*
X185116079Y-89158330D01*
X185130329Y-89139117D01*
X185146393Y-89121393D01*
X185164117Y-89105329D01*
X185183330Y-89091079D01*
X185203847Y-89078782D01*
X185225471Y-89068554D01*
X185247993Y-89060496D01*
X185271197Y-89054684D01*
X185294858Y-89051174D01*
X185318750Y-89050000D01*
X185806250Y-89050000D01*
X185830142Y-89051174D01*
X185830142Y-89051174D01*
G37*
D11*
X185562500Y-89750000D03*
D10*
G36*
X187705142Y-89051174D02*
X187728803Y-89054684D01*
X187752007Y-89060496D01*
X187774529Y-89068554D01*
X187796153Y-89078782D01*
X187816670Y-89091079D01*
X187835883Y-89105329D01*
X187853607Y-89121393D01*
X187869671Y-89139117D01*
X187883921Y-89158330D01*
X187896218Y-89178847D01*
X187906446Y-89200471D01*
X187914504Y-89222993D01*
X187920316Y-89246197D01*
X187923826Y-89269858D01*
X187925000Y-89293750D01*
X187925000Y-90206250D01*
X187923826Y-90230142D01*
X187920316Y-90253803D01*
X187914504Y-90277007D01*
X187906446Y-90299529D01*
X187896218Y-90321153D01*
X187883921Y-90341670D01*
X187869671Y-90360883D01*
X187853607Y-90378607D01*
X187835883Y-90394671D01*
X187816670Y-90408921D01*
X187796153Y-90421218D01*
X187774529Y-90431446D01*
X187752007Y-90439504D01*
X187728803Y-90445316D01*
X187705142Y-90448826D01*
X187681250Y-90450000D01*
X187193750Y-90450000D01*
X187169858Y-90448826D01*
X187146197Y-90445316D01*
X187122993Y-90439504D01*
X187100471Y-90431446D01*
X187078847Y-90421218D01*
X187058330Y-90408921D01*
X187039117Y-90394671D01*
X187021393Y-90378607D01*
X187005329Y-90360883D01*
X186991079Y-90341670D01*
X186978782Y-90321153D01*
X186968554Y-90299529D01*
X186960496Y-90277007D01*
X186954684Y-90253803D01*
X186951174Y-90230142D01*
X186950000Y-90206250D01*
X186950000Y-89293750D01*
X186951174Y-89269858D01*
X186954684Y-89246197D01*
X186960496Y-89222993D01*
X186968554Y-89200471D01*
X186978782Y-89178847D01*
X186991079Y-89158330D01*
X187005329Y-89139117D01*
X187021393Y-89121393D01*
X187039117Y-89105329D01*
X187058330Y-89091079D01*
X187078847Y-89078782D01*
X187100471Y-89068554D01*
X187122993Y-89060496D01*
X187146197Y-89054684D01*
X187169858Y-89051174D01*
X187193750Y-89050000D01*
X187681250Y-89050000D01*
X187705142Y-89051174D01*
X187705142Y-89051174D01*
G37*
D11*
X187437500Y-89750000D03*
G04 #@! TD*
D10*
G04 #@! TO.C,R33*
G36*
X187705142Y-82051174D02*
X187728803Y-82054684D01*
X187752007Y-82060496D01*
X187774529Y-82068554D01*
X187796153Y-82078782D01*
X187816670Y-82091079D01*
X187835883Y-82105329D01*
X187853607Y-82121393D01*
X187869671Y-82139117D01*
X187883921Y-82158330D01*
X187896218Y-82178847D01*
X187906446Y-82200471D01*
X187914504Y-82222993D01*
X187920316Y-82246197D01*
X187923826Y-82269858D01*
X187925000Y-82293750D01*
X187925000Y-83206250D01*
X187923826Y-83230142D01*
X187920316Y-83253803D01*
X187914504Y-83277007D01*
X187906446Y-83299529D01*
X187896218Y-83321153D01*
X187883921Y-83341670D01*
X187869671Y-83360883D01*
X187853607Y-83378607D01*
X187835883Y-83394671D01*
X187816670Y-83408921D01*
X187796153Y-83421218D01*
X187774529Y-83431446D01*
X187752007Y-83439504D01*
X187728803Y-83445316D01*
X187705142Y-83448826D01*
X187681250Y-83450000D01*
X187193750Y-83450000D01*
X187169858Y-83448826D01*
X187146197Y-83445316D01*
X187122993Y-83439504D01*
X187100471Y-83431446D01*
X187078847Y-83421218D01*
X187058330Y-83408921D01*
X187039117Y-83394671D01*
X187021393Y-83378607D01*
X187005329Y-83360883D01*
X186991079Y-83341670D01*
X186978782Y-83321153D01*
X186968554Y-83299529D01*
X186960496Y-83277007D01*
X186954684Y-83253803D01*
X186951174Y-83230142D01*
X186950000Y-83206250D01*
X186950000Y-82293750D01*
X186951174Y-82269858D01*
X186954684Y-82246197D01*
X186960496Y-82222993D01*
X186968554Y-82200471D01*
X186978782Y-82178847D01*
X186991079Y-82158330D01*
X187005329Y-82139117D01*
X187021393Y-82121393D01*
X187039117Y-82105329D01*
X187058330Y-82091079D01*
X187078847Y-82078782D01*
X187100471Y-82068554D01*
X187122993Y-82060496D01*
X187146197Y-82054684D01*
X187169858Y-82051174D01*
X187193750Y-82050000D01*
X187681250Y-82050000D01*
X187705142Y-82051174D01*
X187705142Y-82051174D01*
G37*
D11*
X187437500Y-82750000D03*
D10*
G36*
X185830142Y-82051174D02*
X185853803Y-82054684D01*
X185877007Y-82060496D01*
X185899529Y-82068554D01*
X185921153Y-82078782D01*
X185941670Y-82091079D01*
X185960883Y-82105329D01*
X185978607Y-82121393D01*
X185994671Y-82139117D01*
X186008921Y-82158330D01*
X186021218Y-82178847D01*
X186031446Y-82200471D01*
X186039504Y-82222993D01*
X186045316Y-82246197D01*
X186048826Y-82269858D01*
X186050000Y-82293750D01*
X186050000Y-83206250D01*
X186048826Y-83230142D01*
X186045316Y-83253803D01*
X186039504Y-83277007D01*
X186031446Y-83299529D01*
X186021218Y-83321153D01*
X186008921Y-83341670D01*
X185994671Y-83360883D01*
X185978607Y-83378607D01*
X185960883Y-83394671D01*
X185941670Y-83408921D01*
X185921153Y-83421218D01*
X185899529Y-83431446D01*
X185877007Y-83439504D01*
X185853803Y-83445316D01*
X185830142Y-83448826D01*
X185806250Y-83450000D01*
X185318750Y-83450000D01*
X185294858Y-83448826D01*
X185271197Y-83445316D01*
X185247993Y-83439504D01*
X185225471Y-83431446D01*
X185203847Y-83421218D01*
X185183330Y-83408921D01*
X185164117Y-83394671D01*
X185146393Y-83378607D01*
X185130329Y-83360883D01*
X185116079Y-83341670D01*
X185103782Y-83321153D01*
X185093554Y-83299529D01*
X185085496Y-83277007D01*
X185079684Y-83253803D01*
X185076174Y-83230142D01*
X185075000Y-83206250D01*
X185075000Y-82293750D01*
X185076174Y-82269858D01*
X185079684Y-82246197D01*
X185085496Y-82222993D01*
X185093554Y-82200471D01*
X185103782Y-82178847D01*
X185116079Y-82158330D01*
X185130329Y-82139117D01*
X185146393Y-82121393D01*
X185164117Y-82105329D01*
X185183330Y-82091079D01*
X185203847Y-82078782D01*
X185225471Y-82068554D01*
X185247993Y-82060496D01*
X185271197Y-82054684D01*
X185294858Y-82051174D01*
X185318750Y-82050000D01*
X185806250Y-82050000D01*
X185830142Y-82051174D01*
X185830142Y-82051174D01*
G37*
D11*
X185562500Y-82750000D03*
G04 #@! TD*
D10*
G04 #@! TO.C,R34*
G36*
X185830142Y-75051174D02*
X185853803Y-75054684D01*
X185877007Y-75060496D01*
X185899529Y-75068554D01*
X185921153Y-75078782D01*
X185941670Y-75091079D01*
X185960883Y-75105329D01*
X185978607Y-75121393D01*
X185994671Y-75139117D01*
X186008921Y-75158330D01*
X186021218Y-75178847D01*
X186031446Y-75200471D01*
X186039504Y-75222993D01*
X186045316Y-75246197D01*
X186048826Y-75269858D01*
X186050000Y-75293750D01*
X186050000Y-76206250D01*
X186048826Y-76230142D01*
X186045316Y-76253803D01*
X186039504Y-76277007D01*
X186031446Y-76299529D01*
X186021218Y-76321153D01*
X186008921Y-76341670D01*
X185994671Y-76360883D01*
X185978607Y-76378607D01*
X185960883Y-76394671D01*
X185941670Y-76408921D01*
X185921153Y-76421218D01*
X185899529Y-76431446D01*
X185877007Y-76439504D01*
X185853803Y-76445316D01*
X185830142Y-76448826D01*
X185806250Y-76450000D01*
X185318750Y-76450000D01*
X185294858Y-76448826D01*
X185271197Y-76445316D01*
X185247993Y-76439504D01*
X185225471Y-76431446D01*
X185203847Y-76421218D01*
X185183330Y-76408921D01*
X185164117Y-76394671D01*
X185146393Y-76378607D01*
X185130329Y-76360883D01*
X185116079Y-76341670D01*
X185103782Y-76321153D01*
X185093554Y-76299529D01*
X185085496Y-76277007D01*
X185079684Y-76253803D01*
X185076174Y-76230142D01*
X185075000Y-76206250D01*
X185075000Y-75293750D01*
X185076174Y-75269858D01*
X185079684Y-75246197D01*
X185085496Y-75222993D01*
X185093554Y-75200471D01*
X185103782Y-75178847D01*
X185116079Y-75158330D01*
X185130329Y-75139117D01*
X185146393Y-75121393D01*
X185164117Y-75105329D01*
X185183330Y-75091079D01*
X185203847Y-75078782D01*
X185225471Y-75068554D01*
X185247993Y-75060496D01*
X185271197Y-75054684D01*
X185294858Y-75051174D01*
X185318750Y-75050000D01*
X185806250Y-75050000D01*
X185830142Y-75051174D01*
X185830142Y-75051174D01*
G37*
D11*
X185562500Y-75750000D03*
D10*
G36*
X187705142Y-75051174D02*
X187728803Y-75054684D01*
X187752007Y-75060496D01*
X187774529Y-75068554D01*
X187796153Y-75078782D01*
X187816670Y-75091079D01*
X187835883Y-75105329D01*
X187853607Y-75121393D01*
X187869671Y-75139117D01*
X187883921Y-75158330D01*
X187896218Y-75178847D01*
X187906446Y-75200471D01*
X187914504Y-75222993D01*
X187920316Y-75246197D01*
X187923826Y-75269858D01*
X187925000Y-75293750D01*
X187925000Y-76206250D01*
X187923826Y-76230142D01*
X187920316Y-76253803D01*
X187914504Y-76277007D01*
X187906446Y-76299529D01*
X187896218Y-76321153D01*
X187883921Y-76341670D01*
X187869671Y-76360883D01*
X187853607Y-76378607D01*
X187835883Y-76394671D01*
X187816670Y-76408921D01*
X187796153Y-76421218D01*
X187774529Y-76431446D01*
X187752007Y-76439504D01*
X187728803Y-76445316D01*
X187705142Y-76448826D01*
X187681250Y-76450000D01*
X187193750Y-76450000D01*
X187169858Y-76448826D01*
X187146197Y-76445316D01*
X187122993Y-76439504D01*
X187100471Y-76431446D01*
X187078847Y-76421218D01*
X187058330Y-76408921D01*
X187039117Y-76394671D01*
X187021393Y-76378607D01*
X187005329Y-76360883D01*
X186991079Y-76341670D01*
X186978782Y-76321153D01*
X186968554Y-76299529D01*
X186960496Y-76277007D01*
X186954684Y-76253803D01*
X186951174Y-76230142D01*
X186950000Y-76206250D01*
X186950000Y-75293750D01*
X186951174Y-75269858D01*
X186954684Y-75246197D01*
X186960496Y-75222993D01*
X186968554Y-75200471D01*
X186978782Y-75178847D01*
X186991079Y-75158330D01*
X187005329Y-75139117D01*
X187021393Y-75121393D01*
X187039117Y-75105329D01*
X187058330Y-75091079D01*
X187078847Y-75078782D01*
X187100471Y-75068554D01*
X187122993Y-75060496D01*
X187146197Y-75054684D01*
X187169858Y-75051174D01*
X187193750Y-75050000D01*
X187681250Y-75050000D01*
X187705142Y-75051174D01*
X187705142Y-75051174D01*
G37*
D11*
X187437500Y-75750000D03*
G04 #@! TD*
D10*
G04 #@! TO.C,R35*
G36*
X187705142Y-68051174D02*
X187728803Y-68054684D01*
X187752007Y-68060496D01*
X187774529Y-68068554D01*
X187796153Y-68078782D01*
X187816670Y-68091079D01*
X187835883Y-68105329D01*
X187853607Y-68121393D01*
X187869671Y-68139117D01*
X187883921Y-68158330D01*
X187896218Y-68178847D01*
X187906446Y-68200471D01*
X187914504Y-68222993D01*
X187920316Y-68246197D01*
X187923826Y-68269858D01*
X187925000Y-68293750D01*
X187925000Y-69206250D01*
X187923826Y-69230142D01*
X187920316Y-69253803D01*
X187914504Y-69277007D01*
X187906446Y-69299529D01*
X187896218Y-69321153D01*
X187883921Y-69341670D01*
X187869671Y-69360883D01*
X187853607Y-69378607D01*
X187835883Y-69394671D01*
X187816670Y-69408921D01*
X187796153Y-69421218D01*
X187774529Y-69431446D01*
X187752007Y-69439504D01*
X187728803Y-69445316D01*
X187705142Y-69448826D01*
X187681250Y-69450000D01*
X187193750Y-69450000D01*
X187169858Y-69448826D01*
X187146197Y-69445316D01*
X187122993Y-69439504D01*
X187100471Y-69431446D01*
X187078847Y-69421218D01*
X187058330Y-69408921D01*
X187039117Y-69394671D01*
X187021393Y-69378607D01*
X187005329Y-69360883D01*
X186991079Y-69341670D01*
X186978782Y-69321153D01*
X186968554Y-69299529D01*
X186960496Y-69277007D01*
X186954684Y-69253803D01*
X186951174Y-69230142D01*
X186950000Y-69206250D01*
X186950000Y-68293750D01*
X186951174Y-68269858D01*
X186954684Y-68246197D01*
X186960496Y-68222993D01*
X186968554Y-68200471D01*
X186978782Y-68178847D01*
X186991079Y-68158330D01*
X187005329Y-68139117D01*
X187021393Y-68121393D01*
X187039117Y-68105329D01*
X187058330Y-68091079D01*
X187078847Y-68078782D01*
X187100471Y-68068554D01*
X187122993Y-68060496D01*
X187146197Y-68054684D01*
X187169858Y-68051174D01*
X187193750Y-68050000D01*
X187681250Y-68050000D01*
X187705142Y-68051174D01*
X187705142Y-68051174D01*
G37*
D11*
X187437500Y-68750000D03*
D10*
G36*
X185830142Y-68051174D02*
X185853803Y-68054684D01*
X185877007Y-68060496D01*
X185899529Y-68068554D01*
X185921153Y-68078782D01*
X185941670Y-68091079D01*
X185960883Y-68105329D01*
X185978607Y-68121393D01*
X185994671Y-68139117D01*
X186008921Y-68158330D01*
X186021218Y-68178847D01*
X186031446Y-68200471D01*
X186039504Y-68222993D01*
X186045316Y-68246197D01*
X186048826Y-68269858D01*
X186050000Y-68293750D01*
X186050000Y-69206250D01*
X186048826Y-69230142D01*
X186045316Y-69253803D01*
X186039504Y-69277007D01*
X186031446Y-69299529D01*
X186021218Y-69321153D01*
X186008921Y-69341670D01*
X185994671Y-69360883D01*
X185978607Y-69378607D01*
X185960883Y-69394671D01*
X185941670Y-69408921D01*
X185921153Y-69421218D01*
X185899529Y-69431446D01*
X185877007Y-69439504D01*
X185853803Y-69445316D01*
X185830142Y-69448826D01*
X185806250Y-69450000D01*
X185318750Y-69450000D01*
X185294858Y-69448826D01*
X185271197Y-69445316D01*
X185247993Y-69439504D01*
X185225471Y-69431446D01*
X185203847Y-69421218D01*
X185183330Y-69408921D01*
X185164117Y-69394671D01*
X185146393Y-69378607D01*
X185130329Y-69360883D01*
X185116079Y-69341670D01*
X185103782Y-69321153D01*
X185093554Y-69299529D01*
X185085496Y-69277007D01*
X185079684Y-69253803D01*
X185076174Y-69230142D01*
X185075000Y-69206250D01*
X185075000Y-68293750D01*
X185076174Y-68269858D01*
X185079684Y-68246197D01*
X185085496Y-68222993D01*
X185093554Y-68200471D01*
X185103782Y-68178847D01*
X185116079Y-68158330D01*
X185130329Y-68139117D01*
X185146393Y-68121393D01*
X185164117Y-68105329D01*
X185183330Y-68091079D01*
X185203847Y-68078782D01*
X185225471Y-68068554D01*
X185247993Y-68060496D01*
X185271197Y-68054684D01*
X185294858Y-68051174D01*
X185318750Y-68050000D01*
X185806250Y-68050000D01*
X185830142Y-68051174D01*
X185830142Y-68051174D01*
G37*
D11*
X185562500Y-68750000D03*
G04 #@! TD*
D10*
G04 #@! TO.C,R36*
G36*
X187705142Y-61051174D02*
X187728803Y-61054684D01*
X187752007Y-61060496D01*
X187774529Y-61068554D01*
X187796153Y-61078782D01*
X187816670Y-61091079D01*
X187835883Y-61105329D01*
X187853607Y-61121393D01*
X187869671Y-61139117D01*
X187883921Y-61158330D01*
X187896218Y-61178847D01*
X187906446Y-61200471D01*
X187914504Y-61222993D01*
X187920316Y-61246197D01*
X187923826Y-61269858D01*
X187925000Y-61293750D01*
X187925000Y-62206250D01*
X187923826Y-62230142D01*
X187920316Y-62253803D01*
X187914504Y-62277007D01*
X187906446Y-62299529D01*
X187896218Y-62321153D01*
X187883921Y-62341670D01*
X187869671Y-62360883D01*
X187853607Y-62378607D01*
X187835883Y-62394671D01*
X187816670Y-62408921D01*
X187796153Y-62421218D01*
X187774529Y-62431446D01*
X187752007Y-62439504D01*
X187728803Y-62445316D01*
X187705142Y-62448826D01*
X187681250Y-62450000D01*
X187193750Y-62450000D01*
X187169858Y-62448826D01*
X187146197Y-62445316D01*
X187122993Y-62439504D01*
X187100471Y-62431446D01*
X187078847Y-62421218D01*
X187058330Y-62408921D01*
X187039117Y-62394671D01*
X187021393Y-62378607D01*
X187005329Y-62360883D01*
X186991079Y-62341670D01*
X186978782Y-62321153D01*
X186968554Y-62299529D01*
X186960496Y-62277007D01*
X186954684Y-62253803D01*
X186951174Y-62230142D01*
X186950000Y-62206250D01*
X186950000Y-61293750D01*
X186951174Y-61269858D01*
X186954684Y-61246197D01*
X186960496Y-61222993D01*
X186968554Y-61200471D01*
X186978782Y-61178847D01*
X186991079Y-61158330D01*
X187005329Y-61139117D01*
X187021393Y-61121393D01*
X187039117Y-61105329D01*
X187058330Y-61091079D01*
X187078847Y-61078782D01*
X187100471Y-61068554D01*
X187122993Y-61060496D01*
X187146197Y-61054684D01*
X187169858Y-61051174D01*
X187193750Y-61050000D01*
X187681250Y-61050000D01*
X187705142Y-61051174D01*
X187705142Y-61051174D01*
G37*
D11*
X187437500Y-61750000D03*
D10*
G36*
X185830142Y-61051174D02*
X185853803Y-61054684D01*
X185877007Y-61060496D01*
X185899529Y-61068554D01*
X185921153Y-61078782D01*
X185941670Y-61091079D01*
X185960883Y-61105329D01*
X185978607Y-61121393D01*
X185994671Y-61139117D01*
X186008921Y-61158330D01*
X186021218Y-61178847D01*
X186031446Y-61200471D01*
X186039504Y-61222993D01*
X186045316Y-61246197D01*
X186048826Y-61269858D01*
X186050000Y-61293750D01*
X186050000Y-62206250D01*
X186048826Y-62230142D01*
X186045316Y-62253803D01*
X186039504Y-62277007D01*
X186031446Y-62299529D01*
X186021218Y-62321153D01*
X186008921Y-62341670D01*
X185994671Y-62360883D01*
X185978607Y-62378607D01*
X185960883Y-62394671D01*
X185941670Y-62408921D01*
X185921153Y-62421218D01*
X185899529Y-62431446D01*
X185877007Y-62439504D01*
X185853803Y-62445316D01*
X185830142Y-62448826D01*
X185806250Y-62450000D01*
X185318750Y-62450000D01*
X185294858Y-62448826D01*
X185271197Y-62445316D01*
X185247993Y-62439504D01*
X185225471Y-62431446D01*
X185203847Y-62421218D01*
X185183330Y-62408921D01*
X185164117Y-62394671D01*
X185146393Y-62378607D01*
X185130329Y-62360883D01*
X185116079Y-62341670D01*
X185103782Y-62321153D01*
X185093554Y-62299529D01*
X185085496Y-62277007D01*
X185079684Y-62253803D01*
X185076174Y-62230142D01*
X185075000Y-62206250D01*
X185075000Y-61293750D01*
X185076174Y-61269858D01*
X185079684Y-61246197D01*
X185085496Y-61222993D01*
X185093554Y-61200471D01*
X185103782Y-61178847D01*
X185116079Y-61158330D01*
X185130329Y-61139117D01*
X185146393Y-61121393D01*
X185164117Y-61105329D01*
X185183330Y-61091079D01*
X185203847Y-61078782D01*
X185225471Y-61068554D01*
X185247993Y-61060496D01*
X185271197Y-61054684D01*
X185294858Y-61051174D01*
X185318750Y-61050000D01*
X185806250Y-61050000D01*
X185830142Y-61051174D01*
X185830142Y-61051174D01*
G37*
D11*
X185562500Y-61750000D03*
G04 #@! TD*
M02*
