G04 #@! TF.GenerationSoftware,KiCad,Pcbnew,6.0.0-rc1-unknown-46fddab~66~ubuntu16.04.1*
G04 #@! TF.CreationDate,2018-09-29T20:34:26+01:00*
G04 #@! TF.ProjectId,test,746573742E6B696361645F7063620000,rev?*
G04 #@! TF.SameCoordinates,Original*
G04 #@! TF.FileFunction,Copper,L1,Top,Signal*
G04 #@! TF.FilePolarity,Positive*
%FSLAX46Y46*%
G04 Gerber Fmt 4.6, Leading zero omitted, Abs format (unit mm)*
G04 Created by KiCad (PCBNEW 6.0.0-rc1-unknown-46fddab~66~ubuntu16.04.1) date Sat Sep 29 20:34:26 2018*
%MOMM*%
%LPD*%
G01*
G04 APERTURE LIST*
G04 #@! TA.AperFunction,SMDPad,CuDef*
%ADD10R,2.500000X2.500000*%
G04 #@! TD*
G04 #@! TA.AperFunction,ComponentPad*
%ADD11C,6.000000*%
G04 #@! TD*
G04 #@! TA.AperFunction,Conductor*
%ADD12C,0.100000*%
G04 #@! TD*
G04 #@! TA.AperFunction,SMDPad,CuDef*
%ADD13C,0.875000*%
G04 #@! TD*
G04 #@! TA.AperFunction,ComponentPad*
%ADD14R,2.600000X2.000000*%
G04 #@! TD*
G04 #@! TA.AperFunction,ComponentPad*
%ADD15O,2.600000X2.000000*%
G04 #@! TD*
G04 #@! TA.AperFunction,ComponentPad*
%ADD16R,1.700000X1.700000*%
G04 #@! TD*
G04 #@! TA.AperFunction,ComponentPad*
%ADD17O,1.700000X1.700000*%
G04 #@! TD*
G04 #@! TA.AperFunction,SMDPad,CuDef*
%ADD18R,1.390000X0.580000*%
G04 #@! TD*
G04 #@! TA.AperFunction,SMDPad,CuDef*
%ADD19C,1.150000*%
G04 #@! TD*
G04 #@! TA.AperFunction,SMDPad,CuDef*
%ADD20C,0.975000*%
G04 #@! TD*
G04 #@! TA.AperFunction,ViaPad*
%ADD21C,0.800000*%
G04 #@! TD*
G04 #@! TA.AperFunction,Conductor*
%ADD22C,0.250000*%
G04 #@! TD*
G04 #@! TA.AperFunction,Conductor*
%ADD23C,0.254000*%
G04 #@! TD*
G04 APERTURE END LIST*
D10*
G04 #@! TO.P,K,1*
G04 #@! TO.N,4V096*
X173990000Y-105750000D03*
G04 #@! TD*
G04 #@! TO.P,5V,1*
G04 #@! TO.N,5V*
X168910000Y-105750000D03*
G04 #@! TD*
D11*
G04 #@! TO.P,REF\002A\002A,1*
G04 #@! TO.N,N/C*
X141000000Y-49250000D03*
G04 #@! TD*
G04 #@! TO.P,REF\002A\002A,1*
G04 #@! TO.N,N/C*
X190000000Y-49250000D03*
G04 #@! TD*
G04 #@! TO.P,REF\002A\002A,1*
G04 #@! TO.N,N/C*
X190000000Y-107250000D03*
G04 #@! TD*
G04 #@! TO.P,REF\002A\002A,1*
G04 #@! TO.N,N/C*
X141000000Y-107250000D03*
G04 #@! TD*
D12*
G04 #@! TO.N,GND*
G04 #@! TO.C,C4*
G36*
X171918691Y-73440053D02*
X171939926Y-73443203D01*
X171960750Y-73448419D01*
X171980962Y-73455651D01*
X172000368Y-73464830D01*
X172018781Y-73475866D01*
X172036024Y-73488654D01*
X172051930Y-73503070D01*
X172066346Y-73518976D01*
X172079134Y-73536219D01*
X172090170Y-73554632D01*
X172099349Y-73574038D01*
X172106581Y-73594250D01*
X172111797Y-73615074D01*
X172114947Y-73636309D01*
X172116000Y-73657750D01*
X172116000Y-74170250D01*
X172114947Y-74191691D01*
X172111797Y-74212926D01*
X172106581Y-74233750D01*
X172099349Y-74253962D01*
X172090170Y-74273368D01*
X172079134Y-74291781D01*
X172066346Y-74309024D01*
X172051930Y-74324930D01*
X172036024Y-74339346D01*
X172018781Y-74352134D01*
X172000368Y-74363170D01*
X171980962Y-74372349D01*
X171960750Y-74379581D01*
X171939926Y-74384797D01*
X171918691Y-74387947D01*
X171897250Y-74389000D01*
X171459750Y-74389000D01*
X171438309Y-74387947D01*
X171417074Y-74384797D01*
X171396250Y-74379581D01*
X171376038Y-74372349D01*
X171356632Y-74363170D01*
X171338219Y-74352134D01*
X171320976Y-74339346D01*
X171305070Y-74324930D01*
X171290654Y-74309024D01*
X171277866Y-74291781D01*
X171266830Y-74273368D01*
X171257651Y-74253962D01*
X171250419Y-74233750D01*
X171245203Y-74212926D01*
X171242053Y-74191691D01*
X171241000Y-74170250D01*
X171241000Y-73657750D01*
X171242053Y-73636309D01*
X171245203Y-73615074D01*
X171250419Y-73594250D01*
X171257651Y-73574038D01*
X171266830Y-73554632D01*
X171277866Y-73536219D01*
X171290654Y-73518976D01*
X171305070Y-73503070D01*
X171320976Y-73488654D01*
X171338219Y-73475866D01*
X171356632Y-73464830D01*
X171376038Y-73455651D01*
X171396250Y-73448419D01*
X171417074Y-73443203D01*
X171438309Y-73440053D01*
X171459750Y-73439000D01*
X171897250Y-73439000D01*
X171918691Y-73440053D01*
X171918691Y-73440053D01*
G37*
D13*
G04 #@! TD*
G04 #@! TO.P,C4,2*
G04 #@! TO.N,GND*
X171678500Y-73914000D03*
D12*
G04 #@! TO.N,5V*
G04 #@! TO.C,C4*
G36*
X173493691Y-73440053D02*
X173514926Y-73443203D01*
X173535750Y-73448419D01*
X173555962Y-73455651D01*
X173575368Y-73464830D01*
X173593781Y-73475866D01*
X173611024Y-73488654D01*
X173626930Y-73503070D01*
X173641346Y-73518976D01*
X173654134Y-73536219D01*
X173665170Y-73554632D01*
X173674349Y-73574038D01*
X173681581Y-73594250D01*
X173686797Y-73615074D01*
X173689947Y-73636309D01*
X173691000Y-73657750D01*
X173691000Y-74170250D01*
X173689947Y-74191691D01*
X173686797Y-74212926D01*
X173681581Y-74233750D01*
X173674349Y-74253962D01*
X173665170Y-74273368D01*
X173654134Y-74291781D01*
X173641346Y-74309024D01*
X173626930Y-74324930D01*
X173611024Y-74339346D01*
X173593781Y-74352134D01*
X173575368Y-74363170D01*
X173555962Y-74372349D01*
X173535750Y-74379581D01*
X173514926Y-74384797D01*
X173493691Y-74387947D01*
X173472250Y-74389000D01*
X173034750Y-74389000D01*
X173013309Y-74387947D01*
X172992074Y-74384797D01*
X172971250Y-74379581D01*
X172951038Y-74372349D01*
X172931632Y-74363170D01*
X172913219Y-74352134D01*
X172895976Y-74339346D01*
X172880070Y-74324930D01*
X172865654Y-74309024D01*
X172852866Y-74291781D01*
X172841830Y-74273368D01*
X172832651Y-74253962D01*
X172825419Y-74233750D01*
X172820203Y-74212926D01*
X172817053Y-74191691D01*
X172816000Y-74170250D01*
X172816000Y-73657750D01*
X172817053Y-73636309D01*
X172820203Y-73615074D01*
X172825419Y-73594250D01*
X172832651Y-73574038D01*
X172841830Y-73554632D01*
X172852866Y-73536219D01*
X172865654Y-73518976D01*
X172880070Y-73503070D01*
X172895976Y-73488654D01*
X172913219Y-73475866D01*
X172931632Y-73464830D01*
X172951038Y-73455651D01*
X172971250Y-73448419D01*
X172992074Y-73443203D01*
X173013309Y-73440053D01*
X173034750Y-73439000D01*
X173472250Y-73439000D01*
X173493691Y-73440053D01*
X173493691Y-73440053D01*
G37*
D13*
G04 #@! TD*
G04 #@! TO.P,C4,1*
G04 #@! TO.N,5V*
X173253500Y-73914000D03*
D14*
G04 #@! TO.P,J1,1*
G04 #@! TO.N,4V096*
X181610000Y-100330000D03*
D15*
G04 #@! TO.P,J1,2*
G04 #@! TO.N,Net-(J1-Pad2)*
X181610000Y-96830000D03*
G04 #@! TO.P,J1,3*
G04 #@! TO.N,4V096*
X181610000Y-93330000D03*
G04 #@! TO.P,J1,4*
G04 #@! TO.N,Net-(J1-Pad4)*
X181610000Y-89830000D03*
G04 #@! TO.P,J1,5*
G04 #@! TO.N,4V096*
X181610000Y-86330000D03*
G04 #@! TO.P,J1,6*
G04 #@! TO.N,Net-(J1-Pad6)*
X181610000Y-82830000D03*
G04 #@! TO.P,J1,7*
G04 #@! TO.N,4V096*
X181610000Y-79330000D03*
G04 #@! TO.P,J1,8*
G04 #@! TO.N,Net-(J1-Pad8)*
X181610000Y-75830000D03*
G04 #@! TO.P,J1,9*
G04 #@! TO.N,4V096*
X181610000Y-72330000D03*
G04 #@! TO.P,J1,10*
G04 #@! TO.N,Net-(J1-Pad10)*
X181610000Y-68830000D03*
G04 #@! TO.P,J1,11*
G04 #@! TO.N,4V096*
X181610000Y-65330000D03*
G04 #@! TO.P,J1,12*
G04 #@! TO.N,Net-(J1-Pad12)*
X181610000Y-61830000D03*
G04 #@! TO.P,J1,13*
G04 #@! TO.N,4V096*
X181610000Y-58330000D03*
G04 #@! TO.P,J1,14*
G04 #@! TO.N,Net-(J1-Pad14)*
X181610000Y-54830000D03*
G04 #@! TD*
D16*
G04 #@! TO.P,RASPI_2_3_HEADER1,1*
G04 #@! TO.N,Net-(RASPI_2_3_HEADER1-Pad1)*
X142500000Y-102500000D03*
D17*
G04 #@! TO.P,RASPI_2_3_HEADER1,2*
G04 #@! TO.N,5V*
X139960000Y-102500000D03*
G04 #@! TO.P,RASPI_2_3_HEADER1,3*
G04 #@! TO.N,Net-(RASPI_2_3_HEADER1-Pad3)*
X142500000Y-99960000D03*
G04 #@! TO.P,RASPI_2_3_HEADER1,4*
G04 #@! TO.N,5V*
X139960000Y-99960000D03*
G04 #@! TO.P,RASPI_2_3_HEADER1,5*
G04 #@! TO.N,Net-(RASPI_2_3_HEADER1-Pad5)*
X142500000Y-97420000D03*
G04 #@! TO.P,RASPI_2_3_HEADER1,6*
G04 #@! TO.N,GND*
X139960000Y-97420000D03*
G04 #@! TO.P,RASPI_2_3_HEADER1,7*
G04 #@! TO.N,Net-(RASPI_2_3_HEADER1-Pad7)*
X142500000Y-94880000D03*
G04 #@! TO.P,RASPI_2_3_HEADER1,8*
G04 #@! TO.N,Net-(RASPI_2_3_HEADER1-Pad8)*
X139960000Y-94880000D03*
G04 #@! TO.P,RASPI_2_3_HEADER1,9*
G04 #@! TO.N,Net-(RASPI_2_3_HEADER1-Pad9)*
X142500000Y-92340000D03*
G04 #@! TO.P,RASPI_2_3_HEADER1,10*
G04 #@! TO.N,Net-(RASPI_2_3_HEADER1-Pad10)*
X139960000Y-92340000D03*
G04 #@! TO.P,RASPI_2_3_HEADER1,11*
G04 #@! TO.N,Net-(D3-Pad1)*
X142500000Y-89800000D03*
G04 #@! TO.P,RASPI_2_3_HEADER1,12*
G04 #@! TO.N,Net-(RASPI_2_3_HEADER1-Pad12)*
X139960000Y-89800000D03*
G04 #@! TO.P,RASPI_2_3_HEADER1,13*
G04 #@! TO.N,Net-(RASPI_2_3_HEADER1-Pad13)*
X142500000Y-87260000D03*
G04 #@! TO.P,RASPI_2_3_HEADER1,14*
G04 #@! TO.N,Net-(RASPI_2_3_HEADER1-Pad14)*
X139960000Y-87260000D03*
G04 #@! TO.P,RASPI_2_3_HEADER1,15*
G04 #@! TO.N,Net-(D2-Pad1)*
X142500000Y-84720000D03*
G04 #@! TO.P,RASPI_2_3_HEADER1,16*
G04 #@! TO.N,Net-(RASPI_2_3_HEADER1-Pad16)*
X139960000Y-84720000D03*
G04 #@! TO.P,RASPI_2_3_HEADER1,17*
G04 #@! TO.N,Net-(RASPI_2_3_HEADER1-Pad17)*
X142500000Y-82180000D03*
G04 #@! TO.P,RASPI_2_3_HEADER1,18*
G04 #@! TO.N,Net-(RASPI_2_3_HEADER1-Pad18)*
X139960000Y-82180000D03*
G04 #@! TO.P,RASPI_2_3_HEADER1,19*
G04 #@! TO.N,MOSI_0*
X142500000Y-79640000D03*
G04 #@! TO.P,RASPI_2_3_HEADER1,20*
G04 #@! TO.N,GND*
X139960000Y-79640000D03*
G04 #@! TO.P,RASPI_2_3_HEADER1,21*
G04 #@! TO.N,MISO_0*
X142500000Y-77100000D03*
G04 #@! TO.P,RASPI_2_3_HEADER1,22*
G04 #@! TO.N,Net-(RASPI_2_3_HEADER1-Pad22)*
X139960000Y-77100000D03*
G04 #@! TO.P,RASPI_2_3_HEADER1,23*
G04 #@! TO.N,SCLK0*
X142500000Y-74560000D03*
G04 #@! TO.P,RASPI_2_3_HEADER1,24*
G04 #@! TO.N,CE0*
X139960000Y-74560000D03*
G04 #@! TO.P,RASPI_2_3_HEADER1,25*
G04 #@! TO.N,GND*
X142500000Y-72020000D03*
G04 #@! TO.P,RASPI_2_3_HEADER1,26*
G04 #@! TO.N,CE1*
X139960000Y-72020000D03*
G04 #@! TO.P,RASPI_2_3_HEADER1,27*
G04 #@! TO.N,Net-(RASPI_2_3_HEADER1-Pad27)*
X142500000Y-69480000D03*
G04 #@! TO.P,RASPI_2_3_HEADER1,28*
G04 #@! TO.N,Net-(RASPI_2_3_HEADER1-Pad28)*
X139960000Y-69480000D03*
G04 #@! TO.P,RASPI_2_3_HEADER1,29*
G04 #@! TO.N,Net-(RASPI_2_3_HEADER1-Pad29)*
X142500000Y-66940000D03*
G04 #@! TO.P,RASPI_2_3_HEADER1,30*
G04 #@! TO.N,GND*
X139960000Y-66940000D03*
G04 #@! TO.P,RASPI_2_3_HEADER1,31*
G04 #@! TO.N,Net-(RASPI_2_3_HEADER1-Pad31)*
X142500000Y-64400000D03*
G04 #@! TO.P,RASPI_2_3_HEADER1,32*
G04 #@! TO.N,Net-(RASPI_2_3_HEADER1-Pad32)*
X139960000Y-64400000D03*
G04 #@! TO.P,RASPI_2_3_HEADER1,33*
G04 #@! TO.N,Net-(RASPI_2_3_HEADER1-Pad33)*
X142500000Y-61860000D03*
G04 #@! TO.P,RASPI_2_3_HEADER1,34*
G04 #@! TO.N,GND*
X139960000Y-61860000D03*
G04 #@! TO.P,RASPI_2_3_HEADER1,35*
G04 #@! TO.N,Net-(RASPI_2_3_HEADER1-Pad35)*
X142500000Y-59320000D03*
G04 #@! TO.P,RASPI_2_3_HEADER1,36*
G04 #@! TO.N,Net-(RASPI_2_3_HEADER1-Pad36)*
X139960000Y-59320000D03*
G04 #@! TO.P,RASPI_2_3_HEADER1,37*
G04 #@! TO.N,Net-(RASPI_2_3_HEADER1-Pad37)*
X142500000Y-56780000D03*
G04 #@! TO.P,RASPI_2_3_HEADER1,38*
G04 #@! TO.N,Net-(RASPI_2_3_HEADER1-Pad38)*
X139960000Y-56780000D03*
G04 #@! TO.P,RASPI_2_3_HEADER1,39*
G04 #@! TO.N,GND*
X142500000Y-54240000D03*
G04 #@! TO.P,RASPI_2_3_HEADER1,40*
G04 #@! TO.N,Net-(RASPI_2_3_HEADER1-Pad40)*
X139960000Y-54240000D03*
G04 #@! TD*
D18*
G04 #@! TO.P,U4,1*
G04 #@! TO.N,CE1*
X171585000Y-76800000D03*
G04 #@! TO.P,U4,2*
G04 #@! TO.N,GND*
X171585000Y-77750000D03*
G04 #@! TO.P,U4,3*
G04 #@! TO.N,SCLK0*
X171585000Y-78700000D03*
G04 #@! TO.P,U4,4*
G04 #@! TO.N,MISO_0*
X173915000Y-78700000D03*
G04 #@! TO.P,U4,5*
G04 #@! TO.N,5V*
X173915000Y-76800000D03*
G04 #@! TD*
D10*
G04 #@! TO.P,GND,1*
G04 #@! TO.N,GND*
X163830000Y-105750000D03*
G04 #@! TD*
D12*
G04 #@! TO.N,Net-(D2-Pad1)*
G04 #@! TO.C,D2*
G36*
X150824505Y-84551204D02*
X150848773Y-84554804D01*
X150872572Y-84560765D01*
X150895671Y-84569030D01*
X150917850Y-84579520D01*
X150938893Y-84592132D01*
X150958599Y-84606747D01*
X150976777Y-84623223D01*
X150993253Y-84641401D01*
X151007868Y-84661107D01*
X151020480Y-84682150D01*
X151030970Y-84704329D01*
X151039235Y-84727428D01*
X151045196Y-84751227D01*
X151048796Y-84775495D01*
X151050000Y-84799999D01*
X151050000Y-85700001D01*
X151048796Y-85724505D01*
X151045196Y-85748773D01*
X151039235Y-85772572D01*
X151030970Y-85795671D01*
X151020480Y-85817850D01*
X151007868Y-85838893D01*
X150993253Y-85858599D01*
X150976777Y-85876777D01*
X150958599Y-85893253D01*
X150938893Y-85907868D01*
X150917850Y-85920480D01*
X150895671Y-85930970D01*
X150872572Y-85939235D01*
X150848773Y-85945196D01*
X150824505Y-85948796D01*
X150800001Y-85950000D01*
X150149999Y-85950000D01*
X150125495Y-85948796D01*
X150101227Y-85945196D01*
X150077428Y-85939235D01*
X150054329Y-85930970D01*
X150032150Y-85920480D01*
X150011107Y-85907868D01*
X149991401Y-85893253D01*
X149973223Y-85876777D01*
X149956747Y-85858599D01*
X149942132Y-85838893D01*
X149929520Y-85817850D01*
X149919030Y-85795671D01*
X149910765Y-85772572D01*
X149904804Y-85748773D01*
X149901204Y-85724505D01*
X149900000Y-85700001D01*
X149900000Y-84799999D01*
X149901204Y-84775495D01*
X149904804Y-84751227D01*
X149910765Y-84727428D01*
X149919030Y-84704329D01*
X149929520Y-84682150D01*
X149942132Y-84661107D01*
X149956747Y-84641401D01*
X149973223Y-84623223D01*
X149991401Y-84606747D01*
X150011107Y-84592132D01*
X150032150Y-84579520D01*
X150054329Y-84569030D01*
X150077428Y-84560765D01*
X150101227Y-84554804D01*
X150125495Y-84551204D01*
X150149999Y-84550000D01*
X150800001Y-84550000D01*
X150824505Y-84551204D01*
X150824505Y-84551204D01*
G37*
D19*
G04 #@! TD*
G04 #@! TO.P,D2,1*
G04 #@! TO.N,Net-(D2-Pad1)*
X150475000Y-85250000D03*
D12*
G04 #@! TO.N,Net-(D2-Pad2)*
G04 #@! TO.C,D2*
G36*
X152874505Y-84551204D02*
X152898773Y-84554804D01*
X152922572Y-84560765D01*
X152945671Y-84569030D01*
X152967850Y-84579520D01*
X152988893Y-84592132D01*
X153008599Y-84606747D01*
X153026777Y-84623223D01*
X153043253Y-84641401D01*
X153057868Y-84661107D01*
X153070480Y-84682150D01*
X153080970Y-84704329D01*
X153089235Y-84727428D01*
X153095196Y-84751227D01*
X153098796Y-84775495D01*
X153100000Y-84799999D01*
X153100000Y-85700001D01*
X153098796Y-85724505D01*
X153095196Y-85748773D01*
X153089235Y-85772572D01*
X153080970Y-85795671D01*
X153070480Y-85817850D01*
X153057868Y-85838893D01*
X153043253Y-85858599D01*
X153026777Y-85876777D01*
X153008599Y-85893253D01*
X152988893Y-85907868D01*
X152967850Y-85920480D01*
X152945671Y-85930970D01*
X152922572Y-85939235D01*
X152898773Y-85945196D01*
X152874505Y-85948796D01*
X152850001Y-85950000D01*
X152199999Y-85950000D01*
X152175495Y-85948796D01*
X152151227Y-85945196D01*
X152127428Y-85939235D01*
X152104329Y-85930970D01*
X152082150Y-85920480D01*
X152061107Y-85907868D01*
X152041401Y-85893253D01*
X152023223Y-85876777D01*
X152006747Y-85858599D01*
X151992132Y-85838893D01*
X151979520Y-85817850D01*
X151969030Y-85795671D01*
X151960765Y-85772572D01*
X151954804Y-85748773D01*
X151951204Y-85724505D01*
X151950000Y-85700001D01*
X151950000Y-84799999D01*
X151951204Y-84775495D01*
X151954804Y-84751227D01*
X151960765Y-84727428D01*
X151969030Y-84704329D01*
X151979520Y-84682150D01*
X151992132Y-84661107D01*
X152006747Y-84641401D01*
X152023223Y-84623223D01*
X152041401Y-84606747D01*
X152061107Y-84592132D01*
X152082150Y-84579520D01*
X152104329Y-84569030D01*
X152127428Y-84560765D01*
X152151227Y-84554804D01*
X152175495Y-84551204D01*
X152199999Y-84550000D01*
X152850001Y-84550000D01*
X152874505Y-84551204D01*
X152874505Y-84551204D01*
G37*
D19*
G04 #@! TD*
G04 #@! TO.P,D2,2*
G04 #@! TO.N,Net-(D2-Pad2)*
X152525000Y-85250000D03*
D12*
G04 #@! TO.N,Net-(D3-Pad2)*
G04 #@! TO.C,D3*
G36*
X152874505Y-92051204D02*
X152898773Y-92054804D01*
X152922572Y-92060765D01*
X152945671Y-92069030D01*
X152967850Y-92079520D01*
X152988893Y-92092132D01*
X153008599Y-92106747D01*
X153026777Y-92123223D01*
X153043253Y-92141401D01*
X153057868Y-92161107D01*
X153070480Y-92182150D01*
X153080970Y-92204329D01*
X153089235Y-92227428D01*
X153095196Y-92251227D01*
X153098796Y-92275495D01*
X153100000Y-92299999D01*
X153100000Y-93200001D01*
X153098796Y-93224505D01*
X153095196Y-93248773D01*
X153089235Y-93272572D01*
X153080970Y-93295671D01*
X153070480Y-93317850D01*
X153057868Y-93338893D01*
X153043253Y-93358599D01*
X153026777Y-93376777D01*
X153008599Y-93393253D01*
X152988893Y-93407868D01*
X152967850Y-93420480D01*
X152945671Y-93430970D01*
X152922572Y-93439235D01*
X152898773Y-93445196D01*
X152874505Y-93448796D01*
X152850001Y-93450000D01*
X152199999Y-93450000D01*
X152175495Y-93448796D01*
X152151227Y-93445196D01*
X152127428Y-93439235D01*
X152104329Y-93430970D01*
X152082150Y-93420480D01*
X152061107Y-93407868D01*
X152041401Y-93393253D01*
X152023223Y-93376777D01*
X152006747Y-93358599D01*
X151992132Y-93338893D01*
X151979520Y-93317850D01*
X151969030Y-93295671D01*
X151960765Y-93272572D01*
X151954804Y-93248773D01*
X151951204Y-93224505D01*
X151950000Y-93200001D01*
X151950000Y-92299999D01*
X151951204Y-92275495D01*
X151954804Y-92251227D01*
X151960765Y-92227428D01*
X151969030Y-92204329D01*
X151979520Y-92182150D01*
X151992132Y-92161107D01*
X152006747Y-92141401D01*
X152023223Y-92123223D01*
X152041401Y-92106747D01*
X152061107Y-92092132D01*
X152082150Y-92079520D01*
X152104329Y-92069030D01*
X152127428Y-92060765D01*
X152151227Y-92054804D01*
X152175495Y-92051204D01*
X152199999Y-92050000D01*
X152850001Y-92050000D01*
X152874505Y-92051204D01*
X152874505Y-92051204D01*
G37*
D19*
G04 #@! TD*
G04 #@! TO.P,D3,2*
G04 #@! TO.N,Net-(D3-Pad2)*
X152525000Y-92750000D03*
D12*
G04 #@! TO.N,Net-(D3-Pad1)*
G04 #@! TO.C,D3*
G36*
X150824505Y-92051204D02*
X150848773Y-92054804D01*
X150872572Y-92060765D01*
X150895671Y-92069030D01*
X150917850Y-92079520D01*
X150938893Y-92092132D01*
X150958599Y-92106747D01*
X150976777Y-92123223D01*
X150993253Y-92141401D01*
X151007868Y-92161107D01*
X151020480Y-92182150D01*
X151030970Y-92204329D01*
X151039235Y-92227428D01*
X151045196Y-92251227D01*
X151048796Y-92275495D01*
X151050000Y-92299999D01*
X151050000Y-93200001D01*
X151048796Y-93224505D01*
X151045196Y-93248773D01*
X151039235Y-93272572D01*
X151030970Y-93295671D01*
X151020480Y-93317850D01*
X151007868Y-93338893D01*
X150993253Y-93358599D01*
X150976777Y-93376777D01*
X150958599Y-93393253D01*
X150938893Y-93407868D01*
X150917850Y-93420480D01*
X150895671Y-93430970D01*
X150872572Y-93439235D01*
X150848773Y-93445196D01*
X150824505Y-93448796D01*
X150800001Y-93450000D01*
X150149999Y-93450000D01*
X150125495Y-93448796D01*
X150101227Y-93445196D01*
X150077428Y-93439235D01*
X150054329Y-93430970D01*
X150032150Y-93420480D01*
X150011107Y-93407868D01*
X149991401Y-93393253D01*
X149973223Y-93376777D01*
X149956747Y-93358599D01*
X149942132Y-93338893D01*
X149929520Y-93317850D01*
X149919030Y-93295671D01*
X149910765Y-93272572D01*
X149904804Y-93248773D01*
X149901204Y-93224505D01*
X149900000Y-93200001D01*
X149900000Y-92299999D01*
X149901204Y-92275495D01*
X149904804Y-92251227D01*
X149910765Y-92227428D01*
X149919030Y-92204329D01*
X149929520Y-92182150D01*
X149942132Y-92161107D01*
X149956747Y-92141401D01*
X149973223Y-92123223D01*
X149991401Y-92106747D01*
X150011107Y-92092132D01*
X150032150Y-92079520D01*
X150054329Y-92069030D01*
X150077428Y-92060765D01*
X150101227Y-92054804D01*
X150125495Y-92051204D01*
X150149999Y-92050000D01*
X150800001Y-92050000D01*
X150824505Y-92051204D01*
X150824505Y-92051204D01*
G37*
D19*
G04 #@! TD*
G04 #@! TO.P,D3,1*
G04 #@! TO.N,Net-(D3-Pad1)*
X150475000Y-92750000D03*
D12*
G04 #@! TO.N,Net-(D2-Pad2)*
G04 #@! TO.C,R18*
G36*
X152955142Y-80801174D02*
X152978803Y-80804684D01*
X153002007Y-80810496D01*
X153024529Y-80818554D01*
X153046153Y-80828782D01*
X153066670Y-80841079D01*
X153085883Y-80855329D01*
X153103607Y-80871393D01*
X153119671Y-80889117D01*
X153133921Y-80908330D01*
X153146218Y-80928847D01*
X153156446Y-80950471D01*
X153164504Y-80972993D01*
X153170316Y-80996197D01*
X153173826Y-81019858D01*
X153175000Y-81043750D01*
X153175000Y-81956250D01*
X153173826Y-81980142D01*
X153170316Y-82003803D01*
X153164504Y-82027007D01*
X153156446Y-82049529D01*
X153146218Y-82071153D01*
X153133921Y-82091670D01*
X153119671Y-82110883D01*
X153103607Y-82128607D01*
X153085883Y-82144671D01*
X153066670Y-82158921D01*
X153046153Y-82171218D01*
X153024529Y-82181446D01*
X153002007Y-82189504D01*
X152978803Y-82195316D01*
X152955142Y-82198826D01*
X152931250Y-82200000D01*
X152443750Y-82200000D01*
X152419858Y-82198826D01*
X152396197Y-82195316D01*
X152372993Y-82189504D01*
X152350471Y-82181446D01*
X152328847Y-82171218D01*
X152308330Y-82158921D01*
X152289117Y-82144671D01*
X152271393Y-82128607D01*
X152255329Y-82110883D01*
X152241079Y-82091670D01*
X152228782Y-82071153D01*
X152218554Y-82049529D01*
X152210496Y-82027007D01*
X152204684Y-82003803D01*
X152201174Y-81980142D01*
X152200000Y-81956250D01*
X152200000Y-81043750D01*
X152201174Y-81019858D01*
X152204684Y-80996197D01*
X152210496Y-80972993D01*
X152218554Y-80950471D01*
X152228782Y-80928847D01*
X152241079Y-80908330D01*
X152255329Y-80889117D01*
X152271393Y-80871393D01*
X152289117Y-80855329D01*
X152308330Y-80841079D01*
X152328847Y-80828782D01*
X152350471Y-80818554D01*
X152372993Y-80810496D01*
X152396197Y-80804684D01*
X152419858Y-80801174D01*
X152443750Y-80800000D01*
X152931250Y-80800000D01*
X152955142Y-80801174D01*
X152955142Y-80801174D01*
G37*
D20*
G04 #@! TD*
G04 #@! TO.P,R18,2*
G04 #@! TO.N,Net-(D2-Pad2)*
X152687500Y-81500000D03*
D12*
G04 #@! TO.N,5V*
G04 #@! TO.C,R18*
G36*
X151080142Y-80801174D02*
X151103803Y-80804684D01*
X151127007Y-80810496D01*
X151149529Y-80818554D01*
X151171153Y-80828782D01*
X151191670Y-80841079D01*
X151210883Y-80855329D01*
X151228607Y-80871393D01*
X151244671Y-80889117D01*
X151258921Y-80908330D01*
X151271218Y-80928847D01*
X151281446Y-80950471D01*
X151289504Y-80972993D01*
X151295316Y-80996197D01*
X151298826Y-81019858D01*
X151300000Y-81043750D01*
X151300000Y-81956250D01*
X151298826Y-81980142D01*
X151295316Y-82003803D01*
X151289504Y-82027007D01*
X151281446Y-82049529D01*
X151271218Y-82071153D01*
X151258921Y-82091670D01*
X151244671Y-82110883D01*
X151228607Y-82128607D01*
X151210883Y-82144671D01*
X151191670Y-82158921D01*
X151171153Y-82171218D01*
X151149529Y-82181446D01*
X151127007Y-82189504D01*
X151103803Y-82195316D01*
X151080142Y-82198826D01*
X151056250Y-82200000D01*
X150568750Y-82200000D01*
X150544858Y-82198826D01*
X150521197Y-82195316D01*
X150497993Y-82189504D01*
X150475471Y-82181446D01*
X150453847Y-82171218D01*
X150433330Y-82158921D01*
X150414117Y-82144671D01*
X150396393Y-82128607D01*
X150380329Y-82110883D01*
X150366079Y-82091670D01*
X150353782Y-82071153D01*
X150343554Y-82049529D01*
X150335496Y-82027007D01*
X150329684Y-82003803D01*
X150326174Y-81980142D01*
X150325000Y-81956250D01*
X150325000Y-81043750D01*
X150326174Y-81019858D01*
X150329684Y-80996197D01*
X150335496Y-80972993D01*
X150343554Y-80950471D01*
X150353782Y-80928847D01*
X150366079Y-80908330D01*
X150380329Y-80889117D01*
X150396393Y-80871393D01*
X150414117Y-80855329D01*
X150433330Y-80841079D01*
X150453847Y-80828782D01*
X150475471Y-80818554D01*
X150497993Y-80810496D01*
X150521197Y-80804684D01*
X150544858Y-80801174D01*
X150568750Y-80800000D01*
X151056250Y-80800000D01*
X151080142Y-80801174D01*
X151080142Y-80801174D01*
G37*
D20*
G04 #@! TD*
G04 #@! TO.P,R18,1*
G04 #@! TO.N,5V*
X150812500Y-81500000D03*
D12*
G04 #@! TO.N,5V*
G04 #@! TO.C,R19*
G36*
X150830142Y-88301174D02*
X150853803Y-88304684D01*
X150877007Y-88310496D01*
X150899529Y-88318554D01*
X150921153Y-88328782D01*
X150941670Y-88341079D01*
X150960883Y-88355329D01*
X150978607Y-88371393D01*
X150994671Y-88389117D01*
X151008921Y-88408330D01*
X151021218Y-88428847D01*
X151031446Y-88450471D01*
X151039504Y-88472993D01*
X151045316Y-88496197D01*
X151048826Y-88519858D01*
X151050000Y-88543750D01*
X151050000Y-89456250D01*
X151048826Y-89480142D01*
X151045316Y-89503803D01*
X151039504Y-89527007D01*
X151031446Y-89549529D01*
X151021218Y-89571153D01*
X151008921Y-89591670D01*
X150994671Y-89610883D01*
X150978607Y-89628607D01*
X150960883Y-89644671D01*
X150941670Y-89658921D01*
X150921153Y-89671218D01*
X150899529Y-89681446D01*
X150877007Y-89689504D01*
X150853803Y-89695316D01*
X150830142Y-89698826D01*
X150806250Y-89700000D01*
X150318750Y-89700000D01*
X150294858Y-89698826D01*
X150271197Y-89695316D01*
X150247993Y-89689504D01*
X150225471Y-89681446D01*
X150203847Y-89671218D01*
X150183330Y-89658921D01*
X150164117Y-89644671D01*
X150146393Y-89628607D01*
X150130329Y-89610883D01*
X150116079Y-89591670D01*
X150103782Y-89571153D01*
X150093554Y-89549529D01*
X150085496Y-89527007D01*
X150079684Y-89503803D01*
X150076174Y-89480142D01*
X150075000Y-89456250D01*
X150075000Y-88543750D01*
X150076174Y-88519858D01*
X150079684Y-88496197D01*
X150085496Y-88472993D01*
X150093554Y-88450471D01*
X150103782Y-88428847D01*
X150116079Y-88408330D01*
X150130329Y-88389117D01*
X150146393Y-88371393D01*
X150164117Y-88355329D01*
X150183330Y-88341079D01*
X150203847Y-88328782D01*
X150225471Y-88318554D01*
X150247993Y-88310496D01*
X150271197Y-88304684D01*
X150294858Y-88301174D01*
X150318750Y-88300000D01*
X150806250Y-88300000D01*
X150830142Y-88301174D01*
X150830142Y-88301174D01*
G37*
D20*
G04 #@! TD*
G04 #@! TO.P,R19,1*
G04 #@! TO.N,5V*
X150562500Y-89000000D03*
D12*
G04 #@! TO.N,Net-(D3-Pad2)*
G04 #@! TO.C,R19*
G36*
X152705142Y-88301174D02*
X152728803Y-88304684D01*
X152752007Y-88310496D01*
X152774529Y-88318554D01*
X152796153Y-88328782D01*
X152816670Y-88341079D01*
X152835883Y-88355329D01*
X152853607Y-88371393D01*
X152869671Y-88389117D01*
X152883921Y-88408330D01*
X152896218Y-88428847D01*
X152906446Y-88450471D01*
X152914504Y-88472993D01*
X152920316Y-88496197D01*
X152923826Y-88519858D01*
X152925000Y-88543750D01*
X152925000Y-89456250D01*
X152923826Y-89480142D01*
X152920316Y-89503803D01*
X152914504Y-89527007D01*
X152906446Y-89549529D01*
X152896218Y-89571153D01*
X152883921Y-89591670D01*
X152869671Y-89610883D01*
X152853607Y-89628607D01*
X152835883Y-89644671D01*
X152816670Y-89658921D01*
X152796153Y-89671218D01*
X152774529Y-89681446D01*
X152752007Y-89689504D01*
X152728803Y-89695316D01*
X152705142Y-89698826D01*
X152681250Y-89700000D01*
X152193750Y-89700000D01*
X152169858Y-89698826D01*
X152146197Y-89695316D01*
X152122993Y-89689504D01*
X152100471Y-89681446D01*
X152078847Y-89671218D01*
X152058330Y-89658921D01*
X152039117Y-89644671D01*
X152021393Y-89628607D01*
X152005329Y-89610883D01*
X151991079Y-89591670D01*
X151978782Y-89571153D01*
X151968554Y-89549529D01*
X151960496Y-89527007D01*
X151954684Y-89503803D01*
X151951174Y-89480142D01*
X151950000Y-89456250D01*
X151950000Y-88543750D01*
X151951174Y-88519858D01*
X151954684Y-88496197D01*
X151960496Y-88472993D01*
X151968554Y-88450471D01*
X151978782Y-88428847D01*
X151991079Y-88408330D01*
X152005329Y-88389117D01*
X152021393Y-88371393D01*
X152039117Y-88355329D01*
X152058330Y-88341079D01*
X152078847Y-88328782D01*
X152100471Y-88318554D01*
X152122993Y-88310496D01*
X152146197Y-88304684D01*
X152169858Y-88301174D01*
X152193750Y-88300000D01*
X152681250Y-88300000D01*
X152705142Y-88301174D01*
X152705142Y-88301174D01*
G37*
D20*
G04 #@! TD*
G04 #@! TO.P,R19,2*
G04 #@! TO.N,Net-(D3-Pad2)*
X152437500Y-89000000D03*
D21*
G04 #@! TO.N,4V096*
X162814000Y-100076000D03*
X162052000Y-52070000D03*
X155956000Y-66294000D03*
X165354000Y-48260000D03*
X174498000Y-48260000D03*
G04 #@! TO.N,Net-(R5-Pad2)*
X159258000Y-76708000D03*
X159512000Y-70612000D03*
G04 #@! TO.N,Net-(R12-Pad2)*
X163068000Y-91186000D03*
X172974000Y-99060000D03*
G04 #@! TO.N,Net-(R6-Pad2)*
X160528000Y-76708000D03*
X160528000Y-70612000D03*
G04 #@! TO.N,Net-(R14-Pad2)*
X172720000Y-94742000D03*
X172720000Y-89154000D03*
G04 #@! TO.N,Net-(R7-Pad2)*
X166624000Y-72390000D03*
X167132000Y-76708000D03*
X167386000Y-80772000D03*
X163322000Y-96774000D03*
G04 #@! TO.N,Net-(R16-Pad2)*
X161544000Y-53848000D03*
X168598315Y-61468000D03*
G04 #@! TO.N,Net-(R8-Pad2)*
X156972000Y-49784000D03*
X166878000Y-70612000D03*
G04 #@! TO.N,Net-(R9-Pad1)*
X171450000Y-60706000D03*
X170688000Y-69596000D03*
G04 #@! TO.N,Net-(R10-Pad1)*
X171450000Y-53086000D03*
X176276000Y-58928000D03*
G04 #@! TO.N,Net-(R10-Pad2)*
X171958000Y-70358000D03*
X170688000Y-49530000D03*
G04 #@! TO.N,5V*
X168910000Y-108458000D03*
X148082000Y-88392000D03*
X147828000Y-81280000D03*
X175006000Y-73914000D03*
X153670000Y-67310000D03*
X155956000Y-75438000D03*
X156972000Y-55626000D03*
X159258000Y-61976000D03*
X155448000Y-63246000D03*
X154178000Y-62484000D03*
X156210000Y-64262000D03*
X147320000Y-103632000D03*
G04 #@! TO.N,GND*
X169164000Y-77724000D03*
X169164000Y-75438000D03*
X170942000Y-75438000D03*
X169926000Y-73914000D03*
X167616000Y-93750000D03*
X160782000Y-85852000D03*
X166498000Y-55500000D03*
X147828000Y-72644000D03*
X145034000Y-71882000D03*
X147828000Y-68834000D03*
X161681000Y-72644000D03*
X189992000Y-96774000D03*
X189992000Y-89662000D03*
X189992000Y-82804000D03*
X189934000Y-75750000D03*
X189992000Y-68834000D03*
X189992000Y-61722000D03*
X189992000Y-54864000D03*
X150876000Y-70612000D03*
X164846000Y-64008000D03*
X154178000Y-101954000D03*
G04 #@! TO.N,MISO_0*
X163195000Y-79756000D03*
G04 #@! TO.N,MOSI_0*
X164592000Y-80772000D03*
X151638000Y-79640000D03*
X162555347Y-81792653D03*
G04 #@! TO.N,SCLK0*
X161798000Y-78740000D03*
G04 #@! TO.N,CE0*
X165862000Y-80772000D03*
G04 #@! TO.N,Net-(D2-Pad1)*
X148496000Y-85250000D03*
G04 #@! TD*
D22*
G04 #@! TO.N,4V096*
X177440000Y-105750000D02*
X181610000Y-101580000D01*
X181610000Y-101580000D02*
X181610000Y-100330000D01*
X173990000Y-105750000D02*
X177440000Y-105750000D01*
X181610000Y-94580000D02*
X181610000Y-93330000D01*
X183235010Y-96205010D02*
X181610000Y-94580000D01*
X183235010Y-99004990D02*
X183235010Y-96205010D01*
X181910000Y-100330000D02*
X183235010Y-99004990D01*
X181610000Y-100330000D02*
X181910000Y-100330000D01*
X181610000Y-87580000D02*
X181610000Y-86330000D01*
X179984990Y-89205010D02*
X181610000Y-87580000D01*
X179984990Y-90454990D02*
X179984990Y-89205010D01*
X181610000Y-92080000D02*
X179984990Y-90454990D01*
X181610000Y-93330000D02*
X181610000Y-92080000D01*
X181610000Y-80580000D02*
X181610000Y-79330000D01*
X183235010Y-82205010D02*
X181610000Y-80580000D01*
X183235010Y-85004990D02*
X183235010Y-82205010D01*
X181910000Y-86330000D02*
X183235010Y-85004990D01*
X181610000Y-86330000D02*
X181910000Y-86330000D01*
X181610000Y-73580000D02*
X181610000Y-72330000D01*
X179984990Y-75205010D02*
X181610000Y-73580000D01*
X179984990Y-76454990D02*
X179984990Y-75205010D01*
X181610000Y-78080000D02*
X179984990Y-76454990D01*
X181610000Y-79330000D02*
X181610000Y-78080000D01*
X181610000Y-66580000D02*
X181610000Y-65330000D01*
X183235010Y-68205010D02*
X181610000Y-66580000D01*
X183235010Y-69454990D02*
X183235010Y-68205010D01*
X181610000Y-71080000D02*
X183235010Y-69454990D01*
X181610000Y-72330000D02*
X181610000Y-71080000D01*
X181610000Y-59580000D02*
X181610000Y-58330000D01*
X179984990Y-62454990D02*
X179984990Y-61205010D01*
X179984990Y-61205010D02*
X181610000Y-59580000D01*
X181610000Y-64080000D02*
X179984990Y-62454990D01*
X181610000Y-65330000D02*
X181610000Y-64080000D01*
X173990000Y-104250000D02*
X169816000Y-100076000D01*
X173990000Y-105750000D02*
X173990000Y-104250000D01*
X169816000Y-100076000D02*
X162814000Y-100076000D01*
X181610000Y-57080000D02*
X180664000Y-56134000D01*
X181610000Y-58330000D02*
X181610000Y-57080000D01*
X180664000Y-56134000D02*
X178308000Y-56134000D01*
X178308000Y-56134000D02*
X177292000Y-55118000D01*
X177292000Y-55118000D02*
X177292000Y-51054000D01*
X177292000Y-51054000D02*
X174498000Y-48260000D01*
X164084000Y-48260000D02*
X163322000Y-48260000D01*
X163322000Y-48260000D02*
X162052000Y-49530000D01*
X162052000Y-49530000D02*
X162052000Y-52070000D01*
X150368000Y-49530000D02*
X151638000Y-48260000D01*
X155956000Y-66294000D02*
X150368000Y-60706000D01*
X151638000Y-48260000D02*
X163322000Y-48260000D01*
X150368000Y-60706000D02*
X150368000Y-49530000D01*
X165354000Y-48260000D02*
X164084000Y-48260000D01*
G04 #@! TO.N,Net-(R5-Pad2)*
X159512000Y-76454000D02*
X159258000Y-76708000D01*
X159512000Y-70612000D02*
X159512000Y-76454000D01*
G04 #@! TO.N,Net-(R12-Pad2)*
X166878000Y-94996000D02*
X163068000Y-91186000D01*
X166878000Y-94996000D02*
X166878000Y-99060000D01*
X166878000Y-99060000D02*
X167386000Y-99568000D01*
X167386000Y-99568000D02*
X171196000Y-99568000D01*
X171196000Y-99568000D02*
X172466000Y-99568000D01*
X172466000Y-99568000D02*
X172974000Y-99060000D01*
G04 #@! TO.N,Net-(R6-Pad2)*
X160528000Y-76708000D02*
X160528000Y-70612000D01*
G04 #@! TO.N,Net-(R14-Pad2)*
X172720000Y-89719685D02*
X172720000Y-94742000D01*
X172720000Y-89154000D02*
X172720000Y-89719685D01*
G04 #@! TO.N,Net-(R7-Pad2)*
X166624000Y-72390000D02*
X166624000Y-76200000D01*
X166624000Y-76200000D02*
X167132000Y-76708000D01*
X164084000Y-87630000D02*
X165100000Y-87630000D01*
X165100000Y-87630000D02*
X167386000Y-85344000D01*
X162052000Y-89662000D02*
X164084000Y-87630000D01*
X163322000Y-96774000D02*
X162052000Y-95504000D01*
X167386000Y-85344000D02*
X167386000Y-80772000D01*
X162052000Y-95504000D02*
X162052000Y-89662000D01*
G04 #@! TO.N,Net-(R16-Pad2)*
X161544000Y-54413685D02*
X168598315Y-61468000D01*
X161544000Y-53848000D02*
X161544000Y-54413685D01*
G04 #@! TO.N,Net-(R8-Pad2)*
X156972000Y-49784000D02*
X156972000Y-53594000D01*
X156972000Y-53594000D02*
X166878000Y-63500000D01*
X166878000Y-63500000D02*
X166878000Y-70612000D01*
G04 #@! TO.N,Net-(R9-Pad1)*
X171450000Y-60706000D02*
X171450000Y-68834000D01*
X171450000Y-68834000D02*
X170688000Y-69596000D01*
G04 #@! TO.N,Net-(R10-Pad1)*
X176784000Y-58420000D02*
X176276000Y-58928000D01*
X176784000Y-53086000D02*
X176784000Y-58420000D01*
X176384001Y-52686001D02*
X176784000Y-53086000D01*
X171450000Y-53086000D02*
X171849999Y-52686001D01*
X171849999Y-52686001D02*
X176384001Y-52686001D01*
G04 #@! TO.N,Net-(R10-Pad2)*
X172466000Y-69850000D02*
X171958000Y-70358000D01*
X172466000Y-59944000D02*
X172466000Y-69850000D01*
X170688000Y-49530000D02*
X170688000Y-58166000D01*
X170688000Y-58166000D02*
X172466000Y-59944000D01*
G04 #@! TO.N,5V*
X168910000Y-105750000D02*
X168910000Y-108458000D01*
X150562500Y-89000000D02*
X148690000Y-89000000D01*
X148690000Y-89000000D02*
X148082000Y-88392000D01*
X150812500Y-81500000D02*
X148048000Y-81500000D01*
X148048000Y-81500000D02*
X147828000Y-81280000D01*
X173915000Y-76800000D02*
X174320000Y-76800000D01*
X175006000Y-73914000D02*
X173253500Y-73914000D01*
X175006000Y-75169000D02*
X175006000Y-73914000D01*
X173915000Y-76800000D02*
X173915000Y-76260000D01*
X173915000Y-76260000D02*
X175006000Y-75169000D01*
X159258000Y-61976000D02*
X156718000Y-61976000D01*
X156718000Y-61976000D02*
X155448000Y-63246000D01*
X155448000Y-63246000D02*
X154940000Y-63246000D01*
X154940000Y-63246000D02*
X154178000Y-62484000D01*
G04 #@! TO.N,GND*
X171559000Y-77724000D02*
X171585000Y-77750000D01*
X169164000Y-77724000D02*
X171559000Y-77724000D01*
X170942000Y-74650500D02*
X171678500Y-73914000D01*
X170942000Y-75438000D02*
X170942000Y-74650500D01*
X169164000Y-75438000D02*
X169164000Y-74676000D01*
X169164000Y-74676000D02*
X169926000Y-73914000D01*
G04 #@! TO.N,MISO_0*
X163195000Y-79756000D02*
X173482000Y-79756000D01*
X173915000Y-79323000D02*
X173915000Y-78700000D01*
X173482000Y-79756000D02*
X173915000Y-79323000D01*
G04 #@! TO.N,MOSI_0*
X162555347Y-81792653D02*
X160020000Y-79257306D01*
X154187306Y-79257306D02*
X154178000Y-79248000D01*
X160020000Y-79257306D02*
X154187306Y-79257306D01*
X154187306Y-79257306D02*
X153171306Y-79257306D01*
X152788612Y-79640000D02*
X151638000Y-79640000D01*
X153171306Y-79257306D02*
X152788612Y-79640000D01*
G04 #@! TO.N,SCLK0*
X161838000Y-78700000D02*
X161798000Y-78740000D01*
X171585000Y-78700000D02*
X161838000Y-78700000D01*
X142500000Y-74560000D02*
X151268000Y-74560000D01*
X151268000Y-74560000D02*
X154940000Y-78232000D01*
X161290000Y-78232000D02*
X161798000Y-78740000D01*
X154940000Y-78232000D02*
X161290000Y-78232000D01*
G04 #@! TO.N,CE0*
X144228999Y-75735001D02*
X144953990Y-75010010D01*
X139960000Y-74560000D02*
X141135001Y-75735001D01*
X141135001Y-75735001D02*
X144228999Y-75735001D01*
X144953990Y-75010010D02*
X150956010Y-75010010D01*
X154628010Y-78682010D02*
X154753600Y-78682010D01*
X150956010Y-75010010D02*
X154628010Y-78682010D01*
X154753600Y-78682010D02*
X160470010Y-78682010D01*
X160470010Y-78682010D02*
X163830000Y-82042000D01*
X163830000Y-82042000D02*
X164649002Y-82042000D01*
X164649002Y-82042000D02*
X165100000Y-82042000D01*
X165100000Y-82042000D02*
X165862000Y-81280000D01*
X165862000Y-81280000D02*
X165862000Y-80772000D01*
G04 #@! TO.N,CE1*
X140809999Y-71170001D02*
X139960000Y-72020000D01*
X171585000Y-76800000D02*
X168564000Y-76800000D01*
X168564000Y-76800000D02*
X167640000Y-77724000D01*
X141135001Y-70844999D02*
X140809999Y-71170001D01*
X167640000Y-77724000D02*
X155194000Y-77724000D01*
X155194000Y-77724000D02*
X148314999Y-70844999D01*
X148314999Y-70844999D02*
X141135001Y-70844999D01*
G04 #@! TO.N,Net-(D2-Pad1)*
X143030000Y-85250000D02*
X142500000Y-84720000D01*
X150475000Y-85250000D02*
X148496000Y-85250000D01*
G04 #@! TO.N,Net-(D2-Pad2)*
X152525000Y-81662500D02*
X152687500Y-81500000D01*
X152525000Y-85250000D02*
X152525000Y-81662500D01*
G04 #@! TO.N,Net-(D3-Pad2)*
X152525000Y-89087500D02*
X152437500Y-89000000D01*
X152525000Y-92750000D02*
X152525000Y-89087500D01*
G04 #@! TO.N,Net-(D3-Pad1)*
X150475000Y-92750000D02*
X148376000Y-92750000D01*
X145426000Y-89800000D02*
X142500000Y-89800000D01*
X148376000Y-92750000D02*
X145426000Y-89800000D01*
G04 #@! TD*
D23*
G04 #@! TO.N,GND*
G36*
X186918396Y-47190938D02*
X186365000Y-48526954D01*
X186365000Y-49973046D01*
X186918396Y-51309062D01*
X187940938Y-52331604D01*
X189276954Y-52885000D01*
X190723046Y-52885000D01*
X192059062Y-52331604D01*
X192790000Y-51600666D01*
X192790001Y-104899335D01*
X192059062Y-104168396D01*
X190723046Y-103615000D01*
X189276954Y-103615000D01*
X187940938Y-104168396D01*
X186918396Y-105190938D01*
X186365000Y-106526954D01*
X186365000Y-107973046D01*
X186918396Y-109309062D01*
X187649334Y-110040000D01*
X143350666Y-110040000D01*
X144081604Y-109309062D01*
X144635000Y-107973046D01*
X144635000Y-106526954D01*
X144431537Y-106035750D01*
X161945000Y-106035750D01*
X161945000Y-107126310D01*
X162041673Y-107359699D01*
X162220302Y-107538327D01*
X162453691Y-107635000D01*
X163544250Y-107635000D01*
X163703000Y-107476250D01*
X163703000Y-105877000D01*
X163957000Y-105877000D01*
X163957000Y-107476250D01*
X164115750Y-107635000D01*
X165206309Y-107635000D01*
X165439698Y-107538327D01*
X165618327Y-107359699D01*
X165715000Y-107126310D01*
X165715000Y-106035750D01*
X165556250Y-105877000D01*
X163957000Y-105877000D01*
X163703000Y-105877000D01*
X162103750Y-105877000D01*
X161945000Y-106035750D01*
X144431537Y-106035750D01*
X144081604Y-105190938D01*
X143059062Y-104168396D01*
X142646338Y-103997440D01*
X143350000Y-103997440D01*
X143597765Y-103948157D01*
X143807809Y-103807809D01*
X143948157Y-103597765D01*
X143982297Y-103426126D01*
X146285000Y-103426126D01*
X146285000Y-103837874D01*
X146442569Y-104218280D01*
X146733720Y-104509431D01*
X147114126Y-104667000D01*
X147525874Y-104667000D01*
X147906280Y-104509431D01*
X148042021Y-104373690D01*
X161945000Y-104373690D01*
X161945000Y-105464250D01*
X162103750Y-105623000D01*
X163703000Y-105623000D01*
X163703000Y-104023750D01*
X163957000Y-104023750D01*
X163957000Y-105623000D01*
X165556250Y-105623000D01*
X165715000Y-105464250D01*
X165715000Y-104500000D01*
X167012560Y-104500000D01*
X167012560Y-107000000D01*
X167061843Y-107247765D01*
X167202191Y-107457809D01*
X167412235Y-107598157D01*
X167660000Y-107647440D01*
X168150001Y-107647440D01*
X168150001Y-107754288D01*
X168032569Y-107871720D01*
X167875000Y-108252126D01*
X167875000Y-108663874D01*
X168032569Y-109044280D01*
X168323720Y-109335431D01*
X168704126Y-109493000D01*
X169115874Y-109493000D01*
X169496280Y-109335431D01*
X169787431Y-109044280D01*
X169945000Y-108663874D01*
X169945000Y-108252126D01*
X169787431Y-107871720D01*
X169670000Y-107754289D01*
X169670000Y-107647440D01*
X170160000Y-107647440D01*
X170407765Y-107598157D01*
X170617809Y-107457809D01*
X170758157Y-107247765D01*
X170807440Y-107000000D01*
X170807440Y-104500000D01*
X170758157Y-104252235D01*
X170617809Y-104042191D01*
X170407765Y-103901843D01*
X170160000Y-103852560D01*
X167660000Y-103852560D01*
X167412235Y-103901843D01*
X167202191Y-104042191D01*
X167061843Y-104252235D01*
X167012560Y-104500000D01*
X165715000Y-104500000D01*
X165715000Y-104373690D01*
X165618327Y-104140301D01*
X165439698Y-103961673D01*
X165206309Y-103865000D01*
X164115750Y-103865000D01*
X163957000Y-104023750D01*
X163703000Y-104023750D01*
X163544250Y-103865000D01*
X162453691Y-103865000D01*
X162220302Y-103961673D01*
X162041673Y-104140301D01*
X161945000Y-104373690D01*
X148042021Y-104373690D01*
X148197431Y-104218280D01*
X148355000Y-103837874D01*
X148355000Y-103426126D01*
X148197431Y-103045720D01*
X147906280Y-102754569D01*
X147525874Y-102597000D01*
X147114126Y-102597000D01*
X146733720Y-102754569D01*
X146442569Y-103045720D01*
X146285000Y-103426126D01*
X143982297Y-103426126D01*
X143997440Y-103350000D01*
X143997440Y-101650000D01*
X143948157Y-101402235D01*
X143807809Y-101192191D01*
X143597765Y-101051843D01*
X143552381Y-101042816D01*
X143570625Y-101030625D01*
X143898839Y-100539418D01*
X144014092Y-99960000D01*
X143898839Y-99380582D01*
X143570625Y-98889375D01*
X143272239Y-98690000D01*
X143570625Y-98490625D01*
X143898839Y-97999418D01*
X144014092Y-97420000D01*
X143898839Y-96840582D01*
X143570625Y-96349375D01*
X143272239Y-96150000D01*
X143570625Y-95950625D01*
X143898839Y-95459418D01*
X144014092Y-94880000D01*
X143898839Y-94300582D01*
X143570625Y-93809375D01*
X143272239Y-93610000D01*
X143570625Y-93410625D01*
X143898839Y-92919418D01*
X144014092Y-92340000D01*
X143898839Y-91760582D01*
X143570625Y-91269375D01*
X143272239Y-91070000D01*
X143570625Y-90870625D01*
X143778178Y-90560000D01*
X145111199Y-90560000D01*
X147785671Y-93234473D01*
X147828071Y-93297929D01*
X148079463Y-93465904D01*
X148301148Y-93510000D01*
X148301152Y-93510000D01*
X148375999Y-93524888D01*
X148450846Y-93510000D01*
X149314222Y-93510000D01*
X149320873Y-93543436D01*
X149515414Y-93834586D01*
X149806564Y-94029127D01*
X150149999Y-94097440D01*
X150800001Y-94097440D01*
X151143436Y-94029127D01*
X151434586Y-93834586D01*
X151500000Y-93736687D01*
X151565414Y-93834586D01*
X151856564Y-94029127D01*
X152199999Y-94097440D01*
X152850001Y-94097440D01*
X153193436Y-94029127D01*
X153484586Y-93834586D01*
X153679127Y-93543436D01*
X153747440Y-93200001D01*
X153747440Y-92299999D01*
X153679127Y-91956564D01*
X153484586Y-91665414D01*
X153285000Y-91532054D01*
X153285000Y-90104067D01*
X153311416Y-90086416D01*
X153504602Y-89797294D01*
X153572440Y-89456250D01*
X153572440Y-88543750D01*
X153504602Y-88202706D01*
X153311416Y-87913584D01*
X153022294Y-87720398D01*
X152681250Y-87652560D01*
X152193750Y-87652560D01*
X151852706Y-87720398D01*
X151563584Y-87913584D01*
X151500000Y-88008744D01*
X151436416Y-87913584D01*
X151147294Y-87720398D01*
X150806250Y-87652560D01*
X150318750Y-87652560D01*
X149977706Y-87720398D01*
X149688584Y-87913584D01*
X149495398Y-88202706D01*
X149487980Y-88240000D01*
X149117000Y-88240000D01*
X149117000Y-88186126D01*
X148959431Y-87805720D01*
X148668280Y-87514569D01*
X148287874Y-87357000D01*
X147876126Y-87357000D01*
X147495720Y-87514569D01*
X147204569Y-87805720D01*
X147047000Y-88186126D01*
X147047000Y-88597874D01*
X147204569Y-88978280D01*
X147495720Y-89269431D01*
X147876126Y-89427000D01*
X148042198Y-89427000D01*
X148099670Y-89484472D01*
X148142071Y-89547929D01*
X148205527Y-89590329D01*
X148393462Y-89715904D01*
X148441605Y-89725480D01*
X148615148Y-89760000D01*
X148615152Y-89760000D01*
X148690000Y-89774888D01*
X148764848Y-89760000D01*
X149487980Y-89760000D01*
X149495398Y-89797294D01*
X149688584Y-90086416D01*
X149977706Y-90279602D01*
X150318750Y-90347440D01*
X150806250Y-90347440D01*
X151147294Y-90279602D01*
X151436416Y-90086416D01*
X151500000Y-89991256D01*
X151563584Y-90086416D01*
X151765001Y-90220999D01*
X151765000Y-91532054D01*
X151565414Y-91665414D01*
X151500000Y-91763313D01*
X151434586Y-91665414D01*
X151143436Y-91470873D01*
X150800001Y-91402560D01*
X150149999Y-91402560D01*
X149806564Y-91470873D01*
X149515414Y-91665414D01*
X149320873Y-91956564D01*
X149314222Y-91990000D01*
X148690802Y-91990000D01*
X146016331Y-89315530D01*
X145973929Y-89252071D01*
X145722537Y-89084096D01*
X145500852Y-89040000D01*
X145500847Y-89040000D01*
X145426000Y-89025112D01*
X145351153Y-89040000D01*
X143778178Y-89040000D01*
X143570625Y-88729375D01*
X143272239Y-88530000D01*
X143570625Y-88330625D01*
X143898839Y-87839418D01*
X144014092Y-87260000D01*
X143898839Y-86680582D01*
X143570625Y-86189375D01*
X143272239Y-85990000D01*
X143300574Y-85971067D01*
X143326537Y-85965903D01*
X143577929Y-85797929D01*
X143745903Y-85546537D01*
X143751067Y-85520574D01*
X143898839Y-85299418D01*
X144014092Y-84720000D01*
X143898839Y-84140582D01*
X143570625Y-83649375D01*
X143272239Y-83450000D01*
X143570625Y-83250625D01*
X143898839Y-82759418D01*
X144014092Y-82180000D01*
X143898839Y-81600582D01*
X143570625Y-81109375D01*
X143272239Y-80910000D01*
X143570625Y-80710625D01*
X143898839Y-80219418D01*
X144014092Y-79640000D01*
X143898839Y-79060582D01*
X143570625Y-78569375D01*
X143272239Y-78370000D01*
X143570625Y-78170625D01*
X143898839Y-77679418D01*
X144014092Y-77100000D01*
X143898839Y-76520582D01*
X143881746Y-76495001D01*
X144154152Y-76495001D01*
X144228999Y-76509889D01*
X144303846Y-76495001D01*
X144303851Y-76495001D01*
X144525536Y-76450905D01*
X144776928Y-76282930D01*
X144819330Y-76219471D01*
X145268792Y-75770010D01*
X150641209Y-75770010D01*
X153368504Y-78497306D01*
X153246152Y-78497306D01*
X153171305Y-78482418D01*
X153096458Y-78497306D01*
X153096454Y-78497306D01*
X152874769Y-78541402D01*
X152623377Y-78709377D01*
X152580975Y-78772836D01*
X152473811Y-78880000D01*
X152341711Y-78880000D01*
X152224280Y-78762569D01*
X151843874Y-78605000D01*
X151432126Y-78605000D01*
X151051720Y-78762569D01*
X150760569Y-79053720D01*
X150603000Y-79434126D01*
X150603000Y-79845874D01*
X150730033Y-80152560D01*
X150568750Y-80152560D01*
X150227706Y-80220398D01*
X149938584Y-80413584D01*
X149745398Y-80702706D01*
X149737980Y-80740000D01*
X148724601Y-80740000D01*
X148705431Y-80693720D01*
X148414280Y-80402569D01*
X148033874Y-80245000D01*
X147622126Y-80245000D01*
X147241720Y-80402569D01*
X146950569Y-80693720D01*
X146793000Y-81074126D01*
X146793000Y-81485874D01*
X146950569Y-81866280D01*
X147241720Y-82157431D01*
X147622126Y-82315000D01*
X148033874Y-82315000D01*
X148166656Y-82260000D01*
X149737980Y-82260000D01*
X149745398Y-82297294D01*
X149938584Y-82586416D01*
X150227706Y-82779602D01*
X150568750Y-82847440D01*
X151056250Y-82847440D01*
X151397294Y-82779602D01*
X151686416Y-82586416D01*
X151750000Y-82491256D01*
X151765001Y-82513706D01*
X151765000Y-84032054D01*
X151565414Y-84165414D01*
X151500000Y-84263313D01*
X151434586Y-84165414D01*
X151143436Y-83970873D01*
X150800001Y-83902560D01*
X150149999Y-83902560D01*
X149806564Y-83970873D01*
X149515414Y-84165414D01*
X149320873Y-84456564D01*
X149314222Y-84490000D01*
X149199711Y-84490000D01*
X149082280Y-84372569D01*
X148701874Y-84215000D01*
X148290126Y-84215000D01*
X147909720Y-84372569D01*
X147618569Y-84663720D01*
X147461000Y-85044126D01*
X147461000Y-85455874D01*
X147618569Y-85836280D01*
X147909720Y-86127431D01*
X148290126Y-86285000D01*
X148701874Y-86285000D01*
X149082280Y-86127431D01*
X149199711Y-86010000D01*
X149314222Y-86010000D01*
X149320873Y-86043436D01*
X149515414Y-86334586D01*
X149806564Y-86529127D01*
X150149999Y-86597440D01*
X150800001Y-86597440D01*
X151143436Y-86529127D01*
X151434586Y-86334586D01*
X151500000Y-86236687D01*
X151565414Y-86334586D01*
X151856564Y-86529127D01*
X152199999Y-86597440D01*
X152850001Y-86597440D01*
X153193436Y-86529127D01*
X153484586Y-86334586D01*
X153679127Y-86043436D01*
X153747440Y-85700001D01*
X153747440Y-84799999D01*
X153679127Y-84456564D01*
X153484586Y-84165414D01*
X153285000Y-84032054D01*
X153285000Y-82771112D01*
X153561416Y-82586416D01*
X153754602Y-82297294D01*
X153822440Y-81956250D01*
X153822440Y-81043750D01*
X153754602Y-80702706D01*
X153561416Y-80413584D01*
X153280121Y-80225628D01*
X153336541Y-80187929D01*
X153378943Y-80124470D01*
X153486107Y-80017306D01*
X154112458Y-80017306D01*
X154187306Y-80032194D01*
X154262154Y-80017306D01*
X159705199Y-80017306D01*
X161520347Y-81832455D01*
X161520347Y-81998527D01*
X161677916Y-82378933D01*
X161969067Y-82670084D01*
X162349473Y-82827653D01*
X162761221Y-82827653D01*
X163141627Y-82670084D01*
X163257923Y-82553788D01*
X163282071Y-82589929D01*
X163345524Y-82632327D01*
X163345526Y-82632329D01*
X163402031Y-82670084D01*
X163533463Y-82757904D01*
X163755148Y-82802000D01*
X163755152Y-82802000D01*
X163829999Y-82816888D01*
X163904846Y-82802000D01*
X165025153Y-82802000D01*
X165100000Y-82816888D01*
X165174847Y-82802000D01*
X165174852Y-82802000D01*
X165396537Y-82757904D01*
X165647929Y-82589929D01*
X165690331Y-82526470D01*
X166346473Y-81870329D01*
X166409929Y-81827929D01*
X166481686Y-81720537D01*
X166577904Y-81576538D01*
X166591990Y-81505721D01*
X166624000Y-81473711D01*
X166626001Y-81475712D01*
X166626000Y-85029198D01*
X164785199Y-86870000D01*
X164158847Y-86870000D01*
X164084000Y-86855112D01*
X164009153Y-86870000D01*
X164009148Y-86870000D01*
X163787463Y-86914096D01*
X163536071Y-87082071D01*
X163493671Y-87145527D01*
X161567528Y-89071671D01*
X161504072Y-89114071D01*
X161461672Y-89177527D01*
X161461671Y-89177528D01*
X161382152Y-89296537D01*
X161336097Y-89365463D01*
X161323857Y-89427000D01*
X161277112Y-89662000D01*
X161292001Y-89736852D01*
X161292000Y-95429153D01*
X161277112Y-95504000D01*
X161292000Y-95578847D01*
X161292000Y-95578851D01*
X161336096Y-95800536D01*
X161504071Y-96051929D01*
X161567530Y-96094331D01*
X162287000Y-96813802D01*
X162287000Y-96979874D01*
X162444569Y-97360280D01*
X162735720Y-97651431D01*
X163116126Y-97809000D01*
X163527874Y-97809000D01*
X163908280Y-97651431D01*
X164199431Y-97360280D01*
X164357000Y-96979874D01*
X164357000Y-96568126D01*
X164199431Y-96187720D01*
X163908280Y-95896569D01*
X163527874Y-95739000D01*
X163361802Y-95739000D01*
X162812000Y-95189199D01*
X162812000Y-92200237D01*
X162862126Y-92221000D01*
X163028199Y-92221000D01*
X166118000Y-95310802D01*
X166118001Y-98985148D01*
X166103112Y-99060000D01*
X166154034Y-99316000D01*
X163517711Y-99316000D01*
X163400280Y-99198569D01*
X163019874Y-99041000D01*
X162608126Y-99041000D01*
X162227720Y-99198569D01*
X161936569Y-99489720D01*
X161779000Y-99870126D01*
X161779000Y-100281874D01*
X161936569Y-100662280D01*
X162227720Y-100953431D01*
X162608126Y-101111000D01*
X163019874Y-101111000D01*
X163400280Y-100953431D01*
X163517711Y-100836000D01*
X169501199Y-100836000D01*
X172554630Y-103889432D01*
X172492235Y-103901843D01*
X172282191Y-104042191D01*
X172141843Y-104252235D01*
X172092560Y-104500000D01*
X172092560Y-107000000D01*
X172141843Y-107247765D01*
X172282191Y-107457809D01*
X172492235Y-107598157D01*
X172740000Y-107647440D01*
X175240000Y-107647440D01*
X175487765Y-107598157D01*
X175697809Y-107457809D01*
X175838157Y-107247765D01*
X175887440Y-107000000D01*
X175887440Y-106510000D01*
X177365153Y-106510000D01*
X177440000Y-106524888D01*
X177514847Y-106510000D01*
X177514852Y-106510000D01*
X177736537Y-106465904D01*
X177987929Y-106297929D01*
X178030331Y-106234470D01*
X182094473Y-102170329D01*
X182157929Y-102127929D01*
X182258483Y-101977440D01*
X182910000Y-101977440D01*
X183157765Y-101928157D01*
X183367809Y-101787809D01*
X183508157Y-101577765D01*
X183557440Y-101330000D01*
X183557440Y-99757362D01*
X183719483Y-99595319D01*
X183782939Y-99552919D01*
X183950914Y-99301527D01*
X183995010Y-99079842D01*
X183995010Y-99079838D01*
X184009898Y-99004991D01*
X183995010Y-98930144D01*
X183995010Y-96279856D01*
X184009898Y-96205009D01*
X183995010Y-96130162D01*
X183995010Y-96130158D01*
X183950914Y-95908473D01*
X183782939Y-95657081D01*
X183719483Y-95614681D01*
X182803908Y-94699107D01*
X183088769Y-94508769D01*
X183450136Y-93967945D01*
X183577031Y-93330000D01*
X183450136Y-92692055D01*
X183088769Y-92151231D01*
X182547945Y-91789864D01*
X182296802Y-91739909D01*
X182157929Y-91532071D01*
X182094473Y-91489671D01*
X182069802Y-91465000D01*
X182071031Y-91465000D01*
X182547945Y-91370136D01*
X183088769Y-91008769D01*
X183450136Y-90467945D01*
X183577031Y-89830000D01*
X183450136Y-89192055D01*
X183088769Y-88651231D01*
X182547945Y-88289864D01*
X182071031Y-88195000D01*
X182069802Y-88195000D01*
X182094473Y-88170329D01*
X182157929Y-88127929D01*
X182296802Y-87920091D01*
X182547945Y-87870136D01*
X183088769Y-87508769D01*
X183450136Y-86967945D01*
X183577031Y-86330000D01*
X183478774Y-85836028D01*
X183719483Y-85595319D01*
X183782939Y-85552919D01*
X183950914Y-85301527D01*
X183995010Y-85079842D01*
X183995010Y-85079838D01*
X184009898Y-85004991D01*
X183995010Y-84930144D01*
X183995010Y-82279856D01*
X184009898Y-82205009D01*
X183995010Y-82130162D01*
X183995010Y-82130158D01*
X183950914Y-81908473D01*
X183782939Y-81657081D01*
X183719483Y-81614681D01*
X182803908Y-80699107D01*
X183088769Y-80508769D01*
X183450136Y-79967945D01*
X183577031Y-79330000D01*
X183450136Y-78692055D01*
X183088769Y-78151231D01*
X182547945Y-77789864D01*
X182296802Y-77739909D01*
X182157929Y-77532071D01*
X182094473Y-77489671D01*
X182069802Y-77465000D01*
X182071031Y-77465000D01*
X182547945Y-77370136D01*
X183088769Y-77008769D01*
X183450136Y-76467945D01*
X183577031Y-75830000D01*
X183450136Y-75192055D01*
X183088769Y-74651231D01*
X182547945Y-74289864D01*
X182071031Y-74195000D01*
X182069802Y-74195000D01*
X182094473Y-74170329D01*
X182157929Y-74127929D01*
X182296802Y-73920091D01*
X182547945Y-73870136D01*
X183088769Y-73508769D01*
X183450136Y-72967945D01*
X183577031Y-72330000D01*
X183450136Y-71692055D01*
X183088769Y-71151231D01*
X182803908Y-70960893D01*
X183719483Y-70045319D01*
X183782939Y-70002919D01*
X183950914Y-69751527D01*
X183995010Y-69529842D01*
X183995010Y-69529838D01*
X184009898Y-69454991D01*
X183995010Y-69380144D01*
X183995010Y-68279856D01*
X184009898Y-68205009D01*
X183995010Y-68130162D01*
X183995010Y-68130158D01*
X183950914Y-67908473D01*
X183782939Y-67657081D01*
X183719483Y-67614681D01*
X182803908Y-66699107D01*
X183088769Y-66508769D01*
X183450136Y-65967945D01*
X183577031Y-65330000D01*
X183450136Y-64692055D01*
X183088769Y-64151231D01*
X182547945Y-63789864D01*
X182296802Y-63739909D01*
X182157929Y-63532071D01*
X182094473Y-63489671D01*
X182069802Y-63465000D01*
X182071031Y-63465000D01*
X182547945Y-63370136D01*
X183088769Y-63008769D01*
X183450136Y-62467945D01*
X183577031Y-61830000D01*
X183450136Y-61192055D01*
X183088769Y-60651231D01*
X182547945Y-60289864D01*
X182071031Y-60195000D01*
X182069802Y-60195000D01*
X182094473Y-60170329D01*
X182157929Y-60127929D01*
X182296802Y-59920091D01*
X182547945Y-59870136D01*
X183088769Y-59508769D01*
X183450136Y-58967945D01*
X183577031Y-58330000D01*
X183450136Y-57692055D01*
X183088769Y-57151231D01*
X182547945Y-56789864D01*
X182296802Y-56739909D01*
X182157929Y-56532071D01*
X182094473Y-56489671D01*
X182069802Y-56465000D01*
X182071031Y-56465000D01*
X182547945Y-56370136D01*
X183088769Y-56008769D01*
X183450136Y-55467945D01*
X183577031Y-54830000D01*
X183450136Y-54192055D01*
X183088769Y-53651231D01*
X182547945Y-53289864D01*
X182071031Y-53195000D01*
X181148969Y-53195000D01*
X180672055Y-53289864D01*
X180131231Y-53651231D01*
X179769864Y-54192055D01*
X179642969Y-54830000D01*
X179751177Y-55374000D01*
X178622802Y-55374000D01*
X178052000Y-54803199D01*
X178052000Y-51128848D01*
X178066888Y-51054000D01*
X178052000Y-50979152D01*
X178052000Y-50979148D01*
X178007904Y-50757463D01*
X178007904Y-50757462D01*
X177882329Y-50569527D01*
X177839929Y-50506071D01*
X177776473Y-50463671D01*
X175533000Y-48220199D01*
X175533000Y-48054126D01*
X175375431Y-47673720D01*
X175084280Y-47382569D01*
X174703874Y-47225000D01*
X174292126Y-47225000D01*
X173911720Y-47382569D01*
X173620569Y-47673720D01*
X173463000Y-48054126D01*
X173463000Y-48465874D01*
X173620569Y-48846280D01*
X173911720Y-49137431D01*
X174292126Y-49295000D01*
X174458199Y-49295000D01*
X176532001Y-51368803D01*
X176532001Y-51940551D01*
X176458853Y-51926001D01*
X176458848Y-51926001D01*
X176384001Y-51911113D01*
X176309154Y-51926001D01*
X171924845Y-51926001D01*
X171849998Y-51911113D01*
X171775151Y-51926001D01*
X171775147Y-51926001D01*
X171553462Y-51970097D01*
X171448000Y-52040565D01*
X171448000Y-50233711D01*
X171565431Y-50116280D01*
X171723000Y-49735874D01*
X171723000Y-49324126D01*
X171565431Y-48943720D01*
X171274280Y-48652569D01*
X170893874Y-48495000D01*
X170482126Y-48495000D01*
X170101720Y-48652569D01*
X169810569Y-48943720D01*
X169653000Y-49324126D01*
X169653000Y-49735874D01*
X169810569Y-50116280D01*
X169928000Y-50233711D01*
X169928001Y-58091148D01*
X169913112Y-58166000D01*
X169972097Y-58462537D01*
X170081678Y-58626536D01*
X170140072Y-58713929D01*
X170203528Y-58756329D01*
X171155082Y-59707883D01*
X170863720Y-59828569D01*
X170572569Y-60119720D01*
X170415000Y-60500126D01*
X170415000Y-60911874D01*
X170572569Y-61292280D01*
X170690000Y-61409711D01*
X170690001Y-68519197D01*
X170648198Y-68561000D01*
X170482126Y-68561000D01*
X170101720Y-68718569D01*
X169810569Y-69009720D01*
X169653000Y-69390126D01*
X169653000Y-69801874D01*
X169810569Y-70182280D01*
X170101720Y-70473431D01*
X170482126Y-70631000D01*
X170893874Y-70631000D01*
X170942467Y-70610872D01*
X171080569Y-70944280D01*
X171371720Y-71235431D01*
X171752126Y-71393000D01*
X172163874Y-71393000D01*
X172544280Y-71235431D01*
X172835431Y-70944280D01*
X172993000Y-70563874D01*
X172993000Y-70411913D01*
X173013929Y-70397929D01*
X173056327Y-70334476D01*
X173056329Y-70334474D01*
X173165629Y-70170894D01*
X173181904Y-70146537D01*
X173226000Y-69924852D01*
X173226000Y-69924848D01*
X173240888Y-69850001D01*
X173226000Y-69775154D01*
X173226000Y-60018848D01*
X173240888Y-59944000D01*
X173226000Y-59869152D01*
X173226000Y-59869148D01*
X173181904Y-59647463D01*
X173181904Y-59647462D01*
X173056329Y-59459527D01*
X173013929Y-59396071D01*
X172950473Y-59353671D01*
X171448000Y-57851199D01*
X171448000Y-54121000D01*
X171655874Y-54121000D01*
X172036280Y-53963431D01*
X172327431Y-53672280D01*
X172421159Y-53446001D01*
X176024000Y-53446001D01*
X176024001Y-57912106D01*
X175689720Y-58050569D01*
X175398569Y-58341720D01*
X175241000Y-58722126D01*
X175241000Y-59133874D01*
X175398569Y-59514280D01*
X175689720Y-59805431D01*
X176070126Y-59963000D01*
X176481874Y-59963000D01*
X176862280Y-59805431D01*
X177153431Y-59514280D01*
X177311000Y-59133874D01*
X177311000Y-58981913D01*
X177331929Y-58967929D01*
X177374327Y-58904476D01*
X177374329Y-58904474D01*
X177458102Y-58779098D01*
X177499904Y-58716537D01*
X177544000Y-58494852D01*
X177544000Y-58494848D01*
X177558888Y-58420001D01*
X177544000Y-58345154D01*
X177544000Y-56444802D01*
X177717670Y-56618472D01*
X177760071Y-56681929D01*
X178011463Y-56849904D01*
X178233148Y-56894000D01*
X178233153Y-56894000D01*
X178308000Y-56908888D01*
X178382847Y-56894000D01*
X180349199Y-56894000D01*
X180416092Y-56960893D01*
X180131231Y-57151231D01*
X179769864Y-57692055D01*
X179642969Y-58330000D01*
X179769864Y-58967945D01*
X180131231Y-59508769D01*
X180416092Y-59699107D01*
X179500518Y-60614681D01*
X179437062Y-60657081D01*
X179394662Y-60720537D01*
X179394661Y-60720538D01*
X179269087Y-60908473D01*
X179210102Y-61205010D01*
X179224991Y-61279861D01*
X179224990Y-62380143D01*
X179210102Y-62454990D01*
X179224990Y-62529837D01*
X179224990Y-62529841D01*
X179269086Y-62751526D01*
X179437061Y-63002919D01*
X179500520Y-63045321D01*
X180416092Y-63960893D01*
X180131231Y-64151231D01*
X179769864Y-64692055D01*
X179642969Y-65330000D01*
X179769864Y-65967945D01*
X180131231Y-66508769D01*
X180672055Y-66870136D01*
X180923199Y-66920092D01*
X181062071Y-67127929D01*
X181125530Y-67170331D01*
X181150199Y-67195000D01*
X181148969Y-67195000D01*
X180672055Y-67289864D01*
X180131231Y-67651231D01*
X179769864Y-68192055D01*
X179642969Y-68830000D01*
X179769864Y-69467945D01*
X180131231Y-70008769D01*
X180672055Y-70370136D01*
X181148969Y-70465000D01*
X181150199Y-70465000D01*
X181125528Y-70489671D01*
X181062072Y-70532071D01*
X181019672Y-70595527D01*
X181019671Y-70595528D01*
X180923199Y-70739908D01*
X180672055Y-70789864D01*
X180131231Y-71151231D01*
X179769864Y-71692055D01*
X179642969Y-72330000D01*
X179769864Y-72967945D01*
X180131231Y-73508769D01*
X180416092Y-73699107D01*
X179500518Y-74614681D01*
X179437062Y-74657081D01*
X179394662Y-74720537D01*
X179394661Y-74720538D01*
X179269087Y-74908473D01*
X179210102Y-75205010D01*
X179224991Y-75279861D01*
X179224990Y-76380143D01*
X179210102Y-76454990D01*
X179224990Y-76529837D01*
X179224990Y-76529841D01*
X179269086Y-76751526D01*
X179437061Y-77002919D01*
X179500520Y-77045321D01*
X180416092Y-77960893D01*
X180131231Y-78151231D01*
X179769864Y-78692055D01*
X179642969Y-79330000D01*
X179769864Y-79967945D01*
X180131231Y-80508769D01*
X180672055Y-80870136D01*
X180923199Y-80920092D01*
X181062071Y-81127929D01*
X181125530Y-81170331D01*
X181150199Y-81195000D01*
X181148969Y-81195000D01*
X180672055Y-81289864D01*
X180131231Y-81651231D01*
X179769864Y-82192055D01*
X179642969Y-82830000D01*
X179769864Y-83467945D01*
X180131231Y-84008769D01*
X180672055Y-84370136D01*
X181148969Y-84465000D01*
X182071031Y-84465000D01*
X182475010Y-84384644D01*
X182475010Y-84690188D01*
X182403972Y-84761226D01*
X182071031Y-84695000D01*
X181148969Y-84695000D01*
X180672055Y-84789864D01*
X180131231Y-85151231D01*
X179769864Y-85692055D01*
X179642969Y-86330000D01*
X179769864Y-86967945D01*
X180131231Y-87508769D01*
X180416092Y-87699107D01*
X179500518Y-88614681D01*
X179437062Y-88657081D01*
X179394662Y-88720537D01*
X179394661Y-88720538D01*
X179269087Y-88908473D01*
X179210102Y-89205010D01*
X179224991Y-89279861D01*
X179224990Y-90380143D01*
X179210102Y-90454990D01*
X179224990Y-90529837D01*
X179224990Y-90529841D01*
X179269086Y-90751526D01*
X179437061Y-91002919D01*
X179500520Y-91045321D01*
X180416092Y-91960893D01*
X180131231Y-92151231D01*
X179769864Y-92692055D01*
X179642969Y-93330000D01*
X179769864Y-93967945D01*
X180131231Y-94508769D01*
X180672055Y-94870136D01*
X180923199Y-94920092D01*
X181062071Y-95127929D01*
X181125530Y-95170331D01*
X181150199Y-95195000D01*
X181148969Y-95195000D01*
X180672055Y-95289864D01*
X180131231Y-95651231D01*
X179769864Y-96192055D01*
X179642969Y-96830000D01*
X179769864Y-97467945D01*
X180131231Y-98008769D01*
X180672055Y-98370136D01*
X181148969Y-98465000D01*
X182071031Y-98465000D01*
X182475010Y-98384644D01*
X182475010Y-98682560D01*
X180310000Y-98682560D01*
X180062235Y-98731843D01*
X179852191Y-98872191D01*
X179711843Y-99082235D01*
X179662560Y-99330000D01*
X179662560Y-101330000D01*
X179711843Y-101577765D01*
X179852191Y-101787809D01*
X180062235Y-101928157D01*
X180166335Y-101948864D01*
X177125199Y-104990000D01*
X175887440Y-104990000D01*
X175887440Y-104500000D01*
X175838157Y-104252235D01*
X175697809Y-104042191D01*
X175487765Y-103901843D01*
X175240000Y-103852560D01*
X174638483Y-103852560D01*
X174608581Y-103807809D01*
X174580329Y-103765526D01*
X174580327Y-103765524D01*
X174537929Y-103702071D01*
X174474476Y-103659673D01*
X171142801Y-100328000D01*
X172391153Y-100328000D01*
X172466000Y-100342888D01*
X172540847Y-100328000D01*
X172540852Y-100328000D01*
X172762537Y-100283904D01*
X173013929Y-100115929D01*
X173027913Y-100095000D01*
X173179874Y-100095000D01*
X173560280Y-99937431D01*
X173851431Y-99646280D01*
X174009000Y-99265874D01*
X174009000Y-98854126D01*
X173851431Y-98473720D01*
X173560280Y-98182569D01*
X173179874Y-98025000D01*
X172768126Y-98025000D01*
X172387720Y-98182569D01*
X172096569Y-98473720D01*
X171958106Y-98808000D01*
X167700802Y-98808000D01*
X167638000Y-98745198D01*
X167638000Y-95070848D01*
X167652888Y-94996000D01*
X167638000Y-94921152D01*
X167638000Y-94921148D01*
X167593904Y-94699463D01*
X167593904Y-94699462D01*
X167468329Y-94511527D01*
X167425929Y-94448071D01*
X167362473Y-94405671D01*
X164103000Y-91146199D01*
X164103000Y-90980126D01*
X163945431Y-90599720D01*
X163654280Y-90308569D01*
X163273874Y-90151000D01*
X162862126Y-90151000D01*
X162812000Y-90171763D01*
X162812000Y-89976801D01*
X163840675Y-88948126D01*
X171685000Y-88948126D01*
X171685000Y-89359874D01*
X171842569Y-89740280D01*
X171960000Y-89857711D01*
X171960001Y-94038288D01*
X171842569Y-94155720D01*
X171685000Y-94536126D01*
X171685000Y-94947874D01*
X171842569Y-95328280D01*
X172133720Y-95619431D01*
X172514126Y-95777000D01*
X172925874Y-95777000D01*
X173306280Y-95619431D01*
X173597431Y-95328280D01*
X173755000Y-94947874D01*
X173755000Y-94536126D01*
X173597431Y-94155720D01*
X173480000Y-94038289D01*
X173480000Y-89857711D01*
X173597431Y-89740280D01*
X173755000Y-89359874D01*
X173755000Y-88948126D01*
X173597431Y-88567720D01*
X173306280Y-88276569D01*
X172925874Y-88119000D01*
X172514126Y-88119000D01*
X172133720Y-88276569D01*
X171842569Y-88567720D01*
X171685000Y-88948126D01*
X163840675Y-88948126D01*
X164398802Y-88390000D01*
X165025153Y-88390000D01*
X165100000Y-88404888D01*
X165174847Y-88390000D01*
X165174852Y-88390000D01*
X165396537Y-88345904D01*
X165647929Y-88177929D01*
X165690331Y-88114470D01*
X167870473Y-85934329D01*
X167933929Y-85891929D01*
X168101904Y-85640537D01*
X168146000Y-85418852D01*
X168146000Y-85418848D01*
X168160888Y-85344001D01*
X168146000Y-85269154D01*
X168146000Y-81475711D01*
X168263431Y-81358280D01*
X168421000Y-80977874D01*
X168421000Y-80566126D01*
X168400237Y-80516000D01*
X173407153Y-80516000D01*
X173482000Y-80530888D01*
X173556847Y-80516000D01*
X173556852Y-80516000D01*
X173778537Y-80471904D01*
X174029929Y-80303929D01*
X174072331Y-80240471D01*
X174399473Y-79913329D01*
X174462929Y-79870929D01*
X174620312Y-79635389D01*
X174857765Y-79588157D01*
X175067809Y-79447809D01*
X175208157Y-79237765D01*
X175257440Y-78990000D01*
X175257440Y-78410000D01*
X175208157Y-78162235D01*
X175067809Y-77952191D01*
X174857765Y-77811843D01*
X174610000Y-77762560D01*
X173220000Y-77762560D01*
X172972235Y-77811843D01*
X172803703Y-77924453D01*
X172756250Y-77877000D01*
X172625279Y-77877000D01*
X172527765Y-77811843D01*
X172280000Y-77762560D01*
X170890000Y-77762560D01*
X170642235Y-77811843D01*
X170544721Y-77877000D01*
X170413750Y-77877000D01*
X170350750Y-77940000D01*
X168498802Y-77940000D01*
X168878802Y-77560000D01*
X170350750Y-77560000D01*
X170413750Y-77623000D01*
X170544721Y-77623000D01*
X170642235Y-77688157D01*
X170890000Y-77737440D01*
X172280000Y-77737440D01*
X172527765Y-77688157D01*
X172625279Y-77623000D01*
X172756250Y-77623000D01*
X172803703Y-77575547D01*
X172972235Y-77688157D01*
X173220000Y-77737440D01*
X174610000Y-77737440D01*
X174857765Y-77688157D01*
X175067809Y-77547809D01*
X175208157Y-77337765D01*
X175257440Y-77090000D01*
X175257440Y-76510000D01*
X175208157Y-76262235D01*
X175119800Y-76130001D01*
X175490473Y-75759329D01*
X175553929Y-75716929D01*
X175721904Y-75465537D01*
X175766000Y-75243852D01*
X175766000Y-75243847D01*
X175780888Y-75169000D01*
X175766000Y-75094153D01*
X175766000Y-74617711D01*
X175883431Y-74500280D01*
X176041000Y-74119874D01*
X176041000Y-73708126D01*
X175883431Y-73327720D01*
X175592280Y-73036569D01*
X175211874Y-72879000D01*
X174800126Y-72879000D01*
X174419720Y-73036569D01*
X174302289Y-73154000D01*
X174157396Y-73154000D01*
X174084739Y-73045261D01*
X173803727Y-72857495D01*
X173472250Y-72791560D01*
X173034750Y-72791560D01*
X172703273Y-72857495D01*
X172540969Y-72965943D01*
X172475698Y-72900673D01*
X172242309Y-72804000D01*
X171964250Y-72804000D01*
X171805500Y-72962750D01*
X171805500Y-73787000D01*
X171825500Y-73787000D01*
X171825500Y-74041000D01*
X171805500Y-74041000D01*
X171805500Y-74865250D01*
X171964250Y-75024000D01*
X172242309Y-75024000D01*
X172475698Y-74927327D01*
X172540969Y-74862057D01*
X172703273Y-74970505D01*
X173034750Y-75036440D01*
X173472250Y-75036440D01*
X173803727Y-74970505D01*
X174084739Y-74782739D01*
X174157396Y-74674000D01*
X174246000Y-74674000D01*
X174246000Y-74854198D01*
X173430528Y-75669671D01*
X173367072Y-75712071D01*
X173266518Y-75862560D01*
X173220000Y-75862560D01*
X172972235Y-75911843D01*
X172762191Y-76052191D01*
X172750000Y-76070436D01*
X172737809Y-76052191D01*
X172527765Y-75911843D01*
X172280000Y-75862560D01*
X170890000Y-75862560D01*
X170642235Y-75911843D01*
X170450436Y-76040000D01*
X168638846Y-76040000D01*
X168563999Y-76025112D01*
X168489152Y-76040000D01*
X168489148Y-76040000D01*
X168267463Y-76084096D01*
X168267461Y-76084097D01*
X168267462Y-76084097D01*
X168079526Y-76209671D01*
X168079524Y-76209673D01*
X168053159Y-76227289D01*
X168009431Y-76121720D01*
X167718280Y-75830569D01*
X167384000Y-75692106D01*
X167384000Y-74199750D01*
X170606000Y-74199750D01*
X170606000Y-74515310D01*
X170702673Y-74748699D01*
X170881302Y-74927327D01*
X171114691Y-75024000D01*
X171392750Y-75024000D01*
X171551500Y-74865250D01*
X171551500Y-74041000D01*
X170764750Y-74041000D01*
X170606000Y-74199750D01*
X167384000Y-74199750D01*
X167384000Y-73312690D01*
X170606000Y-73312690D01*
X170606000Y-73628250D01*
X170764750Y-73787000D01*
X171551500Y-73787000D01*
X171551500Y-72962750D01*
X171392750Y-72804000D01*
X171114691Y-72804000D01*
X170881302Y-72900673D01*
X170702673Y-73079301D01*
X170606000Y-73312690D01*
X167384000Y-73312690D01*
X167384000Y-73093711D01*
X167501431Y-72976280D01*
X167659000Y-72595874D01*
X167659000Y-72184126D01*
X167501431Y-71803720D01*
X167268314Y-71570603D01*
X167464280Y-71489431D01*
X167755431Y-71198280D01*
X167913000Y-70817874D01*
X167913000Y-70406126D01*
X167755431Y-70025720D01*
X167638000Y-69908289D01*
X167638000Y-63574848D01*
X167652888Y-63500000D01*
X167638000Y-63425152D01*
X167638000Y-63425148D01*
X167593904Y-63203463D01*
X167425929Y-62952071D01*
X167362473Y-62909671D01*
X157732000Y-53279199D01*
X157732000Y-50487711D01*
X157849431Y-50370280D01*
X158007000Y-49989874D01*
X158007000Y-49578126D01*
X157849431Y-49197720D01*
X157671711Y-49020000D01*
X161478728Y-49020000D01*
X161336096Y-49233464D01*
X161292000Y-49455149D01*
X161292000Y-49455153D01*
X161277112Y-49530000D01*
X161292000Y-49604847D01*
X161292001Y-51366288D01*
X161174569Y-51483720D01*
X161017000Y-51864126D01*
X161017000Y-52275874D01*
X161174569Y-52656280D01*
X161333292Y-52815003D01*
X160957720Y-52970569D01*
X160666569Y-53261720D01*
X160509000Y-53642126D01*
X160509000Y-54053874D01*
X160666569Y-54434280D01*
X160799686Y-54567397D01*
X160828096Y-54710222D01*
X160996072Y-54961614D01*
X161059528Y-55004014D01*
X167563315Y-61507802D01*
X167563315Y-61673874D01*
X167720884Y-62054280D01*
X168012035Y-62345431D01*
X168392441Y-62503000D01*
X168804189Y-62503000D01*
X169184595Y-62345431D01*
X169475746Y-62054280D01*
X169633315Y-61673874D01*
X169633315Y-61262126D01*
X169475746Y-60881720D01*
X169184595Y-60590569D01*
X168804189Y-60433000D01*
X168638117Y-60433000D01*
X162485271Y-54280155D01*
X162579000Y-54053874D01*
X162579000Y-53642126D01*
X162421431Y-53261720D01*
X162262708Y-53102997D01*
X162638280Y-52947431D01*
X162929431Y-52656280D01*
X163087000Y-52275874D01*
X163087000Y-51864126D01*
X162929431Y-51483720D01*
X162812000Y-51366289D01*
X162812000Y-49844801D01*
X163636802Y-49020000D01*
X164650289Y-49020000D01*
X164767720Y-49137431D01*
X165148126Y-49295000D01*
X165559874Y-49295000D01*
X165940280Y-49137431D01*
X166231431Y-48846280D01*
X166389000Y-48465874D01*
X166389000Y-48054126D01*
X166231431Y-47673720D01*
X165940280Y-47382569D01*
X165559874Y-47225000D01*
X165148126Y-47225000D01*
X164767720Y-47382569D01*
X164650289Y-47500000D01*
X163396846Y-47500000D01*
X163321999Y-47485112D01*
X163247152Y-47500000D01*
X151712846Y-47500000D01*
X151637999Y-47485112D01*
X151563152Y-47500000D01*
X151563148Y-47500000D01*
X151341463Y-47544096D01*
X151090071Y-47712071D01*
X151047671Y-47775527D01*
X149883528Y-48939671D01*
X149820072Y-48982071D01*
X149777672Y-49045527D01*
X149777671Y-49045528D01*
X149675980Y-49197720D01*
X149652097Y-49233463D01*
X149639857Y-49295000D01*
X149593112Y-49530000D01*
X149608001Y-49604852D01*
X149608000Y-60631153D01*
X149593112Y-60706000D01*
X149608000Y-60780847D01*
X149608000Y-60780851D01*
X149652096Y-61002536D01*
X149820071Y-61253929D01*
X149883530Y-61296331D01*
X154921000Y-66333803D01*
X154921000Y-66499874D01*
X155078569Y-66880280D01*
X155369720Y-67171431D01*
X155750126Y-67329000D01*
X156161874Y-67329000D01*
X156542280Y-67171431D01*
X156833431Y-66880280D01*
X156991000Y-66499874D01*
X156991000Y-66088126D01*
X156833431Y-65707720D01*
X156542280Y-65416569D01*
X156253614Y-65297000D01*
X156415874Y-65297000D01*
X156796280Y-65139431D01*
X157087431Y-64848280D01*
X157245000Y-64467874D01*
X157245000Y-64056126D01*
X157087431Y-63675720D01*
X156796280Y-63384569D01*
X156504918Y-63263883D01*
X157032802Y-62736000D01*
X158554289Y-62736000D01*
X158671720Y-62853431D01*
X159052126Y-63011000D01*
X159463874Y-63011000D01*
X159844280Y-62853431D01*
X160135431Y-62562280D01*
X160293000Y-62181874D01*
X160293000Y-61770126D01*
X160135431Y-61389720D01*
X159844280Y-61098569D01*
X159463874Y-60941000D01*
X159052126Y-60941000D01*
X158671720Y-61098569D01*
X158554289Y-61216000D01*
X156792846Y-61216000D01*
X156717999Y-61201112D01*
X156643152Y-61216000D01*
X156643148Y-61216000D01*
X156421463Y-61260096D01*
X156170071Y-61428071D01*
X156127671Y-61491527D01*
X155408199Y-62211000D01*
X155242126Y-62211000D01*
X155193533Y-62231128D01*
X155055431Y-61897720D01*
X154764280Y-61606569D01*
X154383874Y-61449000D01*
X153972126Y-61449000D01*
X153591720Y-61606569D01*
X153300569Y-61897720D01*
X153143000Y-62278126D01*
X153143000Y-62406198D01*
X151128000Y-60391199D01*
X151128000Y-49844801D01*
X151952802Y-49020000D01*
X156272289Y-49020000D01*
X156094569Y-49197720D01*
X155937000Y-49578126D01*
X155937000Y-49989874D01*
X156094569Y-50370280D01*
X156212000Y-50487711D01*
X156212001Y-53519148D01*
X156197112Y-53594000D01*
X156212001Y-53668852D01*
X156256097Y-53890537D01*
X156424072Y-54141929D01*
X156487528Y-54184329D01*
X156894199Y-54591000D01*
X156766126Y-54591000D01*
X156385720Y-54748569D01*
X156094569Y-55039720D01*
X155937000Y-55420126D01*
X155937000Y-55831874D01*
X156094569Y-56212280D01*
X156385720Y-56503431D01*
X156766126Y-56661000D01*
X157177874Y-56661000D01*
X157558280Y-56503431D01*
X157849431Y-56212280D01*
X158007000Y-55831874D01*
X158007000Y-55703801D01*
X166118000Y-63814802D01*
X166118001Y-69908288D01*
X166000569Y-70025720D01*
X165843000Y-70406126D01*
X165843000Y-70817874D01*
X166000569Y-71198280D01*
X166233686Y-71431397D01*
X166037720Y-71512569D01*
X165746569Y-71803720D01*
X165589000Y-72184126D01*
X165589000Y-72595874D01*
X165746569Y-72976280D01*
X165864000Y-73093711D01*
X165864001Y-76125148D01*
X165849112Y-76200000D01*
X165864001Y-76274852D01*
X165908097Y-76496537D01*
X166076072Y-76747929D01*
X166097000Y-76761913D01*
X166097000Y-76913874D01*
X166117763Y-76964000D01*
X161542237Y-76964000D01*
X161563000Y-76913874D01*
X161563000Y-76502126D01*
X161405431Y-76121720D01*
X161288000Y-76004289D01*
X161288000Y-71315711D01*
X161405431Y-71198280D01*
X161563000Y-70817874D01*
X161563000Y-70406126D01*
X161405431Y-70025720D01*
X161114280Y-69734569D01*
X160733874Y-69577000D01*
X160322126Y-69577000D01*
X160020000Y-69702144D01*
X159717874Y-69577000D01*
X159306126Y-69577000D01*
X158925720Y-69734569D01*
X158634569Y-70025720D01*
X158477000Y-70406126D01*
X158477000Y-70817874D01*
X158634569Y-71198280D01*
X158752000Y-71315711D01*
X158752001Y-75797316D01*
X158671720Y-75830569D01*
X158380569Y-76121720D01*
X158223000Y-76502126D01*
X158223000Y-76913874D01*
X158243763Y-76964000D01*
X155508802Y-76964000D01*
X153776928Y-75232126D01*
X154921000Y-75232126D01*
X154921000Y-75643874D01*
X155078569Y-76024280D01*
X155369720Y-76315431D01*
X155750126Y-76473000D01*
X156161874Y-76473000D01*
X156542280Y-76315431D01*
X156833431Y-76024280D01*
X156991000Y-75643874D01*
X156991000Y-75232126D01*
X156833431Y-74851720D01*
X156542280Y-74560569D01*
X156161874Y-74403000D01*
X155750126Y-74403000D01*
X155369720Y-74560569D01*
X155078569Y-74851720D01*
X154921000Y-75232126D01*
X153776928Y-75232126D01*
X148905330Y-70360529D01*
X148862928Y-70297070D01*
X148611536Y-70129095D01*
X148389851Y-70084999D01*
X148389846Y-70084999D01*
X148314999Y-70070111D01*
X148240152Y-70084999D01*
X143881746Y-70084999D01*
X143898839Y-70059418D01*
X144014092Y-69480000D01*
X143898839Y-68900582D01*
X143570625Y-68409375D01*
X143272239Y-68210000D01*
X143570625Y-68010625D01*
X143898839Y-67519418D01*
X143981445Y-67104126D01*
X152635000Y-67104126D01*
X152635000Y-67515874D01*
X152792569Y-67896280D01*
X153083720Y-68187431D01*
X153464126Y-68345000D01*
X153875874Y-68345000D01*
X154256280Y-68187431D01*
X154547431Y-67896280D01*
X154705000Y-67515874D01*
X154705000Y-67104126D01*
X154547431Y-66723720D01*
X154256280Y-66432569D01*
X153875874Y-66275000D01*
X153464126Y-66275000D01*
X153083720Y-66432569D01*
X152792569Y-66723720D01*
X152635000Y-67104126D01*
X143981445Y-67104126D01*
X144014092Y-66940000D01*
X143898839Y-66360582D01*
X143570625Y-65869375D01*
X143272239Y-65670000D01*
X143570625Y-65470625D01*
X143898839Y-64979418D01*
X144014092Y-64400000D01*
X143898839Y-63820582D01*
X143570625Y-63329375D01*
X143272239Y-63130000D01*
X143570625Y-62930625D01*
X143898839Y-62439418D01*
X144014092Y-61860000D01*
X143898839Y-61280582D01*
X143570625Y-60789375D01*
X143272239Y-60590000D01*
X143570625Y-60390625D01*
X143898839Y-59899418D01*
X144014092Y-59320000D01*
X143898839Y-58740582D01*
X143570625Y-58249375D01*
X143272239Y-58050000D01*
X143570625Y-57850625D01*
X143898839Y-57359418D01*
X144014092Y-56780000D01*
X143898839Y-56200582D01*
X143570625Y-55709375D01*
X143251522Y-55496157D01*
X143381358Y-55435183D01*
X143771645Y-55006924D01*
X143941476Y-54596890D01*
X143820155Y-54367000D01*
X142627000Y-54367000D01*
X142627000Y-54387000D01*
X142373000Y-54387000D01*
X142373000Y-54367000D01*
X142353000Y-54367000D01*
X142353000Y-54113000D01*
X142373000Y-54113000D01*
X142373000Y-52919181D01*
X142627000Y-52919181D01*
X142627000Y-54113000D01*
X143820155Y-54113000D01*
X143941476Y-53883110D01*
X143771645Y-53473076D01*
X143381358Y-53044817D01*
X142856892Y-52798514D01*
X142627000Y-52919181D01*
X142373000Y-52919181D01*
X142143108Y-52798514D01*
X141618642Y-53044817D01*
X141231353Y-53469786D01*
X141030625Y-53169375D01*
X140605028Y-52885000D01*
X141723046Y-52885000D01*
X143059062Y-52331604D01*
X144081604Y-51309062D01*
X144635000Y-49973046D01*
X144635000Y-48526954D01*
X144081604Y-47190938D01*
X143350666Y-46460000D01*
X187649334Y-46460000D01*
X186918396Y-47190938D01*
X186918396Y-47190938D01*
G37*
X186918396Y-47190938D02*
X186365000Y-48526954D01*
X186365000Y-49973046D01*
X186918396Y-51309062D01*
X187940938Y-52331604D01*
X189276954Y-52885000D01*
X190723046Y-52885000D01*
X192059062Y-52331604D01*
X192790000Y-51600666D01*
X192790001Y-104899335D01*
X192059062Y-104168396D01*
X190723046Y-103615000D01*
X189276954Y-103615000D01*
X187940938Y-104168396D01*
X186918396Y-105190938D01*
X186365000Y-106526954D01*
X186365000Y-107973046D01*
X186918396Y-109309062D01*
X187649334Y-110040000D01*
X143350666Y-110040000D01*
X144081604Y-109309062D01*
X144635000Y-107973046D01*
X144635000Y-106526954D01*
X144431537Y-106035750D01*
X161945000Y-106035750D01*
X161945000Y-107126310D01*
X162041673Y-107359699D01*
X162220302Y-107538327D01*
X162453691Y-107635000D01*
X163544250Y-107635000D01*
X163703000Y-107476250D01*
X163703000Y-105877000D01*
X163957000Y-105877000D01*
X163957000Y-107476250D01*
X164115750Y-107635000D01*
X165206309Y-107635000D01*
X165439698Y-107538327D01*
X165618327Y-107359699D01*
X165715000Y-107126310D01*
X165715000Y-106035750D01*
X165556250Y-105877000D01*
X163957000Y-105877000D01*
X163703000Y-105877000D01*
X162103750Y-105877000D01*
X161945000Y-106035750D01*
X144431537Y-106035750D01*
X144081604Y-105190938D01*
X143059062Y-104168396D01*
X142646338Y-103997440D01*
X143350000Y-103997440D01*
X143597765Y-103948157D01*
X143807809Y-103807809D01*
X143948157Y-103597765D01*
X143982297Y-103426126D01*
X146285000Y-103426126D01*
X146285000Y-103837874D01*
X146442569Y-104218280D01*
X146733720Y-104509431D01*
X147114126Y-104667000D01*
X147525874Y-104667000D01*
X147906280Y-104509431D01*
X148042021Y-104373690D01*
X161945000Y-104373690D01*
X161945000Y-105464250D01*
X162103750Y-105623000D01*
X163703000Y-105623000D01*
X163703000Y-104023750D01*
X163957000Y-104023750D01*
X163957000Y-105623000D01*
X165556250Y-105623000D01*
X165715000Y-105464250D01*
X165715000Y-104500000D01*
X167012560Y-104500000D01*
X167012560Y-107000000D01*
X167061843Y-107247765D01*
X167202191Y-107457809D01*
X167412235Y-107598157D01*
X167660000Y-107647440D01*
X168150001Y-107647440D01*
X168150001Y-107754288D01*
X168032569Y-107871720D01*
X167875000Y-108252126D01*
X167875000Y-108663874D01*
X168032569Y-109044280D01*
X168323720Y-109335431D01*
X168704126Y-109493000D01*
X169115874Y-109493000D01*
X169496280Y-109335431D01*
X169787431Y-109044280D01*
X169945000Y-108663874D01*
X169945000Y-108252126D01*
X169787431Y-107871720D01*
X169670000Y-107754289D01*
X169670000Y-107647440D01*
X170160000Y-107647440D01*
X170407765Y-107598157D01*
X170617809Y-107457809D01*
X170758157Y-107247765D01*
X170807440Y-107000000D01*
X170807440Y-104500000D01*
X170758157Y-104252235D01*
X170617809Y-104042191D01*
X170407765Y-103901843D01*
X170160000Y-103852560D01*
X167660000Y-103852560D01*
X167412235Y-103901843D01*
X167202191Y-104042191D01*
X167061843Y-104252235D01*
X167012560Y-104500000D01*
X165715000Y-104500000D01*
X165715000Y-104373690D01*
X165618327Y-104140301D01*
X165439698Y-103961673D01*
X165206309Y-103865000D01*
X164115750Y-103865000D01*
X163957000Y-104023750D01*
X163703000Y-104023750D01*
X163544250Y-103865000D01*
X162453691Y-103865000D01*
X162220302Y-103961673D01*
X162041673Y-104140301D01*
X161945000Y-104373690D01*
X148042021Y-104373690D01*
X148197431Y-104218280D01*
X148355000Y-103837874D01*
X148355000Y-103426126D01*
X148197431Y-103045720D01*
X147906280Y-102754569D01*
X147525874Y-102597000D01*
X147114126Y-102597000D01*
X146733720Y-102754569D01*
X146442569Y-103045720D01*
X146285000Y-103426126D01*
X143982297Y-103426126D01*
X143997440Y-103350000D01*
X143997440Y-101650000D01*
X143948157Y-101402235D01*
X143807809Y-101192191D01*
X143597765Y-101051843D01*
X143552381Y-101042816D01*
X143570625Y-101030625D01*
X143898839Y-100539418D01*
X144014092Y-99960000D01*
X143898839Y-99380582D01*
X143570625Y-98889375D01*
X143272239Y-98690000D01*
X143570625Y-98490625D01*
X143898839Y-97999418D01*
X144014092Y-97420000D01*
X143898839Y-96840582D01*
X143570625Y-96349375D01*
X143272239Y-96150000D01*
X143570625Y-95950625D01*
X143898839Y-95459418D01*
X144014092Y-94880000D01*
X143898839Y-94300582D01*
X143570625Y-93809375D01*
X143272239Y-93610000D01*
X143570625Y-93410625D01*
X143898839Y-92919418D01*
X144014092Y-92340000D01*
X143898839Y-91760582D01*
X143570625Y-91269375D01*
X143272239Y-91070000D01*
X143570625Y-90870625D01*
X143778178Y-90560000D01*
X145111199Y-90560000D01*
X147785671Y-93234473D01*
X147828071Y-93297929D01*
X148079463Y-93465904D01*
X148301148Y-93510000D01*
X148301152Y-93510000D01*
X148375999Y-93524888D01*
X148450846Y-93510000D01*
X149314222Y-93510000D01*
X149320873Y-93543436D01*
X149515414Y-93834586D01*
X149806564Y-94029127D01*
X150149999Y-94097440D01*
X150800001Y-94097440D01*
X151143436Y-94029127D01*
X151434586Y-93834586D01*
X151500000Y-93736687D01*
X151565414Y-93834586D01*
X151856564Y-94029127D01*
X152199999Y-94097440D01*
X152850001Y-94097440D01*
X153193436Y-94029127D01*
X153484586Y-93834586D01*
X153679127Y-93543436D01*
X153747440Y-93200001D01*
X153747440Y-92299999D01*
X153679127Y-91956564D01*
X153484586Y-91665414D01*
X153285000Y-91532054D01*
X153285000Y-90104067D01*
X153311416Y-90086416D01*
X153504602Y-89797294D01*
X153572440Y-89456250D01*
X153572440Y-88543750D01*
X153504602Y-88202706D01*
X153311416Y-87913584D01*
X153022294Y-87720398D01*
X152681250Y-87652560D01*
X152193750Y-87652560D01*
X151852706Y-87720398D01*
X151563584Y-87913584D01*
X151500000Y-88008744D01*
X151436416Y-87913584D01*
X151147294Y-87720398D01*
X150806250Y-87652560D01*
X150318750Y-87652560D01*
X149977706Y-87720398D01*
X149688584Y-87913584D01*
X149495398Y-88202706D01*
X149487980Y-88240000D01*
X149117000Y-88240000D01*
X149117000Y-88186126D01*
X148959431Y-87805720D01*
X148668280Y-87514569D01*
X148287874Y-87357000D01*
X147876126Y-87357000D01*
X147495720Y-87514569D01*
X147204569Y-87805720D01*
X147047000Y-88186126D01*
X147047000Y-88597874D01*
X147204569Y-88978280D01*
X147495720Y-89269431D01*
X147876126Y-89427000D01*
X148042198Y-89427000D01*
X148099670Y-89484472D01*
X148142071Y-89547929D01*
X148205527Y-89590329D01*
X148393462Y-89715904D01*
X148441605Y-89725480D01*
X148615148Y-89760000D01*
X148615152Y-89760000D01*
X148690000Y-89774888D01*
X148764848Y-89760000D01*
X149487980Y-89760000D01*
X149495398Y-89797294D01*
X149688584Y-90086416D01*
X149977706Y-90279602D01*
X150318750Y-90347440D01*
X150806250Y-90347440D01*
X151147294Y-90279602D01*
X151436416Y-90086416D01*
X151500000Y-89991256D01*
X151563584Y-90086416D01*
X151765001Y-90220999D01*
X151765000Y-91532054D01*
X151565414Y-91665414D01*
X151500000Y-91763313D01*
X151434586Y-91665414D01*
X151143436Y-91470873D01*
X150800001Y-91402560D01*
X150149999Y-91402560D01*
X149806564Y-91470873D01*
X149515414Y-91665414D01*
X149320873Y-91956564D01*
X149314222Y-91990000D01*
X148690802Y-91990000D01*
X146016331Y-89315530D01*
X145973929Y-89252071D01*
X145722537Y-89084096D01*
X145500852Y-89040000D01*
X145500847Y-89040000D01*
X145426000Y-89025112D01*
X145351153Y-89040000D01*
X143778178Y-89040000D01*
X143570625Y-88729375D01*
X143272239Y-88530000D01*
X143570625Y-88330625D01*
X143898839Y-87839418D01*
X144014092Y-87260000D01*
X143898839Y-86680582D01*
X143570625Y-86189375D01*
X143272239Y-85990000D01*
X143300574Y-85971067D01*
X143326537Y-85965903D01*
X143577929Y-85797929D01*
X143745903Y-85546537D01*
X143751067Y-85520574D01*
X143898839Y-85299418D01*
X144014092Y-84720000D01*
X143898839Y-84140582D01*
X143570625Y-83649375D01*
X143272239Y-83450000D01*
X143570625Y-83250625D01*
X143898839Y-82759418D01*
X144014092Y-82180000D01*
X143898839Y-81600582D01*
X143570625Y-81109375D01*
X143272239Y-80910000D01*
X143570625Y-80710625D01*
X143898839Y-80219418D01*
X144014092Y-79640000D01*
X143898839Y-79060582D01*
X143570625Y-78569375D01*
X143272239Y-78370000D01*
X143570625Y-78170625D01*
X143898839Y-77679418D01*
X144014092Y-77100000D01*
X143898839Y-76520582D01*
X143881746Y-76495001D01*
X144154152Y-76495001D01*
X144228999Y-76509889D01*
X144303846Y-76495001D01*
X144303851Y-76495001D01*
X144525536Y-76450905D01*
X144776928Y-76282930D01*
X144819330Y-76219471D01*
X145268792Y-75770010D01*
X150641209Y-75770010D01*
X153368504Y-78497306D01*
X153246152Y-78497306D01*
X153171305Y-78482418D01*
X153096458Y-78497306D01*
X153096454Y-78497306D01*
X152874769Y-78541402D01*
X152623377Y-78709377D01*
X152580975Y-78772836D01*
X152473811Y-78880000D01*
X152341711Y-78880000D01*
X152224280Y-78762569D01*
X151843874Y-78605000D01*
X151432126Y-78605000D01*
X151051720Y-78762569D01*
X150760569Y-79053720D01*
X150603000Y-79434126D01*
X150603000Y-79845874D01*
X150730033Y-80152560D01*
X150568750Y-80152560D01*
X150227706Y-80220398D01*
X149938584Y-80413584D01*
X149745398Y-80702706D01*
X149737980Y-80740000D01*
X148724601Y-80740000D01*
X148705431Y-80693720D01*
X148414280Y-80402569D01*
X148033874Y-80245000D01*
X147622126Y-80245000D01*
X147241720Y-80402569D01*
X146950569Y-80693720D01*
X146793000Y-81074126D01*
X146793000Y-81485874D01*
X146950569Y-81866280D01*
X147241720Y-82157431D01*
X147622126Y-82315000D01*
X148033874Y-82315000D01*
X148166656Y-82260000D01*
X149737980Y-82260000D01*
X149745398Y-82297294D01*
X149938584Y-82586416D01*
X150227706Y-82779602D01*
X150568750Y-82847440D01*
X151056250Y-82847440D01*
X151397294Y-82779602D01*
X151686416Y-82586416D01*
X151750000Y-82491256D01*
X151765001Y-82513706D01*
X151765000Y-84032054D01*
X151565414Y-84165414D01*
X151500000Y-84263313D01*
X151434586Y-84165414D01*
X151143436Y-83970873D01*
X150800001Y-83902560D01*
X150149999Y-83902560D01*
X149806564Y-83970873D01*
X149515414Y-84165414D01*
X149320873Y-84456564D01*
X149314222Y-84490000D01*
X149199711Y-84490000D01*
X149082280Y-84372569D01*
X148701874Y-84215000D01*
X148290126Y-84215000D01*
X147909720Y-84372569D01*
X147618569Y-84663720D01*
X147461000Y-85044126D01*
X147461000Y-85455874D01*
X147618569Y-85836280D01*
X147909720Y-86127431D01*
X148290126Y-86285000D01*
X148701874Y-86285000D01*
X149082280Y-86127431D01*
X149199711Y-86010000D01*
X149314222Y-86010000D01*
X149320873Y-86043436D01*
X149515414Y-86334586D01*
X149806564Y-86529127D01*
X150149999Y-86597440D01*
X150800001Y-86597440D01*
X151143436Y-86529127D01*
X151434586Y-86334586D01*
X151500000Y-86236687D01*
X151565414Y-86334586D01*
X151856564Y-86529127D01*
X152199999Y-86597440D01*
X152850001Y-86597440D01*
X153193436Y-86529127D01*
X153484586Y-86334586D01*
X153679127Y-86043436D01*
X153747440Y-85700001D01*
X153747440Y-84799999D01*
X153679127Y-84456564D01*
X153484586Y-84165414D01*
X153285000Y-84032054D01*
X153285000Y-82771112D01*
X153561416Y-82586416D01*
X153754602Y-82297294D01*
X153822440Y-81956250D01*
X153822440Y-81043750D01*
X153754602Y-80702706D01*
X153561416Y-80413584D01*
X153280121Y-80225628D01*
X153336541Y-80187929D01*
X153378943Y-80124470D01*
X153486107Y-80017306D01*
X154112458Y-80017306D01*
X154187306Y-80032194D01*
X154262154Y-80017306D01*
X159705199Y-80017306D01*
X161520347Y-81832455D01*
X161520347Y-81998527D01*
X161677916Y-82378933D01*
X161969067Y-82670084D01*
X162349473Y-82827653D01*
X162761221Y-82827653D01*
X163141627Y-82670084D01*
X163257923Y-82553788D01*
X163282071Y-82589929D01*
X163345524Y-82632327D01*
X163345526Y-82632329D01*
X163402031Y-82670084D01*
X163533463Y-82757904D01*
X163755148Y-82802000D01*
X163755152Y-82802000D01*
X163829999Y-82816888D01*
X163904846Y-82802000D01*
X165025153Y-82802000D01*
X165100000Y-82816888D01*
X165174847Y-82802000D01*
X165174852Y-82802000D01*
X165396537Y-82757904D01*
X165647929Y-82589929D01*
X165690331Y-82526470D01*
X166346473Y-81870329D01*
X166409929Y-81827929D01*
X166481686Y-81720537D01*
X166577904Y-81576538D01*
X166591990Y-81505721D01*
X166624000Y-81473711D01*
X166626001Y-81475712D01*
X166626000Y-85029198D01*
X164785199Y-86870000D01*
X164158847Y-86870000D01*
X164084000Y-86855112D01*
X164009153Y-86870000D01*
X164009148Y-86870000D01*
X163787463Y-86914096D01*
X163536071Y-87082071D01*
X163493671Y-87145527D01*
X161567528Y-89071671D01*
X161504072Y-89114071D01*
X161461672Y-89177527D01*
X161461671Y-89177528D01*
X161382152Y-89296537D01*
X161336097Y-89365463D01*
X161323857Y-89427000D01*
X161277112Y-89662000D01*
X161292001Y-89736852D01*
X161292000Y-95429153D01*
X161277112Y-95504000D01*
X161292000Y-95578847D01*
X161292000Y-95578851D01*
X161336096Y-95800536D01*
X161504071Y-96051929D01*
X161567530Y-96094331D01*
X162287000Y-96813802D01*
X162287000Y-96979874D01*
X162444569Y-97360280D01*
X162735720Y-97651431D01*
X163116126Y-97809000D01*
X163527874Y-97809000D01*
X163908280Y-97651431D01*
X164199431Y-97360280D01*
X164357000Y-96979874D01*
X164357000Y-96568126D01*
X164199431Y-96187720D01*
X163908280Y-95896569D01*
X163527874Y-95739000D01*
X163361802Y-95739000D01*
X162812000Y-95189199D01*
X162812000Y-92200237D01*
X162862126Y-92221000D01*
X163028199Y-92221000D01*
X166118000Y-95310802D01*
X166118001Y-98985148D01*
X166103112Y-99060000D01*
X166154034Y-99316000D01*
X163517711Y-99316000D01*
X163400280Y-99198569D01*
X163019874Y-99041000D01*
X162608126Y-99041000D01*
X162227720Y-99198569D01*
X161936569Y-99489720D01*
X161779000Y-99870126D01*
X161779000Y-100281874D01*
X161936569Y-100662280D01*
X162227720Y-100953431D01*
X162608126Y-101111000D01*
X163019874Y-101111000D01*
X163400280Y-100953431D01*
X163517711Y-100836000D01*
X169501199Y-100836000D01*
X172554630Y-103889432D01*
X172492235Y-103901843D01*
X172282191Y-104042191D01*
X172141843Y-104252235D01*
X172092560Y-104500000D01*
X172092560Y-107000000D01*
X172141843Y-107247765D01*
X172282191Y-107457809D01*
X172492235Y-107598157D01*
X172740000Y-107647440D01*
X175240000Y-107647440D01*
X175487765Y-107598157D01*
X175697809Y-107457809D01*
X175838157Y-107247765D01*
X175887440Y-107000000D01*
X175887440Y-106510000D01*
X177365153Y-106510000D01*
X177440000Y-106524888D01*
X177514847Y-106510000D01*
X177514852Y-106510000D01*
X177736537Y-106465904D01*
X177987929Y-106297929D01*
X178030331Y-106234470D01*
X182094473Y-102170329D01*
X182157929Y-102127929D01*
X182258483Y-101977440D01*
X182910000Y-101977440D01*
X183157765Y-101928157D01*
X183367809Y-101787809D01*
X183508157Y-101577765D01*
X183557440Y-101330000D01*
X183557440Y-99757362D01*
X183719483Y-99595319D01*
X183782939Y-99552919D01*
X183950914Y-99301527D01*
X183995010Y-99079842D01*
X183995010Y-99079838D01*
X184009898Y-99004991D01*
X183995010Y-98930144D01*
X183995010Y-96279856D01*
X184009898Y-96205009D01*
X183995010Y-96130162D01*
X183995010Y-96130158D01*
X183950914Y-95908473D01*
X183782939Y-95657081D01*
X183719483Y-95614681D01*
X182803908Y-94699107D01*
X183088769Y-94508769D01*
X183450136Y-93967945D01*
X183577031Y-93330000D01*
X183450136Y-92692055D01*
X183088769Y-92151231D01*
X182547945Y-91789864D01*
X182296802Y-91739909D01*
X182157929Y-91532071D01*
X182094473Y-91489671D01*
X182069802Y-91465000D01*
X182071031Y-91465000D01*
X182547945Y-91370136D01*
X183088769Y-91008769D01*
X183450136Y-90467945D01*
X183577031Y-89830000D01*
X183450136Y-89192055D01*
X183088769Y-88651231D01*
X182547945Y-88289864D01*
X182071031Y-88195000D01*
X182069802Y-88195000D01*
X182094473Y-88170329D01*
X182157929Y-88127929D01*
X182296802Y-87920091D01*
X182547945Y-87870136D01*
X183088769Y-87508769D01*
X183450136Y-86967945D01*
X183577031Y-86330000D01*
X183478774Y-85836028D01*
X183719483Y-85595319D01*
X183782939Y-85552919D01*
X183950914Y-85301527D01*
X183995010Y-85079842D01*
X183995010Y-85079838D01*
X184009898Y-85004991D01*
X183995010Y-84930144D01*
X183995010Y-82279856D01*
X184009898Y-82205009D01*
X183995010Y-82130162D01*
X183995010Y-82130158D01*
X183950914Y-81908473D01*
X183782939Y-81657081D01*
X183719483Y-81614681D01*
X182803908Y-80699107D01*
X183088769Y-80508769D01*
X183450136Y-79967945D01*
X183577031Y-79330000D01*
X183450136Y-78692055D01*
X183088769Y-78151231D01*
X182547945Y-77789864D01*
X182296802Y-77739909D01*
X182157929Y-77532071D01*
X182094473Y-77489671D01*
X182069802Y-77465000D01*
X182071031Y-77465000D01*
X182547945Y-77370136D01*
X183088769Y-77008769D01*
X183450136Y-76467945D01*
X183577031Y-75830000D01*
X183450136Y-75192055D01*
X183088769Y-74651231D01*
X182547945Y-74289864D01*
X182071031Y-74195000D01*
X182069802Y-74195000D01*
X182094473Y-74170329D01*
X182157929Y-74127929D01*
X182296802Y-73920091D01*
X182547945Y-73870136D01*
X183088769Y-73508769D01*
X183450136Y-72967945D01*
X183577031Y-72330000D01*
X183450136Y-71692055D01*
X183088769Y-71151231D01*
X182803908Y-70960893D01*
X183719483Y-70045319D01*
X183782939Y-70002919D01*
X183950914Y-69751527D01*
X183995010Y-69529842D01*
X183995010Y-69529838D01*
X184009898Y-69454991D01*
X183995010Y-69380144D01*
X183995010Y-68279856D01*
X184009898Y-68205009D01*
X183995010Y-68130162D01*
X183995010Y-68130158D01*
X183950914Y-67908473D01*
X183782939Y-67657081D01*
X183719483Y-67614681D01*
X182803908Y-66699107D01*
X183088769Y-66508769D01*
X183450136Y-65967945D01*
X183577031Y-65330000D01*
X183450136Y-64692055D01*
X183088769Y-64151231D01*
X182547945Y-63789864D01*
X182296802Y-63739909D01*
X182157929Y-63532071D01*
X182094473Y-63489671D01*
X182069802Y-63465000D01*
X182071031Y-63465000D01*
X182547945Y-63370136D01*
X183088769Y-63008769D01*
X183450136Y-62467945D01*
X183577031Y-61830000D01*
X183450136Y-61192055D01*
X183088769Y-60651231D01*
X182547945Y-60289864D01*
X182071031Y-60195000D01*
X182069802Y-60195000D01*
X182094473Y-60170329D01*
X182157929Y-60127929D01*
X182296802Y-59920091D01*
X182547945Y-59870136D01*
X183088769Y-59508769D01*
X183450136Y-58967945D01*
X183577031Y-58330000D01*
X183450136Y-57692055D01*
X183088769Y-57151231D01*
X182547945Y-56789864D01*
X182296802Y-56739909D01*
X182157929Y-56532071D01*
X182094473Y-56489671D01*
X182069802Y-56465000D01*
X182071031Y-56465000D01*
X182547945Y-56370136D01*
X183088769Y-56008769D01*
X183450136Y-55467945D01*
X183577031Y-54830000D01*
X183450136Y-54192055D01*
X183088769Y-53651231D01*
X182547945Y-53289864D01*
X182071031Y-53195000D01*
X181148969Y-53195000D01*
X180672055Y-53289864D01*
X180131231Y-53651231D01*
X179769864Y-54192055D01*
X179642969Y-54830000D01*
X179751177Y-55374000D01*
X178622802Y-55374000D01*
X178052000Y-54803199D01*
X178052000Y-51128848D01*
X178066888Y-51054000D01*
X178052000Y-50979152D01*
X178052000Y-50979148D01*
X178007904Y-50757463D01*
X178007904Y-50757462D01*
X177882329Y-50569527D01*
X177839929Y-50506071D01*
X177776473Y-50463671D01*
X175533000Y-48220199D01*
X175533000Y-48054126D01*
X175375431Y-47673720D01*
X175084280Y-47382569D01*
X174703874Y-47225000D01*
X174292126Y-47225000D01*
X173911720Y-47382569D01*
X173620569Y-47673720D01*
X173463000Y-48054126D01*
X173463000Y-48465874D01*
X173620569Y-48846280D01*
X173911720Y-49137431D01*
X174292126Y-49295000D01*
X174458199Y-49295000D01*
X176532001Y-51368803D01*
X176532001Y-51940551D01*
X176458853Y-51926001D01*
X176458848Y-51926001D01*
X176384001Y-51911113D01*
X176309154Y-51926001D01*
X171924845Y-51926001D01*
X171849998Y-51911113D01*
X171775151Y-51926001D01*
X171775147Y-51926001D01*
X171553462Y-51970097D01*
X171448000Y-52040565D01*
X171448000Y-50233711D01*
X171565431Y-50116280D01*
X171723000Y-49735874D01*
X171723000Y-49324126D01*
X171565431Y-48943720D01*
X171274280Y-48652569D01*
X170893874Y-48495000D01*
X170482126Y-48495000D01*
X170101720Y-48652569D01*
X169810569Y-48943720D01*
X169653000Y-49324126D01*
X169653000Y-49735874D01*
X169810569Y-50116280D01*
X169928000Y-50233711D01*
X169928001Y-58091148D01*
X169913112Y-58166000D01*
X169972097Y-58462537D01*
X170081678Y-58626536D01*
X170140072Y-58713929D01*
X170203528Y-58756329D01*
X171155082Y-59707883D01*
X170863720Y-59828569D01*
X170572569Y-60119720D01*
X170415000Y-60500126D01*
X170415000Y-60911874D01*
X170572569Y-61292280D01*
X170690000Y-61409711D01*
X170690001Y-68519197D01*
X170648198Y-68561000D01*
X170482126Y-68561000D01*
X170101720Y-68718569D01*
X169810569Y-69009720D01*
X169653000Y-69390126D01*
X169653000Y-69801874D01*
X169810569Y-70182280D01*
X170101720Y-70473431D01*
X170482126Y-70631000D01*
X170893874Y-70631000D01*
X170942467Y-70610872D01*
X171080569Y-70944280D01*
X171371720Y-71235431D01*
X171752126Y-71393000D01*
X172163874Y-71393000D01*
X172544280Y-71235431D01*
X172835431Y-70944280D01*
X172993000Y-70563874D01*
X172993000Y-70411913D01*
X173013929Y-70397929D01*
X173056327Y-70334476D01*
X173056329Y-70334474D01*
X173165629Y-70170894D01*
X173181904Y-70146537D01*
X173226000Y-69924852D01*
X173226000Y-69924848D01*
X173240888Y-69850001D01*
X173226000Y-69775154D01*
X173226000Y-60018848D01*
X173240888Y-59944000D01*
X173226000Y-59869152D01*
X173226000Y-59869148D01*
X173181904Y-59647463D01*
X173181904Y-59647462D01*
X173056329Y-59459527D01*
X173013929Y-59396071D01*
X172950473Y-59353671D01*
X171448000Y-57851199D01*
X171448000Y-54121000D01*
X171655874Y-54121000D01*
X172036280Y-53963431D01*
X172327431Y-53672280D01*
X172421159Y-53446001D01*
X176024000Y-53446001D01*
X176024001Y-57912106D01*
X175689720Y-58050569D01*
X175398569Y-58341720D01*
X175241000Y-58722126D01*
X175241000Y-59133874D01*
X175398569Y-59514280D01*
X175689720Y-59805431D01*
X176070126Y-59963000D01*
X176481874Y-59963000D01*
X176862280Y-59805431D01*
X177153431Y-59514280D01*
X177311000Y-59133874D01*
X177311000Y-58981913D01*
X177331929Y-58967929D01*
X177374327Y-58904476D01*
X177374329Y-58904474D01*
X177458102Y-58779098D01*
X177499904Y-58716537D01*
X177544000Y-58494852D01*
X177544000Y-58494848D01*
X177558888Y-58420001D01*
X177544000Y-58345154D01*
X177544000Y-56444802D01*
X177717670Y-56618472D01*
X177760071Y-56681929D01*
X178011463Y-56849904D01*
X178233148Y-56894000D01*
X178233153Y-56894000D01*
X178308000Y-56908888D01*
X178382847Y-56894000D01*
X180349199Y-56894000D01*
X180416092Y-56960893D01*
X180131231Y-57151231D01*
X179769864Y-57692055D01*
X179642969Y-58330000D01*
X179769864Y-58967945D01*
X180131231Y-59508769D01*
X180416092Y-59699107D01*
X179500518Y-60614681D01*
X179437062Y-60657081D01*
X179394662Y-60720537D01*
X179394661Y-60720538D01*
X179269087Y-60908473D01*
X179210102Y-61205010D01*
X179224991Y-61279861D01*
X179224990Y-62380143D01*
X179210102Y-62454990D01*
X179224990Y-62529837D01*
X179224990Y-62529841D01*
X179269086Y-62751526D01*
X179437061Y-63002919D01*
X179500520Y-63045321D01*
X180416092Y-63960893D01*
X180131231Y-64151231D01*
X179769864Y-64692055D01*
X179642969Y-65330000D01*
X179769864Y-65967945D01*
X180131231Y-66508769D01*
X180672055Y-66870136D01*
X180923199Y-66920092D01*
X181062071Y-67127929D01*
X181125530Y-67170331D01*
X181150199Y-67195000D01*
X181148969Y-67195000D01*
X180672055Y-67289864D01*
X180131231Y-67651231D01*
X179769864Y-68192055D01*
X179642969Y-68830000D01*
X179769864Y-69467945D01*
X180131231Y-70008769D01*
X180672055Y-70370136D01*
X181148969Y-70465000D01*
X181150199Y-70465000D01*
X181125528Y-70489671D01*
X181062072Y-70532071D01*
X181019672Y-70595527D01*
X181019671Y-70595528D01*
X180923199Y-70739908D01*
X180672055Y-70789864D01*
X180131231Y-71151231D01*
X179769864Y-71692055D01*
X179642969Y-72330000D01*
X179769864Y-72967945D01*
X180131231Y-73508769D01*
X180416092Y-73699107D01*
X179500518Y-74614681D01*
X179437062Y-74657081D01*
X179394662Y-74720537D01*
X179394661Y-74720538D01*
X179269087Y-74908473D01*
X179210102Y-75205010D01*
X179224991Y-75279861D01*
X179224990Y-76380143D01*
X179210102Y-76454990D01*
X179224990Y-76529837D01*
X179224990Y-76529841D01*
X179269086Y-76751526D01*
X179437061Y-77002919D01*
X179500520Y-77045321D01*
X180416092Y-77960893D01*
X180131231Y-78151231D01*
X179769864Y-78692055D01*
X179642969Y-79330000D01*
X179769864Y-79967945D01*
X180131231Y-80508769D01*
X180672055Y-80870136D01*
X180923199Y-80920092D01*
X181062071Y-81127929D01*
X181125530Y-81170331D01*
X181150199Y-81195000D01*
X181148969Y-81195000D01*
X180672055Y-81289864D01*
X180131231Y-81651231D01*
X179769864Y-82192055D01*
X179642969Y-82830000D01*
X179769864Y-83467945D01*
X180131231Y-84008769D01*
X180672055Y-84370136D01*
X181148969Y-84465000D01*
X182071031Y-84465000D01*
X182475010Y-84384644D01*
X182475010Y-84690188D01*
X182403972Y-84761226D01*
X182071031Y-84695000D01*
X181148969Y-84695000D01*
X180672055Y-84789864D01*
X180131231Y-85151231D01*
X179769864Y-85692055D01*
X179642969Y-86330000D01*
X179769864Y-86967945D01*
X180131231Y-87508769D01*
X180416092Y-87699107D01*
X179500518Y-88614681D01*
X179437062Y-88657081D01*
X179394662Y-88720537D01*
X179394661Y-88720538D01*
X179269087Y-88908473D01*
X179210102Y-89205010D01*
X179224991Y-89279861D01*
X179224990Y-90380143D01*
X179210102Y-90454990D01*
X179224990Y-90529837D01*
X179224990Y-90529841D01*
X179269086Y-90751526D01*
X179437061Y-91002919D01*
X179500520Y-91045321D01*
X180416092Y-91960893D01*
X180131231Y-92151231D01*
X179769864Y-92692055D01*
X179642969Y-93330000D01*
X179769864Y-93967945D01*
X180131231Y-94508769D01*
X180672055Y-94870136D01*
X180923199Y-94920092D01*
X181062071Y-95127929D01*
X181125530Y-95170331D01*
X181150199Y-95195000D01*
X181148969Y-95195000D01*
X180672055Y-95289864D01*
X180131231Y-95651231D01*
X179769864Y-96192055D01*
X179642969Y-96830000D01*
X179769864Y-97467945D01*
X180131231Y-98008769D01*
X180672055Y-98370136D01*
X181148969Y-98465000D01*
X182071031Y-98465000D01*
X182475010Y-98384644D01*
X182475010Y-98682560D01*
X180310000Y-98682560D01*
X180062235Y-98731843D01*
X179852191Y-98872191D01*
X179711843Y-99082235D01*
X179662560Y-99330000D01*
X179662560Y-101330000D01*
X179711843Y-101577765D01*
X179852191Y-101787809D01*
X180062235Y-101928157D01*
X180166335Y-101948864D01*
X177125199Y-104990000D01*
X175887440Y-104990000D01*
X175887440Y-104500000D01*
X175838157Y-104252235D01*
X175697809Y-104042191D01*
X175487765Y-103901843D01*
X175240000Y-103852560D01*
X174638483Y-103852560D01*
X174608581Y-103807809D01*
X174580329Y-103765526D01*
X174580327Y-103765524D01*
X174537929Y-103702071D01*
X174474476Y-103659673D01*
X171142801Y-100328000D01*
X172391153Y-100328000D01*
X172466000Y-100342888D01*
X172540847Y-100328000D01*
X172540852Y-100328000D01*
X172762537Y-100283904D01*
X173013929Y-100115929D01*
X173027913Y-100095000D01*
X173179874Y-100095000D01*
X173560280Y-99937431D01*
X173851431Y-99646280D01*
X174009000Y-99265874D01*
X174009000Y-98854126D01*
X173851431Y-98473720D01*
X173560280Y-98182569D01*
X173179874Y-98025000D01*
X172768126Y-98025000D01*
X172387720Y-98182569D01*
X172096569Y-98473720D01*
X171958106Y-98808000D01*
X167700802Y-98808000D01*
X167638000Y-98745198D01*
X167638000Y-95070848D01*
X167652888Y-94996000D01*
X167638000Y-94921152D01*
X167638000Y-94921148D01*
X167593904Y-94699463D01*
X167593904Y-94699462D01*
X167468329Y-94511527D01*
X167425929Y-94448071D01*
X167362473Y-94405671D01*
X164103000Y-91146199D01*
X164103000Y-90980126D01*
X163945431Y-90599720D01*
X163654280Y-90308569D01*
X163273874Y-90151000D01*
X162862126Y-90151000D01*
X162812000Y-90171763D01*
X162812000Y-89976801D01*
X163840675Y-88948126D01*
X171685000Y-88948126D01*
X171685000Y-89359874D01*
X171842569Y-89740280D01*
X171960000Y-89857711D01*
X171960001Y-94038288D01*
X171842569Y-94155720D01*
X171685000Y-94536126D01*
X171685000Y-94947874D01*
X171842569Y-95328280D01*
X172133720Y-95619431D01*
X172514126Y-95777000D01*
X172925874Y-95777000D01*
X173306280Y-95619431D01*
X173597431Y-95328280D01*
X173755000Y-94947874D01*
X173755000Y-94536126D01*
X173597431Y-94155720D01*
X173480000Y-94038289D01*
X173480000Y-89857711D01*
X173597431Y-89740280D01*
X173755000Y-89359874D01*
X173755000Y-88948126D01*
X173597431Y-88567720D01*
X173306280Y-88276569D01*
X172925874Y-88119000D01*
X172514126Y-88119000D01*
X172133720Y-88276569D01*
X171842569Y-88567720D01*
X171685000Y-88948126D01*
X163840675Y-88948126D01*
X164398802Y-88390000D01*
X165025153Y-88390000D01*
X165100000Y-88404888D01*
X165174847Y-88390000D01*
X165174852Y-88390000D01*
X165396537Y-88345904D01*
X165647929Y-88177929D01*
X165690331Y-88114470D01*
X167870473Y-85934329D01*
X167933929Y-85891929D01*
X168101904Y-85640537D01*
X168146000Y-85418852D01*
X168146000Y-85418848D01*
X168160888Y-85344001D01*
X168146000Y-85269154D01*
X168146000Y-81475711D01*
X168263431Y-81358280D01*
X168421000Y-80977874D01*
X168421000Y-80566126D01*
X168400237Y-80516000D01*
X173407153Y-80516000D01*
X173482000Y-80530888D01*
X173556847Y-80516000D01*
X173556852Y-80516000D01*
X173778537Y-80471904D01*
X174029929Y-80303929D01*
X174072331Y-80240471D01*
X174399473Y-79913329D01*
X174462929Y-79870929D01*
X174620312Y-79635389D01*
X174857765Y-79588157D01*
X175067809Y-79447809D01*
X175208157Y-79237765D01*
X175257440Y-78990000D01*
X175257440Y-78410000D01*
X175208157Y-78162235D01*
X175067809Y-77952191D01*
X174857765Y-77811843D01*
X174610000Y-77762560D01*
X173220000Y-77762560D01*
X172972235Y-77811843D01*
X172803703Y-77924453D01*
X172756250Y-77877000D01*
X172625279Y-77877000D01*
X172527765Y-77811843D01*
X172280000Y-77762560D01*
X170890000Y-77762560D01*
X170642235Y-77811843D01*
X170544721Y-77877000D01*
X170413750Y-77877000D01*
X170350750Y-77940000D01*
X168498802Y-77940000D01*
X168878802Y-77560000D01*
X170350750Y-77560000D01*
X170413750Y-77623000D01*
X170544721Y-77623000D01*
X170642235Y-77688157D01*
X170890000Y-77737440D01*
X172280000Y-77737440D01*
X172527765Y-77688157D01*
X172625279Y-77623000D01*
X172756250Y-77623000D01*
X172803703Y-77575547D01*
X172972235Y-77688157D01*
X173220000Y-77737440D01*
X174610000Y-77737440D01*
X174857765Y-77688157D01*
X175067809Y-77547809D01*
X175208157Y-77337765D01*
X175257440Y-77090000D01*
X175257440Y-76510000D01*
X175208157Y-76262235D01*
X175119800Y-76130001D01*
X175490473Y-75759329D01*
X175553929Y-75716929D01*
X175721904Y-75465537D01*
X175766000Y-75243852D01*
X175766000Y-75243847D01*
X175780888Y-75169000D01*
X175766000Y-75094153D01*
X175766000Y-74617711D01*
X175883431Y-74500280D01*
X176041000Y-74119874D01*
X176041000Y-73708126D01*
X175883431Y-73327720D01*
X175592280Y-73036569D01*
X175211874Y-72879000D01*
X174800126Y-72879000D01*
X174419720Y-73036569D01*
X174302289Y-73154000D01*
X174157396Y-73154000D01*
X174084739Y-73045261D01*
X173803727Y-72857495D01*
X173472250Y-72791560D01*
X173034750Y-72791560D01*
X172703273Y-72857495D01*
X172540969Y-72965943D01*
X172475698Y-72900673D01*
X172242309Y-72804000D01*
X171964250Y-72804000D01*
X171805500Y-72962750D01*
X171805500Y-73787000D01*
X171825500Y-73787000D01*
X171825500Y-74041000D01*
X171805500Y-74041000D01*
X171805500Y-74865250D01*
X171964250Y-75024000D01*
X172242309Y-75024000D01*
X172475698Y-74927327D01*
X172540969Y-74862057D01*
X172703273Y-74970505D01*
X173034750Y-75036440D01*
X173472250Y-75036440D01*
X173803727Y-74970505D01*
X174084739Y-74782739D01*
X174157396Y-74674000D01*
X174246000Y-74674000D01*
X174246000Y-74854198D01*
X173430528Y-75669671D01*
X173367072Y-75712071D01*
X173266518Y-75862560D01*
X173220000Y-75862560D01*
X172972235Y-75911843D01*
X172762191Y-76052191D01*
X172750000Y-76070436D01*
X172737809Y-76052191D01*
X172527765Y-75911843D01*
X172280000Y-75862560D01*
X170890000Y-75862560D01*
X170642235Y-75911843D01*
X170450436Y-76040000D01*
X168638846Y-76040000D01*
X168563999Y-76025112D01*
X168489152Y-76040000D01*
X168489148Y-76040000D01*
X168267463Y-76084096D01*
X168267461Y-76084097D01*
X168267462Y-76084097D01*
X168079526Y-76209671D01*
X168079524Y-76209673D01*
X168053159Y-76227289D01*
X168009431Y-76121720D01*
X167718280Y-75830569D01*
X167384000Y-75692106D01*
X167384000Y-74199750D01*
X170606000Y-74199750D01*
X170606000Y-74515310D01*
X170702673Y-74748699D01*
X170881302Y-74927327D01*
X171114691Y-75024000D01*
X171392750Y-75024000D01*
X171551500Y-74865250D01*
X171551500Y-74041000D01*
X170764750Y-74041000D01*
X170606000Y-74199750D01*
X167384000Y-74199750D01*
X167384000Y-73312690D01*
X170606000Y-73312690D01*
X170606000Y-73628250D01*
X170764750Y-73787000D01*
X171551500Y-73787000D01*
X171551500Y-72962750D01*
X171392750Y-72804000D01*
X171114691Y-72804000D01*
X170881302Y-72900673D01*
X170702673Y-73079301D01*
X170606000Y-73312690D01*
X167384000Y-73312690D01*
X167384000Y-73093711D01*
X167501431Y-72976280D01*
X167659000Y-72595874D01*
X167659000Y-72184126D01*
X167501431Y-71803720D01*
X167268314Y-71570603D01*
X167464280Y-71489431D01*
X167755431Y-71198280D01*
X167913000Y-70817874D01*
X167913000Y-70406126D01*
X167755431Y-70025720D01*
X167638000Y-69908289D01*
X167638000Y-63574848D01*
X167652888Y-63500000D01*
X167638000Y-63425152D01*
X167638000Y-63425148D01*
X167593904Y-63203463D01*
X167425929Y-62952071D01*
X167362473Y-62909671D01*
X157732000Y-53279199D01*
X157732000Y-50487711D01*
X157849431Y-50370280D01*
X158007000Y-49989874D01*
X158007000Y-49578126D01*
X157849431Y-49197720D01*
X157671711Y-49020000D01*
X161478728Y-49020000D01*
X161336096Y-49233464D01*
X161292000Y-49455149D01*
X161292000Y-49455153D01*
X161277112Y-49530000D01*
X161292000Y-49604847D01*
X161292001Y-51366288D01*
X161174569Y-51483720D01*
X161017000Y-51864126D01*
X161017000Y-52275874D01*
X161174569Y-52656280D01*
X161333292Y-52815003D01*
X160957720Y-52970569D01*
X160666569Y-53261720D01*
X160509000Y-53642126D01*
X160509000Y-54053874D01*
X160666569Y-54434280D01*
X160799686Y-54567397D01*
X160828096Y-54710222D01*
X160996072Y-54961614D01*
X161059528Y-55004014D01*
X167563315Y-61507802D01*
X167563315Y-61673874D01*
X167720884Y-62054280D01*
X168012035Y-62345431D01*
X168392441Y-62503000D01*
X168804189Y-62503000D01*
X169184595Y-62345431D01*
X169475746Y-62054280D01*
X169633315Y-61673874D01*
X169633315Y-61262126D01*
X169475746Y-60881720D01*
X169184595Y-60590569D01*
X168804189Y-60433000D01*
X168638117Y-60433000D01*
X162485271Y-54280155D01*
X162579000Y-54053874D01*
X162579000Y-53642126D01*
X162421431Y-53261720D01*
X162262708Y-53102997D01*
X162638280Y-52947431D01*
X162929431Y-52656280D01*
X163087000Y-52275874D01*
X163087000Y-51864126D01*
X162929431Y-51483720D01*
X162812000Y-51366289D01*
X162812000Y-49844801D01*
X163636802Y-49020000D01*
X164650289Y-49020000D01*
X164767720Y-49137431D01*
X165148126Y-49295000D01*
X165559874Y-49295000D01*
X165940280Y-49137431D01*
X166231431Y-48846280D01*
X166389000Y-48465874D01*
X166389000Y-48054126D01*
X166231431Y-47673720D01*
X165940280Y-47382569D01*
X165559874Y-47225000D01*
X165148126Y-47225000D01*
X164767720Y-47382569D01*
X164650289Y-47500000D01*
X163396846Y-47500000D01*
X163321999Y-47485112D01*
X163247152Y-47500000D01*
X151712846Y-47500000D01*
X151637999Y-47485112D01*
X151563152Y-47500000D01*
X151563148Y-47500000D01*
X151341463Y-47544096D01*
X151090071Y-47712071D01*
X151047671Y-47775527D01*
X149883528Y-48939671D01*
X149820072Y-48982071D01*
X149777672Y-49045527D01*
X149777671Y-49045528D01*
X149675980Y-49197720D01*
X149652097Y-49233463D01*
X149639857Y-49295000D01*
X149593112Y-49530000D01*
X149608001Y-49604852D01*
X149608000Y-60631153D01*
X149593112Y-60706000D01*
X149608000Y-60780847D01*
X149608000Y-60780851D01*
X149652096Y-61002536D01*
X149820071Y-61253929D01*
X149883530Y-61296331D01*
X154921000Y-66333803D01*
X154921000Y-66499874D01*
X155078569Y-66880280D01*
X155369720Y-67171431D01*
X155750126Y-67329000D01*
X156161874Y-67329000D01*
X156542280Y-67171431D01*
X156833431Y-66880280D01*
X156991000Y-66499874D01*
X156991000Y-66088126D01*
X156833431Y-65707720D01*
X156542280Y-65416569D01*
X156253614Y-65297000D01*
X156415874Y-65297000D01*
X156796280Y-65139431D01*
X157087431Y-64848280D01*
X157245000Y-64467874D01*
X157245000Y-64056126D01*
X157087431Y-63675720D01*
X156796280Y-63384569D01*
X156504918Y-63263883D01*
X157032802Y-62736000D01*
X158554289Y-62736000D01*
X158671720Y-62853431D01*
X159052126Y-63011000D01*
X159463874Y-63011000D01*
X159844280Y-62853431D01*
X160135431Y-62562280D01*
X160293000Y-62181874D01*
X160293000Y-61770126D01*
X160135431Y-61389720D01*
X159844280Y-61098569D01*
X159463874Y-60941000D01*
X159052126Y-60941000D01*
X158671720Y-61098569D01*
X158554289Y-61216000D01*
X156792846Y-61216000D01*
X156717999Y-61201112D01*
X156643152Y-61216000D01*
X156643148Y-61216000D01*
X156421463Y-61260096D01*
X156170071Y-61428071D01*
X156127671Y-61491527D01*
X155408199Y-62211000D01*
X155242126Y-62211000D01*
X155193533Y-62231128D01*
X155055431Y-61897720D01*
X154764280Y-61606569D01*
X154383874Y-61449000D01*
X153972126Y-61449000D01*
X153591720Y-61606569D01*
X153300569Y-61897720D01*
X153143000Y-62278126D01*
X153143000Y-62406198D01*
X151128000Y-60391199D01*
X151128000Y-49844801D01*
X151952802Y-49020000D01*
X156272289Y-49020000D01*
X156094569Y-49197720D01*
X155937000Y-49578126D01*
X155937000Y-49989874D01*
X156094569Y-50370280D01*
X156212000Y-50487711D01*
X156212001Y-53519148D01*
X156197112Y-53594000D01*
X156212001Y-53668852D01*
X156256097Y-53890537D01*
X156424072Y-54141929D01*
X156487528Y-54184329D01*
X156894199Y-54591000D01*
X156766126Y-54591000D01*
X156385720Y-54748569D01*
X156094569Y-55039720D01*
X155937000Y-55420126D01*
X155937000Y-55831874D01*
X156094569Y-56212280D01*
X156385720Y-56503431D01*
X156766126Y-56661000D01*
X157177874Y-56661000D01*
X157558280Y-56503431D01*
X157849431Y-56212280D01*
X158007000Y-55831874D01*
X158007000Y-55703801D01*
X166118000Y-63814802D01*
X166118001Y-69908288D01*
X166000569Y-70025720D01*
X165843000Y-70406126D01*
X165843000Y-70817874D01*
X166000569Y-71198280D01*
X166233686Y-71431397D01*
X166037720Y-71512569D01*
X165746569Y-71803720D01*
X165589000Y-72184126D01*
X165589000Y-72595874D01*
X165746569Y-72976280D01*
X165864000Y-73093711D01*
X165864001Y-76125148D01*
X165849112Y-76200000D01*
X165864001Y-76274852D01*
X165908097Y-76496537D01*
X166076072Y-76747929D01*
X166097000Y-76761913D01*
X166097000Y-76913874D01*
X166117763Y-76964000D01*
X161542237Y-76964000D01*
X161563000Y-76913874D01*
X161563000Y-76502126D01*
X161405431Y-76121720D01*
X161288000Y-76004289D01*
X161288000Y-71315711D01*
X161405431Y-71198280D01*
X161563000Y-70817874D01*
X161563000Y-70406126D01*
X161405431Y-70025720D01*
X161114280Y-69734569D01*
X160733874Y-69577000D01*
X160322126Y-69577000D01*
X160020000Y-69702144D01*
X159717874Y-69577000D01*
X159306126Y-69577000D01*
X158925720Y-69734569D01*
X158634569Y-70025720D01*
X158477000Y-70406126D01*
X158477000Y-70817874D01*
X158634569Y-71198280D01*
X158752000Y-71315711D01*
X158752001Y-75797316D01*
X158671720Y-75830569D01*
X158380569Y-76121720D01*
X158223000Y-76502126D01*
X158223000Y-76913874D01*
X158243763Y-76964000D01*
X155508802Y-76964000D01*
X153776928Y-75232126D01*
X154921000Y-75232126D01*
X154921000Y-75643874D01*
X155078569Y-76024280D01*
X155369720Y-76315431D01*
X155750126Y-76473000D01*
X156161874Y-76473000D01*
X156542280Y-76315431D01*
X156833431Y-76024280D01*
X156991000Y-75643874D01*
X156991000Y-75232126D01*
X156833431Y-74851720D01*
X156542280Y-74560569D01*
X156161874Y-74403000D01*
X155750126Y-74403000D01*
X155369720Y-74560569D01*
X155078569Y-74851720D01*
X154921000Y-75232126D01*
X153776928Y-75232126D01*
X148905330Y-70360529D01*
X148862928Y-70297070D01*
X148611536Y-70129095D01*
X148389851Y-70084999D01*
X148389846Y-70084999D01*
X148314999Y-70070111D01*
X148240152Y-70084999D01*
X143881746Y-70084999D01*
X143898839Y-70059418D01*
X144014092Y-69480000D01*
X143898839Y-68900582D01*
X143570625Y-68409375D01*
X143272239Y-68210000D01*
X143570625Y-68010625D01*
X143898839Y-67519418D01*
X143981445Y-67104126D01*
X152635000Y-67104126D01*
X152635000Y-67515874D01*
X152792569Y-67896280D01*
X153083720Y-68187431D01*
X153464126Y-68345000D01*
X153875874Y-68345000D01*
X154256280Y-68187431D01*
X154547431Y-67896280D01*
X154705000Y-67515874D01*
X154705000Y-67104126D01*
X154547431Y-66723720D01*
X154256280Y-66432569D01*
X153875874Y-66275000D01*
X153464126Y-66275000D01*
X153083720Y-66432569D01*
X152792569Y-66723720D01*
X152635000Y-67104126D01*
X143981445Y-67104126D01*
X144014092Y-66940000D01*
X143898839Y-66360582D01*
X143570625Y-65869375D01*
X143272239Y-65670000D01*
X143570625Y-65470625D01*
X143898839Y-64979418D01*
X144014092Y-64400000D01*
X143898839Y-63820582D01*
X143570625Y-63329375D01*
X143272239Y-63130000D01*
X143570625Y-62930625D01*
X143898839Y-62439418D01*
X144014092Y-61860000D01*
X143898839Y-61280582D01*
X143570625Y-60789375D01*
X143272239Y-60590000D01*
X143570625Y-60390625D01*
X143898839Y-59899418D01*
X144014092Y-59320000D01*
X143898839Y-58740582D01*
X143570625Y-58249375D01*
X143272239Y-58050000D01*
X143570625Y-57850625D01*
X143898839Y-57359418D01*
X144014092Y-56780000D01*
X143898839Y-56200582D01*
X143570625Y-55709375D01*
X143251522Y-55496157D01*
X143381358Y-55435183D01*
X143771645Y-55006924D01*
X143941476Y-54596890D01*
X143820155Y-54367000D01*
X142627000Y-54367000D01*
X142627000Y-54387000D01*
X142373000Y-54387000D01*
X142373000Y-54367000D01*
X142353000Y-54367000D01*
X142353000Y-54113000D01*
X142373000Y-54113000D01*
X142373000Y-52919181D01*
X142627000Y-52919181D01*
X142627000Y-54113000D01*
X143820155Y-54113000D01*
X143941476Y-53883110D01*
X143771645Y-53473076D01*
X143381358Y-53044817D01*
X142856892Y-52798514D01*
X142627000Y-52919181D01*
X142373000Y-52919181D01*
X142143108Y-52798514D01*
X141618642Y-53044817D01*
X141231353Y-53469786D01*
X141030625Y-53169375D01*
X140605028Y-52885000D01*
X141723046Y-52885000D01*
X143059062Y-52331604D01*
X144081604Y-51309062D01*
X144635000Y-49973046D01*
X144635000Y-48526954D01*
X144081604Y-47190938D01*
X143350666Y-46460000D01*
X187649334Y-46460000D01*
X186918396Y-47190938D01*
G36*
X138940938Y-52331604D02*
X139963106Y-52755000D01*
X139813744Y-52755000D01*
X139380582Y-52841161D01*
X138889375Y-53169375D01*
X138561161Y-53660582D01*
X138445908Y-54240000D01*
X138561161Y-54819418D01*
X138889375Y-55310625D01*
X139187761Y-55510000D01*
X138889375Y-55709375D01*
X138561161Y-56200582D01*
X138445908Y-56780000D01*
X138561161Y-57359418D01*
X138889375Y-57850625D01*
X139187761Y-58050000D01*
X138889375Y-58249375D01*
X138561161Y-58740582D01*
X138445908Y-59320000D01*
X138561161Y-59899418D01*
X138889375Y-60390625D01*
X139208478Y-60603843D01*
X139078642Y-60664817D01*
X138688355Y-61093076D01*
X138518524Y-61503110D01*
X138639845Y-61733000D01*
X139833000Y-61733000D01*
X139833000Y-61713000D01*
X140087000Y-61713000D01*
X140087000Y-61733000D01*
X140107000Y-61733000D01*
X140107000Y-61987000D01*
X140087000Y-61987000D01*
X140087000Y-62007000D01*
X139833000Y-62007000D01*
X139833000Y-61987000D01*
X138639845Y-61987000D01*
X138518524Y-62216890D01*
X138688355Y-62626924D01*
X139078642Y-63055183D01*
X139208478Y-63116157D01*
X138889375Y-63329375D01*
X138561161Y-63820582D01*
X138445908Y-64400000D01*
X138561161Y-64979418D01*
X138889375Y-65470625D01*
X139208478Y-65683843D01*
X139078642Y-65744817D01*
X138688355Y-66173076D01*
X138518524Y-66583110D01*
X138639845Y-66813000D01*
X139833000Y-66813000D01*
X139833000Y-66793000D01*
X140087000Y-66793000D01*
X140087000Y-66813000D01*
X140107000Y-66813000D01*
X140107000Y-67067000D01*
X140087000Y-67067000D01*
X140087000Y-67087000D01*
X139833000Y-67087000D01*
X139833000Y-67067000D01*
X138639845Y-67067000D01*
X138518524Y-67296890D01*
X138688355Y-67706924D01*
X139078642Y-68135183D01*
X139208478Y-68196157D01*
X138889375Y-68409375D01*
X138561161Y-68900582D01*
X138445908Y-69480000D01*
X138561161Y-70059418D01*
X138889375Y-70550625D01*
X139187761Y-70750000D01*
X138889375Y-70949375D01*
X138561161Y-71440582D01*
X138445908Y-72020000D01*
X138561161Y-72599418D01*
X138889375Y-73090625D01*
X139187761Y-73290000D01*
X138889375Y-73489375D01*
X138561161Y-73980582D01*
X138445908Y-74560000D01*
X138561161Y-75139418D01*
X138889375Y-75630625D01*
X139187761Y-75830000D01*
X138889375Y-76029375D01*
X138561161Y-76520582D01*
X138445908Y-77100000D01*
X138561161Y-77679418D01*
X138889375Y-78170625D01*
X139208478Y-78383843D01*
X139078642Y-78444817D01*
X138688355Y-78873076D01*
X138518524Y-79283110D01*
X138639845Y-79513000D01*
X139833000Y-79513000D01*
X139833000Y-79493000D01*
X140087000Y-79493000D01*
X140087000Y-79513000D01*
X140107000Y-79513000D01*
X140107000Y-79767000D01*
X140087000Y-79767000D01*
X140087000Y-79787000D01*
X139833000Y-79787000D01*
X139833000Y-79767000D01*
X138639845Y-79767000D01*
X138518524Y-79996890D01*
X138688355Y-80406924D01*
X139078642Y-80835183D01*
X139208478Y-80896157D01*
X138889375Y-81109375D01*
X138561161Y-81600582D01*
X138445908Y-82180000D01*
X138561161Y-82759418D01*
X138889375Y-83250625D01*
X139187761Y-83450000D01*
X138889375Y-83649375D01*
X138561161Y-84140582D01*
X138445908Y-84720000D01*
X138561161Y-85299418D01*
X138889375Y-85790625D01*
X139187761Y-85990000D01*
X138889375Y-86189375D01*
X138561161Y-86680582D01*
X138445908Y-87260000D01*
X138561161Y-87839418D01*
X138889375Y-88330625D01*
X139187761Y-88530000D01*
X138889375Y-88729375D01*
X138561161Y-89220582D01*
X138445908Y-89800000D01*
X138561161Y-90379418D01*
X138889375Y-90870625D01*
X139187761Y-91070000D01*
X138889375Y-91269375D01*
X138561161Y-91760582D01*
X138445908Y-92340000D01*
X138561161Y-92919418D01*
X138889375Y-93410625D01*
X139187761Y-93610000D01*
X138889375Y-93809375D01*
X138561161Y-94300582D01*
X138445908Y-94880000D01*
X138561161Y-95459418D01*
X138889375Y-95950625D01*
X139208478Y-96163843D01*
X139078642Y-96224817D01*
X138688355Y-96653076D01*
X138518524Y-97063110D01*
X138639845Y-97293000D01*
X139833000Y-97293000D01*
X139833000Y-97273000D01*
X140087000Y-97273000D01*
X140087000Y-97293000D01*
X140107000Y-97293000D01*
X140107000Y-97547000D01*
X140087000Y-97547000D01*
X140087000Y-97567000D01*
X139833000Y-97567000D01*
X139833000Y-97547000D01*
X138639845Y-97547000D01*
X138518524Y-97776890D01*
X138688355Y-98186924D01*
X139078642Y-98615183D01*
X139208478Y-98676157D01*
X138889375Y-98889375D01*
X138561161Y-99380582D01*
X138445908Y-99960000D01*
X138561161Y-100539418D01*
X138889375Y-101030625D01*
X139187761Y-101230000D01*
X138889375Y-101429375D01*
X138561161Y-101920582D01*
X138445908Y-102500000D01*
X138561161Y-103079418D01*
X138889375Y-103570625D01*
X139380582Y-103898839D01*
X139523213Y-103927210D01*
X138940938Y-104168396D01*
X138210000Y-104899334D01*
X138210000Y-51600666D01*
X138940938Y-52331604D01*
X138940938Y-52331604D01*
G37*
X138940938Y-52331604D02*
X139963106Y-52755000D01*
X139813744Y-52755000D01*
X139380582Y-52841161D01*
X138889375Y-53169375D01*
X138561161Y-53660582D01*
X138445908Y-54240000D01*
X138561161Y-54819418D01*
X138889375Y-55310625D01*
X139187761Y-55510000D01*
X138889375Y-55709375D01*
X138561161Y-56200582D01*
X138445908Y-56780000D01*
X138561161Y-57359418D01*
X138889375Y-57850625D01*
X139187761Y-58050000D01*
X138889375Y-58249375D01*
X138561161Y-58740582D01*
X138445908Y-59320000D01*
X138561161Y-59899418D01*
X138889375Y-60390625D01*
X139208478Y-60603843D01*
X139078642Y-60664817D01*
X138688355Y-61093076D01*
X138518524Y-61503110D01*
X138639845Y-61733000D01*
X139833000Y-61733000D01*
X139833000Y-61713000D01*
X140087000Y-61713000D01*
X140087000Y-61733000D01*
X140107000Y-61733000D01*
X140107000Y-61987000D01*
X140087000Y-61987000D01*
X140087000Y-62007000D01*
X139833000Y-62007000D01*
X139833000Y-61987000D01*
X138639845Y-61987000D01*
X138518524Y-62216890D01*
X138688355Y-62626924D01*
X139078642Y-63055183D01*
X139208478Y-63116157D01*
X138889375Y-63329375D01*
X138561161Y-63820582D01*
X138445908Y-64400000D01*
X138561161Y-64979418D01*
X138889375Y-65470625D01*
X139208478Y-65683843D01*
X139078642Y-65744817D01*
X138688355Y-66173076D01*
X138518524Y-66583110D01*
X138639845Y-66813000D01*
X139833000Y-66813000D01*
X139833000Y-66793000D01*
X140087000Y-66793000D01*
X140087000Y-66813000D01*
X140107000Y-66813000D01*
X140107000Y-67067000D01*
X140087000Y-67067000D01*
X140087000Y-67087000D01*
X139833000Y-67087000D01*
X139833000Y-67067000D01*
X138639845Y-67067000D01*
X138518524Y-67296890D01*
X138688355Y-67706924D01*
X139078642Y-68135183D01*
X139208478Y-68196157D01*
X138889375Y-68409375D01*
X138561161Y-68900582D01*
X138445908Y-69480000D01*
X138561161Y-70059418D01*
X138889375Y-70550625D01*
X139187761Y-70750000D01*
X138889375Y-70949375D01*
X138561161Y-71440582D01*
X138445908Y-72020000D01*
X138561161Y-72599418D01*
X138889375Y-73090625D01*
X139187761Y-73290000D01*
X138889375Y-73489375D01*
X138561161Y-73980582D01*
X138445908Y-74560000D01*
X138561161Y-75139418D01*
X138889375Y-75630625D01*
X139187761Y-75830000D01*
X138889375Y-76029375D01*
X138561161Y-76520582D01*
X138445908Y-77100000D01*
X138561161Y-77679418D01*
X138889375Y-78170625D01*
X139208478Y-78383843D01*
X139078642Y-78444817D01*
X138688355Y-78873076D01*
X138518524Y-79283110D01*
X138639845Y-79513000D01*
X139833000Y-79513000D01*
X139833000Y-79493000D01*
X140087000Y-79493000D01*
X140087000Y-79513000D01*
X140107000Y-79513000D01*
X140107000Y-79767000D01*
X140087000Y-79767000D01*
X140087000Y-79787000D01*
X139833000Y-79787000D01*
X139833000Y-79767000D01*
X138639845Y-79767000D01*
X138518524Y-79996890D01*
X138688355Y-80406924D01*
X139078642Y-80835183D01*
X139208478Y-80896157D01*
X138889375Y-81109375D01*
X138561161Y-81600582D01*
X138445908Y-82180000D01*
X138561161Y-82759418D01*
X138889375Y-83250625D01*
X139187761Y-83450000D01*
X138889375Y-83649375D01*
X138561161Y-84140582D01*
X138445908Y-84720000D01*
X138561161Y-85299418D01*
X138889375Y-85790625D01*
X139187761Y-85990000D01*
X138889375Y-86189375D01*
X138561161Y-86680582D01*
X138445908Y-87260000D01*
X138561161Y-87839418D01*
X138889375Y-88330625D01*
X139187761Y-88530000D01*
X138889375Y-88729375D01*
X138561161Y-89220582D01*
X138445908Y-89800000D01*
X138561161Y-90379418D01*
X138889375Y-90870625D01*
X139187761Y-91070000D01*
X138889375Y-91269375D01*
X138561161Y-91760582D01*
X138445908Y-92340000D01*
X138561161Y-92919418D01*
X138889375Y-93410625D01*
X139187761Y-93610000D01*
X138889375Y-93809375D01*
X138561161Y-94300582D01*
X138445908Y-94880000D01*
X138561161Y-95459418D01*
X138889375Y-95950625D01*
X139208478Y-96163843D01*
X139078642Y-96224817D01*
X138688355Y-96653076D01*
X138518524Y-97063110D01*
X138639845Y-97293000D01*
X139833000Y-97293000D01*
X139833000Y-97273000D01*
X140087000Y-97273000D01*
X140087000Y-97293000D01*
X140107000Y-97293000D01*
X140107000Y-97547000D01*
X140087000Y-97547000D01*
X140087000Y-97567000D01*
X139833000Y-97567000D01*
X139833000Y-97547000D01*
X138639845Y-97547000D01*
X138518524Y-97776890D01*
X138688355Y-98186924D01*
X139078642Y-98615183D01*
X139208478Y-98676157D01*
X138889375Y-98889375D01*
X138561161Y-99380582D01*
X138445908Y-99960000D01*
X138561161Y-100539418D01*
X138889375Y-101030625D01*
X139187761Y-101230000D01*
X138889375Y-101429375D01*
X138561161Y-101920582D01*
X138445908Y-102500000D01*
X138561161Y-103079418D01*
X138889375Y-103570625D01*
X139380582Y-103898839D01*
X139523213Y-103927210D01*
X138940938Y-104168396D01*
X138210000Y-104899334D01*
X138210000Y-51600666D01*
X138940938Y-52331604D01*
G36*
X150195199Y-73800000D02*
X143778178Y-73800000D01*
X143570625Y-73489375D01*
X143251522Y-73276157D01*
X143381358Y-73215183D01*
X143771645Y-72786924D01*
X143941476Y-72376890D01*
X143820155Y-72147000D01*
X142627000Y-72147000D01*
X142627000Y-72167000D01*
X142373000Y-72167000D01*
X142373000Y-72147000D01*
X142353000Y-72147000D01*
X142353000Y-71893000D01*
X142373000Y-71893000D01*
X142373000Y-71873000D01*
X142627000Y-71873000D01*
X142627000Y-71893000D01*
X143820155Y-71893000D01*
X143941476Y-71663110D01*
X143917407Y-71604999D01*
X148000198Y-71604999D01*
X150195199Y-73800000D01*
X150195199Y-73800000D01*
G37*
X150195199Y-73800000D02*
X143778178Y-73800000D01*
X143570625Y-73489375D01*
X143251522Y-73276157D01*
X143381358Y-73215183D01*
X143771645Y-72786924D01*
X143941476Y-72376890D01*
X143820155Y-72147000D01*
X142627000Y-72147000D01*
X142627000Y-72167000D01*
X142373000Y-72167000D01*
X142373000Y-72147000D01*
X142353000Y-72147000D01*
X142353000Y-71893000D01*
X142373000Y-71893000D01*
X142373000Y-71873000D01*
X142627000Y-71873000D01*
X142627000Y-71893000D01*
X143820155Y-71893000D01*
X143941476Y-71663110D01*
X143917407Y-71604999D01*
X148000198Y-71604999D01*
X150195199Y-73800000D01*
G04 #@! TD*
M02*
