G04 #@! TF.GenerationSoftware,KiCad,Pcbnew,6.0.0-rc1-unknown-46fddab~66~ubuntu16.04.1*
G04 #@! TF.CreationDate,2018-09-29T20:34:26+01:00*
G04 #@! TF.ProjectId,test,746573742E6B696361645F7063620000,rev?*
G04 #@! TF.SameCoordinates,Original*
G04 #@! TF.FileFunction,Paste,Top*
G04 #@! TF.FilePolarity,Positive*
%FSLAX46Y46*%
G04 Gerber Fmt 4.6, Leading zero omitted, Abs format (unit mm)*
G04 Created by KiCad (PCBNEW 6.0.0-rc1-unknown-46fddab~66~ubuntu16.04.1) date Sat Sep 29 20:34:26 2018*
%MOMM*%
%LPD*%
G01*
G04 APERTURE LIST*
%ADD10C,0.100000*%
%ADD11C,0.875000*%
%ADD12R,1.390000X0.580000*%
%ADD13C,1.150000*%
%ADD14C,0.975000*%
G04 APERTURE END LIST*
D10*
G04 #@! TO.C,C4*
G36*
X171918691Y-73440053D02*
X171939926Y-73443203D01*
X171960750Y-73448419D01*
X171980962Y-73455651D01*
X172000368Y-73464830D01*
X172018781Y-73475866D01*
X172036024Y-73488654D01*
X172051930Y-73503070D01*
X172066346Y-73518976D01*
X172079134Y-73536219D01*
X172090170Y-73554632D01*
X172099349Y-73574038D01*
X172106581Y-73594250D01*
X172111797Y-73615074D01*
X172114947Y-73636309D01*
X172116000Y-73657750D01*
X172116000Y-74170250D01*
X172114947Y-74191691D01*
X172111797Y-74212926D01*
X172106581Y-74233750D01*
X172099349Y-74253962D01*
X172090170Y-74273368D01*
X172079134Y-74291781D01*
X172066346Y-74309024D01*
X172051930Y-74324930D01*
X172036024Y-74339346D01*
X172018781Y-74352134D01*
X172000368Y-74363170D01*
X171980962Y-74372349D01*
X171960750Y-74379581D01*
X171939926Y-74384797D01*
X171918691Y-74387947D01*
X171897250Y-74389000D01*
X171459750Y-74389000D01*
X171438309Y-74387947D01*
X171417074Y-74384797D01*
X171396250Y-74379581D01*
X171376038Y-74372349D01*
X171356632Y-74363170D01*
X171338219Y-74352134D01*
X171320976Y-74339346D01*
X171305070Y-74324930D01*
X171290654Y-74309024D01*
X171277866Y-74291781D01*
X171266830Y-74273368D01*
X171257651Y-74253962D01*
X171250419Y-74233750D01*
X171245203Y-74212926D01*
X171242053Y-74191691D01*
X171241000Y-74170250D01*
X171241000Y-73657750D01*
X171242053Y-73636309D01*
X171245203Y-73615074D01*
X171250419Y-73594250D01*
X171257651Y-73574038D01*
X171266830Y-73554632D01*
X171277866Y-73536219D01*
X171290654Y-73518976D01*
X171305070Y-73503070D01*
X171320976Y-73488654D01*
X171338219Y-73475866D01*
X171356632Y-73464830D01*
X171376038Y-73455651D01*
X171396250Y-73448419D01*
X171417074Y-73443203D01*
X171438309Y-73440053D01*
X171459750Y-73439000D01*
X171897250Y-73439000D01*
X171918691Y-73440053D01*
X171918691Y-73440053D01*
G37*
D11*
X171678500Y-73914000D03*
D10*
G36*
X173493691Y-73440053D02*
X173514926Y-73443203D01*
X173535750Y-73448419D01*
X173555962Y-73455651D01*
X173575368Y-73464830D01*
X173593781Y-73475866D01*
X173611024Y-73488654D01*
X173626930Y-73503070D01*
X173641346Y-73518976D01*
X173654134Y-73536219D01*
X173665170Y-73554632D01*
X173674349Y-73574038D01*
X173681581Y-73594250D01*
X173686797Y-73615074D01*
X173689947Y-73636309D01*
X173691000Y-73657750D01*
X173691000Y-74170250D01*
X173689947Y-74191691D01*
X173686797Y-74212926D01*
X173681581Y-74233750D01*
X173674349Y-74253962D01*
X173665170Y-74273368D01*
X173654134Y-74291781D01*
X173641346Y-74309024D01*
X173626930Y-74324930D01*
X173611024Y-74339346D01*
X173593781Y-74352134D01*
X173575368Y-74363170D01*
X173555962Y-74372349D01*
X173535750Y-74379581D01*
X173514926Y-74384797D01*
X173493691Y-74387947D01*
X173472250Y-74389000D01*
X173034750Y-74389000D01*
X173013309Y-74387947D01*
X172992074Y-74384797D01*
X172971250Y-74379581D01*
X172951038Y-74372349D01*
X172931632Y-74363170D01*
X172913219Y-74352134D01*
X172895976Y-74339346D01*
X172880070Y-74324930D01*
X172865654Y-74309024D01*
X172852866Y-74291781D01*
X172841830Y-74273368D01*
X172832651Y-74253962D01*
X172825419Y-74233750D01*
X172820203Y-74212926D01*
X172817053Y-74191691D01*
X172816000Y-74170250D01*
X172816000Y-73657750D01*
X172817053Y-73636309D01*
X172820203Y-73615074D01*
X172825419Y-73594250D01*
X172832651Y-73574038D01*
X172841830Y-73554632D01*
X172852866Y-73536219D01*
X172865654Y-73518976D01*
X172880070Y-73503070D01*
X172895976Y-73488654D01*
X172913219Y-73475866D01*
X172931632Y-73464830D01*
X172951038Y-73455651D01*
X172971250Y-73448419D01*
X172992074Y-73443203D01*
X173013309Y-73440053D01*
X173034750Y-73439000D01*
X173472250Y-73439000D01*
X173493691Y-73440053D01*
X173493691Y-73440053D01*
G37*
D11*
X173253500Y-73914000D03*
G04 #@! TD*
D12*
G04 #@! TO.C,U4*
X171585000Y-76800000D03*
X171585000Y-77750000D03*
X171585000Y-78700000D03*
X173915000Y-78700000D03*
X173915000Y-76800000D03*
G04 #@! TD*
D10*
G04 #@! TO.C,D2*
G36*
X150824505Y-84551204D02*
X150848773Y-84554804D01*
X150872572Y-84560765D01*
X150895671Y-84569030D01*
X150917850Y-84579520D01*
X150938893Y-84592132D01*
X150958599Y-84606747D01*
X150976777Y-84623223D01*
X150993253Y-84641401D01*
X151007868Y-84661107D01*
X151020480Y-84682150D01*
X151030970Y-84704329D01*
X151039235Y-84727428D01*
X151045196Y-84751227D01*
X151048796Y-84775495D01*
X151050000Y-84799999D01*
X151050000Y-85700001D01*
X151048796Y-85724505D01*
X151045196Y-85748773D01*
X151039235Y-85772572D01*
X151030970Y-85795671D01*
X151020480Y-85817850D01*
X151007868Y-85838893D01*
X150993253Y-85858599D01*
X150976777Y-85876777D01*
X150958599Y-85893253D01*
X150938893Y-85907868D01*
X150917850Y-85920480D01*
X150895671Y-85930970D01*
X150872572Y-85939235D01*
X150848773Y-85945196D01*
X150824505Y-85948796D01*
X150800001Y-85950000D01*
X150149999Y-85950000D01*
X150125495Y-85948796D01*
X150101227Y-85945196D01*
X150077428Y-85939235D01*
X150054329Y-85930970D01*
X150032150Y-85920480D01*
X150011107Y-85907868D01*
X149991401Y-85893253D01*
X149973223Y-85876777D01*
X149956747Y-85858599D01*
X149942132Y-85838893D01*
X149929520Y-85817850D01*
X149919030Y-85795671D01*
X149910765Y-85772572D01*
X149904804Y-85748773D01*
X149901204Y-85724505D01*
X149900000Y-85700001D01*
X149900000Y-84799999D01*
X149901204Y-84775495D01*
X149904804Y-84751227D01*
X149910765Y-84727428D01*
X149919030Y-84704329D01*
X149929520Y-84682150D01*
X149942132Y-84661107D01*
X149956747Y-84641401D01*
X149973223Y-84623223D01*
X149991401Y-84606747D01*
X150011107Y-84592132D01*
X150032150Y-84579520D01*
X150054329Y-84569030D01*
X150077428Y-84560765D01*
X150101227Y-84554804D01*
X150125495Y-84551204D01*
X150149999Y-84550000D01*
X150800001Y-84550000D01*
X150824505Y-84551204D01*
X150824505Y-84551204D01*
G37*
D13*
X150475000Y-85250000D03*
D10*
G36*
X152874505Y-84551204D02*
X152898773Y-84554804D01*
X152922572Y-84560765D01*
X152945671Y-84569030D01*
X152967850Y-84579520D01*
X152988893Y-84592132D01*
X153008599Y-84606747D01*
X153026777Y-84623223D01*
X153043253Y-84641401D01*
X153057868Y-84661107D01*
X153070480Y-84682150D01*
X153080970Y-84704329D01*
X153089235Y-84727428D01*
X153095196Y-84751227D01*
X153098796Y-84775495D01*
X153100000Y-84799999D01*
X153100000Y-85700001D01*
X153098796Y-85724505D01*
X153095196Y-85748773D01*
X153089235Y-85772572D01*
X153080970Y-85795671D01*
X153070480Y-85817850D01*
X153057868Y-85838893D01*
X153043253Y-85858599D01*
X153026777Y-85876777D01*
X153008599Y-85893253D01*
X152988893Y-85907868D01*
X152967850Y-85920480D01*
X152945671Y-85930970D01*
X152922572Y-85939235D01*
X152898773Y-85945196D01*
X152874505Y-85948796D01*
X152850001Y-85950000D01*
X152199999Y-85950000D01*
X152175495Y-85948796D01*
X152151227Y-85945196D01*
X152127428Y-85939235D01*
X152104329Y-85930970D01*
X152082150Y-85920480D01*
X152061107Y-85907868D01*
X152041401Y-85893253D01*
X152023223Y-85876777D01*
X152006747Y-85858599D01*
X151992132Y-85838893D01*
X151979520Y-85817850D01*
X151969030Y-85795671D01*
X151960765Y-85772572D01*
X151954804Y-85748773D01*
X151951204Y-85724505D01*
X151950000Y-85700001D01*
X151950000Y-84799999D01*
X151951204Y-84775495D01*
X151954804Y-84751227D01*
X151960765Y-84727428D01*
X151969030Y-84704329D01*
X151979520Y-84682150D01*
X151992132Y-84661107D01*
X152006747Y-84641401D01*
X152023223Y-84623223D01*
X152041401Y-84606747D01*
X152061107Y-84592132D01*
X152082150Y-84579520D01*
X152104329Y-84569030D01*
X152127428Y-84560765D01*
X152151227Y-84554804D01*
X152175495Y-84551204D01*
X152199999Y-84550000D01*
X152850001Y-84550000D01*
X152874505Y-84551204D01*
X152874505Y-84551204D01*
G37*
D13*
X152525000Y-85250000D03*
G04 #@! TD*
D10*
G04 #@! TO.C,D3*
G36*
X152874505Y-92051204D02*
X152898773Y-92054804D01*
X152922572Y-92060765D01*
X152945671Y-92069030D01*
X152967850Y-92079520D01*
X152988893Y-92092132D01*
X153008599Y-92106747D01*
X153026777Y-92123223D01*
X153043253Y-92141401D01*
X153057868Y-92161107D01*
X153070480Y-92182150D01*
X153080970Y-92204329D01*
X153089235Y-92227428D01*
X153095196Y-92251227D01*
X153098796Y-92275495D01*
X153100000Y-92299999D01*
X153100000Y-93200001D01*
X153098796Y-93224505D01*
X153095196Y-93248773D01*
X153089235Y-93272572D01*
X153080970Y-93295671D01*
X153070480Y-93317850D01*
X153057868Y-93338893D01*
X153043253Y-93358599D01*
X153026777Y-93376777D01*
X153008599Y-93393253D01*
X152988893Y-93407868D01*
X152967850Y-93420480D01*
X152945671Y-93430970D01*
X152922572Y-93439235D01*
X152898773Y-93445196D01*
X152874505Y-93448796D01*
X152850001Y-93450000D01*
X152199999Y-93450000D01*
X152175495Y-93448796D01*
X152151227Y-93445196D01*
X152127428Y-93439235D01*
X152104329Y-93430970D01*
X152082150Y-93420480D01*
X152061107Y-93407868D01*
X152041401Y-93393253D01*
X152023223Y-93376777D01*
X152006747Y-93358599D01*
X151992132Y-93338893D01*
X151979520Y-93317850D01*
X151969030Y-93295671D01*
X151960765Y-93272572D01*
X151954804Y-93248773D01*
X151951204Y-93224505D01*
X151950000Y-93200001D01*
X151950000Y-92299999D01*
X151951204Y-92275495D01*
X151954804Y-92251227D01*
X151960765Y-92227428D01*
X151969030Y-92204329D01*
X151979520Y-92182150D01*
X151992132Y-92161107D01*
X152006747Y-92141401D01*
X152023223Y-92123223D01*
X152041401Y-92106747D01*
X152061107Y-92092132D01*
X152082150Y-92079520D01*
X152104329Y-92069030D01*
X152127428Y-92060765D01*
X152151227Y-92054804D01*
X152175495Y-92051204D01*
X152199999Y-92050000D01*
X152850001Y-92050000D01*
X152874505Y-92051204D01*
X152874505Y-92051204D01*
G37*
D13*
X152525000Y-92750000D03*
D10*
G36*
X150824505Y-92051204D02*
X150848773Y-92054804D01*
X150872572Y-92060765D01*
X150895671Y-92069030D01*
X150917850Y-92079520D01*
X150938893Y-92092132D01*
X150958599Y-92106747D01*
X150976777Y-92123223D01*
X150993253Y-92141401D01*
X151007868Y-92161107D01*
X151020480Y-92182150D01*
X151030970Y-92204329D01*
X151039235Y-92227428D01*
X151045196Y-92251227D01*
X151048796Y-92275495D01*
X151050000Y-92299999D01*
X151050000Y-93200001D01*
X151048796Y-93224505D01*
X151045196Y-93248773D01*
X151039235Y-93272572D01*
X151030970Y-93295671D01*
X151020480Y-93317850D01*
X151007868Y-93338893D01*
X150993253Y-93358599D01*
X150976777Y-93376777D01*
X150958599Y-93393253D01*
X150938893Y-93407868D01*
X150917850Y-93420480D01*
X150895671Y-93430970D01*
X150872572Y-93439235D01*
X150848773Y-93445196D01*
X150824505Y-93448796D01*
X150800001Y-93450000D01*
X150149999Y-93450000D01*
X150125495Y-93448796D01*
X150101227Y-93445196D01*
X150077428Y-93439235D01*
X150054329Y-93430970D01*
X150032150Y-93420480D01*
X150011107Y-93407868D01*
X149991401Y-93393253D01*
X149973223Y-93376777D01*
X149956747Y-93358599D01*
X149942132Y-93338893D01*
X149929520Y-93317850D01*
X149919030Y-93295671D01*
X149910765Y-93272572D01*
X149904804Y-93248773D01*
X149901204Y-93224505D01*
X149900000Y-93200001D01*
X149900000Y-92299999D01*
X149901204Y-92275495D01*
X149904804Y-92251227D01*
X149910765Y-92227428D01*
X149919030Y-92204329D01*
X149929520Y-92182150D01*
X149942132Y-92161107D01*
X149956747Y-92141401D01*
X149973223Y-92123223D01*
X149991401Y-92106747D01*
X150011107Y-92092132D01*
X150032150Y-92079520D01*
X150054329Y-92069030D01*
X150077428Y-92060765D01*
X150101227Y-92054804D01*
X150125495Y-92051204D01*
X150149999Y-92050000D01*
X150800001Y-92050000D01*
X150824505Y-92051204D01*
X150824505Y-92051204D01*
G37*
D13*
X150475000Y-92750000D03*
G04 #@! TD*
D10*
G04 #@! TO.C,R18*
G36*
X152955142Y-80801174D02*
X152978803Y-80804684D01*
X153002007Y-80810496D01*
X153024529Y-80818554D01*
X153046153Y-80828782D01*
X153066670Y-80841079D01*
X153085883Y-80855329D01*
X153103607Y-80871393D01*
X153119671Y-80889117D01*
X153133921Y-80908330D01*
X153146218Y-80928847D01*
X153156446Y-80950471D01*
X153164504Y-80972993D01*
X153170316Y-80996197D01*
X153173826Y-81019858D01*
X153175000Y-81043750D01*
X153175000Y-81956250D01*
X153173826Y-81980142D01*
X153170316Y-82003803D01*
X153164504Y-82027007D01*
X153156446Y-82049529D01*
X153146218Y-82071153D01*
X153133921Y-82091670D01*
X153119671Y-82110883D01*
X153103607Y-82128607D01*
X153085883Y-82144671D01*
X153066670Y-82158921D01*
X153046153Y-82171218D01*
X153024529Y-82181446D01*
X153002007Y-82189504D01*
X152978803Y-82195316D01*
X152955142Y-82198826D01*
X152931250Y-82200000D01*
X152443750Y-82200000D01*
X152419858Y-82198826D01*
X152396197Y-82195316D01*
X152372993Y-82189504D01*
X152350471Y-82181446D01*
X152328847Y-82171218D01*
X152308330Y-82158921D01*
X152289117Y-82144671D01*
X152271393Y-82128607D01*
X152255329Y-82110883D01*
X152241079Y-82091670D01*
X152228782Y-82071153D01*
X152218554Y-82049529D01*
X152210496Y-82027007D01*
X152204684Y-82003803D01*
X152201174Y-81980142D01*
X152200000Y-81956250D01*
X152200000Y-81043750D01*
X152201174Y-81019858D01*
X152204684Y-80996197D01*
X152210496Y-80972993D01*
X152218554Y-80950471D01*
X152228782Y-80928847D01*
X152241079Y-80908330D01*
X152255329Y-80889117D01*
X152271393Y-80871393D01*
X152289117Y-80855329D01*
X152308330Y-80841079D01*
X152328847Y-80828782D01*
X152350471Y-80818554D01*
X152372993Y-80810496D01*
X152396197Y-80804684D01*
X152419858Y-80801174D01*
X152443750Y-80800000D01*
X152931250Y-80800000D01*
X152955142Y-80801174D01*
X152955142Y-80801174D01*
G37*
D14*
X152687500Y-81500000D03*
D10*
G36*
X151080142Y-80801174D02*
X151103803Y-80804684D01*
X151127007Y-80810496D01*
X151149529Y-80818554D01*
X151171153Y-80828782D01*
X151191670Y-80841079D01*
X151210883Y-80855329D01*
X151228607Y-80871393D01*
X151244671Y-80889117D01*
X151258921Y-80908330D01*
X151271218Y-80928847D01*
X151281446Y-80950471D01*
X151289504Y-80972993D01*
X151295316Y-80996197D01*
X151298826Y-81019858D01*
X151300000Y-81043750D01*
X151300000Y-81956250D01*
X151298826Y-81980142D01*
X151295316Y-82003803D01*
X151289504Y-82027007D01*
X151281446Y-82049529D01*
X151271218Y-82071153D01*
X151258921Y-82091670D01*
X151244671Y-82110883D01*
X151228607Y-82128607D01*
X151210883Y-82144671D01*
X151191670Y-82158921D01*
X151171153Y-82171218D01*
X151149529Y-82181446D01*
X151127007Y-82189504D01*
X151103803Y-82195316D01*
X151080142Y-82198826D01*
X151056250Y-82200000D01*
X150568750Y-82200000D01*
X150544858Y-82198826D01*
X150521197Y-82195316D01*
X150497993Y-82189504D01*
X150475471Y-82181446D01*
X150453847Y-82171218D01*
X150433330Y-82158921D01*
X150414117Y-82144671D01*
X150396393Y-82128607D01*
X150380329Y-82110883D01*
X150366079Y-82091670D01*
X150353782Y-82071153D01*
X150343554Y-82049529D01*
X150335496Y-82027007D01*
X150329684Y-82003803D01*
X150326174Y-81980142D01*
X150325000Y-81956250D01*
X150325000Y-81043750D01*
X150326174Y-81019858D01*
X150329684Y-80996197D01*
X150335496Y-80972993D01*
X150343554Y-80950471D01*
X150353782Y-80928847D01*
X150366079Y-80908330D01*
X150380329Y-80889117D01*
X150396393Y-80871393D01*
X150414117Y-80855329D01*
X150433330Y-80841079D01*
X150453847Y-80828782D01*
X150475471Y-80818554D01*
X150497993Y-80810496D01*
X150521197Y-80804684D01*
X150544858Y-80801174D01*
X150568750Y-80800000D01*
X151056250Y-80800000D01*
X151080142Y-80801174D01*
X151080142Y-80801174D01*
G37*
D14*
X150812500Y-81500000D03*
G04 #@! TD*
D10*
G04 #@! TO.C,R19*
G36*
X150830142Y-88301174D02*
X150853803Y-88304684D01*
X150877007Y-88310496D01*
X150899529Y-88318554D01*
X150921153Y-88328782D01*
X150941670Y-88341079D01*
X150960883Y-88355329D01*
X150978607Y-88371393D01*
X150994671Y-88389117D01*
X151008921Y-88408330D01*
X151021218Y-88428847D01*
X151031446Y-88450471D01*
X151039504Y-88472993D01*
X151045316Y-88496197D01*
X151048826Y-88519858D01*
X151050000Y-88543750D01*
X151050000Y-89456250D01*
X151048826Y-89480142D01*
X151045316Y-89503803D01*
X151039504Y-89527007D01*
X151031446Y-89549529D01*
X151021218Y-89571153D01*
X151008921Y-89591670D01*
X150994671Y-89610883D01*
X150978607Y-89628607D01*
X150960883Y-89644671D01*
X150941670Y-89658921D01*
X150921153Y-89671218D01*
X150899529Y-89681446D01*
X150877007Y-89689504D01*
X150853803Y-89695316D01*
X150830142Y-89698826D01*
X150806250Y-89700000D01*
X150318750Y-89700000D01*
X150294858Y-89698826D01*
X150271197Y-89695316D01*
X150247993Y-89689504D01*
X150225471Y-89681446D01*
X150203847Y-89671218D01*
X150183330Y-89658921D01*
X150164117Y-89644671D01*
X150146393Y-89628607D01*
X150130329Y-89610883D01*
X150116079Y-89591670D01*
X150103782Y-89571153D01*
X150093554Y-89549529D01*
X150085496Y-89527007D01*
X150079684Y-89503803D01*
X150076174Y-89480142D01*
X150075000Y-89456250D01*
X150075000Y-88543750D01*
X150076174Y-88519858D01*
X150079684Y-88496197D01*
X150085496Y-88472993D01*
X150093554Y-88450471D01*
X150103782Y-88428847D01*
X150116079Y-88408330D01*
X150130329Y-88389117D01*
X150146393Y-88371393D01*
X150164117Y-88355329D01*
X150183330Y-88341079D01*
X150203847Y-88328782D01*
X150225471Y-88318554D01*
X150247993Y-88310496D01*
X150271197Y-88304684D01*
X150294858Y-88301174D01*
X150318750Y-88300000D01*
X150806250Y-88300000D01*
X150830142Y-88301174D01*
X150830142Y-88301174D01*
G37*
D14*
X150562500Y-89000000D03*
D10*
G36*
X152705142Y-88301174D02*
X152728803Y-88304684D01*
X152752007Y-88310496D01*
X152774529Y-88318554D01*
X152796153Y-88328782D01*
X152816670Y-88341079D01*
X152835883Y-88355329D01*
X152853607Y-88371393D01*
X152869671Y-88389117D01*
X152883921Y-88408330D01*
X152896218Y-88428847D01*
X152906446Y-88450471D01*
X152914504Y-88472993D01*
X152920316Y-88496197D01*
X152923826Y-88519858D01*
X152925000Y-88543750D01*
X152925000Y-89456250D01*
X152923826Y-89480142D01*
X152920316Y-89503803D01*
X152914504Y-89527007D01*
X152906446Y-89549529D01*
X152896218Y-89571153D01*
X152883921Y-89591670D01*
X152869671Y-89610883D01*
X152853607Y-89628607D01*
X152835883Y-89644671D01*
X152816670Y-89658921D01*
X152796153Y-89671218D01*
X152774529Y-89681446D01*
X152752007Y-89689504D01*
X152728803Y-89695316D01*
X152705142Y-89698826D01*
X152681250Y-89700000D01*
X152193750Y-89700000D01*
X152169858Y-89698826D01*
X152146197Y-89695316D01*
X152122993Y-89689504D01*
X152100471Y-89681446D01*
X152078847Y-89671218D01*
X152058330Y-89658921D01*
X152039117Y-89644671D01*
X152021393Y-89628607D01*
X152005329Y-89610883D01*
X151991079Y-89591670D01*
X151978782Y-89571153D01*
X151968554Y-89549529D01*
X151960496Y-89527007D01*
X151954684Y-89503803D01*
X151951174Y-89480142D01*
X151950000Y-89456250D01*
X151950000Y-88543750D01*
X151951174Y-88519858D01*
X151954684Y-88496197D01*
X151960496Y-88472993D01*
X151968554Y-88450471D01*
X151978782Y-88428847D01*
X151991079Y-88408330D01*
X152005329Y-88389117D01*
X152021393Y-88371393D01*
X152039117Y-88355329D01*
X152058330Y-88341079D01*
X152078847Y-88328782D01*
X152100471Y-88318554D01*
X152122993Y-88310496D01*
X152146197Y-88304684D01*
X152169858Y-88301174D01*
X152193750Y-88300000D01*
X152681250Y-88300000D01*
X152705142Y-88301174D01*
X152705142Y-88301174D01*
G37*
D14*
X152437500Y-89000000D03*
G04 #@! TD*
M02*
