G04 #@! TF.GenerationSoftware,KiCad,Pcbnew,6.0.0-rc1-unknown-46fddab~66~ubuntu16.04.1*
G04 #@! TF.CreationDate,2018-09-29T20:34:26+01:00*
G04 #@! TF.ProjectId,test,746573742E6B696361645F7063620000,rev?*
G04 #@! TF.SameCoordinates,Original*
G04 #@! TF.FileFunction,Soldermask,Bot*
G04 #@! TF.FilePolarity,Negative*
%FSLAX46Y46*%
G04 Gerber Fmt 4.6, Leading zero omitted, Abs format (unit mm)*
G04 Created by KiCad (PCBNEW 6.0.0-rc1-unknown-46fddab~66~ubuntu16.04.1) date Sat Sep 29 20:34:26 2018*
%MOMM*%
%LPD*%
G01*
G04 APERTURE LIST*
%ADD10C,0.100000*%
%ADD11C,1.375000*%
%ADD12C,6.400000*%
%ADD13C,1.275000*%
%ADD14R,1.300000X1.200000*%
%ADD15R,3.000000X2.400000*%
%ADD16O,3.000000X2.400000*%
%ADD17C,1.350000*%
%ADD18R,2.100000X2.100000*%
%ADD19O,2.100000X2.100000*%
%ADD20R,1.900000X1.000000*%
%ADD21R,1.000000X1.900000*%
G04 APERTURE END LIST*
D10*
G04 #@! TO.C,R37*
G36*
X185939943Y-53851655D02*
X185973312Y-53856605D01*
X186006035Y-53864802D01*
X186037797Y-53876166D01*
X186068293Y-53890590D01*
X186097227Y-53907932D01*
X186124323Y-53928028D01*
X186149318Y-53950682D01*
X186171972Y-53975677D01*
X186192068Y-54002773D01*
X186209410Y-54031707D01*
X186223834Y-54062203D01*
X186235198Y-54093965D01*
X186243395Y-54126688D01*
X186248345Y-54160057D01*
X186250000Y-54193750D01*
X186250000Y-55306250D01*
X186248345Y-55339943D01*
X186243395Y-55373312D01*
X186235198Y-55406035D01*
X186223834Y-55437797D01*
X186209410Y-55468293D01*
X186192068Y-55497227D01*
X186171972Y-55524323D01*
X186149318Y-55549318D01*
X186124323Y-55571972D01*
X186097227Y-55592068D01*
X186068293Y-55609410D01*
X186037797Y-55623834D01*
X186006035Y-55635198D01*
X185973312Y-55643395D01*
X185939943Y-55648345D01*
X185906250Y-55650000D01*
X185218750Y-55650000D01*
X185185057Y-55648345D01*
X185151688Y-55643395D01*
X185118965Y-55635198D01*
X185087203Y-55623834D01*
X185056707Y-55609410D01*
X185027773Y-55592068D01*
X185000677Y-55571972D01*
X184975682Y-55549318D01*
X184953028Y-55524323D01*
X184932932Y-55497227D01*
X184915590Y-55468293D01*
X184901166Y-55437797D01*
X184889802Y-55406035D01*
X184881605Y-55373312D01*
X184876655Y-55339943D01*
X184875000Y-55306250D01*
X184875000Y-54193750D01*
X184876655Y-54160057D01*
X184881605Y-54126688D01*
X184889802Y-54093965D01*
X184901166Y-54062203D01*
X184915590Y-54031707D01*
X184932932Y-54002773D01*
X184953028Y-53975677D01*
X184975682Y-53950682D01*
X185000677Y-53928028D01*
X185027773Y-53907932D01*
X185056707Y-53890590D01*
X185087203Y-53876166D01*
X185118965Y-53864802D01*
X185151688Y-53856605D01*
X185185057Y-53851655D01*
X185218750Y-53850000D01*
X185906250Y-53850000D01*
X185939943Y-53851655D01*
X185939943Y-53851655D01*
G37*
D11*
X185562500Y-54750000D03*
D10*
G36*
X187814943Y-53851655D02*
X187848312Y-53856605D01*
X187881035Y-53864802D01*
X187912797Y-53876166D01*
X187943293Y-53890590D01*
X187972227Y-53907932D01*
X187999323Y-53928028D01*
X188024318Y-53950682D01*
X188046972Y-53975677D01*
X188067068Y-54002773D01*
X188084410Y-54031707D01*
X188098834Y-54062203D01*
X188110198Y-54093965D01*
X188118395Y-54126688D01*
X188123345Y-54160057D01*
X188125000Y-54193750D01*
X188125000Y-55306250D01*
X188123345Y-55339943D01*
X188118395Y-55373312D01*
X188110198Y-55406035D01*
X188098834Y-55437797D01*
X188084410Y-55468293D01*
X188067068Y-55497227D01*
X188046972Y-55524323D01*
X188024318Y-55549318D01*
X187999323Y-55571972D01*
X187972227Y-55592068D01*
X187943293Y-55609410D01*
X187912797Y-55623834D01*
X187881035Y-55635198D01*
X187848312Y-55643395D01*
X187814943Y-55648345D01*
X187781250Y-55650000D01*
X187093750Y-55650000D01*
X187060057Y-55648345D01*
X187026688Y-55643395D01*
X186993965Y-55635198D01*
X186962203Y-55623834D01*
X186931707Y-55609410D01*
X186902773Y-55592068D01*
X186875677Y-55571972D01*
X186850682Y-55549318D01*
X186828028Y-55524323D01*
X186807932Y-55497227D01*
X186790590Y-55468293D01*
X186776166Y-55437797D01*
X186764802Y-55406035D01*
X186756605Y-55373312D01*
X186751655Y-55339943D01*
X186750000Y-55306250D01*
X186750000Y-54193750D01*
X186751655Y-54160057D01*
X186756605Y-54126688D01*
X186764802Y-54093965D01*
X186776166Y-54062203D01*
X186790590Y-54031707D01*
X186807932Y-54002773D01*
X186828028Y-53975677D01*
X186850682Y-53950682D01*
X186875677Y-53928028D01*
X186902773Y-53907932D01*
X186931707Y-53890590D01*
X186962203Y-53876166D01*
X186993965Y-53864802D01*
X187026688Y-53856605D01*
X187060057Y-53851655D01*
X187093750Y-53850000D01*
X187781250Y-53850000D01*
X187814943Y-53851655D01*
X187814943Y-53851655D01*
G37*
D11*
X187437500Y-54750000D03*
G04 #@! TD*
D12*
G04 #@! TO.C,REF\002A\002A*
X141000000Y-49250000D03*
G04 #@! TD*
G04 #@! TO.C,REF\002A\002A*
X190000000Y-49250000D03*
G04 #@! TD*
G04 #@! TO.C,REF\002A\002A*
X190000000Y-107250000D03*
G04 #@! TD*
G04 #@! TO.C,REF\002A\002A*
X141000000Y-107250000D03*
G04 #@! TD*
D10*
G04 #@! TO.C,C1*
G36*
X164459493Y-85178535D02*
X164490435Y-85183125D01*
X164520778Y-85190725D01*
X164550230Y-85201263D01*
X164578508Y-85214638D01*
X164605338Y-85230719D01*
X164630463Y-85249353D01*
X164653640Y-85270360D01*
X164674647Y-85293537D01*
X164693281Y-85318662D01*
X164709362Y-85345492D01*
X164722737Y-85373770D01*
X164733275Y-85403222D01*
X164740875Y-85433565D01*
X164745465Y-85464507D01*
X164747000Y-85495750D01*
X164747000Y-86208250D01*
X164745465Y-86239493D01*
X164740875Y-86270435D01*
X164733275Y-86300778D01*
X164722737Y-86330230D01*
X164709362Y-86358508D01*
X164693281Y-86385338D01*
X164674647Y-86410463D01*
X164653640Y-86433640D01*
X164630463Y-86454647D01*
X164605338Y-86473281D01*
X164578508Y-86489362D01*
X164550230Y-86502737D01*
X164520778Y-86513275D01*
X164490435Y-86520875D01*
X164459493Y-86525465D01*
X164428250Y-86527000D01*
X163790750Y-86527000D01*
X163759507Y-86525465D01*
X163728565Y-86520875D01*
X163698222Y-86513275D01*
X163668770Y-86502737D01*
X163640492Y-86489362D01*
X163613662Y-86473281D01*
X163588537Y-86454647D01*
X163565360Y-86433640D01*
X163544353Y-86410463D01*
X163525719Y-86385338D01*
X163509638Y-86358508D01*
X163496263Y-86330230D01*
X163485725Y-86300778D01*
X163478125Y-86270435D01*
X163473535Y-86239493D01*
X163472000Y-86208250D01*
X163472000Y-85495750D01*
X163473535Y-85464507D01*
X163478125Y-85433565D01*
X163485725Y-85403222D01*
X163496263Y-85373770D01*
X163509638Y-85345492D01*
X163525719Y-85318662D01*
X163544353Y-85293537D01*
X163565360Y-85270360D01*
X163588537Y-85249353D01*
X163613662Y-85230719D01*
X163640492Y-85214638D01*
X163668770Y-85201263D01*
X163698222Y-85190725D01*
X163728565Y-85183125D01*
X163759507Y-85178535D01*
X163790750Y-85177000D01*
X164428250Y-85177000D01*
X164459493Y-85178535D01*
X164459493Y-85178535D01*
G37*
D13*
X164109500Y-85852000D03*
D10*
G36*
X162884493Y-85178535D02*
X162915435Y-85183125D01*
X162945778Y-85190725D01*
X162975230Y-85201263D01*
X163003508Y-85214638D01*
X163030338Y-85230719D01*
X163055463Y-85249353D01*
X163078640Y-85270360D01*
X163099647Y-85293537D01*
X163118281Y-85318662D01*
X163134362Y-85345492D01*
X163147737Y-85373770D01*
X163158275Y-85403222D01*
X163165875Y-85433565D01*
X163170465Y-85464507D01*
X163172000Y-85495750D01*
X163172000Y-86208250D01*
X163170465Y-86239493D01*
X163165875Y-86270435D01*
X163158275Y-86300778D01*
X163147737Y-86330230D01*
X163134362Y-86358508D01*
X163118281Y-86385338D01*
X163099647Y-86410463D01*
X163078640Y-86433640D01*
X163055463Y-86454647D01*
X163030338Y-86473281D01*
X163003508Y-86489362D01*
X162975230Y-86502737D01*
X162945778Y-86513275D01*
X162915435Y-86520875D01*
X162884493Y-86525465D01*
X162853250Y-86527000D01*
X162215750Y-86527000D01*
X162184507Y-86525465D01*
X162153565Y-86520875D01*
X162123222Y-86513275D01*
X162093770Y-86502737D01*
X162065492Y-86489362D01*
X162038662Y-86473281D01*
X162013537Y-86454647D01*
X161990360Y-86433640D01*
X161969353Y-86410463D01*
X161950719Y-86385338D01*
X161934638Y-86358508D01*
X161921263Y-86330230D01*
X161910725Y-86300778D01*
X161903125Y-86270435D01*
X161898535Y-86239493D01*
X161897000Y-86208250D01*
X161897000Y-85495750D01*
X161898535Y-85464507D01*
X161903125Y-85433565D01*
X161910725Y-85403222D01*
X161921263Y-85373770D01*
X161934638Y-85345492D01*
X161950719Y-85318662D01*
X161969353Y-85293537D01*
X161990360Y-85270360D01*
X162013537Y-85249353D01*
X162038662Y-85230719D01*
X162065492Y-85214638D01*
X162093770Y-85201263D01*
X162123222Y-85190725D01*
X162153565Y-85183125D01*
X162184507Y-85178535D01*
X162215750Y-85177000D01*
X162853250Y-85177000D01*
X162884493Y-85178535D01*
X162884493Y-85178535D01*
G37*
D13*
X162534500Y-85852000D03*
G04 #@! TD*
D10*
G04 #@! TO.C,C2*
G36*
X154057493Y-70001535D02*
X154088435Y-70006125D01*
X154118778Y-70013725D01*
X154148230Y-70024263D01*
X154176508Y-70037638D01*
X154203338Y-70053719D01*
X154228463Y-70072353D01*
X154251640Y-70093360D01*
X154272647Y-70116537D01*
X154291281Y-70141662D01*
X154307362Y-70168492D01*
X154320737Y-70196770D01*
X154331275Y-70226222D01*
X154338875Y-70256565D01*
X154343465Y-70287507D01*
X154345000Y-70318750D01*
X154345000Y-70956250D01*
X154343465Y-70987493D01*
X154338875Y-71018435D01*
X154331275Y-71048778D01*
X154320737Y-71078230D01*
X154307362Y-71106508D01*
X154291281Y-71133338D01*
X154272647Y-71158463D01*
X154251640Y-71181640D01*
X154228463Y-71202647D01*
X154203338Y-71221281D01*
X154176508Y-71237362D01*
X154148230Y-71250737D01*
X154118778Y-71261275D01*
X154088435Y-71268875D01*
X154057493Y-71273465D01*
X154026250Y-71275000D01*
X153313750Y-71275000D01*
X153282507Y-71273465D01*
X153251565Y-71268875D01*
X153221222Y-71261275D01*
X153191770Y-71250737D01*
X153163492Y-71237362D01*
X153136662Y-71221281D01*
X153111537Y-71202647D01*
X153088360Y-71181640D01*
X153067353Y-71158463D01*
X153048719Y-71133338D01*
X153032638Y-71106508D01*
X153019263Y-71078230D01*
X153008725Y-71048778D01*
X153001125Y-71018435D01*
X152996535Y-70987493D01*
X152995000Y-70956250D01*
X152995000Y-70318750D01*
X152996535Y-70287507D01*
X153001125Y-70256565D01*
X153008725Y-70226222D01*
X153019263Y-70196770D01*
X153032638Y-70168492D01*
X153048719Y-70141662D01*
X153067353Y-70116537D01*
X153088360Y-70093360D01*
X153111537Y-70072353D01*
X153136662Y-70053719D01*
X153163492Y-70037638D01*
X153191770Y-70024263D01*
X153221222Y-70013725D01*
X153251565Y-70006125D01*
X153282507Y-70001535D01*
X153313750Y-70000000D01*
X154026250Y-70000000D01*
X154057493Y-70001535D01*
X154057493Y-70001535D01*
G37*
D13*
X153670000Y-70637500D03*
D10*
G36*
X154057493Y-68426535D02*
X154088435Y-68431125D01*
X154118778Y-68438725D01*
X154148230Y-68449263D01*
X154176508Y-68462638D01*
X154203338Y-68478719D01*
X154228463Y-68497353D01*
X154251640Y-68518360D01*
X154272647Y-68541537D01*
X154291281Y-68566662D01*
X154307362Y-68593492D01*
X154320737Y-68621770D01*
X154331275Y-68651222D01*
X154338875Y-68681565D01*
X154343465Y-68712507D01*
X154345000Y-68743750D01*
X154345000Y-69381250D01*
X154343465Y-69412493D01*
X154338875Y-69443435D01*
X154331275Y-69473778D01*
X154320737Y-69503230D01*
X154307362Y-69531508D01*
X154291281Y-69558338D01*
X154272647Y-69583463D01*
X154251640Y-69606640D01*
X154228463Y-69627647D01*
X154203338Y-69646281D01*
X154176508Y-69662362D01*
X154148230Y-69675737D01*
X154118778Y-69686275D01*
X154088435Y-69693875D01*
X154057493Y-69698465D01*
X154026250Y-69700000D01*
X153313750Y-69700000D01*
X153282507Y-69698465D01*
X153251565Y-69693875D01*
X153221222Y-69686275D01*
X153191770Y-69675737D01*
X153163492Y-69662362D01*
X153136662Y-69646281D01*
X153111537Y-69627647D01*
X153088360Y-69606640D01*
X153067353Y-69583463D01*
X153048719Y-69558338D01*
X153032638Y-69531508D01*
X153019263Y-69503230D01*
X153008725Y-69473778D01*
X153001125Y-69443435D01*
X152996535Y-69412493D01*
X152995000Y-69381250D01*
X152995000Y-68743750D01*
X152996535Y-68712507D01*
X153001125Y-68681565D01*
X153008725Y-68651222D01*
X153019263Y-68621770D01*
X153032638Y-68593492D01*
X153048719Y-68566662D01*
X153067353Y-68541537D01*
X153088360Y-68518360D01*
X153111537Y-68497353D01*
X153136662Y-68478719D01*
X153163492Y-68462638D01*
X153191770Y-68449263D01*
X153221222Y-68438725D01*
X153251565Y-68431125D01*
X153282507Y-68426535D01*
X153313750Y-68425000D01*
X154026250Y-68425000D01*
X154057493Y-68426535D01*
X154057493Y-68426535D01*
G37*
D13*
X153670000Y-69062500D03*
G04 #@! TD*
D10*
G04 #@! TO.C,C3*
G36*
X161614493Y-62064535D02*
X161645435Y-62069125D01*
X161675778Y-62076725D01*
X161705230Y-62087263D01*
X161733508Y-62100638D01*
X161760338Y-62116719D01*
X161785463Y-62135353D01*
X161808640Y-62156360D01*
X161829647Y-62179537D01*
X161848281Y-62204662D01*
X161864362Y-62231492D01*
X161877737Y-62259770D01*
X161888275Y-62289222D01*
X161895875Y-62319565D01*
X161900465Y-62350507D01*
X161902000Y-62381750D01*
X161902000Y-63094250D01*
X161900465Y-63125493D01*
X161895875Y-63156435D01*
X161888275Y-63186778D01*
X161877737Y-63216230D01*
X161864362Y-63244508D01*
X161848281Y-63271338D01*
X161829647Y-63296463D01*
X161808640Y-63319640D01*
X161785463Y-63340647D01*
X161760338Y-63359281D01*
X161733508Y-63375362D01*
X161705230Y-63388737D01*
X161675778Y-63399275D01*
X161645435Y-63406875D01*
X161614493Y-63411465D01*
X161583250Y-63413000D01*
X160945750Y-63413000D01*
X160914507Y-63411465D01*
X160883565Y-63406875D01*
X160853222Y-63399275D01*
X160823770Y-63388737D01*
X160795492Y-63375362D01*
X160768662Y-63359281D01*
X160743537Y-63340647D01*
X160720360Y-63319640D01*
X160699353Y-63296463D01*
X160680719Y-63271338D01*
X160664638Y-63244508D01*
X160651263Y-63216230D01*
X160640725Y-63186778D01*
X160633125Y-63156435D01*
X160628535Y-63125493D01*
X160627000Y-63094250D01*
X160627000Y-62381750D01*
X160628535Y-62350507D01*
X160633125Y-62319565D01*
X160640725Y-62289222D01*
X160651263Y-62259770D01*
X160664638Y-62231492D01*
X160680719Y-62204662D01*
X160699353Y-62179537D01*
X160720360Y-62156360D01*
X160743537Y-62135353D01*
X160768662Y-62116719D01*
X160795492Y-62100638D01*
X160823770Y-62087263D01*
X160853222Y-62076725D01*
X160883565Y-62069125D01*
X160914507Y-62064535D01*
X160945750Y-62063000D01*
X161583250Y-62063000D01*
X161614493Y-62064535D01*
X161614493Y-62064535D01*
G37*
D13*
X161264500Y-62738000D03*
D10*
G36*
X163189493Y-62064535D02*
X163220435Y-62069125D01*
X163250778Y-62076725D01*
X163280230Y-62087263D01*
X163308508Y-62100638D01*
X163335338Y-62116719D01*
X163360463Y-62135353D01*
X163383640Y-62156360D01*
X163404647Y-62179537D01*
X163423281Y-62204662D01*
X163439362Y-62231492D01*
X163452737Y-62259770D01*
X163463275Y-62289222D01*
X163470875Y-62319565D01*
X163475465Y-62350507D01*
X163477000Y-62381750D01*
X163477000Y-63094250D01*
X163475465Y-63125493D01*
X163470875Y-63156435D01*
X163463275Y-63186778D01*
X163452737Y-63216230D01*
X163439362Y-63244508D01*
X163423281Y-63271338D01*
X163404647Y-63296463D01*
X163383640Y-63319640D01*
X163360463Y-63340647D01*
X163335338Y-63359281D01*
X163308508Y-63375362D01*
X163280230Y-63388737D01*
X163250778Y-63399275D01*
X163220435Y-63406875D01*
X163189493Y-63411465D01*
X163158250Y-63413000D01*
X162520750Y-63413000D01*
X162489507Y-63411465D01*
X162458565Y-63406875D01*
X162428222Y-63399275D01*
X162398770Y-63388737D01*
X162370492Y-63375362D01*
X162343662Y-63359281D01*
X162318537Y-63340647D01*
X162295360Y-63319640D01*
X162274353Y-63296463D01*
X162255719Y-63271338D01*
X162239638Y-63244508D01*
X162226263Y-63216230D01*
X162215725Y-63186778D01*
X162208125Y-63156435D01*
X162203535Y-63125493D01*
X162202000Y-63094250D01*
X162202000Y-62381750D01*
X162203535Y-62350507D01*
X162208125Y-62319565D01*
X162215725Y-62289222D01*
X162226263Y-62259770D01*
X162239638Y-62231492D01*
X162255719Y-62204662D01*
X162274353Y-62179537D01*
X162295360Y-62156360D01*
X162318537Y-62135353D01*
X162343662Y-62116719D01*
X162370492Y-62100638D01*
X162398770Y-62087263D01*
X162428222Y-62076725D01*
X162458565Y-62069125D01*
X162489507Y-62064535D01*
X162520750Y-62063000D01*
X163158250Y-62063000D01*
X163189493Y-62064535D01*
X163189493Y-62064535D01*
G37*
D13*
X162839500Y-62738000D03*
G04 #@! TD*
D14*
G04 #@! TO.C,D1*
X156226000Y-105852000D03*
X156226000Y-103952000D03*
X158226000Y-104902000D03*
G04 #@! TD*
D15*
G04 #@! TO.C,J1*
X181610000Y-100330000D03*
D16*
X181610000Y-96830000D03*
X181610000Y-93330000D03*
X181610000Y-89830000D03*
X181610000Y-86330000D03*
X181610000Y-82830000D03*
X181610000Y-79330000D03*
X181610000Y-75830000D03*
X181610000Y-72330000D03*
X181610000Y-68830000D03*
X181610000Y-65330000D03*
X181610000Y-61830000D03*
X181610000Y-58330000D03*
X181610000Y-54830000D03*
G04 #@! TD*
D10*
G04 #@! TO.C,R1*
G36*
X151682943Y-102733655D02*
X151716312Y-102738605D01*
X151749035Y-102746802D01*
X151780797Y-102758166D01*
X151811293Y-102772590D01*
X151840227Y-102789932D01*
X151867323Y-102810028D01*
X151892318Y-102832682D01*
X151914972Y-102857677D01*
X151935068Y-102884773D01*
X151952410Y-102913707D01*
X151966834Y-102944203D01*
X151978198Y-102975965D01*
X151986395Y-103008688D01*
X151991345Y-103042057D01*
X151993000Y-103075750D01*
X151993000Y-104188250D01*
X151991345Y-104221943D01*
X151986395Y-104255312D01*
X151978198Y-104288035D01*
X151966834Y-104319797D01*
X151952410Y-104350293D01*
X151935068Y-104379227D01*
X151914972Y-104406323D01*
X151892318Y-104431318D01*
X151867323Y-104453972D01*
X151840227Y-104474068D01*
X151811293Y-104491410D01*
X151780797Y-104505834D01*
X151749035Y-104517198D01*
X151716312Y-104525395D01*
X151682943Y-104530345D01*
X151649250Y-104532000D01*
X150961750Y-104532000D01*
X150928057Y-104530345D01*
X150894688Y-104525395D01*
X150861965Y-104517198D01*
X150830203Y-104505834D01*
X150799707Y-104491410D01*
X150770773Y-104474068D01*
X150743677Y-104453972D01*
X150718682Y-104431318D01*
X150696028Y-104406323D01*
X150675932Y-104379227D01*
X150658590Y-104350293D01*
X150644166Y-104319797D01*
X150632802Y-104288035D01*
X150624605Y-104255312D01*
X150619655Y-104221943D01*
X150618000Y-104188250D01*
X150618000Y-103075750D01*
X150619655Y-103042057D01*
X150624605Y-103008688D01*
X150632802Y-102975965D01*
X150644166Y-102944203D01*
X150658590Y-102913707D01*
X150675932Y-102884773D01*
X150696028Y-102857677D01*
X150718682Y-102832682D01*
X150743677Y-102810028D01*
X150770773Y-102789932D01*
X150799707Y-102772590D01*
X150830203Y-102758166D01*
X150861965Y-102746802D01*
X150894688Y-102738605D01*
X150928057Y-102733655D01*
X150961750Y-102732000D01*
X151649250Y-102732000D01*
X151682943Y-102733655D01*
X151682943Y-102733655D01*
G37*
D11*
X151305500Y-103632000D03*
D10*
G36*
X149807943Y-102733655D02*
X149841312Y-102738605D01*
X149874035Y-102746802D01*
X149905797Y-102758166D01*
X149936293Y-102772590D01*
X149965227Y-102789932D01*
X149992323Y-102810028D01*
X150017318Y-102832682D01*
X150039972Y-102857677D01*
X150060068Y-102884773D01*
X150077410Y-102913707D01*
X150091834Y-102944203D01*
X150103198Y-102975965D01*
X150111395Y-103008688D01*
X150116345Y-103042057D01*
X150118000Y-103075750D01*
X150118000Y-104188250D01*
X150116345Y-104221943D01*
X150111395Y-104255312D01*
X150103198Y-104288035D01*
X150091834Y-104319797D01*
X150077410Y-104350293D01*
X150060068Y-104379227D01*
X150039972Y-104406323D01*
X150017318Y-104431318D01*
X149992323Y-104453972D01*
X149965227Y-104474068D01*
X149936293Y-104491410D01*
X149905797Y-104505834D01*
X149874035Y-104517198D01*
X149841312Y-104525395D01*
X149807943Y-104530345D01*
X149774250Y-104532000D01*
X149086750Y-104532000D01*
X149053057Y-104530345D01*
X149019688Y-104525395D01*
X148986965Y-104517198D01*
X148955203Y-104505834D01*
X148924707Y-104491410D01*
X148895773Y-104474068D01*
X148868677Y-104453972D01*
X148843682Y-104431318D01*
X148821028Y-104406323D01*
X148800932Y-104379227D01*
X148783590Y-104350293D01*
X148769166Y-104319797D01*
X148757802Y-104288035D01*
X148749605Y-104255312D01*
X148744655Y-104221943D01*
X148743000Y-104188250D01*
X148743000Y-103075750D01*
X148744655Y-103042057D01*
X148749605Y-103008688D01*
X148757802Y-102975965D01*
X148769166Y-102944203D01*
X148783590Y-102913707D01*
X148800932Y-102884773D01*
X148821028Y-102857677D01*
X148843682Y-102832682D01*
X148868677Y-102810028D01*
X148895773Y-102789932D01*
X148924707Y-102772590D01*
X148955203Y-102758166D01*
X148986965Y-102746802D01*
X149019688Y-102738605D01*
X149053057Y-102733655D01*
X149086750Y-102732000D01*
X149774250Y-102732000D01*
X149807943Y-102733655D01*
X149807943Y-102733655D01*
G37*
D11*
X149430500Y-103632000D03*
G04 #@! TD*
D10*
G04 #@! TO.C,R2*
G36*
X152089943Y-98251655D02*
X152123312Y-98256605D01*
X152156035Y-98264802D01*
X152187797Y-98276166D01*
X152218293Y-98290590D01*
X152247227Y-98307932D01*
X152274323Y-98328028D01*
X152299318Y-98350682D01*
X152321972Y-98375677D01*
X152342068Y-98402773D01*
X152359410Y-98431707D01*
X152373834Y-98462203D01*
X152385198Y-98493965D01*
X152393395Y-98526688D01*
X152398345Y-98560057D01*
X152400000Y-98593750D01*
X152400000Y-99281250D01*
X152398345Y-99314943D01*
X152393395Y-99348312D01*
X152385198Y-99381035D01*
X152373834Y-99412797D01*
X152359410Y-99443293D01*
X152342068Y-99472227D01*
X152321972Y-99499323D01*
X152299318Y-99524318D01*
X152274323Y-99546972D01*
X152247227Y-99567068D01*
X152218293Y-99584410D01*
X152187797Y-99598834D01*
X152156035Y-99610198D01*
X152123312Y-99618395D01*
X152089943Y-99623345D01*
X152056250Y-99625000D01*
X150943750Y-99625000D01*
X150910057Y-99623345D01*
X150876688Y-99618395D01*
X150843965Y-99610198D01*
X150812203Y-99598834D01*
X150781707Y-99584410D01*
X150752773Y-99567068D01*
X150725677Y-99546972D01*
X150700682Y-99524318D01*
X150678028Y-99499323D01*
X150657932Y-99472227D01*
X150640590Y-99443293D01*
X150626166Y-99412797D01*
X150614802Y-99381035D01*
X150606605Y-99348312D01*
X150601655Y-99314943D01*
X150600000Y-99281250D01*
X150600000Y-98593750D01*
X150601655Y-98560057D01*
X150606605Y-98526688D01*
X150614802Y-98493965D01*
X150626166Y-98462203D01*
X150640590Y-98431707D01*
X150657932Y-98402773D01*
X150678028Y-98375677D01*
X150700682Y-98350682D01*
X150725677Y-98328028D01*
X150752773Y-98307932D01*
X150781707Y-98290590D01*
X150812203Y-98276166D01*
X150843965Y-98264802D01*
X150876688Y-98256605D01*
X150910057Y-98251655D01*
X150943750Y-98250000D01*
X152056250Y-98250000D01*
X152089943Y-98251655D01*
X152089943Y-98251655D01*
G37*
D11*
X151500000Y-98937500D03*
D10*
G36*
X152089943Y-96376655D02*
X152123312Y-96381605D01*
X152156035Y-96389802D01*
X152187797Y-96401166D01*
X152218293Y-96415590D01*
X152247227Y-96432932D01*
X152274323Y-96453028D01*
X152299318Y-96475682D01*
X152321972Y-96500677D01*
X152342068Y-96527773D01*
X152359410Y-96556707D01*
X152373834Y-96587203D01*
X152385198Y-96618965D01*
X152393395Y-96651688D01*
X152398345Y-96685057D01*
X152400000Y-96718750D01*
X152400000Y-97406250D01*
X152398345Y-97439943D01*
X152393395Y-97473312D01*
X152385198Y-97506035D01*
X152373834Y-97537797D01*
X152359410Y-97568293D01*
X152342068Y-97597227D01*
X152321972Y-97624323D01*
X152299318Y-97649318D01*
X152274323Y-97671972D01*
X152247227Y-97692068D01*
X152218293Y-97709410D01*
X152187797Y-97723834D01*
X152156035Y-97735198D01*
X152123312Y-97743395D01*
X152089943Y-97748345D01*
X152056250Y-97750000D01*
X150943750Y-97750000D01*
X150910057Y-97748345D01*
X150876688Y-97743395D01*
X150843965Y-97735198D01*
X150812203Y-97723834D01*
X150781707Y-97709410D01*
X150752773Y-97692068D01*
X150725677Y-97671972D01*
X150700682Y-97649318D01*
X150678028Y-97624323D01*
X150657932Y-97597227D01*
X150640590Y-97568293D01*
X150626166Y-97537797D01*
X150614802Y-97506035D01*
X150606605Y-97473312D01*
X150601655Y-97439943D01*
X150600000Y-97406250D01*
X150600000Y-96718750D01*
X150601655Y-96685057D01*
X150606605Y-96651688D01*
X150614802Y-96618965D01*
X150626166Y-96587203D01*
X150640590Y-96556707D01*
X150657932Y-96527773D01*
X150678028Y-96500677D01*
X150700682Y-96475682D01*
X150725677Y-96453028D01*
X150752773Y-96432932D01*
X150781707Y-96415590D01*
X150812203Y-96401166D01*
X150843965Y-96389802D01*
X150876688Y-96381605D01*
X150910057Y-96376655D01*
X150943750Y-96375000D01*
X152056250Y-96375000D01*
X152089943Y-96376655D01*
X152089943Y-96376655D01*
G37*
D11*
X151500000Y-97062500D03*
G04 #@! TD*
D10*
G04 #@! TO.C,R3*
G36*
X156799943Y-96420655D02*
X156833312Y-96425605D01*
X156866035Y-96433802D01*
X156897797Y-96445166D01*
X156928293Y-96459590D01*
X156957227Y-96476932D01*
X156984323Y-96497028D01*
X157009318Y-96519682D01*
X157031972Y-96544677D01*
X157052068Y-96571773D01*
X157069410Y-96600707D01*
X157083834Y-96631203D01*
X157095198Y-96662965D01*
X157103395Y-96695688D01*
X157108345Y-96729057D01*
X157110000Y-96762750D01*
X157110000Y-97450250D01*
X157108345Y-97483943D01*
X157103395Y-97517312D01*
X157095198Y-97550035D01*
X157083834Y-97581797D01*
X157069410Y-97612293D01*
X157052068Y-97641227D01*
X157031972Y-97668323D01*
X157009318Y-97693318D01*
X156984323Y-97715972D01*
X156957227Y-97736068D01*
X156928293Y-97753410D01*
X156897797Y-97767834D01*
X156866035Y-97779198D01*
X156833312Y-97787395D01*
X156799943Y-97792345D01*
X156766250Y-97794000D01*
X155653750Y-97794000D01*
X155620057Y-97792345D01*
X155586688Y-97787395D01*
X155553965Y-97779198D01*
X155522203Y-97767834D01*
X155491707Y-97753410D01*
X155462773Y-97736068D01*
X155435677Y-97715972D01*
X155410682Y-97693318D01*
X155388028Y-97668323D01*
X155367932Y-97641227D01*
X155350590Y-97612293D01*
X155336166Y-97581797D01*
X155324802Y-97550035D01*
X155316605Y-97517312D01*
X155311655Y-97483943D01*
X155310000Y-97450250D01*
X155310000Y-96762750D01*
X155311655Y-96729057D01*
X155316605Y-96695688D01*
X155324802Y-96662965D01*
X155336166Y-96631203D01*
X155350590Y-96600707D01*
X155367932Y-96571773D01*
X155388028Y-96544677D01*
X155410682Y-96519682D01*
X155435677Y-96497028D01*
X155462773Y-96476932D01*
X155491707Y-96459590D01*
X155522203Y-96445166D01*
X155553965Y-96433802D01*
X155586688Y-96425605D01*
X155620057Y-96420655D01*
X155653750Y-96419000D01*
X156766250Y-96419000D01*
X156799943Y-96420655D01*
X156799943Y-96420655D01*
G37*
D11*
X156210000Y-97106500D03*
D10*
G36*
X156799943Y-98295655D02*
X156833312Y-98300605D01*
X156866035Y-98308802D01*
X156897797Y-98320166D01*
X156928293Y-98334590D01*
X156957227Y-98351932D01*
X156984323Y-98372028D01*
X157009318Y-98394682D01*
X157031972Y-98419677D01*
X157052068Y-98446773D01*
X157069410Y-98475707D01*
X157083834Y-98506203D01*
X157095198Y-98537965D01*
X157103395Y-98570688D01*
X157108345Y-98604057D01*
X157110000Y-98637750D01*
X157110000Y-99325250D01*
X157108345Y-99358943D01*
X157103395Y-99392312D01*
X157095198Y-99425035D01*
X157083834Y-99456797D01*
X157069410Y-99487293D01*
X157052068Y-99516227D01*
X157031972Y-99543323D01*
X157009318Y-99568318D01*
X156984323Y-99590972D01*
X156957227Y-99611068D01*
X156928293Y-99628410D01*
X156897797Y-99642834D01*
X156866035Y-99654198D01*
X156833312Y-99662395D01*
X156799943Y-99667345D01*
X156766250Y-99669000D01*
X155653750Y-99669000D01*
X155620057Y-99667345D01*
X155586688Y-99662395D01*
X155553965Y-99654198D01*
X155522203Y-99642834D01*
X155491707Y-99628410D01*
X155462773Y-99611068D01*
X155435677Y-99590972D01*
X155410682Y-99568318D01*
X155388028Y-99543323D01*
X155367932Y-99516227D01*
X155350590Y-99487293D01*
X155336166Y-99456797D01*
X155324802Y-99425035D01*
X155316605Y-99392312D01*
X155311655Y-99358943D01*
X155310000Y-99325250D01*
X155310000Y-98637750D01*
X155311655Y-98604057D01*
X155316605Y-98570688D01*
X155324802Y-98537965D01*
X155336166Y-98506203D01*
X155350590Y-98475707D01*
X155367932Y-98446773D01*
X155388028Y-98419677D01*
X155410682Y-98394682D01*
X155435677Y-98372028D01*
X155462773Y-98351932D01*
X155491707Y-98334590D01*
X155522203Y-98320166D01*
X155553965Y-98308802D01*
X155586688Y-98300605D01*
X155620057Y-98295655D01*
X155653750Y-98294000D01*
X156766250Y-98294000D01*
X156799943Y-98295655D01*
X156799943Y-98295655D01*
G37*
D11*
X156210000Y-98981500D03*
G04 #@! TD*
D10*
G04 #@! TO.C,R4*
G36*
X154839943Y-56876655D02*
X154873312Y-56881605D01*
X154906035Y-56889802D01*
X154937797Y-56901166D01*
X154968293Y-56915590D01*
X154997227Y-56932932D01*
X155024323Y-56953028D01*
X155049318Y-56975682D01*
X155071972Y-57000677D01*
X155092068Y-57027773D01*
X155109410Y-57056707D01*
X155123834Y-57087203D01*
X155135198Y-57118965D01*
X155143395Y-57151688D01*
X155148345Y-57185057D01*
X155150000Y-57218750D01*
X155150000Y-57906250D01*
X155148345Y-57939943D01*
X155143395Y-57973312D01*
X155135198Y-58006035D01*
X155123834Y-58037797D01*
X155109410Y-58068293D01*
X155092068Y-58097227D01*
X155071972Y-58124323D01*
X155049318Y-58149318D01*
X155024323Y-58171972D01*
X154997227Y-58192068D01*
X154968293Y-58209410D01*
X154937797Y-58223834D01*
X154906035Y-58235198D01*
X154873312Y-58243395D01*
X154839943Y-58248345D01*
X154806250Y-58250000D01*
X153693750Y-58250000D01*
X153660057Y-58248345D01*
X153626688Y-58243395D01*
X153593965Y-58235198D01*
X153562203Y-58223834D01*
X153531707Y-58209410D01*
X153502773Y-58192068D01*
X153475677Y-58171972D01*
X153450682Y-58149318D01*
X153428028Y-58124323D01*
X153407932Y-58097227D01*
X153390590Y-58068293D01*
X153376166Y-58037797D01*
X153364802Y-58006035D01*
X153356605Y-57973312D01*
X153351655Y-57939943D01*
X153350000Y-57906250D01*
X153350000Y-57218750D01*
X153351655Y-57185057D01*
X153356605Y-57151688D01*
X153364802Y-57118965D01*
X153376166Y-57087203D01*
X153390590Y-57056707D01*
X153407932Y-57027773D01*
X153428028Y-57000677D01*
X153450682Y-56975682D01*
X153475677Y-56953028D01*
X153502773Y-56932932D01*
X153531707Y-56915590D01*
X153562203Y-56901166D01*
X153593965Y-56889802D01*
X153626688Y-56881605D01*
X153660057Y-56876655D01*
X153693750Y-56875000D01*
X154806250Y-56875000D01*
X154839943Y-56876655D01*
X154839943Y-56876655D01*
G37*
D11*
X154250000Y-57562500D03*
D10*
G36*
X154839943Y-58751655D02*
X154873312Y-58756605D01*
X154906035Y-58764802D01*
X154937797Y-58776166D01*
X154968293Y-58790590D01*
X154997227Y-58807932D01*
X155024323Y-58828028D01*
X155049318Y-58850682D01*
X155071972Y-58875677D01*
X155092068Y-58902773D01*
X155109410Y-58931707D01*
X155123834Y-58962203D01*
X155135198Y-58993965D01*
X155143395Y-59026688D01*
X155148345Y-59060057D01*
X155150000Y-59093750D01*
X155150000Y-59781250D01*
X155148345Y-59814943D01*
X155143395Y-59848312D01*
X155135198Y-59881035D01*
X155123834Y-59912797D01*
X155109410Y-59943293D01*
X155092068Y-59972227D01*
X155071972Y-59999323D01*
X155049318Y-60024318D01*
X155024323Y-60046972D01*
X154997227Y-60067068D01*
X154968293Y-60084410D01*
X154937797Y-60098834D01*
X154906035Y-60110198D01*
X154873312Y-60118395D01*
X154839943Y-60123345D01*
X154806250Y-60125000D01*
X153693750Y-60125000D01*
X153660057Y-60123345D01*
X153626688Y-60118395D01*
X153593965Y-60110198D01*
X153562203Y-60098834D01*
X153531707Y-60084410D01*
X153502773Y-60067068D01*
X153475677Y-60046972D01*
X153450682Y-60024318D01*
X153428028Y-59999323D01*
X153407932Y-59972227D01*
X153390590Y-59943293D01*
X153376166Y-59912797D01*
X153364802Y-59881035D01*
X153356605Y-59848312D01*
X153351655Y-59814943D01*
X153350000Y-59781250D01*
X153350000Y-59093750D01*
X153351655Y-59060057D01*
X153356605Y-59026688D01*
X153364802Y-58993965D01*
X153376166Y-58962203D01*
X153390590Y-58931707D01*
X153407932Y-58902773D01*
X153428028Y-58875677D01*
X153450682Y-58850682D01*
X153475677Y-58828028D01*
X153502773Y-58807932D01*
X153531707Y-58790590D01*
X153562203Y-58776166D01*
X153593965Y-58764802D01*
X153626688Y-58756605D01*
X153660057Y-58751655D01*
X153693750Y-58750000D01*
X154806250Y-58750000D01*
X154839943Y-58751655D01*
X154839943Y-58751655D01*
G37*
D11*
X154250000Y-59437500D03*
G04 #@! TD*
D10*
G04 #@! TO.C,R5*
G36*
X156799943Y-90500155D02*
X156833312Y-90505105D01*
X156866035Y-90513302D01*
X156897797Y-90524666D01*
X156928293Y-90539090D01*
X156957227Y-90556432D01*
X156984323Y-90576528D01*
X157009318Y-90599182D01*
X157031972Y-90624177D01*
X157052068Y-90651273D01*
X157069410Y-90680207D01*
X157083834Y-90710703D01*
X157095198Y-90742465D01*
X157103395Y-90775188D01*
X157108345Y-90808557D01*
X157110000Y-90842250D01*
X157110000Y-91529750D01*
X157108345Y-91563443D01*
X157103395Y-91596812D01*
X157095198Y-91629535D01*
X157083834Y-91661297D01*
X157069410Y-91691793D01*
X157052068Y-91720727D01*
X157031972Y-91747823D01*
X157009318Y-91772818D01*
X156984323Y-91795472D01*
X156957227Y-91815568D01*
X156928293Y-91832910D01*
X156897797Y-91847334D01*
X156866035Y-91858698D01*
X156833312Y-91866895D01*
X156799943Y-91871845D01*
X156766250Y-91873500D01*
X155653750Y-91873500D01*
X155620057Y-91871845D01*
X155586688Y-91866895D01*
X155553965Y-91858698D01*
X155522203Y-91847334D01*
X155491707Y-91832910D01*
X155462773Y-91815568D01*
X155435677Y-91795472D01*
X155410682Y-91772818D01*
X155388028Y-91747823D01*
X155367932Y-91720727D01*
X155350590Y-91691793D01*
X155336166Y-91661297D01*
X155324802Y-91629535D01*
X155316605Y-91596812D01*
X155311655Y-91563443D01*
X155310000Y-91529750D01*
X155310000Y-90842250D01*
X155311655Y-90808557D01*
X155316605Y-90775188D01*
X155324802Y-90742465D01*
X155336166Y-90710703D01*
X155350590Y-90680207D01*
X155367932Y-90651273D01*
X155388028Y-90624177D01*
X155410682Y-90599182D01*
X155435677Y-90576528D01*
X155462773Y-90556432D01*
X155491707Y-90539090D01*
X155522203Y-90524666D01*
X155553965Y-90513302D01*
X155586688Y-90505105D01*
X155620057Y-90500155D01*
X155653750Y-90498500D01*
X156766250Y-90498500D01*
X156799943Y-90500155D01*
X156799943Y-90500155D01*
G37*
D11*
X156210000Y-91186000D03*
D10*
G36*
X156799943Y-88625155D02*
X156833312Y-88630105D01*
X156866035Y-88638302D01*
X156897797Y-88649666D01*
X156928293Y-88664090D01*
X156957227Y-88681432D01*
X156984323Y-88701528D01*
X157009318Y-88724182D01*
X157031972Y-88749177D01*
X157052068Y-88776273D01*
X157069410Y-88805207D01*
X157083834Y-88835703D01*
X157095198Y-88867465D01*
X157103395Y-88900188D01*
X157108345Y-88933557D01*
X157110000Y-88967250D01*
X157110000Y-89654750D01*
X157108345Y-89688443D01*
X157103395Y-89721812D01*
X157095198Y-89754535D01*
X157083834Y-89786297D01*
X157069410Y-89816793D01*
X157052068Y-89845727D01*
X157031972Y-89872823D01*
X157009318Y-89897818D01*
X156984323Y-89920472D01*
X156957227Y-89940568D01*
X156928293Y-89957910D01*
X156897797Y-89972334D01*
X156866035Y-89983698D01*
X156833312Y-89991895D01*
X156799943Y-89996845D01*
X156766250Y-89998500D01*
X155653750Y-89998500D01*
X155620057Y-89996845D01*
X155586688Y-89991895D01*
X155553965Y-89983698D01*
X155522203Y-89972334D01*
X155491707Y-89957910D01*
X155462773Y-89940568D01*
X155435677Y-89920472D01*
X155410682Y-89897818D01*
X155388028Y-89872823D01*
X155367932Y-89845727D01*
X155350590Y-89816793D01*
X155336166Y-89786297D01*
X155324802Y-89754535D01*
X155316605Y-89721812D01*
X155311655Y-89688443D01*
X155310000Y-89654750D01*
X155310000Y-88967250D01*
X155311655Y-88933557D01*
X155316605Y-88900188D01*
X155324802Y-88867465D01*
X155336166Y-88835703D01*
X155350590Y-88805207D01*
X155367932Y-88776273D01*
X155388028Y-88749177D01*
X155410682Y-88724182D01*
X155435677Y-88701528D01*
X155462773Y-88681432D01*
X155491707Y-88664090D01*
X155522203Y-88649666D01*
X155553965Y-88638302D01*
X155586688Y-88630105D01*
X155620057Y-88625155D01*
X155653750Y-88623500D01*
X156766250Y-88623500D01*
X156799943Y-88625155D01*
X156799943Y-88625155D01*
G37*
D11*
X156210000Y-89311000D03*
G04 #@! TD*
D10*
G04 #@! TO.C,R6*
G36*
X170769943Y-89054655D02*
X170803312Y-89059605D01*
X170836035Y-89067802D01*
X170867797Y-89079166D01*
X170898293Y-89093590D01*
X170927227Y-89110932D01*
X170954323Y-89131028D01*
X170979318Y-89153682D01*
X171001972Y-89178677D01*
X171022068Y-89205773D01*
X171039410Y-89234707D01*
X171053834Y-89265203D01*
X171065198Y-89296965D01*
X171073395Y-89329688D01*
X171078345Y-89363057D01*
X171080000Y-89396750D01*
X171080000Y-90084250D01*
X171078345Y-90117943D01*
X171073395Y-90151312D01*
X171065198Y-90184035D01*
X171053834Y-90215797D01*
X171039410Y-90246293D01*
X171022068Y-90275227D01*
X171001972Y-90302323D01*
X170979318Y-90327318D01*
X170954323Y-90349972D01*
X170927227Y-90370068D01*
X170898293Y-90387410D01*
X170867797Y-90401834D01*
X170836035Y-90413198D01*
X170803312Y-90421395D01*
X170769943Y-90426345D01*
X170736250Y-90428000D01*
X169623750Y-90428000D01*
X169590057Y-90426345D01*
X169556688Y-90421395D01*
X169523965Y-90413198D01*
X169492203Y-90401834D01*
X169461707Y-90387410D01*
X169432773Y-90370068D01*
X169405677Y-90349972D01*
X169380682Y-90327318D01*
X169358028Y-90302323D01*
X169337932Y-90275227D01*
X169320590Y-90246293D01*
X169306166Y-90215797D01*
X169294802Y-90184035D01*
X169286605Y-90151312D01*
X169281655Y-90117943D01*
X169280000Y-90084250D01*
X169280000Y-89396750D01*
X169281655Y-89363057D01*
X169286605Y-89329688D01*
X169294802Y-89296965D01*
X169306166Y-89265203D01*
X169320590Y-89234707D01*
X169337932Y-89205773D01*
X169358028Y-89178677D01*
X169380682Y-89153682D01*
X169405677Y-89131028D01*
X169432773Y-89110932D01*
X169461707Y-89093590D01*
X169492203Y-89079166D01*
X169523965Y-89067802D01*
X169556688Y-89059605D01*
X169590057Y-89054655D01*
X169623750Y-89053000D01*
X170736250Y-89053000D01*
X170769943Y-89054655D01*
X170769943Y-89054655D01*
G37*
D11*
X170180000Y-89740500D03*
D10*
G36*
X170769943Y-90929655D02*
X170803312Y-90934605D01*
X170836035Y-90942802D01*
X170867797Y-90954166D01*
X170898293Y-90968590D01*
X170927227Y-90985932D01*
X170954323Y-91006028D01*
X170979318Y-91028682D01*
X171001972Y-91053677D01*
X171022068Y-91080773D01*
X171039410Y-91109707D01*
X171053834Y-91140203D01*
X171065198Y-91171965D01*
X171073395Y-91204688D01*
X171078345Y-91238057D01*
X171080000Y-91271750D01*
X171080000Y-91959250D01*
X171078345Y-91992943D01*
X171073395Y-92026312D01*
X171065198Y-92059035D01*
X171053834Y-92090797D01*
X171039410Y-92121293D01*
X171022068Y-92150227D01*
X171001972Y-92177323D01*
X170979318Y-92202318D01*
X170954323Y-92224972D01*
X170927227Y-92245068D01*
X170898293Y-92262410D01*
X170867797Y-92276834D01*
X170836035Y-92288198D01*
X170803312Y-92296395D01*
X170769943Y-92301345D01*
X170736250Y-92303000D01*
X169623750Y-92303000D01*
X169590057Y-92301345D01*
X169556688Y-92296395D01*
X169523965Y-92288198D01*
X169492203Y-92276834D01*
X169461707Y-92262410D01*
X169432773Y-92245068D01*
X169405677Y-92224972D01*
X169380682Y-92202318D01*
X169358028Y-92177323D01*
X169337932Y-92150227D01*
X169320590Y-92121293D01*
X169306166Y-92090797D01*
X169294802Y-92059035D01*
X169286605Y-92026312D01*
X169281655Y-91992943D01*
X169280000Y-91959250D01*
X169280000Y-91271750D01*
X169281655Y-91238057D01*
X169286605Y-91204688D01*
X169294802Y-91171965D01*
X169306166Y-91140203D01*
X169320590Y-91109707D01*
X169337932Y-91080773D01*
X169358028Y-91053677D01*
X169380682Y-91028682D01*
X169405677Y-91006028D01*
X169432773Y-90985932D01*
X169461707Y-90968590D01*
X169492203Y-90954166D01*
X169523965Y-90942802D01*
X169556688Y-90934605D01*
X169590057Y-90929655D01*
X169623750Y-90928000D01*
X170736250Y-90928000D01*
X170769943Y-90929655D01*
X170769943Y-90929655D01*
G37*
D11*
X170180000Y-91615500D03*
G04 #@! TD*
D10*
G04 #@! TO.C,R7*
G36*
X171023943Y-95072155D02*
X171057312Y-95077105D01*
X171090035Y-95085302D01*
X171121797Y-95096666D01*
X171152293Y-95111090D01*
X171181227Y-95128432D01*
X171208323Y-95148528D01*
X171233318Y-95171182D01*
X171255972Y-95196177D01*
X171276068Y-95223273D01*
X171293410Y-95252207D01*
X171307834Y-95282703D01*
X171319198Y-95314465D01*
X171327395Y-95347188D01*
X171332345Y-95380557D01*
X171334000Y-95414250D01*
X171334000Y-96101750D01*
X171332345Y-96135443D01*
X171327395Y-96168812D01*
X171319198Y-96201535D01*
X171307834Y-96233297D01*
X171293410Y-96263793D01*
X171276068Y-96292727D01*
X171255972Y-96319823D01*
X171233318Y-96344818D01*
X171208323Y-96367472D01*
X171181227Y-96387568D01*
X171152293Y-96404910D01*
X171121797Y-96419334D01*
X171090035Y-96430698D01*
X171057312Y-96438895D01*
X171023943Y-96443845D01*
X170990250Y-96445500D01*
X169877750Y-96445500D01*
X169844057Y-96443845D01*
X169810688Y-96438895D01*
X169777965Y-96430698D01*
X169746203Y-96419334D01*
X169715707Y-96404910D01*
X169686773Y-96387568D01*
X169659677Y-96367472D01*
X169634682Y-96344818D01*
X169612028Y-96319823D01*
X169591932Y-96292727D01*
X169574590Y-96263793D01*
X169560166Y-96233297D01*
X169548802Y-96201535D01*
X169540605Y-96168812D01*
X169535655Y-96135443D01*
X169534000Y-96101750D01*
X169534000Y-95414250D01*
X169535655Y-95380557D01*
X169540605Y-95347188D01*
X169548802Y-95314465D01*
X169560166Y-95282703D01*
X169574590Y-95252207D01*
X169591932Y-95223273D01*
X169612028Y-95196177D01*
X169634682Y-95171182D01*
X169659677Y-95148528D01*
X169686773Y-95128432D01*
X169715707Y-95111090D01*
X169746203Y-95096666D01*
X169777965Y-95085302D01*
X169810688Y-95077105D01*
X169844057Y-95072155D01*
X169877750Y-95070500D01*
X170990250Y-95070500D01*
X171023943Y-95072155D01*
X171023943Y-95072155D01*
G37*
D11*
X170434000Y-95758000D03*
D10*
G36*
X171023943Y-96947155D02*
X171057312Y-96952105D01*
X171090035Y-96960302D01*
X171121797Y-96971666D01*
X171152293Y-96986090D01*
X171181227Y-97003432D01*
X171208323Y-97023528D01*
X171233318Y-97046182D01*
X171255972Y-97071177D01*
X171276068Y-97098273D01*
X171293410Y-97127207D01*
X171307834Y-97157703D01*
X171319198Y-97189465D01*
X171327395Y-97222188D01*
X171332345Y-97255557D01*
X171334000Y-97289250D01*
X171334000Y-97976750D01*
X171332345Y-98010443D01*
X171327395Y-98043812D01*
X171319198Y-98076535D01*
X171307834Y-98108297D01*
X171293410Y-98138793D01*
X171276068Y-98167727D01*
X171255972Y-98194823D01*
X171233318Y-98219818D01*
X171208323Y-98242472D01*
X171181227Y-98262568D01*
X171152293Y-98279910D01*
X171121797Y-98294334D01*
X171090035Y-98305698D01*
X171057312Y-98313895D01*
X171023943Y-98318845D01*
X170990250Y-98320500D01*
X169877750Y-98320500D01*
X169844057Y-98318845D01*
X169810688Y-98313895D01*
X169777965Y-98305698D01*
X169746203Y-98294334D01*
X169715707Y-98279910D01*
X169686773Y-98262568D01*
X169659677Y-98242472D01*
X169634682Y-98219818D01*
X169612028Y-98194823D01*
X169591932Y-98167727D01*
X169574590Y-98138793D01*
X169560166Y-98108297D01*
X169548802Y-98076535D01*
X169540605Y-98043812D01*
X169535655Y-98010443D01*
X169534000Y-97976750D01*
X169534000Y-97289250D01*
X169535655Y-97255557D01*
X169540605Y-97222188D01*
X169548802Y-97189465D01*
X169560166Y-97157703D01*
X169574590Y-97127207D01*
X169591932Y-97098273D01*
X169612028Y-97071177D01*
X169634682Y-97046182D01*
X169659677Y-97023528D01*
X169686773Y-97003432D01*
X169715707Y-96986090D01*
X169746203Y-96971666D01*
X169777965Y-96960302D01*
X169810688Y-96952105D01*
X169844057Y-96947155D01*
X169877750Y-96945500D01*
X170990250Y-96945500D01*
X171023943Y-96947155D01*
X171023943Y-96947155D01*
G37*
D11*
X170434000Y-97633000D03*
G04 #@! TD*
D10*
G04 #@! TO.C,R8*
G36*
X154767943Y-50954655D02*
X154801312Y-50959605D01*
X154834035Y-50967802D01*
X154865797Y-50979166D01*
X154896293Y-50993590D01*
X154925227Y-51010932D01*
X154952323Y-51031028D01*
X154977318Y-51053682D01*
X154999972Y-51078677D01*
X155020068Y-51105773D01*
X155037410Y-51134707D01*
X155051834Y-51165203D01*
X155063198Y-51196965D01*
X155071395Y-51229688D01*
X155076345Y-51263057D01*
X155078000Y-51296750D01*
X155078000Y-51984250D01*
X155076345Y-52017943D01*
X155071395Y-52051312D01*
X155063198Y-52084035D01*
X155051834Y-52115797D01*
X155037410Y-52146293D01*
X155020068Y-52175227D01*
X154999972Y-52202323D01*
X154977318Y-52227318D01*
X154952323Y-52249972D01*
X154925227Y-52270068D01*
X154896293Y-52287410D01*
X154865797Y-52301834D01*
X154834035Y-52313198D01*
X154801312Y-52321395D01*
X154767943Y-52326345D01*
X154734250Y-52328000D01*
X153621750Y-52328000D01*
X153588057Y-52326345D01*
X153554688Y-52321395D01*
X153521965Y-52313198D01*
X153490203Y-52301834D01*
X153459707Y-52287410D01*
X153430773Y-52270068D01*
X153403677Y-52249972D01*
X153378682Y-52227318D01*
X153356028Y-52202323D01*
X153335932Y-52175227D01*
X153318590Y-52146293D01*
X153304166Y-52115797D01*
X153292802Y-52084035D01*
X153284605Y-52051312D01*
X153279655Y-52017943D01*
X153278000Y-51984250D01*
X153278000Y-51296750D01*
X153279655Y-51263057D01*
X153284605Y-51229688D01*
X153292802Y-51196965D01*
X153304166Y-51165203D01*
X153318590Y-51134707D01*
X153335932Y-51105773D01*
X153356028Y-51078677D01*
X153378682Y-51053682D01*
X153403677Y-51031028D01*
X153430773Y-51010932D01*
X153459707Y-50993590D01*
X153490203Y-50979166D01*
X153521965Y-50967802D01*
X153554688Y-50959605D01*
X153588057Y-50954655D01*
X153621750Y-50953000D01*
X154734250Y-50953000D01*
X154767943Y-50954655D01*
X154767943Y-50954655D01*
G37*
D11*
X154178000Y-51640500D03*
D10*
G36*
X154767943Y-52829655D02*
X154801312Y-52834605D01*
X154834035Y-52842802D01*
X154865797Y-52854166D01*
X154896293Y-52868590D01*
X154925227Y-52885932D01*
X154952323Y-52906028D01*
X154977318Y-52928682D01*
X154999972Y-52953677D01*
X155020068Y-52980773D01*
X155037410Y-53009707D01*
X155051834Y-53040203D01*
X155063198Y-53071965D01*
X155071395Y-53104688D01*
X155076345Y-53138057D01*
X155078000Y-53171750D01*
X155078000Y-53859250D01*
X155076345Y-53892943D01*
X155071395Y-53926312D01*
X155063198Y-53959035D01*
X155051834Y-53990797D01*
X155037410Y-54021293D01*
X155020068Y-54050227D01*
X154999972Y-54077323D01*
X154977318Y-54102318D01*
X154952323Y-54124972D01*
X154925227Y-54145068D01*
X154896293Y-54162410D01*
X154865797Y-54176834D01*
X154834035Y-54188198D01*
X154801312Y-54196395D01*
X154767943Y-54201345D01*
X154734250Y-54203000D01*
X153621750Y-54203000D01*
X153588057Y-54201345D01*
X153554688Y-54196395D01*
X153521965Y-54188198D01*
X153490203Y-54176834D01*
X153459707Y-54162410D01*
X153430773Y-54145068D01*
X153403677Y-54124972D01*
X153378682Y-54102318D01*
X153356028Y-54077323D01*
X153335932Y-54050227D01*
X153318590Y-54021293D01*
X153304166Y-53990797D01*
X153292802Y-53959035D01*
X153284605Y-53926312D01*
X153279655Y-53892943D01*
X153278000Y-53859250D01*
X153278000Y-53171750D01*
X153279655Y-53138057D01*
X153284605Y-53104688D01*
X153292802Y-53071965D01*
X153304166Y-53040203D01*
X153318590Y-53009707D01*
X153335932Y-52980773D01*
X153356028Y-52953677D01*
X153378682Y-52928682D01*
X153403677Y-52906028D01*
X153430773Y-52885932D01*
X153459707Y-52868590D01*
X153490203Y-52854166D01*
X153521965Y-52842802D01*
X153554688Y-52834605D01*
X153588057Y-52829655D01*
X153621750Y-52828000D01*
X154734250Y-52828000D01*
X154767943Y-52829655D01*
X154767943Y-52829655D01*
G37*
D11*
X154178000Y-53515500D03*
G04 #@! TD*
D10*
G04 #@! TO.C,R9*
G36*
X169589943Y-56876655D02*
X169623312Y-56881605D01*
X169656035Y-56889802D01*
X169687797Y-56901166D01*
X169718293Y-56915590D01*
X169747227Y-56932932D01*
X169774323Y-56953028D01*
X169799318Y-56975682D01*
X169821972Y-57000677D01*
X169842068Y-57027773D01*
X169859410Y-57056707D01*
X169873834Y-57087203D01*
X169885198Y-57118965D01*
X169893395Y-57151688D01*
X169898345Y-57185057D01*
X169900000Y-57218750D01*
X169900000Y-57906250D01*
X169898345Y-57939943D01*
X169893395Y-57973312D01*
X169885198Y-58006035D01*
X169873834Y-58037797D01*
X169859410Y-58068293D01*
X169842068Y-58097227D01*
X169821972Y-58124323D01*
X169799318Y-58149318D01*
X169774323Y-58171972D01*
X169747227Y-58192068D01*
X169718293Y-58209410D01*
X169687797Y-58223834D01*
X169656035Y-58235198D01*
X169623312Y-58243395D01*
X169589943Y-58248345D01*
X169556250Y-58250000D01*
X168443750Y-58250000D01*
X168410057Y-58248345D01*
X168376688Y-58243395D01*
X168343965Y-58235198D01*
X168312203Y-58223834D01*
X168281707Y-58209410D01*
X168252773Y-58192068D01*
X168225677Y-58171972D01*
X168200682Y-58149318D01*
X168178028Y-58124323D01*
X168157932Y-58097227D01*
X168140590Y-58068293D01*
X168126166Y-58037797D01*
X168114802Y-58006035D01*
X168106605Y-57973312D01*
X168101655Y-57939943D01*
X168100000Y-57906250D01*
X168100000Y-57218750D01*
X168101655Y-57185057D01*
X168106605Y-57151688D01*
X168114802Y-57118965D01*
X168126166Y-57087203D01*
X168140590Y-57056707D01*
X168157932Y-57027773D01*
X168178028Y-57000677D01*
X168200682Y-56975682D01*
X168225677Y-56953028D01*
X168252773Y-56932932D01*
X168281707Y-56915590D01*
X168312203Y-56901166D01*
X168343965Y-56889802D01*
X168376688Y-56881605D01*
X168410057Y-56876655D01*
X168443750Y-56875000D01*
X169556250Y-56875000D01*
X169589943Y-56876655D01*
X169589943Y-56876655D01*
G37*
D11*
X169000000Y-57562500D03*
D10*
G36*
X169589943Y-58751655D02*
X169623312Y-58756605D01*
X169656035Y-58764802D01*
X169687797Y-58776166D01*
X169718293Y-58790590D01*
X169747227Y-58807932D01*
X169774323Y-58828028D01*
X169799318Y-58850682D01*
X169821972Y-58875677D01*
X169842068Y-58902773D01*
X169859410Y-58931707D01*
X169873834Y-58962203D01*
X169885198Y-58993965D01*
X169893395Y-59026688D01*
X169898345Y-59060057D01*
X169900000Y-59093750D01*
X169900000Y-59781250D01*
X169898345Y-59814943D01*
X169893395Y-59848312D01*
X169885198Y-59881035D01*
X169873834Y-59912797D01*
X169859410Y-59943293D01*
X169842068Y-59972227D01*
X169821972Y-59999323D01*
X169799318Y-60024318D01*
X169774323Y-60046972D01*
X169747227Y-60067068D01*
X169718293Y-60084410D01*
X169687797Y-60098834D01*
X169656035Y-60110198D01*
X169623312Y-60118395D01*
X169589943Y-60123345D01*
X169556250Y-60125000D01*
X168443750Y-60125000D01*
X168410057Y-60123345D01*
X168376688Y-60118395D01*
X168343965Y-60110198D01*
X168312203Y-60098834D01*
X168281707Y-60084410D01*
X168252773Y-60067068D01*
X168225677Y-60046972D01*
X168200682Y-60024318D01*
X168178028Y-59999323D01*
X168157932Y-59972227D01*
X168140590Y-59943293D01*
X168126166Y-59912797D01*
X168114802Y-59881035D01*
X168106605Y-59848312D01*
X168101655Y-59814943D01*
X168100000Y-59781250D01*
X168100000Y-59093750D01*
X168101655Y-59060057D01*
X168106605Y-59026688D01*
X168114802Y-58993965D01*
X168126166Y-58962203D01*
X168140590Y-58931707D01*
X168157932Y-58902773D01*
X168178028Y-58875677D01*
X168200682Y-58850682D01*
X168225677Y-58828028D01*
X168252773Y-58807932D01*
X168281707Y-58790590D01*
X168312203Y-58776166D01*
X168343965Y-58764802D01*
X168376688Y-58756605D01*
X168410057Y-58751655D01*
X168443750Y-58750000D01*
X169556250Y-58750000D01*
X169589943Y-58751655D01*
X169589943Y-58751655D01*
G37*
D11*
X169000000Y-59437500D03*
G04 #@! TD*
D10*
G04 #@! TO.C,R10*
G36*
X169753943Y-52501655D02*
X169787312Y-52506605D01*
X169820035Y-52514802D01*
X169851797Y-52526166D01*
X169882293Y-52540590D01*
X169911227Y-52557932D01*
X169938323Y-52578028D01*
X169963318Y-52600682D01*
X169985972Y-52625677D01*
X170006068Y-52652773D01*
X170023410Y-52681707D01*
X170037834Y-52712203D01*
X170049198Y-52743965D01*
X170057395Y-52776688D01*
X170062345Y-52810057D01*
X170064000Y-52843750D01*
X170064000Y-53531250D01*
X170062345Y-53564943D01*
X170057395Y-53598312D01*
X170049198Y-53631035D01*
X170037834Y-53662797D01*
X170023410Y-53693293D01*
X170006068Y-53722227D01*
X169985972Y-53749323D01*
X169963318Y-53774318D01*
X169938323Y-53796972D01*
X169911227Y-53817068D01*
X169882293Y-53834410D01*
X169851797Y-53848834D01*
X169820035Y-53860198D01*
X169787312Y-53868395D01*
X169753943Y-53873345D01*
X169720250Y-53875000D01*
X168607750Y-53875000D01*
X168574057Y-53873345D01*
X168540688Y-53868395D01*
X168507965Y-53860198D01*
X168476203Y-53848834D01*
X168445707Y-53834410D01*
X168416773Y-53817068D01*
X168389677Y-53796972D01*
X168364682Y-53774318D01*
X168342028Y-53749323D01*
X168321932Y-53722227D01*
X168304590Y-53693293D01*
X168290166Y-53662797D01*
X168278802Y-53631035D01*
X168270605Y-53598312D01*
X168265655Y-53564943D01*
X168264000Y-53531250D01*
X168264000Y-52843750D01*
X168265655Y-52810057D01*
X168270605Y-52776688D01*
X168278802Y-52743965D01*
X168290166Y-52712203D01*
X168304590Y-52681707D01*
X168321932Y-52652773D01*
X168342028Y-52625677D01*
X168364682Y-52600682D01*
X168389677Y-52578028D01*
X168416773Y-52557932D01*
X168445707Y-52540590D01*
X168476203Y-52526166D01*
X168507965Y-52514802D01*
X168540688Y-52506605D01*
X168574057Y-52501655D01*
X168607750Y-52500000D01*
X169720250Y-52500000D01*
X169753943Y-52501655D01*
X169753943Y-52501655D01*
G37*
D11*
X169164000Y-53187500D03*
D10*
G36*
X169753943Y-50626655D02*
X169787312Y-50631605D01*
X169820035Y-50639802D01*
X169851797Y-50651166D01*
X169882293Y-50665590D01*
X169911227Y-50682932D01*
X169938323Y-50703028D01*
X169963318Y-50725682D01*
X169985972Y-50750677D01*
X170006068Y-50777773D01*
X170023410Y-50806707D01*
X170037834Y-50837203D01*
X170049198Y-50868965D01*
X170057395Y-50901688D01*
X170062345Y-50935057D01*
X170064000Y-50968750D01*
X170064000Y-51656250D01*
X170062345Y-51689943D01*
X170057395Y-51723312D01*
X170049198Y-51756035D01*
X170037834Y-51787797D01*
X170023410Y-51818293D01*
X170006068Y-51847227D01*
X169985972Y-51874323D01*
X169963318Y-51899318D01*
X169938323Y-51921972D01*
X169911227Y-51942068D01*
X169882293Y-51959410D01*
X169851797Y-51973834D01*
X169820035Y-51985198D01*
X169787312Y-51993395D01*
X169753943Y-51998345D01*
X169720250Y-52000000D01*
X168607750Y-52000000D01*
X168574057Y-51998345D01*
X168540688Y-51993395D01*
X168507965Y-51985198D01*
X168476203Y-51973834D01*
X168445707Y-51959410D01*
X168416773Y-51942068D01*
X168389677Y-51921972D01*
X168364682Y-51899318D01*
X168342028Y-51874323D01*
X168321932Y-51847227D01*
X168304590Y-51818293D01*
X168290166Y-51787797D01*
X168278802Y-51756035D01*
X168270605Y-51723312D01*
X168265655Y-51689943D01*
X168264000Y-51656250D01*
X168264000Y-50968750D01*
X168265655Y-50935057D01*
X168270605Y-50901688D01*
X168278802Y-50868965D01*
X168290166Y-50837203D01*
X168304590Y-50806707D01*
X168321932Y-50777773D01*
X168342028Y-50750677D01*
X168364682Y-50725682D01*
X168389677Y-50703028D01*
X168416773Y-50682932D01*
X168445707Y-50665590D01*
X168476203Y-50651166D01*
X168507965Y-50639802D01*
X168540688Y-50631605D01*
X168574057Y-50626655D01*
X168607750Y-50625000D01*
X169720250Y-50625000D01*
X169753943Y-50626655D01*
X169753943Y-50626655D01*
G37*
D11*
X169164000Y-51312500D03*
G04 #@! TD*
D10*
G04 #@! TO.C,R11*
G36*
X173939943Y-54351655D02*
X173973312Y-54356605D01*
X174006035Y-54364802D01*
X174037797Y-54376166D01*
X174068293Y-54390590D01*
X174097227Y-54407932D01*
X174124323Y-54428028D01*
X174149318Y-54450682D01*
X174171972Y-54475677D01*
X174192068Y-54502773D01*
X174209410Y-54531707D01*
X174223834Y-54562203D01*
X174235198Y-54593965D01*
X174243395Y-54626688D01*
X174248345Y-54660057D01*
X174250000Y-54693750D01*
X174250000Y-55806250D01*
X174248345Y-55839943D01*
X174243395Y-55873312D01*
X174235198Y-55906035D01*
X174223834Y-55937797D01*
X174209410Y-55968293D01*
X174192068Y-55997227D01*
X174171972Y-56024323D01*
X174149318Y-56049318D01*
X174124323Y-56071972D01*
X174097227Y-56092068D01*
X174068293Y-56109410D01*
X174037797Y-56123834D01*
X174006035Y-56135198D01*
X173973312Y-56143395D01*
X173939943Y-56148345D01*
X173906250Y-56150000D01*
X173218750Y-56150000D01*
X173185057Y-56148345D01*
X173151688Y-56143395D01*
X173118965Y-56135198D01*
X173087203Y-56123834D01*
X173056707Y-56109410D01*
X173027773Y-56092068D01*
X173000677Y-56071972D01*
X172975682Y-56049318D01*
X172953028Y-56024323D01*
X172932932Y-55997227D01*
X172915590Y-55968293D01*
X172901166Y-55937797D01*
X172889802Y-55906035D01*
X172881605Y-55873312D01*
X172876655Y-55839943D01*
X172875000Y-55806250D01*
X172875000Y-54693750D01*
X172876655Y-54660057D01*
X172881605Y-54626688D01*
X172889802Y-54593965D01*
X172901166Y-54562203D01*
X172915590Y-54531707D01*
X172932932Y-54502773D01*
X172953028Y-54475677D01*
X172975682Y-54450682D01*
X173000677Y-54428028D01*
X173027773Y-54407932D01*
X173056707Y-54390590D01*
X173087203Y-54376166D01*
X173118965Y-54364802D01*
X173151688Y-54356605D01*
X173185057Y-54351655D01*
X173218750Y-54350000D01*
X173906250Y-54350000D01*
X173939943Y-54351655D01*
X173939943Y-54351655D01*
G37*
D11*
X173562500Y-55250000D03*
D10*
G36*
X175814943Y-54351655D02*
X175848312Y-54356605D01*
X175881035Y-54364802D01*
X175912797Y-54376166D01*
X175943293Y-54390590D01*
X175972227Y-54407932D01*
X175999323Y-54428028D01*
X176024318Y-54450682D01*
X176046972Y-54475677D01*
X176067068Y-54502773D01*
X176084410Y-54531707D01*
X176098834Y-54562203D01*
X176110198Y-54593965D01*
X176118395Y-54626688D01*
X176123345Y-54660057D01*
X176125000Y-54693750D01*
X176125000Y-55806250D01*
X176123345Y-55839943D01*
X176118395Y-55873312D01*
X176110198Y-55906035D01*
X176098834Y-55937797D01*
X176084410Y-55968293D01*
X176067068Y-55997227D01*
X176046972Y-56024323D01*
X176024318Y-56049318D01*
X175999323Y-56071972D01*
X175972227Y-56092068D01*
X175943293Y-56109410D01*
X175912797Y-56123834D01*
X175881035Y-56135198D01*
X175848312Y-56143395D01*
X175814943Y-56148345D01*
X175781250Y-56150000D01*
X175093750Y-56150000D01*
X175060057Y-56148345D01*
X175026688Y-56143395D01*
X174993965Y-56135198D01*
X174962203Y-56123834D01*
X174931707Y-56109410D01*
X174902773Y-56092068D01*
X174875677Y-56071972D01*
X174850682Y-56049318D01*
X174828028Y-56024323D01*
X174807932Y-55997227D01*
X174790590Y-55968293D01*
X174776166Y-55937797D01*
X174764802Y-55906035D01*
X174756605Y-55873312D01*
X174751655Y-55839943D01*
X174750000Y-55806250D01*
X174750000Y-54693750D01*
X174751655Y-54660057D01*
X174756605Y-54626688D01*
X174764802Y-54593965D01*
X174776166Y-54562203D01*
X174790590Y-54531707D01*
X174807932Y-54502773D01*
X174828028Y-54475677D01*
X174850682Y-54450682D01*
X174875677Y-54428028D01*
X174902773Y-54407932D01*
X174931707Y-54390590D01*
X174962203Y-54376166D01*
X174993965Y-54364802D01*
X175026688Y-54356605D01*
X175060057Y-54351655D01*
X175093750Y-54350000D01*
X175781250Y-54350000D01*
X175814943Y-54351655D01*
X175814943Y-54351655D01*
G37*
D11*
X175437500Y-55250000D03*
G04 #@! TD*
D10*
G04 #@! TO.C,R12*
G36*
X177590943Y-97653655D02*
X177624312Y-97658605D01*
X177657035Y-97666802D01*
X177688797Y-97678166D01*
X177719293Y-97692590D01*
X177748227Y-97709932D01*
X177775323Y-97730028D01*
X177800318Y-97752682D01*
X177822972Y-97777677D01*
X177843068Y-97804773D01*
X177860410Y-97833707D01*
X177874834Y-97864203D01*
X177886198Y-97895965D01*
X177894395Y-97928688D01*
X177899345Y-97962057D01*
X177901000Y-97995750D01*
X177901000Y-99108250D01*
X177899345Y-99141943D01*
X177894395Y-99175312D01*
X177886198Y-99208035D01*
X177874834Y-99239797D01*
X177860410Y-99270293D01*
X177843068Y-99299227D01*
X177822972Y-99326323D01*
X177800318Y-99351318D01*
X177775323Y-99373972D01*
X177748227Y-99394068D01*
X177719293Y-99411410D01*
X177688797Y-99425834D01*
X177657035Y-99437198D01*
X177624312Y-99445395D01*
X177590943Y-99450345D01*
X177557250Y-99452000D01*
X176869750Y-99452000D01*
X176836057Y-99450345D01*
X176802688Y-99445395D01*
X176769965Y-99437198D01*
X176738203Y-99425834D01*
X176707707Y-99411410D01*
X176678773Y-99394068D01*
X176651677Y-99373972D01*
X176626682Y-99351318D01*
X176604028Y-99326323D01*
X176583932Y-99299227D01*
X176566590Y-99270293D01*
X176552166Y-99239797D01*
X176540802Y-99208035D01*
X176532605Y-99175312D01*
X176527655Y-99141943D01*
X176526000Y-99108250D01*
X176526000Y-97995750D01*
X176527655Y-97962057D01*
X176532605Y-97928688D01*
X176540802Y-97895965D01*
X176552166Y-97864203D01*
X176566590Y-97833707D01*
X176583932Y-97804773D01*
X176604028Y-97777677D01*
X176626682Y-97752682D01*
X176651677Y-97730028D01*
X176678773Y-97709932D01*
X176707707Y-97692590D01*
X176738203Y-97678166D01*
X176769965Y-97666802D01*
X176802688Y-97658605D01*
X176836057Y-97653655D01*
X176869750Y-97652000D01*
X177557250Y-97652000D01*
X177590943Y-97653655D01*
X177590943Y-97653655D01*
G37*
D11*
X177213500Y-98552000D03*
D10*
G36*
X175715943Y-97653655D02*
X175749312Y-97658605D01*
X175782035Y-97666802D01*
X175813797Y-97678166D01*
X175844293Y-97692590D01*
X175873227Y-97709932D01*
X175900323Y-97730028D01*
X175925318Y-97752682D01*
X175947972Y-97777677D01*
X175968068Y-97804773D01*
X175985410Y-97833707D01*
X175999834Y-97864203D01*
X176011198Y-97895965D01*
X176019395Y-97928688D01*
X176024345Y-97962057D01*
X176026000Y-97995750D01*
X176026000Y-99108250D01*
X176024345Y-99141943D01*
X176019395Y-99175312D01*
X176011198Y-99208035D01*
X175999834Y-99239797D01*
X175985410Y-99270293D01*
X175968068Y-99299227D01*
X175947972Y-99326323D01*
X175925318Y-99351318D01*
X175900323Y-99373972D01*
X175873227Y-99394068D01*
X175844293Y-99411410D01*
X175813797Y-99425834D01*
X175782035Y-99437198D01*
X175749312Y-99445395D01*
X175715943Y-99450345D01*
X175682250Y-99452000D01*
X174994750Y-99452000D01*
X174961057Y-99450345D01*
X174927688Y-99445395D01*
X174894965Y-99437198D01*
X174863203Y-99425834D01*
X174832707Y-99411410D01*
X174803773Y-99394068D01*
X174776677Y-99373972D01*
X174751682Y-99351318D01*
X174729028Y-99326323D01*
X174708932Y-99299227D01*
X174691590Y-99270293D01*
X174677166Y-99239797D01*
X174665802Y-99208035D01*
X174657605Y-99175312D01*
X174652655Y-99141943D01*
X174651000Y-99108250D01*
X174651000Y-97995750D01*
X174652655Y-97962057D01*
X174657605Y-97928688D01*
X174665802Y-97895965D01*
X174677166Y-97864203D01*
X174691590Y-97833707D01*
X174708932Y-97804773D01*
X174729028Y-97777677D01*
X174751682Y-97752682D01*
X174776677Y-97730028D01*
X174803773Y-97709932D01*
X174832707Y-97692590D01*
X174863203Y-97678166D01*
X174894965Y-97666802D01*
X174927688Y-97658605D01*
X174961057Y-97653655D01*
X174994750Y-97652000D01*
X175682250Y-97652000D01*
X175715943Y-97653655D01*
X175715943Y-97653655D01*
G37*
D11*
X175338500Y-98552000D03*
G04 #@! TD*
D10*
G04 #@! TO.C,R13*
G36*
X176223943Y-91303655D02*
X176257312Y-91308605D01*
X176290035Y-91316802D01*
X176321797Y-91328166D01*
X176352293Y-91342590D01*
X176381227Y-91359932D01*
X176408323Y-91380028D01*
X176433318Y-91402682D01*
X176455972Y-91427677D01*
X176476068Y-91454773D01*
X176493410Y-91483707D01*
X176507834Y-91514203D01*
X176519198Y-91545965D01*
X176527395Y-91578688D01*
X176532345Y-91612057D01*
X176534000Y-91645750D01*
X176534000Y-92758250D01*
X176532345Y-92791943D01*
X176527395Y-92825312D01*
X176519198Y-92858035D01*
X176507834Y-92889797D01*
X176493410Y-92920293D01*
X176476068Y-92949227D01*
X176455972Y-92976323D01*
X176433318Y-93001318D01*
X176408323Y-93023972D01*
X176381227Y-93044068D01*
X176352293Y-93061410D01*
X176321797Y-93075834D01*
X176290035Y-93087198D01*
X176257312Y-93095395D01*
X176223943Y-93100345D01*
X176190250Y-93102000D01*
X175502750Y-93102000D01*
X175469057Y-93100345D01*
X175435688Y-93095395D01*
X175402965Y-93087198D01*
X175371203Y-93075834D01*
X175340707Y-93061410D01*
X175311773Y-93044068D01*
X175284677Y-93023972D01*
X175259682Y-93001318D01*
X175237028Y-92976323D01*
X175216932Y-92949227D01*
X175199590Y-92920293D01*
X175185166Y-92889797D01*
X175173802Y-92858035D01*
X175165605Y-92825312D01*
X175160655Y-92791943D01*
X175159000Y-92758250D01*
X175159000Y-91645750D01*
X175160655Y-91612057D01*
X175165605Y-91578688D01*
X175173802Y-91545965D01*
X175185166Y-91514203D01*
X175199590Y-91483707D01*
X175216932Y-91454773D01*
X175237028Y-91427677D01*
X175259682Y-91402682D01*
X175284677Y-91380028D01*
X175311773Y-91359932D01*
X175340707Y-91342590D01*
X175371203Y-91328166D01*
X175402965Y-91316802D01*
X175435688Y-91308605D01*
X175469057Y-91303655D01*
X175502750Y-91302000D01*
X176190250Y-91302000D01*
X176223943Y-91303655D01*
X176223943Y-91303655D01*
G37*
D11*
X175846500Y-92202000D03*
D10*
G36*
X178098943Y-91303655D02*
X178132312Y-91308605D01*
X178165035Y-91316802D01*
X178196797Y-91328166D01*
X178227293Y-91342590D01*
X178256227Y-91359932D01*
X178283323Y-91380028D01*
X178308318Y-91402682D01*
X178330972Y-91427677D01*
X178351068Y-91454773D01*
X178368410Y-91483707D01*
X178382834Y-91514203D01*
X178394198Y-91545965D01*
X178402395Y-91578688D01*
X178407345Y-91612057D01*
X178409000Y-91645750D01*
X178409000Y-92758250D01*
X178407345Y-92791943D01*
X178402395Y-92825312D01*
X178394198Y-92858035D01*
X178382834Y-92889797D01*
X178368410Y-92920293D01*
X178351068Y-92949227D01*
X178330972Y-92976323D01*
X178308318Y-93001318D01*
X178283323Y-93023972D01*
X178256227Y-93044068D01*
X178227293Y-93061410D01*
X178196797Y-93075834D01*
X178165035Y-93087198D01*
X178132312Y-93095395D01*
X178098943Y-93100345D01*
X178065250Y-93102000D01*
X177377750Y-93102000D01*
X177344057Y-93100345D01*
X177310688Y-93095395D01*
X177277965Y-93087198D01*
X177246203Y-93075834D01*
X177215707Y-93061410D01*
X177186773Y-93044068D01*
X177159677Y-93023972D01*
X177134682Y-93001318D01*
X177112028Y-92976323D01*
X177091932Y-92949227D01*
X177074590Y-92920293D01*
X177060166Y-92889797D01*
X177048802Y-92858035D01*
X177040605Y-92825312D01*
X177035655Y-92791943D01*
X177034000Y-92758250D01*
X177034000Y-91645750D01*
X177035655Y-91612057D01*
X177040605Y-91578688D01*
X177048802Y-91545965D01*
X177060166Y-91514203D01*
X177074590Y-91483707D01*
X177091932Y-91454773D01*
X177112028Y-91427677D01*
X177134682Y-91402682D01*
X177159677Y-91380028D01*
X177186773Y-91359932D01*
X177215707Y-91342590D01*
X177246203Y-91328166D01*
X177277965Y-91316802D01*
X177310688Y-91308605D01*
X177344057Y-91303655D01*
X177377750Y-91302000D01*
X178065250Y-91302000D01*
X178098943Y-91303655D01*
X178098943Y-91303655D01*
G37*
D11*
X177721500Y-92202000D03*
G04 #@! TD*
D10*
G04 #@! TO.C,R14*
G36*
X175715943Y-86985655D02*
X175749312Y-86990605D01*
X175782035Y-86998802D01*
X175813797Y-87010166D01*
X175844293Y-87024590D01*
X175873227Y-87041932D01*
X175900323Y-87062028D01*
X175925318Y-87084682D01*
X175947972Y-87109677D01*
X175968068Y-87136773D01*
X175985410Y-87165707D01*
X175999834Y-87196203D01*
X176011198Y-87227965D01*
X176019395Y-87260688D01*
X176024345Y-87294057D01*
X176026000Y-87327750D01*
X176026000Y-88440250D01*
X176024345Y-88473943D01*
X176019395Y-88507312D01*
X176011198Y-88540035D01*
X175999834Y-88571797D01*
X175985410Y-88602293D01*
X175968068Y-88631227D01*
X175947972Y-88658323D01*
X175925318Y-88683318D01*
X175900323Y-88705972D01*
X175873227Y-88726068D01*
X175844293Y-88743410D01*
X175813797Y-88757834D01*
X175782035Y-88769198D01*
X175749312Y-88777395D01*
X175715943Y-88782345D01*
X175682250Y-88784000D01*
X174994750Y-88784000D01*
X174961057Y-88782345D01*
X174927688Y-88777395D01*
X174894965Y-88769198D01*
X174863203Y-88757834D01*
X174832707Y-88743410D01*
X174803773Y-88726068D01*
X174776677Y-88705972D01*
X174751682Y-88683318D01*
X174729028Y-88658323D01*
X174708932Y-88631227D01*
X174691590Y-88602293D01*
X174677166Y-88571797D01*
X174665802Y-88540035D01*
X174657605Y-88507312D01*
X174652655Y-88473943D01*
X174651000Y-88440250D01*
X174651000Y-87327750D01*
X174652655Y-87294057D01*
X174657605Y-87260688D01*
X174665802Y-87227965D01*
X174677166Y-87196203D01*
X174691590Y-87165707D01*
X174708932Y-87136773D01*
X174729028Y-87109677D01*
X174751682Y-87084682D01*
X174776677Y-87062028D01*
X174803773Y-87041932D01*
X174832707Y-87024590D01*
X174863203Y-87010166D01*
X174894965Y-86998802D01*
X174927688Y-86990605D01*
X174961057Y-86985655D01*
X174994750Y-86984000D01*
X175682250Y-86984000D01*
X175715943Y-86985655D01*
X175715943Y-86985655D01*
G37*
D11*
X175338500Y-87884000D03*
D10*
G36*
X177590943Y-86985655D02*
X177624312Y-86990605D01*
X177657035Y-86998802D01*
X177688797Y-87010166D01*
X177719293Y-87024590D01*
X177748227Y-87041932D01*
X177775323Y-87062028D01*
X177800318Y-87084682D01*
X177822972Y-87109677D01*
X177843068Y-87136773D01*
X177860410Y-87165707D01*
X177874834Y-87196203D01*
X177886198Y-87227965D01*
X177894395Y-87260688D01*
X177899345Y-87294057D01*
X177901000Y-87327750D01*
X177901000Y-88440250D01*
X177899345Y-88473943D01*
X177894395Y-88507312D01*
X177886198Y-88540035D01*
X177874834Y-88571797D01*
X177860410Y-88602293D01*
X177843068Y-88631227D01*
X177822972Y-88658323D01*
X177800318Y-88683318D01*
X177775323Y-88705972D01*
X177748227Y-88726068D01*
X177719293Y-88743410D01*
X177688797Y-88757834D01*
X177657035Y-88769198D01*
X177624312Y-88777395D01*
X177590943Y-88782345D01*
X177557250Y-88784000D01*
X176869750Y-88784000D01*
X176836057Y-88782345D01*
X176802688Y-88777395D01*
X176769965Y-88769198D01*
X176738203Y-88757834D01*
X176707707Y-88743410D01*
X176678773Y-88726068D01*
X176651677Y-88705972D01*
X176626682Y-88683318D01*
X176604028Y-88658323D01*
X176583932Y-88631227D01*
X176566590Y-88602293D01*
X176552166Y-88571797D01*
X176540802Y-88540035D01*
X176532605Y-88507312D01*
X176527655Y-88473943D01*
X176526000Y-88440250D01*
X176526000Y-87327750D01*
X176527655Y-87294057D01*
X176532605Y-87260688D01*
X176540802Y-87227965D01*
X176552166Y-87196203D01*
X176566590Y-87165707D01*
X176583932Y-87136773D01*
X176604028Y-87109677D01*
X176626682Y-87084682D01*
X176651677Y-87062028D01*
X176678773Y-87041932D01*
X176707707Y-87024590D01*
X176738203Y-87010166D01*
X176769965Y-86998802D01*
X176802688Y-86990605D01*
X176836057Y-86985655D01*
X176869750Y-86984000D01*
X177557250Y-86984000D01*
X177590943Y-86985655D01*
X177590943Y-86985655D01*
G37*
D11*
X177213500Y-87884000D03*
G04 #@! TD*
D10*
G04 #@! TO.C,R15*
G36*
X169339943Y-64501655D02*
X169373312Y-64506605D01*
X169406035Y-64514802D01*
X169437797Y-64526166D01*
X169468293Y-64540590D01*
X169497227Y-64557932D01*
X169524323Y-64578028D01*
X169549318Y-64600682D01*
X169571972Y-64625677D01*
X169592068Y-64652773D01*
X169609410Y-64681707D01*
X169623834Y-64712203D01*
X169635198Y-64743965D01*
X169643395Y-64776688D01*
X169648345Y-64810057D01*
X169650000Y-64843750D01*
X169650000Y-65531250D01*
X169648345Y-65564943D01*
X169643395Y-65598312D01*
X169635198Y-65631035D01*
X169623834Y-65662797D01*
X169609410Y-65693293D01*
X169592068Y-65722227D01*
X169571972Y-65749323D01*
X169549318Y-65774318D01*
X169524323Y-65796972D01*
X169497227Y-65817068D01*
X169468293Y-65834410D01*
X169437797Y-65848834D01*
X169406035Y-65860198D01*
X169373312Y-65868395D01*
X169339943Y-65873345D01*
X169306250Y-65875000D01*
X168193750Y-65875000D01*
X168160057Y-65873345D01*
X168126688Y-65868395D01*
X168093965Y-65860198D01*
X168062203Y-65848834D01*
X168031707Y-65834410D01*
X168002773Y-65817068D01*
X167975677Y-65796972D01*
X167950682Y-65774318D01*
X167928028Y-65749323D01*
X167907932Y-65722227D01*
X167890590Y-65693293D01*
X167876166Y-65662797D01*
X167864802Y-65631035D01*
X167856605Y-65598312D01*
X167851655Y-65564943D01*
X167850000Y-65531250D01*
X167850000Y-64843750D01*
X167851655Y-64810057D01*
X167856605Y-64776688D01*
X167864802Y-64743965D01*
X167876166Y-64712203D01*
X167890590Y-64681707D01*
X167907932Y-64652773D01*
X167928028Y-64625677D01*
X167950682Y-64600682D01*
X167975677Y-64578028D01*
X168002773Y-64557932D01*
X168031707Y-64540590D01*
X168062203Y-64526166D01*
X168093965Y-64514802D01*
X168126688Y-64506605D01*
X168160057Y-64501655D01*
X168193750Y-64500000D01*
X169306250Y-64500000D01*
X169339943Y-64501655D01*
X169339943Y-64501655D01*
G37*
D11*
X168750000Y-65187500D03*
D10*
G36*
X169339943Y-62626655D02*
X169373312Y-62631605D01*
X169406035Y-62639802D01*
X169437797Y-62651166D01*
X169468293Y-62665590D01*
X169497227Y-62682932D01*
X169524323Y-62703028D01*
X169549318Y-62725682D01*
X169571972Y-62750677D01*
X169592068Y-62777773D01*
X169609410Y-62806707D01*
X169623834Y-62837203D01*
X169635198Y-62868965D01*
X169643395Y-62901688D01*
X169648345Y-62935057D01*
X169650000Y-62968750D01*
X169650000Y-63656250D01*
X169648345Y-63689943D01*
X169643395Y-63723312D01*
X169635198Y-63756035D01*
X169623834Y-63787797D01*
X169609410Y-63818293D01*
X169592068Y-63847227D01*
X169571972Y-63874323D01*
X169549318Y-63899318D01*
X169524323Y-63921972D01*
X169497227Y-63942068D01*
X169468293Y-63959410D01*
X169437797Y-63973834D01*
X169406035Y-63985198D01*
X169373312Y-63993395D01*
X169339943Y-63998345D01*
X169306250Y-64000000D01*
X168193750Y-64000000D01*
X168160057Y-63998345D01*
X168126688Y-63993395D01*
X168093965Y-63985198D01*
X168062203Y-63973834D01*
X168031707Y-63959410D01*
X168002773Y-63942068D01*
X167975677Y-63921972D01*
X167950682Y-63899318D01*
X167928028Y-63874323D01*
X167907932Y-63847227D01*
X167890590Y-63818293D01*
X167876166Y-63787797D01*
X167864802Y-63756035D01*
X167856605Y-63723312D01*
X167851655Y-63689943D01*
X167850000Y-63656250D01*
X167850000Y-62968750D01*
X167851655Y-62935057D01*
X167856605Y-62901688D01*
X167864802Y-62868965D01*
X167876166Y-62837203D01*
X167890590Y-62806707D01*
X167907932Y-62777773D01*
X167928028Y-62750677D01*
X167950682Y-62725682D01*
X167975677Y-62703028D01*
X168002773Y-62682932D01*
X168031707Y-62665590D01*
X168062203Y-62651166D01*
X168093965Y-62639802D01*
X168126688Y-62631605D01*
X168160057Y-62626655D01*
X168193750Y-62625000D01*
X169306250Y-62625000D01*
X169339943Y-62626655D01*
X169339943Y-62626655D01*
G37*
D11*
X168750000Y-63312500D03*
G04 #@! TD*
D10*
G04 #@! TO.C,R16*
G36*
X174339943Y-63626655D02*
X174373312Y-63631605D01*
X174406035Y-63639802D01*
X174437797Y-63651166D01*
X174468293Y-63665590D01*
X174497227Y-63682932D01*
X174524323Y-63703028D01*
X174549318Y-63725682D01*
X174571972Y-63750677D01*
X174592068Y-63777773D01*
X174609410Y-63806707D01*
X174623834Y-63837203D01*
X174635198Y-63868965D01*
X174643395Y-63901688D01*
X174648345Y-63935057D01*
X174650000Y-63968750D01*
X174650000Y-64656250D01*
X174648345Y-64689943D01*
X174643395Y-64723312D01*
X174635198Y-64756035D01*
X174623834Y-64787797D01*
X174609410Y-64818293D01*
X174592068Y-64847227D01*
X174571972Y-64874323D01*
X174549318Y-64899318D01*
X174524323Y-64921972D01*
X174497227Y-64942068D01*
X174468293Y-64959410D01*
X174437797Y-64973834D01*
X174406035Y-64985198D01*
X174373312Y-64993395D01*
X174339943Y-64998345D01*
X174306250Y-65000000D01*
X173193750Y-65000000D01*
X173160057Y-64998345D01*
X173126688Y-64993395D01*
X173093965Y-64985198D01*
X173062203Y-64973834D01*
X173031707Y-64959410D01*
X173002773Y-64942068D01*
X172975677Y-64921972D01*
X172950682Y-64899318D01*
X172928028Y-64874323D01*
X172907932Y-64847227D01*
X172890590Y-64818293D01*
X172876166Y-64787797D01*
X172864802Y-64756035D01*
X172856605Y-64723312D01*
X172851655Y-64689943D01*
X172850000Y-64656250D01*
X172850000Y-63968750D01*
X172851655Y-63935057D01*
X172856605Y-63901688D01*
X172864802Y-63868965D01*
X172876166Y-63837203D01*
X172890590Y-63806707D01*
X172907932Y-63777773D01*
X172928028Y-63750677D01*
X172950682Y-63725682D01*
X172975677Y-63703028D01*
X173002773Y-63682932D01*
X173031707Y-63665590D01*
X173062203Y-63651166D01*
X173093965Y-63639802D01*
X173126688Y-63631605D01*
X173160057Y-63626655D01*
X173193750Y-63625000D01*
X174306250Y-63625000D01*
X174339943Y-63626655D01*
X174339943Y-63626655D01*
G37*
D11*
X173750000Y-64312500D03*
D10*
G36*
X174339943Y-65501655D02*
X174373312Y-65506605D01*
X174406035Y-65514802D01*
X174437797Y-65526166D01*
X174468293Y-65540590D01*
X174497227Y-65557932D01*
X174524323Y-65578028D01*
X174549318Y-65600682D01*
X174571972Y-65625677D01*
X174592068Y-65652773D01*
X174609410Y-65681707D01*
X174623834Y-65712203D01*
X174635198Y-65743965D01*
X174643395Y-65776688D01*
X174648345Y-65810057D01*
X174650000Y-65843750D01*
X174650000Y-66531250D01*
X174648345Y-66564943D01*
X174643395Y-66598312D01*
X174635198Y-66631035D01*
X174623834Y-66662797D01*
X174609410Y-66693293D01*
X174592068Y-66722227D01*
X174571972Y-66749323D01*
X174549318Y-66774318D01*
X174524323Y-66796972D01*
X174497227Y-66817068D01*
X174468293Y-66834410D01*
X174437797Y-66848834D01*
X174406035Y-66860198D01*
X174373312Y-66868395D01*
X174339943Y-66873345D01*
X174306250Y-66875000D01*
X173193750Y-66875000D01*
X173160057Y-66873345D01*
X173126688Y-66868395D01*
X173093965Y-66860198D01*
X173062203Y-66848834D01*
X173031707Y-66834410D01*
X173002773Y-66817068D01*
X172975677Y-66796972D01*
X172950682Y-66774318D01*
X172928028Y-66749323D01*
X172907932Y-66722227D01*
X172890590Y-66693293D01*
X172876166Y-66662797D01*
X172864802Y-66631035D01*
X172856605Y-66598312D01*
X172851655Y-66564943D01*
X172850000Y-66531250D01*
X172850000Y-65843750D01*
X172851655Y-65810057D01*
X172856605Y-65776688D01*
X172864802Y-65743965D01*
X172876166Y-65712203D01*
X172890590Y-65681707D01*
X172907932Y-65652773D01*
X172928028Y-65625677D01*
X172950682Y-65600682D01*
X172975677Y-65578028D01*
X173002773Y-65557932D01*
X173031707Y-65540590D01*
X173062203Y-65526166D01*
X173093965Y-65514802D01*
X173126688Y-65506605D01*
X173160057Y-65501655D01*
X173193750Y-65500000D01*
X174306250Y-65500000D01*
X174339943Y-65501655D01*
X174339943Y-65501655D01*
G37*
D11*
X173750000Y-66187500D03*
G04 #@! TD*
D10*
G04 #@! TO.C,R17*
G36*
X174839943Y-60703655D02*
X174873312Y-60708605D01*
X174906035Y-60716802D01*
X174937797Y-60728166D01*
X174968293Y-60742590D01*
X174997227Y-60759932D01*
X175024323Y-60780028D01*
X175049318Y-60802682D01*
X175071972Y-60827677D01*
X175092068Y-60854773D01*
X175109410Y-60883707D01*
X175123834Y-60914203D01*
X175135198Y-60945965D01*
X175143395Y-60978688D01*
X175148345Y-61012057D01*
X175150000Y-61045750D01*
X175150000Y-61733250D01*
X175148345Y-61766943D01*
X175143395Y-61800312D01*
X175135198Y-61833035D01*
X175123834Y-61864797D01*
X175109410Y-61895293D01*
X175092068Y-61924227D01*
X175071972Y-61951323D01*
X175049318Y-61976318D01*
X175024323Y-61998972D01*
X174997227Y-62019068D01*
X174968293Y-62036410D01*
X174937797Y-62050834D01*
X174906035Y-62062198D01*
X174873312Y-62070395D01*
X174839943Y-62075345D01*
X174806250Y-62077000D01*
X173693750Y-62077000D01*
X173660057Y-62075345D01*
X173626688Y-62070395D01*
X173593965Y-62062198D01*
X173562203Y-62050834D01*
X173531707Y-62036410D01*
X173502773Y-62019068D01*
X173475677Y-61998972D01*
X173450682Y-61976318D01*
X173428028Y-61951323D01*
X173407932Y-61924227D01*
X173390590Y-61895293D01*
X173376166Y-61864797D01*
X173364802Y-61833035D01*
X173356605Y-61800312D01*
X173351655Y-61766943D01*
X173350000Y-61733250D01*
X173350000Y-61045750D01*
X173351655Y-61012057D01*
X173356605Y-60978688D01*
X173364802Y-60945965D01*
X173376166Y-60914203D01*
X173390590Y-60883707D01*
X173407932Y-60854773D01*
X173428028Y-60827677D01*
X173450682Y-60802682D01*
X173475677Y-60780028D01*
X173502773Y-60759932D01*
X173531707Y-60742590D01*
X173562203Y-60728166D01*
X173593965Y-60716802D01*
X173626688Y-60708605D01*
X173660057Y-60703655D01*
X173693750Y-60702000D01*
X174806250Y-60702000D01*
X174839943Y-60703655D01*
X174839943Y-60703655D01*
G37*
D11*
X174250000Y-61389500D03*
D10*
G36*
X174839943Y-58828655D02*
X174873312Y-58833605D01*
X174906035Y-58841802D01*
X174937797Y-58853166D01*
X174968293Y-58867590D01*
X174997227Y-58884932D01*
X175024323Y-58905028D01*
X175049318Y-58927682D01*
X175071972Y-58952677D01*
X175092068Y-58979773D01*
X175109410Y-59008707D01*
X175123834Y-59039203D01*
X175135198Y-59070965D01*
X175143395Y-59103688D01*
X175148345Y-59137057D01*
X175150000Y-59170750D01*
X175150000Y-59858250D01*
X175148345Y-59891943D01*
X175143395Y-59925312D01*
X175135198Y-59958035D01*
X175123834Y-59989797D01*
X175109410Y-60020293D01*
X175092068Y-60049227D01*
X175071972Y-60076323D01*
X175049318Y-60101318D01*
X175024323Y-60123972D01*
X174997227Y-60144068D01*
X174968293Y-60161410D01*
X174937797Y-60175834D01*
X174906035Y-60187198D01*
X174873312Y-60195395D01*
X174839943Y-60200345D01*
X174806250Y-60202000D01*
X173693750Y-60202000D01*
X173660057Y-60200345D01*
X173626688Y-60195395D01*
X173593965Y-60187198D01*
X173562203Y-60175834D01*
X173531707Y-60161410D01*
X173502773Y-60144068D01*
X173475677Y-60123972D01*
X173450682Y-60101318D01*
X173428028Y-60076323D01*
X173407932Y-60049227D01*
X173390590Y-60020293D01*
X173376166Y-59989797D01*
X173364802Y-59958035D01*
X173356605Y-59925312D01*
X173351655Y-59891943D01*
X173350000Y-59858250D01*
X173350000Y-59170750D01*
X173351655Y-59137057D01*
X173356605Y-59103688D01*
X173364802Y-59070965D01*
X173376166Y-59039203D01*
X173390590Y-59008707D01*
X173407932Y-58979773D01*
X173428028Y-58952677D01*
X173450682Y-58927682D01*
X173475677Y-58905028D01*
X173502773Y-58884932D01*
X173531707Y-58867590D01*
X173562203Y-58853166D01*
X173593965Y-58841802D01*
X173626688Y-58833605D01*
X173660057Y-58828655D01*
X173693750Y-58827000D01*
X174806250Y-58827000D01*
X174839943Y-58828655D01*
X174839943Y-58828655D01*
G37*
D11*
X174250000Y-59514500D03*
G04 #@! TD*
D10*
G04 #@! TO.C,R25*
G36*
X148870581Y-76401625D02*
X148903343Y-76406485D01*
X148935471Y-76414533D01*
X148966656Y-76425691D01*
X148996596Y-76439852D01*
X149025005Y-76456879D01*
X149051608Y-76476609D01*
X149076149Y-76498851D01*
X149098391Y-76523392D01*
X149118121Y-76549995D01*
X149135148Y-76578404D01*
X149149309Y-76608344D01*
X149160467Y-76639529D01*
X149168515Y-76671657D01*
X149173375Y-76704419D01*
X149175000Y-76737500D01*
X149175000Y-77512500D01*
X149173375Y-77545581D01*
X149168515Y-77578343D01*
X149160467Y-77610471D01*
X149149309Y-77641656D01*
X149135148Y-77671596D01*
X149118121Y-77700005D01*
X149098391Y-77726608D01*
X149076149Y-77751149D01*
X149051608Y-77773391D01*
X149025005Y-77793121D01*
X148996596Y-77810148D01*
X148966656Y-77824309D01*
X148935471Y-77835467D01*
X148903343Y-77843515D01*
X148870581Y-77848375D01*
X148837500Y-77850000D01*
X148162500Y-77850000D01*
X148129419Y-77848375D01*
X148096657Y-77843515D01*
X148064529Y-77835467D01*
X148033344Y-77824309D01*
X148003404Y-77810148D01*
X147974995Y-77793121D01*
X147948392Y-77773391D01*
X147923851Y-77751149D01*
X147901609Y-77726608D01*
X147881879Y-77700005D01*
X147864852Y-77671596D01*
X147850691Y-77641656D01*
X147839533Y-77610471D01*
X147831485Y-77578343D01*
X147826625Y-77545581D01*
X147825000Y-77512500D01*
X147825000Y-76737500D01*
X147826625Y-76704419D01*
X147831485Y-76671657D01*
X147839533Y-76639529D01*
X147850691Y-76608344D01*
X147864852Y-76578404D01*
X147881879Y-76549995D01*
X147901609Y-76523392D01*
X147923851Y-76498851D01*
X147948392Y-76476609D01*
X147974995Y-76456879D01*
X148003404Y-76439852D01*
X148033344Y-76425691D01*
X148064529Y-76414533D01*
X148096657Y-76406485D01*
X148129419Y-76401625D01*
X148162500Y-76400000D01*
X148837500Y-76400000D01*
X148870581Y-76401625D01*
X148870581Y-76401625D01*
G37*
D17*
X148500000Y-77125000D03*
D10*
G36*
X148870581Y-74651625D02*
X148903343Y-74656485D01*
X148935471Y-74664533D01*
X148966656Y-74675691D01*
X148996596Y-74689852D01*
X149025005Y-74706879D01*
X149051608Y-74726609D01*
X149076149Y-74748851D01*
X149098391Y-74773392D01*
X149118121Y-74799995D01*
X149135148Y-74828404D01*
X149149309Y-74858344D01*
X149160467Y-74889529D01*
X149168515Y-74921657D01*
X149173375Y-74954419D01*
X149175000Y-74987500D01*
X149175000Y-75762500D01*
X149173375Y-75795581D01*
X149168515Y-75828343D01*
X149160467Y-75860471D01*
X149149309Y-75891656D01*
X149135148Y-75921596D01*
X149118121Y-75950005D01*
X149098391Y-75976608D01*
X149076149Y-76001149D01*
X149051608Y-76023391D01*
X149025005Y-76043121D01*
X148996596Y-76060148D01*
X148966656Y-76074309D01*
X148935471Y-76085467D01*
X148903343Y-76093515D01*
X148870581Y-76098375D01*
X148837500Y-76100000D01*
X148162500Y-76100000D01*
X148129419Y-76098375D01*
X148096657Y-76093515D01*
X148064529Y-76085467D01*
X148033344Y-76074309D01*
X148003404Y-76060148D01*
X147974995Y-76043121D01*
X147948392Y-76023391D01*
X147923851Y-76001149D01*
X147901609Y-75976608D01*
X147881879Y-75950005D01*
X147864852Y-75921596D01*
X147850691Y-75891656D01*
X147839533Y-75860471D01*
X147831485Y-75828343D01*
X147826625Y-75795581D01*
X147825000Y-75762500D01*
X147825000Y-74987500D01*
X147826625Y-74954419D01*
X147831485Y-74921657D01*
X147839533Y-74889529D01*
X147850691Y-74858344D01*
X147864852Y-74828404D01*
X147881879Y-74799995D01*
X147901609Y-74773392D01*
X147923851Y-74748851D01*
X147948392Y-74726609D01*
X147974995Y-74706879D01*
X148003404Y-74689852D01*
X148033344Y-74675691D01*
X148064529Y-74664533D01*
X148096657Y-74656485D01*
X148129419Y-74651625D01*
X148162500Y-74650000D01*
X148837500Y-74650000D01*
X148870581Y-74651625D01*
X148870581Y-74651625D01*
G37*
D17*
X148500000Y-75375000D03*
G04 #@! TD*
D18*
G04 #@! TO.C,RASPI_2_3_HEADER1*
X142500000Y-102500000D03*
D19*
X139960000Y-102500000D03*
X142500000Y-99960000D03*
X139960000Y-99960000D03*
X142500000Y-97420000D03*
X139960000Y-97420000D03*
X142500000Y-94880000D03*
X139960000Y-94880000D03*
X142500000Y-92340000D03*
X139960000Y-92340000D03*
X142500000Y-89800000D03*
X139960000Y-89800000D03*
X142500000Y-87260000D03*
X139960000Y-87260000D03*
X142500000Y-84720000D03*
X139960000Y-84720000D03*
X142500000Y-82180000D03*
X139960000Y-82180000D03*
X142500000Y-79640000D03*
X139960000Y-79640000D03*
X142500000Y-77100000D03*
X139960000Y-77100000D03*
X142500000Y-74560000D03*
X139960000Y-74560000D03*
X142500000Y-72020000D03*
X139960000Y-72020000D03*
X142500000Y-69480000D03*
X139960000Y-69480000D03*
X142500000Y-66940000D03*
X139960000Y-66940000D03*
X142500000Y-64400000D03*
X139960000Y-64400000D03*
X142500000Y-61860000D03*
X139960000Y-61860000D03*
X142500000Y-59320000D03*
X139960000Y-59320000D03*
X142500000Y-56780000D03*
X139960000Y-56780000D03*
X142500000Y-54240000D03*
X139960000Y-54240000D03*
G04 #@! TD*
D20*
G04 #@! TO.C,U1*
X160276000Y-97560000D03*
X160276000Y-96290000D03*
X160276000Y-95020000D03*
X160276000Y-93750000D03*
X160276000Y-92480000D03*
X160276000Y-91210000D03*
X160276000Y-89940000D03*
X165676000Y-89940000D03*
X165676000Y-91210000D03*
X165676000Y-92480000D03*
X165676000Y-93750000D03*
X165676000Y-95020000D03*
X165676000Y-96290000D03*
X165676000Y-97560000D03*
G04 #@! TD*
G04 #@! TO.C,U2*
X164700000Y-59310000D03*
X164700000Y-58040000D03*
X164700000Y-56770000D03*
X164700000Y-55500000D03*
X164700000Y-54230000D03*
X164700000Y-52960000D03*
X164700000Y-51690000D03*
X159300000Y-51690000D03*
X159300000Y-52960000D03*
X159300000Y-54230000D03*
X159300000Y-55500000D03*
X159300000Y-56770000D03*
X159300000Y-58040000D03*
X159300000Y-59310000D03*
G04 #@! TD*
D21*
G04 #@! TO.C,U3*
X158115000Y-67570000D03*
X159385000Y-67570000D03*
X160655000Y-67570000D03*
X161925000Y-67570000D03*
X163195000Y-67570000D03*
X164465000Y-67570000D03*
X165735000Y-67570000D03*
X167005000Y-67570000D03*
X167005000Y-74670000D03*
X165735000Y-74670000D03*
X164465000Y-74670000D03*
X163195000Y-74670000D03*
X161925000Y-74670000D03*
X160655000Y-74670000D03*
X159385000Y-74670000D03*
X158115000Y-74670000D03*
G04 #@! TD*
D10*
G04 #@! TO.C,R31*
G36*
X187814943Y-95851655D02*
X187848312Y-95856605D01*
X187881035Y-95864802D01*
X187912797Y-95876166D01*
X187943293Y-95890590D01*
X187972227Y-95907932D01*
X187999323Y-95928028D01*
X188024318Y-95950682D01*
X188046972Y-95975677D01*
X188067068Y-96002773D01*
X188084410Y-96031707D01*
X188098834Y-96062203D01*
X188110198Y-96093965D01*
X188118395Y-96126688D01*
X188123345Y-96160057D01*
X188125000Y-96193750D01*
X188125000Y-97306250D01*
X188123345Y-97339943D01*
X188118395Y-97373312D01*
X188110198Y-97406035D01*
X188098834Y-97437797D01*
X188084410Y-97468293D01*
X188067068Y-97497227D01*
X188046972Y-97524323D01*
X188024318Y-97549318D01*
X187999323Y-97571972D01*
X187972227Y-97592068D01*
X187943293Y-97609410D01*
X187912797Y-97623834D01*
X187881035Y-97635198D01*
X187848312Y-97643395D01*
X187814943Y-97648345D01*
X187781250Y-97650000D01*
X187093750Y-97650000D01*
X187060057Y-97648345D01*
X187026688Y-97643395D01*
X186993965Y-97635198D01*
X186962203Y-97623834D01*
X186931707Y-97609410D01*
X186902773Y-97592068D01*
X186875677Y-97571972D01*
X186850682Y-97549318D01*
X186828028Y-97524323D01*
X186807932Y-97497227D01*
X186790590Y-97468293D01*
X186776166Y-97437797D01*
X186764802Y-97406035D01*
X186756605Y-97373312D01*
X186751655Y-97339943D01*
X186750000Y-97306250D01*
X186750000Y-96193750D01*
X186751655Y-96160057D01*
X186756605Y-96126688D01*
X186764802Y-96093965D01*
X186776166Y-96062203D01*
X186790590Y-96031707D01*
X186807932Y-96002773D01*
X186828028Y-95975677D01*
X186850682Y-95950682D01*
X186875677Y-95928028D01*
X186902773Y-95907932D01*
X186931707Y-95890590D01*
X186962203Y-95876166D01*
X186993965Y-95864802D01*
X187026688Y-95856605D01*
X187060057Y-95851655D01*
X187093750Y-95850000D01*
X187781250Y-95850000D01*
X187814943Y-95851655D01*
X187814943Y-95851655D01*
G37*
D11*
X187437500Y-96750000D03*
D10*
G36*
X185939943Y-95851655D02*
X185973312Y-95856605D01*
X186006035Y-95864802D01*
X186037797Y-95876166D01*
X186068293Y-95890590D01*
X186097227Y-95907932D01*
X186124323Y-95928028D01*
X186149318Y-95950682D01*
X186171972Y-95975677D01*
X186192068Y-96002773D01*
X186209410Y-96031707D01*
X186223834Y-96062203D01*
X186235198Y-96093965D01*
X186243395Y-96126688D01*
X186248345Y-96160057D01*
X186250000Y-96193750D01*
X186250000Y-97306250D01*
X186248345Y-97339943D01*
X186243395Y-97373312D01*
X186235198Y-97406035D01*
X186223834Y-97437797D01*
X186209410Y-97468293D01*
X186192068Y-97497227D01*
X186171972Y-97524323D01*
X186149318Y-97549318D01*
X186124323Y-97571972D01*
X186097227Y-97592068D01*
X186068293Y-97609410D01*
X186037797Y-97623834D01*
X186006035Y-97635198D01*
X185973312Y-97643395D01*
X185939943Y-97648345D01*
X185906250Y-97650000D01*
X185218750Y-97650000D01*
X185185057Y-97648345D01*
X185151688Y-97643395D01*
X185118965Y-97635198D01*
X185087203Y-97623834D01*
X185056707Y-97609410D01*
X185027773Y-97592068D01*
X185000677Y-97571972D01*
X184975682Y-97549318D01*
X184953028Y-97524323D01*
X184932932Y-97497227D01*
X184915590Y-97468293D01*
X184901166Y-97437797D01*
X184889802Y-97406035D01*
X184881605Y-97373312D01*
X184876655Y-97339943D01*
X184875000Y-97306250D01*
X184875000Y-96193750D01*
X184876655Y-96160057D01*
X184881605Y-96126688D01*
X184889802Y-96093965D01*
X184901166Y-96062203D01*
X184915590Y-96031707D01*
X184932932Y-96002773D01*
X184953028Y-95975677D01*
X184975682Y-95950682D01*
X185000677Y-95928028D01*
X185027773Y-95907932D01*
X185056707Y-95890590D01*
X185087203Y-95876166D01*
X185118965Y-95864802D01*
X185151688Y-95856605D01*
X185185057Y-95851655D01*
X185218750Y-95850000D01*
X185906250Y-95850000D01*
X185939943Y-95851655D01*
X185939943Y-95851655D01*
G37*
D11*
X185562500Y-96750000D03*
G04 #@! TD*
D10*
G04 #@! TO.C,R32*
G36*
X185939943Y-88851655D02*
X185973312Y-88856605D01*
X186006035Y-88864802D01*
X186037797Y-88876166D01*
X186068293Y-88890590D01*
X186097227Y-88907932D01*
X186124323Y-88928028D01*
X186149318Y-88950682D01*
X186171972Y-88975677D01*
X186192068Y-89002773D01*
X186209410Y-89031707D01*
X186223834Y-89062203D01*
X186235198Y-89093965D01*
X186243395Y-89126688D01*
X186248345Y-89160057D01*
X186250000Y-89193750D01*
X186250000Y-90306250D01*
X186248345Y-90339943D01*
X186243395Y-90373312D01*
X186235198Y-90406035D01*
X186223834Y-90437797D01*
X186209410Y-90468293D01*
X186192068Y-90497227D01*
X186171972Y-90524323D01*
X186149318Y-90549318D01*
X186124323Y-90571972D01*
X186097227Y-90592068D01*
X186068293Y-90609410D01*
X186037797Y-90623834D01*
X186006035Y-90635198D01*
X185973312Y-90643395D01*
X185939943Y-90648345D01*
X185906250Y-90650000D01*
X185218750Y-90650000D01*
X185185057Y-90648345D01*
X185151688Y-90643395D01*
X185118965Y-90635198D01*
X185087203Y-90623834D01*
X185056707Y-90609410D01*
X185027773Y-90592068D01*
X185000677Y-90571972D01*
X184975682Y-90549318D01*
X184953028Y-90524323D01*
X184932932Y-90497227D01*
X184915590Y-90468293D01*
X184901166Y-90437797D01*
X184889802Y-90406035D01*
X184881605Y-90373312D01*
X184876655Y-90339943D01*
X184875000Y-90306250D01*
X184875000Y-89193750D01*
X184876655Y-89160057D01*
X184881605Y-89126688D01*
X184889802Y-89093965D01*
X184901166Y-89062203D01*
X184915590Y-89031707D01*
X184932932Y-89002773D01*
X184953028Y-88975677D01*
X184975682Y-88950682D01*
X185000677Y-88928028D01*
X185027773Y-88907932D01*
X185056707Y-88890590D01*
X185087203Y-88876166D01*
X185118965Y-88864802D01*
X185151688Y-88856605D01*
X185185057Y-88851655D01*
X185218750Y-88850000D01*
X185906250Y-88850000D01*
X185939943Y-88851655D01*
X185939943Y-88851655D01*
G37*
D11*
X185562500Y-89750000D03*
D10*
G36*
X187814943Y-88851655D02*
X187848312Y-88856605D01*
X187881035Y-88864802D01*
X187912797Y-88876166D01*
X187943293Y-88890590D01*
X187972227Y-88907932D01*
X187999323Y-88928028D01*
X188024318Y-88950682D01*
X188046972Y-88975677D01*
X188067068Y-89002773D01*
X188084410Y-89031707D01*
X188098834Y-89062203D01*
X188110198Y-89093965D01*
X188118395Y-89126688D01*
X188123345Y-89160057D01*
X188125000Y-89193750D01*
X188125000Y-90306250D01*
X188123345Y-90339943D01*
X188118395Y-90373312D01*
X188110198Y-90406035D01*
X188098834Y-90437797D01*
X188084410Y-90468293D01*
X188067068Y-90497227D01*
X188046972Y-90524323D01*
X188024318Y-90549318D01*
X187999323Y-90571972D01*
X187972227Y-90592068D01*
X187943293Y-90609410D01*
X187912797Y-90623834D01*
X187881035Y-90635198D01*
X187848312Y-90643395D01*
X187814943Y-90648345D01*
X187781250Y-90650000D01*
X187093750Y-90650000D01*
X187060057Y-90648345D01*
X187026688Y-90643395D01*
X186993965Y-90635198D01*
X186962203Y-90623834D01*
X186931707Y-90609410D01*
X186902773Y-90592068D01*
X186875677Y-90571972D01*
X186850682Y-90549318D01*
X186828028Y-90524323D01*
X186807932Y-90497227D01*
X186790590Y-90468293D01*
X186776166Y-90437797D01*
X186764802Y-90406035D01*
X186756605Y-90373312D01*
X186751655Y-90339943D01*
X186750000Y-90306250D01*
X186750000Y-89193750D01*
X186751655Y-89160057D01*
X186756605Y-89126688D01*
X186764802Y-89093965D01*
X186776166Y-89062203D01*
X186790590Y-89031707D01*
X186807932Y-89002773D01*
X186828028Y-88975677D01*
X186850682Y-88950682D01*
X186875677Y-88928028D01*
X186902773Y-88907932D01*
X186931707Y-88890590D01*
X186962203Y-88876166D01*
X186993965Y-88864802D01*
X187026688Y-88856605D01*
X187060057Y-88851655D01*
X187093750Y-88850000D01*
X187781250Y-88850000D01*
X187814943Y-88851655D01*
X187814943Y-88851655D01*
G37*
D11*
X187437500Y-89750000D03*
G04 #@! TD*
D10*
G04 #@! TO.C,R33*
G36*
X187814943Y-81851655D02*
X187848312Y-81856605D01*
X187881035Y-81864802D01*
X187912797Y-81876166D01*
X187943293Y-81890590D01*
X187972227Y-81907932D01*
X187999323Y-81928028D01*
X188024318Y-81950682D01*
X188046972Y-81975677D01*
X188067068Y-82002773D01*
X188084410Y-82031707D01*
X188098834Y-82062203D01*
X188110198Y-82093965D01*
X188118395Y-82126688D01*
X188123345Y-82160057D01*
X188125000Y-82193750D01*
X188125000Y-83306250D01*
X188123345Y-83339943D01*
X188118395Y-83373312D01*
X188110198Y-83406035D01*
X188098834Y-83437797D01*
X188084410Y-83468293D01*
X188067068Y-83497227D01*
X188046972Y-83524323D01*
X188024318Y-83549318D01*
X187999323Y-83571972D01*
X187972227Y-83592068D01*
X187943293Y-83609410D01*
X187912797Y-83623834D01*
X187881035Y-83635198D01*
X187848312Y-83643395D01*
X187814943Y-83648345D01*
X187781250Y-83650000D01*
X187093750Y-83650000D01*
X187060057Y-83648345D01*
X187026688Y-83643395D01*
X186993965Y-83635198D01*
X186962203Y-83623834D01*
X186931707Y-83609410D01*
X186902773Y-83592068D01*
X186875677Y-83571972D01*
X186850682Y-83549318D01*
X186828028Y-83524323D01*
X186807932Y-83497227D01*
X186790590Y-83468293D01*
X186776166Y-83437797D01*
X186764802Y-83406035D01*
X186756605Y-83373312D01*
X186751655Y-83339943D01*
X186750000Y-83306250D01*
X186750000Y-82193750D01*
X186751655Y-82160057D01*
X186756605Y-82126688D01*
X186764802Y-82093965D01*
X186776166Y-82062203D01*
X186790590Y-82031707D01*
X186807932Y-82002773D01*
X186828028Y-81975677D01*
X186850682Y-81950682D01*
X186875677Y-81928028D01*
X186902773Y-81907932D01*
X186931707Y-81890590D01*
X186962203Y-81876166D01*
X186993965Y-81864802D01*
X187026688Y-81856605D01*
X187060057Y-81851655D01*
X187093750Y-81850000D01*
X187781250Y-81850000D01*
X187814943Y-81851655D01*
X187814943Y-81851655D01*
G37*
D11*
X187437500Y-82750000D03*
D10*
G36*
X185939943Y-81851655D02*
X185973312Y-81856605D01*
X186006035Y-81864802D01*
X186037797Y-81876166D01*
X186068293Y-81890590D01*
X186097227Y-81907932D01*
X186124323Y-81928028D01*
X186149318Y-81950682D01*
X186171972Y-81975677D01*
X186192068Y-82002773D01*
X186209410Y-82031707D01*
X186223834Y-82062203D01*
X186235198Y-82093965D01*
X186243395Y-82126688D01*
X186248345Y-82160057D01*
X186250000Y-82193750D01*
X186250000Y-83306250D01*
X186248345Y-83339943D01*
X186243395Y-83373312D01*
X186235198Y-83406035D01*
X186223834Y-83437797D01*
X186209410Y-83468293D01*
X186192068Y-83497227D01*
X186171972Y-83524323D01*
X186149318Y-83549318D01*
X186124323Y-83571972D01*
X186097227Y-83592068D01*
X186068293Y-83609410D01*
X186037797Y-83623834D01*
X186006035Y-83635198D01*
X185973312Y-83643395D01*
X185939943Y-83648345D01*
X185906250Y-83650000D01*
X185218750Y-83650000D01*
X185185057Y-83648345D01*
X185151688Y-83643395D01*
X185118965Y-83635198D01*
X185087203Y-83623834D01*
X185056707Y-83609410D01*
X185027773Y-83592068D01*
X185000677Y-83571972D01*
X184975682Y-83549318D01*
X184953028Y-83524323D01*
X184932932Y-83497227D01*
X184915590Y-83468293D01*
X184901166Y-83437797D01*
X184889802Y-83406035D01*
X184881605Y-83373312D01*
X184876655Y-83339943D01*
X184875000Y-83306250D01*
X184875000Y-82193750D01*
X184876655Y-82160057D01*
X184881605Y-82126688D01*
X184889802Y-82093965D01*
X184901166Y-82062203D01*
X184915590Y-82031707D01*
X184932932Y-82002773D01*
X184953028Y-81975677D01*
X184975682Y-81950682D01*
X185000677Y-81928028D01*
X185027773Y-81907932D01*
X185056707Y-81890590D01*
X185087203Y-81876166D01*
X185118965Y-81864802D01*
X185151688Y-81856605D01*
X185185057Y-81851655D01*
X185218750Y-81850000D01*
X185906250Y-81850000D01*
X185939943Y-81851655D01*
X185939943Y-81851655D01*
G37*
D11*
X185562500Y-82750000D03*
G04 #@! TD*
D10*
G04 #@! TO.C,R34*
G36*
X185939943Y-74851655D02*
X185973312Y-74856605D01*
X186006035Y-74864802D01*
X186037797Y-74876166D01*
X186068293Y-74890590D01*
X186097227Y-74907932D01*
X186124323Y-74928028D01*
X186149318Y-74950682D01*
X186171972Y-74975677D01*
X186192068Y-75002773D01*
X186209410Y-75031707D01*
X186223834Y-75062203D01*
X186235198Y-75093965D01*
X186243395Y-75126688D01*
X186248345Y-75160057D01*
X186250000Y-75193750D01*
X186250000Y-76306250D01*
X186248345Y-76339943D01*
X186243395Y-76373312D01*
X186235198Y-76406035D01*
X186223834Y-76437797D01*
X186209410Y-76468293D01*
X186192068Y-76497227D01*
X186171972Y-76524323D01*
X186149318Y-76549318D01*
X186124323Y-76571972D01*
X186097227Y-76592068D01*
X186068293Y-76609410D01*
X186037797Y-76623834D01*
X186006035Y-76635198D01*
X185973312Y-76643395D01*
X185939943Y-76648345D01*
X185906250Y-76650000D01*
X185218750Y-76650000D01*
X185185057Y-76648345D01*
X185151688Y-76643395D01*
X185118965Y-76635198D01*
X185087203Y-76623834D01*
X185056707Y-76609410D01*
X185027773Y-76592068D01*
X185000677Y-76571972D01*
X184975682Y-76549318D01*
X184953028Y-76524323D01*
X184932932Y-76497227D01*
X184915590Y-76468293D01*
X184901166Y-76437797D01*
X184889802Y-76406035D01*
X184881605Y-76373312D01*
X184876655Y-76339943D01*
X184875000Y-76306250D01*
X184875000Y-75193750D01*
X184876655Y-75160057D01*
X184881605Y-75126688D01*
X184889802Y-75093965D01*
X184901166Y-75062203D01*
X184915590Y-75031707D01*
X184932932Y-75002773D01*
X184953028Y-74975677D01*
X184975682Y-74950682D01*
X185000677Y-74928028D01*
X185027773Y-74907932D01*
X185056707Y-74890590D01*
X185087203Y-74876166D01*
X185118965Y-74864802D01*
X185151688Y-74856605D01*
X185185057Y-74851655D01*
X185218750Y-74850000D01*
X185906250Y-74850000D01*
X185939943Y-74851655D01*
X185939943Y-74851655D01*
G37*
D11*
X185562500Y-75750000D03*
D10*
G36*
X187814943Y-74851655D02*
X187848312Y-74856605D01*
X187881035Y-74864802D01*
X187912797Y-74876166D01*
X187943293Y-74890590D01*
X187972227Y-74907932D01*
X187999323Y-74928028D01*
X188024318Y-74950682D01*
X188046972Y-74975677D01*
X188067068Y-75002773D01*
X188084410Y-75031707D01*
X188098834Y-75062203D01*
X188110198Y-75093965D01*
X188118395Y-75126688D01*
X188123345Y-75160057D01*
X188125000Y-75193750D01*
X188125000Y-76306250D01*
X188123345Y-76339943D01*
X188118395Y-76373312D01*
X188110198Y-76406035D01*
X188098834Y-76437797D01*
X188084410Y-76468293D01*
X188067068Y-76497227D01*
X188046972Y-76524323D01*
X188024318Y-76549318D01*
X187999323Y-76571972D01*
X187972227Y-76592068D01*
X187943293Y-76609410D01*
X187912797Y-76623834D01*
X187881035Y-76635198D01*
X187848312Y-76643395D01*
X187814943Y-76648345D01*
X187781250Y-76650000D01*
X187093750Y-76650000D01*
X187060057Y-76648345D01*
X187026688Y-76643395D01*
X186993965Y-76635198D01*
X186962203Y-76623834D01*
X186931707Y-76609410D01*
X186902773Y-76592068D01*
X186875677Y-76571972D01*
X186850682Y-76549318D01*
X186828028Y-76524323D01*
X186807932Y-76497227D01*
X186790590Y-76468293D01*
X186776166Y-76437797D01*
X186764802Y-76406035D01*
X186756605Y-76373312D01*
X186751655Y-76339943D01*
X186750000Y-76306250D01*
X186750000Y-75193750D01*
X186751655Y-75160057D01*
X186756605Y-75126688D01*
X186764802Y-75093965D01*
X186776166Y-75062203D01*
X186790590Y-75031707D01*
X186807932Y-75002773D01*
X186828028Y-74975677D01*
X186850682Y-74950682D01*
X186875677Y-74928028D01*
X186902773Y-74907932D01*
X186931707Y-74890590D01*
X186962203Y-74876166D01*
X186993965Y-74864802D01*
X187026688Y-74856605D01*
X187060057Y-74851655D01*
X187093750Y-74850000D01*
X187781250Y-74850000D01*
X187814943Y-74851655D01*
X187814943Y-74851655D01*
G37*
D11*
X187437500Y-75750000D03*
G04 #@! TD*
D10*
G04 #@! TO.C,R35*
G36*
X187814943Y-67851655D02*
X187848312Y-67856605D01*
X187881035Y-67864802D01*
X187912797Y-67876166D01*
X187943293Y-67890590D01*
X187972227Y-67907932D01*
X187999323Y-67928028D01*
X188024318Y-67950682D01*
X188046972Y-67975677D01*
X188067068Y-68002773D01*
X188084410Y-68031707D01*
X188098834Y-68062203D01*
X188110198Y-68093965D01*
X188118395Y-68126688D01*
X188123345Y-68160057D01*
X188125000Y-68193750D01*
X188125000Y-69306250D01*
X188123345Y-69339943D01*
X188118395Y-69373312D01*
X188110198Y-69406035D01*
X188098834Y-69437797D01*
X188084410Y-69468293D01*
X188067068Y-69497227D01*
X188046972Y-69524323D01*
X188024318Y-69549318D01*
X187999323Y-69571972D01*
X187972227Y-69592068D01*
X187943293Y-69609410D01*
X187912797Y-69623834D01*
X187881035Y-69635198D01*
X187848312Y-69643395D01*
X187814943Y-69648345D01*
X187781250Y-69650000D01*
X187093750Y-69650000D01*
X187060057Y-69648345D01*
X187026688Y-69643395D01*
X186993965Y-69635198D01*
X186962203Y-69623834D01*
X186931707Y-69609410D01*
X186902773Y-69592068D01*
X186875677Y-69571972D01*
X186850682Y-69549318D01*
X186828028Y-69524323D01*
X186807932Y-69497227D01*
X186790590Y-69468293D01*
X186776166Y-69437797D01*
X186764802Y-69406035D01*
X186756605Y-69373312D01*
X186751655Y-69339943D01*
X186750000Y-69306250D01*
X186750000Y-68193750D01*
X186751655Y-68160057D01*
X186756605Y-68126688D01*
X186764802Y-68093965D01*
X186776166Y-68062203D01*
X186790590Y-68031707D01*
X186807932Y-68002773D01*
X186828028Y-67975677D01*
X186850682Y-67950682D01*
X186875677Y-67928028D01*
X186902773Y-67907932D01*
X186931707Y-67890590D01*
X186962203Y-67876166D01*
X186993965Y-67864802D01*
X187026688Y-67856605D01*
X187060057Y-67851655D01*
X187093750Y-67850000D01*
X187781250Y-67850000D01*
X187814943Y-67851655D01*
X187814943Y-67851655D01*
G37*
D11*
X187437500Y-68750000D03*
D10*
G36*
X185939943Y-67851655D02*
X185973312Y-67856605D01*
X186006035Y-67864802D01*
X186037797Y-67876166D01*
X186068293Y-67890590D01*
X186097227Y-67907932D01*
X186124323Y-67928028D01*
X186149318Y-67950682D01*
X186171972Y-67975677D01*
X186192068Y-68002773D01*
X186209410Y-68031707D01*
X186223834Y-68062203D01*
X186235198Y-68093965D01*
X186243395Y-68126688D01*
X186248345Y-68160057D01*
X186250000Y-68193750D01*
X186250000Y-69306250D01*
X186248345Y-69339943D01*
X186243395Y-69373312D01*
X186235198Y-69406035D01*
X186223834Y-69437797D01*
X186209410Y-69468293D01*
X186192068Y-69497227D01*
X186171972Y-69524323D01*
X186149318Y-69549318D01*
X186124323Y-69571972D01*
X186097227Y-69592068D01*
X186068293Y-69609410D01*
X186037797Y-69623834D01*
X186006035Y-69635198D01*
X185973312Y-69643395D01*
X185939943Y-69648345D01*
X185906250Y-69650000D01*
X185218750Y-69650000D01*
X185185057Y-69648345D01*
X185151688Y-69643395D01*
X185118965Y-69635198D01*
X185087203Y-69623834D01*
X185056707Y-69609410D01*
X185027773Y-69592068D01*
X185000677Y-69571972D01*
X184975682Y-69549318D01*
X184953028Y-69524323D01*
X184932932Y-69497227D01*
X184915590Y-69468293D01*
X184901166Y-69437797D01*
X184889802Y-69406035D01*
X184881605Y-69373312D01*
X184876655Y-69339943D01*
X184875000Y-69306250D01*
X184875000Y-68193750D01*
X184876655Y-68160057D01*
X184881605Y-68126688D01*
X184889802Y-68093965D01*
X184901166Y-68062203D01*
X184915590Y-68031707D01*
X184932932Y-68002773D01*
X184953028Y-67975677D01*
X184975682Y-67950682D01*
X185000677Y-67928028D01*
X185027773Y-67907932D01*
X185056707Y-67890590D01*
X185087203Y-67876166D01*
X185118965Y-67864802D01*
X185151688Y-67856605D01*
X185185057Y-67851655D01*
X185218750Y-67850000D01*
X185906250Y-67850000D01*
X185939943Y-67851655D01*
X185939943Y-67851655D01*
G37*
D11*
X185562500Y-68750000D03*
G04 #@! TD*
D10*
G04 #@! TO.C,R36*
G36*
X187814943Y-60851655D02*
X187848312Y-60856605D01*
X187881035Y-60864802D01*
X187912797Y-60876166D01*
X187943293Y-60890590D01*
X187972227Y-60907932D01*
X187999323Y-60928028D01*
X188024318Y-60950682D01*
X188046972Y-60975677D01*
X188067068Y-61002773D01*
X188084410Y-61031707D01*
X188098834Y-61062203D01*
X188110198Y-61093965D01*
X188118395Y-61126688D01*
X188123345Y-61160057D01*
X188125000Y-61193750D01*
X188125000Y-62306250D01*
X188123345Y-62339943D01*
X188118395Y-62373312D01*
X188110198Y-62406035D01*
X188098834Y-62437797D01*
X188084410Y-62468293D01*
X188067068Y-62497227D01*
X188046972Y-62524323D01*
X188024318Y-62549318D01*
X187999323Y-62571972D01*
X187972227Y-62592068D01*
X187943293Y-62609410D01*
X187912797Y-62623834D01*
X187881035Y-62635198D01*
X187848312Y-62643395D01*
X187814943Y-62648345D01*
X187781250Y-62650000D01*
X187093750Y-62650000D01*
X187060057Y-62648345D01*
X187026688Y-62643395D01*
X186993965Y-62635198D01*
X186962203Y-62623834D01*
X186931707Y-62609410D01*
X186902773Y-62592068D01*
X186875677Y-62571972D01*
X186850682Y-62549318D01*
X186828028Y-62524323D01*
X186807932Y-62497227D01*
X186790590Y-62468293D01*
X186776166Y-62437797D01*
X186764802Y-62406035D01*
X186756605Y-62373312D01*
X186751655Y-62339943D01*
X186750000Y-62306250D01*
X186750000Y-61193750D01*
X186751655Y-61160057D01*
X186756605Y-61126688D01*
X186764802Y-61093965D01*
X186776166Y-61062203D01*
X186790590Y-61031707D01*
X186807932Y-61002773D01*
X186828028Y-60975677D01*
X186850682Y-60950682D01*
X186875677Y-60928028D01*
X186902773Y-60907932D01*
X186931707Y-60890590D01*
X186962203Y-60876166D01*
X186993965Y-60864802D01*
X187026688Y-60856605D01*
X187060057Y-60851655D01*
X187093750Y-60850000D01*
X187781250Y-60850000D01*
X187814943Y-60851655D01*
X187814943Y-60851655D01*
G37*
D11*
X187437500Y-61750000D03*
D10*
G36*
X185939943Y-60851655D02*
X185973312Y-60856605D01*
X186006035Y-60864802D01*
X186037797Y-60876166D01*
X186068293Y-60890590D01*
X186097227Y-60907932D01*
X186124323Y-60928028D01*
X186149318Y-60950682D01*
X186171972Y-60975677D01*
X186192068Y-61002773D01*
X186209410Y-61031707D01*
X186223834Y-61062203D01*
X186235198Y-61093965D01*
X186243395Y-61126688D01*
X186248345Y-61160057D01*
X186250000Y-61193750D01*
X186250000Y-62306250D01*
X186248345Y-62339943D01*
X186243395Y-62373312D01*
X186235198Y-62406035D01*
X186223834Y-62437797D01*
X186209410Y-62468293D01*
X186192068Y-62497227D01*
X186171972Y-62524323D01*
X186149318Y-62549318D01*
X186124323Y-62571972D01*
X186097227Y-62592068D01*
X186068293Y-62609410D01*
X186037797Y-62623834D01*
X186006035Y-62635198D01*
X185973312Y-62643395D01*
X185939943Y-62648345D01*
X185906250Y-62650000D01*
X185218750Y-62650000D01*
X185185057Y-62648345D01*
X185151688Y-62643395D01*
X185118965Y-62635198D01*
X185087203Y-62623834D01*
X185056707Y-62609410D01*
X185027773Y-62592068D01*
X185000677Y-62571972D01*
X184975682Y-62549318D01*
X184953028Y-62524323D01*
X184932932Y-62497227D01*
X184915590Y-62468293D01*
X184901166Y-62437797D01*
X184889802Y-62406035D01*
X184881605Y-62373312D01*
X184876655Y-62339943D01*
X184875000Y-62306250D01*
X184875000Y-61193750D01*
X184876655Y-61160057D01*
X184881605Y-61126688D01*
X184889802Y-61093965D01*
X184901166Y-61062203D01*
X184915590Y-61031707D01*
X184932932Y-61002773D01*
X184953028Y-60975677D01*
X184975682Y-60950682D01*
X185000677Y-60928028D01*
X185027773Y-60907932D01*
X185056707Y-60890590D01*
X185087203Y-60876166D01*
X185118965Y-60864802D01*
X185151688Y-60856605D01*
X185185057Y-60851655D01*
X185218750Y-60850000D01*
X185906250Y-60850000D01*
X185939943Y-60851655D01*
X185939943Y-60851655D01*
G37*
D11*
X185562500Y-61750000D03*
G04 #@! TD*
M02*
