G04 #@! TF.GenerationSoftware,KiCad,Pcbnew,6.0.0-rc1-unknown-46fddab~66~ubuntu16.04.1*
G04 #@! TF.CreationDate,2018-09-05T17:59:14+01:00*
G04 #@! TF.ProjectId,test,746573742E6B696361645F7063620000,rev?*
G04 #@! TF.SameCoordinates,Original*
G04 #@! TF.FileFunction,Legend,Bot*
G04 #@! TF.FilePolarity,Positive*
%FSLAX46Y46*%
G04 Gerber Fmt 4.6, Leading zero omitted, Abs format (unit mm)*
G04 Created by KiCad (PCBNEW 6.0.0-rc1-unknown-46fddab~66~ubuntu16.04.1) date Wed Sep  5 17:59:14 2018*
%MOMM*%
%LPD*%
G01*
G04 APERTURE LIST*
%ADD10C,0.300000*%
%ADD11C,0.120000*%
%ADD12C,0.150000*%
G04 APERTURE END LIST*
D10*
X156000000Y-88035714D02*
X156071428Y-88107142D01*
X156000000Y-88178571D01*
X155928571Y-88107142D01*
X156000000Y-88035714D01*
X156000000Y-88178571D01*
X160000000Y-58035714D02*
X160071428Y-58107142D01*
X160000000Y-58178571D01*
X159928571Y-58107142D01*
X160000000Y-58035714D01*
X160000000Y-58178571D01*
X168750000Y-80035714D02*
X168821428Y-80107142D01*
X168750000Y-80178571D01*
X168678571Y-80107142D01*
X168750000Y-80035714D01*
X168750000Y-80178571D01*
D11*
G04 #@! TO.C,C1*
X151990000Y-92337221D02*
X151990000Y-92662779D01*
X153010000Y-92337221D02*
X153010000Y-92662779D01*
G04 #@! TO.C,C2*
X159624721Y-61490000D02*
X159950279Y-61490000D01*
X159624721Y-62510000D02*
X159950279Y-62510000D01*
G04 #@! TO.C,C3*
X156760000Y-69412779D02*
X156760000Y-69087221D01*
X155740000Y-69412779D02*
X155740000Y-69087221D01*
G04 #@! TO.C,D1*
X159010000Y-102920000D02*
X159010000Y-103850000D01*
X159010000Y-106080000D02*
X159010000Y-105150000D01*
X159010000Y-106080000D02*
X156850000Y-106080000D01*
X159010000Y-102920000D02*
X157550000Y-102920000D01*
G04 #@! TO.C,R1*
X163710000Y-105008578D02*
X163710000Y-104491422D01*
X162290000Y-105008578D02*
X162290000Y-104491422D01*
G04 #@! TO.C,R2*
X152210000Y-97741422D02*
X152210000Y-98258578D01*
X150790000Y-97741422D02*
X150790000Y-98258578D01*
G04 #@! TO.C,R3*
X156758578Y-85790000D02*
X156241422Y-85790000D01*
X156758578Y-87210000D02*
X156241422Y-87210000D01*
G04 #@! TO.C,R4*
X156290000Y-56991422D02*
X156290000Y-57508578D01*
X157710000Y-56991422D02*
X157710000Y-57508578D01*
G04 #@! TO.C,R5*
X162991422Y-86960000D02*
X163508578Y-86960000D01*
X162991422Y-85540000D02*
X163508578Y-85540000D01*
G04 #@! TO.C,R6*
X162991422Y-98540000D02*
X163508578Y-98540000D01*
X162991422Y-99960000D02*
X163508578Y-99960000D01*
G04 #@! TO.C,R7*
X157258578Y-98290000D02*
X156741422Y-98290000D01*
X157258578Y-99710000D02*
X156741422Y-99710000D01*
G04 #@! TO.C,R8*
X157040000Y-51008578D02*
X157040000Y-50491422D01*
X158460000Y-51008578D02*
X158460000Y-50491422D01*
G04 #@! TO.C,R9*
X171040000Y-57508578D02*
X171040000Y-56991422D01*
X172460000Y-57508578D02*
X172460000Y-56991422D01*
G04 #@! TO.C,R10*
X172210000Y-51258578D02*
X172210000Y-50741422D01*
X170790000Y-51258578D02*
X170790000Y-50741422D01*
G04 #@! TO.C,R11*
X180508578Y-57710000D02*
X179991422Y-57710000D01*
X180508578Y-56290000D02*
X179991422Y-56290000D01*
G04 #@! TO.C,R12*
X173758578Y-96040000D02*
X173241422Y-96040000D01*
X173758578Y-97460000D02*
X173241422Y-97460000D01*
G04 #@! TO.C,R13*
X174258578Y-93460000D02*
X173741422Y-93460000D01*
X174258578Y-92040000D02*
X173741422Y-92040000D01*
G04 #@! TO.C,R14*
X172040000Y-83258578D02*
X172040000Y-82741422D01*
X173460000Y-83258578D02*
X173460000Y-82741422D01*
G04 #@! TO.C,R15*
X179460000Y-72258578D02*
X179460000Y-71741422D01*
X178040000Y-72258578D02*
X178040000Y-71741422D01*
G04 #@! TO.C,R16*
X176040000Y-66508578D02*
X176040000Y-65991422D01*
X177460000Y-66508578D02*
X177460000Y-65991422D01*
G04 #@! TO.C,R17*
X180960000Y-61758578D02*
X180960000Y-61241422D01*
X179540000Y-61758578D02*
X179540000Y-61241422D01*
G04 #@! TO.C,R25*
X149010000Y-76421267D02*
X149010000Y-76078733D01*
X147990000Y-76421267D02*
X147990000Y-76078733D01*
G04 #@! TO.C,RASPI_2_3_HEADER1*
X138630000Y-103830000D02*
X141230000Y-103830000D01*
X138630000Y-103830000D02*
X138630000Y-52910000D01*
X138630000Y-52910000D02*
X143830000Y-52910000D01*
X143830000Y-101230000D02*
X143830000Y-52910000D01*
X141230000Y-101230000D02*
X143830000Y-101230000D01*
X141230000Y-103830000D02*
X141230000Y-101230000D01*
X143830000Y-103830000D02*
X143830000Y-102500000D01*
X142500000Y-103830000D02*
X143830000Y-103830000D01*
D12*
G04 #@! TO.C,U1*
X155411755Y-90471917D02*
X155436755Y-90471917D01*
X155411755Y-94621917D02*
X155526755Y-94621917D01*
X164311755Y-94621917D02*
X164196755Y-94621917D01*
X164311755Y-90471917D02*
X164196755Y-90471917D01*
X155411755Y-90471917D02*
X155411755Y-94621917D01*
X164311755Y-90471917D02*
X164311755Y-94621917D01*
X155436755Y-90471917D02*
X155436755Y-89096917D01*
G04 #@! TO.C,U2*
X162675000Y-58675000D02*
X161300000Y-58675000D01*
X162675000Y-49800000D02*
X166825000Y-49800000D01*
X162675000Y-58700000D02*
X166825000Y-58700000D01*
X162675000Y-49800000D02*
X162675000Y-49915000D01*
X166825000Y-49800000D02*
X166825000Y-49915000D01*
X166825000Y-58700000D02*
X166825000Y-58585000D01*
X162675000Y-58700000D02*
X162675000Y-58675000D01*
G04 #@! TO.C,U3*
X169525000Y-77275000D02*
X169250000Y-77275000D01*
X169525000Y-71725000D02*
X169170000Y-71725000D01*
X158975000Y-71725000D02*
X159330000Y-71725000D01*
X158975000Y-77275000D02*
X159330000Y-77275000D01*
X169525000Y-77275000D02*
X169525000Y-71725000D01*
X158975000Y-77275000D02*
X158975000Y-71725000D01*
X169250000Y-77275000D02*
X169250000Y-78800000D01*
G04 #@! TO.C,C1*
X151427142Y-92333333D02*
X151474761Y-92285714D01*
X151522380Y-92142857D01*
X151522380Y-92047619D01*
X151474761Y-91904761D01*
X151379523Y-91809523D01*
X151284285Y-91761904D01*
X151093809Y-91714285D01*
X150950952Y-91714285D01*
X150760476Y-91761904D01*
X150665238Y-91809523D01*
X150570000Y-91904761D01*
X150522380Y-92047619D01*
X150522380Y-92142857D01*
X150570000Y-92285714D01*
X150617619Y-92333333D01*
X151522380Y-93285714D02*
X151522380Y-92714285D01*
X151522380Y-93000000D02*
X150522380Y-93000000D01*
X150665238Y-92904761D01*
X150760476Y-92809523D01*
X150808095Y-92714285D01*
G04 #@! TO.C,C2*
X159954166Y-63787142D02*
X160001785Y-63834761D01*
X160144642Y-63882380D01*
X160239880Y-63882380D01*
X160382738Y-63834761D01*
X160477976Y-63739523D01*
X160525595Y-63644285D01*
X160573214Y-63453809D01*
X160573214Y-63310952D01*
X160525595Y-63120476D01*
X160477976Y-63025238D01*
X160382738Y-62930000D01*
X160239880Y-62882380D01*
X160144642Y-62882380D01*
X160001785Y-62930000D01*
X159954166Y-62977619D01*
X159573214Y-62977619D02*
X159525595Y-62930000D01*
X159430357Y-62882380D01*
X159192261Y-62882380D01*
X159097023Y-62930000D01*
X159049404Y-62977619D01*
X159001785Y-63072857D01*
X159001785Y-63168095D01*
X159049404Y-63310952D01*
X159620833Y-63882380D01*
X159001785Y-63882380D01*
G04 #@! TO.C,C3*
X158037142Y-69083333D02*
X158084761Y-69035714D01*
X158132380Y-68892857D01*
X158132380Y-68797619D01*
X158084761Y-68654761D01*
X157989523Y-68559523D01*
X157894285Y-68511904D01*
X157703809Y-68464285D01*
X157560952Y-68464285D01*
X157370476Y-68511904D01*
X157275238Y-68559523D01*
X157180000Y-68654761D01*
X157132380Y-68797619D01*
X157132380Y-68892857D01*
X157180000Y-69035714D01*
X157227619Y-69083333D01*
X157132380Y-69416666D02*
X157132380Y-70035714D01*
X157513333Y-69702380D01*
X157513333Y-69845238D01*
X157560952Y-69940476D01*
X157608571Y-69988095D01*
X157703809Y-70035714D01*
X157941904Y-70035714D01*
X158037142Y-69988095D01*
X158084761Y-69940476D01*
X158132380Y-69845238D01*
X158132380Y-69559523D01*
X158084761Y-69464285D01*
X158037142Y-69416666D01*
G04 #@! TO.C,D1*
X158988095Y-107452380D02*
X158988095Y-106452380D01*
X158750000Y-106452380D01*
X158607142Y-106500000D01*
X158511904Y-106595238D01*
X158464285Y-106690476D01*
X158416666Y-106880952D01*
X158416666Y-107023809D01*
X158464285Y-107214285D01*
X158511904Y-107309523D01*
X158607142Y-107404761D01*
X158750000Y-107452380D01*
X158988095Y-107452380D01*
X157464285Y-107452380D02*
X158035714Y-107452380D01*
X157750000Y-107452380D02*
X157750000Y-106452380D01*
X157845238Y-106595238D01*
X157940476Y-106690476D01*
X158035714Y-106738095D01*
G04 #@! TO.C,R1*
X165102380Y-104583333D02*
X164626190Y-104250000D01*
X165102380Y-104011904D02*
X164102380Y-104011904D01*
X164102380Y-104392857D01*
X164150000Y-104488095D01*
X164197619Y-104535714D01*
X164292857Y-104583333D01*
X164435714Y-104583333D01*
X164530952Y-104535714D01*
X164578571Y-104488095D01*
X164626190Y-104392857D01*
X164626190Y-104011904D01*
X165102380Y-105535714D02*
X165102380Y-104964285D01*
X165102380Y-105250000D02*
X164102380Y-105250000D01*
X164245238Y-105154761D01*
X164340476Y-105059523D01*
X164388095Y-104964285D01*
G04 #@! TO.C,R2*
X150302380Y-97833333D02*
X149826190Y-97500000D01*
X150302380Y-97261904D02*
X149302380Y-97261904D01*
X149302380Y-97642857D01*
X149350000Y-97738095D01*
X149397619Y-97785714D01*
X149492857Y-97833333D01*
X149635714Y-97833333D01*
X149730952Y-97785714D01*
X149778571Y-97738095D01*
X149826190Y-97642857D01*
X149826190Y-97261904D01*
X149397619Y-98214285D02*
X149350000Y-98261904D01*
X149302380Y-98357142D01*
X149302380Y-98595238D01*
X149350000Y-98690476D01*
X149397619Y-98738095D01*
X149492857Y-98785714D01*
X149588095Y-98785714D01*
X149730952Y-98738095D01*
X150302380Y-98166666D01*
X150302380Y-98785714D01*
G04 #@! TO.C,R3*
X156666666Y-85302380D02*
X157000000Y-84826190D01*
X157238095Y-85302380D02*
X157238095Y-84302380D01*
X156857142Y-84302380D01*
X156761904Y-84350000D01*
X156714285Y-84397619D01*
X156666666Y-84492857D01*
X156666666Y-84635714D01*
X156714285Y-84730952D01*
X156761904Y-84778571D01*
X156857142Y-84826190D01*
X157238095Y-84826190D01*
X156333333Y-84302380D02*
X155714285Y-84302380D01*
X156047619Y-84683333D01*
X155904761Y-84683333D01*
X155809523Y-84730952D01*
X155761904Y-84778571D01*
X155714285Y-84873809D01*
X155714285Y-85111904D01*
X155761904Y-85207142D01*
X155809523Y-85254761D01*
X155904761Y-85302380D01*
X156190476Y-85302380D01*
X156285714Y-85254761D01*
X156333333Y-85207142D01*
G04 #@! TO.C,R4*
X155802380Y-57083333D02*
X155326190Y-56750000D01*
X155802380Y-56511904D02*
X154802380Y-56511904D01*
X154802380Y-56892857D01*
X154850000Y-56988095D01*
X154897619Y-57035714D01*
X154992857Y-57083333D01*
X155135714Y-57083333D01*
X155230952Y-57035714D01*
X155278571Y-56988095D01*
X155326190Y-56892857D01*
X155326190Y-56511904D01*
X155135714Y-57940476D02*
X155802380Y-57940476D01*
X154754761Y-57702380D02*
X155469047Y-57464285D01*
X155469047Y-58083333D01*
G04 #@! TO.C,R5*
X163416666Y-88352380D02*
X163750000Y-87876190D01*
X163988095Y-88352380D02*
X163988095Y-87352380D01*
X163607142Y-87352380D01*
X163511904Y-87400000D01*
X163464285Y-87447619D01*
X163416666Y-87542857D01*
X163416666Y-87685714D01*
X163464285Y-87780952D01*
X163511904Y-87828571D01*
X163607142Y-87876190D01*
X163988095Y-87876190D01*
X162511904Y-87352380D02*
X162988095Y-87352380D01*
X163035714Y-87828571D01*
X162988095Y-87780952D01*
X162892857Y-87733333D01*
X162654761Y-87733333D01*
X162559523Y-87780952D01*
X162511904Y-87828571D01*
X162464285Y-87923809D01*
X162464285Y-88161904D01*
X162511904Y-88257142D01*
X162559523Y-88304761D01*
X162654761Y-88352380D01*
X162892857Y-88352380D01*
X162988095Y-88304761D01*
X163035714Y-88257142D01*
G04 #@! TO.C,R6*
X163416666Y-101352380D02*
X163750000Y-100876190D01*
X163988095Y-101352380D02*
X163988095Y-100352380D01*
X163607142Y-100352380D01*
X163511904Y-100400000D01*
X163464285Y-100447619D01*
X163416666Y-100542857D01*
X163416666Y-100685714D01*
X163464285Y-100780952D01*
X163511904Y-100828571D01*
X163607142Y-100876190D01*
X163988095Y-100876190D01*
X162559523Y-100352380D02*
X162750000Y-100352380D01*
X162845238Y-100400000D01*
X162892857Y-100447619D01*
X162988095Y-100590476D01*
X163035714Y-100780952D01*
X163035714Y-101161904D01*
X162988095Y-101257142D01*
X162940476Y-101304761D01*
X162845238Y-101352380D01*
X162654761Y-101352380D01*
X162559523Y-101304761D01*
X162511904Y-101257142D01*
X162464285Y-101161904D01*
X162464285Y-100923809D01*
X162511904Y-100828571D01*
X162559523Y-100780952D01*
X162654761Y-100733333D01*
X162845238Y-100733333D01*
X162940476Y-100780952D01*
X162988095Y-100828571D01*
X163035714Y-100923809D01*
G04 #@! TO.C,R7*
X157166666Y-97802380D02*
X157500000Y-97326190D01*
X157738095Y-97802380D02*
X157738095Y-96802380D01*
X157357142Y-96802380D01*
X157261904Y-96850000D01*
X157214285Y-96897619D01*
X157166666Y-96992857D01*
X157166666Y-97135714D01*
X157214285Y-97230952D01*
X157261904Y-97278571D01*
X157357142Y-97326190D01*
X157738095Y-97326190D01*
X156833333Y-96802380D02*
X156166666Y-96802380D01*
X156595238Y-97802380D01*
G04 #@! TO.C,R8*
X159852380Y-50583333D02*
X159376190Y-50250000D01*
X159852380Y-50011904D02*
X158852380Y-50011904D01*
X158852380Y-50392857D01*
X158900000Y-50488095D01*
X158947619Y-50535714D01*
X159042857Y-50583333D01*
X159185714Y-50583333D01*
X159280952Y-50535714D01*
X159328571Y-50488095D01*
X159376190Y-50392857D01*
X159376190Y-50011904D01*
X159280952Y-51154761D02*
X159233333Y-51059523D01*
X159185714Y-51011904D01*
X159090476Y-50964285D01*
X159042857Y-50964285D01*
X158947619Y-51011904D01*
X158900000Y-51059523D01*
X158852380Y-51154761D01*
X158852380Y-51345238D01*
X158900000Y-51440476D01*
X158947619Y-51488095D01*
X159042857Y-51535714D01*
X159090476Y-51535714D01*
X159185714Y-51488095D01*
X159233333Y-51440476D01*
X159280952Y-51345238D01*
X159280952Y-51154761D01*
X159328571Y-51059523D01*
X159376190Y-51011904D01*
X159471428Y-50964285D01*
X159661904Y-50964285D01*
X159757142Y-51011904D01*
X159804761Y-51059523D01*
X159852380Y-51154761D01*
X159852380Y-51345238D01*
X159804761Y-51440476D01*
X159757142Y-51488095D01*
X159661904Y-51535714D01*
X159471428Y-51535714D01*
X159376190Y-51488095D01*
X159328571Y-51440476D01*
X159280952Y-51345238D01*
G04 #@! TO.C,R9*
X173852380Y-57083333D02*
X173376190Y-56750000D01*
X173852380Y-56511904D02*
X172852380Y-56511904D01*
X172852380Y-56892857D01*
X172900000Y-56988095D01*
X172947619Y-57035714D01*
X173042857Y-57083333D01*
X173185714Y-57083333D01*
X173280952Y-57035714D01*
X173328571Y-56988095D01*
X173376190Y-56892857D01*
X173376190Y-56511904D01*
X173852380Y-57559523D02*
X173852380Y-57750000D01*
X173804761Y-57845238D01*
X173757142Y-57892857D01*
X173614285Y-57988095D01*
X173423809Y-58035714D01*
X173042857Y-58035714D01*
X172947619Y-57988095D01*
X172900000Y-57940476D01*
X172852380Y-57845238D01*
X172852380Y-57654761D01*
X172900000Y-57559523D01*
X172947619Y-57511904D01*
X173042857Y-57464285D01*
X173280952Y-57464285D01*
X173376190Y-57511904D01*
X173423809Y-57559523D01*
X173471428Y-57654761D01*
X173471428Y-57845238D01*
X173423809Y-57940476D01*
X173376190Y-57988095D01*
X173280952Y-58035714D01*
G04 #@! TO.C,R10*
X173602380Y-50357142D02*
X173126190Y-50023809D01*
X173602380Y-49785714D02*
X172602380Y-49785714D01*
X172602380Y-50166666D01*
X172650000Y-50261904D01*
X172697619Y-50309523D01*
X172792857Y-50357142D01*
X172935714Y-50357142D01*
X173030952Y-50309523D01*
X173078571Y-50261904D01*
X173126190Y-50166666D01*
X173126190Y-49785714D01*
X173602380Y-51309523D02*
X173602380Y-50738095D01*
X173602380Y-51023809D02*
X172602380Y-51023809D01*
X172745238Y-50928571D01*
X172840476Y-50833333D01*
X172888095Y-50738095D01*
X172602380Y-51928571D02*
X172602380Y-52023809D01*
X172650000Y-52119047D01*
X172697619Y-52166666D01*
X172792857Y-52214285D01*
X172983333Y-52261904D01*
X173221428Y-52261904D01*
X173411904Y-52214285D01*
X173507142Y-52166666D01*
X173554761Y-52119047D01*
X173602380Y-52023809D01*
X173602380Y-51928571D01*
X173554761Y-51833333D01*
X173507142Y-51785714D01*
X173411904Y-51738095D01*
X173221428Y-51690476D01*
X172983333Y-51690476D01*
X172792857Y-51738095D01*
X172697619Y-51785714D01*
X172650000Y-51833333D01*
X172602380Y-51928571D01*
G04 #@! TO.C,R11*
X180892857Y-55802380D02*
X181226190Y-55326190D01*
X181464285Y-55802380D02*
X181464285Y-54802380D01*
X181083333Y-54802380D01*
X180988095Y-54850000D01*
X180940476Y-54897619D01*
X180892857Y-54992857D01*
X180892857Y-55135714D01*
X180940476Y-55230952D01*
X180988095Y-55278571D01*
X181083333Y-55326190D01*
X181464285Y-55326190D01*
X179940476Y-55802380D02*
X180511904Y-55802380D01*
X180226190Y-55802380D02*
X180226190Y-54802380D01*
X180321428Y-54945238D01*
X180416666Y-55040476D01*
X180511904Y-55088095D01*
X178988095Y-55802380D02*
X179559523Y-55802380D01*
X179273809Y-55802380D02*
X179273809Y-54802380D01*
X179369047Y-54945238D01*
X179464285Y-55040476D01*
X179559523Y-55088095D01*
G04 #@! TO.C,R12*
X174142857Y-95552380D02*
X174476190Y-95076190D01*
X174714285Y-95552380D02*
X174714285Y-94552380D01*
X174333333Y-94552380D01*
X174238095Y-94600000D01*
X174190476Y-94647619D01*
X174142857Y-94742857D01*
X174142857Y-94885714D01*
X174190476Y-94980952D01*
X174238095Y-95028571D01*
X174333333Y-95076190D01*
X174714285Y-95076190D01*
X173190476Y-95552380D02*
X173761904Y-95552380D01*
X173476190Y-95552380D02*
X173476190Y-94552380D01*
X173571428Y-94695238D01*
X173666666Y-94790476D01*
X173761904Y-94838095D01*
X172809523Y-94647619D02*
X172761904Y-94600000D01*
X172666666Y-94552380D01*
X172428571Y-94552380D01*
X172333333Y-94600000D01*
X172285714Y-94647619D01*
X172238095Y-94742857D01*
X172238095Y-94838095D01*
X172285714Y-94980952D01*
X172857142Y-95552380D01*
X172238095Y-95552380D01*
G04 #@! TO.C,R13*
X174642857Y-91552380D02*
X174976190Y-91076190D01*
X175214285Y-91552380D02*
X175214285Y-90552380D01*
X174833333Y-90552380D01*
X174738095Y-90600000D01*
X174690476Y-90647619D01*
X174642857Y-90742857D01*
X174642857Y-90885714D01*
X174690476Y-90980952D01*
X174738095Y-91028571D01*
X174833333Y-91076190D01*
X175214285Y-91076190D01*
X173690476Y-91552380D02*
X174261904Y-91552380D01*
X173976190Y-91552380D02*
X173976190Y-90552380D01*
X174071428Y-90695238D01*
X174166666Y-90790476D01*
X174261904Y-90838095D01*
X173357142Y-90552380D02*
X172738095Y-90552380D01*
X173071428Y-90933333D01*
X172928571Y-90933333D01*
X172833333Y-90980952D01*
X172785714Y-91028571D01*
X172738095Y-91123809D01*
X172738095Y-91361904D01*
X172785714Y-91457142D01*
X172833333Y-91504761D01*
X172928571Y-91552380D01*
X173214285Y-91552380D01*
X173309523Y-91504761D01*
X173357142Y-91457142D01*
G04 #@! TO.C,R14*
X174852380Y-82357142D02*
X174376190Y-82023809D01*
X174852380Y-81785714D02*
X173852380Y-81785714D01*
X173852380Y-82166666D01*
X173900000Y-82261904D01*
X173947619Y-82309523D01*
X174042857Y-82357142D01*
X174185714Y-82357142D01*
X174280952Y-82309523D01*
X174328571Y-82261904D01*
X174376190Y-82166666D01*
X174376190Y-81785714D01*
X174852380Y-83309523D02*
X174852380Y-82738095D01*
X174852380Y-83023809D02*
X173852380Y-83023809D01*
X173995238Y-82928571D01*
X174090476Y-82833333D01*
X174138095Y-82738095D01*
X174185714Y-84166666D02*
X174852380Y-84166666D01*
X173804761Y-83928571D02*
X174519047Y-83690476D01*
X174519047Y-84309523D01*
G04 #@! TO.C,R15*
X180852380Y-71357142D02*
X180376190Y-71023809D01*
X180852380Y-70785714D02*
X179852380Y-70785714D01*
X179852380Y-71166666D01*
X179900000Y-71261904D01*
X179947619Y-71309523D01*
X180042857Y-71357142D01*
X180185714Y-71357142D01*
X180280952Y-71309523D01*
X180328571Y-71261904D01*
X180376190Y-71166666D01*
X180376190Y-70785714D01*
X180852380Y-72309523D02*
X180852380Y-71738095D01*
X180852380Y-72023809D02*
X179852380Y-72023809D01*
X179995238Y-71928571D01*
X180090476Y-71833333D01*
X180138095Y-71738095D01*
X179852380Y-73214285D02*
X179852380Y-72738095D01*
X180328571Y-72690476D01*
X180280952Y-72738095D01*
X180233333Y-72833333D01*
X180233333Y-73071428D01*
X180280952Y-73166666D01*
X180328571Y-73214285D01*
X180423809Y-73261904D01*
X180661904Y-73261904D01*
X180757142Y-73214285D01*
X180804761Y-73166666D01*
X180852380Y-73071428D01*
X180852380Y-72833333D01*
X180804761Y-72738095D01*
X180757142Y-72690476D01*
G04 #@! TO.C,R16*
X178852380Y-65607142D02*
X178376190Y-65273809D01*
X178852380Y-65035714D02*
X177852380Y-65035714D01*
X177852380Y-65416666D01*
X177900000Y-65511904D01*
X177947619Y-65559523D01*
X178042857Y-65607142D01*
X178185714Y-65607142D01*
X178280952Y-65559523D01*
X178328571Y-65511904D01*
X178376190Y-65416666D01*
X178376190Y-65035714D01*
X178852380Y-66559523D02*
X178852380Y-65988095D01*
X178852380Y-66273809D02*
X177852380Y-66273809D01*
X177995238Y-66178571D01*
X178090476Y-66083333D01*
X178138095Y-65988095D01*
X177852380Y-67416666D02*
X177852380Y-67226190D01*
X177900000Y-67130952D01*
X177947619Y-67083333D01*
X178090476Y-66988095D01*
X178280952Y-66940476D01*
X178661904Y-66940476D01*
X178757142Y-66988095D01*
X178804761Y-67035714D01*
X178852380Y-67130952D01*
X178852380Y-67321428D01*
X178804761Y-67416666D01*
X178757142Y-67464285D01*
X178661904Y-67511904D01*
X178423809Y-67511904D01*
X178328571Y-67464285D01*
X178280952Y-67416666D01*
X178233333Y-67321428D01*
X178233333Y-67130952D01*
X178280952Y-67035714D01*
X178328571Y-66988095D01*
X178423809Y-66940476D01*
G04 #@! TO.C,R17*
X182352380Y-60857142D02*
X181876190Y-60523809D01*
X182352380Y-60285714D02*
X181352380Y-60285714D01*
X181352380Y-60666666D01*
X181400000Y-60761904D01*
X181447619Y-60809523D01*
X181542857Y-60857142D01*
X181685714Y-60857142D01*
X181780952Y-60809523D01*
X181828571Y-60761904D01*
X181876190Y-60666666D01*
X181876190Y-60285714D01*
X182352380Y-61809523D02*
X182352380Y-61238095D01*
X182352380Y-61523809D02*
X181352380Y-61523809D01*
X181495238Y-61428571D01*
X181590476Y-61333333D01*
X181638095Y-61238095D01*
X181352380Y-62142857D02*
X181352380Y-62809523D01*
X182352380Y-62380952D01*
G04 #@! TO.C,R25*
X150382380Y-75607142D02*
X149906190Y-75273809D01*
X150382380Y-75035714D02*
X149382380Y-75035714D01*
X149382380Y-75416666D01*
X149430000Y-75511904D01*
X149477619Y-75559523D01*
X149572857Y-75607142D01*
X149715714Y-75607142D01*
X149810952Y-75559523D01*
X149858571Y-75511904D01*
X149906190Y-75416666D01*
X149906190Y-75035714D01*
X149477619Y-75988095D02*
X149430000Y-76035714D01*
X149382380Y-76130952D01*
X149382380Y-76369047D01*
X149430000Y-76464285D01*
X149477619Y-76511904D01*
X149572857Y-76559523D01*
X149668095Y-76559523D01*
X149810952Y-76511904D01*
X150382380Y-75940476D01*
X150382380Y-76559523D01*
X149382380Y-77464285D02*
X149382380Y-76988095D01*
X149858571Y-76940476D01*
X149810952Y-76988095D01*
X149763333Y-77083333D01*
X149763333Y-77321428D01*
X149810952Y-77416666D01*
X149858571Y-77464285D01*
X149953809Y-77511904D01*
X150191904Y-77511904D01*
X150287142Y-77464285D01*
X150334761Y-77416666D01*
X150382380Y-77321428D01*
X150382380Y-77083333D01*
X150334761Y-76988095D01*
X150287142Y-76940476D01*
G04 #@! TO.C,U1*
X153939135Y-91785012D02*
X154748659Y-91785012D01*
X154843897Y-91832631D01*
X154891516Y-91880250D01*
X154939135Y-91975488D01*
X154939135Y-92165964D01*
X154891516Y-92261202D01*
X154843897Y-92308821D01*
X154748659Y-92356440D01*
X153939135Y-92356440D01*
X154939135Y-93356440D02*
X154939135Y-92785012D01*
X154939135Y-93070726D02*
X153939135Y-93070726D01*
X154081993Y-92975488D01*
X154177231Y-92880250D01*
X154224850Y-92785012D01*
G04 #@! TO.C,U2*
X165511904Y-59077380D02*
X165511904Y-59886904D01*
X165464285Y-59982142D01*
X165416666Y-60029761D01*
X165321428Y-60077380D01*
X165130952Y-60077380D01*
X165035714Y-60029761D01*
X164988095Y-59982142D01*
X164940476Y-59886904D01*
X164940476Y-59077380D01*
X164511904Y-59172619D02*
X164464285Y-59125000D01*
X164369047Y-59077380D01*
X164130952Y-59077380D01*
X164035714Y-59125000D01*
X163988095Y-59172619D01*
X163940476Y-59267857D01*
X163940476Y-59363095D01*
X163988095Y-59505952D01*
X164559523Y-60077380D01*
X163940476Y-60077380D01*
G04 #@! TO.C,U3*
X169902380Y-73738095D02*
X170711904Y-73738095D01*
X170807142Y-73785714D01*
X170854761Y-73833333D01*
X170902380Y-73928571D01*
X170902380Y-74119047D01*
X170854761Y-74214285D01*
X170807142Y-74261904D01*
X170711904Y-74309523D01*
X169902380Y-74309523D01*
X169902380Y-74690476D02*
X169902380Y-75309523D01*
X170283333Y-74976190D01*
X170283333Y-75119047D01*
X170330952Y-75214285D01*
X170378571Y-75261904D01*
X170473809Y-75309523D01*
X170711904Y-75309523D01*
X170807142Y-75261904D01*
X170854761Y-75214285D01*
X170902380Y-75119047D01*
X170902380Y-74833333D01*
X170854761Y-74738095D01*
X170807142Y-74690476D01*
G04 #@! TD*
M02*
