G04 #@! TF.GenerationSoftware,KiCad,Pcbnew,6.0.0-rc1-unknown-46fddab~66~ubuntu16.04.1*
G04 #@! TF.CreationDate,2018-09-05T17:59:14+01:00*
G04 #@! TF.ProjectId,test,746573742E6B696361645F7063620000,rev?*
G04 #@! TF.SameCoordinates,Original*
G04 #@! TF.FileFunction,Soldermask,Top*
G04 #@! TF.FilePolarity,Negative*
%FSLAX46Y46*%
G04 Gerber Fmt 4.6, Leading zero omitted, Abs format (unit mm)*
G04 Created by KiCad (PCBNEW 6.0.0-rc1-unknown-46fddab~66~ubuntu16.04.1) date Wed Sep  5 17:59:14 2018*
%MOMM*%
%LPD*%
G01*
G04 APERTURE LIST*
%ADD10R,2.900000X2.900000*%
%ADD11C,6.400000*%
%ADD12C,0.100000*%
%ADD13C,1.275000*%
%ADD14R,3.000000X2.400000*%
%ADD15O,3.000000X2.400000*%
%ADD16R,2.100000X2.100000*%
%ADD17O,2.100000X2.100000*%
%ADD18R,1.790000X0.980000*%
%ADD19C,1.550000*%
%ADD20C,1.375000*%
G04 APERTURE END LIST*
D10*
G04 #@! TO.C,K*
X177750000Y-105750000D03*
G04 #@! TD*
G04 #@! TO.C,5V*
X173250000Y-105750000D03*
G04 #@! TD*
D11*
G04 #@! TO.C,REF\002A\002A*
X141000000Y-49250000D03*
G04 #@! TD*
G04 #@! TO.C,REF\002A\002A*
X190000000Y-49250000D03*
G04 #@! TD*
G04 #@! TO.C,REF\002A\002A*
X190000000Y-107250000D03*
G04 #@! TD*
G04 #@! TO.C,REF\002A\002A*
X141000000Y-107250000D03*
G04 #@! TD*
D12*
G04 #@! TO.C,C4*
G36*
X176387493Y-74826535D02*
X176418435Y-74831125D01*
X176448778Y-74838725D01*
X176478230Y-74849263D01*
X176506508Y-74862638D01*
X176533338Y-74878719D01*
X176558463Y-74897353D01*
X176581640Y-74918360D01*
X176602647Y-74941537D01*
X176621281Y-74966662D01*
X176637362Y-74993492D01*
X176650737Y-75021770D01*
X176661275Y-75051222D01*
X176668875Y-75081565D01*
X176673465Y-75112507D01*
X176675000Y-75143750D01*
X176675000Y-75781250D01*
X176673465Y-75812493D01*
X176668875Y-75843435D01*
X176661275Y-75873778D01*
X176650737Y-75903230D01*
X176637362Y-75931508D01*
X176621281Y-75958338D01*
X176602647Y-75983463D01*
X176581640Y-76006640D01*
X176558463Y-76027647D01*
X176533338Y-76046281D01*
X176506508Y-76062362D01*
X176478230Y-76075737D01*
X176448778Y-76086275D01*
X176418435Y-76093875D01*
X176387493Y-76098465D01*
X176356250Y-76100000D01*
X175643750Y-76100000D01*
X175612507Y-76098465D01*
X175581565Y-76093875D01*
X175551222Y-76086275D01*
X175521770Y-76075737D01*
X175493492Y-76062362D01*
X175466662Y-76046281D01*
X175441537Y-76027647D01*
X175418360Y-76006640D01*
X175397353Y-75983463D01*
X175378719Y-75958338D01*
X175362638Y-75931508D01*
X175349263Y-75903230D01*
X175338725Y-75873778D01*
X175331125Y-75843435D01*
X175326535Y-75812493D01*
X175325000Y-75781250D01*
X175325000Y-75143750D01*
X175326535Y-75112507D01*
X175331125Y-75081565D01*
X175338725Y-75051222D01*
X175349263Y-75021770D01*
X175362638Y-74993492D01*
X175378719Y-74966662D01*
X175397353Y-74941537D01*
X175418360Y-74918360D01*
X175441537Y-74897353D01*
X175466662Y-74878719D01*
X175493492Y-74862638D01*
X175521770Y-74849263D01*
X175551222Y-74838725D01*
X175581565Y-74831125D01*
X175612507Y-74826535D01*
X175643750Y-74825000D01*
X176356250Y-74825000D01*
X176387493Y-74826535D01*
X176387493Y-74826535D01*
G37*
D13*
X176000000Y-75462500D03*
D12*
G36*
X176387493Y-76401535D02*
X176418435Y-76406125D01*
X176448778Y-76413725D01*
X176478230Y-76424263D01*
X176506508Y-76437638D01*
X176533338Y-76453719D01*
X176558463Y-76472353D01*
X176581640Y-76493360D01*
X176602647Y-76516537D01*
X176621281Y-76541662D01*
X176637362Y-76568492D01*
X176650737Y-76596770D01*
X176661275Y-76626222D01*
X176668875Y-76656565D01*
X176673465Y-76687507D01*
X176675000Y-76718750D01*
X176675000Y-77356250D01*
X176673465Y-77387493D01*
X176668875Y-77418435D01*
X176661275Y-77448778D01*
X176650737Y-77478230D01*
X176637362Y-77506508D01*
X176621281Y-77533338D01*
X176602647Y-77558463D01*
X176581640Y-77581640D01*
X176558463Y-77602647D01*
X176533338Y-77621281D01*
X176506508Y-77637362D01*
X176478230Y-77650737D01*
X176448778Y-77661275D01*
X176418435Y-77668875D01*
X176387493Y-77673465D01*
X176356250Y-77675000D01*
X175643750Y-77675000D01*
X175612507Y-77673465D01*
X175581565Y-77668875D01*
X175551222Y-77661275D01*
X175521770Y-77650737D01*
X175493492Y-77637362D01*
X175466662Y-77621281D01*
X175441537Y-77602647D01*
X175418360Y-77581640D01*
X175397353Y-77558463D01*
X175378719Y-77533338D01*
X175362638Y-77506508D01*
X175349263Y-77478230D01*
X175338725Y-77448778D01*
X175331125Y-77418435D01*
X175326535Y-77387493D01*
X175325000Y-77356250D01*
X175325000Y-76718750D01*
X175326535Y-76687507D01*
X175331125Y-76656565D01*
X175338725Y-76626222D01*
X175349263Y-76596770D01*
X175362638Y-76568492D01*
X175378719Y-76541662D01*
X175397353Y-76516537D01*
X175418360Y-76493360D01*
X175441537Y-76472353D01*
X175466662Y-76453719D01*
X175493492Y-76437638D01*
X175521770Y-76424263D01*
X175551222Y-76413725D01*
X175581565Y-76406125D01*
X175612507Y-76401535D01*
X175643750Y-76400000D01*
X176356250Y-76400000D01*
X176387493Y-76401535D01*
X176387493Y-76401535D01*
G37*
D13*
X176000000Y-77037500D03*
G04 #@! TD*
D14*
G04 #@! TO.C,J1*
X188000000Y-101000000D03*
D15*
X188000000Y-97500000D03*
X188000000Y-94000000D03*
X188000000Y-90500000D03*
X188000000Y-87000000D03*
X188000000Y-83500000D03*
X188000000Y-80000000D03*
X188000000Y-76500000D03*
X188000000Y-73000000D03*
X188000000Y-69500000D03*
X188000000Y-66000000D03*
X188000000Y-62500000D03*
X188000000Y-59000000D03*
X188000000Y-55500000D03*
G04 #@! TD*
D16*
G04 #@! TO.C,RASPI_2_3_HEADER1*
X142500000Y-102500000D03*
D17*
X139960000Y-102500000D03*
X142500000Y-99960000D03*
X139960000Y-99960000D03*
X142500000Y-97420000D03*
X139960000Y-97420000D03*
X142500000Y-94880000D03*
X139960000Y-94880000D03*
X142500000Y-92340000D03*
X139960000Y-92340000D03*
X142500000Y-89800000D03*
X139960000Y-89800000D03*
X142500000Y-87260000D03*
X139960000Y-87260000D03*
X142500000Y-84720000D03*
X139960000Y-84720000D03*
X142500000Y-82180000D03*
X139960000Y-82180000D03*
X142500000Y-79640000D03*
X139960000Y-79640000D03*
X142500000Y-77100000D03*
X139960000Y-77100000D03*
X142500000Y-74560000D03*
X139960000Y-74560000D03*
X142500000Y-72020000D03*
X139960000Y-72020000D03*
X142500000Y-69480000D03*
X139960000Y-69480000D03*
X142500000Y-66940000D03*
X139960000Y-66940000D03*
X142500000Y-64400000D03*
X139960000Y-64400000D03*
X142500000Y-61860000D03*
X139960000Y-61860000D03*
X142500000Y-59320000D03*
X139960000Y-59320000D03*
X142500000Y-56780000D03*
X139960000Y-56780000D03*
X142500000Y-54240000D03*
X139960000Y-54240000D03*
G04 #@! TD*
D18*
G04 #@! TO.C,U4*
X178835000Y-75300000D03*
X178835000Y-76250000D03*
X178835000Y-77200000D03*
X181165000Y-77200000D03*
X181165000Y-75300000D03*
G04 #@! TD*
D10*
G04 #@! TO.C,GND*
X168750000Y-105750000D03*
G04 #@! TD*
D12*
G04 #@! TO.C,D2*
G36*
X149196071Y-83601623D02*
X149228781Y-83606475D01*
X149260857Y-83614509D01*
X149291991Y-83625649D01*
X149321884Y-83639787D01*
X149350247Y-83656787D01*
X149376807Y-83676485D01*
X149401308Y-83698692D01*
X149423515Y-83723193D01*
X149443213Y-83749753D01*
X149460213Y-83778116D01*
X149474351Y-83808009D01*
X149485491Y-83839143D01*
X149493525Y-83871219D01*
X149498377Y-83903929D01*
X149500000Y-83936956D01*
X149500000Y-85063044D01*
X149498377Y-85096071D01*
X149493525Y-85128781D01*
X149485491Y-85160857D01*
X149474351Y-85191991D01*
X149460213Y-85221884D01*
X149443213Y-85250247D01*
X149423515Y-85276807D01*
X149401308Y-85301308D01*
X149376807Y-85323515D01*
X149350247Y-85343213D01*
X149321884Y-85360213D01*
X149291991Y-85374351D01*
X149260857Y-85385491D01*
X149228781Y-85393525D01*
X149196071Y-85398377D01*
X149163044Y-85400000D01*
X148286956Y-85400000D01*
X148253929Y-85398377D01*
X148221219Y-85393525D01*
X148189143Y-85385491D01*
X148158009Y-85374351D01*
X148128116Y-85360213D01*
X148099753Y-85343213D01*
X148073193Y-85323515D01*
X148048692Y-85301308D01*
X148026485Y-85276807D01*
X148006787Y-85250247D01*
X147989787Y-85221884D01*
X147975649Y-85191991D01*
X147964509Y-85160857D01*
X147956475Y-85128781D01*
X147951623Y-85096071D01*
X147950000Y-85063044D01*
X147950000Y-83936956D01*
X147951623Y-83903929D01*
X147956475Y-83871219D01*
X147964509Y-83839143D01*
X147975649Y-83808009D01*
X147989787Y-83778116D01*
X148006787Y-83749753D01*
X148026485Y-83723193D01*
X148048692Y-83698692D01*
X148073193Y-83676485D01*
X148099753Y-83656787D01*
X148128116Y-83639787D01*
X148158009Y-83625649D01*
X148189143Y-83614509D01*
X148221219Y-83606475D01*
X148253929Y-83601623D01*
X148286956Y-83600000D01*
X149163044Y-83600000D01*
X149196071Y-83601623D01*
X149196071Y-83601623D01*
G37*
D19*
X148725000Y-84500000D03*
D12*
G36*
X151246071Y-83601623D02*
X151278781Y-83606475D01*
X151310857Y-83614509D01*
X151341991Y-83625649D01*
X151371884Y-83639787D01*
X151400247Y-83656787D01*
X151426807Y-83676485D01*
X151451308Y-83698692D01*
X151473515Y-83723193D01*
X151493213Y-83749753D01*
X151510213Y-83778116D01*
X151524351Y-83808009D01*
X151535491Y-83839143D01*
X151543525Y-83871219D01*
X151548377Y-83903929D01*
X151550000Y-83936956D01*
X151550000Y-85063044D01*
X151548377Y-85096071D01*
X151543525Y-85128781D01*
X151535491Y-85160857D01*
X151524351Y-85191991D01*
X151510213Y-85221884D01*
X151493213Y-85250247D01*
X151473515Y-85276807D01*
X151451308Y-85301308D01*
X151426807Y-85323515D01*
X151400247Y-85343213D01*
X151371884Y-85360213D01*
X151341991Y-85374351D01*
X151310857Y-85385491D01*
X151278781Y-85393525D01*
X151246071Y-85398377D01*
X151213044Y-85400000D01*
X150336956Y-85400000D01*
X150303929Y-85398377D01*
X150271219Y-85393525D01*
X150239143Y-85385491D01*
X150208009Y-85374351D01*
X150178116Y-85360213D01*
X150149753Y-85343213D01*
X150123193Y-85323515D01*
X150098692Y-85301308D01*
X150076485Y-85276807D01*
X150056787Y-85250247D01*
X150039787Y-85221884D01*
X150025649Y-85191991D01*
X150014509Y-85160857D01*
X150006475Y-85128781D01*
X150001623Y-85096071D01*
X150000000Y-85063044D01*
X150000000Y-83936956D01*
X150001623Y-83903929D01*
X150006475Y-83871219D01*
X150014509Y-83839143D01*
X150025649Y-83808009D01*
X150039787Y-83778116D01*
X150056787Y-83749753D01*
X150076485Y-83723193D01*
X150098692Y-83698692D01*
X150123193Y-83676485D01*
X150149753Y-83656787D01*
X150178116Y-83639787D01*
X150208009Y-83625649D01*
X150239143Y-83614509D01*
X150271219Y-83606475D01*
X150303929Y-83601623D01*
X150336956Y-83600000D01*
X151213044Y-83600000D01*
X151246071Y-83601623D01*
X151246071Y-83601623D01*
G37*
D19*
X150775000Y-84500000D03*
G04 #@! TD*
D12*
G04 #@! TO.C,D3*
G36*
X151246071Y-88851623D02*
X151278781Y-88856475D01*
X151310857Y-88864509D01*
X151341991Y-88875649D01*
X151371884Y-88889787D01*
X151400247Y-88906787D01*
X151426807Y-88926485D01*
X151451308Y-88948692D01*
X151473515Y-88973193D01*
X151493213Y-88999753D01*
X151510213Y-89028116D01*
X151524351Y-89058009D01*
X151535491Y-89089143D01*
X151543525Y-89121219D01*
X151548377Y-89153929D01*
X151550000Y-89186956D01*
X151550000Y-90313044D01*
X151548377Y-90346071D01*
X151543525Y-90378781D01*
X151535491Y-90410857D01*
X151524351Y-90441991D01*
X151510213Y-90471884D01*
X151493213Y-90500247D01*
X151473515Y-90526807D01*
X151451308Y-90551308D01*
X151426807Y-90573515D01*
X151400247Y-90593213D01*
X151371884Y-90610213D01*
X151341991Y-90624351D01*
X151310857Y-90635491D01*
X151278781Y-90643525D01*
X151246071Y-90648377D01*
X151213044Y-90650000D01*
X150336956Y-90650000D01*
X150303929Y-90648377D01*
X150271219Y-90643525D01*
X150239143Y-90635491D01*
X150208009Y-90624351D01*
X150178116Y-90610213D01*
X150149753Y-90593213D01*
X150123193Y-90573515D01*
X150098692Y-90551308D01*
X150076485Y-90526807D01*
X150056787Y-90500247D01*
X150039787Y-90471884D01*
X150025649Y-90441991D01*
X150014509Y-90410857D01*
X150006475Y-90378781D01*
X150001623Y-90346071D01*
X150000000Y-90313044D01*
X150000000Y-89186956D01*
X150001623Y-89153929D01*
X150006475Y-89121219D01*
X150014509Y-89089143D01*
X150025649Y-89058009D01*
X150039787Y-89028116D01*
X150056787Y-88999753D01*
X150076485Y-88973193D01*
X150098692Y-88948692D01*
X150123193Y-88926485D01*
X150149753Y-88906787D01*
X150178116Y-88889787D01*
X150208009Y-88875649D01*
X150239143Y-88864509D01*
X150271219Y-88856475D01*
X150303929Y-88851623D01*
X150336956Y-88850000D01*
X151213044Y-88850000D01*
X151246071Y-88851623D01*
X151246071Y-88851623D01*
G37*
D19*
X150775000Y-89750000D03*
D12*
G36*
X149196071Y-88851623D02*
X149228781Y-88856475D01*
X149260857Y-88864509D01*
X149291991Y-88875649D01*
X149321884Y-88889787D01*
X149350247Y-88906787D01*
X149376807Y-88926485D01*
X149401308Y-88948692D01*
X149423515Y-88973193D01*
X149443213Y-88999753D01*
X149460213Y-89028116D01*
X149474351Y-89058009D01*
X149485491Y-89089143D01*
X149493525Y-89121219D01*
X149498377Y-89153929D01*
X149500000Y-89186956D01*
X149500000Y-90313044D01*
X149498377Y-90346071D01*
X149493525Y-90378781D01*
X149485491Y-90410857D01*
X149474351Y-90441991D01*
X149460213Y-90471884D01*
X149443213Y-90500247D01*
X149423515Y-90526807D01*
X149401308Y-90551308D01*
X149376807Y-90573515D01*
X149350247Y-90593213D01*
X149321884Y-90610213D01*
X149291991Y-90624351D01*
X149260857Y-90635491D01*
X149228781Y-90643525D01*
X149196071Y-90648377D01*
X149163044Y-90650000D01*
X148286956Y-90650000D01*
X148253929Y-90648377D01*
X148221219Y-90643525D01*
X148189143Y-90635491D01*
X148158009Y-90624351D01*
X148128116Y-90610213D01*
X148099753Y-90593213D01*
X148073193Y-90573515D01*
X148048692Y-90551308D01*
X148026485Y-90526807D01*
X148006787Y-90500247D01*
X147989787Y-90471884D01*
X147975649Y-90441991D01*
X147964509Y-90410857D01*
X147956475Y-90378781D01*
X147951623Y-90346071D01*
X147950000Y-90313044D01*
X147950000Y-89186956D01*
X147951623Y-89153929D01*
X147956475Y-89121219D01*
X147964509Y-89089143D01*
X147975649Y-89058009D01*
X147989787Y-89028116D01*
X148006787Y-88999753D01*
X148026485Y-88973193D01*
X148048692Y-88948692D01*
X148073193Y-88926485D01*
X148099753Y-88906787D01*
X148128116Y-88889787D01*
X148158009Y-88875649D01*
X148189143Y-88864509D01*
X148221219Y-88856475D01*
X148253929Y-88851623D01*
X148286956Y-88850000D01*
X149163044Y-88850000D01*
X149196071Y-88851623D01*
X149196071Y-88851623D01*
G37*
D19*
X148725000Y-89750000D03*
G04 #@! TD*
D12*
G04 #@! TO.C,R18*
G36*
X149564943Y-78351655D02*
X149598312Y-78356605D01*
X149631035Y-78364802D01*
X149662797Y-78376166D01*
X149693293Y-78390590D01*
X149722227Y-78407932D01*
X149749323Y-78428028D01*
X149774318Y-78450682D01*
X149796972Y-78475677D01*
X149817068Y-78502773D01*
X149834410Y-78531707D01*
X149848834Y-78562203D01*
X149860198Y-78593965D01*
X149868395Y-78626688D01*
X149873345Y-78660057D01*
X149875000Y-78693750D01*
X149875000Y-79806250D01*
X149873345Y-79839943D01*
X149868395Y-79873312D01*
X149860198Y-79906035D01*
X149848834Y-79937797D01*
X149834410Y-79968293D01*
X149817068Y-79997227D01*
X149796972Y-80024323D01*
X149774318Y-80049318D01*
X149749323Y-80071972D01*
X149722227Y-80092068D01*
X149693293Y-80109410D01*
X149662797Y-80123834D01*
X149631035Y-80135198D01*
X149598312Y-80143395D01*
X149564943Y-80148345D01*
X149531250Y-80150000D01*
X148843750Y-80150000D01*
X148810057Y-80148345D01*
X148776688Y-80143395D01*
X148743965Y-80135198D01*
X148712203Y-80123834D01*
X148681707Y-80109410D01*
X148652773Y-80092068D01*
X148625677Y-80071972D01*
X148600682Y-80049318D01*
X148578028Y-80024323D01*
X148557932Y-79997227D01*
X148540590Y-79968293D01*
X148526166Y-79937797D01*
X148514802Y-79906035D01*
X148506605Y-79873312D01*
X148501655Y-79839943D01*
X148500000Y-79806250D01*
X148500000Y-78693750D01*
X148501655Y-78660057D01*
X148506605Y-78626688D01*
X148514802Y-78593965D01*
X148526166Y-78562203D01*
X148540590Y-78531707D01*
X148557932Y-78502773D01*
X148578028Y-78475677D01*
X148600682Y-78450682D01*
X148625677Y-78428028D01*
X148652773Y-78407932D01*
X148681707Y-78390590D01*
X148712203Y-78376166D01*
X148743965Y-78364802D01*
X148776688Y-78356605D01*
X148810057Y-78351655D01*
X148843750Y-78350000D01*
X149531250Y-78350000D01*
X149564943Y-78351655D01*
X149564943Y-78351655D01*
G37*
D20*
X149187500Y-79250000D03*
D12*
G36*
X147689943Y-78351655D02*
X147723312Y-78356605D01*
X147756035Y-78364802D01*
X147787797Y-78376166D01*
X147818293Y-78390590D01*
X147847227Y-78407932D01*
X147874323Y-78428028D01*
X147899318Y-78450682D01*
X147921972Y-78475677D01*
X147942068Y-78502773D01*
X147959410Y-78531707D01*
X147973834Y-78562203D01*
X147985198Y-78593965D01*
X147993395Y-78626688D01*
X147998345Y-78660057D01*
X148000000Y-78693750D01*
X148000000Y-79806250D01*
X147998345Y-79839943D01*
X147993395Y-79873312D01*
X147985198Y-79906035D01*
X147973834Y-79937797D01*
X147959410Y-79968293D01*
X147942068Y-79997227D01*
X147921972Y-80024323D01*
X147899318Y-80049318D01*
X147874323Y-80071972D01*
X147847227Y-80092068D01*
X147818293Y-80109410D01*
X147787797Y-80123834D01*
X147756035Y-80135198D01*
X147723312Y-80143395D01*
X147689943Y-80148345D01*
X147656250Y-80150000D01*
X146968750Y-80150000D01*
X146935057Y-80148345D01*
X146901688Y-80143395D01*
X146868965Y-80135198D01*
X146837203Y-80123834D01*
X146806707Y-80109410D01*
X146777773Y-80092068D01*
X146750677Y-80071972D01*
X146725682Y-80049318D01*
X146703028Y-80024323D01*
X146682932Y-79997227D01*
X146665590Y-79968293D01*
X146651166Y-79937797D01*
X146639802Y-79906035D01*
X146631605Y-79873312D01*
X146626655Y-79839943D01*
X146625000Y-79806250D01*
X146625000Y-78693750D01*
X146626655Y-78660057D01*
X146631605Y-78626688D01*
X146639802Y-78593965D01*
X146651166Y-78562203D01*
X146665590Y-78531707D01*
X146682932Y-78502773D01*
X146703028Y-78475677D01*
X146725682Y-78450682D01*
X146750677Y-78428028D01*
X146777773Y-78407932D01*
X146806707Y-78390590D01*
X146837203Y-78376166D01*
X146868965Y-78364802D01*
X146901688Y-78356605D01*
X146935057Y-78351655D01*
X146968750Y-78350000D01*
X147656250Y-78350000D01*
X147689943Y-78351655D01*
X147689943Y-78351655D01*
G37*
D20*
X147312500Y-79250000D03*
G04 #@! TD*
D12*
G04 #@! TO.C,R19*
G36*
X149439943Y-92601655D02*
X149473312Y-92606605D01*
X149506035Y-92614802D01*
X149537797Y-92626166D01*
X149568293Y-92640590D01*
X149597227Y-92657932D01*
X149624323Y-92678028D01*
X149649318Y-92700682D01*
X149671972Y-92725677D01*
X149692068Y-92752773D01*
X149709410Y-92781707D01*
X149723834Y-92812203D01*
X149735198Y-92843965D01*
X149743395Y-92876688D01*
X149748345Y-92910057D01*
X149750000Y-92943750D01*
X149750000Y-94056250D01*
X149748345Y-94089943D01*
X149743395Y-94123312D01*
X149735198Y-94156035D01*
X149723834Y-94187797D01*
X149709410Y-94218293D01*
X149692068Y-94247227D01*
X149671972Y-94274323D01*
X149649318Y-94299318D01*
X149624323Y-94321972D01*
X149597227Y-94342068D01*
X149568293Y-94359410D01*
X149537797Y-94373834D01*
X149506035Y-94385198D01*
X149473312Y-94393395D01*
X149439943Y-94398345D01*
X149406250Y-94400000D01*
X148718750Y-94400000D01*
X148685057Y-94398345D01*
X148651688Y-94393395D01*
X148618965Y-94385198D01*
X148587203Y-94373834D01*
X148556707Y-94359410D01*
X148527773Y-94342068D01*
X148500677Y-94321972D01*
X148475682Y-94299318D01*
X148453028Y-94274323D01*
X148432932Y-94247227D01*
X148415590Y-94218293D01*
X148401166Y-94187797D01*
X148389802Y-94156035D01*
X148381605Y-94123312D01*
X148376655Y-94089943D01*
X148375000Y-94056250D01*
X148375000Y-92943750D01*
X148376655Y-92910057D01*
X148381605Y-92876688D01*
X148389802Y-92843965D01*
X148401166Y-92812203D01*
X148415590Y-92781707D01*
X148432932Y-92752773D01*
X148453028Y-92725677D01*
X148475682Y-92700682D01*
X148500677Y-92678028D01*
X148527773Y-92657932D01*
X148556707Y-92640590D01*
X148587203Y-92626166D01*
X148618965Y-92614802D01*
X148651688Y-92606605D01*
X148685057Y-92601655D01*
X148718750Y-92600000D01*
X149406250Y-92600000D01*
X149439943Y-92601655D01*
X149439943Y-92601655D01*
G37*
D20*
X149062500Y-93500000D03*
D12*
G36*
X151314943Y-92601655D02*
X151348312Y-92606605D01*
X151381035Y-92614802D01*
X151412797Y-92626166D01*
X151443293Y-92640590D01*
X151472227Y-92657932D01*
X151499323Y-92678028D01*
X151524318Y-92700682D01*
X151546972Y-92725677D01*
X151567068Y-92752773D01*
X151584410Y-92781707D01*
X151598834Y-92812203D01*
X151610198Y-92843965D01*
X151618395Y-92876688D01*
X151623345Y-92910057D01*
X151625000Y-92943750D01*
X151625000Y-94056250D01*
X151623345Y-94089943D01*
X151618395Y-94123312D01*
X151610198Y-94156035D01*
X151598834Y-94187797D01*
X151584410Y-94218293D01*
X151567068Y-94247227D01*
X151546972Y-94274323D01*
X151524318Y-94299318D01*
X151499323Y-94321972D01*
X151472227Y-94342068D01*
X151443293Y-94359410D01*
X151412797Y-94373834D01*
X151381035Y-94385198D01*
X151348312Y-94393395D01*
X151314943Y-94398345D01*
X151281250Y-94400000D01*
X150593750Y-94400000D01*
X150560057Y-94398345D01*
X150526688Y-94393395D01*
X150493965Y-94385198D01*
X150462203Y-94373834D01*
X150431707Y-94359410D01*
X150402773Y-94342068D01*
X150375677Y-94321972D01*
X150350682Y-94299318D01*
X150328028Y-94274323D01*
X150307932Y-94247227D01*
X150290590Y-94218293D01*
X150276166Y-94187797D01*
X150264802Y-94156035D01*
X150256605Y-94123312D01*
X150251655Y-94089943D01*
X150250000Y-94056250D01*
X150250000Y-92943750D01*
X150251655Y-92910057D01*
X150256605Y-92876688D01*
X150264802Y-92843965D01*
X150276166Y-92812203D01*
X150290590Y-92781707D01*
X150307932Y-92752773D01*
X150328028Y-92725677D01*
X150350682Y-92700682D01*
X150375677Y-92678028D01*
X150402773Y-92657932D01*
X150431707Y-92640590D01*
X150462203Y-92626166D01*
X150493965Y-92614802D01*
X150526688Y-92606605D01*
X150560057Y-92601655D01*
X150593750Y-92600000D01*
X151281250Y-92600000D01*
X151314943Y-92601655D01*
X151314943Y-92601655D01*
G37*
D20*
X150937500Y-93500000D03*
G04 #@! TD*
M02*
