M48
;DRILL file {KiCad 6.0.0-rc1-unknown-46fddab~66~ubuntu16.04.1} date Wed Sep  5 17:59:05 2018
;FORMAT={-:-/ absolute / inch / decimal}
FMAT,2
INCH,TZ
T1C0.0157
T2C0.0394
T3C0.0630
T4C0.1063
%
G90
G05
M72
T1
X5.4626Y-2.0768
X5.6594Y-2.0768
X5.7972Y-3.2087
X5.8268Y-3.7598
X5.8465Y-2.9035
X5.8661Y-2.5492
X5.9547Y-2.8248
X5.9547Y-3.1496
X5.9941Y-3.7402
X6.0335Y-2.8248
X6.0335Y-3.2382
X6.0827Y-3.2874
X6.0827Y-3.7697
X6.1102Y-2.935
X6.1122Y-2.8346
X6.1417Y-3.622
X6.1516Y-2.6181
X6.1909Y-4.0059
X6.2106Y-2.8642
X6.2303Y-2.628
X6.2598Y-2.1358
X6.2598Y-2.3524
X6.2894Y-2.5492
X6.2894Y-3.6366
X6.2894Y-3.8287
X6.2894Y-3.8878
X6.2915Y-2.7089
X6.4075Y-2.4409
X6.4272Y-3.6516
X6.437Y-2.628
X6.4567Y-3.3071
X6.4665Y-2.8642
X6.4862Y-2.0374
X6.4862Y-2.2638
X6.5059Y-3.2579
X6.5415Y-2.7104
X6.5945Y-2.8937
X6.5945Y-3.2087
X6.5945Y-3.3071
X6.6043Y-2.5591
X6.6142Y-3.002
X6.6437Y-2.6476
X6.6437Y-2.7067
X6.6634Y-3.2087
X6.6732Y-2.1358
X6.6929Y-3.6516
X6.752Y-2.1063
X6.7618Y-2.4803
X6.7618Y-2.7165
X6.7618Y-2.8543
X6.7815Y-3.5433
X6.8012Y-2.815
X6.8012Y-3.1102
X6.8209Y-4.3012
X6.8504Y-2.4213
X6.8504Y-2.7165
X6.8504Y-3.0217
X6.8996Y-2.1457
X6.9587Y-2.313
X6.9685Y-2.0876
X6.998Y-4.3012
X7.1555Y-2.9035
X7.1752Y-2.5984
X7.1752Y-3.1102
X7.2146Y-2.1555
X7.2146Y-2.3228
X7.2933Y-1.939
X7.2933Y-2.1457
X7.2933Y-3.9764
T2
X5.5102Y-2.1354
X5.5102Y-2.2354
X5.5102Y-2.3354
X5.5102Y-2.4354
X5.5102Y-2.5354
X5.5102Y-2.6354
X5.5102Y-2.7354
X5.5102Y-2.8354
X5.5102Y-2.9354
X5.5102Y-3.0354
X5.5102Y-3.1354
X5.5102Y-3.2354
X5.5102Y-3.3354
X5.5102Y-3.4354
X5.5102Y-3.5354
X5.5102Y-3.6354
X5.5102Y-3.7354
X5.5102Y-3.8354
X5.5102Y-3.9354
X5.5102Y-4.0354
X5.6102Y-2.1354
X5.6102Y-2.2354
X5.6102Y-2.3354
X5.6102Y-2.4354
X5.6102Y-2.5354
X5.6102Y-2.6354
X5.6102Y-2.7354
X5.6102Y-2.8354
X5.6102Y-2.9354
X5.6102Y-3.0354
X5.6102Y-3.1354
X5.6102Y-3.2354
X5.6102Y-3.3354
X5.6102Y-3.4354
X5.6102Y-3.5354
X5.6102Y-3.6354
X5.6102Y-3.7354
X5.6102Y-3.8354
X5.6102Y-3.9354
X5.6102Y-4.0354
T3
X7.4016Y-2.185
X7.4016Y-2.3228
X7.4016Y-2.4606
X7.4016Y-2.5984
X7.4016Y-2.7362
X7.4016Y-2.874
X7.4016Y-3.0118
X7.4016Y-3.1496
X7.4016Y-3.2874
X7.4016Y-3.4252
X7.4016Y-3.563
X7.4016Y-3.7008
X7.4016Y-3.8386
X7.4016Y-3.9764
T4
X5.5512Y-4.2224
X5.5512Y-1.939
X7.4803Y-4.2224
X7.4803Y-1.939
T0
M30
