G04 #@! TF.GenerationSoftware,KiCad,Pcbnew,6.0.0-rc1-unknown-46fddab~66~ubuntu16.04.1*
G04 #@! TF.CreationDate,2018-09-05T17:59:14+01:00*
G04 #@! TF.ProjectId,test,746573742E6B696361645F7063620000,rev?*
G04 #@! TF.SameCoordinates,Original*
G04 #@! TF.FileFunction,Paste,Top*
G04 #@! TF.FilePolarity,Positive*
%FSLAX46Y46*%
G04 Gerber Fmt 4.6, Leading zero omitted, Abs format (unit mm)*
G04 Created by KiCad (PCBNEW 6.0.0-rc1-unknown-46fddab~66~ubuntu16.04.1) date Wed Sep  5 17:59:14 2018*
%MOMM*%
%LPD*%
G01*
G04 APERTURE LIST*
%ADD10C,0.100000*%
%ADD11C,0.875000*%
%ADD12R,1.390000X0.580000*%
%ADD13C,1.150000*%
%ADD14C,0.975000*%
G04 APERTURE END LIST*
D10*
G04 #@! TO.C,C4*
G36*
X176277691Y-75026053D02*
X176298926Y-75029203D01*
X176319750Y-75034419D01*
X176339962Y-75041651D01*
X176359368Y-75050830D01*
X176377781Y-75061866D01*
X176395024Y-75074654D01*
X176410930Y-75089070D01*
X176425346Y-75104976D01*
X176438134Y-75122219D01*
X176449170Y-75140632D01*
X176458349Y-75160038D01*
X176465581Y-75180250D01*
X176470797Y-75201074D01*
X176473947Y-75222309D01*
X176475000Y-75243750D01*
X176475000Y-75681250D01*
X176473947Y-75702691D01*
X176470797Y-75723926D01*
X176465581Y-75744750D01*
X176458349Y-75764962D01*
X176449170Y-75784368D01*
X176438134Y-75802781D01*
X176425346Y-75820024D01*
X176410930Y-75835930D01*
X176395024Y-75850346D01*
X176377781Y-75863134D01*
X176359368Y-75874170D01*
X176339962Y-75883349D01*
X176319750Y-75890581D01*
X176298926Y-75895797D01*
X176277691Y-75898947D01*
X176256250Y-75900000D01*
X175743750Y-75900000D01*
X175722309Y-75898947D01*
X175701074Y-75895797D01*
X175680250Y-75890581D01*
X175660038Y-75883349D01*
X175640632Y-75874170D01*
X175622219Y-75863134D01*
X175604976Y-75850346D01*
X175589070Y-75835930D01*
X175574654Y-75820024D01*
X175561866Y-75802781D01*
X175550830Y-75784368D01*
X175541651Y-75764962D01*
X175534419Y-75744750D01*
X175529203Y-75723926D01*
X175526053Y-75702691D01*
X175525000Y-75681250D01*
X175525000Y-75243750D01*
X175526053Y-75222309D01*
X175529203Y-75201074D01*
X175534419Y-75180250D01*
X175541651Y-75160038D01*
X175550830Y-75140632D01*
X175561866Y-75122219D01*
X175574654Y-75104976D01*
X175589070Y-75089070D01*
X175604976Y-75074654D01*
X175622219Y-75061866D01*
X175640632Y-75050830D01*
X175660038Y-75041651D01*
X175680250Y-75034419D01*
X175701074Y-75029203D01*
X175722309Y-75026053D01*
X175743750Y-75025000D01*
X176256250Y-75025000D01*
X176277691Y-75026053D01*
X176277691Y-75026053D01*
G37*
D11*
X176000000Y-75462500D03*
D10*
G36*
X176277691Y-76601053D02*
X176298926Y-76604203D01*
X176319750Y-76609419D01*
X176339962Y-76616651D01*
X176359368Y-76625830D01*
X176377781Y-76636866D01*
X176395024Y-76649654D01*
X176410930Y-76664070D01*
X176425346Y-76679976D01*
X176438134Y-76697219D01*
X176449170Y-76715632D01*
X176458349Y-76735038D01*
X176465581Y-76755250D01*
X176470797Y-76776074D01*
X176473947Y-76797309D01*
X176475000Y-76818750D01*
X176475000Y-77256250D01*
X176473947Y-77277691D01*
X176470797Y-77298926D01*
X176465581Y-77319750D01*
X176458349Y-77339962D01*
X176449170Y-77359368D01*
X176438134Y-77377781D01*
X176425346Y-77395024D01*
X176410930Y-77410930D01*
X176395024Y-77425346D01*
X176377781Y-77438134D01*
X176359368Y-77449170D01*
X176339962Y-77458349D01*
X176319750Y-77465581D01*
X176298926Y-77470797D01*
X176277691Y-77473947D01*
X176256250Y-77475000D01*
X175743750Y-77475000D01*
X175722309Y-77473947D01*
X175701074Y-77470797D01*
X175680250Y-77465581D01*
X175660038Y-77458349D01*
X175640632Y-77449170D01*
X175622219Y-77438134D01*
X175604976Y-77425346D01*
X175589070Y-77410930D01*
X175574654Y-77395024D01*
X175561866Y-77377781D01*
X175550830Y-77359368D01*
X175541651Y-77339962D01*
X175534419Y-77319750D01*
X175529203Y-77298926D01*
X175526053Y-77277691D01*
X175525000Y-77256250D01*
X175525000Y-76818750D01*
X175526053Y-76797309D01*
X175529203Y-76776074D01*
X175534419Y-76755250D01*
X175541651Y-76735038D01*
X175550830Y-76715632D01*
X175561866Y-76697219D01*
X175574654Y-76679976D01*
X175589070Y-76664070D01*
X175604976Y-76649654D01*
X175622219Y-76636866D01*
X175640632Y-76625830D01*
X175660038Y-76616651D01*
X175680250Y-76609419D01*
X175701074Y-76604203D01*
X175722309Y-76601053D01*
X175743750Y-76600000D01*
X176256250Y-76600000D01*
X176277691Y-76601053D01*
X176277691Y-76601053D01*
G37*
D11*
X176000000Y-77037500D03*
G04 #@! TD*
D12*
G04 #@! TO.C,U4*
X178835000Y-75300000D03*
X178835000Y-76250000D03*
X178835000Y-77200000D03*
X181165000Y-77200000D03*
X181165000Y-75300000D03*
G04 #@! TD*
D10*
G04 #@! TO.C,D2*
G36*
X149074505Y-83801204D02*
X149098773Y-83804804D01*
X149122572Y-83810765D01*
X149145671Y-83819030D01*
X149167850Y-83829520D01*
X149188893Y-83842132D01*
X149208599Y-83856747D01*
X149226777Y-83873223D01*
X149243253Y-83891401D01*
X149257868Y-83911107D01*
X149270480Y-83932150D01*
X149280970Y-83954329D01*
X149289235Y-83977428D01*
X149295196Y-84001227D01*
X149298796Y-84025495D01*
X149300000Y-84049999D01*
X149300000Y-84950001D01*
X149298796Y-84974505D01*
X149295196Y-84998773D01*
X149289235Y-85022572D01*
X149280970Y-85045671D01*
X149270480Y-85067850D01*
X149257868Y-85088893D01*
X149243253Y-85108599D01*
X149226777Y-85126777D01*
X149208599Y-85143253D01*
X149188893Y-85157868D01*
X149167850Y-85170480D01*
X149145671Y-85180970D01*
X149122572Y-85189235D01*
X149098773Y-85195196D01*
X149074505Y-85198796D01*
X149050001Y-85200000D01*
X148399999Y-85200000D01*
X148375495Y-85198796D01*
X148351227Y-85195196D01*
X148327428Y-85189235D01*
X148304329Y-85180970D01*
X148282150Y-85170480D01*
X148261107Y-85157868D01*
X148241401Y-85143253D01*
X148223223Y-85126777D01*
X148206747Y-85108599D01*
X148192132Y-85088893D01*
X148179520Y-85067850D01*
X148169030Y-85045671D01*
X148160765Y-85022572D01*
X148154804Y-84998773D01*
X148151204Y-84974505D01*
X148150000Y-84950001D01*
X148150000Y-84049999D01*
X148151204Y-84025495D01*
X148154804Y-84001227D01*
X148160765Y-83977428D01*
X148169030Y-83954329D01*
X148179520Y-83932150D01*
X148192132Y-83911107D01*
X148206747Y-83891401D01*
X148223223Y-83873223D01*
X148241401Y-83856747D01*
X148261107Y-83842132D01*
X148282150Y-83829520D01*
X148304329Y-83819030D01*
X148327428Y-83810765D01*
X148351227Y-83804804D01*
X148375495Y-83801204D01*
X148399999Y-83800000D01*
X149050001Y-83800000D01*
X149074505Y-83801204D01*
X149074505Y-83801204D01*
G37*
D13*
X148725000Y-84500000D03*
D10*
G36*
X151124505Y-83801204D02*
X151148773Y-83804804D01*
X151172572Y-83810765D01*
X151195671Y-83819030D01*
X151217850Y-83829520D01*
X151238893Y-83842132D01*
X151258599Y-83856747D01*
X151276777Y-83873223D01*
X151293253Y-83891401D01*
X151307868Y-83911107D01*
X151320480Y-83932150D01*
X151330970Y-83954329D01*
X151339235Y-83977428D01*
X151345196Y-84001227D01*
X151348796Y-84025495D01*
X151350000Y-84049999D01*
X151350000Y-84950001D01*
X151348796Y-84974505D01*
X151345196Y-84998773D01*
X151339235Y-85022572D01*
X151330970Y-85045671D01*
X151320480Y-85067850D01*
X151307868Y-85088893D01*
X151293253Y-85108599D01*
X151276777Y-85126777D01*
X151258599Y-85143253D01*
X151238893Y-85157868D01*
X151217850Y-85170480D01*
X151195671Y-85180970D01*
X151172572Y-85189235D01*
X151148773Y-85195196D01*
X151124505Y-85198796D01*
X151100001Y-85200000D01*
X150449999Y-85200000D01*
X150425495Y-85198796D01*
X150401227Y-85195196D01*
X150377428Y-85189235D01*
X150354329Y-85180970D01*
X150332150Y-85170480D01*
X150311107Y-85157868D01*
X150291401Y-85143253D01*
X150273223Y-85126777D01*
X150256747Y-85108599D01*
X150242132Y-85088893D01*
X150229520Y-85067850D01*
X150219030Y-85045671D01*
X150210765Y-85022572D01*
X150204804Y-84998773D01*
X150201204Y-84974505D01*
X150200000Y-84950001D01*
X150200000Y-84049999D01*
X150201204Y-84025495D01*
X150204804Y-84001227D01*
X150210765Y-83977428D01*
X150219030Y-83954329D01*
X150229520Y-83932150D01*
X150242132Y-83911107D01*
X150256747Y-83891401D01*
X150273223Y-83873223D01*
X150291401Y-83856747D01*
X150311107Y-83842132D01*
X150332150Y-83829520D01*
X150354329Y-83819030D01*
X150377428Y-83810765D01*
X150401227Y-83804804D01*
X150425495Y-83801204D01*
X150449999Y-83800000D01*
X151100001Y-83800000D01*
X151124505Y-83801204D01*
X151124505Y-83801204D01*
G37*
D13*
X150775000Y-84500000D03*
G04 #@! TD*
D10*
G04 #@! TO.C,D3*
G36*
X151124505Y-89051204D02*
X151148773Y-89054804D01*
X151172572Y-89060765D01*
X151195671Y-89069030D01*
X151217850Y-89079520D01*
X151238893Y-89092132D01*
X151258599Y-89106747D01*
X151276777Y-89123223D01*
X151293253Y-89141401D01*
X151307868Y-89161107D01*
X151320480Y-89182150D01*
X151330970Y-89204329D01*
X151339235Y-89227428D01*
X151345196Y-89251227D01*
X151348796Y-89275495D01*
X151350000Y-89299999D01*
X151350000Y-90200001D01*
X151348796Y-90224505D01*
X151345196Y-90248773D01*
X151339235Y-90272572D01*
X151330970Y-90295671D01*
X151320480Y-90317850D01*
X151307868Y-90338893D01*
X151293253Y-90358599D01*
X151276777Y-90376777D01*
X151258599Y-90393253D01*
X151238893Y-90407868D01*
X151217850Y-90420480D01*
X151195671Y-90430970D01*
X151172572Y-90439235D01*
X151148773Y-90445196D01*
X151124505Y-90448796D01*
X151100001Y-90450000D01*
X150449999Y-90450000D01*
X150425495Y-90448796D01*
X150401227Y-90445196D01*
X150377428Y-90439235D01*
X150354329Y-90430970D01*
X150332150Y-90420480D01*
X150311107Y-90407868D01*
X150291401Y-90393253D01*
X150273223Y-90376777D01*
X150256747Y-90358599D01*
X150242132Y-90338893D01*
X150229520Y-90317850D01*
X150219030Y-90295671D01*
X150210765Y-90272572D01*
X150204804Y-90248773D01*
X150201204Y-90224505D01*
X150200000Y-90200001D01*
X150200000Y-89299999D01*
X150201204Y-89275495D01*
X150204804Y-89251227D01*
X150210765Y-89227428D01*
X150219030Y-89204329D01*
X150229520Y-89182150D01*
X150242132Y-89161107D01*
X150256747Y-89141401D01*
X150273223Y-89123223D01*
X150291401Y-89106747D01*
X150311107Y-89092132D01*
X150332150Y-89079520D01*
X150354329Y-89069030D01*
X150377428Y-89060765D01*
X150401227Y-89054804D01*
X150425495Y-89051204D01*
X150449999Y-89050000D01*
X151100001Y-89050000D01*
X151124505Y-89051204D01*
X151124505Y-89051204D01*
G37*
D13*
X150775000Y-89750000D03*
D10*
G36*
X149074505Y-89051204D02*
X149098773Y-89054804D01*
X149122572Y-89060765D01*
X149145671Y-89069030D01*
X149167850Y-89079520D01*
X149188893Y-89092132D01*
X149208599Y-89106747D01*
X149226777Y-89123223D01*
X149243253Y-89141401D01*
X149257868Y-89161107D01*
X149270480Y-89182150D01*
X149280970Y-89204329D01*
X149289235Y-89227428D01*
X149295196Y-89251227D01*
X149298796Y-89275495D01*
X149300000Y-89299999D01*
X149300000Y-90200001D01*
X149298796Y-90224505D01*
X149295196Y-90248773D01*
X149289235Y-90272572D01*
X149280970Y-90295671D01*
X149270480Y-90317850D01*
X149257868Y-90338893D01*
X149243253Y-90358599D01*
X149226777Y-90376777D01*
X149208599Y-90393253D01*
X149188893Y-90407868D01*
X149167850Y-90420480D01*
X149145671Y-90430970D01*
X149122572Y-90439235D01*
X149098773Y-90445196D01*
X149074505Y-90448796D01*
X149050001Y-90450000D01*
X148399999Y-90450000D01*
X148375495Y-90448796D01*
X148351227Y-90445196D01*
X148327428Y-90439235D01*
X148304329Y-90430970D01*
X148282150Y-90420480D01*
X148261107Y-90407868D01*
X148241401Y-90393253D01*
X148223223Y-90376777D01*
X148206747Y-90358599D01*
X148192132Y-90338893D01*
X148179520Y-90317850D01*
X148169030Y-90295671D01*
X148160765Y-90272572D01*
X148154804Y-90248773D01*
X148151204Y-90224505D01*
X148150000Y-90200001D01*
X148150000Y-89299999D01*
X148151204Y-89275495D01*
X148154804Y-89251227D01*
X148160765Y-89227428D01*
X148169030Y-89204329D01*
X148179520Y-89182150D01*
X148192132Y-89161107D01*
X148206747Y-89141401D01*
X148223223Y-89123223D01*
X148241401Y-89106747D01*
X148261107Y-89092132D01*
X148282150Y-89079520D01*
X148304329Y-89069030D01*
X148327428Y-89060765D01*
X148351227Y-89054804D01*
X148375495Y-89051204D01*
X148399999Y-89050000D01*
X149050001Y-89050000D01*
X149074505Y-89051204D01*
X149074505Y-89051204D01*
G37*
D13*
X148725000Y-89750000D03*
G04 #@! TD*
D10*
G04 #@! TO.C,R18*
G36*
X149455142Y-78551174D02*
X149478803Y-78554684D01*
X149502007Y-78560496D01*
X149524529Y-78568554D01*
X149546153Y-78578782D01*
X149566670Y-78591079D01*
X149585883Y-78605329D01*
X149603607Y-78621393D01*
X149619671Y-78639117D01*
X149633921Y-78658330D01*
X149646218Y-78678847D01*
X149656446Y-78700471D01*
X149664504Y-78722993D01*
X149670316Y-78746197D01*
X149673826Y-78769858D01*
X149675000Y-78793750D01*
X149675000Y-79706250D01*
X149673826Y-79730142D01*
X149670316Y-79753803D01*
X149664504Y-79777007D01*
X149656446Y-79799529D01*
X149646218Y-79821153D01*
X149633921Y-79841670D01*
X149619671Y-79860883D01*
X149603607Y-79878607D01*
X149585883Y-79894671D01*
X149566670Y-79908921D01*
X149546153Y-79921218D01*
X149524529Y-79931446D01*
X149502007Y-79939504D01*
X149478803Y-79945316D01*
X149455142Y-79948826D01*
X149431250Y-79950000D01*
X148943750Y-79950000D01*
X148919858Y-79948826D01*
X148896197Y-79945316D01*
X148872993Y-79939504D01*
X148850471Y-79931446D01*
X148828847Y-79921218D01*
X148808330Y-79908921D01*
X148789117Y-79894671D01*
X148771393Y-79878607D01*
X148755329Y-79860883D01*
X148741079Y-79841670D01*
X148728782Y-79821153D01*
X148718554Y-79799529D01*
X148710496Y-79777007D01*
X148704684Y-79753803D01*
X148701174Y-79730142D01*
X148700000Y-79706250D01*
X148700000Y-78793750D01*
X148701174Y-78769858D01*
X148704684Y-78746197D01*
X148710496Y-78722993D01*
X148718554Y-78700471D01*
X148728782Y-78678847D01*
X148741079Y-78658330D01*
X148755329Y-78639117D01*
X148771393Y-78621393D01*
X148789117Y-78605329D01*
X148808330Y-78591079D01*
X148828847Y-78578782D01*
X148850471Y-78568554D01*
X148872993Y-78560496D01*
X148896197Y-78554684D01*
X148919858Y-78551174D01*
X148943750Y-78550000D01*
X149431250Y-78550000D01*
X149455142Y-78551174D01*
X149455142Y-78551174D01*
G37*
D14*
X149187500Y-79250000D03*
D10*
G36*
X147580142Y-78551174D02*
X147603803Y-78554684D01*
X147627007Y-78560496D01*
X147649529Y-78568554D01*
X147671153Y-78578782D01*
X147691670Y-78591079D01*
X147710883Y-78605329D01*
X147728607Y-78621393D01*
X147744671Y-78639117D01*
X147758921Y-78658330D01*
X147771218Y-78678847D01*
X147781446Y-78700471D01*
X147789504Y-78722993D01*
X147795316Y-78746197D01*
X147798826Y-78769858D01*
X147800000Y-78793750D01*
X147800000Y-79706250D01*
X147798826Y-79730142D01*
X147795316Y-79753803D01*
X147789504Y-79777007D01*
X147781446Y-79799529D01*
X147771218Y-79821153D01*
X147758921Y-79841670D01*
X147744671Y-79860883D01*
X147728607Y-79878607D01*
X147710883Y-79894671D01*
X147691670Y-79908921D01*
X147671153Y-79921218D01*
X147649529Y-79931446D01*
X147627007Y-79939504D01*
X147603803Y-79945316D01*
X147580142Y-79948826D01*
X147556250Y-79950000D01*
X147068750Y-79950000D01*
X147044858Y-79948826D01*
X147021197Y-79945316D01*
X146997993Y-79939504D01*
X146975471Y-79931446D01*
X146953847Y-79921218D01*
X146933330Y-79908921D01*
X146914117Y-79894671D01*
X146896393Y-79878607D01*
X146880329Y-79860883D01*
X146866079Y-79841670D01*
X146853782Y-79821153D01*
X146843554Y-79799529D01*
X146835496Y-79777007D01*
X146829684Y-79753803D01*
X146826174Y-79730142D01*
X146825000Y-79706250D01*
X146825000Y-78793750D01*
X146826174Y-78769858D01*
X146829684Y-78746197D01*
X146835496Y-78722993D01*
X146843554Y-78700471D01*
X146853782Y-78678847D01*
X146866079Y-78658330D01*
X146880329Y-78639117D01*
X146896393Y-78621393D01*
X146914117Y-78605329D01*
X146933330Y-78591079D01*
X146953847Y-78578782D01*
X146975471Y-78568554D01*
X146997993Y-78560496D01*
X147021197Y-78554684D01*
X147044858Y-78551174D01*
X147068750Y-78550000D01*
X147556250Y-78550000D01*
X147580142Y-78551174D01*
X147580142Y-78551174D01*
G37*
D14*
X147312500Y-79250000D03*
G04 #@! TD*
D10*
G04 #@! TO.C,R19*
G36*
X149330142Y-92801174D02*
X149353803Y-92804684D01*
X149377007Y-92810496D01*
X149399529Y-92818554D01*
X149421153Y-92828782D01*
X149441670Y-92841079D01*
X149460883Y-92855329D01*
X149478607Y-92871393D01*
X149494671Y-92889117D01*
X149508921Y-92908330D01*
X149521218Y-92928847D01*
X149531446Y-92950471D01*
X149539504Y-92972993D01*
X149545316Y-92996197D01*
X149548826Y-93019858D01*
X149550000Y-93043750D01*
X149550000Y-93956250D01*
X149548826Y-93980142D01*
X149545316Y-94003803D01*
X149539504Y-94027007D01*
X149531446Y-94049529D01*
X149521218Y-94071153D01*
X149508921Y-94091670D01*
X149494671Y-94110883D01*
X149478607Y-94128607D01*
X149460883Y-94144671D01*
X149441670Y-94158921D01*
X149421153Y-94171218D01*
X149399529Y-94181446D01*
X149377007Y-94189504D01*
X149353803Y-94195316D01*
X149330142Y-94198826D01*
X149306250Y-94200000D01*
X148818750Y-94200000D01*
X148794858Y-94198826D01*
X148771197Y-94195316D01*
X148747993Y-94189504D01*
X148725471Y-94181446D01*
X148703847Y-94171218D01*
X148683330Y-94158921D01*
X148664117Y-94144671D01*
X148646393Y-94128607D01*
X148630329Y-94110883D01*
X148616079Y-94091670D01*
X148603782Y-94071153D01*
X148593554Y-94049529D01*
X148585496Y-94027007D01*
X148579684Y-94003803D01*
X148576174Y-93980142D01*
X148575000Y-93956250D01*
X148575000Y-93043750D01*
X148576174Y-93019858D01*
X148579684Y-92996197D01*
X148585496Y-92972993D01*
X148593554Y-92950471D01*
X148603782Y-92928847D01*
X148616079Y-92908330D01*
X148630329Y-92889117D01*
X148646393Y-92871393D01*
X148664117Y-92855329D01*
X148683330Y-92841079D01*
X148703847Y-92828782D01*
X148725471Y-92818554D01*
X148747993Y-92810496D01*
X148771197Y-92804684D01*
X148794858Y-92801174D01*
X148818750Y-92800000D01*
X149306250Y-92800000D01*
X149330142Y-92801174D01*
X149330142Y-92801174D01*
G37*
D14*
X149062500Y-93500000D03*
D10*
G36*
X151205142Y-92801174D02*
X151228803Y-92804684D01*
X151252007Y-92810496D01*
X151274529Y-92818554D01*
X151296153Y-92828782D01*
X151316670Y-92841079D01*
X151335883Y-92855329D01*
X151353607Y-92871393D01*
X151369671Y-92889117D01*
X151383921Y-92908330D01*
X151396218Y-92928847D01*
X151406446Y-92950471D01*
X151414504Y-92972993D01*
X151420316Y-92996197D01*
X151423826Y-93019858D01*
X151425000Y-93043750D01*
X151425000Y-93956250D01*
X151423826Y-93980142D01*
X151420316Y-94003803D01*
X151414504Y-94027007D01*
X151406446Y-94049529D01*
X151396218Y-94071153D01*
X151383921Y-94091670D01*
X151369671Y-94110883D01*
X151353607Y-94128607D01*
X151335883Y-94144671D01*
X151316670Y-94158921D01*
X151296153Y-94171218D01*
X151274529Y-94181446D01*
X151252007Y-94189504D01*
X151228803Y-94195316D01*
X151205142Y-94198826D01*
X151181250Y-94200000D01*
X150693750Y-94200000D01*
X150669858Y-94198826D01*
X150646197Y-94195316D01*
X150622993Y-94189504D01*
X150600471Y-94181446D01*
X150578847Y-94171218D01*
X150558330Y-94158921D01*
X150539117Y-94144671D01*
X150521393Y-94128607D01*
X150505329Y-94110883D01*
X150491079Y-94091670D01*
X150478782Y-94071153D01*
X150468554Y-94049529D01*
X150460496Y-94027007D01*
X150454684Y-94003803D01*
X150451174Y-93980142D01*
X150450000Y-93956250D01*
X150450000Y-93043750D01*
X150451174Y-93019858D01*
X150454684Y-92996197D01*
X150460496Y-92972993D01*
X150468554Y-92950471D01*
X150478782Y-92928847D01*
X150491079Y-92908330D01*
X150505329Y-92889117D01*
X150521393Y-92871393D01*
X150539117Y-92855329D01*
X150558330Y-92841079D01*
X150578847Y-92828782D01*
X150600471Y-92818554D01*
X150622993Y-92810496D01*
X150646197Y-92804684D01*
X150669858Y-92801174D01*
X150693750Y-92800000D01*
X151181250Y-92800000D01*
X151205142Y-92801174D01*
X151205142Y-92801174D01*
G37*
D14*
X150937500Y-93500000D03*
G04 #@! TD*
M02*
