M48
;DRILL file {KiCad 5.0.0-rc3-unknown-14ce5182~65~ubuntu16.04.1} date Tue Jul 31 19:28:41 2018
;FORMAT={-:-/ absolute / inch / decimal}
FMAT,2
INCH,TZ
T1C0.0157
T2C0.0394
T3C0.0630
T4C0.1063
%
G90
G05
M72
T1
X5.8465Y-2.1457
X5.8465Y-2.4114
X5.8465Y-2.6772
X5.8465Y-2.9528
X5.8465Y-3.5039
X5.8465Y-3.7795
X5.8465Y-4.0354
X6.0827Y-3.1693
X6.0827Y-3.2874
X6.1122Y-2.372
X6.1122Y-3.4252
X6.1811Y-2.2933
X6.1811Y-2.9921
X6.1811Y-3.5531
X6.1811Y-3.8681
X6.1811Y-4.0748
X6.2795Y-2.1063
X6.2795Y-2.2736
X6.3681Y-3.1693
X6.4173Y-2.2736
X6.437Y-2.6378
X6.4469Y-2.3228
X6.4567Y-3.0315
X6.4665Y-3.6417
X6.4862Y-2.7461
X6.4862Y-3.248
X6.5354Y-3.2874
X6.5453Y-2.9724
X6.5846Y-3.2185
X6.5945Y-2.9528
X6.6142Y-3.4154
X6.624Y-2.1555
X6.624Y-2.5886
X6.6634Y-2.1555
X6.6634Y-2.5295
X6.6929Y-3.8189
X6.7815Y-3.5236
X6.7815Y-3.5236
X6.8209Y-3.3071
X6.8209Y-3.4252
X6.8898Y-3.7106
X6.9094Y-3.2185
X6.9193Y-3.9665
X6.9291Y-3.3169
X7.0472Y-2.5984
X7.0965Y-2.3031
X7.2244Y-3.0807
X7.2343Y-3.8976
X7.313Y-3.5335
X7.3228Y-2.2736
T2
X7.4197Y-2.1358
X7.4197Y-2.2358
X7.4197Y-2.3358
X7.4197Y-2.4358
X7.4197Y-2.5358
X7.4197Y-2.6358
X7.4197Y-2.7358
X7.4197Y-2.8358
X7.4197Y-2.9358
X7.4197Y-3.0358
X7.4197Y-3.1358
X7.4197Y-3.2358
X7.4197Y-3.3358
X7.4197Y-3.4358
X7.4197Y-3.5358
X7.4197Y-3.6358
X7.4197Y-3.7358
X7.4197Y-3.8358
X7.4197Y-3.9358
X7.4197Y-4.0358
X7.5197Y-2.1358
X7.5197Y-2.2358
X7.5197Y-2.3358
X7.5197Y-2.4358
X7.5197Y-2.5358
X7.5197Y-2.6358
X7.5197Y-2.7358
X7.5197Y-2.8358
X7.5197Y-2.9358
X7.5197Y-3.0358
X7.5197Y-3.1358
X7.5197Y-3.2358
X7.5197Y-3.3358
X7.5197Y-3.4358
X7.5197Y-3.5358
X7.5197Y-3.6358
X7.5197Y-3.7358
X7.5197Y-3.8358
X7.5197Y-3.9358
X7.5197Y-4.0358
T3
X5.6102Y-2.185
X5.6102Y-2.3228
X5.6102Y-2.4606
X5.6102Y-2.5984
X5.6102Y-2.7362
X5.6102Y-2.874
X5.6102Y-3.0118
X5.6102Y-3.1496
X5.6102Y-3.2874
X5.6102Y-3.4252
X5.6102Y-3.563
X5.6102Y-3.7008
X5.6102Y-3.8386
X5.6102Y-3.9764
T4
X7.4803Y-4.2224
X5.5512Y-1.939
X7.4803Y-1.939
X5.5512Y-4.2224
T0
M30
