G04 #@! TF.GenerationSoftware,KiCad,Pcbnew,5.0.0-rc3-unknown-14ce5182~65~ubuntu16.04.1*
G04 #@! TF.CreationDate,2018-07-31T19:28:55+01:00*
G04 #@! TF.ProjectId,test,746573742E6B696361645F7063620000,rev?*
G04 #@! TF.SameCoordinates,Original*
G04 #@! TF.FileFunction,Copper,L1,Top,Signal*
G04 #@! TF.FilePolarity,Positive*
%FSLAX46Y46*%
G04 Gerber Fmt 4.6, Leading zero omitted, Abs format (unit mm)*
G04 Created by KiCad (PCBNEW 5.0.0-rc3-unknown-14ce5182~65~ubuntu16.04.1) date Tue Jul 31 19:28:55 2018*
%MOMM*%
%LPD*%
G01*
G04 APERTURE LIST*
G04 #@! TA.AperFunction,ComponentPad*
%ADD10R,2.600000X2.000000*%
G04 #@! TD*
G04 #@! TA.AperFunction,ComponentPad*
%ADD11O,2.600000X2.000000*%
G04 #@! TD*
G04 #@! TA.AperFunction,ComponentPad*
%ADD12C,6.000000*%
G04 #@! TD*
G04 #@! TA.AperFunction,SMDPad,CuDef*
%ADD13R,0.900000X0.800000*%
G04 #@! TD*
G04 #@! TA.AperFunction,Conductor*
%ADD14C,0.100000*%
G04 #@! TD*
G04 #@! TA.AperFunction,SMDPad,CuDef*
%ADD15C,0.975000*%
G04 #@! TD*
G04 #@! TA.AperFunction,SMDPad,CuDef*
%ADD16C,0.875000*%
G04 #@! TD*
G04 #@! TA.AperFunction,ComponentPad*
%ADD17R,1.700000X1.700000*%
G04 #@! TD*
G04 #@! TA.AperFunction,ComponentPad*
%ADD18O,1.700000X1.700000*%
G04 #@! TD*
G04 #@! TA.AperFunction,SMDPad,CuDef*
%ADD19R,1.500000X0.600000*%
G04 #@! TD*
G04 #@! TA.AperFunction,SMDPad,CuDef*
%ADD20R,0.600000X1.500000*%
G04 #@! TD*
G04 #@! TA.AperFunction,SMDPad,CuDef*
%ADD21C,0.950000*%
G04 #@! TD*
G04 #@! TA.AperFunction,SMDPad,CuDef*
%ADD22R,1.390000X0.580000*%
G04 #@! TD*
G04 #@! TA.AperFunction,ViaPad*
%ADD23C,0.800000*%
G04 #@! TD*
G04 #@! TA.AperFunction,Conductor*
%ADD24C,0.250000*%
G04 #@! TD*
G04 APERTURE END LIST*
D10*
G04 #@! TO.P,J1,1*
G04 #@! TO.N,Net-(J1-Pad1)*
X142500000Y-55500000D03*
D11*
G04 #@! TO.P,J1,2*
G04 #@! TO.N,Net-(J1-Pad2)*
X142500000Y-59000000D03*
G04 #@! TO.P,J1,3*
G04 #@! TO.N,Net-(J1-Pad3)*
X142500000Y-62500000D03*
G04 #@! TO.P,J1,4*
G04 #@! TO.N,Net-(J1-Pad4)*
X142500000Y-66000000D03*
G04 #@! TO.P,J1,5*
G04 #@! TO.N,Net-(J1-Pad5)*
X142500000Y-69500000D03*
G04 #@! TO.P,J1,6*
G04 #@! TO.N,Net-(J1-Pad6)*
X142500000Y-73000000D03*
G04 #@! TO.P,J1,7*
G04 #@! TO.N,Net-(J1-Pad7)*
X142500000Y-76500000D03*
G04 #@! TO.P,J1,8*
G04 #@! TO.N,Net-(J1-Pad8)*
X142500000Y-80000000D03*
G04 #@! TO.P,J1,9*
G04 #@! TO.N,Net-(J1-Pad9)*
X142500000Y-83500000D03*
G04 #@! TO.P,J1,10*
G04 #@! TO.N,Net-(J1-Pad10)*
X142500000Y-87000000D03*
G04 #@! TO.P,J1,11*
G04 #@! TO.N,Net-(J1-Pad11)*
X142500000Y-90500000D03*
G04 #@! TO.P,J1,12*
G04 #@! TO.N,Net-(J1-Pad12)*
X142500000Y-94000000D03*
G04 #@! TO.P,J1,13*
G04 #@! TO.N,Net-(J1-Pad13)*
X142500000Y-97500000D03*
G04 #@! TO.P,J1,14*
G04 #@! TO.N,Net-(J1-Pad14)*
X142500000Y-101000000D03*
G04 #@! TD*
D12*
G04 #@! TO.P,REF\002A\002A,1*
G04 #@! TO.N,N/C*
X141000000Y-49250000D03*
G04 #@! TD*
G04 #@! TO.P,REF\002A\002A,1*
G04 #@! TO.N,N/C*
X190000000Y-49250000D03*
G04 #@! TD*
G04 #@! TO.P,REF\002A\002A,1*
G04 #@! TO.N,N/C*
X190000000Y-107250000D03*
G04 #@! TD*
D13*
G04 #@! TO.P,D1,1*
G04 #@! TO.N,Net-(D1-Pad1)*
X181250000Y-64050000D03*
G04 #@! TO.P,D1,2*
G04 #@! TO.N,GND*
X181250000Y-65950000D03*
G04 #@! TO.P,D1,3*
G04 #@! TO.N,N/C*
X183250000Y-65000000D03*
G04 #@! TD*
D14*
G04 #@! TO.N,5V*
G04 #@! TO.C,R1*
G36*
X183980142Y-55076174D02*
X184003803Y-55079684D01*
X184027007Y-55085496D01*
X184049529Y-55093554D01*
X184071153Y-55103782D01*
X184091670Y-55116079D01*
X184110883Y-55130329D01*
X184128607Y-55146393D01*
X184144671Y-55164117D01*
X184158921Y-55183330D01*
X184171218Y-55203847D01*
X184181446Y-55225471D01*
X184189504Y-55247993D01*
X184195316Y-55271197D01*
X184198826Y-55294858D01*
X184200000Y-55318750D01*
X184200000Y-55806250D01*
X184198826Y-55830142D01*
X184195316Y-55853803D01*
X184189504Y-55877007D01*
X184181446Y-55899529D01*
X184171218Y-55921153D01*
X184158921Y-55941670D01*
X184144671Y-55960883D01*
X184128607Y-55978607D01*
X184110883Y-55994671D01*
X184091670Y-56008921D01*
X184071153Y-56021218D01*
X184049529Y-56031446D01*
X184027007Y-56039504D01*
X184003803Y-56045316D01*
X183980142Y-56048826D01*
X183956250Y-56050000D01*
X183043750Y-56050000D01*
X183019858Y-56048826D01*
X182996197Y-56045316D01*
X182972993Y-56039504D01*
X182950471Y-56031446D01*
X182928847Y-56021218D01*
X182908330Y-56008921D01*
X182889117Y-55994671D01*
X182871393Y-55978607D01*
X182855329Y-55960883D01*
X182841079Y-55941670D01*
X182828782Y-55921153D01*
X182818554Y-55899529D01*
X182810496Y-55877007D01*
X182804684Y-55853803D01*
X182801174Y-55830142D01*
X182800000Y-55806250D01*
X182800000Y-55318750D01*
X182801174Y-55294858D01*
X182804684Y-55271197D01*
X182810496Y-55247993D01*
X182818554Y-55225471D01*
X182828782Y-55203847D01*
X182841079Y-55183330D01*
X182855329Y-55164117D01*
X182871393Y-55146393D01*
X182889117Y-55130329D01*
X182908330Y-55116079D01*
X182928847Y-55103782D01*
X182950471Y-55093554D01*
X182972993Y-55085496D01*
X182996197Y-55079684D01*
X183019858Y-55076174D01*
X183043750Y-55075000D01*
X183956250Y-55075000D01*
X183980142Y-55076174D01*
X183980142Y-55076174D01*
G37*
D15*
G04 #@! TD*
G04 #@! TO.P,R1,2*
G04 #@! TO.N,5V*
X183500000Y-55562500D03*
D14*
G04 #@! TO.N,Net-(D1-Pad1)*
G04 #@! TO.C,R1*
G36*
X183980142Y-56951174D02*
X184003803Y-56954684D01*
X184027007Y-56960496D01*
X184049529Y-56968554D01*
X184071153Y-56978782D01*
X184091670Y-56991079D01*
X184110883Y-57005329D01*
X184128607Y-57021393D01*
X184144671Y-57039117D01*
X184158921Y-57058330D01*
X184171218Y-57078847D01*
X184181446Y-57100471D01*
X184189504Y-57122993D01*
X184195316Y-57146197D01*
X184198826Y-57169858D01*
X184200000Y-57193750D01*
X184200000Y-57681250D01*
X184198826Y-57705142D01*
X184195316Y-57728803D01*
X184189504Y-57752007D01*
X184181446Y-57774529D01*
X184171218Y-57796153D01*
X184158921Y-57816670D01*
X184144671Y-57835883D01*
X184128607Y-57853607D01*
X184110883Y-57869671D01*
X184091670Y-57883921D01*
X184071153Y-57896218D01*
X184049529Y-57906446D01*
X184027007Y-57914504D01*
X184003803Y-57920316D01*
X183980142Y-57923826D01*
X183956250Y-57925000D01*
X183043750Y-57925000D01*
X183019858Y-57923826D01*
X182996197Y-57920316D01*
X182972993Y-57914504D01*
X182950471Y-57906446D01*
X182928847Y-57896218D01*
X182908330Y-57883921D01*
X182889117Y-57869671D01*
X182871393Y-57853607D01*
X182855329Y-57835883D01*
X182841079Y-57816670D01*
X182828782Y-57796153D01*
X182818554Y-57774529D01*
X182810496Y-57752007D01*
X182804684Y-57728803D01*
X182801174Y-57705142D01*
X182800000Y-57681250D01*
X182800000Y-57193750D01*
X182801174Y-57169858D01*
X182804684Y-57146197D01*
X182810496Y-57122993D01*
X182818554Y-57100471D01*
X182828782Y-57078847D01*
X182841079Y-57058330D01*
X182855329Y-57039117D01*
X182871393Y-57021393D01*
X182889117Y-57005329D01*
X182908330Y-56991079D01*
X182928847Y-56978782D01*
X182950471Y-56968554D01*
X182972993Y-56960496D01*
X182996197Y-56954684D01*
X183019858Y-56951174D01*
X183043750Y-56950000D01*
X183956250Y-56950000D01*
X183980142Y-56951174D01*
X183980142Y-56951174D01*
G37*
D15*
G04 #@! TD*
G04 #@! TO.P,R1,1*
G04 #@! TO.N,Net-(D1-Pad1)*
X183500000Y-57437500D03*
D14*
G04 #@! TO.N,Net-(R2-Pad1)*
G04 #@! TO.C,R2*
G36*
X184980142Y-60701174D02*
X185003803Y-60704684D01*
X185027007Y-60710496D01*
X185049529Y-60718554D01*
X185071153Y-60728782D01*
X185091670Y-60741079D01*
X185110883Y-60755329D01*
X185128607Y-60771393D01*
X185144671Y-60789117D01*
X185158921Y-60808330D01*
X185171218Y-60828847D01*
X185181446Y-60850471D01*
X185189504Y-60872993D01*
X185195316Y-60896197D01*
X185198826Y-60919858D01*
X185200000Y-60943750D01*
X185200000Y-61431250D01*
X185198826Y-61455142D01*
X185195316Y-61478803D01*
X185189504Y-61502007D01*
X185181446Y-61524529D01*
X185171218Y-61546153D01*
X185158921Y-61566670D01*
X185144671Y-61585883D01*
X185128607Y-61603607D01*
X185110883Y-61619671D01*
X185091670Y-61633921D01*
X185071153Y-61646218D01*
X185049529Y-61656446D01*
X185027007Y-61664504D01*
X185003803Y-61670316D01*
X184980142Y-61673826D01*
X184956250Y-61675000D01*
X184043750Y-61675000D01*
X184019858Y-61673826D01*
X183996197Y-61670316D01*
X183972993Y-61664504D01*
X183950471Y-61656446D01*
X183928847Y-61646218D01*
X183908330Y-61633921D01*
X183889117Y-61619671D01*
X183871393Y-61603607D01*
X183855329Y-61585883D01*
X183841079Y-61566670D01*
X183828782Y-61546153D01*
X183818554Y-61524529D01*
X183810496Y-61502007D01*
X183804684Y-61478803D01*
X183801174Y-61455142D01*
X183800000Y-61431250D01*
X183800000Y-60943750D01*
X183801174Y-60919858D01*
X183804684Y-60896197D01*
X183810496Y-60872993D01*
X183818554Y-60850471D01*
X183828782Y-60828847D01*
X183841079Y-60808330D01*
X183855329Y-60789117D01*
X183871393Y-60771393D01*
X183889117Y-60755329D01*
X183908330Y-60741079D01*
X183928847Y-60728782D01*
X183950471Y-60718554D01*
X183972993Y-60710496D01*
X183996197Y-60704684D01*
X184019858Y-60701174D01*
X184043750Y-60700000D01*
X184956250Y-60700000D01*
X184980142Y-60701174D01*
X184980142Y-60701174D01*
G37*
D15*
G04 #@! TD*
G04 #@! TO.P,R2,1*
G04 #@! TO.N,Net-(R2-Pad1)*
X184500000Y-61187500D03*
D14*
G04 #@! TO.N,Net-(D1-Pad1)*
G04 #@! TO.C,R2*
G36*
X184980142Y-58826174D02*
X185003803Y-58829684D01*
X185027007Y-58835496D01*
X185049529Y-58843554D01*
X185071153Y-58853782D01*
X185091670Y-58866079D01*
X185110883Y-58880329D01*
X185128607Y-58896393D01*
X185144671Y-58914117D01*
X185158921Y-58933330D01*
X185171218Y-58953847D01*
X185181446Y-58975471D01*
X185189504Y-58997993D01*
X185195316Y-59021197D01*
X185198826Y-59044858D01*
X185200000Y-59068750D01*
X185200000Y-59556250D01*
X185198826Y-59580142D01*
X185195316Y-59603803D01*
X185189504Y-59627007D01*
X185181446Y-59649529D01*
X185171218Y-59671153D01*
X185158921Y-59691670D01*
X185144671Y-59710883D01*
X185128607Y-59728607D01*
X185110883Y-59744671D01*
X185091670Y-59758921D01*
X185071153Y-59771218D01*
X185049529Y-59781446D01*
X185027007Y-59789504D01*
X185003803Y-59795316D01*
X184980142Y-59798826D01*
X184956250Y-59800000D01*
X184043750Y-59800000D01*
X184019858Y-59798826D01*
X183996197Y-59795316D01*
X183972993Y-59789504D01*
X183950471Y-59781446D01*
X183928847Y-59771218D01*
X183908330Y-59758921D01*
X183889117Y-59744671D01*
X183871393Y-59728607D01*
X183855329Y-59710883D01*
X183841079Y-59691670D01*
X183828782Y-59671153D01*
X183818554Y-59649529D01*
X183810496Y-59627007D01*
X183804684Y-59603803D01*
X183801174Y-59580142D01*
X183800000Y-59556250D01*
X183800000Y-59068750D01*
X183801174Y-59044858D01*
X183804684Y-59021197D01*
X183810496Y-58997993D01*
X183818554Y-58975471D01*
X183828782Y-58953847D01*
X183841079Y-58933330D01*
X183855329Y-58914117D01*
X183871393Y-58896393D01*
X183889117Y-58880329D01*
X183908330Y-58866079D01*
X183928847Y-58853782D01*
X183950471Y-58843554D01*
X183972993Y-58835496D01*
X183996197Y-58829684D01*
X184019858Y-58826174D01*
X184043750Y-58825000D01*
X184956250Y-58825000D01*
X184980142Y-58826174D01*
X184980142Y-58826174D01*
G37*
D15*
G04 #@! TD*
G04 #@! TO.P,R2,2*
G04 #@! TO.N,Net-(D1-Pad1)*
X184500000Y-59312500D03*
D14*
G04 #@! TO.N,4V096*
G04 #@! TO.C,R3*
G36*
X175980142Y-61951174D02*
X176003803Y-61954684D01*
X176027007Y-61960496D01*
X176049529Y-61968554D01*
X176071153Y-61978782D01*
X176091670Y-61991079D01*
X176110883Y-62005329D01*
X176128607Y-62021393D01*
X176144671Y-62039117D01*
X176158921Y-62058330D01*
X176171218Y-62078847D01*
X176181446Y-62100471D01*
X176189504Y-62122993D01*
X176195316Y-62146197D01*
X176198826Y-62169858D01*
X176200000Y-62193750D01*
X176200000Y-62681250D01*
X176198826Y-62705142D01*
X176195316Y-62728803D01*
X176189504Y-62752007D01*
X176181446Y-62774529D01*
X176171218Y-62796153D01*
X176158921Y-62816670D01*
X176144671Y-62835883D01*
X176128607Y-62853607D01*
X176110883Y-62869671D01*
X176091670Y-62883921D01*
X176071153Y-62896218D01*
X176049529Y-62906446D01*
X176027007Y-62914504D01*
X176003803Y-62920316D01*
X175980142Y-62923826D01*
X175956250Y-62925000D01*
X175043750Y-62925000D01*
X175019858Y-62923826D01*
X174996197Y-62920316D01*
X174972993Y-62914504D01*
X174950471Y-62906446D01*
X174928847Y-62896218D01*
X174908330Y-62883921D01*
X174889117Y-62869671D01*
X174871393Y-62853607D01*
X174855329Y-62835883D01*
X174841079Y-62816670D01*
X174828782Y-62796153D01*
X174818554Y-62774529D01*
X174810496Y-62752007D01*
X174804684Y-62728803D01*
X174801174Y-62705142D01*
X174800000Y-62681250D01*
X174800000Y-62193750D01*
X174801174Y-62169858D01*
X174804684Y-62146197D01*
X174810496Y-62122993D01*
X174818554Y-62100471D01*
X174828782Y-62078847D01*
X174841079Y-62058330D01*
X174855329Y-62039117D01*
X174871393Y-62021393D01*
X174889117Y-62005329D01*
X174908330Y-61991079D01*
X174928847Y-61978782D01*
X174950471Y-61968554D01*
X174972993Y-61960496D01*
X174996197Y-61954684D01*
X175019858Y-61951174D01*
X175043750Y-61950000D01*
X175956250Y-61950000D01*
X175980142Y-61951174D01*
X175980142Y-61951174D01*
G37*
D15*
G04 #@! TD*
G04 #@! TO.P,R3,2*
G04 #@! TO.N,4V096*
X175500000Y-62437500D03*
D14*
G04 #@! TO.N,Net-(R3-Pad1)*
G04 #@! TO.C,R3*
G36*
X175980142Y-60076174D02*
X176003803Y-60079684D01*
X176027007Y-60085496D01*
X176049529Y-60093554D01*
X176071153Y-60103782D01*
X176091670Y-60116079D01*
X176110883Y-60130329D01*
X176128607Y-60146393D01*
X176144671Y-60164117D01*
X176158921Y-60183330D01*
X176171218Y-60203847D01*
X176181446Y-60225471D01*
X176189504Y-60247993D01*
X176195316Y-60271197D01*
X176198826Y-60294858D01*
X176200000Y-60318750D01*
X176200000Y-60806250D01*
X176198826Y-60830142D01*
X176195316Y-60853803D01*
X176189504Y-60877007D01*
X176181446Y-60899529D01*
X176171218Y-60921153D01*
X176158921Y-60941670D01*
X176144671Y-60960883D01*
X176128607Y-60978607D01*
X176110883Y-60994671D01*
X176091670Y-61008921D01*
X176071153Y-61021218D01*
X176049529Y-61031446D01*
X176027007Y-61039504D01*
X176003803Y-61045316D01*
X175980142Y-61048826D01*
X175956250Y-61050000D01*
X175043750Y-61050000D01*
X175019858Y-61048826D01*
X174996197Y-61045316D01*
X174972993Y-61039504D01*
X174950471Y-61031446D01*
X174928847Y-61021218D01*
X174908330Y-61008921D01*
X174889117Y-60994671D01*
X174871393Y-60978607D01*
X174855329Y-60960883D01*
X174841079Y-60941670D01*
X174828782Y-60921153D01*
X174818554Y-60899529D01*
X174810496Y-60877007D01*
X174804684Y-60853803D01*
X174801174Y-60830142D01*
X174800000Y-60806250D01*
X174800000Y-60318750D01*
X174801174Y-60294858D01*
X174804684Y-60271197D01*
X174810496Y-60247993D01*
X174818554Y-60225471D01*
X174828782Y-60203847D01*
X174841079Y-60183330D01*
X174855329Y-60164117D01*
X174871393Y-60146393D01*
X174889117Y-60130329D01*
X174908330Y-60116079D01*
X174928847Y-60103782D01*
X174950471Y-60093554D01*
X174972993Y-60085496D01*
X174996197Y-60079684D01*
X175019858Y-60076174D01*
X175043750Y-60075000D01*
X175956250Y-60075000D01*
X175980142Y-60076174D01*
X175980142Y-60076174D01*
G37*
D15*
G04 #@! TD*
G04 #@! TO.P,R3,1*
G04 #@! TO.N,Net-(R3-Pad1)*
X175500000Y-60562500D03*
D14*
G04 #@! TO.N,Net-(R15-Pad2)*
G04 #@! TO.C,R4*
G36*
X181730142Y-98576174D02*
X181753803Y-98579684D01*
X181777007Y-98585496D01*
X181799529Y-98593554D01*
X181821153Y-98603782D01*
X181841670Y-98616079D01*
X181860883Y-98630329D01*
X181878607Y-98646393D01*
X181894671Y-98664117D01*
X181908921Y-98683330D01*
X181921218Y-98703847D01*
X181931446Y-98725471D01*
X181939504Y-98747993D01*
X181945316Y-98771197D01*
X181948826Y-98794858D01*
X181950000Y-98818750D01*
X181950000Y-99306250D01*
X181948826Y-99330142D01*
X181945316Y-99353803D01*
X181939504Y-99377007D01*
X181931446Y-99399529D01*
X181921218Y-99421153D01*
X181908921Y-99441670D01*
X181894671Y-99460883D01*
X181878607Y-99478607D01*
X181860883Y-99494671D01*
X181841670Y-99508921D01*
X181821153Y-99521218D01*
X181799529Y-99531446D01*
X181777007Y-99539504D01*
X181753803Y-99545316D01*
X181730142Y-99548826D01*
X181706250Y-99550000D01*
X180793750Y-99550000D01*
X180769858Y-99548826D01*
X180746197Y-99545316D01*
X180722993Y-99539504D01*
X180700471Y-99531446D01*
X180678847Y-99521218D01*
X180658330Y-99508921D01*
X180639117Y-99494671D01*
X180621393Y-99478607D01*
X180605329Y-99460883D01*
X180591079Y-99441670D01*
X180578782Y-99421153D01*
X180568554Y-99399529D01*
X180560496Y-99377007D01*
X180554684Y-99353803D01*
X180551174Y-99330142D01*
X180550000Y-99306250D01*
X180550000Y-98818750D01*
X180551174Y-98794858D01*
X180554684Y-98771197D01*
X180560496Y-98747993D01*
X180568554Y-98725471D01*
X180578782Y-98703847D01*
X180591079Y-98683330D01*
X180605329Y-98664117D01*
X180621393Y-98646393D01*
X180639117Y-98630329D01*
X180658330Y-98616079D01*
X180678847Y-98603782D01*
X180700471Y-98593554D01*
X180722993Y-98585496D01*
X180746197Y-98579684D01*
X180769858Y-98576174D01*
X180793750Y-98575000D01*
X181706250Y-98575000D01*
X181730142Y-98576174D01*
X181730142Y-98576174D01*
G37*
D15*
G04 #@! TD*
G04 #@! TO.P,R4,2*
G04 #@! TO.N,Net-(R15-Pad2)*
X181250000Y-99062500D03*
D14*
G04 #@! TO.N,Net-(R4-Pad1)*
G04 #@! TO.C,R4*
G36*
X181730142Y-100451174D02*
X181753803Y-100454684D01*
X181777007Y-100460496D01*
X181799529Y-100468554D01*
X181821153Y-100478782D01*
X181841670Y-100491079D01*
X181860883Y-100505329D01*
X181878607Y-100521393D01*
X181894671Y-100539117D01*
X181908921Y-100558330D01*
X181921218Y-100578847D01*
X181931446Y-100600471D01*
X181939504Y-100622993D01*
X181945316Y-100646197D01*
X181948826Y-100669858D01*
X181950000Y-100693750D01*
X181950000Y-101181250D01*
X181948826Y-101205142D01*
X181945316Y-101228803D01*
X181939504Y-101252007D01*
X181931446Y-101274529D01*
X181921218Y-101296153D01*
X181908921Y-101316670D01*
X181894671Y-101335883D01*
X181878607Y-101353607D01*
X181860883Y-101369671D01*
X181841670Y-101383921D01*
X181821153Y-101396218D01*
X181799529Y-101406446D01*
X181777007Y-101414504D01*
X181753803Y-101420316D01*
X181730142Y-101423826D01*
X181706250Y-101425000D01*
X180793750Y-101425000D01*
X180769858Y-101423826D01*
X180746197Y-101420316D01*
X180722993Y-101414504D01*
X180700471Y-101406446D01*
X180678847Y-101396218D01*
X180658330Y-101383921D01*
X180639117Y-101369671D01*
X180621393Y-101353607D01*
X180605329Y-101335883D01*
X180591079Y-101316670D01*
X180578782Y-101296153D01*
X180568554Y-101274529D01*
X180560496Y-101252007D01*
X180554684Y-101228803D01*
X180551174Y-101205142D01*
X180550000Y-101181250D01*
X180550000Y-100693750D01*
X180551174Y-100669858D01*
X180554684Y-100646197D01*
X180560496Y-100622993D01*
X180568554Y-100600471D01*
X180578782Y-100578847D01*
X180591079Y-100558330D01*
X180605329Y-100539117D01*
X180621393Y-100521393D01*
X180639117Y-100505329D01*
X180658330Y-100491079D01*
X180678847Y-100478782D01*
X180700471Y-100468554D01*
X180722993Y-100460496D01*
X180746197Y-100454684D01*
X180769858Y-100451174D01*
X180793750Y-100450000D01*
X181706250Y-100450000D01*
X181730142Y-100451174D01*
X181730142Y-100451174D01*
G37*
D15*
G04 #@! TD*
G04 #@! TO.P,R4,1*
G04 #@! TO.N,Net-(R4-Pad1)*
X181250000Y-100937500D03*
D14*
G04 #@! TO.N,Net-(R5-Pad2)*
G04 #@! TO.C,R5*
G36*
X175980142Y-54076174D02*
X176003803Y-54079684D01*
X176027007Y-54085496D01*
X176049529Y-54093554D01*
X176071153Y-54103782D01*
X176091670Y-54116079D01*
X176110883Y-54130329D01*
X176128607Y-54146393D01*
X176144671Y-54164117D01*
X176158921Y-54183330D01*
X176171218Y-54203847D01*
X176181446Y-54225471D01*
X176189504Y-54247993D01*
X176195316Y-54271197D01*
X176198826Y-54294858D01*
X176200000Y-54318750D01*
X176200000Y-54806250D01*
X176198826Y-54830142D01*
X176195316Y-54853803D01*
X176189504Y-54877007D01*
X176181446Y-54899529D01*
X176171218Y-54921153D01*
X176158921Y-54941670D01*
X176144671Y-54960883D01*
X176128607Y-54978607D01*
X176110883Y-54994671D01*
X176091670Y-55008921D01*
X176071153Y-55021218D01*
X176049529Y-55031446D01*
X176027007Y-55039504D01*
X176003803Y-55045316D01*
X175980142Y-55048826D01*
X175956250Y-55050000D01*
X175043750Y-55050000D01*
X175019858Y-55048826D01*
X174996197Y-55045316D01*
X174972993Y-55039504D01*
X174950471Y-55031446D01*
X174928847Y-55021218D01*
X174908330Y-55008921D01*
X174889117Y-54994671D01*
X174871393Y-54978607D01*
X174855329Y-54960883D01*
X174841079Y-54941670D01*
X174828782Y-54921153D01*
X174818554Y-54899529D01*
X174810496Y-54877007D01*
X174804684Y-54853803D01*
X174801174Y-54830142D01*
X174800000Y-54806250D01*
X174800000Y-54318750D01*
X174801174Y-54294858D01*
X174804684Y-54271197D01*
X174810496Y-54247993D01*
X174818554Y-54225471D01*
X174828782Y-54203847D01*
X174841079Y-54183330D01*
X174855329Y-54164117D01*
X174871393Y-54146393D01*
X174889117Y-54130329D01*
X174908330Y-54116079D01*
X174928847Y-54103782D01*
X174950471Y-54093554D01*
X174972993Y-54085496D01*
X174996197Y-54079684D01*
X175019858Y-54076174D01*
X175043750Y-54075000D01*
X175956250Y-54075000D01*
X175980142Y-54076174D01*
X175980142Y-54076174D01*
G37*
D15*
G04 #@! TD*
G04 #@! TO.P,R5,2*
G04 #@! TO.N,Net-(R5-Pad2)*
X175500000Y-54562500D03*
D14*
G04 #@! TO.N,Net-(R12-Pad2)*
G04 #@! TO.C,R5*
G36*
X175980142Y-55951174D02*
X176003803Y-55954684D01*
X176027007Y-55960496D01*
X176049529Y-55968554D01*
X176071153Y-55978782D01*
X176091670Y-55991079D01*
X176110883Y-56005329D01*
X176128607Y-56021393D01*
X176144671Y-56039117D01*
X176158921Y-56058330D01*
X176171218Y-56078847D01*
X176181446Y-56100471D01*
X176189504Y-56122993D01*
X176195316Y-56146197D01*
X176198826Y-56169858D01*
X176200000Y-56193750D01*
X176200000Y-56681250D01*
X176198826Y-56705142D01*
X176195316Y-56728803D01*
X176189504Y-56752007D01*
X176181446Y-56774529D01*
X176171218Y-56796153D01*
X176158921Y-56816670D01*
X176144671Y-56835883D01*
X176128607Y-56853607D01*
X176110883Y-56869671D01*
X176091670Y-56883921D01*
X176071153Y-56896218D01*
X176049529Y-56906446D01*
X176027007Y-56914504D01*
X176003803Y-56920316D01*
X175980142Y-56923826D01*
X175956250Y-56925000D01*
X175043750Y-56925000D01*
X175019858Y-56923826D01*
X174996197Y-56920316D01*
X174972993Y-56914504D01*
X174950471Y-56906446D01*
X174928847Y-56896218D01*
X174908330Y-56883921D01*
X174889117Y-56869671D01*
X174871393Y-56853607D01*
X174855329Y-56835883D01*
X174841079Y-56816670D01*
X174828782Y-56796153D01*
X174818554Y-56774529D01*
X174810496Y-56752007D01*
X174804684Y-56728803D01*
X174801174Y-56705142D01*
X174800000Y-56681250D01*
X174800000Y-56193750D01*
X174801174Y-56169858D01*
X174804684Y-56146197D01*
X174810496Y-56122993D01*
X174818554Y-56100471D01*
X174828782Y-56078847D01*
X174841079Y-56058330D01*
X174855329Y-56039117D01*
X174871393Y-56021393D01*
X174889117Y-56005329D01*
X174908330Y-55991079D01*
X174928847Y-55978782D01*
X174950471Y-55968554D01*
X174972993Y-55960496D01*
X174996197Y-55954684D01*
X175019858Y-55951174D01*
X175043750Y-55950000D01*
X175956250Y-55950000D01*
X175980142Y-55951174D01*
X175980142Y-55951174D01*
G37*
D15*
G04 #@! TD*
G04 #@! TO.P,R5,1*
G04 #@! TO.N,Net-(R12-Pad2)*
X175500000Y-56437500D03*
D14*
G04 #@! TO.N,Net-(R13-Pad2)*
G04 #@! TO.C,R6*
G36*
X162980142Y-55951174D02*
X163003803Y-55954684D01*
X163027007Y-55960496D01*
X163049529Y-55968554D01*
X163071153Y-55978782D01*
X163091670Y-55991079D01*
X163110883Y-56005329D01*
X163128607Y-56021393D01*
X163144671Y-56039117D01*
X163158921Y-56058330D01*
X163171218Y-56078847D01*
X163181446Y-56100471D01*
X163189504Y-56122993D01*
X163195316Y-56146197D01*
X163198826Y-56169858D01*
X163200000Y-56193750D01*
X163200000Y-56681250D01*
X163198826Y-56705142D01*
X163195316Y-56728803D01*
X163189504Y-56752007D01*
X163181446Y-56774529D01*
X163171218Y-56796153D01*
X163158921Y-56816670D01*
X163144671Y-56835883D01*
X163128607Y-56853607D01*
X163110883Y-56869671D01*
X163091670Y-56883921D01*
X163071153Y-56896218D01*
X163049529Y-56906446D01*
X163027007Y-56914504D01*
X163003803Y-56920316D01*
X162980142Y-56923826D01*
X162956250Y-56925000D01*
X162043750Y-56925000D01*
X162019858Y-56923826D01*
X161996197Y-56920316D01*
X161972993Y-56914504D01*
X161950471Y-56906446D01*
X161928847Y-56896218D01*
X161908330Y-56883921D01*
X161889117Y-56869671D01*
X161871393Y-56853607D01*
X161855329Y-56835883D01*
X161841079Y-56816670D01*
X161828782Y-56796153D01*
X161818554Y-56774529D01*
X161810496Y-56752007D01*
X161804684Y-56728803D01*
X161801174Y-56705142D01*
X161800000Y-56681250D01*
X161800000Y-56193750D01*
X161801174Y-56169858D01*
X161804684Y-56146197D01*
X161810496Y-56122993D01*
X161818554Y-56100471D01*
X161828782Y-56078847D01*
X161841079Y-56058330D01*
X161855329Y-56039117D01*
X161871393Y-56021393D01*
X161889117Y-56005329D01*
X161908330Y-55991079D01*
X161928847Y-55978782D01*
X161950471Y-55968554D01*
X161972993Y-55960496D01*
X161996197Y-55954684D01*
X162019858Y-55951174D01*
X162043750Y-55950000D01*
X162956250Y-55950000D01*
X162980142Y-55951174D01*
X162980142Y-55951174D01*
G37*
D15*
G04 #@! TD*
G04 #@! TO.P,R6,1*
G04 #@! TO.N,Net-(R13-Pad2)*
X162500000Y-56437500D03*
D14*
G04 #@! TO.N,Net-(R6-Pad2)*
G04 #@! TO.C,R6*
G36*
X162980142Y-54076174D02*
X163003803Y-54079684D01*
X163027007Y-54085496D01*
X163049529Y-54093554D01*
X163071153Y-54103782D01*
X163091670Y-54116079D01*
X163110883Y-54130329D01*
X163128607Y-54146393D01*
X163144671Y-54164117D01*
X163158921Y-54183330D01*
X163171218Y-54203847D01*
X163181446Y-54225471D01*
X163189504Y-54247993D01*
X163195316Y-54271197D01*
X163198826Y-54294858D01*
X163200000Y-54318750D01*
X163200000Y-54806250D01*
X163198826Y-54830142D01*
X163195316Y-54853803D01*
X163189504Y-54877007D01*
X163181446Y-54899529D01*
X163171218Y-54921153D01*
X163158921Y-54941670D01*
X163144671Y-54960883D01*
X163128607Y-54978607D01*
X163110883Y-54994671D01*
X163091670Y-55008921D01*
X163071153Y-55021218D01*
X163049529Y-55031446D01*
X163027007Y-55039504D01*
X163003803Y-55045316D01*
X162980142Y-55048826D01*
X162956250Y-55050000D01*
X162043750Y-55050000D01*
X162019858Y-55048826D01*
X161996197Y-55045316D01*
X161972993Y-55039504D01*
X161950471Y-55031446D01*
X161928847Y-55021218D01*
X161908330Y-55008921D01*
X161889117Y-54994671D01*
X161871393Y-54978607D01*
X161855329Y-54960883D01*
X161841079Y-54941670D01*
X161828782Y-54921153D01*
X161818554Y-54899529D01*
X161810496Y-54877007D01*
X161804684Y-54853803D01*
X161801174Y-54830142D01*
X161800000Y-54806250D01*
X161800000Y-54318750D01*
X161801174Y-54294858D01*
X161804684Y-54271197D01*
X161810496Y-54247993D01*
X161818554Y-54225471D01*
X161828782Y-54203847D01*
X161841079Y-54183330D01*
X161855329Y-54164117D01*
X161871393Y-54146393D01*
X161889117Y-54130329D01*
X161908330Y-54116079D01*
X161928847Y-54103782D01*
X161950471Y-54093554D01*
X161972993Y-54085496D01*
X161996197Y-54079684D01*
X162019858Y-54076174D01*
X162043750Y-54075000D01*
X162956250Y-54075000D01*
X162980142Y-54076174D01*
X162980142Y-54076174D01*
G37*
D15*
G04 #@! TD*
G04 #@! TO.P,R6,2*
G04 #@! TO.N,Net-(R6-Pad2)*
X162500000Y-54562500D03*
D14*
G04 #@! TO.N,Net-(R14-Pad2)*
G04 #@! TO.C,R7*
G36*
X162980142Y-60076174D02*
X163003803Y-60079684D01*
X163027007Y-60085496D01*
X163049529Y-60093554D01*
X163071153Y-60103782D01*
X163091670Y-60116079D01*
X163110883Y-60130329D01*
X163128607Y-60146393D01*
X163144671Y-60164117D01*
X163158921Y-60183330D01*
X163171218Y-60203847D01*
X163181446Y-60225471D01*
X163189504Y-60247993D01*
X163195316Y-60271197D01*
X163198826Y-60294858D01*
X163200000Y-60318750D01*
X163200000Y-60806250D01*
X163198826Y-60830142D01*
X163195316Y-60853803D01*
X163189504Y-60877007D01*
X163181446Y-60899529D01*
X163171218Y-60921153D01*
X163158921Y-60941670D01*
X163144671Y-60960883D01*
X163128607Y-60978607D01*
X163110883Y-60994671D01*
X163091670Y-61008921D01*
X163071153Y-61021218D01*
X163049529Y-61031446D01*
X163027007Y-61039504D01*
X163003803Y-61045316D01*
X162980142Y-61048826D01*
X162956250Y-61050000D01*
X162043750Y-61050000D01*
X162019858Y-61048826D01*
X161996197Y-61045316D01*
X161972993Y-61039504D01*
X161950471Y-61031446D01*
X161928847Y-61021218D01*
X161908330Y-61008921D01*
X161889117Y-60994671D01*
X161871393Y-60978607D01*
X161855329Y-60960883D01*
X161841079Y-60941670D01*
X161828782Y-60921153D01*
X161818554Y-60899529D01*
X161810496Y-60877007D01*
X161804684Y-60853803D01*
X161801174Y-60830142D01*
X161800000Y-60806250D01*
X161800000Y-60318750D01*
X161801174Y-60294858D01*
X161804684Y-60271197D01*
X161810496Y-60247993D01*
X161818554Y-60225471D01*
X161828782Y-60203847D01*
X161841079Y-60183330D01*
X161855329Y-60164117D01*
X161871393Y-60146393D01*
X161889117Y-60130329D01*
X161908330Y-60116079D01*
X161928847Y-60103782D01*
X161950471Y-60093554D01*
X161972993Y-60085496D01*
X161996197Y-60079684D01*
X162019858Y-60076174D01*
X162043750Y-60075000D01*
X162956250Y-60075000D01*
X162980142Y-60076174D01*
X162980142Y-60076174D01*
G37*
D15*
G04 #@! TD*
G04 #@! TO.P,R7,1*
G04 #@! TO.N,Net-(R14-Pad2)*
X162500000Y-60562500D03*
D14*
G04 #@! TO.N,Net-(R7-Pad2)*
G04 #@! TO.C,R7*
G36*
X162980142Y-61951174D02*
X163003803Y-61954684D01*
X163027007Y-61960496D01*
X163049529Y-61968554D01*
X163071153Y-61978782D01*
X163091670Y-61991079D01*
X163110883Y-62005329D01*
X163128607Y-62021393D01*
X163144671Y-62039117D01*
X163158921Y-62058330D01*
X163171218Y-62078847D01*
X163181446Y-62100471D01*
X163189504Y-62122993D01*
X163195316Y-62146197D01*
X163198826Y-62169858D01*
X163200000Y-62193750D01*
X163200000Y-62681250D01*
X163198826Y-62705142D01*
X163195316Y-62728803D01*
X163189504Y-62752007D01*
X163181446Y-62774529D01*
X163171218Y-62796153D01*
X163158921Y-62816670D01*
X163144671Y-62835883D01*
X163128607Y-62853607D01*
X163110883Y-62869671D01*
X163091670Y-62883921D01*
X163071153Y-62896218D01*
X163049529Y-62906446D01*
X163027007Y-62914504D01*
X163003803Y-62920316D01*
X162980142Y-62923826D01*
X162956250Y-62925000D01*
X162043750Y-62925000D01*
X162019858Y-62923826D01*
X161996197Y-62920316D01*
X161972993Y-62914504D01*
X161950471Y-62906446D01*
X161928847Y-62896218D01*
X161908330Y-62883921D01*
X161889117Y-62869671D01*
X161871393Y-62853607D01*
X161855329Y-62835883D01*
X161841079Y-62816670D01*
X161828782Y-62796153D01*
X161818554Y-62774529D01*
X161810496Y-62752007D01*
X161804684Y-62728803D01*
X161801174Y-62705142D01*
X161800000Y-62681250D01*
X161800000Y-62193750D01*
X161801174Y-62169858D01*
X161804684Y-62146197D01*
X161810496Y-62122993D01*
X161818554Y-62100471D01*
X161828782Y-62078847D01*
X161841079Y-62058330D01*
X161855329Y-62039117D01*
X161871393Y-62021393D01*
X161889117Y-62005329D01*
X161908330Y-61991079D01*
X161928847Y-61978782D01*
X161950471Y-61968554D01*
X161972993Y-61960496D01*
X161996197Y-61954684D01*
X162019858Y-61951174D01*
X162043750Y-61950000D01*
X162956250Y-61950000D01*
X162980142Y-61951174D01*
X162980142Y-61951174D01*
G37*
D15*
G04 #@! TD*
G04 #@! TO.P,R7,2*
G04 #@! TO.N,Net-(R7-Pad2)*
X162500000Y-62437500D03*
D14*
G04 #@! TO.N,Net-(R16-Pad2)*
G04 #@! TO.C,R8*
G36*
X181730142Y-94451174D02*
X181753803Y-94454684D01*
X181777007Y-94460496D01*
X181799529Y-94468554D01*
X181821153Y-94478782D01*
X181841670Y-94491079D01*
X181860883Y-94505329D01*
X181878607Y-94521393D01*
X181894671Y-94539117D01*
X181908921Y-94558330D01*
X181921218Y-94578847D01*
X181931446Y-94600471D01*
X181939504Y-94622993D01*
X181945316Y-94646197D01*
X181948826Y-94669858D01*
X181950000Y-94693750D01*
X181950000Y-95181250D01*
X181948826Y-95205142D01*
X181945316Y-95228803D01*
X181939504Y-95252007D01*
X181931446Y-95274529D01*
X181921218Y-95296153D01*
X181908921Y-95316670D01*
X181894671Y-95335883D01*
X181878607Y-95353607D01*
X181860883Y-95369671D01*
X181841670Y-95383921D01*
X181821153Y-95396218D01*
X181799529Y-95406446D01*
X181777007Y-95414504D01*
X181753803Y-95420316D01*
X181730142Y-95423826D01*
X181706250Y-95425000D01*
X180793750Y-95425000D01*
X180769858Y-95423826D01*
X180746197Y-95420316D01*
X180722993Y-95414504D01*
X180700471Y-95406446D01*
X180678847Y-95396218D01*
X180658330Y-95383921D01*
X180639117Y-95369671D01*
X180621393Y-95353607D01*
X180605329Y-95335883D01*
X180591079Y-95316670D01*
X180578782Y-95296153D01*
X180568554Y-95274529D01*
X180560496Y-95252007D01*
X180554684Y-95228803D01*
X180551174Y-95205142D01*
X180550000Y-95181250D01*
X180550000Y-94693750D01*
X180551174Y-94669858D01*
X180554684Y-94646197D01*
X180560496Y-94622993D01*
X180568554Y-94600471D01*
X180578782Y-94578847D01*
X180591079Y-94558330D01*
X180605329Y-94539117D01*
X180621393Y-94521393D01*
X180639117Y-94505329D01*
X180658330Y-94491079D01*
X180678847Y-94478782D01*
X180700471Y-94468554D01*
X180722993Y-94460496D01*
X180746197Y-94454684D01*
X180769858Y-94451174D01*
X180793750Y-94450000D01*
X181706250Y-94450000D01*
X181730142Y-94451174D01*
X181730142Y-94451174D01*
G37*
D15*
G04 #@! TD*
G04 #@! TO.P,R8,1*
G04 #@! TO.N,Net-(R16-Pad2)*
X181250000Y-94937500D03*
D14*
G04 #@! TO.N,Net-(R8-Pad2)*
G04 #@! TO.C,R8*
G36*
X181730142Y-92576174D02*
X181753803Y-92579684D01*
X181777007Y-92585496D01*
X181799529Y-92593554D01*
X181821153Y-92603782D01*
X181841670Y-92616079D01*
X181860883Y-92630329D01*
X181878607Y-92646393D01*
X181894671Y-92664117D01*
X181908921Y-92683330D01*
X181921218Y-92703847D01*
X181931446Y-92725471D01*
X181939504Y-92747993D01*
X181945316Y-92771197D01*
X181948826Y-92794858D01*
X181950000Y-92818750D01*
X181950000Y-93306250D01*
X181948826Y-93330142D01*
X181945316Y-93353803D01*
X181939504Y-93377007D01*
X181931446Y-93399529D01*
X181921218Y-93421153D01*
X181908921Y-93441670D01*
X181894671Y-93460883D01*
X181878607Y-93478607D01*
X181860883Y-93494671D01*
X181841670Y-93508921D01*
X181821153Y-93521218D01*
X181799529Y-93531446D01*
X181777007Y-93539504D01*
X181753803Y-93545316D01*
X181730142Y-93548826D01*
X181706250Y-93550000D01*
X180793750Y-93550000D01*
X180769858Y-93548826D01*
X180746197Y-93545316D01*
X180722993Y-93539504D01*
X180700471Y-93531446D01*
X180678847Y-93521218D01*
X180658330Y-93508921D01*
X180639117Y-93494671D01*
X180621393Y-93478607D01*
X180605329Y-93460883D01*
X180591079Y-93441670D01*
X180578782Y-93421153D01*
X180568554Y-93399529D01*
X180560496Y-93377007D01*
X180554684Y-93353803D01*
X180551174Y-93330142D01*
X180550000Y-93306250D01*
X180550000Y-92818750D01*
X180551174Y-92794858D01*
X180554684Y-92771197D01*
X180560496Y-92747993D01*
X180568554Y-92725471D01*
X180578782Y-92703847D01*
X180591079Y-92683330D01*
X180605329Y-92664117D01*
X180621393Y-92646393D01*
X180639117Y-92630329D01*
X180658330Y-92616079D01*
X180678847Y-92603782D01*
X180700471Y-92593554D01*
X180722993Y-92585496D01*
X180746197Y-92579684D01*
X180769858Y-92576174D01*
X180793750Y-92575000D01*
X181706250Y-92575000D01*
X181730142Y-92576174D01*
X181730142Y-92576174D01*
G37*
D15*
G04 #@! TD*
G04 #@! TO.P,R8,2*
G04 #@! TO.N,Net-(R8-Pad2)*
X181250000Y-93062500D03*
D14*
G04 #@! TO.N,Net-(R11-Pad2)*
G04 #@! TO.C,R9*
G36*
X169230142Y-98576174D02*
X169253803Y-98579684D01*
X169277007Y-98585496D01*
X169299529Y-98593554D01*
X169321153Y-98603782D01*
X169341670Y-98616079D01*
X169360883Y-98630329D01*
X169378607Y-98646393D01*
X169394671Y-98664117D01*
X169408921Y-98683330D01*
X169421218Y-98703847D01*
X169431446Y-98725471D01*
X169439504Y-98747993D01*
X169445316Y-98771197D01*
X169448826Y-98794858D01*
X169450000Y-98818750D01*
X169450000Y-99306250D01*
X169448826Y-99330142D01*
X169445316Y-99353803D01*
X169439504Y-99377007D01*
X169431446Y-99399529D01*
X169421218Y-99421153D01*
X169408921Y-99441670D01*
X169394671Y-99460883D01*
X169378607Y-99478607D01*
X169360883Y-99494671D01*
X169341670Y-99508921D01*
X169321153Y-99521218D01*
X169299529Y-99531446D01*
X169277007Y-99539504D01*
X169253803Y-99545316D01*
X169230142Y-99548826D01*
X169206250Y-99550000D01*
X168293750Y-99550000D01*
X168269858Y-99548826D01*
X168246197Y-99545316D01*
X168222993Y-99539504D01*
X168200471Y-99531446D01*
X168178847Y-99521218D01*
X168158330Y-99508921D01*
X168139117Y-99494671D01*
X168121393Y-99478607D01*
X168105329Y-99460883D01*
X168091079Y-99441670D01*
X168078782Y-99421153D01*
X168068554Y-99399529D01*
X168060496Y-99377007D01*
X168054684Y-99353803D01*
X168051174Y-99330142D01*
X168050000Y-99306250D01*
X168050000Y-98818750D01*
X168051174Y-98794858D01*
X168054684Y-98771197D01*
X168060496Y-98747993D01*
X168068554Y-98725471D01*
X168078782Y-98703847D01*
X168091079Y-98683330D01*
X168105329Y-98664117D01*
X168121393Y-98646393D01*
X168139117Y-98630329D01*
X168158330Y-98616079D01*
X168178847Y-98603782D01*
X168200471Y-98593554D01*
X168222993Y-98585496D01*
X168246197Y-98579684D01*
X168269858Y-98576174D01*
X168293750Y-98575000D01*
X169206250Y-98575000D01*
X169230142Y-98576174D01*
X169230142Y-98576174D01*
G37*
D15*
G04 #@! TD*
G04 #@! TO.P,R9,2*
G04 #@! TO.N,Net-(R11-Pad2)*
X168750000Y-99062500D03*
D14*
G04 #@! TO.N,Net-(R9-Pad1)*
G04 #@! TO.C,R9*
G36*
X169230142Y-100451174D02*
X169253803Y-100454684D01*
X169277007Y-100460496D01*
X169299529Y-100468554D01*
X169321153Y-100478782D01*
X169341670Y-100491079D01*
X169360883Y-100505329D01*
X169378607Y-100521393D01*
X169394671Y-100539117D01*
X169408921Y-100558330D01*
X169421218Y-100578847D01*
X169431446Y-100600471D01*
X169439504Y-100622993D01*
X169445316Y-100646197D01*
X169448826Y-100669858D01*
X169450000Y-100693750D01*
X169450000Y-101181250D01*
X169448826Y-101205142D01*
X169445316Y-101228803D01*
X169439504Y-101252007D01*
X169431446Y-101274529D01*
X169421218Y-101296153D01*
X169408921Y-101316670D01*
X169394671Y-101335883D01*
X169378607Y-101353607D01*
X169360883Y-101369671D01*
X169341670Y-101383921D01*
X169321153Y-101396218D01*
X169299529Y-101406446D01*
X169277007Y-101414504D01*
X169253803Y-101420316D01*
X169230142Y-101423826D01*
X169206250Y-101425000D01*
X168293750Y-101425000D01*
X168269858Y-101423826D01*
X168246197Y-101420316D01*
X168222993Y-101414504D01*
X168200471Y-101406446D01*
X168178847Y-101396218D01*
X168158330Y-101383921D01*
X168139117Y-101369671D01*
X168121393Y-101353607D01*
X168105329Y-101335883D01*
X168091079Y-101316670D01*
X168078782Y-101296153D01*
X168068554Y-101274529D01*
X168060496Y-101252007D01*
X168054684Y-101228803D01*
X168051174Y-101205142D01*
X168050000Y-101181250D01*
X168050000Y-100693750D01*
X168051174Y-100669858D01*
X168054684Y-100646197D01*
X168060496Y-100622993D01*
X168068554Y-100600471D01*
X168078782Y-100578847D01*
X168091079Y-100558330D01*
X168105329Y-100539117D01*
X168121393Y-100521393D01*
X168139117Y-100505329D01*
X168158330Y-100491079D01*
X168178847Y-100478782D01*
X168200471Y-100468554D01*
X168222993Y-100460496D01*
X168246197Y-100454684D01*
X168269858Y-100451174D01*
X168293750Y-100450000D01*
X169206250Y-100450000D01*
X169230142Y-100451174D01*
X169230142Y-100451174D01*
G37*
D15*
G04 #@! TD*
G04 #@! TO.P,R9,1*
G04 #@! TO.N,Net-(R9-Pad1)*
X168750000Y-100937500D03*
D14*
G04 #@! TO.N,Net-(R10-Pad1)*
G04 #@! TO.C,R10*
G36*
X169230142Y-94451174D02*
X169253803Y-94454684D01*
X169277007Y-94460496D01*
X169299529Y-94468554D01*
X169321153Y-94478782D01*
X169341670Y-94491079D01*
X169360883Y-94505329D01*
X169378607Y-94521393D01*
X169394671Y-94539117D01*
X169408921Y-94558330D01*
X169421218Y-94578847D01*
X169431446Y-94600471D01*
X169439504Y-94622993D01*
X169445316Y-94646197D01*
X169448826Y-94669858D01*
X169450000Y-94693750D01*
X169450000Y-95181250D01*
X169448826Y-95205142D01*
X169445316Y-95228803D01*
X169439504Y-95252007D01*
X169431446Y-95274529D01*
X169421218Y-95296153D01*
X169408921Y-95316670D01*
X169394671Y-95335883D01*
X169378607Y-95353607D01*
X169360883Y-95369671D01*
X169341670Y-95383921D01*
X169321153Y-95396218D01*
X169299529Y-95406446D01*
X169277007Y-95414504D01*
X169253803Y-95420316D01*
X169230142Y-95423826D01*
X169206250Y-95425000D01*
X168293750Y-95425000D01*
X168269858Y-95423826D01*
X168246197Y-95420316D01*
X168222993Y-95414504D01*
X168200471Y-95406446D01*
X168178847Y-95396218D01*
X168158330Y-95383921D01*
X168139117Y-95369671D01*
X168121393Y-95353607D01*
X168105329Y-95335883D01*
X168091079Y-95316670D01*
X168078782Y-95296153D01*
X168068554Y-95274529D01*
X168060496Y-95252007D01*
X168054684Y-95228803D01*
X168051174Y-95205142D01*
X168050000Y-95181250D01*
X168050000Y-94693750D01*
X168051174Y-94669858D01*
X168054684Y-94646197D01*
X168060496Y-94622993D01*
X168068554Y-94600471D01*
X168078782Y-94578847D01*
X168091079Y-94558330D01*
X168105329Y-94539117D01*
X168121393Y-94521393D01*
X168139117Y-94505329D01*
X168158330Y-94491079D01*
X168178847Y-94478782D01*
X168200471Y-94468554D01*
X168222993Y-94460496D01*
X168246197Y-94454684D01*
X168269858Y-94451174D01*
X168293750Y-94450000D01*
X169206250Y-94450000D01*
X169230142Y-94451174D01*
X169230142Y-94451174D01*
G37*
D15*
G04 #@! TD*
G04 #@! TO.P,R10,1*
G04 #@! TO.N,Net-(R10-Pad1)*
X168750000Y-94937500D03*
D14*
G04 #@! TO.N,Net-(R10-Pad2)*
G04 #@! TO.C,R10*
G36*
X169230142Y-92576174D02*
X169253803Y-92579684D01*
X169277007Y-92585496D01*
X169299529Y-92593554D01*
X169321153Y-92603782D01*
X169341670Y-92616079D01*
X169360883Y-92630329D01*
X169378607Y-92646393D01*
X169394671Y-92664117D01*
X169408921Y-92683330D01*
X169421218Y-92703847D01*
X169431446Y-92725471D01*
X169439504Y-92747993D01*
X169445316Y-92771197D01*
X169448826Y-92794858D01*
X169450000Y-92818750D01*
X169450000Y-93306250D01*
X169448826Y-93330142D01*
X169445316Y-93353803D01*
X169439504Y-93377007D01*
X169431446Y-93399529D01*
X169421218Y-93421153D01*
X169408921Y-93441670D01*
X169394671Y-93460883D01*
X169378607Y-93478607D01*
X169360883Y-93494671D01*
X169341670Y-93508921D01*
X169321153Y-93521218D01*
X169299529Y-93531446D01*
X169277007Y-93539504D01*
X169253803Y-93545316D01*
X169230142Y-93548826D01*
X169206250Y-93550000D01*
X168293750Y-93550000D01*
X168269858Y-93548826D01*
X168246197Y-93545316D01*
X168222993Y-93539504D01*
X168200471Y-93531446D01*
X168178847Y-93521218D01*
X168158330Y-93508921D01*
X168139117Y-93494671D01*
X168121393Y-93478607D01*
X168105329Y-93460883D01*
X168091079Y-93441670D01*
X168078782Y-93421153D01*
X168068554Y-93399529D01*
X168060496Y-93377007D01*
X168054684Y-93353803D01*
X168051174Y-93330142D01*
X168050000Y-93306250D01*
X168050000Y-92818750D01*
X168051174Y-92794858D01*
X168054684Y-92771197D01*
X168060496Y-92747993D01*
X168068554Y-92725471D01*
X168078782Y-92703847D01*
X168091079Y-92683330D01*
X168105329Y-92664117D01*
X168121393Y-92646393D01*
X168139117Y-92630329D01*
X168158330Y-92616079D01*
X168178847Y-92603782D01*
X168200471Y-92593554D01*
X168222993Y-92585496D01*
X168246197Y-92579684D01*
X168269858Y-92576174D01*
X168293750Y-92575000D01*
X169206250Y-92575000D01*
X169230142Y-92576174D01*
X169230142Y-92576174D01*
G37*
D15*
G04 #@! TD*
G04 #@! TO.P,R10,2*
G04 #@! TO.N,Net-(R10-Pad2)*
X168750000Y-93062500D03*
D14*
G04 #@! TO.N,Net-(J1-Pad2)*
G04 #@! TO.C,R11*
G36*
X151330142Y-58301174D02*
X151353803Y-58304684D01*
X151377007Y-58310496D01*
X151399529Y-58318554D01*
X151421153Y-58328782D01*
X151441670Y-58341079D01*
X151460883Y-58355329D01*
X151478607Y-58371393D01*
X151494671Y-58389117D01*
X151508921Y-58408330D01*
X151521218Y-58428847D01*
X151531446Y-58450471D01*
X151539504Y-58472993D01*
X151545316Y-58496197D01*
X151548826Y-58519858D01*
X151550000Y-58543750D01*
X151550000Y-59456250D01*
X151548826Y-59480142D01*
X151545316Y-59503803D01*
X151539504Y-59527007D01*
X151531446Y-59549529D01*
X151521218Y-59571153D01*
X151508921Y-59591670D01*
X151494671Y-59610883D01*
X151478607Y-59628607D01*
X151460883Y-59644671D01*
X151441670Y-59658921D01*
X151421153Y-59671218D01*
X151399529Y-59681446D01*
X151377007Y-59689504D01*
X151353803Y-59695316D01*
X151330142Y-59698826D01*
X151306250Y-59700000D01*
X150818750Y-59700000D01*
X150794858Y-59698826D01*
X150771197Y-59695316D01*
X150747993Y-59689504D01*
X150725471Y-59681446D01*
X150703847Y-59671218D01*
X150683330Y-59658921D01*
X150664117Y-59644671D01*
X150646393Y-59628607D01*
X150630329Y-59610883D01*
X150616079Y-59591670D01*
X150603782Y-59571153D01*
X150593554Y-59549529D01*
X150585496Y-59527007D01*
X150579684Y-59503803D01*
X150576174Y-59480142D01*
X150575000Y-59456250D01*
X150575000Y-58543750D01*
X150576174Y-58519858D01*
X150579684Y-58496197D01*
X150585496Y-58472993D01*
X150593554Y-58450471D01*
X150603782Y-58428847D01*
X150616079Y-58408330D01*
X150630329Y-58389117D01*
X150646393Y-58371393D01*
X150664117Y-58355329D01*
X150683330Y-58341079D01*
X150703847Y-58328782D01*
X150725471Y-58318554D01*
X150747993Y-58310496D01*
X150771197Y-58304684D01*
X150794858Y-58301174D01*
X150818750Y-58300000D01*
X151306250Y-58300000D01*
X151330142Y-58301174D01*
X151330142Y-58301174D01*
G37*
D15*
G04 #@! TD*
G04 #@! TO.P,R11,1*
G04 #@! TO.N,Net-(J1-Pad2)*
X151062500Y-59000000D03*
D14*
G04 #@! TO.N,Net-(R11-Pad2)*
G04 #@! TO.C,R11*
G36*
X153205142Y-58301174D02*
X153228803Y-58304684D01*
X153252007Y-58310496D01*
X153274529Y-58318554D01*
X153296153Y-58328782D01*
X153316670Y-58341079D01*
X153335883Y-58355329D01*
X153353607Y-58371393D01*
X153369671Y-58389117D01*
X153383921Y-58408330D01*
X153396218Y-58428847D01*
X153406446Y-58450471D01*
X153414504Y-58472993D01*
X153420316Y-58496197D01*
X153423826Y-58519858D01*
X153425000Y-58543750D01*
X153425000Y-59456250D01*
X153423826Y-59480142D01*
X153420316Y-59503803D01*
X153414504Y-59527007D01*
X153406446Y-59549529D01*
X153396218Y-59571153D01*
X153383921Y-59591670D01*
X153369671Y-59610883D01*
X153353607Y-59628607D01*
X153335883Y-59644671D01*
X153316670Y-59658921D01*
X153296153Y-59671218D01*
X153274529Y-59681446D01*
X153252007Y-59689504D01*
X153228803Y-59695316D01*
X153205142Y-59698826D01*
X153181250Y-59700000D01*
X152693750Y-59700000D01*
X152669858Y-59698826D01*
X152646197Y-59695316D01*
X152622993Y-59689504D01*
X152600471Y-59681446D01*
X152578847Y-59671218D01*
X152558330Y-59658921D01*
X152539117Y-59644671D01*
X152521393Y-59628607D01*
X152505329Y-59610883D01*
X152491079Y-59591670D01*
X152478782Y-59571153D01*
X152468554Y-59549529D01*
X152460496Y-59527007D01*
X152454684Y-59503803D01*
X152451174Y-59480142D01*
X152450000Y-59456250D01*
X152450000Y-58543750D01*
X152451174Y-58519858D01*
X152454684Y-58496197D01*
X152460496Y-58472993D01*
X152468554Y-58450471D01*
X152478782Y-58428847D01*
X152491079Y-58408330D01*
X152505329Y-58389117D01*
X152521393Y-58371393D01*
X152539117Y-58355329D01*
X152558330Y-58341079D01*
X152578847Y-58328782D01*
X152600471Y-58318554D01*
X152622993Y-58310496D01*
X152646197Y-58304684D01*
X152669858Y-58301174D01*
X152693750Y-58300000D01*
X153181250Y-58300000D01*
X153205142Y-58301174D01*
X153205142Y-58301174D01*
G37*
D15*
G04 #@! TD*
G04 #@! TO.P,R11,2*
G04 #@! TO.N,Net-(R11-Pad2)*
X152937500Y-59000000D03*
D14*
G04 #@! TO.N,Net-(J1-Pad4)*
G04 #@! TO.C,R12*
G36*
X151330142Y-65301174D02*
X151353803Y-65304684D01*
X151377007Y-65310496D01*
X151399529Y-65318554D01*
X151421153Y-65328782D01*
X151441670Y-65341079D01*
X151460883Y-65355329D01*
X151478607Y-65371393D01*
X151494671Y-65389117D01*
X151508921Y-65408330D01*
X151521218Y-65428847D01*
X151531446Y-65450471D01*
X151539504Y-65472993D01*
X151545316Y-65496197D01*
X151548826Y-65519858D01*
X151550000Y-65543750D01*
X151550000Y-66456250D01*
X151548826Y-66480142D01*
X151545316Y-66503803D01*
X151539504Y-66527007D01*
X151531446Y-66549529D01*
X151521218Y-66571153D01*
X151508921Y-66591670D01*
X151494671Y-66610883D01*
X151478607Y-66628607D01*
X151460883Y-66644671D01*
X151441670Y-66658921D01*
X151421153Y-66671218D01*
X151399529Y-66681446D01*
X151377007Y-66689504D01*
X151353803Y-66695316D01*
X151330142Y-66698826D01*
X151306250Y-66700000D01*
X150818750Y-66700000D01*
X150794858Y-66698826D01*
X150771197Y-66695316D01*
X150747993Y-66689504D01*
X150725471Y-66681446D01*
X150703847Y-66671218D01*
X150683330Y-66658921D01*
X150664117Y-66644671D01*
X150646393Y-66628607D01*
X150630329Y-66610883D01*
X150616079Y-66591670D01*
X150603782Y-66571153D01*
X150593554Y-66549529D01*
X150585496Y-66527007D01*
X150579684Y-66503803D01*
X150576174Y-66480142D01*
X150575000Y-66456250D01*
X150575000Y-65543750D01*
X150576174Y-65519858D01*
X150579684Y-65496197D01*
X150585496Y-65472993D01*
X150593554Y-65450471D01*
X150603782Y-65428847D01*
X150616079Y-65408330D01*
X150630329Y-65389117D01*
X150646393Y-65371393D01*
X150664117Y-65355329D01*
X150683330Y-65341079D01*
X150703847Y-65328782D01*
X150725471Y-65318554D01*
X150747993Y-65310496D01*
X150771197Y-65304684D01*
X150794858Y-65301174D01*
X150818750Y-65300000D01*
X151306250Y-65300000D01*
X151330142Y-65301174D01*
X151330142Y-65301174D01*
G37*
D15*
G04 #@! TD*
G04 #@! TO.P,R12,1*
G04 #@! TO.N,Net-(J1-Pad4)*
X151062500Y-66000000D03*
D14*
G04 #@! TO.N,Net-(R12-Pad2)*
G04 #@! TO.C,R12*
G36*
X153205142Y-65301174D02*
X153228803Y-65304684D01*
X153252007Y-65310496D01*
X153274529Y-65318554D01*
X153296153Y-65328782D01*
X153316670Y-65341079D01*
X153335883Y-65355329D01*
X153353607Y-65371393D01*
X153369671Y-65389117D01*
X153383921Y-65408330D01*
X153396218Y-65428847D01*
X153406446Y-65450471D01*
X153414504Y-65472993D01*
X153420316Y-65496197D01*
X153423826Y-65519858D01*
X153425000Y-65543750D01*
X153425000Y-66456250D01*
X153423826Y-66480142D01*
X153420316Y-66503803D01*
X153414504Y-66527007D01*
X153406446Y-66549529D01*
X153396218Y-66571153D01*
X153383921Y-66591670D01*
X153369671Y-66610883D01*
X153353607Y-66628607D01*
X153335883Y-66644671D01*
X153316670Y-66658921D01*
X153296153Y-66671218D01*
X153274529Y-66681446D01*
X153252007Y-66689504D01*
X153228803Y-66695316D01*
X153205142Y-66698826D01*
X153181250Y-66700000D01*
X152693750Y-66700000D01*
X152669858Y-66698826D01*
X152646197Y-66695316D01*
X152622993Y-66689504D01*
X152600471Y-66681446D01*
X152578847Y-66671218D01*
X152558330Y-66658921D01*
X152539117Y-66644671D01*
X152521393Y-66628607D01*
X152505329Y-66610883D01*
X152491079Y-66591670D01*
X152478782Y-66571153D01*
X152468554Y-66549529D01*
X152460496Y-66527007D01*
X152454684Y-66503803D01*
X152451174Y-66480142D01*
X152450000Y-66456250D01*
X152450000Y-65543750D01*
X152451174Y-65519858D01*
X152454684Y-65496197D01*
X152460496Y-65472993D01*
X152468554Y-65450471D01*
X152478782Y-65428847D01*
X152491079Y-65408330D01*
X152505329Y-65389117D01*
X152521393Y-65371393D01*
X152539117Y-65355329D01*
X152558330Y-65341079D01*
X152578847Y-65328782D01*
X152600471Y-65318554D01*
X152622993Y-65310496D01*
X152646197Y-65304684D01*
X152669858Y-65301174D01*
X152693750Y-65300000D01*
X153181250Y-65300000D01*
X153205142Y-65301174D01*
X153205142Y-65301174D01*
G37*
D15*
G04 #@! TD*
G04 #@! TO.P,R12,2*
G04 #@! TO.N,Net-(R12-Pad2)*
X152937500Y-66000000D03*
D14*
G04 #@! TO.N,Net-(R13-Pad2)*
G04 #@! TO.C,R13*
G36*
X153205142Y-72301174D02*
X153228803Y-72304684D01*
X153252007Y-72310496D01*
X153274529Y-72318554D01*
X153296153Y-72328782D01*
X153316670Y-72341079D01*
X153335883Y-72355329D01*
X153353607Y-72371393D01*
X153369671Y-72389117D01*
X153383921Y-72408330D01*
X153396218Y-72428847D01*
X153406446Y-72450471D01*
X153414504Y-72472993D01*
X153420316Y-72496197D01*
X153423826Y-72519858D01*
X153425000Y-72543750D01*
X153425000Y-73456250D01*
X153423826Y-73480142D01*
X153420316Y-73503803D01*
X153414504Y-73527007D01*
X153406446Y-73549529D01*
X153396218Y-73571153D01*
X153383921Y-73591670D01*
X153369671Y-73610883D01*
X153353607Y-73628607D01*
X153335883Y-73644671D01*
X153316670Y-73658921D01*
X153296153Y-73671218D01*
X153274529Y-73681446D01*
X153252007Y-73689504D01*
X153228803Y-73695316D01*
X153205142Y-73698826D01*
X153181250Y-73700000D01*
X152693750Y-73700000D01*
X152669858Y-73698826D01*
X152646197Y-73695316D01*
X152622993Y-73689504D01*
X152600471Y-73681446D01*
X152578847Y-73671218D01*
X152558330Y-73658921D01*
X152539117Y-73644671D01*
X152521393Y-73628607D01*
X152505329Y-73610883D01*
X152491079Y-73591670D01*
X152478782Y-73571153D01*
X152468554Y-73549529D01*
X152460496Y-73527007D01*
X152454684Y-73503803D01*
X152451174Y-73480142D01*
X152450000Y-73456250D01*
X152450000Y-72543750D01*
X152451174Y-72519858D01*
X152454684Y-72496197D01*
X152460496Y-72472993D01*
X152468554Y-72450471D01*
X152478782Y-72428847D01*
X152491079Y-72408330D01*
X152505329Y-72389117D01*
X152521393Y-72371393D01*
X152539117Y-72355329D01*
X152558330Y-72341079D01*
X152578847Y-72328782D01*
X152600471Y-72318554D01*
X152622993Y-72310496D01*
X152646197Y-72304684D01*
X152669858Y-72301174D01*
X152693750Y-72300000D01*
X153181250Y-72300000D01*
X153205142Y-72301174D01*
X153205142Y-72301174D01*
G37*
D15*
G04 #@! TD*
G04 #@! TO.P,R13,2*
G04 #@! TO.N,Net-(R13-Pad2)*
X152937500Y-73000000D03*
D14*
G04 #@! TO.N,Net-(J1-Pad6)*
G04 #@! TO.C,R13*
G36*
X151330142Y-72301174D02*
X151353803Y-72304684D01*
X151377007Y-72310496D01*
X151399529Y-72318554D01*
X151421153Y-72328782D01*
X151441670Y-72341079D01*
X151460883Y-72355329D01*
X151478607Y-72371393D01*
X151494671Y-72389117D01*
X151508921Y-72408330D01*
X151521218Y-72428847D01*
X151531446Y-72450471D01*
X151539504Y-72472993D01*
X151545316Y-72496197D01*
X151548826Y-72519858D01*
X151550000Y-72543750D01*
X151550000Y-73456250D01*
X151548826Y-73480142D01*
X151545316Y-73503803D01*
X151539504Y-73527007D01*
X151531446Y-73549529D01*
X151521218Y-73571153D01*
X151508921Y-73591670D01*
X151494671Y-73610883D01*
X151478607Y-73628607D01*
X151460883Y-73644671D01*
X151441670Y-73658921D01*
X151421153Y-73671218D01*
X151399529Y-73681446D01*
X151377007Y-73689504D01*
X151353803Y-73695316D01*
X151330142Y-73698826D01*
X151306250Y-73700000D01*
X150818750Y-73700000D01*
X150794858Y-73698826D01*
X150771197Y-73695316D01*
X150747993Y-73689504D01*
X150725471Y-73681446D01*
X150703847Y-73671218D01*
X150683330Y-73658921D01*
X150664117Y-73644671D01*
X150646393Y-73628607D01*
X150630329Y-73610883D01*
X150616079Y-73591670D01*
X150603782Y-73571153D01*
X150593554Y-73549529D01*
X150585496Y-73527007D01*
X150579684Y-73503803D01*
X150576174Y-73480142D01*
X150575000Y-73456250D01*
X150575000Y-72543750D01*
X150576174Y-72519858D01*
X150579684Y-72496197D01*
X150585496Y-72472993D01*
X150593554Y-72450471D01*
X150603782Y-72428847D01*
X150616079Y-72408330D01*
X150630329Y-72389117D01*
X150646393Y-72371393D01*
X150664117Y-72355329D01*
X150683330Y-72341079D01*
X150703847Y-72328782D01*
X150725471Y-72318554D01*
X150747993Y-72310496D01*
X150771197Y-72304684D01*
X150794858Y-72301174D01*
X150818750Y-72300000D01*
X151306250Y-72300000D01*
X151330142Y-72301174D01*
X151330142Y-72301174D01*
G37*
D15*
G04 #@! TD*
G04 #@! TO.P,R13,1*
G04 #@! TO.N,Net-(J1-Pad6)*
X151062500Y-73000000D03*
D14*
G04 #@! TO.N,Net-(R14-Pad2)*
G04 #@! TO.C,R14*
G36*
X160205142Y-66801174D02*
X160228803Y-66804684D01*
X160252007Y-66810496D01*
X160274529Y-66818554D01*
X160296153Y-66828782D01*
X160316670Y-66841079D01*
X160335883Y-66855329D01*
X160353607Y-66871393D01*
X160369671Y-66889117D01*
X160383921Y-66908330D01*
X160396218Y-66928847D01*
X160406446Y-66950471D01*
X160414504Y-66972993D01*
X160420316Y-66996197D01*
X160423826Y-67019858D01*
X160425000Y-67043750D01*
X160425000Y-67956250D01*
X160423826Y-67980142D01*
X160420316Y-68003803D01*
X160414504Y-68027007D01*
X160406446Y-68049529D01*
X160396218Y-68071153D01*
X160383921Y-68091670D01*
X160369671Y-68110883D01*
X160353607Y-68128607D01*
X160335883Y-68144671D01*
X160316670Y-68158921D01*
X160296153Y-68171218D01*
X160274529Y-68181446D01*
X160252007Y-68189504D01*
X160228803Y-68195316D01*
X160205142Y-68198826D01*
X160181250Y-68200000D01*
X159693750Y-68200000D01*
X159669858Y-68198826D01*
X159646197Y-68195316D01*
X159622993Y-68189504D01*
X159600471Y-68181446D01*
X159578847Y-68171218D01*
X159558330Y-68158921D01*
X159539117Y-68144671D01*
X159521393Y-68128607D01*
X159505329Y-68110883D01*
X159491079Y-68091670D01*
X159478782Y-68071153D01*
X159468554Y-68049529D01*
X159460496Y-68027007D01*
X159454684Y-68003803D01*
X159451174Y-67980142D01*
X159450000Y-67956250D01*
X159450000Y-67043750D01*
X159451174Y-67019858D01*
X159454684Y-66996197D01*
X159460496Y-66972993D01*
X159468554Y-66950471D01*
X159478782Y-66928847D01*
X159491079Y-66908330D01*
X159505329Y-66889117D01*
X159521393Y-66871393D01*
X159539117Y-66855329D01*
X159558330Y-66841079D01*
X159578847Y-66828782D01*
X159600471Y-66818554D01*
X159622993Y-66810496D01*
X159646197Y-66804684D01*
X159669858Y-66801174D01*
X159693750Y-66800000D01*
X160181250Y-66800000D01*
X160205142Y-66801174D01*
X160205142Y-66801174D01*
G37*
D15*
G04 #@! TD*
G04 #@! TO.P,R14,2*
G04 #@! TO.N,Net-(R14-Pad2)*
X159937500Y-67500000D03*
D14*
G04 #@! TO.N,Net-(J1-Pad8)*
G04 #@! TO.C,R14*
G36*
X158330142Y-66801174D02*
X158353803Y-66804684D01*
X158377007Y-66810496D01*
X158399529Y-66818554D01*
X158421153Y-66828782D01*
X158441670Y-66841079D01*
X158460883Y-66855329D01*
X158478607Y-66871393D01*
X158494671Y-66889117D01*
X158508921Y-66908330D01*
X158521218Y-66928847D01*
X158531446Y-66950471D01*
X158539504Y-66972993D01*
X158545316Y-66996197D01*
X158548826Y-67019858D01*
X158550000Y-67043750D01*
X158550000Y-67956250D01*
X158548826Y-67980142D01*
X158545316Y-68003803D01*
X158539504Y-68027007D01*
X158531446Y-68049529D01*
X158521218Y-68071153D01*
X158508921Y-68091670D01*
X158494671Y-68110883D01*
X158478607Y-68128607D01*
X158460883Y-68144671D01*
X158441670Y-68158921D01*
X158421153Y-68171218D01*
X158399529Y-68181446D01*
X158377007Y-68189504D01*
X158353803Y-68195316D01*
X158330142Y-68198826D01*
X158306250Y-68200000D01*
X157818750Y-68200000D01*
X157794858Y-68198826D01*
X157771197Y-68195316D01*
X157747993Y-68189504D01*
X157725471Y-68181446D01*
X157703847Y-68171218D01*
X157683330Y-68158921D01*
X157664117Y-68144671D01*
X157646393Y-68128607D01*
X157630329Y-68110883D01*
X157616079Y-68091670D01*
X157603782Y-68071153D01*
X157593554Y-68049529D01*
X157585496Y-68027007D01*
X157579684Y-68003803D01*
X157576174Y-67980142D01*
X157575000Y-67956250D01*
X157575000Y-67043750D01*
X157576174Y-67019858D01*
X157579684Y-66996197D01*
X157585496Y-66972993D01*
X157593554Y-66950471D01*
X157603782Y-66928847D01*
X157616079Y-66908330D01*
X157630329Y-66889117D01*
X157646393Y-66871393D01*
X157664117Y-66855329D01*
X157683330Y-66841079D01*
X157703847Y-66828782D01*
X157725471Y-66818554D01*
X157747993Y-66810496D01*
X157771197Y-66804684D01*
X157794858Y-66801174D01*
X157818750Y-66800000D01*
X158306250Y-66800000D01*
X158330142Y-66801174D01*
X158330142Y-66801174D01*
G37*
D15*
G04 #@! TD*
G04 #@! TO.P,R14,1*
G04 #@! TO.N,Net-(J1-Pad8)*
X158062500Y-67500000D03*
D14*
G04 #@! TO.N,Net-(J1-Pad10)*
G04 #@! TO.C,R15*
G36*
X151330142Y-86301174D02*
X151353803Y-86304684D01*
X151377007Y-86310496D01*
X151399529Y-86318554D01*
X151421153Y-86328782D01*
X151441670Y-86341079D01*
X151460883Y-86355329D01*
X151478607Y-86371393D01*
X151494671Y-86389117D01*
X151508921Y-86408330D01*
X151521218Y-86428847D01*
X151531446Y-86450471D01*
X151539504Y-86472993D01*
X151545316Y-86496197D01*
X151548826Y-86519858D01*
X151550000Y-86543750D01*
X151550000Y-87456250D01*
X151548826Y-87480142D01*
X151545316Y-87503803D01*
X151539504Y-87527007D01*
X151531446Y-87549529D01*
X151521218Y-87571153D01*
X151508921Y-87591670D01*
X151494671Y-87610883D01*
X151478607Y-87628607D01*
X151460883Y-87644671D01*
X151441670Y-87658921D01*
X151421153Y-87671218D01*
X151399529Y-87681446D01*
X151377007Y-87689504D01*
X151353803Y-87695316D01*
X151330142Y-87698826D01*
X151306250Y-87700000D01*
X150818750Y-87700000D01*
X150794858Y-87698826D01*
X150771197Y-87695316D01*
X150747993Y-87689504D01*
X150725471Y-87681446D01*
X150703847Y-87671218D01*
X150683330Y-87658921D01*
X150664117Y-87644671D01*
X150646393Y-87628607D01*
X150630329Y-87610883D01*
X150616079Y-87591670D01*
X150603782Y-87571153D01*
X150593554Y-87549529D01*
X150585496Y-87527007D01*
X150579684Y-87503803D01*
X150576174Y-87480142D01*
X150575000Y-87456250D01*
X150575000Y-86543750D01*
X150576174Y-86519858D01*
X150579684Y-86496197D01*
X150585496Y-86472993D01*
X150593554Y-86450471D01*
X150603782Y-86428847D01*
X150616079Y-86408330D01*
X150630329Y-86389117D01*
X150646393Y-86371393D01*
X150664117Y-86355329D01*
X150683330Y-86341079D01*
X150703847Y-86328782D01*
X150725471Y-86318554D01*
X150747993Y-86310496D01*
X150771197Y-86304684D01*
X150794858Y-86301174D01*
X150818750Y-86300000D01*
X151306250Y-86300000D01*
X151330142Y-86301174D01*
X151330142Y-86301174D01*
G37*
D15*
G04 #@! TD*
G04 #@! TO.P,R15,1*
G04 #@! TO.N,Net-(J1-Pad10)*
X151062500Y-87000000D03*
D14*
G04 #@! TO.N,Net-(R15-Pad2)*
G04 #@! TO.C,R15*
G36*
X153205142Y-86301174D02*
X153228803Y-86304684D01*
X153252007Y-86310496D01*
X153274529Y-86318554D01*
X153296153Y-86328782D01*
X153316670Y-86341079D01*
X153335883Y-86355329D01*
X153353607Y-86371393D01*
X153369671Y-86389117D01*
X153383921Y-86408330D01*
X153396218Y-86428847D01*
X153406446Y-86450471D01*
X153414504Y-86472993D01*
X153420316Y-86496197D01*
X153423826Y-86519858D01*
X153425000Y-86543750D01*
X153425000Y-87456250D01*
X153423826Y-87480142D01*
X153420316Y-87503803D01*
X153414504Y-87527007D01*
X153406446Y-87549529D01*
X153396218Y-87571153D01*
X153383921Y-87591670D01*
X153369671Y-87610883D01*
X153353607Y-87628607D01*
X153335883Y-87644671D01*
X153316670Y-87658921D01*
X153296153Y-87671218D01*
X153274529Y-87681446D01*
X153252007Y-87689504D01*
X153228803Y-87695316D01*
X153205142Y-87698826D01*
X153181250Y-87700000D01*
X152693750Y-87700000D01*
X152669858Y-87698826D01*
X152646197Y-87695316D01*
X152622993Y-87689504D01*
X152600471Y-87681446D01*
X152578847Y-87671218D01*
X152558330Y-87658921D01*
X152539117Y-87644671D01*
X152521393Y-87628607D01*
X152505329Y-87610883D01*
X152491079Y-87591670D01*
X152478782Y-87571153D01*
X152468554Y-87549529D01*
X152460496Y-87527007D01*
X152454684Y-87503803D01*
X152451174Y-87480142D01*
X152450000Y-87456250D01*
X152450000Y-86543750D01*
X152451174Y-86519858D01*
X152454684Y-86496197D01*
X152460496Y-86472993D01*
X152468554Y-86450471D01*
X152478782Y-86428847D01*
X152491079Y-86408330D01*
X152505329Y-86389117D01*
X152521393Y-86371393D01*
X152539117Y-86355329D01*
X152558330Y-86341079D01*
X152578847Y-86328782D01*
X152600471Y-86318554D01*
X152622993Y-86310496D01*
X152646197Y-86304684D01*
X152669858Y-86301174D01*
X152693750Y-86300000D01*
X153181250Y-86300000D01*
X153205142Y-86301174D01*
X153205142Y-86301174D01*
G37*
D15*
G04 #@! TD*
G04 #@! TO.P,R15,2*
G04 #@! TO.N,Net-(R15-Pad2)*
X152937500Y-87000000D03*
D14*
G04 #@! TO.N,Net-(R16-Pad2)*
G04 #@! TO.C,R16*
G36*
X153205142Y-93301174D02*
X153228803Y-93304684D01*
X153252007Y-93310496D01*
X153274529Y-93318554D01*
X153296153Y-93328782D01*
X153316670Y-93341079D01*
X153335883Y-93355329D01*
X153353607Y-93371393D01*
X153369671Y-93389117D01*
X153383921Y-93408330D01*
X153396218Y-93428847D01*
X153406446Y-93450471D01*
X153414504Y-93472993D01*
X153420316Y-93496197D01*
X153423826Y-93519858D01*
X153425000Y-93543750D01*
X153425000Y-94456250D01*
X153423826Y-94480142D01*
X153420316Y-94503803D01*
X153414504Y-94527007D01*
X153406446Y-94549529D01*
X153396218Y-94571153D01*
X153383921Y-94591670D01*
X153369671Y-94610883D01*
X153353607Y-94628607D01*
X153335883Y-94644671D01*
X153316670Y-94658921D01*
X153296153Y-94671218D01*
X153274529Y-94681446D01*
X153252007Y-94689504D01*
X153228803Y-94695316D01*
X153205142Y-94698826D01*
X153181250Y-94700000D01*
X152693750Y-94700000D01*
X152669858Y-94698826D01*
X152646197Y-94695316D01*
X152622993Y-94689504D01*
X152600471Y-94681446D01*
X152578847Y-94671218D01*
X152558330Y-94658921D01*
X152539117Y-94644671D01*
X152521393Y-94628607D01*
X152505329Y-94610883D01*
X152491079Y-94591670D01*
X152478782Y-94571153D01*
X152468554Y-94549529D01*
X152460496Y-94527007D01*
X152454684Y-94503803D01*
X152451174Y-94480142D01*
X152450000Y-94456250D01*
X152450000Y-93543750D01*
X152451174Y-93519858D01*
X152454684Y-93496197D01*
X152460496Y-93472993D01*
X152468554Y-93450471D01*
X152478782Y-93428847D01*
X152491079Y-93408330D01*
X152505329Y-93389117D01*
X152521393Y-93371393D01*
X152539117Y-93355329D01*
X152558330Y-93341079D01*
X152578847Y-93328782D01*
X152600471Y-93318554D01*
X152622993Y-93310496D01*
X152646197Y-93304684D01*
X152669858Y-93301174D01*
X152693750Y-93300000D01*
X153181250Y-93300000D01*
X153205142Y-93301174D01*
X153205142Y-93301174D01*
G37*
D15*
G04 #@! TD*
G04 #@! TO.P,R16,2*
G04 #@! TO.N,Net-(R16-Pad2)*
X152937500Y-94000000D03*
D14*
G04 #@! TO.N,Net-(J1-Pad12)*
G04 #@! TO.C,R16*
G36*
X151330142Y-93301174D02*
X151353803Y-93304684D01*
X151377007Y-93310496D01*
X151399529Y-93318554D01*
X151421153Y-93328782D01*
X151441670Y-93341079D01*
X151460883Y-93355329D01*
X151478607Y-93371393D01*
X151494671Y-93389117D01*
X151508921Y-93408330D01*
X151521218Y-93428847D01*
X151531446Y-93450471D01*
X151539504Y-93472993D01*
X151545316Y-93496197D01*
X151548826Y-93519858D01*
X151550000Y-93543750D01*
X151550000Y-94456250D01*
X151548826Y-94480142D01*
X151545316Y-94503803D01*
X151539504Y-94527007D01*
X151531446Y-94549529D01*
X151521218Y-94571153D01*
X151508921Y-94591670D01*
X151494671Y-94610883D01*
X151478607Y-94628607D01*
X151460883Y-94644671D01*
X151441670Y-94658921D01*
X151421153Y-94671218D01*
X151399529Y-94681446D01*
X151377007Y-94689504D01*
X151353803Y-94695316D01*
X151330142Y-94698826D01*
X151306250Y-94700000D01*
X150818750Y-94700000D01*
X150794858Y-94698826D01*
X150771197Y-94695316D01*
X150747993Y-94689504D01*
X150725471Y-94681446D01*
X150703847Y-94671218D01*
X150683330Y-94658921D01*
X150664117Y-94644671D01*
X150646393Y-94628607D01*
X150630329Y-94610883D01*
X150616079Y-94591670D01*
X150603782Y-94571153D01*
X150593554Y-94549529D01*
X150585496Y-94527007D01*
X150579684Y-94503803D01*
X150576174Y-94480142D01*
X150575000Y-94456250D01*
X150575000Y-93543750D01*
X150576174Y-93519858D01*
X150579684Y-93496197D01*
X150585496Y-93472993D01*
X150593554Y-93450471D01*
X150603782Y-93428847D01*
X150616079Y-93408330D01*
X150630329Y-93389117D01*
X150646393Y-93371393D01*
X150664117Y-93355329D01*
X150683330Y-93341079D01*
X150703847Y-93328782D01*
X150725471Y-93318554D01*
X150747993Y-93310496D01*
X150771197Y-93304684D01*
X150794858Y-93301174D01*
X150818750Y-93300000D01*
X151306250Y-93300000D01*
X151330142Y-93301174D01*
X151330142Y-93301174D01*
G37*
D15*
G04 #@! TD*
G04 #@! TO.P,R16,1*
G04 #@! TO.N,Net-(J1-Pad12)*
X151062500Y-94000000D03*
D14*
G04 #@! TO.N,Net-(J1-Pad14)*
G04 #@! TO.C,R17*
G36*
X151330142Y-100301174D02*
X151353803Y-100304684D01*
X151377007Y-100310496D01*
X151399529Y-100318554D01*
X151421153Y-100328782D01*
X151441670Y-100341079D01*
X151460883Y-100355329D01*
X151478607Y-100371393D01*
X151494671Y-100389117D01*
X151508921Y-100408330D01*
X151521218Y-100428847D01*
X151531446Y-100450471D01*
X151539504Y-100472993D01*
X151545316Y-100496197D01*
X151548826Y-100519858D01*
X151550000Y-100543750D01*
X151550000Y-101456250D01*
X151548826Y-101480142D01*
X151545316Y-101503803D01*
X151539504Y-101527007D01*
X151531446Y-101549529D01*
X151521218Y-101571153D01*
X151508921Y-101591670D01*
X151494671Y-101610883D01*
X151478607Y-101628607D01*
X151460883Y-101644671D01*
X151441670Y-101658921D01*
X151421153Y-101671218D01*
X151399529Y-101681446D01*
X151377007Y-101689504D01*
X151353803Y-101695316D01*
X151330142Y-101698826D01*
X151306250Y-101700000D01*
X150818750Y-101700000D01*
X150794858Y-101698826D01*
X150771197Y-101695316D01*
X150747993Y-101689504D01*
X150725471Y-101681446D01*
X150703847Y-101671218D01*
X150683330Y-101658921D01*
X150664117Y-101644671D01*
X150646393Y-101628607D01*
X150630329Y-101610883D01*
X150616079Y-101591670D01*
X150603782Y-101571153D01*
X150593554Y-101549529D01*
X150585496Y-101527007D01*
X150579684Y-101503803D01*
X150576174Y-101480142D01*
X150575000Y-101456250D01*
X150575000Y-100543750D01*
X150576174Y-100519858D01*
X150579684Y-100496197D01*
X150585496Y-100472993D01*
X150593554Y-100450471D01*
X150603782Y-100428847D01*
X150616079Y-100408330D01*
X150630329Y-100389117D01*
X150646393Y-100371393D01*
X150664117Y-100355329D01*
X150683330Y-100341079D01*
X150703847Y-100328782D01*
X150725471Y-100318554D01*
X150747993Y-100310496D01*
X150771197Y-100304684D01*
X150794858Y-100301174D01*
X150818750Y-100300000D01*
X151306250Y-100300000D01*
X151330142Y-100301174D01*
X151330142Y-100301174D01*
G37*
D15*
G04 #@! TD*
G04 #@! TO.P,R17,1*
G04 #@! TO.N,Net-(J1-Pad14)*
X151062500Y-101000000D03*
D14*
G04 #@! TO.N,Net-(R10-Pad1)*
G04 #@! TO.C,R17*
G36*
X153205142Y-100301174D02*
X153228803Y-100304684D01*
X153252007Y-100310496D01*
X153274529Y-100318554D01*
X153296153Y-100328782D01*
X153316670Y-100341079D01*
X153335883Y-100355329D01*
X153353607Y-100371393D01*
X153369671Y-100389117D01*
X153383921Y-100408330D01*
X153396218Y-100428847D01*
X153406446Y-100450471D01*
X153414504Y-100472993D01*
X153420316Y-100496197D01*
X153423826Y-100519858D01*
X153425000Y-100543750D01*
X153425000Y-101456250D01*
X153423826Y-101480142D01*
X153420316Y-101503803D01*
X153414504Y-101527007D01*
X153406446Y-101549529D01*
X153396218Y-101571153D01*
X153383921Y-101591670D01*
X153369671Y-101610883D01*
X153353607Y-101628607D01*
X153335883Y-101644671D01*
X153316670Y-101658921D01*
X153296153Y-101671218D01*
X153274529Y-101681446D01*
X153252007Y-101689504D01*
X153228803Y-101695316D01*
X153205142Y-101698826D01*
X153181250Y-101700000D01*
X152693750Y-101700000D01*
X152669858Y-101698826D01*
X152646197Y-101695316D01*
X152622993Y-101689504D01*
X152600471Y-101681446D01*
X152578847Y-101671218D01*
X152558330Y-101658921D01*
X152539117Y-101644671D01*
X152521393Y-101628607D01*
X152505329Y-101610883D01*
X152491079Y-101591670D01*
X152478782Y-101571153D01*
X152468554Y-101549529D01*
X152460496Y-101527007D01*
X152454684Y-101503803D01*
X152451174Y-101480142D01*
X152450000Y-101456250D01*
X152450000Y-100543750D01*
X152451174Y-100519858D01*
X152454684Y-100496197D01*
X152460496Y-100472993D01*
X152468554Y-100450471D01*
X152478782Y-100428847D01*
X152491079Y-100408330D01*
X152505329Y-100389117D01*
X152521393Y-100371393D01*
X152539117Y-100355329D01*
X152558330Y-100341079D01*
X152578847Y-100328782D01*
X152600471Y-100318554D01*
X152622993Y-100310496D01*
X152646197Y-100304684D01*
X152669858Y-100301174D01*
X152693750Y-100300000D01*
X153181250Y-100300000D01*
X153205142Y-100301174D01*
X153205142Y-100301174D01*
G37*
D15*
G04 #@! TD*
G04 #@! TO.P,R17,2*
G04 #@! TO.N,Net-(R10-Pad1)*
X152937500Y-101000000D03*
D14*
G04 #@! TO.N,Net-(J1-Pad1)*
G04 #@! TO.C,R18*
G36*
X151202691Y-55026053D02*
X151223926Y-55029203D01*
X151244750Y-55034419D01*
X151264962Y-55041651D01*
X151284368Y-55050830D01*
X151302781Y-55061866D01*
X151320024Y-55074654D01*
X151335930Y-55089070D01*
X151350346Y-55104976D01*
X151363134Y-55122219D01*
X151374170Y-55140632D01*
X151383349Y-55160038D01*
X151390581Y-55180250D01*
X151395797Y-55201074D01*
X151398947Y-55222309D01*
X151400000Y-55243750D01*
X151400000Y-55756250D01*
X151398947Y-55777691D01*
X151395797Y-55798926D01*
X151390581Y-55819750D01*
X151383349Y-55839962D01*
X151374170Y-55859368D01*
X151363134Y-55877781D01*
X151350346Y-55895024D01*
X151335930Y-55910930D01*
X151320024Y-55925346D01*
X151302781Y-55938134D01*
X151284368Y-55949170D01*
X151264962Y-55958349D01*
X151244750Y-55965581D01*
X151223926Y-55970797D01*
X151202691Y-55973947D01*
X151181250Y-55975000D01*
X150743750Y-55975000D01*
X150722309Y-55973947D01*
X150701074Y-55970797D01*
X150680250Y-55965581D01*
X150660038Y-55958349D01*
X150640632Y-55949170D01*
X150622219Y-55938134D01*
X150604976Y-55925346D01*
X150589070Y-55910930D01*
X150574654Y-55895024D01*
X150561866Y-55877781D01*
X150550830Y-55859368D01*
X150541651Y-55839962D01*
X150534419Y-55819750D01*
X150529203Y-55798926D01*
X150526053Y-55777691D01*
X150525000Y-55756250D01*
X150525000Y-55243750D01*
X150526053Y-55222309D01*
X150529203Y-55201074D01*
X150534419Y-55180250D01*
X150541651Y-55160038D01*
X150550830Y-55140632D01*
X150561866Y-55122219D01*
X150574654Y-55104976D01*
X150589070Y-55089070D01*
X150604976Y-55074654D01*
X150622219Y-55061866D01*
X150640632Y-55050830D01*
X150660038Y-55041651D01*
X150680250Y-55034419D01*
X150701074Y-55029203D01*
X150722309Y-55026053D01*
X150743750Y-55025000D01*
X151181250Y-55025000D01*
X151202691Y-55026053D01*
X151202691Y-55026053D01*
G37*
D16*
G04 #@! TD*
G04 #@! TO.P,R18,1*
G04 #@! TO.N,Net-(J1-Pad1)*
X150962500Y-55500000D03*
D14*
G04 #@! TO.N,4V096*
G04 #@! TO.C,R18*
G36*
X152777691Y-55026053D02*
X152798926Y-55029203D01*
X152819750Y-55034419D01*
X152839962Y-55041651D01*
X152859368Y-55050830D01*
X152877781Y-55061866D01*
X152895024Y-55074654D01*
X152910930Y-55089070D01*
X152925346Y-55104976D01*
X152938134Y-55122219D01*
X152949170Y-55140632D01*
X152958349Y-55160038D01*
X152965581Y-55180250D01*
X152970797Y-55201074D01*
X152973947Y-55222309D01*
X152975000Y-55243750D01*
X152975000Y-55756250D01*
X152973947Y-55777691D01*
X152970797Y-55798926D01*
X152965581Y-55819750D01*
X152958349Y-55839962D01*
X152949170Y-55859368D01*
X152938134Y-55877781D01*
X152925346Y-55895024D01*
X152910930Y-55910930D01*
X152895024Y-55925346D01*
X152877781Y-55938134D01*
X152859368Y-55949170D01*
X152839962Y-55958349D01*
X152819750Y-55965581D01*
X152798926Y-55970797D01*
X152777691Y-55973947D01*
X152756250Y-55975000D01*
X152318750Y-55975000D01*
X152297309Y-55973947D01*
X152276074Y-55970797D01*
X152255250Y-55965581D01*
X152235038Y-55958349D01*
X152215632Y-55949170D01*
X152197219Y-55938134D01*
X152179976Y-55925346D01*
X152164070Y-55910930D01*
X152149654Y-55895024D01*
X152136866Y-55877781D01*
X152125830Y-55859368D01*
X152116651Y-55839962D01*
X152109419Y-55819750D01*
X152104203Y-55798926D01*
X152101053Y-55777691D01*
X152100000Y-55756250D01*
X152100000Y-55243750D01*
X152101053Y-55222309D01*
X152104203Y-55201074D01*
X152109419Y-55180250D01*
X152116651Y-55160038D01*
X152125830Y-55140632D01*
X152136866Y-55122219D01*
X152149654Y-55104976D01*
X152164070Y-55089070D01*
X152179976Y-55074654D01*
X152197219Y-55061866D01*
X152215632Y-55050830D01*
X152235038Y-55041651D01*
X152255250Y-55034419D01*
X152276074Y-55029203D01*
X152297309Y-55026053D01*
X152318750Y-55025000D01*
X152756250Y-55025000D01*
X152777691Y-55026053D01*
X152777691Y-55026053D01*
G37*
D16*
G04 #@! TD*
G04 #@! TO.P,R18,2*
G04 #@! TO.N,4V096*
X152537500Y-55500000D03*
D14*
G04 #@! TO.N,4V096*
G04 #@! TO.C,R19*
G36*
X152777691Y-62026053D02*
X152798926Y-62029203D01*
X152819750Y-62034419D01*
X152839962Y-62041651D01*
X152859368Y-62050830D01*
X152877781Y-62061866D01*
X152895024Y-62074654D01*
X152910930Y-62089070D01*
X152925346Y-62104976D01*
X152938134Y-62122219D01*
X152949170Y-62140632D01*
X152958349Y-62160038D01*
X152965581Y-62180250D01*
X152970797Y-62201074D01*
X152973947Y-62222309D01*
X152975000Y-62243750D01*
X152975000Y-62756250D01*
X152973947Y-62777691D01*
X152970797Y-62798926D01*
X152965581Y-62819750D01*
X152958349Y-62839962D01*
X152949170Y-62859368D01*
X152938134Y-62877781D01*
X152925346Y-62895024D01*
X152910930Y-62910930D01*
X152895024Y-62925346D01*
X152877781Y-62938134D01*
X152859368Y-62949170D01*
X152839962Y-62958349D01*
X152819750Y-62965581D01*
X152798926Y-62970797D01*
X152777691Y-62973947D01*
X152756250Y-62975000D01*
X152318750Y-62975000D01*
X152297309Y-62973947D01*
X152276074Y-62970797D01*
X152255250Y-62965581D01*
X152235038Y-62958349D01*
X152215632Y-62949170D01*
X152197219Y-62938134D01*
X152179976Y-62925346D01*
X152164070Y-62910930D01*
X152149654Y-62895024D01*
X152136866Y-62877781D01*
X152125830Y-62859368D01*
X152116651Y-62839962D01*
X152109419Y-62819750D01*
X152104203Y-62798926D01*
X152101053Y-62777691D01*
X152100000Y-62756250D01*
X152100000Y-62243750D01*
X152101053Y-62222309D01*
X152104203Y-62201074D01*
X152109419Y-62180250D01*
X152116651Y-62160038D01*
X152125830Y-62140632D01*
X152136866Y-62122219D01*
X152149654Y-62104976D01*
X152164070Y-62089070D01*
X152179976Y-62074654D01*
X152197219Y-62061866D01*
X152215632Y-62050830D01*
X152235038Y-62041651D01*
X152255250Y-62034419D01*
X152276074Y-62029203D01*
X152297309Y-62026053D01*
X152318750Y-62025000D01*
X152756250Y-62025000D01*
X152777691Y-62026053D01*
X152777691Y-62026053D01*
G37*
D16*
G04 #@! TD*
G04 #@! TO.P,R19,2*
G04 #@! TO.N,4V096*
X152537500Y-62500000D03*
D14*
G04 #@! TO.N,Net-(J1-Pad3)*
G04 #@! TO.C,R19*
G36*
X151202691Y-62026053D02*
X151223926Y-62029203D01*
X151244750Y-62034419D01*
X151264962Y-62041651D01*
X151284368Y-62050830D01*
X151302781Y-62061866D01*
X151320024Y-62074654D01*
X151335930Y-62089070D01*
X151350346Y-62104976D01*
X151363134Y-62122219D01*
X151374170Y-62140632D01*
X151383349Y-62160038D01*
X151390581Y-62180250D01*
X151395797Y-62201074D01*
X151398947Y-62222309D01*
X151400000Y-62243750D01*
X151400000Y-62756250D01*
X151398947Y-62777691D01*
X151395797Y-62798926D01*
X151390581Y-62819750D01*
X151383349Y-62839962D01*
X151374170Y-62859368D01*
X151363134Y-62877781D01*
X151350346Y-62895024D01*
X151335930Y-62910930D01*
X151320024Y-62925346D01*
X151302781Y-62938134D01*
X151284368Y-62949170D01*
X151264962Y-62958349D01*
X151244750Y-62965581D01*
X151223926Y-62970797D01*
X151202691Y-62973947D01*
X151181250Y-62975000D01*
X150743750Y-62975000D01*
X150722309Y-62973947D01*
X150701074Y-62970797D01*
X150680250Y-62965581D01*
X150660038Y-62958349D01*
X150640632Y-62949170D01*
X150622219Y-62938134D01*
X150604976Y-62925346D01*
X150589070Y-62910930D01*
X150574654Y-62895024D01*
X150561866Y-62877781D01*
X150550830Y-62859368D01*
X150541651Y-62839962D01*
X150534419Y-62819750D01*
X150529203Y-62798926D01*
X150526053Y-62777691D01*
X150525000Y-62756250D01*
X150525000Y-62243750D01*
X150526053Y-62222309D01*
X150529203Y-62201074D01*
X150534419Y-62180250D01*
X150541651Y-62160038D01*
X150550830Y-62140632D01*
X150561866Y-62122219D01*
X150574654Y-62104976D01*
X150589070Y-62089070D01*
X150604976Y-62074654D01*
X150622219Y-62061866D01*
X150640632Y-62050830D01*
X150660038Y-62041651D01*
X150680250Y-62034419D01*
X150701074Y-62029203D01*
X150722309Y-62026053D01*
X150743750Y-62025000D01*
X151181250Y-62025000D01*
X151202691Y-62026053D01*
X151202691Y-62026053D01*
G37*
D16*
G04 #@! TD*
G04 #@! TO.P,R19,1*
G04 #@! TO.N,Net-(J1-Pad3)*
X150962500Y-62500000D03*
D14*
G04 #@! TO.N,Net-(J1-Pad5)*
G04 #@! TO.C,R20*
G36*
X151202691Y-69026053D02*
X151223926Y-69029203D01*
X151244750Y-69034419D01*
X151264962Y-69041651D01*
X151284368Y-69050830D01*
X151302781Y-69061866D01*
X151320024Y-69074654D01*
X151335930Y-69089070D01*
X151350346Y-69104976D01*
X151363134Y-69122219D01*
X151374170Y-69140632D01*
X151383349Y-69160038D01*
X151390581Y-69180250D01*
X151395797Y-69201074D01*
X151398947Y-69222309D01*
X151400000Y-69243750D01*
X151400000Y-69756250D01*
X151398947Y-69777691D01*
X151395797Y-69798926D01*
X151390581Y-69819750D01*
X151383349Y-69839962D01*
X151374170Y-69859368D01*
X151363134Y-69877781D01*
X151350346Y-69895024D01*
X151335930Y-69910930D01*
X151320024Y-69925346D01*
X151302781Y-69938134D01*
X151284368Y-69949170D01*
X151264962Y-69958349D01*
X151244750Y-69965581D01*
X151223926Y-69970797D01*
X151202691Y-69973947D01*
X151181250Y-69975000D01*
X150743750Y-69975000D01*
X150722309Y-69973947D01*
X150701074Y-69970797D01*
X150680250Y-69965581D01*
X150660038Y-69958349D01*
X150640632Y-69949170D01*
X150622219Y-69938134D01*
X150604976Y-69925346D01*
X150589070Y-69910930D01*
X150574654Y-69895024D01*
X150561866Y-69877781D01*
X150550830Y-69859368D01*
X150541651Y-69839962D01*
X150534419Y-69819750D01*
X150529203Y-69798926D01*
X150526053Y-69777691D01*
X150525000Y-69756250D01*
X150525000Y-69243750D01*
X150526053Y-69222309D01*
X150529203Y-69201074D01*
X150534419Y-69180250D01*
X150541651Y-69160038D01*
X150550830Y-69140632D01*
X150561866Y-69122219D01*
X150574654Y-69104976D01*
X150589070Y-69089070D01*
X150604976Y-69074654D01*
X150622219Y-69061866D01*
X150640632Y-69050830D01*
X150660038Y-69041651D01*
X150680250Y-69034419D01*
X150701074Y-69029203D01*
X150722309Y-69026053D01*
X150743750Y-69025000D01*
X151181250Y-69025000D01*
X151202691Y-69026053D01*
X151202691Y-69026053D01*
G37*
D16*
G04 #@! TD*
G04 #@! TO.P,R20,1*
G04 #@! TO.N,Net-(J1-Pad5)*
X150962500Y-69500000D03*
D14*
G04 #@! TO.N,4V096*
G04 #@! TO.C,R20*
G36*
X152777691Y-69026053D02*
X152798926Y-69029203D01*
X152819750Y-69034419D01*
X152839962Y-69041651D01*
X152859368Y-69050830D01*
X152877781Y-69061866D01*
X152895024Y-69074654D01*
X152910930Y-69089070D01*
X152925346Y-69104976D01*
X152938134Y-69122219D01*
X152949170Y-69140632D01*
X152958349Y-69160038D01*
X152965581Y-69180250D01*
X152970797Y-69201074D01*
X152973947Y-69222309D01*
X152975000Y-69243750D01*
X152975000Y-69756250D01*
X152973947Y-69777691D01*
X152970797Y-69798926D01*
X152965581Y-69819750D01*
X152958349Y-69839962D01*
X152949170Y-69859368D01*
X152938134Y-69877781D01*
X152925346Y-69895024D01*
X152910930Y-69910930D01*
X152895024Y-69925346D01*
X152877781Y-69938134D01*
X152859368Y-69949170D01*
X152839962Y-69958349D01*
X152819750Y-69965581D01*
X152798926Y-69970797D01*
X152777691Y-69973947D01*
X152756250Y-69975000D01*
X152318750Y-69975000D01*
X152297309Y-69973947D01*
X152276074Y-69970797D01*
X152255250Y-69965581D01*
X152235038Y-69958349D01*
X152215632Y-69949170D01*
X152197219Y-69938134D01*
X152179976Y-69925346D01*
X152164070Y-69910930D01*
X152149654Y-69895024D01*
X152136866Y-69877781D01*
X152125830Y-69859368D01*
X152116651Y-69839962D01*
X152109419Y-69819750D01*
X152104203Y-69798926D01*
X152101053Y-69777691D01*
X152100000Y-69756250D01*
X152100000Y-69243750D01*
X152101053Y-69222309D01*
X152104203Y-69201074D01*
X152109419Y-69180250D01*
X152116651Y-69160038D01*
X152125830Y-69140632D01*
X152136866Y-69122219D01*
X152149654Y-69104976D01*
X152164070Y-69089070D01*
X152179976Y-69074654D01*
X152197219Y-69061866D01*
X152215632Y-69050830D01*
X152235038Y-69041651D01*
X152255250Y-69034419D01*
X152276074Y-69029203D01*
X152297309Y-69026053D01*
X152318750Y-69025000D01*
X152756250Y-69025000D01*
X152777691Y-69026053D01*
X152777691Y-69026053D01*
G37*
D16*
G04 #@! TD*
G04 #@! TO.P,R20,2*
G04 #@! TO.N,4V096*
X152537500Y-69500000D03*
D14*
G04 #@! TO.N,4V096*
G04 #@! TO.C,R21*
G36*
X152777691Y-76026053D02*
X152798926Y-76029203D01*
X152819750Y-76034419D01*
X152839962Y-76041651D01*
X152859368Y-76050830D01*
X152877781Y-76061866D01*
X152895024Y-76074654D01*
X152910930Y-76089070D01*
X152925346Y-76104976D01*
X152938134Y-76122219D01*
X152949170Y-76140632D01*
X152958349Y-76160038D01*
X152965581Y-76180250D01*
X152970797Y-76201074D01*
X152973947Y-76222309D01*
X152975000Y-76243750D01*
X152975000Y-76756250D01*
X152973947Y-76777691D01*
X152970797Y-76798926D01*
X152965581Y-76819750D01*
X152958349Y-76839962D01*
X152949170Y-76859368D01*
X152938134Y-76877781D01*
X152925346Y-76895024D01*
X152910930Y-76910930D01*
X152895024Y-76925346D01*
X152877781Y-76938134D01*
X152859368Y-76949170D01*
X152839962Y-76958349D01*
X152819750Y-76965581D01*
X152798926Y-76970797D01*
X152777691Y-76973947D01*
X152756250Y-76975000D01*
X152318750Y-76975000D01*
X152297309Y-76973947D01*
X152276074Y-76970797D01*
X152255250Y-76965581D01*
X152235038Y-76958349D01*
X152215632Y-76949170D01*
X152197219Y-76938134D01*
X152179976Y-76925346D01*
X152164070Y-76910930D01*
X152149654Y-76895024D01*
X152136866Y-76877781D01*
X152125830Y-76859368D01*
X152116651Y-76839962D01*
X152109419Y-76819750D01*
X152104203Y-76798926D01*
X152101053Y-76777691D01*
X152100000Y-76756250D01*
X152100000Y-76243750D01*
X152101053Y-76222309D01*
X152104203Y-76201074D01*
X152109419Y-76180250D01*
X152116651Y-76160038D01*
X152125830Y-76140632D01*
X152136866Y-76122219D01*
X152149654Y-76104976D01*
X152164070Y-76089070D01*
X152179976Y-76074654D01*
X152197219Y-76061866D01*
X152215632Y-76050830D01*
X152235038Y-76041651D01*
X152255250Y-76034419D01*
X152276074Y-76029203D01*
X152297309Y-76026053D01*
X152318750Y-76025000D01*
X152756250Y-76025000D01*
X152777691Y-76026053D01*
X152777691Y-76026053D01*
G37*
D16*
G04 #@! TD*
G04 #@! TO.P,R21,2*
G04 #@! TO.N,4V096*
X152537500Y-76500000D03*
D14*
G04 #@! TO.N,Net-(J1-Pad7)*
G04 #@! TO.C,R21*
G36*
X151202691Y-76026053D02*
X151223926Y-76029203D01*
X151244750Y-76034419D01*
X151264962Y-76041651D01*
X151284368Y-76050830D01*
X151302781Y-76061866D01*
X151320024Y-76074654D01*
X151335930Y-76089070D01*
X151350346Y-76104976D01*
X151363134Y-76122219D01*
X151374170Y-76140632D01*
X151383349Y-76160038D01*
X151390581Y-76180250D01*
X151395797Y-76201074D01*
X151398947Y-76222309D01*
X151400000Y-76243750D01*
X151400000Y-76756250D01*
X151398947Y-76777691D01*
X151395797Y-76798926D01*
X151390581Y-76819750D01*
X151383349Y-76839962D01*
X151374170Y-76859368D01*
X151363134Y-76877781D01*
X151350346Y-76895024D01*
X151335930Y-76910930D01*
X151320024Y-76925346D01*
X151302781Y-76938134D01*
X151284368Y-76949170D01*
X151264962Y-76958349D01*
X151244750Y-76965581D01*
X151223926Y-76970797D01*
X151202691Y-76973947D01*
X151181250Y-76975000D01*
X150743750Y-76975000D01*
X150722309Y-76973947D01*
X150701074Y-76970797D01*
X150680250Y-76965581D01*
X150660038Y-76958349D01*
X150640632Y-76949170D01*
X150622219Y-76938134D01*
X150604976Y-76925346D01*
X150589070Y-76910930D01*
X150574654Y-76895024D01*
X150561866Y-76877781D01*
X150550830Y-76859368D01*
X150541651Y-76839962D01*
X150534419Y-76819750D01*
X150529203Y-76798926D01*
X150526053Y-76777691D01*
X150525000Y-76756250D01*
X150525000Y-76243750D01*
X150526053Y-76222309D01*
X150529203Y-76201074D01*
X150534419Y-76180250D01*
X150541651Y-76160038D01*
X150550830Y-76140632D01*
X150561866Y-76122219D01*
X150574654Y-76104976D01*
X150589070Y-76089070D01*
X150604976Y-76074654D01*
X150622219Y-76061866D01*
X150640632Y-76050830D01*
X150660038Y-76041651D01*
X150680250Y-76034419D01*
X150701074Y-76029203D01*
X150722309Y-76026053D01*
X150743750Y-76025000D01*
X151181250Y-76025000D01*
X151202691Y-76026053D01*
X151202691Y-76026053D01*
G37*
D16*
G04 #@! TD*
G04 #@! TO.P,R21,1*
G04 #@! TO.N,Net-(J1-Pad7)*
X150962500Y-76500000D03*
D14*
G04 #@! TO.N,Net-(J1-Pad9)*
G04 #@! TO.C,R22*
G36*
X160777691Y-86026053D02*
X160798926Y-86029203D01*
X160819750Y-86034419D01*
X160839962Y-86041651D01*
X160859368Y-86050830D01*
X160877781Y-86061866D01*
X160895024Y-86074654D01*
X160910930Y-86089070D01*
X160925346Y-86104976D01*
X160938134Y-86122219D01*
X160949170Y-86140632D01*
X160958349Y-86160038D01*
X160965581Y-86180250D01*
X160970797Y-86201074D01*
X160973947Y-86222309D01*
X160975000Y-86243750D01*
X160975000Y-86681250D01*
X160973947Y-86702691D01*
X160970797Y-86723926D01*
X160965581Y-86744750D01*
X160958349Y-86764962D01*
X160949170Y-86784368D01*
X160938134Y-86802781D01*
X160925346Y-86820024D01*
X160910930Y-86835930D01*
X160895024Y-86850346D01*
X160877781Y-86863134D01*
X160859368Y-86874170D01*
X160839962Y-86883349D01*
X160819750Y-86890581D01*
X160798926Y-86895797D01*
X160777691Y-86898947D01*
X160756250Y-86900000D01*
X160243750Y-86900000D01*
X160222309Y-86898947D01*
X160201074Y-86895797D01*
X160180250Y-86890581D01*
X160160038Y-86883349D01*
X160140632Y-86874170D01*
X160122219Y-86863134D01*
X160104976Y-86850346D01*
X160089070Y-86835930D01*
X160074654Y-86820024D01*
X160061866Y-86802781D01*
X160050830Y-86784368D01*
X160041651Y-86764962D01*
X160034419Y-86744750D01*
X160029203Y-86723926D01*
X160026053Y-86702691D01*
X160025000Y-86681250D01*
X160025000Y-86243750D01*
X160026053Y-86222309D01*
X160029203Y-86201074D01*
X160034419Y-86180250D01*
X160041651Y-86160038D01*
X160050830Y-86140632D01*
X160061866Y-86122219D01*
X160074654Y-86104976D01*
X160089070Y-86089070D01*
X160104976Y-86074654D01*
X160122219Y-86061866D01*
X160140632Y-86050830D01*
X160160038Y-86041651D01*
X160180250Y-86034419D01*
X160201074Y-86029203D01*
X160222309Y-86026053D01*
X160243750Y-86025000D01*
X160756250Y-86025000D01*
X160777691Y-86026053D01*
X160777691Y-86026053D01*
G37*
D16*
G04 #@! TD*
G04 #@! TO.P,R22,1*
G04 #@! TO.N,Net-(J1-Pad9)*
X160500000Y-86462500D03*
D14*
G04 #@! TO.N,4V096*
G04 #@! TO.C,R22*
G36*
X160777691Y-87601053D02*
X160798926Y-87604203D01*
X160819750Y-87609419D01*
X160839962Y-87616651D01*
X160859368Y-87625830D01*
X160877781Y-87636866D01*
X160895024Y-87649654D01*
X160910930Y-87664070D01*
X160925346Y-87679976D01*
X160938134Y-87697219D01*
X160949170Y-87715632D01*
X160958349Y-87735038D01*
X160965581Y-87755250D01*
X160970797Y-87776074D01*
X160973947Y-87797309D01*
X160975000Y-87818750D01*
X160975000Y-88256250D01*
X160973947Y-88277691D01*
X160970797Y-88298926D01*
X160965581Y-88319750D01*
X160958349Y-88339962D01*
X160949170Y-88359368D01*
X160938134Y-88377781D01*
X160925346Y-88395024D01*
X160910930Y-88410930D01*
X160895024Y-88425346D01*
X160877781Y-88438134D01*
X160859368Y-88449170D01*
X160839962Y-88458349D01*
X160819750Y-88465581D01*
X160798926Y-88470797D01*
X160777691Y-88473947D01*
X160756250Y-88475000D01*
X160243750Y-88475000D01*
X160222309Y-88473947D01*
X160201074Y-88470797D01*
X160180250Y-88465581D01*
X160160038Y-88458349D01*
X160140632Y-88449170D01*
X160122219Y-88438134D01*
X160104976Y-88425346D01*
X160089070Y-88410930D01*
X160074654Y-88395024D01*
X160061866Y-88377781D01*
X160050830Y-88359368D01*
X160041651Y-88339962D01*
X160034419Y-88319750D01*
X160029203Y-88298926D01*
X160026053Y-88277691D01*
X160025000Y-88256250D01*
X160025000Y-87818750D01*
X160026053Y-87797309D01*
X160029203Y-87776074D01*
X160034419Y-87755250D01*
X160041651Y-87735038D01*
X160050830Y-87715632D01*
X160061866Y-87697219D01*
X160074654Y-87679976D01*
X160089070Y-87664070D01*
X160104976Y-87649654D01*
X160122219Y-87636866D01*
X160140632Y-87625830D01*
X160160038Y-87616651D01*
X160180250Y-87609419D01*
X160201074Y-87604203D01*
X160222309Y-87601053D01*
X160243750Y-87600000D01*
X160756250Y-87600000D01*
X160777691Y-87601053D01*
X160777691Y-87601053D01*
G37*
D16*
G04 #@! TD*
G04 #@! TO.P,R22,2*
G04 #@! TO.N,4V096*
X160500000Y-88037500D03*
D14*
G04 #@! TO.N,4V096*
G04 #@! TO.C,R23*
G36*
X152777691Y-90026053D02*
X152798926Y-90029203D01*
X152819750Y-90034419D01*
X152839962Y-90041651D01*
X152859368Y-90050830D01*
X152877781Y-90061866D01*
X152895024Y-90074654D01*
X152910930Y-90089070D01*
X152925346Y-90104976D01*
X152938134Y-90122219D01*
X152949170Y-90140632D01*
X152958349Y-90160038D01*
X152965581Y-90180250D01*
X152970797Y-90201074D01*
X152973947Y-90222309D01*
X152975000Y-90243750D01*
X152975000Y-90756250D01*
X152973947Y-90777691D01*
X152970797Y-90798926D01*
X152965581Y-90819750D01*
X152958349Y-90839962D01*
X152949170Y-90859368D01*
X152938134Y-90877781D01*
X152925346Y-90895024D01*
X152910930Y-90910930D01*
X152895024Y-90925346D01*
X152877781Y-90938134D01*
X152859368Y-90949170D01*
X152839962Y-90958349D01*
X152819750Y-90965581D01*
X152798926Y-90970797D01*
X152777691Y-90973947D01*
X152756250Y-90975000D01*
X152318750Y-90975000D01*
X152297309Y-90973947D01*
X152276074Y-90970797D01*
X152255250Y-90965581D01*
X152235038Y-90958349D01*
X152215632Y-90949170D01*
X152197219Y-90938134D01*
X152179976Y-90925346D01*
X152164070Y-90910930D01*
X152149654Y-90895024D01*
X152136866Y-90877781D01*
X152125830Y-90859368D01*
X152116651Y-90839962D01*
X152109419Y-90819750D01*
X152104203Y-90798926D01*
X152101053Y-90777691D01*
X152100000Y-90756250D01*
X152100000Y-90243750D01*
X152101053Y-90222309D01*
X152104203Y-90201074D01*
X152109419Y-90180250D01*
X152116651Y-90160038D01*
X152125830Y-90140632D01*
X152136866Y-90122219D01*
X152149654Y-90104976D01*
X152164070Y-90089070D01*
X152179976Y-90074654D01*
X152197219Y-90061866D01*
X152215632Y-90050830D01*
X152235038Y-90041651D01*
X152255250Y-90034419D01*
X152276074Y-90029203D01*
X152297309Y-90026053D01*
X152318750Y-90025000D01*
X152756250Y-90025000D01*
X152777691Y-90026053D01*
X152777691Y-90026053D01*
G37*
D16*
G04 #@! TD*
G04 #@! TO.P,R23,2*
G04 #@! TO.N,4V096*
X152537500Y-90500000D03*
D14*
G04 #@! TO.N,Net-(J1-Pad11)*
G04 #@! TO.C,R23*
G36*
X151202691Y-90026053D02*
X151223926Y-90029203D01*
X151244750Y-90034419D01*
X151264962Y-90041651D01*
X151284368Y-90050830D01*
X151302781Y-90061866D01*
X151320024Y-90074654D01*
X151335930Y-90089070D01*
X151350346Y-90104976D01*
X151363134Y-90122219D01*
X151374170Y-90140632D01*
X151383349Y-90160038D01*
X151390581Y-90180250D01*
X151395797Y-90201074D01*
X151398947Y-90222309D01*
X151400000Y-90243750D01*
X151400000Y-90756250D01*
X151398947Y-90777691D01*
X151395797Y-90798926D01*
X151390581Y-90819750D01*
X151383349Y-90839962D01*
X151374170Y-90859368D01*
X151363134Y-90877781D01*
X151350346Y-90895024D01*
X151335930Y-90910930D01*
X151320024Y-90925346D01*
X151302781Y-90938134D01*
X151284368Y-90949170D01*
X151264962Y-90958349D01*
X151244750Y-90965581D01*
X151223926Y-90970797D01*
X151202691Y-90973947D01*
X151181250Y-90975000D01*
X150743750Y-90975000D01*
X150722309Y-90973947D01*
X150701074Y-90970797D01*
X150680250Y-90965581D01*
X150660038Y-90958349D01*
X150640632Y-90949170D01*
X150622219Y-90938134D01*
X150604976Y-90925346D01*
X150589070Y-90910930D01*
X150574654Y-90895024D01*
X150561866Y-90877781D01*
X150550830Y-90859368D01*
X150541651Y-90839962D01*
X150534419Y-90819750D01*
X150529203Y-90798926D01*
X150526053Y-90777691D01*
X150525000Y-90756250D01*
X150525000Y-90243750D01*
X150526053Y-90222309D01*
X150529203Y-90201074D01*
X150534419Y-90180250D01*
X150541651Y-90160038D01*
X150550830Y-90140632D01*
X150561866Y-90122219D01*
X150574654Y-90104976D01*
X150589070Y-90089070D01*
X150604976Y-90074654D01*
X150622219Y-90061866D01*
X150640632Y-90050830D01*
X150660038Y-90041651D01*
X150680250Y-90034419D01*
X150701074Y-90029203D01*
X150722309Y-90026053D01*
X150743750Y-90025000D01*
X151181250Y-90025000D01*
X151202691Y-90026053D01*
X151202691Y-90026053D01*
G37*
D16*
G04 #@! TD*
G04 #@! TO.P,R23,1*
G04 #@! TO.N,Net-(J1-Pad11)*
X150962500Y-90500000D03*
D14*
G04 #@! TO.N,Net-(J1-Pad13)*
G04 #@! TO.C,R24*
G36*
X151202691Y-97026053D02*
X151223926Y-97029203D01*
X151244750Y-97034419D01*
X151264962Y-97041651D01*
X151284368Y-97050830D01*
X151302781Y-97061866D01*
X151320024Y-97074654D01*
X151335930Y-97089070D01*
X151350346Y-97104976D01*
X151363134Y-97122219D01*
X151374170Y-97140632D01*
X151383349Y-97160038D01*
X151390581Y-97180250D01*
X151395797Y-97201074D01*
X151398947Y-97222309D01*
X151400000Y-97243750D01*
X151400000Y-97756250D01*
X151398947Y-97777691D01*
X151395797Y-97798926D01*
X151390581Y-97819750D01*
X151383349Y-97839962D01*
X151374170Y-97859368D01*
X151363134Y-97877781D01*
X151350346Y-97895024D01*
X151335930Y-97910930D01*
X151320024Y-97925346D01*
X151302781Y-97938134D01*
X151284368Y-97949170D01*
X151264962Y-97958349D01*
X151244750Y-97965581D01*
X151223926Y-97970797D01*
X151202691Y-97973947D01*
X151181250Y-97975000D01*
X150743750Y-97975000D01*
X150722309Y-97973947D01*
X150701074Y-97970797D01*
X150680250Y-97965581D01*
X150660038Y-97958349D01*
X150640632Y-97949170D01*
X150622219Y-97938134D01*
X150604976Y-97925346D01*
X150589070Y-97910930D01*
X150574654Y-97895024D01*
X150561866Y-97877781D01*
X150550830Y-97859368D01*
X150541651Y-97839962D01*
X150534419Y-97819750D01*
X150529203Y-97798926D01*
X150526053Y-97777691D01*
X150525000Y-97756250D01*
X150525000Y-97243750D01*
X150526053Y-97222309D01*
X150529203Y-97201074D01*
X150534419Y-97180250D01*
X150541651Y-97160038D01*
X150550830Y-97140632D01*
X150561866Y-97122219D01*
X150574654Y-97104976D01*
X150589070Y-97089070D01*
X150604976Y-97074654D01*
X150622219Y-97061866D01*
X150640632Y-97050830D01*
X150660038Y-97041651D01*
X150680250Y-97034419D01*
X150701074Y-97029203D01*
X150722309Y-97026053D01*
X150743750Y-97025000D01*
X151181250Y-97025000D01*
X151202691Y-97026053D01*
X151202691Y-97026053D01*
G37*
D16*
G04 #@! TD*
G04 #@! TO.P,R24,1*
G04 #@! TO.N,Net-(J1-Pad13)*
X150962500Y-97500000D03*
D14*
G04 #@! TO.N,4V096*
G04 #@! TO.C,R24*
G36*
X152777691Y-97026053D02*
X152798926Y-97029203D01*
X152819750Y-97034419D01*
X152839962Y-97041651D01*
X152859368Y-97050830D01*
X152877781Y-97061866D01*
X152895024Y-97074654D01*
X152910930Y-97089070D01*
X152925346Y-97104976D01*
X152938134Y-97122219D01*
X152949170Y-97140632D01*
X152958349Y-97160038D01*
X152965581Y-97180250D01*
X152970797Y-97201074D01*
X152973947Y-97222309D01*
X152975000Y-97243750D01*
X152975000Y-97756250D01*
X152973947Y-97777691D01*
X152970797Y-97798926D01*
X152965581Y-97819750D01*
X152958349Y-97839962D01*
X152949170Y-97859368D01*
X152938134Y-97877781D01*
X152925346Y-97895024D01*
X152910930Y-97910930D01*
X152895024Y-97925346D01*
X152877781Y-97938134D01*
X152859368Y-97949170D01*
X152839962Y-97958349D01*
X152819750Y-97965581D01*
X152798926Y-97970797D01*
X152777691Y-97973947D01*
X152756250Y-97975000D01*
X152318750Y-97975000D01*
X152297309Y-97973947D01*
X152276074Y-97970797D01*
X152255250Y-97965581D01*
X152235038Y-97958349D01*
X152215632Y-97949170D01*
X152197219Y-97938134D01*
X152179976Y-97925346D01*
X152164070Y-97910930D01*
X152149654Y-97895024D01*
X152136866Y-97877781D01*
X152125830Y-97859368D01*
X152116651Y-97839962D01*
X152109419Y-97819750D01*
X152104203Y-97798926D01*
X152101053Y-97777691D01*
X152100000Y-97756250D01*
X152100000Y-97243750D01*
X152101053Y-97222309D01*
X152104203Y-97201074D01*
X152109419Y-97180250D01*
X152116651Y-97160038D01*
X152125830Y-97140632D01*
X152136866Y-97122219D01*
X152149654Y-97104976D01*
X152164070Y-97089070D01*
X152179976Y-97074654D01*
X152197219Y-97061866D01*
X152215632Y-97050830D01*
X152235038Y-97041651D01*
X152255250Y-97034419D01*
X152276074Y-97029203D01*
X152297309Y-97026053D01*
X152318750Y-97025000D01*
X152756250Y-97025000D01*
X152777691Y-97026053D01*
X152777691Y-97026053D01*
G37*
D16*
G04 #@! TD*
G04 #@! TO.P,R24,2*
G04 #@! TO.N,4V096*
X152537500Y-97500000D03*
D17*
G04 #@! TO.P,RASPI_2_3_HEADER1,1*
G04 #@! TO.N,Net-(RASPI_2_3_HEADER1-Pad1)*
X191000000Y-54250000D03*
D18*
G04 #@! TO.P,RASPI_2_3_HEADER1,2*
G04 #@! TO.N,5V*
X188460000Y-54250000D03*
G04 #@! TO.P,RASPI_2_3_HEADER1,3*
G04 #@! TO.N,Net-(RASPI_2_3_HEADER1-Pad3)*
X191000000Y-56790000D03*
G04 #@! TO.P,RASPI_2_3_HEADER1,4*
G04 #@! TO.N,5V*
X188460000Y-56790000D03*
G04 #@! TO.P,RASPI_2_3_HEADER1,5*
G04 #@! TO.N,Net-(RASPI_2_3_HEADER1-Pad5)*
X191000000Y-59330000D03*
G04 #@! TO.P,RASPI_2_3_HEADER1,6*
G04 #@! TO.N,GND*
X188460000Y-59330000D03*
G04 #@! TO.P,RASPI_2_3_HEADER1,7*
G04 #@! TO.N,Net-(RASPI_2_3_HEADER1-Pad7)*
X191000000Y-61870000D03*
G04 #@! TO.P,RASPI_2_3_HEADER1,8*
G04 #@! TO.N,Net-(RASPI_2_3_HEADER1-Pad8)*
X188460000Y-61870000D03*
G04 #@! TO.P,RASPI_2_3_HEADER1,9*
G04 #@! TO.N,Net-(RASPI_2_3_HEADER1-Pad9)*
X191000000Y-64410000D03*
G04 #@! TO.P,RASPI_2_3_HEADER1,10*
G04 #@! TO.N,Net-(RASPI_2_3_HEADER1-Pad10)*
X188460000Y-64410000D03*
G04 #@! TO.P,RASPI_2_3_HEADER1,11*
G04 #@! TO.N,Net-(RASPI_2_3_HEADER1-Pad11)*
X191000000Y-66950000D03*
G04 #@! TO.P,RASPI_2_3_HEADER1,12*
G04 #@! TO.N,Net-(RASPI_2_3_HEADER1-Pad12)*
X188460000Y-66950000D03*
G04 #@! TO.P,RASPI_2_3_HEADER1,13*
G04 #@! TO.N,Net-(RASPI_2_3_HEADER1-Pad13)*
X191000000Y-69490000D03*
G04 #@! TO.P,RASPI_2_3_HEADER1,14*
G04 #@! TO.N,Net-(RASPI_2_3_HEADER1-Pad14)*
X188460000Y-69490000D03*
G04 #@! TO.P,RASPI_2_3_HEADER1,15*
G04 #@! TO.N,Net-(RASPI_2_3_HEADER1-Pad15)*
X191000000Y-72030000D03*
G04 #@! TO.P,RASPI_2_3_HEADER1,16*
G04 #@! TO.N,Net-(RASPI_2_3_HEADER1-Pad16)*
X188460000Y-72030000D03*
G04 #@! TO.P,RASPI_2_3_HEADER1,17*
G04 #@! TO.N,Net-(RASPI_2_3_HEADER1-Pad17)*
X191000000Y-74570000D03*
G04 #@! TO.P,RASPI_2_3_HEADER1,18*
G04 #@! TO.N,Net-(RASPI_2_3_HEADER1-Pad18)*
X188460000Y-74570000D03*
G04 #@! TO.P,RASPI_2_3_HEADER1,19*
G04 #@! TO.N,MOSI_0*
X191000000Y-77110000D03*
G04 #@! TO.P,RASPI_2_3_HEADER1,20*
G04 #@! TO.N,GND*
X188460000Y-77110000D03*
G04 #@! TO.P,RASPI_2_3_HEADER1,21*
G04 #@! TO.N,MISO_0*
X191000000Y-79650000D03*
G04 #@! TO.P,RASPI_2_3_HEADER1,22*
G04 #@! TO.N,Net-(RASPI_2_3_HEADER1-Pad22)*
X188460000Y-79650000D03*
G04 #@! TO.P,RASPI_2_3_HEADER1,23*
G04 #@! TO.N,SCLK0*
X191000000Y-82190000D03*
G04 #@! TO.P,RASPI_2_3_HEADER1,24*
G04 #@! TO.N,CE0*
X188460000Y-82190000D03*
G04 #@! TO.P,RASPI_2_3_HEADER1,25*
G04 #@! TO.N,GND*
X191000000Y-84730000D03*
G04 #@! TO.P,RASPI_2_3_HEADER1,26*
G04 #@! TO.N,CE1*
X188460000Y-84730000D03*
G04 #@! TO.P,RASPI_2_3_HEADER1,27*
G04 #@! TO.N,Net-(RASPI_2_3_HEADER1-Pad27)*
X191000000Y-87270000D03*
G04 #@! TO.P,RASPI_2_3_HEADER1,28*
G04 #@! TO.N,Net-(RASPI_2_3_HEADER1-Pad28)*
X188460000Y-87270000D03*
G04 #@! TO.P,RASPI_2_3_HEADER1,29*
G04 #@! TO.N,Net-(RASPI_2_3_HEADER1-Pad29)*
X191000000Y-89810000D03*
G04 #@! TO.P,RASPI_2_3_HEADER1,30*
G04 #@! TO.N,GND*
X188460000Y-89810000D03*
G04 #@! TO.P,RASPI_2_3_HEADER1,31*
G04 #@! TO.N,Net-(RASPI_2_3_HEADER1-Pad31)*
X191000000Y-92350000D03*
G04 #@! TO.P,RASPI_2_3_HEADER1,32*
G04 #@! TO.N,Net-(RASPI_2_3_HEADER1-Pad32)*
X188460000Y-92350000D03*
G04 #@! TO.P,RASPI_2_3_HEADER1,33*
G04 #@! TO.N,Net-(RASPI_2_3_HEADER1-Pad33)*
X191000000Y-94890000D03*
G04 #@! TO.P,RASPI_2_3_HEADER1,34*
G04 #@! TO.N,GND*
X188460000Y-94890000D03*
G04 #@! TO.P,RASPI_2_3_HEADER1,35*
G04 #@! TO.N,Net-(RASPI_2_3_HEADER1-Pad35)*
X191000000Y-97430000D03*
G04 #@! TO.P,RASPI_2_3_HEADER1,36*
G04 #@! TO.N,Net-(RASPI_2_3_HEADER1-Pad36)*
X188460000Y-97430000D03*
G04 #@! TO.P,RASPI_2_3_HEADER1,37*
G04 #@! TO.N,Net-(RASPI_2_3_HEADER1-Pad37)*
X191000000Y-99970000D03*
G04 #@! TO.P,RASPI_2_3_HEADER1,38*
G04 #@! TO.N,Net-(RASPI_2_3_HEADER1-Pad38)*
X188460000Y-99970000D03*
G04 #@! TO.P,RASPI_2_3_HEADER1,39*
G04 #@! TO.N,GND*
X191000000Y-102510000D03*
G04 #@! TO.P,RASPI_2_3_HEADER1,40*
G04 #@! TO.N,Net-(RASPI_2_3_HEADER1-Pad40)*
X188460000Y-102510000D03*
G04 #@! TD*
D19*
G04 #@! TO.P,U1,14*
G04 #@! TO.N,Net-(R7-Pad2)*
X166300000Y-62310000D03*
G04 #@! TO.P,U1,13*
G04 #@! TO.N,Net-(R14-Pad2)*
X166300000Y-61040000D03*
G04 #@! TO.P,U1,12*
G04 #@! TO.N,4V096*
X166300000Y-59770000D03*
G04 #@! TO.P,U1,11*
G04 #@! TO.N,GND*
X166300000Y-58500000D03*
G04 #@! TO.P,U1,10*
G04 #@! TO.N,4V096*
X166300000Y-57230000D03*
G04 #@! TO.P,U1,9*
G04 #@! TO.N,Net-(R13-Pad2)*
X166300000Y-55960000D03*
G04 #@! TO.P,U1,8*
G04 #@! TO.N,Net-(R6-Pad2)*
X166300000Y-54690000D03*
G04 #@! TO.P,U1,7*
G04 #@! TO.N,Net-(R5-Pad2)*
X171700000Y-54690000D03*
G04 #@! TO.P,U1,6*
G04 #@! TO.N,Net-(R12-Pad2)*
X171700000Y-55960000D03*
G04 #@! TO.P,U1,5*
G04 #@! TO.N,4V096*
X171700000Y-57230000D03*
G04 #@! TO.P,U1,4*
G04 #@! TO.N,5V*
X171700000Y-58500000D03*
G04 #@! TO.P,U1,3*
G04 #@! TO.N,Net-(R2-Pad1)*
X171700000Y-59770000D03*
G04 #@! TO.P,U1,2*
G04 #@! TO.N,Net-(R3-Pad1)*
X171700000Y-61040000D03*
G04 #@! TO.P,U1,1*
G04 #@! TO.N,4V096*
X171700000Y-62310000D03*
G04 #@! TD*
G04 #@! TO.P,U2,1*
G04 #@! TO.N,Net-(R4-Pad1)*
X177700000Y-100810000D03*
G04 #@! TO.P,U2,2*
G04 #@! TO.N,Net-(R15-Pad2)*
X177700000Y-99540000D03*
G04 #@! TO.P,U2,3*
G04 #@! TO.N,4V096*
X177700000Y-98270000D03*
G04 #@! TO.P,U2,4*
G04 #@! TO.N,5V*
X177700000Y-97000000D03*
G04 #@! TO.P,U2,5*
G04 #@! TO.N,4V096*
X177700000Y-95730000D03*
G04 #@! TO.P,U2,6*
G04 #@! TO.N,Net-(R16-Pad2)*
X177700000Y-94460000D03*
G04 #@! TO.P,U2,7*
G04 #@! TO.N,Net-(R8-Pad2)*
X177700000Y-93190000D03*
G04 #@! TO.P,U2,8*
G04 #@! TO.N,Net-(R10-Pad2)*
X172300000Y-93190000D03*
G04 #@! TO.P,U2,9*
G04 #@! TO.N,Net-(R10-Pad1)*
X172300000Y-94460000D03*
G04 #@! TO.P,U2,10*
G04 #@! TO.N,4V096*
X172300000Y-95730000D03*
G04 #@! TO.P,U2,11*
G04 #@! TO.N,GND*
X172300000Y-97000000D03*
G04 #@! TO.P,U2,12*
G04 #@! TO.N,4V096*
X172300000Y-98270000D03*
G04 #@! TO.P,U2,13*
G04 #@! TO.N,Net-(R11-Pad2)*
X172300000Y-99540000D03*
G04 #@! TO.P,U2,14*
G04 #@! TO.N,Net-(R9-Pad1)*
X172300000Y-100810000D03*
G04 #@! TD*
D20*
G04 #@! TO.P,U3,1*
G04 #@! TO.N,4V096*
X172445000Y-72200000D03*
G04 #@! TO.P,U3,2*
G04 #@! TO.N,Net-(R5-Pad2)*
X171175000Y-72200000D03*
G04 #@! TO.P,U3,3*
G04 #@! TO.N,Net-(R6-Pad2)*
X169905000Y-72200000D03*
G04 #@! TO.P,U3,4*
G04 #@! TO.N,Net-(R7-Pad2)*
X168635000Y-72200000D03*
G04 #@! TO.P,U3,5*
G04 #@! TO.N,Net-(R4-Pad1)*
X167365000Y-72200000D03*
G04 #@! TO.P,U3,6*
G04 #@! TO.N,Net-(R16-Pad2)*
X166095000Y-72200000D03*
G04 #@! TO.P,U3,7*
G04 #@! TO.N,Net-(R10-Pad1)*
X164825000Y-72200000D03*
G04 #@! TO.P,U3,8*
G04 #@! TO.N,Net-(R11-Pad2)*
X163555000Y-72200000D03*
G04 #@! TO.P,U3,9*
G04 #@! TO.N,GND*
X163555000Y-79300000D03*
G04 #@! TO.P,U3,10*
G04 #@! TO.N,CE0*
X164825000Y-79300000D03*
G04 #@! TO.P,U3,11*
G04 #@! TO.N,MOSI_0*
X166095000Y-79300000D03*
G04 #@! TO.P,U3,12*
G04 #@! TO.N,MISO_0*
X167365000Y-79300000D03*
G04 #@! TO.P,U3,13*
G04 #@! TO.N,SCLK0*
X168635000Y-79300000D03*
G04 #@! TO.P,U3,14*
G04 #@! TO.N,GND*
X169905000Y-79300000D03*
G04 #@! TO.P,U3,15*
G04 #@! TO.N,5V*
X171175000Y-79300000D03*
G04 #@! TO.P,U3,16*
X172445000Y-79300000D03*
G04 #@! TD*
D14*
G04 #@! TO.N,5V*
G04 #@! TO.C,C1*
G36*
X177202691Y-58026053D02*
X177223926Y-58029203D01*
X177244750Y-58034419D01*
X177264962Y-58041651D01*
X177284368Y-58050830D01*
X177302781Y-58061866D01*
X177320024Y-58074654D01*
X177335930Y-58089070D01*
X177350346Y-58104976D01*
X177363134Y-58122219D01*
X177374170Y-58140632D01*
X177383349Y-58160038D01*
X177390581Y-58180250D01*
X177395797Y-58201074D01*
X177398947Y-58222309D01*
X177400000Y-58243750D01*
X177400000Y-58756250D01*
X177398947Y-58777691D01*
X177395797Y-58798926D01*
X177390581Y-58819750D01*
X177383349Y-58839962D01*
X177374170Y-58859368D01*
X177363134Y-58877781D01*
X177350346Y-58895024D01*
X177335930Y-58910930D01*
X177320024Y-58925346D01*
X177302781Y-58938134D01*
X177284368Y-58949170D01*
X177264962Y-58958349D01*
X177244750Y-58965581D01*
X177223926Y-58970797D01*
X177202691Y-58973947D01*
X177181250Y-58975000D01*
X176743750Y-58975000D01*
X176722309Y-58973947D01*
X176701074Y-58970797D01*
X176680250Y-58965581D01*
X176660038Y-58958349D01*
X176640632Y-58949170D01*
X176622219Y-58938134D01*
X176604976Y-58925346D01*
X176589070Y-58910930D01*
X176574654Y-58895024D01*
X176561866Y-58877781D01*
X176550830Y-58859368D01*
X176541651Y-58839962D01*
X176534419Y-58819750D01*
X176529203Y-58798926D01*
X176526053Y-58777691D01*
X176525000Y-58756250D01*
X176525000Y-58243750D01*
X176526053Y-58222309D01*
X176529203Y-58201074D01*
X176534419Y-58180250D01*
X176541651Y-58160038D01*
X176550830Y-58140632D01*
X176561866Y-58122219D01*
X176574654Y-58104976D01*
X176589070Y-58089070D01*
X176604976Y-58074654D01*
X176622219Y-58061866D01*
X176640632Y-58050830D01*
X176660038Y-58041651D01*
X176680250Y-58034419D01*
X176701074Y-58029203D01*
X176722309Y-58026053D01*
X176743750Y-58025000D01*
X177181250Y-58025000D01*
X177202691Y-58026053D01*
X177202691Y-58026053D01*
G37*
D16*
G04 #@! TD*
G04 #@! TO.P,C1,1*
G04 #@! TO.N,5V*
X176962500Y-58500000D03*
D14*
G04 #@! TO.N,GND*
G04 #@! TO.C,C1*
G36*
X178777691Y-58026053D02*
X178798926Y-58029203D01*
X178819750Y-58034419D01*
X178839962Y-58041651D01*
X178859368Y-58050830D01*
X178877781Y-58061866D01*
X178895024Y-58074654D01*
X178910930Y-58089070D01*
X178925346Y-58104976D01*
X178938134Y-58122219D01*
X178949170Y-58140632D01*
X178958349Y-58160038D01*
X178965581Y-58180250D01*
X178970797Y-58201074D01*
X178973947Y-58222309D01*
X178975000Y-58243750D01*
X178975000Y-58756250D01*
X178973947Y-58777691D01*
X178970797Y-58798926D01*
X178965581Y-58819750D01*
X178958349Y-58839962D01*
X178949170Y-58859368D01*
X178938134Y-58877781D01*
X178925346Y-58895024D01*
X178910930Y-58910930D01*
X178895024Y-58925346D01*
X178877781Y-58938134D01*
X178859368Y-58949170D01*
X178839962Y-58958349D01*
X178819750Y-58965581D01*
X178798926Y-58970797D01*
X178777691Y-58973947D01*
X178756250Y-58975000D01*
X178318750Y-58975000D01*
X178297309Y-58973947D01*
X178276074Y-58970797D01*
X178255250Y-58965581D01*
X178235038Y-58958349D01*
X178215632Y-58949170D01*
X178197219Y-58938134D01*
X178179976Y-58925346D01*
X178164070Y-58910930D01*
X178149654Y-58895024D01*
X178136866Y-58877781D01*
X178125830Y-58859368D01*
X178116651Y-58839962D01*
X178109419Y-58819750D01*
X178104203Y-58798926D01*
X178101053Y-58777691D01*
X178100000Y-58756250D01*
X178100000Y-58243750D01*
X178101053Y-58222309D01*
X178104203Y-58201074D01*
X178109419Y-58180250D01*
X178116651Y-58160038D01*
X178125830Y-58140632D01*
X178136866Y-58122219D01*
X178149654Y-58104976D01*
X178164070Y-58089070D01*
X178179976Y-58074654D01*
X178197219Y-58061866D01*
X178215632Y-58050830D01*
X178235038Y-58041651D01*
X178255250Y-58034419D01*
X178276074Y-58029203D01*
X178297309Y-58026053D01*
X178318750Y-58025000D01*
X178756250Y-58025000D01*
X178777691Y-58026053D01*
X178777691Y-58026053D01*
G37*
D16*
G04 #@! TD*
G04 #@! TO.P,C1,2*
G04 #@! TO.N,GND*
X178537500Y-58500000D03*
D14*
G04 #@! TO.N,GND*
G04 #@! TO.C,C2*
G36*
X183277691Y-96526053D02*
X183298926Y-96529203D01*
X183319750Y-96534419D01*
X183339962Y-96541651D01*
X183359368Y-96550830D01*
X183377781Y-96561866D01*
X183395024Y-96574654D01*
X183410930Y-96589070D01*
X183425346Y-96604976D01*
X183438134Y-96622219D01*
X183449170Y-96640632D01*
X183458349Y-96660038D01*
X183465581Y-96680250D01*
X183470797Y-96701074D01*
X183473947Y-96722309D01*
X183475000Y-96743750D01*
X183475000Y-97256250D01*
X183473947Y-97277691D01*
X183470797Y-97298926D01*
X183465581Y-97319750D01*
X183458349Y-97339962D01*
X183449170Y-97359368D01*
X183438134Y-97377781D01*
X183425346Y-97395024D01*
X183410930Y-97410930D01*
X183395024Y-97425346D01*
X183377781Y-97438134D01*
X183359368Y-97449170D01*
X183339962Y-97458349D01*
X183319750Y-97465581D01*
X183298926Y-97470797D01*
X183277691Y-97473947D01*
X183256250Y-97475000D01*
X182818750Y-97475000D01*
X182797309Y-97473947D01*
X182776074Y-97470797D01*
X182755250Y-97465581D01*
X182735038Y-97458349D01*
X182715632Y-97449170D01*
X182697219Y-97438134D01*
X182679976Y-97425346D01*
X182664070Y-97410930D01*
X182649654Y-97395024D01*
X182636866Y-97377781D01*
X182625830Y-97359368D01*
X182616651Y-97339962D01*
X182609419Y-97319750D01*
X182604203Y-97298926D01*
X182601053Y-97277691D01*
X182600000Y-97256250D01*
X182600000Y-96743750D01*
X182601053Y-96722309D01*
X182604203Y-96701074D01*
X182609419Y-96680250D01*
X182616651Y-96660038D01*
X182625830Y-96640632D01*
X182636866Y-96622219D01*
X182649654Y-96604976D01*
X182664070Y-96589070D01*
X182679976Y-96574654D01*
X182697219Y-96561866D01*
X182715632Y-96550830D01*
X182735038Y-96541651D01*
X182755250Y-96534419D01*
X182776074Y-96529203D01*
X182797309Y-96526053D01*
X182818750Y-96525000D01*
X183256250Y-96525000D01*
X183277691Y-96526053D01*
X183277691Y-96526053D01*
G37*
D16*
G04 #@! TD*
G04 #@! TO.P,C2,2*
G04 #@! TO.N,GND*
X183037500Y-97000000D03*
D14*
G04 #@! TO.N,5V*
G04 #@! TO.C,C2*
G36*
X181702691Y-96526053D02*
X181723926Y-96529203D01*
X181744750Y-96534419D01*
X181764962Y-96541651D01*
X181784368Y-96550830D01*
X181802781Y-96561866D01*
X181820024Y-96574654D01*
X181835930Y-96589070D01*
X181850346Y-96604976D01*
X181863134Y-96622219D01*
X181874170Y-96640632D01*
X181883349Y-96660038D01*
X181890581Y-96680250D01*
X181895797Y-96701074D01*
X181898947Y-96722309D01*
X181900000Y-96743750D01*
X181900000Y-97256250D01*
X181898947Y-97277691D01*
X181895797Y-97298926D01*
X181890581Y-97319750D01*
X181883349Y-97339962D01*
X181874170Y-97359368D01*
X181863134Y-97377781D01*
X181850346Y-97395024D01*
X181835930Y-97410930D01*
X181820024Y-97425346D01*
X181802781Y-97438134D01*
X181784368Y-97449170D01*
X181764962Y-97458349D01*
X181744750Y-97465581D01*
X181723926Y-97470797D01*
X181702691Y-97473947D01*
X181681250Y-97475000D01*
X181243750Y-97475000D01*
X181222309Y-97473947D01*
X181201074Y-97470797D01*
X181180250Y-97465581D01*
X181160038Y-97458349D01*
X181140632Y-97449170D01*
X181122219Y-97438134D01*
X181104976Y-97425346D01*
X181089070Y-97410930D01*
X181074654Y-97395024D01*
X181061866Y-97377781D01*
X181050830Y-97359368D01*
X181041651Y-97339962D01*
X181034419Y-97319750D01*
X181029203Y-97298926D01*
X181026053Y-97277691D01*
X181025000Y-97256250D01*
X181025000Y-96743750D01*
X181026053Y-96722309D01*
X181029203Y-96701074D01*
X181034419Y-96680250D01*
X181041651Y-96660038D01*
X181050830Y-96640632D01*
X181061866Y-96622219D01*
X181074654Y-96604976D01*
X181089070Y-96589070D01*
X181104976Y-96574654D01*
X181122219Y-96561866D01*
X181140632Y-96550830D01*
X181160038Y-96541651D01*
X181180250Y-96534419D01*
X181201074Y-96529203D01*
X181222309Y-96526053D01*
X181243750Y-96525000D01*
X181681250Y-96525000D01*
X181702691Y-96526053D01*
X181702691Y-96526053D01*
G37*
D16*
G04 #@! TD*
G04 #@! TO.P,C2,1*
G04 #@! TO.N,5V*
X181462500Y-97000000D03*
D14*
G04 #@! TO.N,5V*
G04 #@! TO.C,C3*
G36*
X171777691Y-82776053D02*
X171798926Y-82779203D01*
X171819750Y-82784419D01*
X171839962Y-82791651D01*
X171859368Y-82800830D01*
X171877781Y-82811866D01*
X171895024Y-82824654D01*
X171910930Y-82839070D01*
X171925346Y-82854976D01*
X171938134Y-82872219D01*
X171949170Y-82890632D01*
X171958349Y-82910038D01*
X171965581Y-82930250D01*
X171970797Y-82951074D01*
X171973947Y-82972309D01*
X171975000Y-82993750D01*
X171975000Y-83506250D01*
X171973947Y-83527691D01*
X171970797Y-83548926D01*
X171965581Y-83569750D01*
X171958349Y-83589962D01*
X171949170Y-83609368D01*
X171938134Y-83627781D01*
X171925346Y-83645024D01*
X171910930Y-83660930D01*
X171895024Y-83675346D01*
X171877781Y-83688134D01*
X171859368Y-83699170D01*
X171839962Y-83708349D01*
X171819750Y-83715581D01*
X171798926Y-83720797D01*
X171777691Y-83723947D01*
X171756250Y-83725000D01*
X171318750Y-83725000D01*
X171297309Y-83723947D01*
X171276074Y-83720797D01*
X171255250Y-83715581D01*
X171235038Y-83708349D01*
X171215632Y-83699170D01*
X171197219Y-83688134D01*
X171179976Y-83675346D01*
X171164070Y-83660930D01*
X171149654Y-83645024D01*
X171136866Y-83627781D01*
X171125830Y-83609368D01*
X171116651Y-83589962D01*
X171109419Y-83569750D01*
X171104203Y-83548926D01*
X171101053Y-83527691D01*
X171100000Y-83506250D01*
X171100000Y-82993750D01*
X171101053Y-82972309D01*
X171104203Y-82951074D01*
X171109419Y-82930250D01*
X171116651Y-82910038D01*
X171125830Y-82890632D01*
X171136866Y-82872219D01*
X171149654Y-82854976D01*
X171164070Y-82839070D01*
X171179976Y-82824654D01*
X171197219Y-82811866D01*
X171215632Y-82800830D01*
X171235038Y-82791651D01*
X171255250Y-82784419D01*
X171276074Y-82779203D01*
X171297309Y-82776053D01*
X171318750Y-82775000D01*
X171756250Y-82775000D01*
X171777691Y-82776053D01*
X171777691Y-82776053D01*
G37*
D16*
G04 #@! TD*
G04 #@! TO.P,C3,1*
G04 #@! TO.N,5V*
X171537500Y-83250000D03*
D14*
G04 #@! TO.N,GND*
G04 #@! TO.C,C3*
G36*
X170202691Y-82776053D02*
X170223926Y-82779203D01*
X170244750Y-82784419D01*
X170264962Y-82791651D01*
X170284368Y-82800830D01*
X170302781Y-82811866D01*
X170320024Y-82824654D01*
X170335930Y-82839070D01*
X170350346Y-82854976D01*
X170363134Y-82872219D01*
X170374170Y-82890632D01*
X170383349Y-82910038D01*
X170390581Y-82930250D01*
X170395797Y-82951074D01*
X170398947Y-82972309D01*
X170400000Y-82993750D01*
X170400000Y-83506250D01*
X170398947Y-83527691D01*
X170395797Y-83548926D01*
X170390581Y-83569750D01*
X170383349Y-83589962D01*
X170374170Y-83609368D01*
X170363134Y-83627781D01*
X170350346Y-83645024D01*
X170335930Y-83660930D01*
X170320024Y-83675346D01*
X170302781Y-83688134D01*
X170284368Y-83699170D01*
X170264962Y-83708349D01*
X170244750Y-83715581D01*
X170223926Y-83720797D01*
X170202691Y-83723947D01*
X170181250Y-83725000D01*
X169743750Y-83725000D01*
X169722309Y-83723947D01*
X169701074Y-83720797D01*
X169680250Y-83715581D01*
X169660038Y-83708349D01*
X169640632Y-83699170D01*
X169622219Y-83688134D01*
X169604976Y-83675346D01*
X169589070Y-83660930D01*
X169574654Y-83645024D01*
X169561866Y-83627781D01*
X169550830Y-83609368D01*
X169541651Y-83589962D01*
X169534419Y-83569750D01*
X169529203Y-83548926D01*
X169526053Y-83527691D01*
X169525000Y-83506250D01*
X169525000Y-82993750D01*
X169526053Y-82972309D01*
X169529203Y-82951074D01*
X169534419Y-82930250D01*
X169541651Y-82910038D01*
X169550830Y-82890632D01*
X169561866Y-82872219D01*
X169574654Y-82854976D01*
X169589070Y-82839070D01*
X169604976Y-82824654D01*
X169622219Y-82811866D01*
X169640632Y-82800830D01*
X169660038Y-82791651D01*
X169680250Y-82784419D01*
X169701074Y-82779203D01*
X169722309Y-82776053D01*
X169743750Y-82775000D01*
X170181250Y-82775000D01*
X170202691Y-82776053D01*
X170202691Y-82776053D01*
G37*
D16*
G04 #@! TD*
G04 #@! TO.P,C3,2*
G04 #@! TO.N,GND*
X169962500Y-83250000D03*
D14*
G04 #@! TO.N,5V*
G04 #@! TO.C,C4*
G36*
X150240191Y-83026053D02*
X150261426Y-83029203D01*
X150282250Y-83034419D01*
X150302462Y-83041651D01*
X150321868Y-83050830D01*
X150340281Y-83061866D01*
X150357524Y-83074654D01*
X150373430Y-83089070D01*
X150387846Y-83104976D01*
X150400634Y-83122219D01*
X150411670Y-83140632D01*
X150420849Y-83160038D01*
X150428081Y-83180250D01*
X150433297Y-83201074D01*
X150436447Y-83222309D01*
X150437500Y-83243750D01*
X150437500Y-83756250D01*
X150436447Y-83777691D01*
X150433297Y-83798926D01*
X150428081Y-83819750D01*
X150420849Y-83839962D01*
X150411670Y-83859368D01*
X150400634Y-83877781D01*
X150387846Y-83895024D01*
X150373430Y-83910930D01*
X150357524Y-83925346D01*
X150340281Y-83938134D01*
X150321868Y-83949170D01*
X150302462Y-83958349D01*
X150282250Y-83965581D01*
X150261426Y-83970797D01*
X150240191Y-83973947D01*
X150218750Y-83975000D01*
X149781250Y-83975000D01*
X149759809Y-83973947D01*
X149738574Y-83970797D01*
X149717750Y-83965581D01*
X149697538Y-83958349D01*
X149678132Y-83949170D01*
X149659719Y-83938134D01*
X149642476Y-83925346D01*
X149626570Y-83910930D01*
X149612154Y-83895024D01*
X149599366Y-83877781D01*
X149588330Y-83859368D01*
X149579151Y-83839962D01*
X149571919Y-83819750D01*
X149566703Y-83798926D01*
X149563553Y-83777691D01*
X149562500Y-83756250D01*
X149562500Y-83243750D01*
X149563553Y-83222309D01*
X149566703Y-83201074D01*
X149571919Y-83180250D01*
X149579151Y-83160038D01*
X149588330Y-83140632D01*
X149599366Y-83122219D01*
X149612154Y-83104976D01*
X149626570Y-83089070D01*
X149642476Y-83074654D01*
X149659719Y-83061866D01*
X149678132Y-83050830D01*
X149697538Y-83041651D01*
X149717750Y-83034419D01*
X149738574Y-83029203D01*
X149759809Y-83026053D01*
X149781250Y-83025000D01*
X150218750Y-83025000D01*
X150240191Y-83026053D01*
X150240191Y-83026053D01*
G37*
D16*
G04 #@! TD*
G04 #@! TO.P,C4,1*
G04 #@! TO.N,5V*
X150000000Y-83500000D03*
D14*
G04 #@! TO.N,GND*
G04 #@! TO.C,C4*
G36*
X151815191Y-83026053D02*
X151836426Y-83029203D01*
X151857250Y-83034419D01*
X151877462Y-83041651D01*
X151896868Y-83050830D01*
X151915281Y-83061866D01*
X151932524Y-83074654D01*
X151948430Y-83089070D01*
X151962846Y-83104976D01*
X151975634Y-83122219D01*
X151986670Y-83140632D01*
X151995849Y-83160038D01*
X152003081Y-83180250D01*
X152008297Y-83201074D01*
X152011447Y-83222309D01*
X152012500Y-83243750D01*
X152012500Y-83756250D01*
X152011447Y-83777691D01*
X152008297Y-83798926D01*
X152003081Y-83819750D01*
X151995849Y-83839962D01*
X151986670Y-83859368D01*
X151975634Y-83877781D01*
X151962846Y-83895024D01*
X151948430Y-83910930D01*
X151932524Y-83925346D01*
X151915281Y-83938134D01*
X151896868Y-83949170D01*
X151877462Y-83958349D01*
X151857250Y-83965581D01*
X151836426Y-83970797D01*
X151815191Y-83973947D01*
X151793750Y-83975000D01*
X151356250Y-83975000D01*
X151334809Y-83973947D01*
X151313574Y-83970797D01*
X151292750Y-83965581D01*
X151272538Y-83958349D01*
X151253132Y-83949170D01*
X151234719Y-83938134D01*
X151217476Y-83925346D01*
X151201570Y-83910930D01*
X151187154Y-83895024D01*
X151174366Y-83877781D01*
X151163330Y-83859368D01*
X151154151Y-83839962D01*
X151146919Y-83819750D01*
X151141703Y-83798926D01*
X151138553Y-83777691D01*
X151137500Y-83756250D01*
X151137500Y-83243750D01*
X151138553Y-83222309D01*
X151141703Y-83201074D01*
X151146919Y-83180250D01*
X151154151Y-83160038D01*
X151163330Y-83140632D01*
X151174366Y-83122219D01*
X151187154Y-83104976D01*
X151201570Y-83089070D01*
X151217476Y-83074654D01*
X151234719Y-83061866D01*
X151253132Y-83050830D01*
X151272538Y-83041651D01*
X151292750Y-83034419D01*
X151313574Y-83029203D01*
X151334809Y-83026053D01*
X151356250Y-83025000D01*
X151793750Y-83025000D01*
X151815191Y-83026053D01*
X151815191Y-83026053D01*
G37*
D16*
G04 #@! TD*
G04 #@! TO.P,C4,2*
G04 #@! TO.N,GND*
X151575000Y-83500000D03*
D14*
G04 #@! TO.N,MISO_0*
G04 #@! TO.C,R25*
G36*
X183760779Y-81351144D02*
X183783834Y-81354563D01*
X183806443Y-81360227D01*
X183828387Y-81368079D01*
X183849457Y-81378044D01*
X183869448Y-81390026D01*
X183888168Y-81403910D01*
X183905438Y-81419562D01*
X183921090Y-81436832D01*
X183934974Y-81455552D01*
X183946956Y-81475543D01*
X183956921Y-81496613D01*
X183964773Y-81518557D01*
X183970437Y-81541166D01*
X183973856Y-81564221D01*
X183975000Y-81587500D01*
X183975000Y-82162500D01*
X183973856Y-82185779D01*
X183970437Y-82208834D01*
X183964773Y-82231443D01*
X183956921Y-82253387D01*
X183946956Y-82274457D01*
X183934974Y-82294448D01*
X183921090Y-82313168D01*
X183905438Y-82330438D01*
X183888168Y-82346090D01*
X183869448Y-82359974D01*
X183849457Y-82371956D01*
X183828387Y-82381921D01*
X183806443Y-82389773D01*
X183783834Y-82395437D01*
X183760779Y-82398856D01*
X183737500Y-82400000D01*
X183262500Y-82400000D01*
X183239221Y-82398856D01*
X183216166Y-82395437D01*
X183193557Y-82389773D01*
X183171613Y-82381921D01*
X183150543Y-82371956D01*
X183130552Y-82359974D01*
X183111832Y-82346090D01*
X183094562Y-82330438D01*
X183078910Y-82313168D01*
X183065026Y-82294448D01*
X183053044Y-82274457D01*
X183043079Y-82253387D01*
X183035227Y-82231443D01*
X183029563Y-82208834D01*
X183026144Y-82185779D01*
X183025000Y-82162500D01*
X183025000Y-81587500D01*
X183026144Y-81564221D01*
X183029563Y-81541166D01*
X183035227Y-81518557D01*
X183043079Y-81496613D01*
X183053044Y-81475543D01*
X183065026Y-81455552D01*
X183078910Y-81436832D01*
X183094562Y-81419562D01*
X183111832Y-81403910D01*
X183130552Y-81390026D01*
X183150543Y-81378044D01*
X183171613Y-81368079D01*
X183193557Y-81360227D01*
X183216166Y-81354563D01*
X183239221Y-81351144D01*
X183262500Y-81350000D01*
X183737500Y-81350000D01*
X183760779Y-81351144D01*
X183760779Y-81351144D01*
G37*
D21*
G04 #@! TD*
G04 #@! TO.P,R25,1*
G04 #@! TO.N,MISO_0*
X183500000Y-81875000D03*
D14*
G04 #@! TO.N,GND*
G04 #@! TO.C,R25*
G36*
X183760779Y-79601144D02*
X183783834Y-79604563D01*
X183806443Y-79610227D01*
X183828387Y-79618079D01*
X183849457Y-79628044D01*
X183869448Y-79640026D01*
X183888168Y-79653910D01*
X183905438Y-79669562D01*
X183921090Y-79686832D01*
X183934974Y-79705552D01*
X183946956Y-79725543D01*
X183956921Y-79746613D01*
X183964773Y-79768557D01*
X183970437Y-79791166D01*
X183973856Y-79814221D01*
X183975000Y-79837500D01*
X183975000Y-80412500D01*
X183973856Y-80435779D01*
X183970437Y-80458834D01*
X183964773Y-80481443D01*
X183956921Y-80503387D01*
X183946956Y-80524457D01*
X183934974Y-80544448D01*
X183921090Y-80563168D01*
X183905438Y-80580438D01*
X183888168Y-80596090D01*
X183869448Y-80609974D01*
X183849457Y-80621956D01*
X183828387Y-80631921D01*
X183806443Y-80639773D01*
X183783834Y-80645437D01*
X183760779Y-80648856D01*
X183737500Y-80650000D01*
X183262500Y-80650000D01*
X183239221Y-80648856D01*
X183216166Y-80645437D01*
X183193557Y-80639773D01*
X183171613Y-80631921D01*
X183150543Y-80621956D01*
X183130552Y-80609974D01*
X183111832Y-80596090D01*
X183094562Y-80580438D01*
X183078910Y-80563168D01*
X183065026Y-80544448D01*
X183053044Y-80524457D01*
X183043079Y-80503387D01*
X183035227Y-80481443D01*
X183029563Y-80458834D01*
X183026144Y-80435779D01*
X183025000Y-80412500D01*
X183025000Y-79837500D01*
X183026144Y-79814221D01*
X183029563Y-79791166D01*
X183035227Y-79768557D01*
X183043079Y-79746613D01*
X183053044Y-79725543D01*
X183065026Y-79705552D01*
X183078910Y-79686832D01*
X183094562Y-79669562D01*
X183111832Y-79653910D01*
X183130552Y-79640026D01*
X183150543Y-79628044D01*
X183171613Y-79618079D01*
X183193557Y-79610227D01*
X183216166Y-79604563D01*
X183239221Y-79601144D01*
X183262500Y-79600000D01*
X183737500Y-79600000D01*
X183760779Y-79601144D01*
X183760779Y-79601144D01*
G37*
D21*
G04 #@! TD*
G04 #@! TO.P,R25,2*
G04 #@! TO.N,GND*
X183500000Y-80125000D03*
D22*
G04 #@! TO.P,U4,1*
G04 #@! TO.N,CE1*
X151415000Y-81450000D03*
G04 #@! TO.P,U4,2*
G04 #@! TO.N,GND*
X151415000Y-80500000D03*
G04 #@! TO.P,U4,3*
G04 #@! TO.N,SCLK0*
X151415000Y-79550000D03*
G04 #@! TO.P,U4,4*
G04 #@! TO.N,MISO_0*
X149085000Y-79550000D03*
G04 #@! TO.P,U4,5*
G04 #@! TO.N,5V*
X149085000Y-81450000D03*
G04 #@! TD*
D12*
G04 #@! TO.P,REF\002A\002A,1*
G04 #@! TO.N,N/C*
X141000000Y-107250000D03*
G04 #@! TD*
D23*
G04 #@! TO.N,Net-(R6-Pad2)*
X168250000Y-54750000D03*
X168250000Y-65750000D03*
G04 #@! TO.N,Net-(R5-Pad2)*
X169250000Y-54750000D03*
X169250000Y-64250000D03*
G04 #@! TO.N,Net-(R12-Pad2)*
X159500000Y-53500000D03*
X157000000Y-58250000D03*
G04 #@! TO.N,4V096*
X159500000Y-57750000D03*
X163000000Y-57750000D03*
G04 #@! TO.N,Net-(R11-Pad2)*
X155250000Y-60250000D03*
X163500000Y-67000000D03*
G04 #@! TO.N,4V096*
X148500000Y-54500000D03*
X148500000Y-61250000D03*
X148500000Y-68000000D03*
X148500000Y-75000000D03*
X148500000Y-96000000D03*
X148500000Y-89000000D03*
G04 #@! TO.N,Net-(R16-Pad2)*
X175000000Y-94250000D03*
X166250000Y-75500000D03*
G04 #@! TO.N,Net-(R4-Pad1)*
X175750000Y-100750000D03*
X167500000Y-75000000D03*
G04 #@! TO.N,4V096*
X148500000Y-102500000D03*
G04 #@! TO.N,Net-(R11-Pad2)*
X157000000Y-76000000D03*
X157000000Y-103500000D03*
X157000000Y-98250000D03*
X157000000Y-90250000D03*
G04 #@! TO.N,Net-(R15-Pad2)*
X155250000Y-87000000D03*
X183750000Y-99000000D03*
G04 #@! TO.N,Net-(R16-Pad2)*
X172250000Y-89500000D03*
X172250000Y-89500000D03*
G04 #@! TO.N,Net-(R10-Pad1)*
X164250000Y-92500000D03*
G04 #@! TO.N,5V*
X173250000Y-84000000D03*
X173250000Y-87000000D03*
G04 #@! TO.N,Net-(R10-Pad1)*
X164750000Y-69750000D03*
G04 #@! TO.N,GND*
X183500000Y-78250000D03*
X164000000Y-77000000D03*
X154500000Y-83500000D03*
X154500000Y-80500000D03*
X185750000Y-89750000D03*
X179000000Y-66000000D03*
X180250000Y-58500000D03*
X186000000Y-57750000D03*
X163750000Y-59000000D03*
X170000000Y-97000000D03*
G04 #@! TO.N,MISO_0*
X161750000Y-80500000D03*
X175500000Y-81750000D03*
G04 #@! TO.N,CE0*
X176000000Y-84250000D03*
G04 #@! TO.N,MOSI_0*
X168000000Y-86750000D03*
G04 #@! TO.N,MISO_0*
X167250000Y-81750000D03*
G04 #@! TO.N,MOSI_0*
X166000000Y-83500000D03*
G04 #@! TO.N,CE0*
X164750000Y-82500000D03*
G04 #@! TD*
D24*
G04 #@! TO.N,Net-(D1-Pad1)*
X184500000Y-58437500D02*
X183500000Y-57437500D01*
X184500000Y-59312500D02*
X184500000Y-58437500D01*
X183141850Y-64050000D02*
X181950000Y-64050000D01*
X185525010Y-61666840D02*
X183141850Y-64050000D01*
X185525010Y-60337510D02*
X185525010Y-61666840D01*
X181950000Y-64050000D02*
X181250000Y-64050000D01*
X184500000Y-59312500D02*
X185525010Y-60337510D01*
G04 #@! TO.N,Net-(J1-Pad1)*
X150425000Y-55500000D02*
X142500000Y-55500000D01*
X150962500Y-55500000D02*
X150425000Y-55500000D01*
G04 #@! TO.N,Net-(J1-Pad2)*
X144050000Y-59000000D02*
X151062500Y-59000000D01*
X142500000Y-59000000D02*
X144050000Y-59000000D01*
G04 #@! TO.N,Net-(J1-Pad3)*
X142500000Y-62500000D02*
X150962500Y-62500000D01*
G04 #@! TO.N,Net-(J1-Pad4)*
X142500000Y-66000000D02*
X151062500Y-66000000D01*
G04 #@! TO.N,Net-(J1-Pad5)*
X142500000Y-69500000D02*
X150962500Y-69500000D01*
G04 #@! TO.N,Net-(J1-Pad6)*
X144050000Y-73000000D02*
X151062500Y-73000000D01*
X142500000Y-73000000D02*
X144050000Y-73000000D01*
G04 #@! TO.N,Net-(J1-Pad7)*
X142500000Y-76500000D02*
X150962500Y-76500000D01*
G04 #@! TO.N,Net-(J1-Pad8)*
X144050000Y-80000000D02*
X146300000Y-77750000D01*
X142500000Y-80000000D02*
X144050000Y-80000000D01*
X158062500Y-68300000D02*
X158062500Y-67500000D01*
X158062500Y-72218994D02*
X158062500Y-68300000D01*
X152531494Y-77750000D02*
X158062500Y-72218994D01*
X146300000Y-77750000D02*
X152531494Y-77750000D01*
G04 #@! TO.N,Net-(J1-Pad9)*
X160500000Y-86462500D02*
X159287500Y-85250000D01*
X144050000Y-83500000D02*
X142500000Y-83500000D01*
X145800000Y-85250000D02*
X144050000Y-83500000D01*
X159287500Y-85250000D02*
X145800000Y-85250000D01*
G04 #@! TO.N,Net-(J1-Pad10)*
X142500000Y-87000000D02*
X151062500Y-87000000D01*
G04 #@! TO.N,Net-(J1-Pad11)*
X142500000Y-90500000D02*
X150962500Y-90500000D01*
G04 #@! TO.N,Net-(J1-Pad12)*
X142500000Y-94000000D02*
X151062500Y-94000000D01*
G04 #@! TO.N,Net-(J1-Pad13)*
X144050000Y-97500000D02*
X150962500Y-97500000D01*
X142500000Y-97500000D02*
X144050000Y-97500000D01*
G04 #@! TO.N,Net-(J1-Pad14)*
X142500000Y-101000000D02*
X151062500Y-101000000D01*
G04 #@! TO.N,Net-(R2-Pad1)*
X172700000Y-59770000D02*
X171700000Y-59770000D01*
X172720010Y-59749990D02*
X172700000Y-59770000D01*
X182262490Y-59749990D02*
X172720010Y-59749990D01*
X183700000Y-61187500D02*
X182262490Y-59749990D01*
X184500000Y-61187500D02*
X183700000Y-61187500D01*
G04 #@! TO.N,4V096*
X172300000Y-95730000D02*
X173300000Y-95730000D01*
X174750000Y-98270000D02*
X174750000Y-95730000D01*
X172300000Y-98270000D02*
X174750000Y-98270000D01*
X174750000Y-98270000D02*
X177700000Y-98270000D01*
X174750000Y-95730000D02*
X177700000Y-95730000D01*
X173300000Y-95730000D02*
X174750000Y-95730000D01*
X157500000Y-55500000D02*
X152537500Y-55500000D01*
X171827500Y-62437500D02*
X171700000Y-62310000D01*
X175500000Y-62437500D02*
X171827500Y-62437500D01*
X168160000Y-59770000D02*
X167300000Y-59770000D01*
X170700000Y-62310000D02*
X168160000Y-59770000D01*
X167300000Y-59770000D02*
X166300000Y-59770000D01*
X171700000Y-62310000D02*
X170700000Y-62310000D01*
X168160000Y-58070000D02*
X169000000Y-57230000D01*
X168160000Y-59770000D02*
X168160000Y-58070000D01*
X169000000Y-57230000D02*
X171700000Y-57230000D01*
X166300000Y-57230000D02*
X169000000Y-57230000D01*
X172445000Y-71200000D02*
X172445000Y-72200000D01*
X172445000Y-63605000D02*
X172445000Y-71200000D01*
X171700000Y-62860000D02*
X172445000Y-63605000D01*
X171700000Y-62310000D02*
X171700000Y-62860000D01*
G04 #@! TO.N,Net-(R3-Pad1)*
X175022500Y-61040000D02*
X175500000Y-60562500D01*
X171700000Y-61040000D02*
X175022500Y-61040000D01*
G04 #@! TO.N,Net-(R15-Pad2)*
X180772500Y-99540000D02*
X181250000Y-99062500D01*
X177700000Y-99540000D02*
X180772500Y-99540000D01*
G04 #@! TO.N,Net-(R4-Pad1)*
X181122500Y-100810000D02*
X181250000Y-100937500D01*
X177700000Y-100810000D02*
X181122500Y-100810000D01*
G04 #@! TO.N,Net-(R5-Pad2)*
X175372500Y-54690000D02*
X175500000Y-54562500D01*
X171700000Y-54690000D02*
X175372500Y-54690000D01*
G04 #@! TO.N,Net-(R12-Pad2)*
X175022500Y-55960000D02*
X175500000Y-56437500D01*
X171700000Y-55960000D02*
X175022500Y-55960000D01*
G04 #@! TO.N,Net-(R13-Pad2)*
X162977500Y-55960000D02*
X162500000Y-56437500D01*
X166300000Y-55960000D02*
X162977500Y-55960000D01*
G04 #@! TO.N,Net-(R6-Pad2)*
X162627500Y-54690000D02*
X162500000Y-54562500D01*
X166300000Y-54690000D02*
X162627500Y-54690000D01*
G04 #@! TO.N,Net-(R14-Pad2)*
X162977500Y-61040000D02*
X162500000Y-60562500D01*
X166300000Y-61040000D02*
X162977500Y-61040000D01*
G04 #@! TO.N,Net-(R7-Pad2)*
X162627500Y-62310000D02*
X162500000Y-62437500D01*
X166300000Y-62310000D02*
X162627500Y-62310000D01*
X166300000Y-62310000D02*
X166300000Y-66050000D01*
X168635000Y-68385000D02*
X168635000Y-72200000D01*
X166300000Y-66050000D02*
X168635000Y-68385000D01*
G04 #@! TO.N,Net-(R11-Pad2)*
X169227500Y-99540000D02*
X168750000Y-99062500D01*
X172300000Y-99540000D02*
X169227500Y-99540000D01*
G04 #@! TO.N,Net-(R9-Pad1)*
X172172500Y-100937500D02*
X172300000Y-100810000D01*
X168750000Y-100937500D02*
X172172500Y-100937500D01*
G04 #@! TO.N,5V*
X188460000Y-54250000D02*
X188460000Y-56790000D01*
X187232500Y-55562500D02*
X188460000Y-56790000D01*
X183500000Y-55562500D02*
X187232500Y-55562500D01*
X150000000Y-83500000D02*
X149000000Y-82500000D01*
X149085000Y-82415000D02*
X149085000Y-81450000D01*
X149000000Y-82500000D02*
X149085000Y-82415000D01*
X171537500Y-79662500D02*
X171175000Y-79300000D01*
X171537500Y-83250000D02*
X171537500Y-79662500D01*
X172445000Y-79300000D02*
X171175000Y-79300000D01*
X180925000Y-97000000D02*
X177700000Y-97000000D01*
X181462500Y-97000000D02*
X180925000Y-97000000D01*
X176962500Y-58500000D02*
X171700000Y-58500000D01*
X176962500Y-58500000D02*
X179250000Y-56212500D01*
X182850000Y-56212500D02*
X183500000Y-55562500D01*
X179250000Y-56212500D02*
X182850000Y-56212500D01*
G04 #@! TO.N,GND*
X189635001Y-96065001D02*
X189309999Y-95739999D01*
X189309999Y-95739999D02*
X188460000Y-94890000D01*
X189635001Y-101145001D02*
X189635001Y-96065001D01*
X191000000Y-102510000D02*
X189635001Y-101145001D01*
X185445000Y-80125000D02*
X188460000Y-77110000D01*
X183500000Y-80125000D02*
X185445000Y-80125000D01*
X185147500Y-94890000D02*
X183037500Y-97000000D01*
X188460000Y-94890000D02*
X185147500Y-94890000D01*
G04 #@! TO.N,Net-(R6-Pad2)*
X168190000Y-54690000D02*
X168250000Y-54750000D01*
X166300000Y-54690000D02*
X168190000Y-54690000D01*
X169905000Y-67405000D02*
X169905000Y-72200000D01*
X168250000Y-65750000D02*
X169905000Y-67405000D01*
G04 #@! TO.N,Net-(R5-Pad2)*
X169310000Y-54690000D02*
X169250000Y-54750000D01*
X171700000Y-54690000D02*
X169310000Y-54690000D01*
X171175000Y-66175000D02*
X171175000Y-72200000D01*
X169250000Y-64250000D02*
X171175000Y-66175000D01*
G04 #@! TO.N,Net-(R12-Pad2)*
X176525010Y-54083160D02*
X175941850Y-53500000D01*
X176525010Y-55412490D02*
X176525010Y-54083160D01*
X175500000Y-56437500D02*
X176525010Y-55412490D01*
X175941850Y-53500000D02*
X161750000Y-53500000D01*
X161750000Y-53500000D02*
X159500000Y-53500000D01*
X157000000Y-61937500D02*
X152937500Y-66000000D01*
X157000000Y-58250000D02*
X157000000Y-61937500D01*
G04 #@! TO.N,Net-(R13-Pad2)*
X162500000Y-57073910D02*
X155000000Y-64573910D01*
X162500000Y-56437500D02*
X162500000Y-57073910D01*
X155000000Y-70937500D02*
X152937500Y-73000000D01*
X155000000Y-64573910D02*
X155000000Y-70937500D01*
G04 #@! TO.N,Net-(R14-Pad2)*
X159937500Y-67500000D02*
X159937500Y-61062500D01*
X160437500Y-60562500D02*
X162500000Y-60562500D01*
X159937500Y-61062500D02*
X160437500Y-60562500D01*
G04 #@! TO.N,4V096*
X159500000Y-57750000D02*
X159500000Y-56500000D01*
X158500000Y-55500000D02*
X157500000Y-55500000D01*
X159500000Y-56500000D02*
X158500000Y-55500000D01*
X165300000Y-57230000D02*
X166300000Y-57230000D01*
X164780000Y-57750000D02*
X165300000Y-57230000D01*
X163000000Y-57750000D02*
X164780000Y-57750000D01*
G04 #@! TO.N,Net-(R11-Pad2)*
X154000000Y-59000000D02*
X152937500Y-59000000D01*
X155250000Y-60250000D02*
X154000000Y-59000000D01*
G04 #@! TO.N,4V096*
X152112500Y-54500000D02*
X149065685Y-54500000D01*
X152537500Y-54925000D02*
X152112500Y-54500000D01*
X149065685Y-54500000D02*
X148500000Y-54500000D01*
X152537500Y-55500000D02*
X152537500Y-54925000D01*
X152537500Y-96287500D02*
X152537500Y-97500000D01*
X152250000Y-96000000D02*
X152537500Y-96287500D01*
X148500000Y-96000000D02*
X152250000Y-96000000D01*
X148500000Y-89000000D02*
X152250000Y-89000000D01*
X152537500Y-89287500D02*
X152537500Y-90500000D01*
X152250000Y-89000000D02*
X152537500Y-89287500D01*
X151612500Y-75000000D02*
X149065685Y-75000000D01*
X152537500Y-75925000D02*
X151612500Y-75000000D01*
X149065685Y-75000000D02*
X148500000Y-75000000D01*
X152537500Y-76500000D02*
X152537500Y-75925000D01*
X152537500Y-69500000D02*
X152537500Y-68537500D01*
X152000000Y-68000000D02*
X148500000Y-68000000D01*
X152537500Y-68537500D02*
X152000000Y-68000000D01*
X151287500Y-61250000D02*
X148500000Y-61250000D01*
X152537500Y-62500000D02*
X151287500Y-61250000D01*
X155000000Y-88037500D02*
X152537500Y-90500000D01*
X160500000Y-88037500D02*
X155000000Y-88037500D01*
G04 #@! TO.N,Net-(R16-Pad2)*
X180772500Y-94460000D02*
X181250000Y-94937500D01*
X177700000Y-94460000D02*
X180772500Y-94460000D01*
G04 #@! TO.N,Net-(R8-Pad2)*
X181122500Y-93190000D02*
X181250000Y-93062500D01*
X177700000Y-93190000D02*
X181122500Y-93190000D01*
G04 #@! TO.N,Net-(R10-Pad1)*
X162687500Y-101000000D02*
X168750000Y-94937500D01*
X152937500Y-101000000D02*
X162687500Y-101000000D01*
X171822500Y-94937500D02*
X172300000Y-94460000D01*
X168750000Y-94937500D02*
X171822500Y-94937500D01*
G04 #@! TO.N,Net-(R10-Pad2)*
X172172500Y-93062500D02*
X172300000Y-93190000D01*
X168750000Y-93062500D02*
X172172500Y-93062500D01*
G04 #@! TO.N,Net-(R16-Pad2)*
X177490000Y-94250000D02*
X177700000Y-94460000D01*
X175000000Y-94250000D02*
X177490000Y-94250000D01*
G04 #@! TO.N,Net-(R4-Pad1)*
X167500000Y-72335000D02*
X167365000Y-72200000D01*
X167500000Y-75000000D02*
X167500000Y-72335000D01*
X177640000Y-100750000D02*
X177700000Y-100810000D01*
X175750000Y-100750000D02*
X177640000Y-100750000D01*
G04 #@! TO.N,Net-(R16-Pad2)*
X166250000Y-72355000D02*
X166095000Y-72200000D01*
X166250000Y-75500000D02*
X166250000Y-72355000D01*
G04 #@! TO.N,4V096*
X171300000Y-95730000D02*
X172300000Y-95730000D01*
X169461850Y-95730000D02*
X171300000Y-95730000D01*
X162691850Y-102500000D02*
X169461850Y-95730000D01*
X148500000Y-102500000D02*
X162691850Y-102500000D01*
G04 #@! TO.N,Net-(R11-Pad2)*
X167437500Y-99062500D02*
X168750000Y-99062500D01*
X163000000Y-103500000D02*
X167437500Y-99062500D01*
X157000000Y-103500000D02*
X163000000Y-103500000D01*
X163555000Y-72650000D02*
X163555000Y-72200000D01*
X160205000Y-76000000D02*
X163555000Y-72650000D01*
X157000000Y-76000000D02*
X160205000Y-76000000D01*
X157000000Y-90250000D02*
X157000000Y-98250000D01*
G04 #@! TO.N,Net-(R15-Pad2)*
X181312500Y-99000000D02*
X181250000Y-99062500D01*
X183750000Y-99000000D02*
X181312500Y-99000000D01*
X155250000Y-87000000D02*
X152937500Y-87000000D01*
G04 #@! TO.N,Net-(R16-Pad2)*
X153525000Y-94000000D02*
X154000000Y-93525000D01*
X152937500Y-94000000D02*
X153525000Y-94000000D01*
X154000000Y-93525000D02*
X154000000Y-90250000D01*
X154000000Y-90250000D02*
X155250000Y-89000000D01*
X155250000Y-89000000D02*
X157750000Y-89000000D01*
X157750000Y-89000000D02*
X158250000Y-89500000D01*
X158250000Y-89500000D02*
X172250000Y-89500000D01*
X172250000Y-89500000D02*
X172250000Y-89500000D01*
X172250000Y-89500000D02*
X172250000Y-89500000D01*
G04 #@! TO.N,Net-(R11-Pad2)*
X163500000Y-72145000D02*
X163555000Y-72200000D01*
X163500000Y-67000000D02*
X163500000Y-72145000D01*
G04 #@! TO.N,Net-(R10-Pad1)*
X168193763Y-94381263D02*
X166131263Y-94381263D01*
X168750000Y-94937500D02*
X168193763Y-94381263D01*
X166131263Y-94381263D02*
X164250000Y-92500000D01*
X164250000Y-92500000D02*
X164250000Y-92500000D01*
G04 #@! TO.N,5V*
X171175000Y-78300000D02*
X182475000Y-67000000D01*
X171175000Y-79300000D02*
X171175000Y-78300000D01*
X182475000Y-67000000D02*
X182685002Y-67000000D01*
X150724990Y-84799990D02*
X162663580Y-84799990D01*
X150000000Y-84075000D02*
X150724990Y-84799990D01*
X162663580Y-84799990D02*
X166113590Y-88250000D01*
X150000000Y-83500000D02*
X150000000Y-84075000D01*
X180500000Y-88250000D02*
X183000000Y-90750000D01*
X183000000Y-95462500D02*
X181462500Y-97000000D01*
X183000000Y-90750000D02*
X183000000Y-95462500D01*
X172287500Y-84000000D02*
X171537500Y-83250000D01*
X173250000Y-84000000D02*
X172287500Y-84000000D01*
X174500000Y-88250000D02*
X180500000Y-88250000D01*
X173250000Y-87000000D02*
X174500000Y-88250000D01*
X166113590Y-88250000D02*
X174500000Y-88250000D01*
G04 #@! TO.N,Net-(R10-Pad1)*
X164750000Y-72125000D02*
X164825000Y-72200000D01*
X164750000Y-69750000D02*
X164750000Y-72125000D01*
G04 #@! TO.N,5V*
X189309999Y-57639999D02*
X188460000Y-56790000D01*
X189635001Y-62434001D02*
X189635001Y-57965001D01*
X188834003Y-63234999D02*
X189635001Y-62434001D01*
X186450003Y-63234999D02*
X188834003Y-63234999D01*
X185750000Y-63935002D02*
X186450003Y-63234999D01*
X189635001Y-57965001D02*
X189309999Y-57639999D01*
X182685002Y-67000000D02*
X185750000Y-63935002D01*
G04 #@! TO.N,GND*
X183500000Y-80125000D02*
X183500000Y-79500000D01*
X169905000Y-78300000D02*
X169355000Y-77750000D01*
X169905000Y-79300000D02*
X169905000Y-78300000D01*
X164750000Y-77750000D02*
X164000000Y-77000000D01*
X169355000Y-77750000D02*
X164750000Y-77750000D01*
X163555000Y-77445000D02*
X164000000Y-77000000D01*
X163555000Y-79300000D02*
X163555000Y-77445000D01*
X169962500Y-79357500D02*
X169905000Y-79300000D01*
X169962500Y-83250000D02*
X169962500Y-79357500D01*
X151415000Y-80500000D02*
X153750000Y-80500000D01*
X151575000Y-83500000D02*
X153500000Y-83500000D01*
X180250000Y-58500000D02*
X178537500Y-58500000D01*
X181200000Y-66000000D02*
X181250000Y-65950000D01*
X179000000Y-66000000D02*
X181200000Y-66000000D01*
X186880000Y-57750000D02*
X188460000Y-59330000D01*
X186000000Y-57750000D02*
X186880000Y-57750000D01*
X183500000Y-78250000D02*
X183500000Y-80125000D01*
X154500000Y-80500000D02*
X153750000Y-80500000D01*
X154500000Y-83500000D02*
X153500000Y-83500000D01*
X164250000Y-58500000D02*
X163750000Y-59000000D01*
X166300000Y-58500000D02*
X164250000Y-58500000D01*
X172300000Y-97000000D02*
X170000000Y-97000000D01*
G04 #@! TO.N,MISO_0*
X177750000Y-84000000D02*
X175500000Y-81750000D01*
X185750000Y-84000000D02*
X177750000Y-84000000D01*
X191000000Y-79650000D02*
X189635001Y-81014999D01*
X187000000Y-81910998D02*
X187000000Y-82750000D01*
X189635001Y-81014999D02*
X187895999Y-81014999D01*
X187895999Y-81014999D02*
X187000000Y-81910998D01*
X167250000Y-79415000D02*
X167365000Y-79300000D01*
X167250000Y-81750000D02*
X167250000Y-79415000D01*
X149085000Y-79550000D02*
X149490000Y-79550000D01*
X149490000Y-79550000D02*
X150790000Y-78250000D01*
X160136410Y-78250000D02*
X161750000Y-79863590D01*
X161750000Y-79863590D02*
X161750000Y-80500000D01*
X150790000Y-78250000D02*
X160136410Y-78250000D01*
X183500000Y-81875000D02*
X184625000Y-81875000D01*
X186250000Y-83500000D02*
X185750000Y-84000000D01*
X184625000Y-81875000D02*
X186250000Y-83500000D01*
X187000000Y-82750000D02*
X186250000Y-83500000D01*
G04 #@! TO.N,SCLK0*
X191000000Y-82190000D02*
X190199002Y-82190000D01*
X151415000Y-79550000D02*
X152360000Y-79550000D01*
X152360000Y-79550000D02*
X153160000Y-78750000D01*
X153160000Y-78750000D02*
X160000000Y-78750000D01*
G04 #@! TO.N,MOSI_0*
X188929002Y-86000000D02*
X168750000Y-86000000D01*
X189635001Y-85294001D02*
X188929002Y-86000000D01*
X189635001Y-84165999D02*
X189635001Y-85294001D01*
X190246001Y-83554999D02*
X189635001Y-84165999D01*
X168750000Y-86000000D02*
X168000000Y-86750000D01*
X191000000Y-77110000D02*
X192175001Y-78285001D01*
X191374003Y-83554999D02*
X190246001Y-83554999D01*
X192175001Y-78285001D02*
X192175001Y-82754001D01*
X192175001Y-82754001D02*
X191374003Y-83554999D01*
X166000000Y-79395000D02*
X166095000Y-79300000D01*
X166000000Y-83500000D02*
X166000000Y-79395000D01*
G04 #@! TO.N,SCLK0*
X168500000Y-81000000D02*
X168635000Y-80865000D01*
X168635000Y-80865000D02*
X168635000Y-79300000D01*
X168500000Y-84250000D02*
X168500000Y-81000000D01*
X186250000Y-85000000D02*
X169250000Y-85000000D01*
X187695001Y-83554999D02*
X186250000Y-85000000D01*
X191000000Y-82190000D02*
X190150001Y-83039999D01*
X190150001Y-83039999D02*
X189349003Y-83039999D01*
X189349003Y-83039999D02*
X188834003Y-83554999D01*
X169250000Y-85000000D02*
X168500000Y-84250000D01*
X188834003Y-83554999D02*
X187695001Y-83554999D01*
X164426998Y-84250000D02*
X168500000Y-84250000D01*
X160000000Y-79823002D02*
X164426998Y-84250000D01*
X160000000Y-78750000D02*
X160000000Y-79823002D01*
G04 #@! TO.N,CE0*
X176565685Y-84250000D02*
X176000000Y-84250000D01*
X176815685Y-84500000D02*
X176565685Y-84250000D01*
X188460000Y-82190000D02*
X187610001Y-83039999D01*
X187610001Y-83039999D02*
X187460001Y-83039999D01*
X187460001Y-83039999D02*
X186000000Y-84500000D01*
X186000000Y-84500000D02*
X176815685Y-84500000D01*
X164750000Y-79375000D02*
X164825000Y-79300000D01*
X164750000Y-82500000D02*
X164750000Y-79375000D01*
G04 #@! TO.N,CE1*
X187257919Y-84730000D02*
X186487919Y-85500000D01*
X188460000Y-84730000D02*
X187257919Y-84730000D01*
X186487919Y-85500000D02*
X178250000Y-85500000D01*
X178250000Y-85500000D02*
X164000000Y-85500000D01*
X178250000Y-85500000D02*
X178000000Y-85500000D01*
X159950000Y-81450000D02*
X151415000Y-81450000D01*
X164000000Y-85500000D02*
X159950000Y-81450000D01*
G04 #@! TD*
M02*
